# MagicaVoxel @ ephtracy

# material
mtllib Advert8.mtl
usemtl palette

# mesh name
g advert8_mesh

# normals
vn -1 0 0
vn 1 0 0
vn 0 0 1
vn 0 0 -1
vn 0 -1 0
vn 0 1 0

# texcoords
vt 0.0449219 0.5
vt 0.138672 0.5
vt 0.685547 0.5
vt 0.958984 0.5
vt 0.986328 0.5
vt 0.994141 0.5

# verts
v -20 0 -0
v -20 0 -2
v -20 30 -0
v -20 30 -2
v -15 11 2
v -15 11 -0
v -15 20 2
v -15 20 -0
v -13 5 1
v -13 5 -0
v -13 11 1
v -13 11 -0
v -13 20 1
v -13 20 -0
v -13 26 1
v -13 26 -0
v -10 15 2
v -10 15 1
v -10 19 2
v -10 19 1
v -9 14 2
v -9 14 1
v -9 15 2
v -9 15 1
v -8 13 2
v -8 13 1
v -8 14 2
v -8 14 1
v -7 12 2
v -7 12 1
v -7 13 2
v -7 13 1
v -5 13 2
v -5 13 1
v -5 15 1
v -5 16 1
v -5 18 1
v -5 19 2
v -5 19 1
v 0 13 1
v 0 13 -0
v 0 14 1
v 0 14 -0
v 0 19 1
v 0 19 -0
v 0 26 1
v 0 26 -0
v 1 10 1
v 1 10 -0
v 1 13 1
v 1 13 -0
v 1 14 1
v 1 14 -0
v 1 17 1
v 1 17 -0
v 2 7 1
v 2 7 -0
v 2 9 1
v 2 9 -0
v 3 6 1
v 3 6 -0
v 3 7 1
v 3 7 -0
v 3 10 1
v 3 10 -0
v 3 13 1
v 3 13 -0
v 3 14 1
v 3 14 -0
v 3 16 1
v 3 16 -0
v 4 18 1
v 4 18 -0
v 4 19 1
v 4 19 -0
v 4 23 1
v 4 23 -0
v 4 27 1
v 4 27 -0
v 7 6 1
v 7 6 -0
v 7 8 1
v 7 8 -0
v 9 10 1
v 9 10 -0
v 9 16 1
v 9 16 -0
v 10 20 1
v 10 20 -0
v 10 25 1
v 10 25 -0
v 10 26 1
v 10 26 -0
v 10 27 1
v 10 27 -0
v 11 18 1
v 11 18 -0
v 11 19 1
v 11 19 -0
v 13 8 1
v 13 8 -0
v 13 10 1
v 13 10 -0
v 13 25 1
v 13 25 -0
v 13 26 1
v 13 26 -0
v 14 10 1
v 14 10 -0
v 14 11 1
v 14 11 -0
v 14 13 1
v 14 13 -0
v 14 16 1
v 14 16 -0
v 14 19 1
v 14 19 -0
v 14 20 1
v 14 20 -0
v -14 12 2
v -14 12 1
v -14 13 1
v -14 15 1
v -14 16 1
v -14 18 1
v -14 19 2
v -14 19 1
v -9 15 2
v -9 15 1
v -9 19 2
v -9 19 1
v -8 14 2
v -8 14 1
v -8 15 2
v -8 15 1
v -6 5 1
v -6 5 -0
v -6 11 1
v -6 11 -0
v -6 13 2
v -6 13 1
v -6 14 2
v -6 14 1
v -6 20 1
v -6 20 -0
v -6 26 1
v -6 26 -0
v -4 11 2
v -4 11 -0
v -4 20 2
v -4 20 -0
v 2 10 1
v 2 10 -0
v 2 13 1
v 2 13 -0
v 2 14 1
v 2 14 -0
v 2 17 1
v 2 17 -0
v 2 23 1
v 2 23 -0
v 2 26 1
v 2 26 -0
v 5 12 1
v 5 12 -0
v 5 13 1
v 5 13 -0
v 5 14 1
v 5 14 -0
v 5 16 1
v 5 16 -0
v 6 6 1
v 6 6 -0
v 6 9 1
v 6 9 -0
v 7 13 1
v 7 13 -0
v 7 14 1
v 7 14 -0
v 7 18 1
v 7 18 -0
v 7 19 1
v 7 19 -0
v 7 23 1
v 7 23 -0
v 7 27 1
v 7 27 -0
v 8 10 1
v 8 10 -0
v 8 12 1
v 8 12 -0
v 8 19 1
v 8 19 -0
v 8 23 1
v 8 23 -0
v 11 10 1
v 11 10 -0
v 11 11 1
v 11 11 -0
v 11 13 1
v 11 13 -0
v 11 16 1
v 11 16 -0
v 14 25 1
v 14 25 -0
v 14 26 1
v 14 26 -0
v 15 6 1
v 15 6 -0
v 15 10 1
v 15 10 -0
v 15 18 1
v 15 18 -0
v 15 25 1
v 15 25 -0
v 15 26 1
v 15 26 -0
v 15 27 1
v 15 27 -0
v 16 10 1
v 16 10 -0
v 16 16 1
v 16 16 -0
v 20 0 -0
v 20 0 -2
v 20 30 -0
v 20 30 -2
v -15 11 2
v -15 20 2
v -14 12 2
v -14 19 2
v -10 15 2
v -10 19 2
v -9 14 2
v -9 15 2
v -9 19 2
v -8 13 2
v -8 14 2
v -8 15 2
v -7 12 2
v -7 13 2
v -6 13 2
v -6 14 2
v -5 12 2
v -5 13 2
v -5 19 2
v -4 11 2
v -4 20 2
v -14 12 1
v -14 13 1
v -14 15 1
v -14 16 1
v -14 18 1
v -14 19 1
v -13 5 1
v -13 11 1
v -13 12 1
v -13 13 1
v -13 15 1
v -13 16 1
v -13 18 1
v -13 19 1
v -13 20 1
v -13 26 1
v -10 12 1
v -10 13 1
v -10 15 1
v -10 19 1
v -9 12 1
v -9 13 1
v -9 14 1
v -9 15 1
v -9 19 1
v -8 13 1
v -8 14 1
v -8 15 1
v -7 12 1
v -7 13 1
v -6 5 1
v -6 11 1
v -6 13 1
v -6 14 1
v -6 15 1
v -6 16 1
v -6 18 1
v -6 19 1
v -6 20 1
v -6 26 1
v -5 13 1
v -5 15 1
v -5 16 1
v -5 18 1
v -5 19 1
v 0 13 1
v 0 14 1
v 0 19 1
v 0 26 1
v 1 10 1
v 1 13 1
v 1 14 1
v 1 17 1
v 2 7 1
v 2 9 1
v 2 10 1
v 2 13 1
v 2 14 1
v 2 17 1
v 2 23 1
v 2 26 1
v 3 6 1
v 3 7 1
v 3 10 1
v 3 13 1
v 3 14 1
v 3 16 1
v 4 18 1
v 4 19 1
v 4 23 1
v 4 27 1
v 5 12 1
v 5 13 1
v 5 14 1
v 5 16 1
v 6 6 1
v 6 9 1
v 7 6 1
v 7 8 1
v 7 13 1
v 7 14 1
v 7 18 1
v 7 19 1
v 7 23 1
v 7 27 1
v 8 10 1
v 8 12 1
v 8 19 1
v 8 23 1
v 9 10 1
v 9 16 1
v 10 20 1
v 10 25 1
v 10 26 1
v 10 27 1
v 11 10 1
v 11 11 1
v 11 13 1
v 11 16 1
v 11 18 1
v 11 19 1
v 13 8 1
v 13 10 1
v 13 25 1
v 13 26 1
v 14 10 1
v 14 11 1
v 14 13 1
v 14 16 1
v 14 19 1
v 14 20 1
v 14 25 1
v 14 26 1
v 15 6 1
v 15 10 1
v 15 18 1
v 15 25 1
v 15 26 1
v 15 27 1
v 16 10 1
v 16 16 1
v -20 0 -0
v -20 30 -0
v -19 1 -0
v -19 29 -0
v -15 11 -0
v -15 20 -0
v -13 5 -0
v -13 11 -0
v -13 20 -0
v -13 26 -0
v -6 5 -0
v -6 11 -0
v -6 20 -0
v -6 26 -0
v -4 11 -0
v -4 20 -0
v 0 13 -0
v 0 14 -0
v 0 19 -0
v 0 26 -0
v 1 10 -0
v 1 13 -0
v 1 14 -0
v 1 17 -0
v 2 7 -0
v 2 9 -0
v 2 10 -0
v 2 13 -0
v 2 14 -0
v 2 17 -0
v 2 23 -0
v 2 26 -0
v 3 6 -0
v 3 7 -0
v 3 10 -0
v 3 13 -0
v 3 14 -0
v 3 16 -0
v 4 18 -0
v 4 19 -0
v 4 23 -0
v 4 27 -0
v 5 12 -0
v 5 13 -0
v 5 14 -0
v 5 16 -0
v 6 6 -0
v 6 9 -0
v 7 6 -0
v 7 8 -0
v 7 13 -0
v 7 14 -0
v 7 18 -0
v 7 19 -0
v 7 23 -0
v 7 27 -0
v 8 10 -0
v 8 12 -0
v 8 19 -0
v 8 23 -0
v 9 10 -0
v 9 16 -0
v 10 20 -0
v 10 25 -0
v 10 26 -0
v 10 27 -0
v 11 10 -0
v 11 11 -0
v 11 13 -0
v 11 16 -0
v 11 18 -0
v 11 19 -0
v 13 8 -0
v 13 10 -0
v 13 25 -0
v 13 26 -0
v 14 10 -0
v 14 11 -0
v 14 13 -0
v 14 16 -0
v 14 19 -0
v 14 20 -0
v 14 25 -0
v 14 26 -0
v 15 6 -0
v 15 10 -0
v 15 18 -0
v 15 25 -0
v 15 26 -0
v 15 27 -0
v 16 10 -0
v 16 16 -0
v 19 1 -0
v 19 29 -0
v 20 0 -0
v 20 30 -0
v -20 0 -2
v -20 30 -2
v 20 0 -2
v 20 30 -2
v -20 0 -0
v 20 0 -0
v -20 0 -2
v 20 0 -2
v -13 5 1
v -6 5 1
v -13 5 -0
v -6 5 -0
v 3 6 1
v 6 6 1
v 7 6 1
v 15 6 1
v 3 6 -0
v 6 6 -0
v 7 6 -0
v 15 6 -0
v 2 7 1
v 3 7 1
v 2 7 -0
v 3 7 -0
v 1 10 1
v 2 10 1
v 3 10 1
v 8 10 1
v 9 10 1
v 11 10 1
v 15 10 1
v 16 10 1
v 1 10 -0
v 2 10 -0
v 3 10 -0
v 8 10 -0
v 9 10 -0
v 11 10 -0
v 15 10 -0
v 16 10 -0
v -15 11 2
v -4 11 2
v -13 11 1
v -6 11 1
v 11 11 1
v 14 11 1
v -15 11 -0
v -13 11 -0
v -6 11 -0
v -4 11 -0
v 11 11 -0
v 14 11 -0
v -8 13 2
v -7 13 2
v -8 13 1
v -7 13 1
v 0 13 1
v 1 13 1
v 2 13 1
v 3 13 1
v 5 13 1
v 7 13 1
v 0 13 -0
v 1 13 -0
v 2 13 -0
v 3 13 -0
v 5 13 -0
v 7 13 -0
v -9 14 2
v -8 14 2
v -9 14 1
v -8 14 1
v -10 15 2
v -9 15 2
v -10 15 1
v -9 15 1
v 4 18 1
v 7 18 1
v 11 18 1
v 15 18 1
v 4 18 -0
v 7 18 -0
v 11 18 -0
v 15 18 -0
v -14 19 2
v -10 19 2
v -9 19 2
v -5 19 2
v -14 19 1
v -13 19 1
v -10 19 1
v -9 19 1
v -6 19 1
v -5 19 1
v 0 19 1
v 4 19 1
v 7 19 1
v 8 19 1
v 0 19 -0
v 4 19 -0
v 7 19 -0
v 8 19 -0
v 10 20 1
v 14 20 1
v 10 20 -0
v 14 20 -0
v 10 26 1
v 13 26 1
v 14 26 1
v 15 26 1
v 10 26 -0
v 13 26 -0
v 14 26 -0
v 15 26 -0
v 7 8 1
v 13 8 1
v 7 8 -0
v 13 8 -0
v 2 9 1
v 6 9 1
v 2 9 -0
v 6 9 -0
v 13 10 1
v 14 10 1
v 13 10 -0
v 14 10 -0
v -14 12 2
v -7 12 2
v -14 12 1
v -13 12 1
v -10 12 1
v -9 12 1
v -7 12 1
v 5 12 1
v 8 12 1
v 5 12 -0
v 8 12 -0
v -6 13 2
v -5 13 2
v -6 13 1
v -5 13 1
v 11 13 1
v 14 13 1
v 11 13 -0
v 14 13 -0
v -8 14 2
v -6 14 2
v -8 14 1
v -6 14 1
v 0 14 1
v 1 14 1
v 2 14 1
v 3 14 1
v 5 14 1
v 7 14 1
v 0 14 -0
v 1 14 -0
v 2 14 -0
v 3 14 -0
v 5 14 -0
v 7 14 -0
v -9 15 2
v -8 15 2
v -9 15 1
v -8 15 1
v 3 16 1
v 5 16 1
v 9 16 1
v 11 16 1
v 14 16 1
v 16 16 1
v 3 16 -0
v 5 16 -0
v 9 16 -0
v 11 16 -0
v 14 16 -0
v 16 16 -0
v 1 17 1
v 2 17 1
v 1 17 -0
v 2 17 -0
v 11 19 1
v 14 19 1
v 11 19 -0
v 14 19 -0
v -15 20 2
v -4 20 2
v -13 20 1
v -6 20 1
v -15 20 -0
v -13 20 -0
v -6 20 -0
v -4 20 -0
v 2 23 1
v 4 23 1
v 7 23 1
v 8 23 1
v 2 23 -0
v 4 23 -0
v 7 23 -0
v 8 23 -0
v 10 25 1
v 13 25 1
v 14 25 1
v 15 25 1
v 10 25 -0
v 13 25 -0
v 14 25 -0
v 15 25 -0
v -13 26 1
v -6 26 1
v 0 26 1
v 2 26 1
v -13 26 -0
v -6 26 -0
v 0 26 -0
v 2 26 -0
v 4 27 1
v 7 27 1
v 10 27 1
v 15 27 1
v 4 27 -0
v 7 27 -0
v 10 27 -0
v 15 27 -0
v -20 30 -0
v 20 30 -0
v -20 30 -2
v 20 30 -2

# faces
f 3/5/1 2/5/1 1/5/1
f 4/5/1 2/5/1 3/5/1
f 7/1/1 6/1/1 5/1/1
f 8/1/1 6/1/1 7/1/1
f 11/1/1 10/1/1 9/1/1
f 12/1/1 10/1/1 11/1/1
f 15/1/1 14/1/1 13/1/1
f 16/1/1 14/1/1 15/1/1
f 19/6/1 18/6/1 17/6/1
f 20/6/1 18/6/1 19/6/1
f 23/6/1 22/6/1 21/6/1
f 24/6/1 22/6/1 23/6/1
f 27/6/1 26/6/1 25/6/1
f 28/6/1 26/6/1 27/6/1
f 31/6/1 30/6/1 29/6/1
f 32/6/1 30/6/1 31/6/1
f 35/1/1 34/1/1 33/1/1
f 36/1/1 35/1/1 33/1/1
f 37/1/1 36/1/1 33/1/1
f 38/1/1 37/1/1 33/1/1
f 39/1/1 37/1/1 38/1/1
f 42/4/1 41/4/1 40/4/1
f 43/4/1 41/4/1 42/4/1
f 46/4/1 45/4/1 44/4/1
f 47/4/1 45/4/1 46/4/1
f 50/4/1 49/4/1 48/4/1
f 51/4/1 49/4/1 50/4/1
f 54/4/1 53/4/1 52/4/1
f 55/4/1 53/4/1 54/4/1
f 58/4/1 57/4/1 56/4/1
f 59/4/1 57/4/1 58/4/1
f 62/4/1 61/4/1 60/4/1
f 63/4/1 61/4/1 62/4/1
f 66/4/1 65/4/1 64/4/1
f 67/4/1 65/4/1 66/4/1
f 70/4/1 69/4/1 68/4/1
f 71/4/1 69/4/1 70/4/1
f 74/4/1 73/4/1 72/4/1
f 75/4/1 73/4/1 74/4/1
f 78/4/1 77/4/1 76/4/1
f 79/4/1 77/4/1 78/4/1
f 82/4/1 81/4/1 80/4/1
f 83/4/1 81/4/1 82/4/1
f 86/4/1 85/4/1 84/4/1
f 87/4/1 85/4/1 86/4/1
f 90/4/1 89/4/1 88/4/1
f 91/4/1 89/4/1 90/4/1
f 94/4/1 93/4/1 92/4/1
f 95/4/1 93/4/1 94/4/1
f 98/4/1 97/4/1 96/4/1
f 99/4/1 97/4/1 98/4/1
f 102/4/1 101/4/1 100/4/1
f 103/4/1 101/4/1 102/4/1
f 106/4/1 105/4/1 104/4/1
f 107/4/1 105/4/1 106/4/1
f 110/4/1 109/4/1 108/4/1
f 111/4/1 109/4/1 110/4/1
f 114/4/1 113/4/1 112/4/1
f 115/4/1 113/4/1 114/4/1
f 118/4/1 117/4/1 116/4/1
f 119/4/1 117/4/1 118/4/1
f 120/1/2 121/1/2 122/1/2
f 120/1/2 122/1/2 123/1/2
f 120/1/2 123/1/2 124/1/2
f 120/1/2 124/1/2 125/1/2
f 120/1/2 125/1/2 126/1/2
f 126/1/2 125/1/2 127/1/2
f 128/6/2 129/6/2 130/6/2
f 130/6/2 129/6/2 131/6/2
f 132/6/2 133/6/2 134/6/2
f 134/6/2 133/6/2 135/6/2
f 136/1/2 137/1/2 138/1/2
f 138/1/2 137/1/2 139/1/2
f 140/6/2 141/6/2 142/6/2
f 142/6/2 141/6/2 143/6/2
f 144/1/2 145/1/2 146/1/2
f 146/1/2 145/1/2 147/1/2
f 148/1/2 149/1/2 150/1/2
f 150/1/2 149/1/2 151/1/2
f 152/4/2 153/4/2 154/4/2
f 154/4/2 153/4/2 155/4/2
f 156/4/2 157/4/2 158/4/2
f 158/4/2 157/4/2 159/4/2
f 160/4/2 161/4/2 162/4/2
f 162/4/2 161/4/2 163/4/2
f 164/4/2 165/4/2 166/4/2
f 166/4/2 165/4/2 167/4/2
f 168/4/2 169/4/2 170/4/2
f 170/4/2 169/4/2 171/4/2
f 172/4/2 173/4/2 174/4/2
f 174/4/2 173/4/2 175/4/2
f 176/4/2 177/4/2 178/4/2
f 178/4/2 177/4/2 179/4/2
f 180/4/2 181/4/2 182/4/2
f 182/4/2 181/4/2 183/4/2
f 184/4/2 185/4/2 186/4/2
f 186/4/2 185/4/2 187/4/2
f 188/4/2 189/4/2 190/4/2
f 190/4/2 189/4/2 191/4/2
f 192/4/2 193/4/2 194/4/2
f 194/4/2 193/4/2 195/4/2
f 196/4/2 197/4/2 198/4/2
f 198/4/2 197/4/2 199/4/2
f 200/4/2 201/4/2 202/4/2
f 202/4/2 201/4/2 203/4/2
f 204/4/2 205/4/2 206/4/2
f 206/4/2 205/4/2 207/4/2
f 208/4/2 209/4/2 210/4/2
f 210/4/2 209/4/2 211/4/2
f 212/4/2 213/4/2 214/4/2
f 214/4/2 213/4/2 215/4/2
f 216/4/2 217/4/2 218/4/2
f 218/4/2 217/4/2 219/4/2
f 220/4/2 221/4/2 222/4/2
f 222/4/2 221/4/2 223/4/2
f 224/5/2 225/5/2 226/5/2
f 226/5/2 225/5/2 227/5/2
f 230/1/3 229/1/3 228/1/3
f 231/1/3 229/1/3 230/1/3
f 233/1/3 229/1/3 231/1/3
f 235/6/3 233/6/3 232/6/3
f 236/1/3 229/1/3 233/1/3
f 236/6/3 233/6/3 235/6/3
f 238/6/3 235/6/3 234/6/3
f 239/6/3 235/6/3 238/6/3
f 240/1/3 230/1/3 228/1/3
f 241/6/3 238/6/3 237/6/3
f 242/6/3 238/6/3 241/6/3
f 242/6/3 241/6/3 240/6/3
f 243/6/3 238/6/3 242/6/3
f 244/1/3 240/1/3 228/1/3
f 244/6/3 242/6/3 240/6/3
f 245/6/3 242/6/3 244/6/3
f 246/1/3 229/1/3 236/1/3
f 247/1/3 245/1/3 244/1/3
f 247/1/3 246/1/3 245/1/3
f 247/1/3 244/1/3 228/1/3
f 248/1/3 229/1/3 246/1/3
f 248/1/3 246/1/3 247/1/3
f 257/6/3 250/6/3 249/6/3
f 258/4/3 251/4/3 250/4/3
f 258/6/3 250/6/3 257/6/3
f 259/6/3 252/6/3 251/6/3
f 259/4/3 251/4/3 258/4/3
f 260/4/3 253/4/3 252/4/3
f 260/6/3 252/6/3 259/6/3
f 261/6/3 254/6/3 253/6/3
f 261/4/3 253/4/3 260/4/3
f 262/6/3 254/6/3 261/6/3
f 265/4/3 258/4/3 257/4/3
f 265/4/3 259/4/3 258/4/3
f 265/4/3 262/4/3 261/4/3
f 265/4/3 261/4/3 260/4/3
f 265/4/3 260/4/3 259/4/3
f 266/4/3 262/4/3 265/4/3
f 267/4/3 262/4/3 266/4/3
f 268/4/3 262/4/3 267/4/3
f 269/6/3 266/6/3 265/6/3
f 270/4/3 267/4/3 266/4/3
f 270/6/3 266/6/3 269/6/3
f 271/4/3 267/4/3 270/4/3
f 272/4/3 267/4/3 271/4/3
f 274/4/3 270/4/3 269/4/3
f 274/4/3 271/4/3 270/4/3
f 275/4/3 271/4/3 274/4/3
f 276/4/3 273/4/3 272/4/3
f 277/4/3 274/4/3 269/4/3
f 278/4/3 274/4/3 277/4/3
f 279/1/3 256/1/3 255/1/3
f 280/1/3 256/1/3 279/1/3
f 282/4/3 276/4/3 275/4/3
f 283/4/3 273/4/3 276/4/3
f 283/4/3 276/4/3 282/4/3
f 284/4/3 273/4/3 283/4/3
f 285/4/3 273/4/3 284/4/3
f 286/4/3 273/4/3 285/4/3
f 287/1/3 264/1/3 263/1/3
f 288/1/3 264/1/3 287/1/3
f 289/4/3 282/4/3 281/4/3
f 289/4/3 283/4/3 282/4/3
f 290/6/3 284/6/3 283/6/3
f 290/4/3 283/4/3 289/4/3
f 291/4/3 285/4/3 284/4/3
f 291/6/3 284/6/3 290/6/3
f 292/6/3 286/6/3 285/6/3
f 292/4/3 285/4/3 291/4/3
f 293/6/3 286/6/3 292/6/3
f 299/4/3 295/4/3 294/4/3
f 300/4/3 295/4/3 299/4/3
f 304/4/3 299/4/3 298/4/3
f 304/4/3 300/4/3 299/4/3
f 304/4/3 301/4/3 300/4/3
f 305/4/3 301/4/3 304/4/3
f 306/4/3 301/4/3 305/4/3
f 307/4/3 301/4/3 306/4/3
f 308/4/3 297/4/3 296/4/3
f 309/4/3 297/4/3 308/4/3
f 311/4/3 303/4/3 302/4/3
f 313/4/3 306/4/3 305/4/3
f 314/4/3 306/4/3 313/4/3
f 317/4/3 308/4/3 296/4/3
f 318/4/3 308/4/3 317/4/3
f 320/4/3 315/4/3 314/4/3
f 320/4/3 313/4/3 312/4/3
f 320/4/3 314/4/3 313/4/3
f 321/4/3 315/4/3 320/4/3
f 322/4/3 315/4/3 321/4/3
f 323/4/3 315/4/3 322/4/3
f 324/4/3 311/4/3 310/4/3
f 325/4/3 303/4/3 311/4/3
f 325/4/3 311/4/3 324/4/3
f 328/4/3 322/4/3 321/4/3
f 329/4/3 322/4/3 328/4/3
f 330/4/3 318/4/3 317/4/3
f 330/4/3 317/4/3 316/4/3
f 330/4/3 319/4/3 318/4/3
f 331/4/3 319/4/3 330/4/3
f 332/4/3 319/4/3 331/4/3
f 333/4/3 319/4/3 332/4/3
f 334/4/3 320/4/3 312/4/3
f 335/4/3 320/4/3 334/4/3
f 336/4/3 332/4/3 331/4/3
f 337/4/3 332/4/3 336/4/3
f 344/4/3 339/4/3 338/4/3
f 345/4/3 339/4/3 344/4/3
f 346/4/3 339/4/3 345/4/3
f 347/4/3 339/4/3 346/4/3
f 350/4/3 327/4/3 326/4/3
f 352/4/3 341/4/3 340/4/3
f 353/4/3 343/4/3 342/4/3
f 354/4/3 351/4/3 350/4/3
f 355/4/3 346/4/3 345/4/3
f 356/4/3 346/4/3 355/4/3
f 358/4/3 349/4/3 348/4/3
f 359/4/3 352/4/3 340/4/3
f 359/4/3 353/4/3 352/4/3
f 360/4/3 353/4/3 359/4/3
f 361/4/3 343/4/3 353/4/3
f 361/4/3 353/4/3 360/4/3
f 362/4/3 357/4/3 356/4/3
f 362/4/3 356/4/3 355/4/3
f 362/4/3 354/4/3 350/4/3
f 362/4/3 350/4/3 326/4/3
f 362/4/3 355/4/3 354/4/3
f 363/4/3 357/4/3 362/4/3
f 364/4/3 358/4/3 348/4/3
f 364/4/3 359/4/3 358/4/3
f 364/4/3 360/4/3 359/4/3
f 365/4/3 360/4/3 364/4/3
f 366/4/3 343/4/3 361/4/3
f 367/4/3 343/4/3 366/4/3
f 368/4/3 357/4/3 363/4/3
f 369/4/3 357/4/3 368/4/3
f 372/5/3 371/5/3 370/5/3
f 373/5/3 371/5/3 372/5/3
f 374/2/3 373/2/3 372/2/3
f 375/2/3 373/2/3 374/2/3
f 376/2/3 374/2/3 372/2/3
f 377/2/3 374/2/3 376/2/3
f 378/2/3 373/2/3 375/2/3
f 379/2/3 373/2/3 378/2/3
f 380/2/3 376/2/3 372/2/3
f 383/2/3 373/2/3 379/2/3
f 384/2/3 381/2/3 380/2/3
f 385/2/3 383/2/3 382/2/3
f 386/2/3 385/2/3 384/2/3
f 387/2/3 385/2/3 386/2/3
f 388/2/3 385/2/3 387/2/3
f 389/2/3 373/2/3 383/2/3
f 389/2/3 385/2/3 388/2/3
f 389/2/3 383/2/3 385/2/3
f 390/2/3 384/2/3 380/2/3
f 390/2/3 386/2/3 384/2/3
f 391/2/3 386/2/3 390/2/3
f 392/2/3 388/2/3 387/2/3
f 393/2/3 388/2/3 392/2/3
f 394/2/3 390/2/3 380/2/3
f 395/2/3 390/2/3 394/2/3
f 396/2/3 390/2/3 395/2/3
f 399/2/3 388/2/3 393/2/3
f 401/2/3 373/2/3 389/2/3
f 402/2/3 394/2/3 380/2/3
f 403/2/3 394/2/3 402/2/3
f 404/2/3 397/2/3 396/2/3
f 404/2/3 396/2/3 395/2/3
f 405/2/3 397/2/3 404/2/3
f 406/2/3 399/2/3 398/2/3
f 407/2/3 399/2/3 406/2/3
f 408/2/3 399/2/3 407/2/3
f 408/2/3 388/2/3 399/2/3
f 409/2/3 388/2/3 408/2/3
f 410/2/3 401/2/3 400/2/3
f 411/2/3 373/2/3 401/2/3
f 411/2/3 401/2/3 410/2/3
f 415/2/3 408/2/3 407/2/3
f 416/2/3 402/2/3 380/2/3
f 417/2/3 404/2/3 395/2/3
f 418/2/3 416/2/3 380/2/3
f 418/2/3 417/2/3 416/2/3
f 419/2/3 417/2/3 418/2/3
f 420/2/3 413/2/3 412/2/3
f 421/2/3 415/2/3 414/2/3
f 422/2/3 408/2/3 415/2/3
f 422/2/3 415/2/3 421/2/3
f 425/2/3 373/2/3 411/2/3
f 426/2/3 404/2/3 417/2/3
f 426/2/3 417/2/3 419/2/3
f 427/2/3 423/2/3 422/2/3
f 427/2/3 420/2/3 412/2/3
f 427/2/3 422/2/3 421/2/3
f 427/2/3 421/2/3 420/2/3
f 428/2/3 423/2/3 427/2/3
f 429/2/3 425/2/3 424/2/3
f 430/2/3 428/2/3 427/2/3
f 430/2/3 429/2/3 428/2/3
f 430/2/3 426/2/3 419/2/3
f 430/2/3 427/2/3 426/2/3
f 431/2/3 429/2/3 430/2/3
f 432/2/3 429/2/3 431/2/3
f 433/2/3 425/2/3 429/2/3
f 433/2/3 429/2/3 432/2/3
f 434/2/3 425/2/3 433/2/3
f 435/2/3 373/2/3 425/2/3
f 435/2/3 425/2/3 434/2/3
f 436/2/3 430/2/3 419/2/3
f 439/2/3 432/2/3 431/2/3
f 440/2/3 432/2/3 439/2/3
f 441/2/3 432/2/3 440/2/3
f 442/2/3 437/2/3 436/2/3
f 442/2/3 436/2/3 419/2/3
f 443/2/3 437/2/3 442/2/3
f 444/2/3 434/2/3 433/2/3
f 445/2/3 434/2/3 444/2/3
f 446/2/3 437/2/3 443/2/3
f 447/2/3 437/2/3 446/2/3
f 448/2/3 440/2/3 439/2/3
f 448/2/3 439/2/3 438/2/3
f 449/2/3 440/2/3 448/2/3
f 450/2/3 432/2/3 441/2/3
f 451/2/3 432/2/3 450/2/3
f 454/2/3 418/2/3 380/2/3
f 456/2/3 440/2/3 449/2/3
f 457/2/3 453/2/3 452/2/3
f 458/2/3 453/2/3 457/2/3
f 459/2/3 373/2/3 435/2/3
f 460/2/3 455/2/3 454/2/3
f 461/2/3 459/2/3 458/2/3
f 461/2/3 458/2/3 457/2/3
f 461/2/3 456/2/3 449/2/3
f 461/2/3 457/2/3 456/2/3
f 462/5/3 372/5/3 370/5/3
f 462/2/3 461/2/3 460/2/3
f 462/2/3 380/2/3 372/2/3
f 462/2/3 460/2/3 454/2/3
f 462/2/3 454/2/3 380/2/3
f 463/2/3 459/2/3 461/2/3
f 463/2/3 461/2/3 462/2/3
f 463/5/3 371/5/3 373/5/3
f 463/2/3 373/2/3 459/2/3
f 464/5/3 462/5/3 370/5/3
f 464/5/3 463/5/3 462/5/3
f 465/5/3 371/5/3 463/5/3
f 465/5/3 463/5/3 464/5/3
f 466/5/4 467/5/4 468/5/4
f 468/5/4 467/5/4 469/5/4
f 472/5/5 471/5/5 470/5/5
f 473/5/5 471/5/5 472/5/5
f 476/1/5 475/1/5 474/1/5
f 477/1/5 475/1/5 476/1/5
f 482/4/5 479/4/5 478/4/5
f 483/4/5 479/4/5 482/4/5
f 484/4/5 481/4/5 480/4/5
f 485/4/5 481/4/5 484/4/5
f 488/4/5 487/4/5 486/4/5
f 489/4/5 487/4/5 488/4/5
f 498/4/5 491/4/5 490/4/5
f 499/4/5 491/4/5 498/4/5
f 500/4/5 493/4/5 492/4/5
f 501/4/5 493/4/5 500/4/5
f 502/4/5 495/4/5 494/4/5
f 503/4/5 495/4/5 502/4/5
f 504/4/5 497/4/5 496/4/5
f 505/4/5 497/4/5 504/4/5
f 508/1/5 507/1/5 506/1/5
f 509/1/5 507/1/5 508/1/5
f 512/1/5 508/1/5 506/1/5
f 513/1/5 508/1/5 512/1/5
f 514/1/5 507/1/5 509/1/5
f 515/1/5 507/1/5 514/1/5
f 516/4/5 511/4/5 510/4/5
f 517/4/5 511/4/5 516/4/5
f 520/6/5 519/6/5 518/6/5
f 521/6/5 519/6/5 520/6/5
f 528/4/5 523/4/5 522/4/5
f 529/4/5 523/4/5 528/4/5
f 530/4/5 525/4/5 524/4/5
f 531/4/5 525/4/5 530/4/5
f 532/4/5 527/4/5 526/4/5
f 533/4/5 527/4/5 532/4/5
f 536/6/5 535/6/5 534/6/5
f 537/6/5 535/6/5 536/6/5
f 540/6/5 539/6/5 538/6/5
f 541/6/5 539/6/5 540/6/5
f 546/4/5 543/4/5 542/4/5
f 547/4/5 543/4/5 546/4/5
f 548/4/5 545/4/5 544/4/5
f 549/4/5 545/4/5 548/4/5
f 554/1/5 551/1/5 550/1/5
f 555/1/5 551/1/5 554/1/5
f 556/1/5 551/1/5 555/1/5
f 557/1/5 553/1/5 552/1/5
f 558/1/5 553/1/5 557/1/5
f 559/1/5 553/1/5 558/1/5
f 564/4/5 561/4/5 560/4/5
f 565/4/5 561/4/5 564/4/5
f 566/4/5 563/4/5 562/4/5
f 567/4/5 563/4/5 566/4/5
f 570/4/5 569/4/5 568/4/5
f 571/4/5 569/4/5 570/4/5
f 576/4/5 573/4/5 572/4/5
f 577/4/5 573/4/5 576/4/5
f 578/4/5 575/4/5 574/4/5
f 579/4/5 575/4/5 578/4/5
f 580/4/6 581/4/6 582/4/6
f 582/4/6 581/4/6 583/4/6
f 584/4/6 585/4/6 586/4/6
f 586/4/6 585/4/6 587/4/6
f 588/4/6 589/4/6 590/4/6
f 590/4/6 589/4/6 591/4/6
f 592/1/6 593/1/6 594/1/6
f 594/1/6 593/1/6 595/1/6
f 595/1/6 593/1/6 596/1/6
f 596/1/6 593/1/6 597/1/6
f 597/1/6 593/1/6 598/1/6
f 599/4/6 600/4/6 601/4/6
f 601/4/6 600/4/6 602/4/6
f 603/6/6 604/6/6 605/6/6
f 605/6/6 604/6/6 606/6/6
f 607/4/6 608/4/6 609/4/6
f 609/4/6 608/4/6 610/4/6
f 611/6/6 612/6/6 613/6/6
f 613/6/6 612/6/6 614/6/6
f 615/4/6 616/4/6 621/4/6
f 621/4/6 616/4/6 622/4/6
f 617/4/6 618/4/6 623/4/6
f 623/4/6 618/4/6 624/4/6
f 619/4/6 620/4/6 625/4/6
f 625/4/6 620/4/6 626/4/6
f 627/6/6 628/6/6 629/6/6
f 629/6/6 628/6/6 630/6/6
f 631/4/6 632/4/6 637/4/6
f 637/4/6 632/4/6 638/4/6
f 633/4/6 634/4/6 639/4/6
f 639/4/6 634/4/6 640/4/6
f 635/4/6 636/4/6 641/4/6
f 641/4/6 636/4/6 642/4/6
f 643/4/6 644/4/6 645/4/6
f 645/4/6 644/4/6 646/4/6
f 647/4/6 648/4/6 649/4/6
f 649/4/6 648/4/6 650/4/6
f 651/1/6 652/1/6 653/1/6
f 653/1/6 652/1/6 654/1/6
f 651/1/6 653/1/6 655/1/6
f 655/1/6 653/1/6 656/1/6
f 654/1/6 652/1/6 657/1/6
f 657/1/6 652/1/6 658/1/6
f 659/4/6 660/4/6 663/4/6
f 663/4/6 660/4/6 664/4/6
f 661/4/6 662/4/6 665/4/6
f 665/4/6 662/4/6 666/4/6
f 667/4/6 668/4/6 671/4/6
f 671/4/6 668/4/6 672/4/6
f 669/4/6 670/4/6 673/4/6
f 673/4/6 670/4/6 674/4/6
f 675/1/6 676/1/6 679/1/6
f 679/1/6 676/1/6 680/1/6
f 677/4/6 678/4/6 681/4/6
f 681/4/6 678/4/6 682/4/6
f 683/4/6 684/4/6 687/4/6
f 687/4/6 684/4/6 688/4/6
f 685/4/6 686/4/6 689/4/6
f 689/4/6 686/4/6 690/4/6
f 691/5/6 692/5/6 693/5/6
f 693/5/6 692/5/6 694/5/6
