# MagicaVoxel @ ephtracy

# material
mtllib Advert9.mtl
usemtl palette

# mesh name
g advert9_mesh

# normals
vn -1 0 0
vn 1 0 0
vn 0 0 1
vn 0 0 -1
vn 0 -1 0
vn 0 1 0

# texcoords
vt 0.0292969 0.5
vt 0.0917969 0.5
vt 0.255859 0.5
vt 0.751953 0.5
vt 0.783203 0.5
vt 0.958984 0.5
vt 0.986328 0.5
vt 0.990234 0.5
vt 0.994141 0.5

# verts
v -20 0 0.5
v -20 0 -1.5
v -20 30 0.5
v -20 30 -1.5
v -17 8 1.5
v -17 8 0.5
v -17 23 1.5
v -17 23 0.5
v -16 1 1.5
v -16 1 0.5
v -16 8 1.5
v -16 8 0.5
v -16 23 1.5
v -16 23 0.5
v -16 24 1.5
v -16 24 0.5
v -3 14 1.5
v -3 14 0.5
v -3 16 1.5
v -3 16 0.5
v -3 19 1.5
v -3 19 0.5
v -3 28 1.5
v -3 28 0.5
v -2 1 1.5
v -2 1 0.5
v -2 9 1.5
v -2 9 0.5
v -2 10 1.5
v -2 10 0.5
v -2 11 1.5
v -2 11 0.5
v -2 16 1.5
v -2 16 0.5
v -2 19 1.5
v -2 19 0.5
v 1 11 1.5
v 1 11 0.5
v 1 14 1.5
v 1 14 0.5
v 3 15 1.5
v 3 15 0.5
v 3 18 1.5
v 3 18 0.5
v 4 9 1.5
v 4 9 0.5
v 4 11 1.5
v 4 11 0.5
v 7 12 1.5
v 7 12 0.5
v 7 15 1.5
v 7 15 0.5
v 10 7 1.5
v 10 7 0.5
v 10 11 1.5
v 10 11 0.5
v 12 14 1.5
v 12 14 0.5
v 12 17 1.5
v 12 17 0.5
v 15 10 1.5
v 15 10 0.5
v 15 13 1.5
v 15 13 0.5
v -6 1 1.5
v -6 1 0.5
v -6 4 1.5
v -6 4 0.5
v -5 23 1.5
v -5 23 0.5
v -5 24 1.5
v -5 24 0.5
v -4 4 1.5
v -4 4 0.5
v -4 9 1.5
v -4 9 0.5
v -4 10 1.5
v -4 10 0.5
v -4 12 1.5
v -4 12 0.5
v -4 13 1.5
v -4 13 0.5
v -4 23 1.5
v -4 23 0.5
v -3 12 1.5
v -3 12 0.5
v -3 13 1.5
v -3 13 0.5
v 0 14 1.5
v 0 14 0.5
v 0 17 1.5
v 0 17 0.5
v 1 17 1.5
v 1 17 0.5
v 1 19 1.5
v 1 19 0.5
v 2 1 1.5
v 2 1 0.5
v 2 9 1.5
v 2 9 0.5
v 2 10 1.5
v 2 10 0.5
v 2 14 1.5
v 2 14 0.5
v 6 9 1.5
v 6 9 0.5
v 6 11 1.5
v 6 11 0.5
v 6 15 1.5
v 6 15 0.5
v 6 18 1.5
v 6 18 0.5
v 10 12 1.5
v 10 12 0.5
v 10 15 1.5
v 10 15 0.5
v 14 7 1.5
v 14 7 0.5
v 14 11 1.5
v 14 11 0.5
v 15 14 1.5
v 15 14 0.5
v 15 17 1.5
v 15 17 0.5
v 18 10 1.5
v 18 10 0.5
v 18 13 1.5
v 18 13 0.5
v 18 19 1.5
v 18 19 0.5
v 18 28 1.5
v 18 28 0.5
v 20 0 0.5
v 20 0 -1.5
v 20 30 0.5
v 20 30 -1.5
v -17 8 1.5
v -17 23 1.5
v -16 1 1.5
v -16 8 1.5
v -16 23 1.5
v -16 24 1.5
v -10 4 1.5
v -10 12 1.5
v -10 19 1.5
v -10 20 1.5
v -9 14 1.5
v -9 15 1.5
v -9 19 1.5
v -8 9 1.5
v -8 10 1.5
v -6 1 1.5
v -6 4 1.5
v -6 18 1.5
v -6 19 1.5
v -5 14 1.5
v -5 15 1.5
v -5 18 1.5
v -5 19 1.5
v -5 20 1.5
v -5 23 1.5
v -5 24 1.5
v -4 4 1.5
v -4 9 1.5
v -4 10 1.5
v -4 12 1.5
v -4 13 1.5
v -4 23 1.5
v -3 12 1.5
v -3 13 1.5
v -3 14 1.5
v -3 16 1.5
v -3 19 1.5
v -3 28 1.5
v -2 1 1.5
v -2 9 1.5
v -2 10 1.5
v -2 11 1.5
v -2 16 1.5
v -2 19 1.5
v -2 21 1.5
v -2 27 1.5
v -1 9 1.5
v -1 10 1.5
v 0 14 1.5
v 0 17 1.5
v 0 24 1.5
v 0 27 1.5
v 1 11 1.5
v 1 14 1.5
v 1 17 1.5
v 1 19 1.5
v 1 20 1.5
v 1 21 1.5
v 2 1 1.5
v 2 9 1.5
v 2 10 1.5
v 2 14 1.5
v 2 20 1.5
v 2 23 1.5
v 2 24 1.5
v 2 27 1.5
v 3 15 1.5
v 3 18 1.5
v 4 9 1.5
v 4 11 1.5
v 4 15 1.5
v 4 18 1.5
v 4 23 1.5
v 4 27 1.5
v 5 9 1.5
v 5 11 1.5
v 5 20 1.5
v 5 26 1.5
v 6 9 1.5
v 6 11 1.5
v 6 15 1.5
v 6 18 1.5
v 6 20 1.5
v 6 22 1.5
v 6 24 1.5
v 6 26 1.5
v 7 12 1.5
v 7 15 1.5
v 7 20 1.5
v 7 22 1.5
v 7 24 1.5
v 7 27 1.5
v 8 12 1.5
v 8 15 1.5
v 8 22 1.5
v 8 24 1.5
v 9 20 1.5
v 9 27 1.5
v 10 7 1.5
v 10 11 1.5
v 10 12 1.5
v 10 15 1.5
v 10 22 1.5
v 10 25 1.5
v 11 7 1.5
v 11 11 1.5
v 11 22 1.5
v 11 24 1.5
v 11 25 1.5
v 11 27 1.5
v 12 14 1.5
v 12 17 1.5
v 12 20 1.5
v 12 24 1.5
v 13 14 1.5
v 13 17 1.5
v 13 20 1.5
v 13 27 1.5
v 14 7 1.5
v 14 11 1.5
v 14 20 1.5
v 14 23 1.5
v 14 24 1.5
v 14 27 1.5
v 15 10 1.5
v 15 13 1.5
v 15 14 1.5
v 15 17 1.5
v 15 20 1.5
v 15 21 1.5
v 15 24 1.5
v 15 25 1.5
v 15 26 1.5
v 15 27 1.5
v 16 10 1.5
v 16 13 1.5
v 16 23 1.5
v 16 25 1.5
v 16 26 1.5
v 16 27 1.5
v 17 21 1.5
v 17 27 1.5
v 18 10 1.5
v 18 13 1.5
v 18 19 1.5
v 18 28 1.5
v -20 0 0.5
v -20 30 0.5
v -19 1 0.5
v -19 29 0.5
v -17 8 0.5
v -17 23 0.5
v -16 1 0.5
v -16 8 0.5
v -16 23 0.5
v -16 24 0.5
v -6 1 0.5
v -6 4 0.5
v -5 23 0.5
v -5 24 0.5
v -4 4 0.5
v -4 9 0.5
v -4 10 0.5
v -4 12 0.5
v -4 13 0.5
v -4 23 0.5
v -3 12 0.5
v -3 13 0.5
v -3 14 0.5
v -3 16 0.5
v -3 19 0.5
v -3 28 0.5
v -2 1 0.5
v -2 9 0.5
v -2 10 0.5
v -2 11 0.5
v -2 16 0.5
v -2 19 0.5
v 0 14 0.5
v 0 17 0.5
v 1 11 0.5
v 1 14 0.5
v 1 17 0.5
v 1 19 0.5
v 2 1 0.5
v 2 9 0.5
v 2 10 0.5
v 2 14 0.5
v 3 15 0.5
v 3 18 0.5
v 4 9 0.5
v 4 11 0.5
v 4 15 0.5
v 4 18 0.5
v 5 9 0.5
v 5 11 0.5
v 6 9 0.5
v 6 11 0.5
v 6 15 0.5
v 6 18 0.5
v 7 12 0.5
v 7 15 0.5
v 8 12 0.5
v 8 15 0.5
v 10 7 0.5
v 10 11 0.5
v 10 12 0.5
v 10 15 0.5
v 11 7 0.5
v 11 11 0.5
v 12 14 0.5
v 12 17 0.5
v 13 14 0.5
v 13 17 0.5
v 14 7 0.5
v 14 11 0.5
v 15 10 0.5
v 15 13 0.5
v 15 14 0.5
v 15 17 0.5
v 16 10 0.5
v 16 13 0.5
v 18 10 0.5
v 18 13 0.5
v 18 19 0.5
v 18 28 0.5
v 19 1 0.5
v 19 29 0.5
v 20 0 0.5
v 20 30 0.5
v -20 0 -1.5
v -20 30 -1.5
v 20 0 -1.5
v 20 30 -1.5
v -20 0 0.5
v 20 0 0.5
v -20 0 -1.5
v 20 0 -1.5
v -16 1 1.5
v -6 1 1.5
v -2 1 1.5
v 2 1 1.5
v -16 1 0.5
v -6 1 0.5
v -2 1 0.5
v 2 1 0.5
v -6 4 1.5
v -4 4 1.5
v -6 4 0.5
v -4 4 0.5
v 10 7 1.5
v 11 7 1.5
v 14 7 1.5
v 10 7 0.5
v 11 7 0.5
v 14 7 0.5
v -17 8 1.5
v -16 8 1.5
v -17 8 0.5
v -16 8 0.5
v -4 9 1.5
v -2 9 1.5
v 4 9 1.5
v 5 9 1.5
v 6 9 1.5
v -4 9 0.5
v -2 9 0.5
v 4 9 0.5
v 5 9 0.5
v 6 9 0.5
v 15 10 1.5
v 16 10 1.5
v 18 10 1.5
v 15 10 0.5
v 16 10 0.5
v 18 10 0.5
v -4 12 1.5
v -3 12 1.5
v 7 12 1.5
v 8 12 1.5
v 10 12 1.5
v -4 12 0.5
v -3 12 0.5
v 7 12 0.5
v 8 12 0.5
v 10 12 0.5
v -3 14 1.5
v 0 14 1.5
v 12 14 1.5
v 13 14 1.5
v 15 14 1.5
v -3 14 0.5
v 0 14 0.5
v 12 14 0.5
v 13 14 0.5
v 15 14 0.5
v 3 15 1.5
v 4 15 1.5
v 6 15 1.5
v 3 15 0.5
v 4 15 0.5
v 6 15 0.5
v 0 17 1.5
v 1 17 1.5
v 0 17 0.5
v 1 17 0.5
v -3 19 1.5
v -2 19 1.5
v 1 19 1.5
v 18 19 1.5
v -3 19 0.5
v -2 19 0.5
v 1 19 0.5
v 18 19 0.5
v -4 10 1.5
v -2 10 1.5
v -4 10 0.5
v -2 10 0.5
v -2 11 1.5
v 1 11 1.5
v 4 11 1.5
v 5 11 1.5
v 6 11 1.5
v 10 11 1.5
v 11 11 1.5
v 14 11 1.5
v -2 11 0.5
v 1 11 0.5
v 4 11 0.5
v 5 11 0.5
v 6 11 0.5
v 10 11 0.5
v 11 11 0.5
v 14 11 0.5
v -4 13 1.5
v -3 13 1.5
v 15 13 1.5
v 16 13 1.5
v 18 13 1.5
v -4 13 0.5
v -3 13 0.5
v 15 13 0.5
v 16 13 0.5
v 18 13 0.5
v 1 14 1.5
v 2 14 1.5
v 1 14 0.5
v 2 14 0.5
v 7 15 1.5
v 8 15 1.5
v 10 15 1.5
v 7 15 0.5
v 8 15 0.5
v 10 15 0.5
v -3 16 1.5
v -2 16 1.5
v -3 16 0.5
v -2 16 0.5
v 12 17 1.5
v 13 17 1.5
v 15 17 1.5
v 12 17 0.5
v 13 17 0.5
v 15 17 0.5
v 3 18 1.5
v 4 18 1.5
v 6 18 1.5
v 3 18 0.5
v 4 18 0.5
v 6 18 0.5
v -17 23 1.5
v -16 23 1.5
v -5 23 1.5
v -4 23 1.5
v -17 23 0.5
v -16 23 0.5
v -5 23 0.5
v -4 23 0.5
v -16 24 1.5
v -5 24 1.5
v -16 24 0.5
v -5 24 0.5
v -3 28 1.5
v 18 28 1.5
v -3 28 0.5
v 18 28 0.5
v -20 30 0.5
v 20 30 0.5
v -20 30 -1.5
v 20 30 -1.5

# faces
f 3/7/1 2/7/1 1/7/1
f 4/7/1 2/7/1 3/7/1
f 7/4/1 6/4/1 5/4/1
f 8/4/1 6/4/1 7/4/1
f 11/4/1 10/4/1 9/4/1
f 12/4/1 10/4/1 11/4/1
f 15/4/1 14/4/1 13/4/1
f 16/4/1 14/4/1 15/4/1
f 19/6/1 18/6/1 17/6/1
f 20/6/1 18/6/1 19/6/1
f 23/6/1 22/6/1 21/6/1
f 24/6/1 22/6/1 23/6/1
f 27/4/1 26/4/1 25/4/1
f 28/4/1 26/4/1 27/4/1
f 31/4/1 30/4/1 29/4/1
f 32/4/1 30/4/1 31/4/1
f 35/6/1 34/6/1 33/6/1
f 36/6/1 34/6/1 35/6/1
f 39/4/1 38/4/1 37/4/1
f 40/4/1 38/4/1 39/4/1
f 43/2/1 42/2/1 41/2/1
f 44/2/1 42/2/1 43/2/1
f 47/2/1 46/2/1 45/2/1
f 48/2/1 46/2/1 47/2/1
f 51/2/1 50/2/1 49/2/1
f 52/2/1 50/2/1 51/2/1
f 55/2/1 54/2/1 53/2/1
f 56/2/1 54/2/1 55/2/1
f 59/2/1 58/2/1 57/2/1
f 60/2/1 58/2/1 59/2/1
f 63/2/1 62/2/1 61/2/1
f 64/2/1 62/2/1 63/2/1
f 65/4/2 66/4/2 67/4/2
f 67/4/2 66/4/2 68/4/2
f 69/4/2 70/4/2 71/4/2
f 71/4/2 70/4/2 72/4/2
f 73/5/2 74/5/2 75/5/2
f 75/5/2 74/5/2 76/5/2
f 77/5/2 78/5/2 79/5/2
f 79/5/2 78/5/2 80/5/2
f 81/4/2 82/4/2 83/4/2
f 83/4/2 82/4/2 84/4/2
f 85/4/2 86/4/2 87/4/2
f 87/4/2 86/4/2 88/4/2
f 89/6/2 90/6/2 91/6/2
f 91/6/2 90/6/2 92/6/2
f 93/6/2 94/6/2 95/6/2
f 95/6/2 94/6/2 96/6/2
f 97/4/2 98/4/2 99/4/2
f 99/4/2 98/4/2 100/4/2
f 99/6/2 100/6/2 101/6/2
f 101/6/2 100/6/2 102/6/2
f 101/4/2 102/4/2 103/4/2
f 103/4/2 102/4/2 104/4/2
f 105/1/2 106/1/2 107/1/2
f 107/1/2 106/1/2 108/1/2
f 109/1/2 110/1/2 111/1/2
f 111/1/2 110/1/2 112/1/2
f 113/1/2 114/1/2 115/1/2
f 115/1/2 114/1/2 116/1/2
f 117/1/2 118/1/2 119/1/2
f 119/1/2 118/1/2 120/1/2
f 121/1/2 122/1/2 123/1/2
f 123/1/2 122/1/2 124/1/2
f 125/1/2 126/1/2 127/1/2
f 127/1/2 126/1/2 128/1/2
f 129/6/2 130/6/2 131/6/2
f 131/6/2 130/6/2 132/6/2
f 133/7/2 134/7/2 135/7/2
f 135/7/2 134/7/2 136/7/2
f 140/4/3 138/4/3 137/4/3
f 141/4/3 138/4/3 140/4/3
f 143/4/3 140/4/3 139/4/3
f 143/4/3 142/4/3 141/4/3
f 143/4/3 141/4/3 140/4/3
f 144/4/3 142/4/3 143/4/3
f 145/4/3 142/4/3 144/4/3
f 146/4/3 142/4/3 145/4/3
f 147/4/3 145/4/3 144/4/3
f 148/4/3 145/4/3 147/4/3
f 149/8/3 146/8/3 145/8/3
f 149/4/3 145/4/3 148/4/3
f 150/5/3 144/5/3 143/5/3
f 151/5/3 144/5/3 150/5/3
f 152/4/3 143/4/3 139/4/3
f 153/5/3 150/5/3 143/5/3
f 153/4/3 143/4/3 152/4/3
f 154/9/3 149/9/3 148/9/3
f 155/8/3 146/8/3 149/8/3
f 155/9/3 149/9/3 154/9/3
f 156/5/3 148/5/3 147/5/3
f 156/4/3 147/4/3 144/4/3
f 157/9/3 154/9/3 148/9/3
f 157/5/3 148/5/3 156/5/3
f 158/6/3 155/6/3 154/6/3
f 158/9/3 154/9/3 157/9/3
f 159/8/3 146/8/3 155/8/3
f 159/6/3 155/6/3 158/6/3
f 160/4/3 142/4/3 146/4/3
f 160/8/3 146/8/3 159/8/3
f 161/4/3 142/4/3 160/4/3
f 162/4/3 142/4/3 161/4/3
f 163/5/3 150/5/3 153/5/3
f 164/9/3 151/9/3 150/9/3
f 164/5/3 150/5/3 163/5/3
f 165/5/3 144/5/3 151/5/3
f 165/9/3 151/9/3 164/9/3
f 166/4/3 156/4/3 144/4/3
f 166/5/3 144/5/3 165/5/3
f 166/4/3 159/4/3 158/4/3
f 166/4/3 161/4/3 160/4/3
f 166/4/3 160/4/3 159/4/3
f 166/4/3 158/4/3 157/4/3
f 166/4/3 157/4/3 156/4/3
f 167/4/3 161/4/3 166/4/3
f 168/4/3 161/4/3 167/4/3
f 169/4/3 167/4/3 166/4/3
f 170/4/3 167/4/3 169/4/3
f 176/6/3 165/6/3 164/6/3
f 177/6/3 165/6/3 176/6/3
f 179/6/3 172/6/3 171/6/3
f 180/6/3 174/6/3 173/6/3
f 181/6/3 174/6/3 180/6/3
f 182/6/3 174/6/3 181/6/3
f 183/4/3 178/4/3 177/4/3
f 183/4/3 176/4/3 175/4/3
f 183/4/3 177/4/3 176/4/3
f 184/4/3 178/4/3 183/4/3
f 185/6/3 179/6/3 171/6/3
f 185/6/3 181/6/3 180/6/3
f 185/6/3 180/6/3 179/6/3
f 186/6/3 181/6/3 185/6/3
f 187/9/3 182/9/3 181/9/3
f 188/6/3 174/6/3 182/6/3
f 188/9/3 182/9/3 187/9/3
f 189/4/3 178/4/3 184/4/3
f 191/6/3 181/6/3 186/6/3
f 192/6/3 181/6/3 191/6/3
f 193/6/3 181/6/3 192/6/3
f 194/9/3 187/9/3 181/9/3
f 194/6/3 181/6/3 193/6/3
f 195/4/3 183/4/3 175/4/3
f 196/6/3 184/6/3 183/6/3
f 196/4/3 183/4/3 195/4/3
f 197/4/3 190/4/3 189/4/3
f 197/6/3 184/6/3 196/6/3
f 197/4/3 189/4/3 184/4/3
f 198/4/3 190/4/3 197/4/3
f 199/6/3 193/6/3 192/6/3
f 199/9/3 194/9/3 193/9/3
f 200/9/3 187/9/3 194/9/3
f 200/9/3 194/9/3 199/9/3
f 201/6/3 188/6/3 187/6/3
f 201/9/3 187/9/3 200/9/3
f 202/6/3 174/6/3 188/6/3
f 202/6/3 188/6/3 201/6/3
f 207/2/3 204/2/3 203/2/3
f 208/2/3 204/2/3 207/2/3
f 209/9/3 201/9/3 200/9/3
f 209/9/3 202/9/3 201/9/3
f 209/6/3 200/6/3 199/6/3
f 210/6/3 174/6/3 202/6/3
f 210/9/3 202/9/3 209/9/3
f 211/2/3 206/2/3 205/2/3
f 212/2/3 206/2/3 211/2/3
f 213/6/3 209/6/3 199/6/3
f 213/6/3 199/6/3 192/6/3
f 213/6/3 210/6/3 209/6/3
f 214/6/3 210/6/3 213/6/3
f 215/1/3 212/1/3 211/1/3
f 216/1/3 212/1/3 215/1/3
f 217/1/3 208/1/3 207/1/3
f 218/1/3 208/1/3 217/1/3
f 219/6/3 213/6/3 192/6/3
f 219/9/3 214/9/3 213/9/3
f 220/9/3 214/9/3 219/9/3
f 221/9/3 214/9/3 220/9/3
f 222/6/3 210/6/3 214/6/3
f 222/9/3 214/9/3 221/9/3
f 225/6/3 219/6/3 192/6/3
f 225/6/3 220/6/3 219/6/3
f 226/9/3 221/9/3 220/9/3
f 226/6/3 220/6/3 225/6/3
f 227/6/3 222/6/3 221/6/3
f 227/9/3 221/9/3 226/9/3
f 228/6/3 210/6/3 222/6/3
f 228/6/3 222/6/3 227/6/3
f 228/6/3 174/6/3 210/6/3
f 229/2/3 224/2/3 223/2/3
f 230/2/3 224/2/3 229/2/3
f 231/6/3 227/6/3 226/6/3
f 231/9/3 226/9/3 225/9/3
f 232/9/3 228/9/3 227/9/3
f 232/6/3 227/6/3 231/6/3
f 233/6/3 225/6/3 192/6/3
f 233/9/3 231/9/3 225/9/3
f 233/9/3 232/9/3 231/9/3
f 234/9/3 228/9/3 232/9/3
f 234/9/3 232/9/3 233/9/3
f 234/6/3 174/6/3 228/6/3
f 237/1/3 230/1/3 229/1/3
f 238/1/3 230/1/3 237/1/3
f 239/6/3 234/6/3 233/6/3
f 240/6/3 234/6/3 239/6/3
f 241/2/3 236/2/3 235/2/3
f 242/2/3 236/2/3 241/2/3
f 243/9/3 240/9/3 239/9/3
f 243/6/3 239/6/3 233/6/3
f 244/9/3 240/9/3 243/9/3
f 245/6/3 234/6/3 240/6/3
f 245/9/3 240/9/3 244/9/3
f 246/6/3 174/6/3 234/6/3
f 246/6/3 234/6/3 245/6/3
f 249/6/3 233/6/3 192/6/3
f 249/6/3 244/6/3 243/6/3
f 249/6/3 243/6/3 233/6/3
f 250/9/3 245/9/3 244/9/3
f 250/6/3 244/6/3 249/6/3
f 250/9/3 246/9/3 245/9/3
f 251/2/3 248/2/3 247/2/3
f 252/2/3 248/2/3 251/2/3
f 253/6/3 249/6/3 192/6/3
f 253/9/3 250/9/3 249/9/3
f 254/9/3 246/9/3 250/9/3
f 254/9/3 250/9/3 253/9/3
f 254/6/3 174/6/3 246/6/3
f 255/1/3 242/1/3 241/1/3
f 256/1/3 242/1/3 255/1/3
f 257/6/3 253/6/3 192/6/3
f 257/6/3 254/6/3 253/6/3
f 258/6/3 254/6/3 257/6/3
f 259/6/3 254/6/3 258/6/3
f 260/6/3 174/6/3 254/6/3
f 260/6/3 254/6/3 259/6/3
f 263/1/3 252/1/3 251/1/3
f 264/1/3 252/1/3 263/1/3
f 265/6/3 257/6/3 192/6/3
f 265/9/3 258/9/3 257/9/3
f 266/9/3 258/9/3 265/9/3
f 267/6/3 259/6/3 258/6/3
f 267/9/3 260/9/3 259/9/3
f 268/9/3 260/9/3 267/9/3
f 269/9/3 260/9/3 268/9/3
f 270/6/3 174/6/3 260/6/3
f 270/9/3 260/9/3 269/9/3
f 271/2/3 262/2/3 261/2/3
f 272/2/3 262/2/3 271/2/3
f 273/9/3 258/9/3 266/9/3
f 273/6/3 267/6/3 258/6/3
f 273/6/3 268/6/3 267/6/3
f 274/9/3 269/9/3 268/9/3
f 274/6/3 268/6/3 273/6/3
f 275/6/3 270/6/3 269/6/3
f 275/9/3 269/9/3 274/9/3
f 276/6/3 174/6/3 270/6/3
f 276/6/3 270/6/3 275/6/3
f 277/9/3 273/9/3 266/9/3
f 277/9/3 275/9/3 274/9/3
f 277/9/3 276/9/3 275/9/3
f 277/9/3 274/9/3 273/9/3
f 277/6/3 266/6/3 265/6/3
f 278/6/3 174/6/3 276/6/3
f 278/9/3 276/9/3 277/9/3
f 279/1/3 272/1/3 271/1/3
f 280/1/3 272/1/3 279/1/3
f 281/6/3 277/6/3 265/6/3
f 281/6/3 265/6/3 192/6/3
f 281/6/3 278/6/3 277/6/3
f 282/6/3 174/6/3 278/6/3
f 282/6/3 278/6/3 281/6/3
f 285/7/3 284/7/3 283/7/3
f 286/7/3 284/7/3 285/7/3
f 287/3/3 286/3/3 285/3/3
f 288/3/3 286/3/3 287/3/3
f 289/7/3 285/7/3 283/7/3
f 289/3/3 287/3/3 285/3/3
f 290/3/3 287/3/3 289/3/3
f 291/3/3 286/3/3 288/3/3
f 292/3/3 286/3/3 291/3/3
f 293/7/3 289/7/3 283/7/3
f 296/3/3 286/3/3 292/3/3
f 297/3/3 294/3/3 293/3/3
f 302/3/3 296/3/3 295/3/3
f 303/3/3 300/3/3 299/3/3
f 304/3/3 302/3/3 301/3/3
f 305/3/3 302/3/3 304/3/3
f 306/3/3 302/3/3 305/3/3
f 307/3/3 302/3/3 306/3/3
f 308/3/3 286/3/3 296/3/3
f 308/3/3 302/3/3 307/3/3
f 308/3/3 296/3/3 302/3/3
f 309/7/3 293/7/3 283/7/3
f 309/3/3 297/3/3 293/3/3
f 309/3/3 298/3/3 297/3/3
f 310/3/3 298/3/3 309/3/3
f 311/3/3 303/3/3 299/3/3
f 311/3/3 305/3/3 304/3/3
f 311/3/3 304/3/3 303/3/3
f 312/3/3 305/3/3 311/3/3
f 313/3/3 307/3/3 306/3/3
f 314/3/3 307/3/3 313/3/3
f 315/3/3 305/3/3 312/3/3
f 317/3/3 315/3/3 312/3/3
f 317/3/3 316/3/3 315/3/3
f 318/3/3 316/3/3 317/3/3
f 319/3/3 316/3/3 318/3/3
f 321/7/3 309/7/3 283/7/3
f 324/3/3 320/3/3 319/3/3
f 324/3/3 319/3/3 318/3/3
f 325/3/3 323/3/3 322/3/3
f 325/3/3 324/3/3 323/3/3
f 325/3/3 320/3/3 324/3/3
f 325/3/3 322/3/3 321/3/3
f 326/3/3 320/3/3 325/3/3
f 327/3/3 325/3/3 321/3/3
f 328/3/3 325/3/3 327/3/3
f 329/3/3 325/3/3 328/3/3
f 330/3/3 320/3/3 326/3/3
f 331/3/3 327/3/3 321/3/3
f 332/3/3 329/3/3 328/3/3
f 333/3/3 331/3/3 321/3/3
f 334/3/3 329/3/3 332/3/3
f 335/3/3 329/3/3 334/3/3
f 336/3/3 320/3/3 330/3/3
f 337/3/3 335/3/3 334/3/3
f 337/3/3 336/3/3 335/3/3
f 337/3/3 334/3/3 333/3/3
f 338/3/3 336/3/3 337/3/3
f 339/3/3 337/3/3 333/3/3
f 340/3/3 336/3/3 338/3/3
f 341/3/3 333/3/3 321/3/3
f 341/3/3 339/3/3 333/3/3
f 342/3/3 339/3/3 341/3/3
f 343/3/3 339/3/3 342/3/3
f 344/3/3 336/3/3 340/3/3
f 345/3/3 341/3/3 321/3/3
f 346/3/3 343/3/3 342/3/3
f 346/3/3 344/3/3 343/3/3
f 347/3/3 344/3/3 346/3/3
f 348/3/3 336/3/3 344/3/3
f 348/3/3 344/3/3 347/3/3
f 349/3/3 347/3/3 346/3/3
f 350/3/3 336/3/3 348/3/3
f 351/3/3 345/3/3 321/3/3
f 352/3/3 349/3/3 346/3/3
f 353/3/3 352/3/3 351/3/3
f 354/3/3 349/3/3 352/3/3
f 354/3/3 352/3/3 353/3/3
f 355/3/3 349/3/3 354/3/3
f 356/3/3 336/3/3 350/3/3
f 357/3/3 353/3/3 351/3/3
f 358/3/3 355/3/3 354/3/3
f 358/3/3 356/3/3 355/3/3
f 359/3/3 357/3/3 351/3/3
f 360/3/3 356/3/3 358/3/3
f 361/3/3 320/3/3 336/3/3
f 361/3/3 336/3/3 356/3/3
f 361/3/3 356/3/3 360/3/3
f 362/3/3 286/3/3 308/3/3
f 363/3/3 361/3/3 360/3/3
f 363/3/3 362/3/3 361/3/3
f 363/7/3 321/7/3 283/7/3
f 363/3/3 359/3/3 351/3/3
f 363/3/3 360/3/3 359/3/3
f 363/3/3 351/3/3 321/3/3
f 364/3/3 286/3/3 362/3/3
f 364/3/3 362/3/3 363/3/3
f 364/7/3 284/7/3 286/7/3
f 365/7/3 363/7/3 283/7/3
f 365/7/3 364/7/3 363/7/3
f 366/7/3 284/7/3 364/7/3
f 366/7/3 364/7/3 365/7/3
f 367/7/4 368/7/4 369/7/4
f 369/7/4 368/7/4 370/7/4
f 373/7/5 372/7/5 371/7/5
f 374/7/5 372/7/5 373/7/5
f 379/4/5 376/4/5 375/4/5
f 380/4/5 376/4/5 379/4/5
f 381/4/5 378/4/5 377/4/5
f 382/4/5 378/4/5 381/4/5
f 385/5/5 384/5/5 383/5/5
f 386/5/5 384/5/5 385/5/5
f 390/2/5 388/2/5 387/2/5
f 391/1/5 389/1/5 388/1/5
f 391/2/5 388/2/5 390/2/5
f 392/1/5 389/1/5 391/1/5
f 395/4/5 394/4/5 393/4/5
f 396/4/5 394/4/5 395/4/5
f 402/6/5 398/6/5 397/6/5
f 403/6/5 398/6/5 402/6/5
f 404/2/5 400/2/5 399/2/5
f 405/1/5 401/1/5 400/1/5
f 405/2/5 400/2/5 404/2/5
f 406/1/5 401/1/5 405/1/5
f 410/2/5 408/2/5 407/2/5
f 411/1/5 409/1/5 408/1/5
f 411/2/5 408/2/5 410/2/5
f 412/1/5 409/1/5 411/1/5
f 418/4/5 414/4/5 413/4/5
f 419/4/5 414/4/5 418/4/5
f 420/2/5 416/2/5 415/2/5
f 421/1/5 417/1/5 416/1/5
f 421/2/5 416/2/5 420/2/5
f 422/1/5 417/1/5 421/1/5
f 428/6/5 424/6/5 423/6/5
f 429/6/5 424/6/5 428/6/5
f 430/2/5 426/2/5 425/2/5
f 431/1/5 427/1/5 426/1/5
f 431/2/5 426/2/5 430/2/5
f 432/1/5 427/1/5 431/1/5
f 436/2/5 434/2/5 433/2/5
f 437/1/5 435/1/5 434/1/5
f 437/2/5 434/2/5 436/2/5
f 438/1/5 435/1/5 437/1/5
f 441/6/5 440/6/5 439/6/5
f 442/6/5 440/6/5 441/6/5
f 447/6/5 444/6/5 443/6/5
f 448/6/5 444/6/5 447/6/5
f 449/6/5 446/6/5 445/6/5
f 450/6/5 446/6/5 449/6/5
f 451/6/6 452/6/6 453/6/6
f 453/6/6 452/6/6 454/6/6
f 455/4/6 456/4/6 463/4/6
f 463/4/6 456/4/6 464/4/6
f 457/2/6 458/2/6 465/2/6
f 458/1/6 459/1/6 466/1/6
f 465/2/6 458/2/6 466/2/6
f 466/1/6 459/1/6 467/1/6
f 460/2/6 461/2/6 468/2/6
f 461/1/6 462/1/6 469/1/6
f 468/2/6 461/2/6 469/2/6
f 469/1/6 462/1/6 470/1/6
f 471/4/6 472/4/6 476/4/6
f 476/4/6 472/4/6 477/4/6
f 473/2/6 474/2/6 478/2/6
f 474/1/6 475/1/6 479/1/6
f 478/2/6 474/2/6 479/2/6
f 479/1/6 475/1/6 480/1/6
f 481/4/6 482/4/6 483/4/6
f 483/4/6 482/4/6 484/4/6
f 485/2/6 486/2/6 488/2/6
f 486/1/6 487/1/6 489/1/6
f 488/2/6 486/2/6 489/2/6
f 489/1/6 487/1/6 490/1/6
f 491/6/6 492/6/6 493/6/6
f 493/6/6 492/6/6 494/6/6
f 495/2/6 496/2/6 498/2/6
f 496/1/6 497/1/6 499/1/6
f 498/2/6 496/2/6 499/2/6
f 499/1/6 497/1/6 500/1/6
f 501/2/6 502/2/6 504/2/6
f 502/1/6 503/1/6 505/1/6
f 504/2/6 502/2/6 505/2/6
f 505/1/6 503/1/6 506/1/6
f 507/4/6 508/4/6 511/4/6
f 511/4/6 508/4/6 512/4/6
f 509/4/6 510/4/6 513/4/6
f 513/4/6 510/4/6 514/4/6
f 515/4/6 516/4/6 517/4/6
f 517/4/6 516/4/6 518/4/6
f 519/6/6 520/6/6 521/6/6
f 521/6/6 520/6/6 522/6/6
f 523/7/6 524/7/6 525/7/6
f 525/7/6 524/7/6 526/7/6
