# MagicaVoxel @ ephtracy

# material
mtllib Advert4.mtl
usemtl palette

# mesh name
g advert4_mesh

# normals
vn -1 0 0
vn 1 0 0
vn 0 0 1
vn 0 0 -1
vn 0 -1 0
vn 0 1 0

# texcoords
vt 0.0332031 0.5
vt 0.0605469 0.5
vt 0.103516 0.5
vt 0.138672 0.5
vt 0.158203 0.5
vt 0.537109 0.5
vt 0.748047 0.5
vt 0.958984 0.5
vt 0.986328 0.5

# verts
v -20 0 0.5
v -20 0 -1.5
v -20 30 0.5
v -20 30 -1.5
v -17 13 1.5
v -17 13 0.5
v -17 16 1.5
v -17 16 0.5
v -16 12 1.5
v -16 12 0.5
v -16 13 1.5
v -16 13 0.5
v -16 16 1.5
v -16 16 0.5
v -16 17 1.5
v -16 17 0.5
v -15 11 1.5
v -15 11 0.5
v -15 12 1.5
v -15 12 0.5
v -15 17 1.5
v -15 17 0.5
v -15 18 1.5
v -15 18 0.5
v -14 6 1.5
v -14 6 0.5
v -14 9 0.5
v -14 10 1.5
v -14 10 0.5
v -14 11 1.5
v -14 11 0.5
v -14 18 1.5
v -14 18 0.5
v -14 19 1.5
v -14 19 0.5
v -14 22 0.5
v -14 23 1.5
v -14 23 0.5
v -13 5 1.5
v -13 5 0.5
v -13 6 1.5
v -13 6 0.5
v -13 23 1.5
v -13 23 0.5
v -13 24 1.5
v -13 24 0.5
v -12 24 1.5
v -12 24 0.5
v -12 25 1.5
v -12 25 0.5
v 7 24 1.5
v 7 24 0.5
v 7 25 1.5
v 7 25 0.5
v 8 5 1.5
v 8 5 0.5
v 8 6 1.5
v 8 6 0.5
v 8 23 1.5
v 8 23 0.5
v 8 24 1.5
v 8 24 0.5
v 9 6 1.5
v 9 6 0.5
v 9 10 1.5
v 9 10 0.5
v 9 11 1.5
v 9 11 0.5
v 9 18 1.5
v 9 18 0.5
v 9 19 1.5
v 9 19 0.5
v 9 23 1.5
v 9 23 0.5
v 10 11 1.5
v 10 11 0.5
v 10 12 1.5
v 10 12 0.5
v 10 17 1.5
v 10 17 0.5
v 10 18 1.5
v 10 18 0.5
v 11 12 1.5
v 11 12 0.5
v 11 13 1.5
v 11 13 0.5
v 11 16 1.5
v 11 16 0.5
v 11 17 1.5
v 11 17 0.5
v 12 13 1.5
v 12 13 0.5
v 12 16 1.5
v 12 16 0.5
v 20 0 0.5
v 20 0 -1.5
v 20 30 0.5
v 20 30 -1.5
v -17 13 1.5
v -17 16 1.5
v -16 12 1.5
v -16 13 1.5
v -16 14 1.5
v -16 16 1.5
v -16 17 1.5
v -15 11 1.5
v -15 12 1.5
v -15 14 1.5
v -15 16 1.5
v -15 17 1.5
v -15 18 1.5
v -14 6 1.5
v -14 10 1.5
v -14 11 1.5
v -14 18 1.5
v -14 19 1.5
v -14 23 1.5
v -13 5 1.5
v -13 6 1.5
v -13 7 1.5
v -13 10 1.5
v -13 23 1.5
v -13 24 1.5
v -12 7 1.5
v -12 8 1.5
v -12 16 1.5
v -12 17 1.5
v -12 20 1.5
v -12 21 1.5
v -12 24 1.5
v -12 25 1.5
v -11 8 1.5
v -11 9 1.5
v -11 15 1.5
v -11 17 1.5
v -11 20 1.5
v -11 21 1.5
v -10 23 1.5
v -10 24 1.5
v -9 9 1.5
v -9 10 1.5
v -9 15 1.5
v -9 17 1.5
v -9 21 1.5
v -9 22 1.5
v -9 23 1.5
v -9 24 1.5
v -8 21 1.5
v -8 22 1.5
v -7 20 1.5
v -7 21 1.5
v -7 23 1.5
v -7 24 1.5
v -6 20 1.5
v -6 21 1.5
v -6 23 1.5
v -6 24 1.5
v -5 9 1.5
v -5 10 1.5
v -5 21 1.5
v -5 22 1.5
v -4 16 1.5
v -4 17 1.5
v -4 20 1.5
v -4 21 1.5
v -4 22 1.5
v -4 23 1.5
v -4 24 1.5
v -3 20 1.5
v -3 21 1.5
v -3 23 1.5
v -3 24 1.5
v -2 21 1.5
v -2 22 1.5
v -1 21 1.5
v -1 22 1.5
v 0 20 1.5
v 0 21 1.5
v 0 22 1.5
v 0 23 1.5
v 1 20 1.5
v 1 21 1.5
v 1 22 1.5
v 1 23 1.5
v 2 16 1.5
v 2 17 1.5
v 2 20 1.5
v 2 21 1.5
v 2 22 1.5
v 2 23 1.5
v 3 20 1.5
v 3 21 1.5
v 3 22 1.5
v 3 23 1.5
v 4 14 1.5
v 4 17 1.5
v 4 21 1.5
v 4 22 1.5
v 4 23 1.5
v 4 24 1.5
v 5 9 1.5
v 5 10 1.5
v 5 14 1.5
v 5 17 1.5
v 5 22 1.5
v 5 23 1.5
v 5 24 1.5
v 6 8 1.5
v 6 10 1.5
v 6 20 1.5
v 6 21 1.5
v 6 23 1.5
v 7 20 1.5
v 7 21 1.5
v 7 22 1.5
v 7 23 1.5
v 7 24 1.5
v 7 25 1.5
v 8 5 1.5
v 8 6 1.5
v 8 8 1.5
v 8 10 1.5
v 8 16 1.5
v 8 17 1.5
v 8 22 1.5
v 8 23 1.5
v 8 24 1.5
v 9 6 1.5
v 9 10 1.5
v 9 11 1.5
v 9 18 1.5
v 9 19 1.5
v 9 23 1.5
v 10 11 1.5
v 10 12 1.5
v 10 16 1.5
v 10 17 1.5
v 10 18 1.5
v 11 12 1.5
v 11 13 1.5
v 11 16 1.5
v 11 17 1.5
v 12 13 1.5
v 12 16 1.5
v -20 0 0.5
v -20 30 0.5
v -19 1 0.5
v -19 6 0.5
v -19 12 0.5
v -19 17 0.5
v -19 25 0.5
v -19 29 0.5
v -18 6 0.5
v -18 7 0.5
v -18 24 0.5
v -18 25 0.5
v -17 13 0.5
v -17 16 0.5
v -16 7 0.5
v -16 8 0.5
v -16 12 0.5
v -16 13 0.5
v -16 16 0.5
v -16 17 0.5
v -16 23 0.5
v -16 24 0.5
v -15 1 0.5
v -15 2 0.5
v -15 8 0.5
v -15 9 0.5
v -15 11 0.5
v -15 12 0.5
v -15 17 0.5
v -15 18 0.5
v -15 22 0.5
v -15 23 0.5
v -14 6 0.5
v -14 9 0.5
v -14 10 0.5
v -14 11 0.5
v -14 18 0.5
v -14 19 0.5
v -14 22 0.5
v -14 23 0.5
v -14 28 0.5
v -14 29 0.5
v -13 2 0.5
v -13 3 0.5
v -13 5 0.5
v -13 6 0.5
v -13 23 0.5
v -13 24 0.5
v -12 3 0.5
v -12 4 0.5
v -12 24 0.5
v -12 25 0.5
v -12 27 0.5
v -12 28 0.5
v -11 26 0.5
v -11 27 0.5
v -10 4 0.5
v -10 5 0.5
v -9 25 0.5
v -9 26 0.5
v -3 1 0.5
v -3 5 0.5
v -2 25 0.5
v -2 29 0.5
v 2 1 0.5
v 2 5 0.5
v 3 25 0.5
v 3 29 0.5
v 7 24 0.5
v 7 25 0.5
v 8 5 0.5
v 8 6 0.5
v 8 23 0.5
v 8 24 0.5
v 8 25 0.5
v 8 26 0.5
v 9 5 0.5
v 9 6 0.5
v 9 10 0.5
v 9 11 0.5
v 9 18 0.5
v 9 19 0.5
v 9 23 0.5
v 9 26 0.5
v 9 27 0.5
v 10 11 0.5
v 10 12 0.5
v 10 17 0.5
v 10 18 0.5
v 10 19 0.5
v 10 27 0.5
v 10 28 0.5
v 11 4 0.5
v 11 5 0.5
v 11 12 0.5
v 11 13 0.5
v 11 16 0.5
v 11 17 0.5
v 12 3 0.5
v 12 4 0.5
v 12 10 0.5
v 12 11 0.5
v 12 13 0.5
v 12 16 0.5
v 12 19 0.5
v 12 20 0.5
v 12 28 0.5
v 12 29 0.5
v 13 2 0.5
v 13 3 0.5
v 13 9 0.5
v 13 10 0.5
v 13 20 0.5
v 13 21 0.5
v 15 1 0.5
v 15 2 0.5
v 15 8 0.5
v 15 9 0.5
v 15 21 0.5
v 15 22 0.5
v 16 7 0.5
v 16 8 0.5
v 16 22 0.5
v 16 23 0.5
v 18 6 0.5
v 18 7 0.5
v 18 23 0.5
v 18 24 0.5
v 19 1 0.5
v 19 6 0.5
v 19 11 0.5
v 19 16 0.5
v 19 24 0.5
v 19 29 0.5
v 20 0 0.5
v 20 30 0.5
v -20 0 -1.5
v -20 30 -1.5
v 20 0 -1.5
v 20 30 -1.5
v -20 0 0.5
v 20 0 0.5
v -20 0 -1.5
v 20 0 -1.5
v -13 5 1.5
v 8 5 1.5
v -13 5 0.5
v -10 5 0.5
v -3 5 0.5
v 2 5 0.5
v 8 5 0.5
v -14 6 1.5
v -13 6 1.5
v 8 6 1.5
v 9 6 1.5
v -14 6 0.5
v -13 6 0.5
v 8 6 0.5
v 9 6 0.5
v -15 11 1.5
v -14 11 1.5
v 9 11 1.5
v 10 11 1.5
v -15 11 0.5
v -14 11 0.5
v 9 11 0.5
v 10 11 0.5
v -16 12 1.5
v -15 12 1.5
v 10 12 1.5
v 11 12 1.5
v -16 12 0.5
v -15 12 0.5
v 10 12 0.5
v 11 12 0.5
v -17 13 1.5
v -16 13 1.5
v 11 13 1.5
v 12 13 1.5
v -17 13 0.5
v -16 13 0.5
v 11 13 0.5
v 12 13 0.5
v -17 16 1.5
v -16 16 1.5
v 11 16 1.5
v 12 16 1.5
v -17 16 0.5
v -16 16 0.5
v 11 16 0.5
v 12 16 0.5
v -16 17 1.5
v -15 17 1.5
v 10 17 1.5
v 11 17 1.5
v -16 17 0.5
v -15 17 0.5
v 10 17 0.5
v 11 17 0.5
v -15 18 1.5
v -14 18 1.5
v 9 18 1.5
v 10 18 1.5
v -15 18 0.5
v -14 18 0.5
v 9 18 0.5
v 10 18 0.5
v -14 23 1.5
v -13 23 1.5
v 8 23 1.5
v 9 23 1.5
v -14 23 0.5
v -13 23 0.5
v 8 23 0.5
v 9 23 0.5
v -13 24 1.5
v -12 24 1.5
v 7 24 1.5
v 8 24 1.5
v -13 24 0.5
v -12 24 0.5
v 7 24 0.5
v 8 24 0.5
v -12 25 1.5
v 7 25 1.5
v -12 25 0.5
v -9 25 0.5
v -2 25 0.5
v 3 25 0.5
v 7 25 0.5
v -20 30 0.5
v 20 30 0.5
v -20 30 -1.5
v 20 30 -1.5

# faces
f 3/9/1 2/9/1 1/9/1
f 4/9/1 2/9/1 3/9/1
f 7/6/1 6/6/1 5/6/1
f 8/6/1 6/6/1 7/6/1
f 11/6/1 10/6/1 9/6/1
f 12/6/1 10/6/1 11/6/1
f 15/5/1 14/5/1 13/5/1
f 16/5/1 14/5/1 15/5/1
f 19/6/1 18/6/1 17/6/1
f 20/6/1 18/6/1 19/6/1
f 23/5/1 22/5/1 21/5/1
f 24/5/1 22/5/1 23/5/1
f 27/1/1 26/1/1 25/1/1
f 28/1/1 27/1/1 25/1/1
f 29/1/1 27/1/1 28/1/1
f 30/4/1 29/4/1 28/4/1
f 31/4/1 29/4/1 30/4/1
f 34/7/1 33/7/1 32/7/1
f 35/7/1 33/7/1 34/7/1
f 36/1/1 35/1/1 34/1/1
f 37/1/1 36/1/1 34/1/1
f 38/1/1 36/1/1 37/1/1
f 41/1/1 40/1/1 39/1/1
f 42/1/1 40/1/1 41/1/1
f 45/1/1 44/1/1 43/1/1
f 46/1/1 44/1/1 45/1/1
f 49/1/1 48/1/1 47/1/1
f 50/1/1 48/1/1 49/1/1
f 51/1/2 52/1/2 53/1/2
f 53/1/2 52/1/2 54/1/2
f 55/1/2 56/1/2 57/1/2
f 57/1/2 56/1/2 58/1/2
f 59/1/2 60/1/2 61/1/2
f 61/1/2 60/1/2 62/1/2
f 63/1/2 64/1/2 65/1/2
f 65/1/2 64/1/2 66/1/2
f 65/4/2 66/4/2 67/4/2
f 67/4/2 66/4/2 68/4/2
f 69/7/2 70/7/2 71/7/2
f 71/7/2 70/7/2 72/7/2
f 71/1/2 72/1/2 73/1/2
f 73/1/2 72/1/2 74/1/2
f 75/6/2 76/6/2 77/6/2
f 77/6/2 76/6/2 78/6/2
f 79/5/2 80/5/2 81/5/2
f 81/5/2 80/5/2 82/5/2
f 83/6/2 84/6/2 85/6/2
f 85/6/2 84/6/2 86/6/2
f 87/6/2 88/6/2 89/6/2
f 89/6/2 88/6/2 90/6/2
f 91/6/2 92/6/2 93/6/2
f 93/6/2 92/6/2 94/6/2
f 95/9/2 96/9/2 97/9/2
f 97/9/2 96/9/2 98/9/2
f 102/6/3 100/6/3 99/6/3
f 103/6/3 100/6/3 102/6/3
f 104/6/3 100/6/3 103/6/3
f 107/6/3 102/6/3 101/6/3
f 107/6/3 103/6/3 102/6/3
f 108/5/3 105/5/3 104/5/3
f 108/5/3 104/5/3 103/5/3
f 108/6/3 103/6/3 107/6/3
f 109/5/3 105/5/3 108/5/3
f 110/5/3 105/5/3 109/5/3
f 114/6/3 107/6/3 106/6/3
f 114/6/3 108/6/3 107/6/3
f 114/6/3 109/6/3 108/6/3
f 115/5/3 111/5/3 110/5/3
f 115/5/3 110/5/3 109/5/3
f 119/1/3 113/1/3 112/1/3
f 120/1/3 113/1/3 119/1/3
f 121/4/3 114/4/3 113/4/3
f 121/1/3 113/1/3 120/1/3
f 122/1/3 117/1/3 116/1/3
f 124/1/3 120/1/3 119/1/3
f 124/1/3 119/1/3 118/1/3
f 124/4/3 121/4/3 120/4/3
f 125/4/3 121/4/3 124/4/3
f 126/6/3 109/6/3 114/6/3
f 126/5/3 115/5/3 109/5/3
f 127/5/3 115/5/3 126/5/3
f 128/1/3 123/1/3 122/1/3
f 128/1/3 122/1/3 116/1/3
f 129/1/3 123/1/3 128/1/3
f 130/1/3 123/1/3 129/1/3
f 132/4/3 121/4/3 125/4/3
f 132/1/3 125/1/3 124/1/3
f 133/4/3 121/4/3 132/4/3
f 134/6/3 127/6/3 126/6/3
f 134/6/3 126/6/3 114/6/3
f 135/5/3 115/5/3 127/5/3
f 135/6/3 127/6/3 134/6/3
f 136/1/3 128/1/3 116/1/3
f 136/2/3 129/2/3 128/2/3
f 137/1/3 131/1/3 130/1/3
f 137/2/3 129/2/3 136/2/3
f 137/1/3 130/1/3 129/1/3
f 138/1/3 137/1/3 136/1/3
f 138/1/3 131/1/3 137/1/3
f 139/1/3 131/1/3 138/1/3
f 140/4/3 121/4/3 133/4/3
f 140/1/3 133/1/3 132/1/3
f 141/4/3 114/4/3 121/4/3
f 141/4/3 121/4/3 140/4/3
f 142/6/3 134/6/3 114/6/3
f 142/5/3 135/5/3 134/5/3
f 143/5/3 115/5/3 135/5/3
f 143/5/3 135/5/3 142/5/3
f 144/1/3 138/1/3 136/1/3
f 145/1/3 138/1/3 144/1/3
f 146/2/3 139/2/3 138/2/3
f 146/1/3 138/1/3 145/1/3
f 147/1/3 131/1/3 139/1/3
f 147/2/3 139/2/3 146/2/3
f 148/2/3 145/2/3 144/2/3
f 148/1/3 144/1/3 136/1/3
f 149/1/3 146/1/3 145/1/3
f 149/2/3 145/2/3 148/2/3
f 149/1/3 147/1/3 146/1/3
f 150/1/3 136/1/3 116/1/3
f 150/1/3 148/1/3 136/1/3
f 150/1/3 149/1/3 148/1/3
f 151/1/3 149/1/3 150/1/3
f 152/1/3 147/1/3 149/1/3
f 152/1/3 149/1/3 151/1/3
f 153/1/3 131/1/3 147/1/3
f 153/1/3 147/1/3 152/1/3
f 154/2/3 151/2/3 150/2/3
f 154/1/3 150/1/3 116/1/3
f 155/1/3 152/1/3 151/1/3
f 155/2/3 151/2/3 154/2/3
f 156/2/3 153/2/3 152/2/3
f 156/1/3 152/1/3 155/1/3
f 157/1/3 131/1/3 153/1/3
f 157/2/3 153/2/3 156/2/3
f 158/1/3 140/1/3 132/1/3
f 158/1/3 141/1/3 140/1/3
f 159/4/3 114/4/3 141/4/3
f 159/1/3 141/1/3 158/1/3
f 160/1/3 156/1/3 155/1/3
f 160/1/3 157/1/3 156/1/3
f 160/1/3 155/1/3 154/1/3
f 161/1/3 157/1/3 160/1/3
f 162/6/3 143/6/3 142/6/3
f 163/5/3 115/5/3 143/5/3
f 163/6/3 143/6/3 162/6/3
f 164/1/3 154/1/3 116/1/3
f 164/1/3 160/1/3 154/1/3
f 165/2/3 161/2/3 160/2/3
f 165/1/3 160/1/3 164/1/3
f 166/1/3 157/1/3 161/1/3
f 166/2/3 161/2/3 165/2/3
f 167/1/3 157/1/3 166/1/3
f 168/1/3 131/1/3 157/1/3
f 168/1/3 157/1/3 167/1/3
f 169/2/3 165/2/3 164/2/3
f 169/1/3 164/1/3 116/1/3
f 170/1/3 167/1/3 166/1/3
f 170/2/3 165/2/3 169/2/3
f 170/1/3 166/1/3 165/1/3
f 171/2/3 168/2/3 167/2/3
f 171/1/3 167/1/3 170/1/3
f 172/1/3 131/1/3 168/1/3
f 172/2/3 168/2/3 171/2/3
f 173/1/3 171/1/3 170/1/3
f 173/1/3 170/1/3 169/1/3
f 173/1/3 172/1/3 171/1/3
f 174/1/3 172/1/3 173/1/3
f 175/1/3 173/1/3 169/1/3
f 175/2/3 174/2/3 173/2/3
f 176/1/3 172/1/3 174/1/3
f 176/2/3 174/2/3 175/2/3
f 177/1/3 169/1/3 116/1/3
f 177/1/3 175/1/3 169/1/3
f 177/1/3 176/1/3 175/1/3
f 178/1/3 176/1/3 177/1/3
f 179/1/3 172/1/3 176/1/3
f 179/1/3 176/1/3 178/1/3
f 180/1/3 172/1/3 179/1/3
f 181/2/3 178/2/3 177/2/3
f 181/1/3 177/1/3 116/1/3
f 182/1/3 179/1/3 178/1/3
f 182/2/3 178/2/3 181/2/3
f 183/2/3 180/2/3 179/2/3
f 183/1/3 179/1/3 182/1/3
f 184/1/3 172/1/3 180/1/3
f 184/2/3 180/2/3 183/2/3
f 185/6/3 162/6/3 142/6/3
f 185/5/3 163/5/3 162/5/3
f 186/5/3 115/5/3 163/5/3
f 186/5/3 163/5/3 185/5/3
f 187/1/3 183/1/3 182/1/3
f 187/1/3 184/1/3 183/1/3
f 187/1/3 182/1/3 181/1/3
f 187/1/3 181/1/3 116/1/3
f 188/1/3 184/1/3 187/1/3
f 189/1/3 184/1/3 188/1/3
f 190/1/3 172/1/3 184/1/3
f 190/1/3 184/1/3 189/1/3
f 191/1/3 187/1/3 116/1/3
f 191/2/3 188/2/3 187/2/3
f 192/1/3 189/1/3 188/1/3
f 192/2/3 188/2/3 191/2/3
f 193/2/3 190/2/3 189/2/3
f 193/1/3 189/1/3 192/1/3
f 194/1/3 172/1/3 190/1/3
f 194/2/3 190/2/3 193/2/3
f 195/6/3 185/6/3 142/6/3
f 195/6/3 142/6/3 114/6/3
f 195/6/3 186/6/3 185/6/3
f 196/5/3 115/5/3 186/5/3
f 196/6/3 186/6/3 195/6/3
f 197/1/3 194/1/3 193/1/3
f 197/1/3 192/1/3 191/1/3
f 197/1/3 193/1/3 192/1/3
f 198/1/3 194/1/3 197/1/3
f 199/1/3 172/1/3 194/1/3
f 199/1/3 194/1/3 198/1/3
f 200/1/3 131/1/3 172/1/3
f 200/1/3 172/1/3 199/1/3
f 201/1/3 158/1/3 132/1/3
f 201/4/3 159/4/3 158/4/3
f 202/4/3 114/4/3 159/4/3
f 202/4/3 159/4/3 201/4/3
f 203/6/3 195/6/3 114/6/3
f 203/5/3 196/5/3 195/5/3
f 204/5/3 115/5/3 196/5/3
f 204/5/3 196/5/3 203/5/3
f 205/1/3 199/1/3 198/1/3
f 205/2/3 198/2/3 197/2/3
f 206/2/3 200/2/3 199/2/3
f 206/1/3 199/1/3 205/1/3
f 207/1/3 131/1/3 200/1/3
f 207/2/3 200/2/3 206/2/3
f 208/1/3 201/1/3 132/1/3
f 208/1/3 132/1/3 124/1/3
f 208/1/3 202/1/3 201/1/3
f 209/4/3 114/4/3 202/4/3
f 209/1/3 202/1/3 208/1/3
f 210/1/3 191/1/3 116/1/3
f 210/1/3 197/1/3 191/1/3
f 211/2/3 206/2/3 205/2/3
f 211/1/3 197/1/3 210/1/3
f 211/2/3 205/2/3 197/2/3
f 212/1/3 207/1/3 206/1/3
f 212/2/3 206/2/3 211/2/3
f 213/1/3 210/1/3 116/1/3
f 213/2/3 211/2/3 210/2/3
f 214/1/3 212/1/3 211/1/3
f 214/2/3 211/2/3 213/2/3
f 215/1/3 212/1/3 214/1/3
f 216/1/3 207/1/3 212/1/3
f 216/1/3 212/1/3 215/1/3
f 217/1/3 131/1/3 207/1/3
f 217/1/3 207/1/3 216/1/3
f 218/1/3 131/1/3 217/1/3
f 219/1/3 208/1/3 124/1/3
f 219/1/3 124/1/3 118/1/3
f 220/1/3 208/1/3 219/1/3
f 221/4/3 209/4/3 208/4/3
f 221/1/3 208/1/3 220/1/3
f 222/4/3 114/4/3 209/4/3
f 222/4/3 209/4/3 221/4/3
f 223/6/3 204/6/3 203/6/3
f 224/5/3 115/5/3 204/5/3
f 224/6/3 204/6/3 223/6/3
f 225/1/3 215/1/3 214/1/3
f 225/2/3 216/2/3 215/2/3
f 225/1/3 214/1/3 213/1/3
f 226/1/3 217/1/3 216/1/3
f 226/2/3 216/2/3 225/2/3
f 227/1/3 217/1/3 226/1/3
f 228/1/3 221/1/3 220/1/3
f 228/1/3 222/1/3 221/1/3
f 229/4/3 114/4/3 222/4/3
f 229/1/3 222/1/3 228/1/3
f 230/6/3 223/6/3 203/6/3
f 230/4/3 114/4/3 229/4/3
f 230/6/3 203/6/3 114/6/3
f 231/5/3 115/5/3 224/5/3
f 231/5/3 224/5/3 223/5/3
f 231/7/3 116/7/3 115/7/3
f 232/1/3 213/1/3 116/1/3
f 232/7/3 116/7/3 231/7/3
f 232/1/3 226/1/3 225/1/3
f 232/1/3 225/1/3 213/1/3
f 233/1/3 226/1/3 232/1/3
f 234/6/3 223/6/3 230/6/3
f 235/6/3 223/6/3 234/6/3
f 236/5/3 231/5/3 223/5/3
f 236/6/3 223/6/3 235/6/3
f 237/5/3 231/5/3 236/5/3
f 238/5/3 231/5/3 237/5/3
f 239/6/3 236/6/3 235/6/3
f 239/6/3 237/6/3 236/6/3
f 240/6/3 237/6/3 239/6/3
f 241/6/3 237/6/3 240/6/3
f 242/6/3 237/6/3 241/6/3
f 243/6/3 241/6/3 240/6/3
f 244/6/3 241/6/3 243/6/3
f 247/9/3 246/9/3 245/9/3
f 248/9/3 246/9/3 247/9/3
f 249/9/3 246/9/3 248/9/3
f 250/9/3 246/9/3 249/9/3
f 251/9/3 246/9/3 250/9/3
f 252/9/3 246/9/3 251/9/3
f 253/8/3 248/8/3 247/8/3
f 253/3/3 249/3/3 248/3/3
f 254/3/3 249/3/3 253/3/3
f 255/3/3 251/3/3 250/3/3
f 256/8/3 252/8/3 251/8/3
f 256/3/3 251/3/3 255/3/3
f 257/8/3 250/8/3 249/8/3
f 258/8/3 250/8/3 257/8/3
f 259/3/3 249/3/3 254/3/3
f 259/8/3 254/8/3 253/8/3
f 260/3/3 249/3/3 259/3/3
f 261/8/3 257/8/3 249/8/3
f 261/3/3 249/3/3 260/3/3
f 262/8/3 257/8/3 261/8/3
f 263/8/3 250/8/3 258/8/3
f 264/3/3 255/3/3 250/3/3
f 264/8/3 250/8/3 263/8/3
f 265/3/3 255/3/3 264/3/3
f 266/8/3 256/8/3 255/8/3
f 266/3/3 255/3/3 265/3/3
f 267/9/3 247/9/3 245/9/3
f 267/8/3 253/8/3 247/8/3
f 267/8/3 260/8/3 259/8/3
f 267/8/3 259/8/3 253/8/3
f 268/8/3 260/8/3 267/8/3
f 269/3/3 261/3/3 260/3/3
f 269/8/3 260/8/3 268/8/3
f 270/3/3 261/3/3 269/3/3
f 271/3/3 261/3/3 270/3/3
f 272/3/3 261/3/3 271/3/3
f 273/3/3 265/3/3 264/3/3
f 274/3/3 265/3/3 273/3/3
f 275/3/3 265/3/3 274/3/3
f 276/8/3 266/8/3 265/8/3
f 276/3/3 265/3/3 275/3/3
f 277/8/3 269/8/3 268/8/3
f 277/8/3 270/8/3 269/8/3
f 278/3/3 271/3/3 270/3/3
f 278/8/3 270/8/3 277/8/3
f 279/3/3 271/3/3 278/3/3
f 280/3/3 271/3/3 279/3/3
f 281/3/3 275/3/3 274/3/3
f 282/3/3 275/3/3 281/3/3
f 283/8/3 276/8/3 275/8/3
f 283/3/3 275/3/3 282/3/3
f 284/8/3 266/8/3 276/8/3
f 284/8/3 276/8/3 283/8/3
f 285/8/3 256/8/3 266/8/3
f 285/8/3 266/8/3 284/8/3
f 285/8/3 252/8/3 256/8/3
f 286/9/3 246/9/3 252/9/3
f 286/8/3 252/8/3 285/8/3
f 287/3/3 268/3/3 267/3/3
f 287/8/3 277/8/3 268/8/3
f 288/8/3 277/8/3 287/8/3
f 289/8/3 277/8/3 288/8/3
f 290/8/3 277/8/3 289/8/3
f 291/8/3 285/8/3 284/8/3
f 292/8/3 285/8/3 291/8/3
f 293/3/3 288/3/3 287/3/3
f 293/8/3 289/8/3 288/8/3
f 294/8/3 289/8/3 293/8/3
f 295/8/3 285/8/3 292/8/3
f 296/8/3 285/8/3 295/8/3
f 297/8/3 285/8/3 296/8/3
f 298/3/3 286/3/3 285/3/3
f 298/8/3 285/8/3 297/8/3
f 299/8/3 297/8/3 296/8/3
f 300/3/3 298/3/3 297/3/3
f 300/8/3 297/8/3 299/8/3
f 301/8/3 289/8/3 294/8/3
f 301/3/3 294/3/3 293/3/3
f 302/8/3 289/8/3 301/8/3
f 303/8/3 299/8/3 296/8/3
f 304/3/3 300/3/3 299/3/3
f 304/8/3 299/8/3 303/8/3
f 305/9/3 267/9/3 245/9/3
f 305/3/3 287/3/3 267/3/3
f 305/3/3 293/3/3 287/3/3
f 305/3/3 301/3/3 293/3/3
f 305/3/3 302/3/3 301/3/3
f 306/3/3 302/3/3 305/3/3
f 307/3/3 304/3/3 303/3/3
f 308/9/3 246/9/3 286/9/3
f 308/3/3 304/3/3 307/3/3
f 308/3/3 298/3/3 300/3/3
f 308/3/3 286/3/3 298/3/3
f 308/3/3 300/3/3 304/3/3
f 309/9/3 305/9/3 245/9/3
f 309/8/3 306/8/3 305/8/3
f 310/8/3 306/8/3 309/8/3
f 311/8/3 308/8/3 307/8/3
f 312/9/3 246/9/3 308/9/3
f 312/8/3 308/8/3 311/8/3
f 314/3/3 312/3/3 311/3/3
f 315/3/3 310/3/3 309/3/3
f 318/8/3 314/8/3 313/8/3
f 319/3/3 312/3/3 314/3/3
f 319/8/3 314/8/3 318/8/3
f 320/3/3 312/3/3 319/3/3
f 321/3/3 316/3/3 315/3/3
f 321/3/3 315/3/3 309/3/3
f 322/3/3 316/3/3 321/3/3
f 327/8/3 318/8/3 317/8/3
f 327/8/3 320/8/3 319/8/3
f 327/8/3 319/8/3 318/8/3
f 328/3/3 312/3/3 320/3/3
f 328/8/3 320/8/3 327/8/3
f 329/3/3 312/3/3 328/3/3
f 330/8/3 324/8/3 323/8/3
f 330/8/3 323/8/3 322/8/3
f 330/8/3 322/8/3 321/8/3
f 333/8/3 327/8/3 326/8/3
f 333/8/3 326/8/3 325/8/3
f 333/8/3 329/8/3 328/8/3
f 333/8/3 328/8/3 327/8/3
f 334/8/3 329/8/3 333/8/3
f 335/3/3 312/3/3 329/3/3
f 335/8/3 329/8/3 334/8/3
f 336/3/3 312/3/3 335/3/3
f 337/3/3 321/3/3 309/3/3
f 338/8/3 331/8/3 330/8/3
f 338/3/3 321/3/3 337/3/3
f 338/8/3 330/8/3 321/8/3
f 339/8/3 331/8/3 338/8/3
f 342/3/3 334/3/3 333/3/3
f 342/3/3 333/3/3 332/3/3
f 343/3/3 337/3/3 309/3/3
f 344/8/3 340/8/3 339/8/3
f 344/3/3 337/3/3 343/3/3
f 344/8/3 339/8/3 338/8/3
f 344/8/3 338/8/3 337/8/3
f 345/8/3 340/8/3 344/8/3
f 346/8/3 340/8/3 345/8/3
f 347/8/3 340/8/3 346/8/3
f 348/3/3 342/3/3 341/3/3
f 349/8/3 336/8/3 335/8/3
f 349/3/3 334/3/3 342/3/3
f 349/3/3 342/3/3 348/3/3
f 349/8/3 335/8/3 334/8/3
f 350/8/3 336/8/3 349/8/3
f 351/3/3 312/3/3 336/3/3
f 351/8/3 336/8/3 350/8/3
f 352/9/3 246/9/3 312/9/3
f 352/3/3 312/3/3 351/3/3
f 353/3/3 343/3/3 309/3/3
f 354/8/3 344/8/3 343/8/3
f 354/3/3 343/3/3 353/3/3
f 354/8/3 345/8/3 344/8/3
f 355/8/3 345/8/3 354/8/3
f 356/3/3 346/3/3 345/3/3
f 356/8/3 345/8/3 355/8/3
f 357/8/3 351/8/3 350/8/3
f 357/3/3 350/3/3 349/3/3
f 357/8/3 352/8/3 351/8/3
f 357/3/3 349/3/3 348/3/3
f 358/8/3 352/8/3 357/8/3
f 359/9/3 309/9/3 245/9/3
f 359/3/3 353/3/3 309/3/3
f 360/8/3 355/8/3 354/8/3
f 360/3/3 353/3/3 359/3/3
f 360/8/3 354/8/3 353/8/3
f 361/8/3 355/8/3 360/8/3
f 362/3/3 356/3/3 355/3/3
f 362/8/3 355/8/3 361/8/3
f 363/8/3 352/8/3 358/8/3
f 363/3/3 358/3/3 357/3/3
f 364/8/3 352/8/3 363/8/3
f 365/8/3 361/8/3 360/8/3
f 365/8/3 360/8/3 359/8/3
f 366/3/3 362/3/3 361/3/3
f 366/8/3 361/8/3 365/8/3
f 367/8/3 352/8/3 364/8/3
f 367/3/3 364/3/3 363/3/3
f 368/8/3 352/8/3 367/8/3
f 369/8/3 365/8/3 359/8/3
f 370/3/3 366/3/3 365/3/3
f 370/8/3 365/8/3 369/8/3
f 371/8/3 352/8/3 368/8/3
f 371/3/3 368/3/3 367/3/3
f 372/8/3 352/8/3 371/8/3
f 373/9/3 359/9/3 245/9/3
f 373/8/3 369/8/3 359/8/3
f 374/3/3 370/3/3 369/3/3
f 374/8/3 369/8/3 373/8/3
f 375/8/3 347/8/3 346/8/3
f 375/3/3 370/3/3 374/3/3
f 375/3/3 356/3/3 362/3/3
f 375/3/3 346/3/3 356/3/3
f 375/8/3 348/8/3 347/8/3
f 375/3/3 362/3/3 366/3/3
f 375/3/3 366/3/3 370/3/3
f 376/3/3 371/3/3 367/3/3
f 376/8/3 348/8/3 375/8/3
f 376/3/3 367/3/3 363/3/3
f 376/3/3 357/3/3 348/3/3
f 376/3/3 372/3/3 371/3/3
f 376/3/3 363/3/3 357/3/3
f 377/8/3 352/8/3 372/8/3
f 377/3/3 372/3/3 376/3/3
f 378/9/3 246/9/3 352/9/3
f 378/8/3 352/8/3 377/8/3
f 379/9/3 374/9/3 373/9/3
f 379/9/3 375/9/3 374/9/3
f 379/9/3 378/9/3 377/9/3
f 379/9/3 373/9/3 245/9/3
f 379/9/3 377/9/3 376/9/3
f 379/9/3 376/9/3 375/9/3
f 380/9/3 246/9/3 378/9/3
f 380/9/3 378/9/3 379/9/3
f 381/9/4 382/9/4 383/9/4
f 383/9/4 382/9/4 384/9/4
f 387/9/5 386/9/5 385/9/5
f 388/9/5 386/9/5 387/9/5
f 391/1/5 390/1/5 389/1/5
f 392/1/5 390/1/5 391/1/5
f 393/1/5 390/1/5 392/1/5
f 394/1/5 390/1/5 393/1/5
f 395/1/5 390/1/5 394/1/5
f 400/1/5 397/1/5 396/1/5
f 401/1/5 397/1/5 400/1/5
f 402/1/5 399/1/5 398/1/5
f 403/1/5 399/1/5 402/1/5
f 408/6/5 405/6/5 404/6/5
f 409/6/5 405/6/5 408/6/5
f 410/6/5 407/6/5 406/6/5
f 411/6/5 407/6/5 410/6/5
f 416/6/5 413/6/5 412/6/5
f 417/6/5 413/6/5 416/6/5
f 418/6/5 415/6/5 414/6/5
f 419/6/5 415/6/5 418/6/5
f 424/6/5 421/6/5 420/6/5
f 425/6/5 421/6/5 424/6/5
f 426/6/5 423/6/5 422/6/5
f 427/6/5 423/6/5 426/6/5
f 428/6/6 429/6/6 432/6/6
f 432/6/6 429/6/6 433/6/6
f 430/6/6 431/6/6 434/6/6
f 434/6/6 431/6/6 435/6/6
f 436/5/6 437/5/6 440/5/6
f 440/5/6 437/5/6 441/5/6
f 438/6/6 439/6/6 442/6/6
f 442/6/6 439/6/6 443/6/6
f 444/5/6 445/5/6 448/5/6
f 448/5/6 445/5/6 449/5/6
f 446/5/6 447/5/6 450/5/6
f 450/5/6 447/5/6 451/5/6
f 452/1/6 453/1/6 456/1/6
f 456/1/6 453/1/6 457/1/6
f 454/1/6 455/1/6 458/1/6
f 458/1/6 455/1/6 459/1/6
f 460/1/6 461/1/6 464/1/6
f 464/1/6 461/1/6 465/1/6
f 462/1/6 463/1/6 466/1/6
f 466/1/6 463/1/6 467/1/6
f 468/1/6 469/1/6 470/1/6
f 470/1/6 469/1/6 471/1/6
f 471/1/6 469/1/6 472/1/6
f 472/1/6 469/1/6 473/1/6
f 473/1/6 469/1/6 474/1/6
f 475/9/6 476/9/6 477/9/6
f 477/9/6 476/9/6 478/9/6
