# MagicaVoxel @ ephtracy

# material
mtllib Advert7.mtl
usemtl palette

# mesh name
g advert7_mesh

# normals
vn -1 0 0
vn 1 0 0
vn 0 0 1
vn 0 0 -1
vn 0 -1 0
vn 0 1 0

# texcoords
vt 0.0410156 0.5
vt 0.0605469 0.5
vt 0.279297 0.5
vt 0.525391 0.5
vt 0.619141 0.5
vt 0.755859 0.5
vt 0.841797 0.5
vt 0.955078 0.5
vt 0.958984 0.5
vt 0.986328 0.5
vt 0.994141 0.5

# verts
v -20 0 -0
v -20 0 -2
v -20 30 -0
v -20 30 -2
v -13 5 1
v -13 5 -0
v -13 10 -0
v -13 19 2
v -13 19 1
v -13 19 -0
v -13 20 2
v -13 20 1
v -13 20 -0
v -13 25 1
v -13 25 -0
v -13 27 1
v -13 27 -0
v -12 17 2
v -12 17 1
v -12 19 2
v -12 19 1
v -12 20 2
v -12 20 1
v -12 21 2
v -12 21 1
v -7 14 2
v -7 14 1
v -7 15 2
v -7 15 1
v -6 15 2
v -6 15 1
v -6 17 2
v -6 17 1
v -4 20 2
v -4 20 1
v -4 21 2
v -4 21 1
v 5 9 1
v 5 9 -0
v 5 10 -0
v 5 15 1
v 5 15 -0
v 6 4 1
v 6 4 -0
v 6 5 1
v 6 5 -0
v 6 8 1
v 6 8 -0
v 6 9 1
v 6 9 -0
v 6 15 1
v 6 15 -0
v 6 20 1
v 6 20 -0
v 6 21 1
v 6 21 -0
v 6 22 1
v 6 22 -0
v 7 28 1
v 7 28 -0
v 7 29 1
v 7 29 -0
v 8 22 1
v 8 22 -0
v 8 23 1
v 8 23 -0
v 8 24 1
v 8 24 -0
v 9 24 1
v 9 24 -0
v 9 28 1
v 9 28 -0
v -6 20 2
v -6 20 1
v -6 21 2
v -6 21 1
v -4 15 2
v -4 15 1
v -4 17 2
v -4 17 1
v -3 14 2
v -3 14 1
v -3 15 2
v -3 15 1
v 2 17 2
v 2 17 1
v 2 19 2
v 2 19 1
v 2 20 2
v 2 20 1
v 2 21 2
v 2 21 1
v 3 5 1
v 3 5 -0
v 3 10 -0
v 3 19 2
v 3 19 1
v 3 19 -0
v 3 20 2
v 3 20 1
v 3 20 -0
v 3 25 1
v 3 25 -0
v 3 27 1
v 3 27 -0
v 11 24 1
v 11 24 -0
v 11 29 1
v 11 29 -0
v 12 22 1
v 12 22 -0
v 12 23 1
v 12 23 -0
v 12 24 1
v 12 24 -0
v 14 4 1
v 14 4 -0
v 14 5 1
v 14 5 -0
v 14 8 1
v 14 8 -0
v 14 10 1
v 14 10 -0
v 14 17 1
v 14 17 -0
v 14 20 1
v 14 20 -0
v 14 21 1
v 14 21 -0
v 14 22 1
v 14 22 -0
v 17 10 1
v 17 10 -0
v 17 17 1
v 17 17 -0
v 20 0 -0
v 20 0 -2
v 20 30 -0
v 20 30 -2
v -13 19 2
v -13 20 2
v -12 17 2
v -12 19 2
v -12 20 2
v -12 21 2
v -7 14 2
v -7 15 2
v -6 15 2
v -6 17 2
v -6 19 2
v -6 20 2
v -6 21 2
v -4 15 2
v -4 17 2
v -4 19 2
v -4 20 2
v -4 21 2
v -3 14 2
v -3 15 2
v 2 17 2
v 2 19 2
v 2 20 2
v 2 21 2
v 3 19 2
v 3 20 2
v -13 5 1
v -13 19 1
v -13 20 1
v -13 25 1
v -13 27 1
v -12 17 1
v -12 19 1
v -12 20 1
v -12 21 1
v -12 22 1
v -12 23 1
v -11 8 1
v -11 9 1
v -11 12 1
v -11 13 1
v -11 21 1
v -11 22 1
v -8 21 1
v -8 22 1
v -7 14 1
v -7 15 1
v -7 21 1
v -7 22 1
v -7 23 1
v -6 9 1
v -6 10 1
v -6 15 1
v -6 17 1
v -6 20 1
v -6 21 1
v -4 9 1
v -4 10 1
v -4 15 1
v -4 17 1
v -4 20 1
v -4 21 1
v -3 14 1
v -3 15 1
v -3 21 1
v -3 22 1
v -3 23 1
v 0 21 1
v 0 22 1
v 1 8 1
v 1 9 1
v 1 12 1
v 1 13 1
v 1 21 1
v 1 22 1
v 2 17 1
v 2 19 1
v 2 20 1
v 2 21 1
v 2 22 1
v 2 23 1
v 3 5 1
v 3 19 1
v 3 20 1
v 3 25 1
v 3 27 1
v 5 9 1
v 5 15 1
v 6 4 1
v 6 5 1
v 6 8 1
v 6 9 1
v 6 11 1
v 6 12 1
v 6 15 1
v 6 20 1
v 6 21 1
v 6 22 1
v 7 17 1
v 7 18 1
v 7 28 1
v 7 29 1
v 8 12 1
v 8 14 1
v 8 15 1
v 8 17 1
v 8 18 1
v 8 22 1
v 8 23 1
v 8 24 1
v 9 12 1
v 9 13 1
v 9 14 1
v 9 15 1
v 9 16 1
v 9 17 1
v 9 24 1
v 9 28 1
v 10 13 1
v 10 15 1
v 10 16 1
v 10 20 1
v 11 12 1
v 11 13 1
v 11 24 1
v 11 29 1
v 12 13 1
v 12 20 1
v 12 22 1
v 12 23 1
v 12 24 1
v 13 10 1
v 13 11 1
v 13 17 1
v 14 4 1
v 14 5 1
v 14 8 1
v 14 10 1
v 14 17 1
v 14 20 1
v 14 21 1
v 14 22 1
v 17 10 1
v 17 17 1
v -20 0 -0
v -20 30 -0
v -19 1 -0
v -19 7 -0
v -19 29 -0
v -16 7 -0
v -16 10 -0
v -13 5 -0
v -13 10 -0
v -13 19 -0
v -13 20 -0
v -13 25 -0
v -13 27 -0
v 3 5 -0
v 3 10 -0
v 3 19 -0
v 3 20 -0
v 3 25 -0
v 3 27 -0
v 5 9 -0
v 5 10 -0
v 5 15 -0
v 6 1 -0
v 6 4 -0
v 6 5 -0
v 6 8 -0
v 6 9 -0
v 6 15 -0
v 6 20 -0
v 6 21 -0
v 6 22 -0
v 7 28 -0
v 7 29 -0
v 8 22 -0
v 8 23 -0
v 8 24 -0
v 9 24 -0
v 9 28 -0
v 11 24 -0
v 11 29 -0
v 12 22 -0
v 12 23 -0
v 12 24 -0
v 14 4 -0
v 14 5 -0
v 14 8 -0
v 14 10 -0
v 14 17 -0
v 14 20 -0
v 14 21 -0
v 14 22 -0
v 15 5 -0
v 15 10 -0
v 17 10 -0
v 17 17 -0
v 19 1 -0
v 19 29 -0
v 20 0 -0
v 20 30 -0
v -20 0 -2
v -20 30 -2
v 20 0 -2
v 20 30 -2
v -20 0 -0
v 20 0 -0
v -20 0 -2
v 20 0 -2
v 6 4 1
v 14 4 1
v 6 4 -0
v 14 4 -0
v -13 5 1
v 3 5 1
v -13 5 -0
v 3 5 -0
v 5 9 1
v 6 9 1
v 5 9 -0
v 6 9 -0
v 14 10 1
v 17 10 1
v 14 10 -0
v 15 10 -0
v 17 10 -0
v -7 14 2
v -3 14 2
v -7 14 1
v -3 14 1
v -12 17 2
v -6 17 2
v -4 17 2
v 2 17 2
v -12 17 1
v -6 17 1
v -4 17 1
v 2 17 1
v -13 19 2
v -12 19 2
v 2 19 2
v 3 19 2
v -13 19 1
v -12 19 1
v 2 19 1
v 3 19 1
v 7 28 1
v 9 28 1
v 7 28 -0
v 9 28 -0
v -7 15 2
v -6 15 2
v -4 15 2
v -3 15 2
v -7 15 1
v -6 15 1
v -4 15 1
v -3 15 1
v 5 15 1
v 6 15 1
v 5 15 -0
v 6 15 -0
v 14 17 1
v 17 17 1
v 14 17 -0
v 17 17 -0
v -13 20 2
v -12 20 2
v -6 20 2
v -4 20 2
v 2 20 2
v 3 20 2
v -13 20 1
v -12 20 1
v -6 20 1
v -4 20 1
v 2 20 1
v 3 20 1
v -12 21 2
v -6 21 2
v -4 21 2
v 2 21 2
v -12 21 1
v -11 21 1
v -8 21 1
v -7 21 1
v -6 21 1
v -4 21 1
v -3 21 1
v 0 21 1
v 1 21 1
v 2 21 1
v 6 22 1
v 8 22 1
v 12 22 1
v 14 22 1
v 6 22 -0
v 8 22 -0
v 12 22 -0
v 14 22 -0
v 8 24 1
v 9 24 1
v 11 24 1
v 12 24 1
v 8 24 -0
v 9 24 -0
v 11 24 -0
v 12 24 -0
v -13 27 1
v 3 27 1
v -13 27 -0
v 3 27 -0
v 7 29 1
v 11 29 1
v 7 29 -0
v 11 29 -0
v -20 30 -0
v 20 30 -0
v -20 30 -2
v 20 30 -2

# faces
f 3/10/1 2/10/1 1/10/1
f 4/10/1 2/10/1 3/10/1
f 7/2/1 6/2/1 5/2/1
f 9/2/1 7/2/1 5/2/1
f 10/2/1 7/2/1 9/2/1
f 11/11/1 9/11/1 8/11/1
f 11/11/1 10/11/1 9/11/1
f 12/11/1 10/11/1 11/11/1
f 13/11/1 10/11/1 12/11/1
f 14/2/1 13/2/1 12/2/1
f 15/2/1 13/2/1 14/2/1
f 16/1/1 15/1/1 14/1/1
f 17/1/1 15/1/1 16/1/1
f 20/11/1 19/11/1 18/11/1
f 21/11/1 19/11/1 20/11/1
f 24/11/1 23/11/1 22/11/1
f 25/11/1 23/11/1 24/11/1
f 28/2/1 27/2/1 26/2/1
f 29/2/1 27/2/1 28/2/1
f 32/2/1 31/2/1 30/2/1
f 33/2/1 31/2/1 32/2/1
f 36/11/1 35/11/1 34/11/1
f 37/11/1 35/11/1 36/11/1
f 40/2/1 39/2/1 38/2/1
f 41/2/1 40/2/1 38/2/1
f 42/2/1 40/2/1 41/2/1
f 45/9/1 44/9/1 43/9/1
f 46/9/1 44/9/1 45/9/1
f 47/3/1 46/3/1 45/3/1
f 48/3/1 46/3/1 47/3/1
f 49/9/1 48/9/1 47/9/1
f 50/9/1 48/9/1 49/9/1
f 53/3/1 52/3/1 51/3/1
f 54/3/1 52/3/1 53/3/1
f 55/9/1 54/9/1 53/9/1
f 56/9/1 54/9/1 55/9/1
f 57/3/1 56/3/1 55/3/1
f 58/3/1 56/3/1 57/3/1
f 61/6/1 60/6/1 59/6/1
f 62/6/1 60/6/1 61/6/1
f 65/3/1 64/3/1 63/3/1
f 66/3/1 64/3/1 65/3/1
f 67/9/1 66/9/1 65/9/1
f 68/9/1 66/9/1 67/9/1
f 71/6/1 70/6/1 69/6/1
f 72/6/1 70/6/1 71/6/1
f 73/11/2 74/11/2 75/11/2
f 75/11/2 74/11/2 76/11/2
f 77/2/2 78/2/2 79/2/2
f 79/2/2 78/2/2 80/2/2
f 81/2/2 82/2/2 83/2/2
f 83/2/2 82/2/2 84/2/2
f 85/11/2 86/11/2 87/11/2
f 87/11/2 86/11/2 88/11/2
f 89/11/2 90/11/2 91/11/2
f 91/11/2 90/11/2 92/11/2
f 93/2/2 94/2/2 95/2/2
f 93/2/2 95/2/2 97/2/2
f 97/2/2 95/2/2 98/2/2
f 96/11/2 97/11/2 99/11/2
f 97/11/2 98/11/2 99/11/2
f 99/11/2 98/11/2 100/11/2
f 100/11/2 98/11/2 101/11/2
f 100/2/2 101/2/2 102/2/2
f 102/2/2 101/2/2 103/2/2
f 102/1/2 103/1/2 104/1/2
f 104/1/2 103/1/2 105/1/2
f 106/6/2 107/6/2 108/6/2
f 108/6/2 107/6/2 109/6/2
f 110/3/2 111/3/2 112/3/2
f 112/3/2 111/3/2 113/3/2
f 112/9/2 113/9/2 114/9/2
f 114/9/2 113/9/2 115/9/2
f 116/9/2 117/9/2 118/9/2
f 118/9/2 117/9/2 119/9/2
f 118/3/2 119/3/2 120/3/2
f 120/3/2 119/3/2 121/3/2
f 120/9/2 121/9/2 122/9/2
f 122/9/2 121/9/2 123/9/2
f 124/3/2 125/3/2 126/3/2
f 126/3/2 125/3/2 127/3/2
f 126/9/2 127/9/2 128/9/2
f 128/9/2 127/9/2 129/9/2
f 128/3/2 129/3/2 130/3/2
f 130/3/2 129/3/2 131/3/2
f 132/2/2 133/2/2 134/2/2
f 134/2/2 133/2/2 135/2/2
f 136/10/2 137/10/2 138/10/2
f 138/10/2 137/10/2 139/10/2
f 143/11/3 141/11/3 140/11/3
f 144/11/3 141/11/3 143/11/3
f 148/2/3 147/2/3 146/2/3
f 149/11/3 143/11/3 142/11/3
f 149/11/3 144/11/3 143/11/3
f 149/11/3 145/11/3 144/11/3
f 150/11/3 145/11/3 149/11/3
f 151/11/3 145/11/3 150/11/3
f 152/11/3 145/11/3 151/11/3
f 153/2/3 148/2/3 146/2/3
f 153/2/3 149/2/3 148/2/3
f 153/2/3 150/2/3 149/2/3
f 154/2/3 150/2/3 153/2/3
f 155/11/3 151/11/3 150/11/3
f 155/2/3 150/2/3 154/2/3
f 156/11/3 151/11/3 155/11/3
f 158/2/3 153/2/3 146/2/3
f 159/2/3 153/2/3 158/2/3
f 160/11/3 157/11/3 156/11/3
f 160/11/3 156/11/3 155/11/3
f 160/11/3 155/11/3 154/11/3
f 161/11/3 157/11/3 160/11/3
f 162/11/3 157/11/3 161/11/3
f 163/11/3 157/11/3 162/11/3
f 164/11/3 162/11/3 161/11/3
f 165/11/3 162/11/3 164/11/3
f 171/2/3 167/2/3 166/2/3
f 172/2/3 167/2/3 171/2/3
f 173/2/3 169/2/3 168/2/3
f 174/2/3 169/2/3 173/2/3
f 175/2/3 169/2/3 174/2/3
f 176/2/3 169/2/3 175/2/3
f 177/2/3 171/2/3 166/2/3
f 178/2/3 171/2/3 177/2/3
f 179/2/3 171/2/3 178/2/3
f 180/2/3 171/2/3 179/2/3
f 181/2/3 175/2/3 174/2/3
f 182/1/3 176/1/3 175/1/3
f 182/2/3 175/2/3 181/2/3
f 183/8/3 182/8/3 181/8/3
f 184/1/3 176/1/3 182/1/3
f 184/8/3 182/8/3 183/8/3
f 185/2/3 171/2/3 180/2/3
f 186/2/3 171/2/3 185/2/3
f 187/9/3 184/9/3 183/9/3
f 188/1/3 176/1/3 184/1/3
f 188/9/3 184/9/3 187/9/3
f 189/2/3 169/2/3 176/2/3
f 189/1/3 176/1/3 188/1/3
f 190/9/3 178/9/3 177/9/3
f 190/11/3 179/11/3 178/11/3
f 191/11/3 179/11/3 190/11/3
f 192/2/3 171/2/3 186/2/3
f 193/2/3 171/2/3 192/2/3
f 195/2/3 188/2/3 187/2/3
f 195/2/3 189/2/3 188/2/3
f 196/9/3 190/9/3 177/9/3
f 196/7/3 191/7/3 190/7/3
f 197/11/3 179/11/3 191/11/3
f 197/7/3 191/7/3 196/7/3
f 200/2/3 195/2/3 194/2/3
f 201/2/3 189/2/3 195/2/3
f 201/2/3 195/2/3 200/2/3
f 202/2/3 185/2/3 180/2/3
f 203/2/3 199/2/3 198/2/3
f 204/2/3 189/2/3 201/2/3
f 205/2/3 189/2/3 204/2/3
f 206/2/3 169/2/3 189/2/3
f 206/2/3 189/2/3 205/2/3
f 207/8/3 205/8/3 204/8/3
f 208/1/3 206/1/3 205/1/3
f 208/8/3 205/8/3 207/8/3
f 209/2/3 177/2/3 166/2/3
f 209/9/3 196/9/3 177/9/3
f 210/11/3 197/11/3 196/11/3
f 210/9/3 196/9/3 209/9/3
f 211/9/3 180/9/3 179/9/3
f 211/11/3 197/11/3 210/11/3
f 211/11/3 179/11/3 197/11/3
f 212/2/3 202/2/3 180/2/3
f 212/9/3 180/9/3 211/9/3
f 212/2/3 203/2/3 202/2/3
f 213/9/3 208/9/3 207/9/3
f 214/1/3 206/1/3 208/1/3
f 214/9/3 208/9/3 213/9/3
f 215/2/3 211/2/3 210/2/3
f 215/2/3 210/2/3 209/2/3
f 215/2/3 203/2/3 212/2/3
f 215/2/3 212/2/3 211/2/3
f 215/2/3 199/2/3 203/2/3
f 218/2/3 214/2/3 213/2/3
f 219/1/3 206/1/3 214/1/3
f 219/2/3 214/2/3 218/2/3
f 220/2/3 169/2/3 206/2/3
f 220/1/3 206/1/3 219/1/3
f 221/2/3 216/2/3 215/2/3
f 221/2/3 209/2/3 166/2/3
f 221/2/3 215/2/3 209/2/3
f 222/2/3 216/2/3 221/2/3
f 223/2/3 218/2/3 217/2/3
f 223/2/3 219/2/3 218/2/3
f 223/2/3 220/2/3 219/2/3
f 224/1/3 170/1/3 169/1/3
f 224/2/3 220/2/3 223/2/3
f 224/2/3 169/2/3 220/2/3
f 225/1/3 170/1/3 224/1/3
f 231/2/3 227/2/3 226/2/3
f 232/2/3 227/2/3 231/2/3
f 233/2/3 227/2/3 232/2/3
f 234/2/3 227/2/3 233/2/3
f 238/3/3 235/3/3 234/3/3
f 239/3/3 235/3/3 238/3/3
f 242/3/3 233/3/3 232/3/3
f 242/2/3 234/2/3 233/2/3
f 243/2/3 234/2/3 242/2/3
f 244/3/3 238/3/3 234/3/3
f 244/2/3 234/2/3 243/2/3
f 245/9/3 239/9/3 238/9/3
f 245/3/3 238/3/3 244/3/3
f 246/3/3 235/3/3 239/3/3
f 246/9/3 239/9/3 245/9/3
f 247/3/3 237/3/3 236/3/3
f 250/3/3 243/3/3 242/3/3
f 250/3/3 242/3/3 232/3/3
f 251/3/3 243/3/3 250/3/3
f 252/9/3 245/9/3 244/9/3
f 252/3/3 243/3/3 251/3/3
f 252/9/3 244/9/3 243/9/3
f 253/9/3 245/9/3 252/9/3
f 254/9/3 245/9/3 253/9/3
f 255/3/3 246/3/3 245/3/3
f 255/9/3 245/9/3 254/9/3
f 256/9/3 249/9/3 248/9/3
f 257/6/3 241/6/3 240/6/3
f 258/9/3 251/9/3 250/9/3
f 258/3/3 252/3/3 251/3/3
f 258/3/3 253/3/3 252/3/3
f 259/9/3 254/9/3 253/9/3
f 259/3/3 253/3/3 258/3/3
f 260/3/3 255/3/3 254/3/3
f 260/9/3 254/9/3 259/9/3
f 261/3/3 235/3/3 246/3/3
f 261/3/3 255/3/3 260/3/3
f 261/9/3 236/9/3 235/9/3
f 261/3/3 246/3/3 255/3/3
f 262/3/3 250/3/3 232/3/3
f 262/9/3 260/9/3 259/9/3
f 262/9/3 261/9/3 260/9/3
f 262/9/3 259/9/3 258/9/3
f 262/9/3 258/9/3 250/9/3
f 263/9/3 261/9/3 262/9/3
f 264/6/3 257/6/3 256/6/3
f 264/9/3 256/9/3 248/9/3
f 265/6/3 241/6/3 257/6/3
f 265/6/3 257/6/3 264/6/3
f 266/9/3 261/9/3 263/9/3
f 266/3/3 263/3/3 262/3/3
f 267/9/3 236/9/3 261/9/3
f 267/9/3 261/9/3 266/9/3
f 268/3/3 247/3/3 236/3/3
f 268/3/3 248/3/3 247/3/3
f 269/9/3 264/9/3 248/9/3
f 269/3/3 248/3/3 268/3/3
f 270/9/3 264/9/3 269/9/3
f 271/9/3 231/9/3 230/9/3
f 271/9/3 232/9/3 231/9/3
f 272/3/3 267/3/3 266/3/3
f 272/9/3 232/9/3 271/9/3
f 272/3/3 262/3/3 232/3/3
f 272/3/3 266/3/3 262/3/3
f 273/3/3 267/3/3 272/3/3
f 274/9/3 229/9/3 228/9/3
f 275/3/3 230/3/3 229/3/3
f 275/9/3 229/9/3 274/9/3
f 276/9/3 271/9/3 230/9/3
f 276/3/3 230/3/3 275/3/3
f 277/2/3 272/2/3 271/2/3
f 277/9/3 271/9/3 276/9/3
f 277/2/3 273/2/3 272/2/3
f 278/3/3 267/3/3 273/3/3
f 278/2/3 273/2/3 277/2/3
f 279/9/3 236/9/3 267/9/3
f 279/3/3 267/3/3 278/3/3
f 280/3/3 268/3/3 236/3/3
f 280/9/3 236/9/3 279/9/3
f 281/3/3 268/3/3 280/3/3
f 282/2/3 278/2/3 277/2/3
f 283/2/3 278/2/3 282/2/3
f 286/10/3 285/10/3 284/10/3
f 287/10/3 285/10/3 286/10/3
f 288/10/3 285/10/3 287/10/3
f 289/4/3 287/4/3 286/4/3
f 289/5/3 288/5/3 287/5/3
f 290/5/3 288/5/3 289/5/3
f 291/4/3 289/4/3 286/4/3
f 291/4/3 290/4/3 289/4/3
f 292/5/3 288/5/3 290/5/3
f 292/4/3 290/4/3 291/4/3
f 293/5/3 288/5/3 292/5/3
f 294/5/3 288/5/3 293/5/3
f 295/5/3 288/5/3 294/5/3
f 296/5/3 288/5/3 295/5/3
f 297/4/3 291/4/3 286/4/3
f 302/5/3 288/5/3 296/5/3
f 303/4/3 298/4/3 297/4/3
f 304/5/3 301/5/3 300/5/3
f 304/4/3 298/4/3 303/4/3
f 304/5/3 302/5/3 301/5/3
f 304/5/3 299/5/3 298/5/3
f 304/5/3 300/5/3 299/5/3
f 305/5/3 302/5/3 304/5/3
f 306/10/3 286/10/3 284/10/3
f 306/4/3 303/4/3 297/4/3
f 306/4/3 297/4/3 286/4/3
f 307/4/3 303/4/3 306/4/3
f 308/4/3 303/4/3 307/4/3
f 309/4/3 303/4/3 308/4/3
f 310/4/3 303/4/3 309/4/3
f 311/5/3 302/5/3 305/5/3
f 312/5/3 302/5/3 311/5/3
f 313/5/3 302/5/3 312/5/3
f 314/5/3 302/5/3 313/5/3
f 315/5/3 302/5/3 314/5/3
f 315/5/3 288/5/3 302/5/3
f 316/10/3 285/10/3 288/10/3
f 316/5/3 288/5/3 315/5/3
f 317/5/3 315/5/3 314/5/3
f 318/5/3 315/5/3 317/5/3
f 319/5/3 315/5/3 318/5/3
f 320/5/3 315/5/3 319/5/3
f 321/5/3 315/5/3 320/5/3
f 323/10/3 285/10/3 316/10/3
f 326/5/3 323/5/3 322/5/3
f 327/5/3 307/5/3 306/5/3
f 334/5/3 326/5/3 325/5/3
f 334/5/3 325/5/3 324/5/3
f 335/5/3 328/5/3 327/5/3
f 335/4/3 329/4/3 328/4/3
f 335/4/3 330/4/3 329/4/3
f 336/4/3 330/4/3 335/4/3
f 337/5/3 336/5/3 335/5/3
f 338/5/3 333/5/3 332/5/3
f 338/5/3 332/5/3 331/5/3
f 338/5/3 334/5/3 333/5/3
f 339/5/3 337/5/3 335/5/3
f 339/5/3 338/5/3 337/5/3
f 339/10/3 306/10/3 284/10/3
f 339/5/3 335/5/3 327/5/3
f 339/5/3 327/5/3 306/5/3
f 340/5/3 334/5/3 338/5/3
f 340/5/3 338/5/3 339/5/3
f 340/10/3 285/10/3 323/10/3
f 340/5/3 326/5/3 334/5/3
f 340/5/3 323/5/3 326/5/3
f 341/10/3 339/10/3 284/10/3
f 341/10/3 340/10/3 339/10/3
f 342/10/3 285/10/3 340/10/3
f 342/10/3 340/10/3 341/10/3
f 343/10/4 344/10/4 345/10/4
f 345/10/4 344/10/4 346/10/4
f 349/10/5 348/10/5 347/10/5
f 350/10/5 348/10/5 349/10/5
f 353/9/5 352/9/5 351/9/5
f 354/9/5 352/9/5 353/9/5
f 357/2/5 356/2/5 355/2/5
f 358/2/5 356/2/5 357/2/5
f 361/2/5 360/2/5 359/2/5
f 362/2/5 360/2/5 361/2/5
f 365/2/5 364/2/5 363/2/5
f 366/2/5 364/2/5 365/2/5
f 367/2/5 364/2/5 366/2/5
f 370/2/5 369/2/5 368/2/5
f 371/2/5 369/2/5 370/2/5
f 376/11/5 373/11/5 372/11/5
f 377/11/5 373/11/5 376/11/5
f 378/11/5 375/11/5 374/11/5
f 379/11/5 375/11/5 378/11/5
f 384/11/5 381/11/5 380/11/5
f 385/11/5 381/11/5 384/11/5
f 386/11/5 383/11/5 382/11/5
f 387/11/5 383/11/5 386/11/5
f 390/6/5 389/6/5 388/6/5
f 391/6/5 389/6/5 390/6/5
f 392/2/6 393/2/6 396/2/6
f 396/2/6 393/2/6 397/2/6
f 394/2/6 395/2/6 398/2/6
f 398/2/6 395/2/6 399/2/6
f 400/2/6 401/2/6 402/2/6
f 402/2/6 401/2/6 403/2/6
f 404/2/6 405/2/6 406/2/6
f 406/2/6 405/2/6 407/2/6
f 408/11/6 409/11/6 414/11/6
f 414/11/6 409/11/6 415/11/6
f 410/11/6 411/11/6 416/11/6
f 416/11/6 411/11/6 417/11/6
f 412/11/6 413/11/6 418/11/6
f 418/11/6 413/11/6 419/11/6
f 420/11/6 421/11/6 424/11/6
f 424/11/6 421/11/6 425/11/6
f 425/11/6 421/11/6 426/11/6
f 426/11/6 421/11/6 427/11/6
f 427/11/6 421/11/6 428/11/6
f 422/11/6 423/11/6 429/11/6
f 429/11/6 423/11/6 430/11/6
f 430/11/6 423/11/6 431/11/6
f 431/11/6 423/11/6 432/11/6
f 432/11/6 423/11/6 433/11/6
f 434/3/6 435/3/6 438/3/6
f 438/3/6 435/3/6 439/3/6
f 436/3/6 437/3/6 440/3/6
f 440/3/6 437/3/6 441/3/6
f 442/9/6 443/9/6 446/9/6
f 446/9/6 443/9/6 447/9/6
f 444/9/6 445/9/6 448/9/6
f 448/9/6 445/9/6 449/9/6
f 450/1/6 451/1/6 452/1/6
f 452/1/6 451/1/6 453/1/6
f 454/6/6 455/6/6 456/6/6
f 456/6/6 455/6/6 457/6/6
f 458/10/6 459/10/6 460/10/6
f 460/10/6 459/10/6 461/10/6
