# MagicaVoxel @ ephtracy

# material
mtllib Advert2.mtl
usemtl palette

# mesh name
g advert2_mesh

# normals
vn -1 0 0
vn 1 0 0
vn 0 0 1
vn 0 0 -1
vn 0 -1 0
vn 0 1 0

# texcoords
vt 0.560547 0.5
vt 0.751953 0.5
vt 0.755859 0.5
vt 0.775391 0.5
vt 0.841797 0.5
vt 0.958984 0.5
vt 0.986328 0.5
vt 0.990234 0.5
vt 0.994141 0.5

# verts
v -20 0 0.5
v -20 0 -1.5
v -20 30 0.5
v -20 30 -1.5
v -16 8 1.5
v -16 8 0.5
v -16 11 1.5
v -16 11 0.5
v -6 6 1.5
v -6 6 0.5
v -6 7 0.5
v -6 8 1.5
v -6 8 0.5
v -6 11 1.5
v -6 11 0.5
v -6 13 1.5
v -6 13 0.5
v -3 6 1.5
v -3 6 0.5
v -3 7 1.5
v -3 7 0.5
v -3 12 1.5
v -3 12 0.5
v -3 13 1.5
v -3 13 0.5
v -1 7 1.5
v -1 7 0.5
v -1 8 1.5
v -1 8 0.5
v -1 11 1.5
v -1 11 0.5
v -1 12 1.5
v -1 12 0.5
v 0 8 1.5
v 0 8 0.5
v 0 9 1.5
v 0 9 0.5
v 0 10 1.5
v 0 10 0.5
v 0 11 1.5
v 0 11 0.5
v 1 9 1.5
v 1 9 0.5
v 1 10 1.5
v 1 10 0.5
v 20 0 0.5
v 20 0 -1.5
v 20 30 0.5
v 20 30 -1.5
v -16 8 1.5
v -16 11 1.5
v -6 6 1.5
v -6 8 1.5
v -6 11 1.5
v -6 13 1.5
v -3 6 1.5
v -3 7 1.5
v -3 12 1.5
v -3 13 1.5
v -1 7 1.5
v -1 8 1.5
v -1 11 1.5
v -1 12 1.5
v 0 8 1.5
v 0 9 1.5
v 0 10 1.5
v 0 11 1.5
v 1 9 1.5
v 1 10 1.5
v -20 0 0.5
v -20 30 0.5
v -19 1 0.5
v -19 29 0.5
v -18 4 0.5
v -18 5 0.5
v -17 2 0.5
v -17 3 0.5
v -16 8 0.5
v -16 11 0.5
v -16 15 0.5
v -16 25 0.5
v -15 17 0.5
v -15 25 0.5
v -14 4 0.5
v -14 5 0.5
v -14 13 0.5
v -14 14 0.5
v -14 17 0.5
v -14 19 0.5
v -14 20 0.5
v -14 22 0.5
v -13 4 0.5
v -13 5 0.5
v -11 15 0.5
v -11 19 0.5
v -11 20 0.5
v -11 21 0.5
v -11 22 0.5
v -11 26 0.5
v -10 2 0.5
v -10 3 0.5
v -10 16 0.5
v -10 20 0.5
v -9 2 0.5
v -9 3 0.5
v -9 4 0.5
v -9 5 0.5
v -9 16 0.5
v -9 20 0.5
v -9 21 0.5
v -9 26 0.5
v -8 13 0.5
v -8 14 0.5
v -8 19 0.5
v -8 24 0.5
v -7 3 0.5
v -7 5 0.5
v -7 7 0.5
v -7 8 0.5
v -7 11 0.5
v -7 13 0.5
v -7 16 0.5
v -7 17 0.5
v -6 6 0.5
v -6 7 0.5
v -6 8 0.5
v -6 11 0.5
v -6 13 0.5
v -6 18 0.5
v -6 19 0.5
v -6 24 0.5
v -5 2 0.5
v -5 3 0.5
v -5 19 0.5
v -5 25 0.5
v -4 16 0.5
v -4 17 0.5
v -3 3 0.5
v -3 5 0.5
v -3 6 0.5
v -3 7 0.5
v -3 12 0.5
v -3 13 0.5
v -3 18 0.5
v -3 25 0.5
v -2 1 0.5
v -2 7 0.5
v -2 13 0.5
v -2 24 0.5
v -2 26 0.5
v -1 1 0.5
v -1 7 0.5
v -1 8 0.5
v -1 11 0.5
v -1 12 0.5
v -1 13 0.5
v -1 24 0.5
v 0 8 0.5
v 0 9 0.5
v 0 10 0.5
v 0 11 0.5
v 0 21 0.5
v 0 22 0.5
v 1 3 0.5
v 1 4 0.5
v 1 9 0.5
v 1 10 0.5
v 1 14 0.5
v 1 15 0.5
v 1 16 0.5
v 1 17 0.5
v 1 21 0.5
v 5 20 0.5
v 5 21 0.5
v 6 3 0.5
v 6 4 0.5
v 6 6 0.5
v 6 8 0.5
v 6 12 0.5
v 6 16 0.5
v 6 17 0.5
v 6 20 0.5
v 6 21 0.5
v 6 22 0.5
v 8 10 0.5
v 8 12 0.5
v 10 10 0.5
v 10 12 0.5
v 11 16 0.5
v 11 17 0.5
v 11 21 0.5
v 11 22 0.5
v 12 3 0.5
v 12 4 0.5
v 12 6 0.5
v 12 8 0.5
v 12 12 0.5
v 15 20 0.5
v 15 21 0.5
v 16 3 0.5
v 16 4 0.5
v 16 14 0.5
v 16 15 0.5
v 16 16 0.5
v 16 17 0.5
v 16 20 0.5
v 16 21 0.5
v 17 21 0.5
v 17 22 0.5
v 18 1 0.5
v 18 7 0.5
v 18 13 0.5
v 18 24 0.5
v 18 26 0.5
v 19 1 0.5
v 19 7 0.5
v 19 13 0.5
v 19 29 0.5
v 20 0 0.5
v 20 30 0.5
v -20 0 -1.5
v -20 30 -1.5
v 20 0 -1.5
v 20 30 -1.5
v -20 0 0.5
v 20 0 0.5
v -20 0 -1.5
v 20 0 -1.5
v -6 6 1.5
v -3 6 1.5
v -6 6 0.5
v -3 6 0.5
v -3 7 1.5
v -1 7 1.5
v -3 7 0.5
v -2 7 0.5
v -1 7 0.5
v -16 8 1.5
v -6 8 1.5
v -1 8 1.5
v 0 8 1.5
v -16 8 0.5
v -7 8 0.5
v -6 8 0.5
v -1 8 0.5
v 0 8 0.5
v 0 9 1.5
v 1 9 1.5
v 0 9 0.5
v 1 9 0.5
v 0 10 1.5
v 1 10 1.5
v 0 10 0.5
v 1 10 0.5
v -16 11 1.5
v -6 11 1.5
v -1 11 1.5
v 0 11 1.5
v -16 11 0.5
v -7 11 0.5
v -6 11 0.5
v -1 11 0.5
v 0 11 0.5
v -3 12 1.5
v -1 12 1.5
v -3 12 0.5
v -1 12 0.5
v -6 13 1.5
v -3 13 1.5
v -6 13 0.5
v -3 13 0.5
v -20 30 0.5
v 20 30 0.5
v -20 30 -1.5
v 20 30 -1.5

# faces
f 3/7/1 2/7/1 1/7/1
f 4/7/1 2/7/1 3/7/1
f 7/5/1 6/5/1 5/5/1
f 8/5/1 6/5/1 7/5/1
f 11/5/1 10/5/1 9/5/1
f 12/5/1 11/5/1 9/5/1
f 13/5/1 11/5/1 12/5/1
f 16/5/1 15/5/1 14/5/1
f 17/5/1 15/5/1 16/5/1
f 18/5/2 19/5/2 20/5/2
f 20/5/2 19/5/2 21/5/2
f 22/5/2 23/5/2 24/5/2
f 24/5/2 23/5/2 25/5/2
f 26/5/2 27/5/2 28/5/2
f 28/5/2 27/5/2 29/5/2
f 30/5/2 31/5/2 32/5/2
f 32/5/2 31/5/2 33/5/2
f 34/5/2 35/5/2 36/5/2
f 36/5/2 35/5/2 37/5/2
f 38/5/2 39/5/2 40/5/2
f 40/5/2 39/5/2 41/5/2
f 42/5/2 43/5/2 44/5/2
f 44/5/2 43/5/2 45/5/2
f 46/7/2 47/7/2 48/7/2
f 48/7/2 47/7/2 49/7/2
f 53/5/3 51/5/3 50/5/3
f 54/5/3 51/5/3 53/5/3
f 56/5/3 53/5/3 52/5/3
f 56/5/3 55/5/3 54/5/3
f 56/5/3 54/5/3 53/5/3
f 57/5/3 55/5/3 56/5/3
f 58/5/3 55/5/3 57/5/3
f 59/5/3 55/5/3 58/5/3
f 60/5/3 58/5/3 57/5/3
f 61/5/3 58/5/3 60/5/3
f 62/5/3 58/5/3 61/5/3
f 63/5/3 58/5/3 62/5/3
f 64/5/3 62/5/3 61/5/3
f 65/5/3 62/5/3 64/5/3
f 66/5/3 62/5/3 65/5/3
f 67/5/3 62/5/3 66/5/3
f 68/5/3 66/5/3 65/5/3
f 69/5/3 66/5/3 68/5/3
f 72/7/3 71/7/3 70/7/3
f 73/7/3 71/7/3 72/7/3
f 74/6/3 73/6/3 72/6/3
f 75/6/3 73/6/3 74/6/3
f 76/6/3 74/6/3 72/6/3
f 77/6/3 74/6/3 76/6/3
f 78/6/3 73/6/3 75/6/3
f 79/6/3 73/6/3 78/6/3
f 80/6/3 73/6/3 79/6/3
f 81/6/3 73/6/3 80/6/3
f 82/5/3 81/5/3 80/5/3
f 83/6/3 73/6/3 81/6/3
f 83/5/3 81/5/3 82/5/3
f 84/6/3 74/6/3 77/6/3
f 84/9/3 75/9/3 74/9/3
f 85/6/3 78/6/3 75/6/3
f 85/9/3 75/9/3 84/9/3
f 86/6/3 80/6/3 79/6/3
f 87/6/3 80/6/3 86/6/3
f 88/6/3 83/6/3 82/6/3
f 88/5/3 82/5/3 80/5/3
f 89/6/3 83/6/3 88/6/3
f 90/6/3 83/6/3 89/6/3
f 91/6/3 83/6/3 90/6/3
f 92/6/3 84/6/3 77/6/3
f 92/6/3 85/6/3 84/6/3
f 93/6/3 78/6/3 85/6/3
f 93/6/3 85/6/3 92/6/3
f 94/6/3 80/6/3 87/6/3
f 94/5/3 88/5/3 80/5/3
f 94/5/3 89/5/3 88/5/3
f 95/6/3 90/6/3 89/6/3
f 95/5/3 89/5/3 94/5/3
f 96/5/3 91/5/3 90/5/3
f 96/6/3 90/6/3 95/6/3
f 97/5/3 91/5/3 96/5/3
f 98/6/3 83/6/3 91/6/3
f 98/5/3 91/5/3 97/5/3
f 99/6/3 73/6/3 83/6/3
f 99/6/3 83/6/3 98/6/3
f 100/6/3 76/6/3 72/6/3
f 100/9/3 77/9/3 76/9/3
f 101/6/3 92/6/3 77/6/3
f 101/9/3 77/9/3 100/9/3
f 102/6/3 97/6/3 96/6/3
f 102/6/3 95/6/3 94/6/3
f 102/6/3 96/6/3 95/6/3
f 103/6/3 97/6/3 102/6/3
f 104/6/3 100/6/3 72/6/3
f 104/6/3 101/6/3 100/6/3
f 105/6/3 92/6/3 101/6/3
f 105/6/3 101/6/3 104/6/3
f 106/9/3 93/9/3 92/9/3
f 106/6/3 92/6/3 105/6/3
f 107/6/3 78/6/3 93/6/3
f 107/9/3 93/9/3 106/9/3
f 108/5/3 103/5/3 102/5/3
f 108/6/3 102/6/3 94/6/3
f 109/6/3 97/6/3 103/6/3
f 109/5/3 103/5/3 108/5/3
f 110/5/3 98/5/3 97/5/3
f 110/6/3 97/6/3 109/6/3
f 110/5/3 99/5/3 98/5/3
f 111/6/3 73/6/3 99/6/3
f 111/5/3 99/5/3 110/5/3
f 112/5/3 87/5/3 86/5/3
f 112/6/3 86/6/3 79/6/3
f 113/6/3 109/6/3 108/6/3
f 113/5/3 87/5/3 112/5/3
f 113/6/3 110/6/3 109/6/3
f 113/6/3 94/6/3 87/6/3
f 113/6/3 108/6/3 94/6/3
f 113/6/3 111/6/3 110/6/3
f 114/6/3 111/6/3 113/6/3
f 115/6/3 111/6/3 114/6/3
f 116/6/3 106/6/3 105/6/3
f 116/9/3 105/9/3 104/9/3
f 116/6/3 107/6/3 106/6/3
f 117/6/3 78/6/3 107/6/3
f 117/6/3 107/6/3 116/6/3
f 118/6/3 78/6/3 117/6/3
f 119/6/3 78/6/3 118/6/3
f 120/6/3 112/6/3 79/6/3
f 120/6/3 114/6/3 113/6/3
f 120/6/3 113/6/3 112/6/3
f 121/6/3 114/6/3 120/6/3
f 122/6/3 114/6/3 121/6/3
f 123/6/3 114/6/3 122/6/3
f 124/6/3 118/6/3 117/6/3
f 125/4/3 119/4/3 118/4/3
f 125/6/3 118/6/3 124/6/3
f 126/4/3 119/4/3 125/4/3
f 127/4/3 121/4/3 120/4/3
f 128/6/3 122/6/3 121/6/3
f 128/4/3 121/4/3 127/4/3
f 129/6/3 114/6/3 123/6/3
f 130/5/3 115/5/3 114/5/3
f 130/6/3 114/6/3 129/6/3
f 131/6/3 111/6/3 115/6/3
f 131/5/3 115/5/3 130/5/3
f 132/6/3 104/6/3 72/6/3
f 132/9/3 116/9/3 104/9/3
f 132/9/3 117/9/3 116/9/3
f 133/9/3 117/9/3 132/9/3
f 134/5/3 130/5/3 129/5/3
f 134/6/3 131/6/3 130/6/3
f 135/6/3 111/6/3 131/6/3
f 135/6/3 131/6/3 134/6/3
f 136/6/3 122/6/3 128/6/3
f 136/5/3 123/5/3 122/5/3
f 137/6/3 129/6/3 123/6/3
f 137/5/3 123/5/3 136/5/3
f 138/9/3 117/9/3 133/9/3
f 138/6/3 133/6/3 132/6/3
f 139/6/3 124/6/3 117/6/3
f 139/9/3 117/9/3 138/9/3
f 140/6/3 124/6/3 139/6/3
f 143/6/3 136/6/3 128/6/3
f 143/6/3 137/6/3 136/6/3
f 144/6/3 129/6/3 137/6/3
f 144/5/3 134/5/3 129/5/3
f 144/6/3 137/6/3 143/6/3
f 144/5/3 135/5/3 134/5/3
f 145/6/3 111/6/3 135/6/3
f 145/5/3 135/5/3 144/5/3
f 146/7/3 72/7/3 70/7/3
f 146/6/3 138/6/3 132/6/3
f 146/6/3 141/6/3 140/6/3
f 146/6/3 132/6/3 72/6/3
f 146/6/3 140/6/3 139/6/3
f 146/6/3 139/6/3 138/6/3
f 147/6/3 141/6/3 146/6/3
f 148/6/3 145/6/3 144/6/3
f 148/2/3 143/2/3 142/2/3
f 148/6/3 144/6/3 143/6/3
f 149/6/3 145/6/3 148/6/3
f 150/6/3 111/6/3 145/6/3
f 150/6/3 145/6/3 149/6/3
f 150/6/3 73/6/3 111/6/3
f 151/4/3 147/4/3 146/4/3
f 151/7/3 146/7/3 70/7/3
f 152/4/3 147/4/3 151/4/3
f 155/2/3 148/2/3 142/2/3
f 156/4/3 149/4/3 148/4/3
f 156/2/3 148/2/3 155/2/3
f 157/1/3 150/1/3 149/1/3
f 157/4/3 149/4/3 156/4/3
f 158/2/3 153/2/3 152/2/3
f 158/2/3 152/2/3 151/2/3
f 161/2/3 155/2/3 154/2/3
f 161/2/3 156/2/3 155/2/3
f 161/2/3 157/2/3 156/2/3
f 162/2/3 157/2/3 161/2/3
f 163/2/3 157/2/3 162/2/3
f 164/2/3 159/2/3 158/2/3
f 164/2/3 158/2/3 151/2/3
f 165/2/3 159/2/3 164/2/3
f 166/2/3 159/2/3 165/2/3
f 167/2/3 161/2/3 160/2/3
f 167/2/3 162/2/3 161/2/3
f 168/2/3 162/2/3 167/2/3
f 169/2/3 162/2/3 168/2/3
f 170/2/3 162/2/3 169/2/3
f 171/2/3 162/2/3 170/2/3
f 172/1/3 163/1/3 162/1/3
f 172/2/3 162/2/3 171/2/3
f 173/9/3 172/9/3 171/9/3
f 174/1/3 163/1/3 172/1/3
f 174/9/3 172/9/3 173/9/3
f 175/6/3 165/6/3 164/6/3
f 175/2/3 164/2/3 151/2/3
f 176/8/3 166/8/3 165/8/3
f 176/6/3 165/6/3 175/6/3
f 176/8/3 167/8/3 166/8/3
f 176/8/3 168/8/3 167/8/3
f 177/8/3 168/8/3 176/8/3
f 178/8/3 168/8/3 177/8/3
f 179/8/3 168/8/3 178/8/3
f 180/3/3 171/3/3 170/3/3
f 180/2/3 170/2/3 169/2/3
f 181/9/3 173/9/3 171/9/3
f 181/3/3 171/3/3 180/3/3
f 182/6/3 174/6/3 173/6/3
f 182/9/3 173/9/3 181/9/3
f 183/1/3 163/1/3 174/1/3
f 183/6/3 174/6/3 182/6/3
f 184/2/3 157/2/3 163/2/3
f 184/1/3 163/1/3 183/1/3
f 185/9/3 179/9/3 178/9/3
f 186/8/3 168/8/3 179/8/3
f 186/9/3 179/9/3 185/9/3
f 187/9/3 185/9/3 178/9/3
f 187/8/3 186/8/3 185/8/3
f 188/8/3 168/8/3 186/8/3
f 188/8/3 186/8/3 187/8/3
f 189/2/3 183/2/3 182/2/3
f 189/2/3 182/2/3 181/2/3
f 189/2/3 181/2/3 180/2/3
f 189/2/3 184/2/3 183/2/3
f 189/2/3 180/2/3 169/2/3
f 190/2/3 184/2/3 189/2/3
f 191/2/3 184/2/3 190/2/3
f 192/2/3 157/2/3 184/2/3
f 192/2/3 184/2/3 191/2/3
f 193/2/3 175/2/3 151/2/3
f 193/5/3 177/5/3 176/5/3
f 193/5/3 176/5/3 175/5/3
f 194/5/3 177/5/3 193/5/3
f 195/8/3 178/8/3 177/8/3
f 195/5/3 177/5/3 194/5/3
f 196/9/3 187/9/3 178/9/3
f 196/8/3 178/8/3 195/8/3
f 196/9/3 188/9/3 187/9/3
f 197/8/3 168/8/3 188/8/3
f 197/9/3 188/9/3 196/9/3
f 198/9/3 191/9/3 190/9/3
f 199/1/3 192/1/3 191/1/3
f 199/9/3 191/9/3 198/9/3
f 200/2/3 193/2/3 151/2/3
f 200/6/3 194/6/3 193/6/3
f 201/8/3 196/8/3 195/8/3
f 201/6/3 194/6/3 200/6/3
f 201/8/3 195/8/3 194/8/3
f 201/8/3 197/8/3 196/8/3
f 202/8/3 168/8/3 197/8/3
f 202/8/3 197/8/3 201/8/3
f 202/6/3 169/6/3 168/6/3
f 203/2/3 189/2/3 169/2/3
f 203/6/3 169/6/3 202/6/3
f 204/3/3 190/3/3 189/3/3
f 204/2/3 189/2/3 203/2/3
f 205/9/3 198/9/3 190/9/3
f 205/3/3 190/3/3 204/3/3
f 206/6/3 199/6/3 198/6/3
f 206/9/3 198/9/3 205/9/3
f 207/1/3 192/1/3 199/1/3
f 207/6/3 199/6/3 206/6/3
f 208/2/3 202/2/3 201/2/3
f 208/1/3 192/1/3 207/1/3
f 208/2/3 207/2/3 206/2/3
f 208/2/3 203/2/3 202/2/3
f 208/2/3 201/2/3 200/2/3
f 208/2/3 204/2/3 203/2/3
f 208/2/3 206/2/3 205/2/3
f 208/2/3 205/2/3 204/2/3
f 209/2/3 157/2/3 192/2/3
f 209/1/3 192/1/3 208/1/3
f 210/2/3 200/2/3 151/2/3
f 210/7/3 151/7/3 70/7/3
f 210/2/3 209/2/3 208/2/3
f 210/2/3 208/2/3 200/2/3
f 211/2/3 209/2/3 210/2/3
f 212/2/3 209/2/3 211/2/3
f 213/2/3 157/2/3 209/2/3
f 213/2/3 209/2/3 212/2/3
f 213/1/3 150/1/3 157/1/3
f 214/6/3 73/6/3 150/6/3
f 214/1/3 150/1/3 213/1/3
f 215/6/3 211/6/3 210/6/3
f 215/7/3 210/7/3 70/7/3
f 216/2/3 212/2/3 211/2/3
f 216/6/3 211/6/3 215/6/3
f 217/6/3 213/6/3 212/6/3
f 217/2/3 212/2/3 216/2/3
f 217/6/3 214/6/3 213/6/3
f 218/7/3 71/7/3 73/7/3
f 218/6/3 214/6/3 217/6/3
f 218/6/3 73/6/3 214/6/3
f 219/7/3 215/7/3 70/7/3
f 219/7/3 217/7/3 216/7/3
f 219/7/3 218/7/3 217/7/3
f 219/7/3 216/7/3 215/7/3
f 220/7/3 71/7/3 218/7/3
f 220/7/3 218/7/3 219/7/3
f 221/7/4 222/7/4 223/7/4
f 223/7/4 222/7/4 224/7/4
f 227/7/5 226/7/5 225/7/5
f 228/7/5 226/7/5 227/7/5
f 231/5/5 230/5/5 229/5/5
f 232/5/5 230/5/5 231/5/5
f 235/5/5 234/5/5 233/5/5
f 236/5/5 234/5/5 235/5/5
f 237/5/5 234/5/5 236/5/5
f 242/5/5 239/5/5 238/5/5
f 243/5/5 239/5/5 242/5/5
f 244/5/5 239/5/5 243/5/5
f 245/5/5 241/5/5 240/5/5
f 246/5/5 241/5/5 245/5/5
f 249/5/5 248/5/5 247/5/5
f 250/5/5 248/5/5 249/5/5
f 251/5/6 252/5/6 253/5/6
f 253/5/6 252/5/6 254/5/6
f 255/5/6 256/5/6 259/5/6
f 259/5/6 256/5/6 260/5/6
f 260/5/6 256/5/6 261/5/6
f 257/5/6 258/5/6 262/5/6
f 262/5/6 258/5/6 263/5/6
f 264/5/6 265/5/6 266/5/6
f 266/5/6 265/5/6 267/5/6
f 268/5/6 269/5/6 270/5/6
f 270/5/6 269/5/6 271/5/6
f 272/7/6 273/7/6 274/7/6
f 274/7/6 273/7/6 275/7/6
