# MagicaVoxel @ ephtracy

# material
mtllib Advert5.mtl
usemtl palette

# mesh name
g advert5_mesh

# normals
vn -1 0 0
vn 1 0 0
vn 0 0 1
vn 0 0 -1
vn 0 -1 0
vn 0 1 0

# texcoords
vt 0.751953 0.5
vt 0.841797 0.5
vt 0.958984 0.5
vt 0.986328 0.5
vt 0.990234 0.5

# verts
v -20 0 0.5
v -20 0 -1.5
v -20 30 0.5
v -20 30 -1.5
v -15 13 1.5
v -15 13 0.5
v -15 17 1.5
v -15 17 0.5
v -14 12 1.5
v -14 12 0.5
v -14 13 1.5
v -14 13 0.5
v -13 4 1.5
v -13 4 0.5
v -13 5 1.5
v -13 5 0.5
v -13 12 1.5
v -13 12 0.5
v -13 17 1.5
v -13 17 0.5
v -13 29 1.5
v -13 29 0.5
v -6 17 1.5
v -6 17 0.5
v -6 29 1.5
v -6 29 0.5
v -5 11 1.5
v -5 11 0.5
v -5 13 1.5
v -5 13 0.5
v -5 14 1.5
v -5 14 0.5
v -5 15 1.5
v -5 15 0.5
v -5 16 1.5
v -5 16 0.5
v -5 17 1.5
v -5 17 0.5
v 2 4 1.5
v 2 4 0.5
v 2 7 0.5
v 2 8 0.5
v 2 11 1.5
v 2 11 0.5
v 20 0 0.5
v 20 0 -1.5
v 20 30 0.5
v 20 30 -1.5
v -15 13 1.5
v -15 17 1.5
v -14 12 1.5
v -14 13 1.5
v -13 4 1.5
v -13 5 1.5
v -13 12 1.5
v -13 17 1.5
v -13 29 1.5
v -12 6 1.5
v -12 9 1.5
v -9 6 1.5
v -9 9 1.5
v -8 13 1.5
v -8 14 1.5
v -8 15 1.5
v -8 16 1.5
v -6 17 1.5
v -6 29 1.5
v -5 11 1.5
v -5 13 1.5
v -5 14 1.5
v -5 15 1.5
v -5 16 1.5
v -5 17 1.5
v -1 5 1.5
v -1 8 1.5
v 0 8 1.5
v 0 9 1.5
v 1 9 1.5
v 1 11 1.5
v 2 4 1.5
v 2 11 1.5
v -20 0 0.5
v -20 30 0.5
v -19 1 0.5
v -19 29 0.5
v -15 13 0.5
v -15 17 0.5
v -14 12 0.5
v -14 13 0.5
v -13 4 0.5
v -13 5 0.5
v -13 12 0.5
v -13 17 0.5
v -13 29 0.5
v -6 17 0.5
v -6 29 0.5
v -5 11 0.5
v -5 13 0.5
v -5 14 0.5
v -5 15 0.5
v -5 16 0.5
v -5 17 0.5
v -3 13 0.5
v -3 16 0.5
v -2 11 0.5
v -2 13 0.5
v -2 16 0.5
v -2 29 0.5
v 1 11 0.5
v 2 4 0.5
v 2 7 0.5
v 2 8 0.5
v 2 11 0.5
v 2 12 0.5
v 2 13 0.5
v 2 14 0.5
v 2 15 0.5
v 3 16 0.5
v 3 29 0.5
v 4 12 0.5
v 4 13 0.5
v 4 14 0.5
v 4 15 0.5
v 4 16 0.5
v 7 8 0.5
v 7 9 0.5
v 7 18 0.5
v 7 25 0.5
v 8 9 0.5
v 8 10 0.5
v 8 21 0.5
v 8 25 0.5
v 9 10 0.5
v 9 12 0.5
v 9 13 0.5
v 9 17 0.5
v 10 7 0.5
v 10 12 0.5
v 10 21 0.5
v 10 25 0.5
v 11 11 0.5
v 11 12 0.5
v 12 3 0.5
v 12 4 0.5
v 12 6 0.5
v 12 8 0.5
v 12 9 0.5
v 12 10 0.5
v 13 21 0.5
v 13 25 0.5
v 14 4 0.5
v 14 5 0.5
v 14 13 0.5
v 14 17 0.5
v 15 13 0.5
v 15 18 0.5
v 15 21 0.5
v 15 27 0.5
v 16 3 0.5
v 16 4 0.5
v 16 6 0.5
v 16 8 0.5
v 17 4 0.5
v 17 5 0.5
v 17 9 0.5
v 17 10 0.5
v 17 11 0.5
v 17 12 0.5
v 17 13 0.5
v 17 27 0.5
v 19 1 0.5
v 19 29 0.5
v 20 0 0.5
v 20 30 0.5
v -20 0 -1.5
v -20 30 -1.5
v 20 0 -1.5
v 20 30 -1.5
v -20 0 0.5
v 20 0 0.5
v -20 0 -1.5
v 20 0 -1.5
v -13 4 1.5
v 2 4 1.5
v -13 4 0.5
v 2 4 0.5
v -14 12 1.5
v -13 12 1.5
v -14 12 0.5
v -13 12 0.5
v -15 13 1.5
v -14 13 1.5
v -15 13 0.5
v -14 13 0.5
v -5 11 1.5
v 1 11 1.5
v 2 11 1.5
v -5 11 0.5
v -2 11 0.5
v 1 11 0.5
v 2 11 0.5
v -15 17 1.5
v -13 17 1.5
v -6 17 1.5
v -5 17 1.5
v -15 17 0.5
v -13 17 0.5
v -6 17 0.5
v -5 17 0.5
v -13 29 1.5
v -6 29 1.5
v -13 29 0.5
v -6 29 0.5
v -20 30 0.5
v 20 30 0.5
v -20 30 -1.5
v 20 30 -1.5

# faces
f 3/4/1 2/4/1 1/4/1
f 4/4/1 2/4/1 3/4/1
f 7/2/1 6/2/1 5/2/1
f 8/2/1 6/2/1 7/2/1
f 11/2/1 10/2/1 9/2/1
f 12/2/1 10/2/1 11/2/1
f 15/3/1 14/3/1 13/3/1
f 16/3/1 14/3/1 15/3/1
f 17/2/1 16/2/1 15/2/1
f 18/2/1 16/2/1 17/2/1
f 21/1/1 20/1/1 19/1/1
f 22/1/1 20/1/1 21/1/1
f 23/1/2 24/1/2 25/1/2
f 25/1/2 24/1/2 26/1/2
f 27/2/2 28/2/2 29/2/2
f 29/2/2 28/2/2 30/2/2
f 29/3/2 30/3/2 31/3/2
f 31/3/2 30/3/2 32/3/2
f 31/2/2 32/2/2 33/2/2
f 33/2/2 32/2/2 34/2/2
f 33/3/2 34/3/2 35/3/2
f 35/3/2 34/3/2 36/3/2
f 35/2/2 36/2/2 37/2/2
f 37/2/2 36/2/2 38/2/2
f 39/3/2 40/3/2 41/3/2
f 39/3/2 41/3/2 42/3/2
f 39/3/2 42/3/2 43/3/2
f 43/3/2 42/3/2 44/3/2
f 45/4/2 46/4/2 47/4/2
f 47/4/2 46/4/2 48/4/2
f 52/2/3 50/2/3 49/2/3
f 55/2/3 52/2/3 51/2/3
f 56/2/3 50/2/3 52/2/3
f 56/2/3 52/2/3 55/2/3
f 58/2/3 55/2/3 54/2/3
f 58/2/3 56/2/3 55/2/3
f 59/2/3 56/2/3 58/2/3
f 60/2/3 58/2/3 54/2/3
f 60/3/3 59/3/3 58/3/3
f 61/2/3 56/2/3 59/2/3
f 61/3/3 59/3/3 60/3/3
f 62/2/3 61/2/3 60/2/3
f 62/2/3 56/2/3 61/2/3
f 63/2/3 56/2/3 62/2/3
f 64/2/3 56/2/3 63/2/3
f 65/2/3 56/2/3 64/2/3
f 66/1/3 57/1/3 56/1/3
f 66/2/3 56/2/3 65/2/3
f 67/1/3 57/1/3 66/1/3
f 68/2/3 62/2/3 60/2/3
f 69/3/3 63/3/3 62/3/3
f 69/2/3 62/2/3 68/2/3
f 70/2/3 64/2/3 63/2/3
f 70/3/3 63/3/3 69/3/3
f 71/3/3 65/3/3 64/3/3
f 71/2/3 64/2/3 70/2/3
f 72/2/3 66/2/3 65/2/3
f 72/3/3 65/3/3 71/3/3
f 73/2/3 66/2/3 72/2/3
f 74/3/3 54/3/3 53/3/3
f 74/2/3 68/2/3 60/2/3
f 74/2/3 60/2/3 54/2/3
f 75/2/3 68/2/3 74/2/3
f 76/3/3 75/3/3 74/3/3
f 76/2/3 68/2/3 75/2/3
f 77/2/3 68/2/3 76/2/3
f 78/3/3 77/3/3 76/3/3
f 78/2/3 68/2/3 77/2/3
f 79/2/3 68/2/3 78/2/3
f 80/3/3 74/3/3 53/3/3
f 80/3/3 76/3/3 74/3/3
f 80/3/3 79/3/3 78/3/3
f 80/3/3 78/3/3 76/3/3
f 81/3/3 79/3/3 80/3/3
f 84/4/3 83/4/3 82/4/3
f 85/4/3 83/4/3 84/4/3
f 86/5/3 85/5/3 84/5/3
f 87/5/3 85/5/3 86/5/3
f 88/5/3 86/5/3 84/5/3
f 89/5/3 86/5/3 88/5/3
f 90/5/3 88/5/3 84/5/3
f 91/5/3 88/5/3 90/5/3
f 92/5/3 88/5/3 91/5/3
f 93/5/3 85/5/3 87/5/3
f 94/4/3 83/4/3 85/4/3
f 94/5/3 85/5/3 93/5/3
f 96/4/3 83/4/3 94/4/3
f 102/5/3 96/5/3 95/5/3
f 103/5/3 101/5/3 100/5/3
f 103/5/3 102/5/3 101/5/3
f 103/5/3 98/5/3 97/5/3
f 103/5/3 99/5/3 98/5/3
f 103/5/3 100/5/3 99/5/3
f 104/5/3 102/5/3 103/5/3
f 105/5/3 103/5/3 97/5/3
f 106/2/3 104/2/3 103/2/3
f 106/5/3 103/5/3 105/5/3
f 107/5/3 102/5/3 104/5/3
f 107/2/3 104/2/3 106/2/3
f 108/4/3 83/4/3 96/4/3
f 108/5/3 102/5/3 107/5/3
f 108/5/3 96/5/3 102/5/3
f 109/2/3 107/2/3 106/2/3
f 109/2/3 106/2/3 105/2/3
f 110/5/3 90/5/3 84/5/3
f 113/2/3 107/2/3 109/2/3
f 114/2/3 107/2/3 113/2/3
f 115/2/3 107/2/3 114/2/3
f 116/2/3 107/2/3 115/2/3
f 117/2/3 107/2/3 116/2/3
f 118/1/3 108/1/3 107/1/3
f 118/2/3 107/2/3 117/2/3
f 119/4/3 83/4/3 108/4/3
f 119/1/3 108/1/3 118/1/3
f 120/2/3 113/2/3 112/2/3
f 120/2/3 114/2/3 113/2/3
f 120/3/3 115/3/3 114/3/3
f 121/2/3 116/2/3 115/2/3
f 121/3/3 115/3/3 120/3/3
f 122/3/3 117/3/3 116/3/3
f 122/2/3 116/2/3 121/2/3
f 123/2/3 118/2/3 117/2/3
f 123/3/3 117/3/3 122/3/3
f 124/5/3 119/5/3 118/5/3
f 124/2/3 118/2/3 123/2/3
f 125/3/3 112/3/3 111/3/3
f 125/2/3 120/2/3 112/2/3
f 126/2/3 120/2/3 125/2/3
f 127/5/3 119/5/3 124/5/3
f 127/5/3 122/5/3 121/5/3
f 127/5/3 121/5/3 120/5/3
f 127/5/3 123/5/3 122/5/3
f 127/5/3 124/5/3 123/5/3
f 128/5/3 119/5/3 127/5/3
f 129/2/3 120/2/3 126/2/3
f 129/3/3 126/3/3 125/3/3
f 130/2/3 120/2/3 129/2/3
f 131/3/3 128/3/3 127/3/3
f 132/5/3 119/5/3 128/5/3
f 132/3/3 128/3/3 131/3/3
f 133/2/3 120/2/3 130/2/3
f 133/3/3 130/3/3 129/3/3
f 134/5/3 127/5/3 120/5/3
f 134/2/3 120/2/3 133/2/3
f 135/5/3 127/5/3 134/5/3
f 136/5/3 127/5/3 135/5/3
f 137/3/3 125/3/3 111/3/3
f 137/5/3 111/5/3 110/5/3
f 137/3/3 133/3/3 129/3/3
f 137/3/3 129/3/3 125/3/3
f 137/3/3 134/3/3 133/3/3
f 138/5/3 135/5/3 134/5/3
f 138/3/3 134/3/3 137/3/3
f 139/3/3 131/3/3 127/3/3
f 139/5/3 132/5/3 131/5/3
f 140/5/3 119/5/3 132/5/3
f 140/5/3 132/5/3 139/5/3
f 141/5/3 138/5/3 137/5/3
f 142/5/3 135/5/3 138/5/3
f 142/5/3 138/5/3 141/5/3
f 143/5/3 141/5/3 137/5/3
f 143/5/3 110/5/3 84/5/3
f 143/5/3 137/5/3 110/5/3
f 144/5/3 141/5/3 143/5/3
f 145/5/3 141/5/3 144/5/3
f 146/5/3 141/5/3 145/5/3
f 147/5/3 141/5/3 146/5/3
f 148/5/3 141/5/3 147/5/3
f 149/3/3 139/3/3 127/3/3
f 149/3/3 140/3/3 139/3/3
f 150/5/3 119/5/3 140/5/3
f 150/3/3 140/3/3 149/3/3
f 151/3/3 144/3/3 143/3/3
f 151/5/3 145/5/3 144/5/3
f 152/5/3 145/5/3 151/5/3
f 153/5/3 135/5/3 142/5/3
f 153/3/3 136/3/3 135/3/3
f 154/5/3 127/5/3 136/5/3
f 154/3/3 136/3/3 153/3/3
f 155/5/3 153/5/3 142/5/3
f 155/5/3 154/5/3 153/5/3
f 156/5/3 127/5/3 154/5/3
f 156/5/3 154/5/3 155/5/3
f 156/3/3 149/3/3 127/3/3
f 157/5/3 150/5/3 149/5/3
f 157/3/3 149/3/3 156/3/3
f 158/5/3 119/5/3 150/5/3
f 158/5/3 150/5/3 157/5/3
f 159/3/3 152/3/3 151/3/3
f 159/3/3 151/3/3 143/3/3
f 159/5/3 143/5/3 84/5/3
f 160/3/3 152/3/3 159/3/3
f 161/5/3 145/5/3 152/5/3
f 161/3/3 146/3/3 145/3/3
f 162/5/3 147/5/3 146/5/3
f 162/3/3 146/3/3 161/3/3
f 163/3/3 152/3/3 160/3/3
f 163/5/3 160/5/3 159/5/3
f 164/5/3 161/5/3 152/5/3
f 164/3/3 152/3/3 163/3/3
f 164/5/3 162/5/3 161/5/3
f 165/5/3 147/5/3 162/5/3
f 165/5/3 162/5/3 164/5/3
f 165/3/3 148/3/3 147/3/3
f 166/5/3 141/5/3 148/5/3
f 166/3/3 148/3/3 165/3/3
f 167/3/3 142/3/3 141/3/3
f 167/5/3 141/5/3 166/5/3
f 168/5/3 155/5/3 142/5/3
f 168/3/3 142/3/3 167/3/3
f 169/3/3 158/3/3 157/3/3
f 169/5/3 155/5/3 168/5/3
f 169/3/3 157/3/3 156/3/3
f 169/3/3 156/3/3 155/3/3
f 170/5/3 119/5/3 158/5/3
f 170/3/3 158/3/3 169/3/3
f 171/4/3 84/4/3 82/4/3
f 171/5/3 164/5/3 163/5/3
f 171/5/3 170/5/3 169/5/3
f 171/5/3 163/5/3 159/5/3
f 171/5/3 168/5/3 167/5/3
f 171/5/3 159/5/3 84/5/3
f 171/5/3 165/5/3 164/5/3
f 171/5/3 167/5/3 166/5/3
f 171/5/3 169/5/3 168/5/3
f 171/5/3 166/5/3 165/5/3
f 172/5/3 119/5/3 170/5/3
f 172/5/3 170/5/3 171/5/3
f 172/4/3 83/4/3 119/4/3
f 173/4/3 171/4/3 82/4/3
f 173/4/3 172/4/3 171/4/3
f 174/4/3 83/4/3 172/4/3
f 174/4/3 172/4/3 173/4/3
f 175/4/4 176/4/4 177/4/4
f 177/4/4 176/4/4 178/4/4
f 181/4/5 180/4/5 179/4/5
f 182/4/5 180/4/5 181/4/5
f 185/3/5 184/3/5 183/3/5
f 186/3/5 184/3/5 185/3/5
f 189/2/5 188/2/5 187/2/5
f 190/2/5 188/2/5 189/2/5
f 193/2/5 192/2/5 191/2/5
f 194/2/5 192/2/5 193/2/5
f 195/2/6 196/2/6 198/2/6
f 198/2/6 196/2/6 199/2/6
f 196/3/6 197/3/6 200/3/6
f 199/2/6 196/2/6 200/2/6
f 200/3/6 197/3/6 201/3/6
f 202/2/6 203/2/6 206/2/6
f 206/2/6 203/2/6 207/2/6
f 204/2/6 205/2/6 208/2/6
f 208/2/6 205/2/6 209/2/6
f 210/1/6 211/1/6 212/1/6
f 212/1/6 211/1/6 213/1/6
f 214/4/6 215/4/6 216/4/6
f 216/4/6 215/4/6 217/4/6
