# MagicaVoxel @ ephtracy

# material
mtllib cubeboy19.mtl

# mesh name
g arm19_mesh

# normals
vn -1 0 0
vn 1 0 0
vn 0 0 1
vn 0 0 -1
vn 0 -1 0
vn 0 1 0

# texcoords
vt 0.958984 0.5
vt 0.986328 0.5
vt 0.994141 0.5

# verts
v -3.5 0 2.5
v -3.5 0 -0.5
v -3.5 3 2.5
v -3.5 3 -0.5
f -2/2/1 -3/2/1 -4/2/1
f -1/2/1 -3/2/1 -2/2/1
v 1.5 0 2.5
v 1.5 0 -0.5
v 1.5 1 1.5
v 1.5 1 0.5
v 1.5 2 1.5
v 1.5 2 0.5
v 1.5 3 2.5
v 1.5 3 -0.5
f -8/1/2 -7/1/2 -6/1/2
f -6/1/2 -7/1/2 -5/1/2
f -8/1/2 -6/1/2 -4/1/2
f -6/3/2 -5/3/2 -4/3/2
f -5/1/2 -7/1/2 -3/1/2
f -4/3/2 -5/3/2 -3/3/2
f -8/1/2 -4/1/2 -2/1/2
f -4/1/2 -3/1/2 -2/1/2
f -3/1/2 -7/1/2 -1/1/2
f -2/1/2 -3/1/2 -1/1/2
v -3.5 0 2.5
v -3.5 3 2.5
v -1.5 0 2.5
v -1.5 3 2.5
v 1.5 0 2.5
v 1.5 3 2.5
f -4/2/3 -5/2/3 -6/2/3
f -3/2/3 -5/2/3 -4/2/3
f -2/1/3 -3/1/3 -4/1/3
f -1/1/3 -3/1/3 -2/1/3
v -3.5 0 -0.5
v -3.5 3 -0.5
v -1.5 0 -0.5
v -1.5 3 -0.5
v 1.5 0 -0.5
v 1.5 3 -0.5
f -6/2/4 -5/2/4 -4/2/4
f -4/2/4 -5/2/4 -3/2/4
f -4/1/4 -3/1/4 -2/1/4
f -2/1/4 -3/1/4 -1/1/4
v -3.5 0 2.5
v -1.5 0 2.5
v 1.5 0 2.5
v -3.5 0 -0.5
v -1.5 0 -0.5
v 1.5 0 -0.5
f -3/2/5 -5/2/5 -6/2/5
f -2/1/5 -4/1/5 -5/1/5
f -2/2/5 -5/2/5 -3/2/5
f -1/1/5 -4/1/5 -2/1/5
v -3.5 3 2.5
v -1.5 3 2.5
v 1.5 3 2.5
v -3.5 3 -0.5
v -1.5 3 -0.5
v 1.5 3 -0.5
f -6/2/6 -5/2/6 -3/2/6
f -5/1/6 -4/1/6 -2/1/6
f -3/2/6 -5/2/6 -2/2/6
f -2/1/6 -4/1/6 -1/1/6
