# MagicaVoxel @ ephtracy

# material
mtllib cubeboy27.mtl

# mesh name
g arm27_mesh

# normals
vn -1 0 0
vn 1 0 0
vn 0 0 1
vn 0 0 -1
vn 0 -1 0
vn 0 1 0

# texcoords
vt 0.0214844 0.5
vt 0.986328 0.5

# verts
v -3.5 0 2.5
v -3.5 0 -0.5
v -3.5 3 2.5
v -3.5 3 -0.5
f -2/1/1 -3/1/1 -4/1/1
f -1/1/1 -3/1/1 -2/1/1
v 1.5 0 2.5
v 1.5 0 -0.5
v 1.5 3 2.5
v 1.5 3 -0.5
f -4/2/2 -3/2/2 -2/2/2
f -2/2/2 -3/2/2 -1/2/2
v -3.5 0 2.5
v -3.5 3 2.5
v -0.5 0 2.5
v -0.5 3 2.5
v 1.5 0 2.5
v 1.5 3 2.5
f -4/1/3 -5/1/3 -6/1/3
f -3/1/3 -5/1/3 -4/1/3
f -2/2/3 -3/2/3 -4/2/3
f -1/2/3 -3/2/3 -2/2/3
v -3.5 0 -0.5
v -3.5 3 -0.5
v -0.5 0 -0.5
v -0.5 3 -0.5
v 1.5 0 -0.5
v 1.5 3 -0.5
f -6/1/4 -5/1/4 -4/1/4
f -4/1/4 -5/1/4 -3/1/4
f -4/2/4 -3/2/4 -2/2/4
f -2/2/4 -3/2/4 -1/2/4
v -3.5 0 2.5
v -0.5 0 2.5
v 1.5 0 2.5
v -3.5 0 -0.5
v -0.5 0 -0.5
v 1.5 0 -0.5
f -3/1/5 -5/1/5 -6/1/5
f -2/2/5 -4/2/5 -5/2/5
f -2/1/5 -5/1/5 -3/1/5
f -1/2/5 -4/2/5 -2/2/5
v -3.5 3 2.5
v -0.5 3 2.5
v 1.5 3 2.5
v -3.5 3 -0.5
v -0.5 3 -0.5
v 1.5 3 -0.5
f -6/1/6 -5/1/6 -3/1/6
f -5/2/6 -4/2/6 -2/2/6
f -3/1/6 -5/1/6 -2/1/6
f -2/2/6 -4/2/6 -1/2/6
