# MagicaVoxel @ ephtracy

# material
mtllib axe.mtl
usemtl palette

# mesh name
g axe_mesh

# normals
vn -1 0 0
vn 1 0 0
vn 0 0 1
vn 0 0 -1
vn 0 -1 0
vn 0 1 0

# texcoords
vt 0.0605469 0.5
vt 0.857422 0.5
vt 0.974609 0.5

# verts
v -4 11 0.5
v -4 11 -0.5
v -4 14 0.5
v -4 14 -0.5
v -3 0 0.5
v -3 0 -0.5
v -3 3 0.5
v -3 3 -0.5
v -3 10 0.5
v -3 10 -0.5
v -3 11 0.5
v -3 11 -0.5
v -3 14 0.5
v -3 14 -0.5
v -3 15 0.5
v -3 15 -0.5
v -1 0 0.5
v -1 0 -0.5
v -1 3 0.5
v -1 3 -0.5
v -1 10 0.5
v -1 10 -0.5
v 4 10 0.5
v 4 10 -0.5
v 4 15 0.5
v 4 15 -0.5
v -4 11 0.5
v -4 14 0.5
v -3 0 0.5
v -3 3 0.5
v -3 10 0.5
v -3 11 0.5
v -3 14 0.5
v -3 15 0.5
v -1 0 0.5
v -1 3 0.5
v -1 10 0.5
v 3 10 0.5
v 3 15 0.5
v 4 10 0.5
v 4 15 0.5
v -4 11 -0.5
v -4 14 -0.5
v -3 0 -0.5
v -3 3 -0.5
v -3 10 -0.5
v -3 11 -0.5
v -3 14 -0.5
v -3 15 -0.5
v -1 0 -0.5
v -1 3 -0.5
v -1 10 -0.5
v 3 10 -0.5
v 3 15 -0.5
v 4 10 -0.5
v 4 15 -0.5
v -3 0 0.5
v -1 0 0.5
v -3 0 -0.5
v -1 0 -0.5
v -1 10 0.5
v 3 10 0.5
v 4 10 0.5
v -1 10 -0.5
v 3 10 -0.5
v 4 10 -0.5
v -4 11 0.5
v -3 11 0.5
v -4 11 -0.5
v -3 11 -0.5
v -4 14 0.5
v -3 14 0.5
v -4 14 -0.5
v -3 14 -0.5
v -3 15 0.5
v 3 15 0.5
v 4 15 0.5
v -3 15 -0.5
v 3 15 -0.5
v 4 15 -0.5

# faces
f 3/2/1 2/2/1 1/2/1
f 4/2/1 2/2/1 3/2/1
f 7/2/1 6/2/1 5/2/1
f 8/2/1 6/2/1 7/2/1
f 9/1/1 8/1/1 7/1/1
f 10/1/1 8/1/1 9/1/1
f 11/2/1 10/2/1 9/2/1
f 12/2/1 10/2/1 11/2/1
f 15/2/1 14/2/1 13/2/1
f 16/2/1 14/2/1 15/2/1
f 17/2/2 18/2/2 19/2/2
f 19/2/2 18/2/2 20/2/2
f 19/1/2 20/1/2 21/1/2
f 21/1/2 20/1/2 22/1/2
f 23/3/2 24/3/2 25/3/2
f 25/3/2 24/3/2 26/3/2
f 32/2/3 28/2/3 27/2/3
f 33/2/3 28/2/3 32/2/3
f 35/2/3 30/2/3 29/2/3
f 36/1/3 31/1/3 30/1/3
f 36/2/3 30/2/3 35/2/3
f 37/2/3 34/2/3 33/2/3
f 37/1/3 31/1/3 36/1/3
f 37/2/3 32/2/3 31/2/3
f 37/2/3 33/2/3 32/2/3
f 38/2/3 34/2/3 37/2/3
f 39/2/3 34/2/3 38/2/3
f 40/3/3 39/3/3 38/3/3
f 41/3/3 39/3/3 40/3/3
f 42/2/4 43/2/4 47/2/4
f 47/2/4 43/2/4 48/2/4
f 44/2/4 45/2/4 50/2/4
f 45/1/4 46/1/4 51/1/4
f 50/2/4 45/2/4 51/2/4
f 48/2/4 49/2/4 52/2/4
f 51/1/4 46/1/4 52/1/4
f 46/2/4 47/2/4 52/2/4
f 47/2/4 48/2/4 52/2/4
f 52/2/4 49/2/4 53/2/4
f 53/2/4 49/2/4 54/2/4
f 53/3/4 54/3/4 55/3/4
f 55/3/4 54/3/4 56/3/4
f 59/2/5 58/2/5 57/2/5
f 60/2/5 58/2/5 59/2/5
f 64/2/5 62/2/5 61/2/5
f 65/3/5 63/3/5 62/3/5
f 65/2/5 62/2/5 64/2/5
f 66/3/5 63/3/5 65/3/5
f 69/2/5 68/2/5 67/2/5
f 70/2/5 68/2/5 69/2/5
f 71/2/6 72/2/6 73/2/6
f 73/2/6 72/2/6 74/2/6
f 75/2/6 76/2/6 78/2/6
f 76/3/6 77/3/6 79/3/6
f 78/2/6 76/2/6 79/2/6
f 79/3/6 77/3/6 80/3/6
