# MagicaVoxel @ ephtracy

# material
mtllib cube_stop.mtl

# mesh name
g cube_stop_mesh

# normals
vn -1 0 0
vn 1 0 0
vn 0 0 1
vn 0 0 -1
vn 0 -1 0
vn 0 1 0

# texcoords
vt 0.537109 0.5
vt 0.642578 0.5
vt 0.646484 0.5
vt 0.841797 0.5
vt 0.958984 0.5
vt 0.986328 0.5
vt 0.994141 0.5

# verts
v -10.5 4 9.5
v -10.5 4 -6.5
v -10.5 21 9.5
v -10.5 21 -6.5
v -10.5 23 9.5
v -10.5 23 -6.5
f -4/3/1 -5/3/1 -6/3/1
f -3/3/1 -5/3/1 -4/3/1
f -2/1/1 -3/1/1 -4/1/1
f -1/1/1 -3/1/1 -2/1/1
v -8.5 23 7.5
v -8.5 23 -4.5
v -8.5 24 7.5
v -8.5 24 -4.5
f -2/1/1 -3/1/1 -4/1/1
f -1/1/1 -3/1/1 -2/1/1
v -6.5 0 8.5
v -6.5 0 4.5
v -6.5 0 -1.5
v -6.5 0 -5.5
v -6.5 4 8.5
v -6.5 4 4.5
v -6.5 4 -1.5
v -6.5 4 -5.5
f -4/3/1 -7/3/1 -8/3/1
f -3/3/1 -7/3/1 -4/3/1
f -2/3/1 -5/3/1 -6/3/1
f -1/3/1 -5/3/1 -2/3/1
v -4.5 24 2.5
v -4.5 24 1.5
v -4.5 25 2.5
v -4.5 25 1.5
f -2/1/1 -3/1/1 -4/1/1
f -1/1/1 -3/1/1 -2/1/1
v -0.5 21 10.5
v -0.5 21 9.5
v -0.5 21 -6.5
v -0.5 21 -7.5
v -0.5 22 10.5
v -0.5 22 9.5
v -0.5 22 -6.5
v -0.5 22 -7.5
f -4/1/1 -7/1/1 -8/1/1
f -3/1/1 -7/1/1 -4/1/1
f -2/1/1 -5/1/1 -6/1/1
f -1/1/1 -5/1/1 -2/1/1
v 2.5 8 10.5
v 2.5 8 9.5
v 2.5 8 -6.5
v 2.5 8 -7.5
v 2.5 11 10.5
v 2.5 11 9.5
v 2.5 11 -6.5
v 2.5 11 -7.5
f -4/3/1 -7/3/1 -8/3/1
f -3/3/1 -7/3/1 -4/3/1
f -2/3/1 -5/3/1 -6/3/1
f -1/3/1 -5/3/1 -2/3/1
v 7.5 5 10.5
v 7.5 5 -8.5
v 7.5 6 9.5
v 7.5 6 -7.5
v 7.5 7 8.5
v 7.5 7 5.5
v 7.5 7 3.5
v 7.5 7 2.5
v 7.5 7 0.5
v 7.5 7 -2.5
v 7.5 7 -3.5
v 7.5 7 -4.5
v 7.5 8 10.5
v 7.5 8 9.5
v 7.5 8 8.5
v 7.5 8 7.5
v 7.5 8 6.5
v 7.5 8 -0.5
v 7.5 8 -1.5
v 7.5 8 -4.5
v 7.5 8 -7.5
v 7.5 11 10.5
v 7.5 11 9.5
v 7.5 11 8.5
v 7.5 11 7.5
v 7.5 11 6.5
v 7.5 11 -4.5
v 7.5 11 -6.5
v 7.5 11 -7.5
v 7.5 12 7.5
v 7.5 12 5.5
v 7.5 12 -4.5
v 7.5 12 -5.5
v 7.5 14 7.5
v 7.5 14 5.5
v 7.5 14 4.5
v 7.5 14 3.5
v 7.5 14 2.5
v 7.5 14 1.5
v 7.5 14 -0.5
v 7.5 14 -1.5
v 7.5 14 -4.5
v 7.5 14 -5.5
v 7.5 15 8.5
v 7.5 15 5.5
v 7.5 15 4.5
v 7.5 15 1.5
v 7.5 15 0.5
v 7.5 15 -2.5
v 7.5 15 -3.5
v 7.5 15 -6.5
v 7.5 16 9.5
v 7.5 16 -7.5
v 7.5 17 10.5
v 7.5 17 -8.5
f -53/7/1 -54/7/1 -55/7/1
f -52/7/1 -54/7/1 -53/7/1
f -51/4/1 -52/4/1 -53/4/1
f -50/4/1 -52/4/1 -51/4/1
f -49/4/1 -52/4/1 -50/4/1
f -48/4/1 -52/4/1 -49/4/1
f -47/4/1 -52/4/1 -48/4/1
f -46/4/1 -52/4/1 -47/4/1
f -45/4/1 -52/4/1 -46/4/1
f -44/4/1 -52/4/1 -45/4/1
f -43/7/1 -53/7/1 -55/7/1
f -42/4/1 -51/4/1 -53/4/1
f -42/7/1 -53/7/1 -43/7/1
f -41/5/1 -50/5/1 -51/5/1
f -41/4/1 -51/4/1 -42/4/1
f -40/5/1 -50/5/1 -41/5/1
f -39/5/1 -50/5/1 -40/5/1
f -38/5/1 -46/5/1 -47/5/1
f -37/5/1 -46/5/1 -38/5/1
f -36/4/1 -52/4/1 -44/4/1
f -36/5/1 -44/5/1 -45/5/1
f -35/7/1 -54/7/1 -52/7/1
f -35/4/1 -52/4/1 -36/4/1
f -31/4/1 -39/4/1 -40/4/1
f -30/5/1 -50/5/1 -39/5/1
f -30/4/1 -39/4/1 -31/4/1
f -29/5/1 -36/5/1 -45/5/1
f -27/7/1 -54/7/1 -35/7/1
f -26/5/1 -31/5/1 -32/5/1
f -26/5/1 -30/5/1 -31/5/1
f -25/5/1 -50/5/1 -30/5/1
f -25/5/1 -30/5/1 -26/5/1
f -25/4/1 -49/4/1 -50/4/1
f -24/5/1 -28/5/1 -29/5/1
f -24/5/1 -29/5/1 -45/5/1
f -23/5/1 -28/5/1 -24/5/1
f -22/5/1 -26/5/1 -32/5/1
f -22/4/1 -25/4/1 -26/4/1
f -21/4/1 -49/4/1 -25/4/1
f -21/4/1 -25/4/1 -22/4/1
f -20/4/1 -49/4/1 -21/4/1
f -19/5/1 -48/5/1 -49/5/1
f -19/4/1 -49/4/1 -20/4/1
f -18/4/1 -47/4/1 -48/4/1
f -18/5/1 -48/5/1 -19/5/1
f -17/4/1 -47/4/1 -18/4/1
f -16/4/1 -37/4/1 -38/4/1
f -16/5/1 -38/5/1 -47/5/1
f -15/5/1 -46/5/1 -37/5/1
f -15/4/1 -37/4/1 -16/4/1
f -14/4/1 -23/4/1 -24/4/1
f -14/5/1 -24/5/1 -45/5/1
f -13/5/1 -28/5/1 -23/5/1
f -13/4/1 -23/4/1 -14/4/1
f -12/5/1 -22/5/1 -32/5/1
f -12/4/1 -32/4/1 -33/4/1
f -12/5/1 -21/5/1 -22/5/1
f -11/4/1 -20/4/1 -21/4/1
f -11/5/1 -21/5/1 -12/5/1
f -10/5/1 -19/5/1 -20/5/1
f -10/4/1 -20/4/1 -11/4/1
f -10/5/1 -17/5/1 -18/5/1
f -10/5/1 -18/5/1 -19/5/1
f -9/4/1 -47/4/1 -17/4/1
f -9/5/1 -17/5/1 -10/5/1
f -8/5/1 -16/5/1 -47/5/1
f -8/4/1 -47/4/1 -9/4/1
f -8/5/1 -15/5/1 -16/5/1
f -7/4/1 -45/4/1 -46/4/1
f -7/5/1 -15/5/1 -8/5/1
f -7/5/1 -46/5/1 -15/5/1
f -6/5/1 -14/5/1 -45/5/1
f -6/4/1 -45/4/1 -7/4/1
f -6/5/1 -13/5/1 -14/5/1
f -5/5/1 -28/5/1 -13/5/1
f -5/5/1 -13/5/1 -6/5/1
f -5/4/1 -27/4/1 -28/4/1
f -4/4/1 -9/4/1 -10/4/1
f -4/4/1 -7/4/1 -8/4/1
f -4/4/1 -5/4/1 -6/4/1
f -4/4/1 -6/4/1 -7/4/1
f -4/4/1 -12/4/1 -33/4/1
f -4/4/1 -10/4/1 -11/4/1
f -4/4/1 -8/4/1 -9/4/1
f -4/7/1 -33/7/1 -34/7/1
f -4/4/1 -11/4/1 -12/4/1
f -3/4/1 -27/4/1 -5/4/1
f -3/4/1 -5/4/1 -4/4/1
f -3/7/1 -54/7/1 -27/7/1
f -2/7/1 -4/7/1 -34/7/1
f -2/7/1 -3/7/1 -4/7/1
f -1/7/1 -54/7/1 -3/7/1
f -1/7/1 -3/7/1 -2/7/1
v -3.5 24 2.5
v -3.5 24 1.5
v -3.5 25 2.5
v -3.5 25 1.5
f -4/1/2 -3/1/2 -2/1/2
f -2/1/2 -3/1/2 -1/1/2
v -2.5 0 8.5
v -2.5 0 4.5
v -2.5 0 -1.5
v -2.5 0 -5.5
v -2.5 4 8.5
v -2.5 4 4.5
v -2.5 4 -1.5
v -2.5 4 -5.5
f -8/3/2 -7/3/2 -4/3/2
f -4/3/2 -7/3/2 -3/3/2
f -6/3/2 -5/3/2 -2/3/2
f -2/3/2 -5/3/2 -1/3/2
v 0.5 23 7.5
v 0.5 23 -4.5
v 0.5 24 7.5
v 0.5 24 -4.5
f -4/1/2 -3/1/2 -2/1/2
f -2/1/2 -3/1/2 -1/1/2
v 2.5 4 9.5
v 2.5 4 -6.5
v 2.5 8 9.5
v 2.5 8 7.5
v 2.5 8 -4.5
v 2.5 8 -6.5
v 2.5 9 4.5
v 2.5 9 -1.5
v 2.5 10 4.5
v 2.5 10 -1.5
v 2.5 11 9.5
v 2.5 11 7.5
v 2.5 11 -4.5
v 2.5 11 -6.5
v 2.5 14 7.5
v 2.5 14 4.5
v 2.5 14 -1.5
v 2.5 14 -4.5
v 2.5 15 7.5
v 2.5 15 4.5
v 2.5 15 -1.5
v 2.5 15 -4.5
v 2.5 17 5.5
v 2.5 17 4.5
v 2.5 17 -3.5
v 2.5 17 -4.5
v 2.5 18 7.5
v 2.5 18 5.5
v 2.5 18 4.5
v 2.5 18 -1.5
v 2.5 18 -3.5
v 2.5 18 -4.5
v 2.5 21 9.5
v 2.5 21 -6.5
v 2.5 22 9.5
v 2.5 22 -6.5
v 2.5 23 9.5
v 2.5 23 -6.5
f -38/3/2 -37/3/2 -36/3/2
f -36/3/2 -37/3/2 -35/3/2
f -35/3/2 -37/3/2 -34/3/2
f -34/3/2 -37/3/2 -33/3/2
f -35/3/2 -34/3/2 -32/3/2
f -32/3/2 -34/3/2 -31/3/2
f -35/3/2 -32/3/2 -30/3/2
f -31/3/2 -34/3/2 -29/3/2
f -35/3/2 -30/3/2 -27/3/2
f -30/3/2 -29/3/2 -27/3/2
f -29/3/2 -34/3/2 -26/3/2
f -27/3/2 -29/3/2 -26/3/2
f -28/3/2 -27/3/2 -24/3/2
f -26/3/2 -25/3/2 -24/3/2
f -27/3/2 -26/3/2 -24/3/2
f -24/3/2 -25/3/2 -23/3/2
f -23/3/2 -25/3/2 -22/3/2
f -22/3/2 -25/3/2 -21/3/2
f -28/3/2 -24/3/2 -20/3/2
f -24/2/2 -23/2/2 -20/2/2
f -23/3/2 -22/3/2 -19/3/2
f -20/2/2 -23/2/2 -19/2/2
f -22/2/2 -21/2/2 -18/2/2
f -19/3/2 -22/3/2 -18/3/2
f -21/3/2 -25/3/2 -17/3/2
f -18/2/2 -21/2/2 -17/2/2
f -20/7/2 -19/7/2 -16/7/2
f -19/3/2 -18/3/2 -15/3/2
f -16/7/2 -19/7/2 -15/7/2
f -18/7/2 -17/7/2 -14/7/2
f -17/3/2 -25/3/2 -13/3/2
f -14/7/2 -17/7/2 -13/7/2
f -20/7/2 -16/7/2 -12/7/2
f -28/3/2 -20/3/2 -12/3/2
f -16/5/2 -15/5/2 -11/5/2
f -12/7/2 -16/7/2 -11/7/2
f -15/3/2 -18/3/2 -10/3/2
f -11/5/2 -15/5/2 -10/5/2
f -18/7/2 -14/7/2 -9/7/2
f -10/3/2 -18/3/2 -9/3/2
f -14/5/2 -13/5/2 -8/5/2
f -9/7/2 -14/7/2 -8/7/2
f -13/3/2 -25/3/2 -7/3/2
f -8/5/2 -13/5/2 -7/5/2
f -9/3/2 -8/3/2 -6/3/2
f -11/3/2 -10/3/2 -6/3/2
f -8/3/2 -7/3/2 -6/3/2
f -28/3/2 -12/3/2 -6/3/2
f -12/3/2 -11/3/2 -6/3/2
f -10/3/2 -9/3/2 -6/3/2
f -7/3/2 -25/3/2 -5/3/2
f -6/3/2 -7/3/2 -5/3/2
f -4/1/2 -3/1/2 -2/1/2
f -2/1/2 -3/1/2 -1/1/2
v 3.5 9 4.5
v 3.5 9 -1.5
v 3.5 10 4.5
v 3.5 10 -1.5
v 3.5 21 10.5
v 3.5 21 -7.5
v 3.5 22 10.5
v 3.5 22 -7.5
f -8/6/2 -7/6/2 -6/6/2
f -6/6/2 -7/6/2 -5/6/2
f -4/1/2 -3/1/2 -2/1/2
f -2/1/2 -3/1/2 -1/1/2
v 8.5 5 10.5
v 8.5 5 -8.5
v 8.5 6 9.5
v 8.5 6 -7.5
v 8.5 7 8.5
v 8.5 7 5.5
v 8.5 7 3.5
v 8.5 7 2.5
v 8.5 7 0.5
v 8.5 7 -2.5
v 8.5 7 -3.5
v 8.5 7 -4.5
v 8.5 8 8.5
v 8.5 8 6.5
v 8.5 8 -0.5
v 8.5 8 -1.5
v 8.5 11 8.5
v 8.5 11 6.5
v 8.5 11 -4.5
v 8.5 11 -6.5
v 8.5 12 7.5
v 8.5 12 5.5
v 8.5 12 -4.5
v 8.5 12 -5.5
v 8.5 14 7.5
v 8.5 14 5.5
v 8.5 14 4.5
v 8.5 14 3.5
v 8.5 14 2.5
v 8.5 14 1.5
v 8.5 14 -0.5
v 8.5 14 -1.5
v 8.5 14 -4.5
v 8.5 14 -5.5
v 8.5 15 8.5
v 8.5 15 5.5
v 8.5 15 4.5
v 8.5 15 1.5
v 8.5 15 0.5
v 8.5 15 -2.5
v 8.5 15 -3.5
v 8.5 15 -6.5
v 8.5 16 9.5
v 8.5 16 -7.5
v 8.5 17 10.5
v 8.5 17 -8.5
f -46/7/2 -45/7/2 -44/7/2
f -44/7/2 -45/7/2 -43/7/2
f -44/4/2 -43/4/2 -42/4/2
f -42/4/2 -43/4/2 -41/4/2
f -41/4/2 -43/4/2 -40/4/2
f -40/4/2 -43/4/2 -39/4/2
f -39/4/2 -43/4/2 -38/4/2
f -38/4/2 -43/4/2 -37/4/2
f -37/4/2 -43/4/2 -36/4/2
f -36/4/2 -43/4/2 -35/4/2
f -44/4/2 -42/4/2 -34/4/2
f -42/5/2 -41/5/2 -34/5/2
f -34/5/2 -41/5/2 -33/5/2
f -38/5/2 -37/5/2 -32/5/2
f -32/5/2 -37/5/2 -31/5/2
f -44/4/2 -34/4/2 -30/4/2
f -34/4/2 -33/4/2 -30/4/2
f -33/5/2 -41/5/2 -29/5/2
f -30/4/2 -33/4/2 -29/4/2
f -35/4/2 -43/4/2 -28/4/2
f -36/5/2 -35/5/2 -28/5/2
f -28/4/2 -43/4/2 -27/4/2
f -30/5/2 -29/5/2 -26/5/2
f -29/5/2 -41/5/2 -25/5/2
f -26/5/2 -29/5/2 -25/5/2
f -41/4/2 -40/4/2 -25/4/2
f -28/5/2 -27/5/2 -24/5/2
f -36/5/2 -28/5/2 -24/5/2
f -24/5/2 -27/5/2 -23/5/2
f -30/5/2 -26/5/2 -22/5/2
f -26/4/2 -25/4/2 -22/4/2
f -25/4/2 -40/4/2 -21/4/2
f -22/4/2 -25/4/2 -21/4/2
f -21/4/2 -40/4/2 -20/4/2
f -40/5/2 -39/5/2 -19/5/2
f -20/4/2 -40/4/2 -19/4/2
f -39/4/2 -38/4/2 -18/4/2
f -19/5/2 -39/5/2 -18/5/2
f -18/4/2 -38/4/2 -17/4/2
f -32/4/2 -31/4/2 -16/4/2
f -38/5/2 -32/5/2 -16/5/2
f -31/5/2 -37/5/2 -15/5/2
f -16/4/2 -31/4/2 -15/4/2
f -24/4/2 -23/4/2 -14/4/2
f -36/5/2 -24/5/2 -14/5/2
f -23/5/2 -27/5/2 -13/5/2
f -14/4/2 -23/4/2 -13/4/2
f -30/5/2 -22/5/2 -12/5/2
f -44/4/2 -30/4/2 -12/4/2
f -22/5/2 -21/5/2 -12/5/2
f -21/4/2 -20/4/2 -11/4/2
f -12/5/2 -21/5/2 -11/5/2
f -20/5/2 -19/5/2 -10/5/2
f -11/4/2 -20/4/2 -10/4/2
f -18/5/2 -17/5/2 -10/5/2
f -19/5/2 -18/5/2 -10/5/2
f -17/4/2 -38/4/2 -9/4/2
f -10/5/2 -17/5/2 -9/5/2
f -38/5/2 -16/5/2 -8/5/2
f -9/4/2 -38/4/2 -8/4/2
f -16/5/2 -15/5/2 -8/5/2
f -37/4/2 -36/4/2 -7/4/2
f -8/5/2 -15/5/2 -7/5/2
f -15/5/2 -37/5/2 -7/5/2
f -36/5/2 -14/5/2 -6/5/2
f -7/4/2 -36/4/2 -6/4/2
f -14/5/2 -13/5/2 -6/5/2
f -27/4/2 -43/4/2 -5/4/2
f -6/5/2 -13/5/2 -5/5/2
f -13/5/2 -27/5/2 -5/5/2
f -46/7/2 -44/7/2 -4/7/2
f -8/4/2 -7/4/2 -4/4/2
f -6/4/2 -5/4/2 -4/4/2
f -9/4/2 -8/4/2 -4/4/2
f -11/4/2 -10/4/2 -4/4/2
f -12/4/2 -11/4/2 -4/4/2
f -44/4/2 -12/4/2 -4/4/2
f -10/4/2 -9/4/2 -4/4/2
f -7/4/2 -6/4/2 -4/4/2
f -5/4/2 -43/4/2 -3/4/2
f -4/4/2 -5/4/2 -3/4/2
f -43/7/2 -45/7/2 -3/7/2
f -46/7/2 -4/7/2 -2/7/2
f -4/7/2 -3/7/2 -2/7/2
f -3/7/2 -45/7/2 -1/7/2
f -2/7/2 -3/7/2 -1/7/2
v -0.5 21 10.5
v -0.5 22 10.5
v 2.5 8 10.5
v 2.5 11 10.5
v 3.5 21 10.5
v 3.5 22 10.5
v 7.5 5 10.5
v 7.5 8 10.5
v 7.5 11 10.5
v 7.5 17 10.5
v 8.5 5 10.5
v 8.5 17 10.5
f -8/1/3 -11/1/3 -12/1/3
f -7/1/3 -11/1/3 -8/1/3
f -5/3/3 -9/3/3 -10/3/3
f -4/3/3 -9/3/3 -5/3/3
f -2/7/3 -5/7/3 -6/7/3
f -2/7/3 -3/7/3 -4/7/3
f -2/7/3 -4/7/3 -5/7/3
f -1/7/3 -3/7/3 -2/7/3
v -10.5 4 9.5
v -10.5 21 9.5
v -10.5 23 9.5
v -0.5 21 9.5
v -0.5 22 9.5
v 2.5 4 9.5
v 2.5 8 9.5
v 2.5 11 9.5
v 2.5 21 9.5
v 2.5 22 9.5
v 2.5 23 9.5
f -8/3/3 -10/3/3 -11/3/3
f -8/1/3 -9/1/3 -10/1/3
f -7/1/3 -9/1/3 -8/1/3
f -6/3/3 -8/3/3 -11/3/3
f -5/3/3 -8/3/3 -6/3/3
f -4/3/3 -8/3/3 -5/3/3
f -3/3/3 -8/3/3 -4/3/3
f -2/1/3 -9/1/3 -7/1/3
f -1/1/3 -9/1/3 -2/1/3
v -6.5 0 8.5
v -6.5 4 8.5
v -2.5 0 8.5
v -2.5 4 8.5
f -2/3/3 -3/3/3 -4/3/3
f -1/3/3 -3/3/3 -2/3/3
v -8.5 23 7.5
v -8.5 24 7.5
v 0.5 23 7.5
v 0.5 24 7.5
f -2/1/3 -3/1/3 -4/1/3
f -1/1/3 -3/1/3 -2/1/3
v 2.5 9 4.5
v 2.5 10 4.5
v 3.5 9 4.5
v 3.5 10 4.5
f -2/6/3 -3/6/3 -4/6/3
f -1/6/3 -3/6/3 -2/6/3
v -4.5 24 2.5
v -4.5 25 2.5
v -3.5 24 2.5
v -3.5 25 2.5
f -2/1/3 -3/1/3 -4/1/3
f -1/1/3 -3/1/3 -2/1/3
v -6.5 0 -1.5
v -6.5 4 -1.5
v -2.5 0 -1.5
v -2.5 4 -1.5
f -2/3/3 -3/3/3 -4/3/3
f -1/3/3 -3/3/3 -2/3/3
v 2.5 8 -4.5
v 2.5 11 -4.5
v 7.5 8 -4.5
v 7.5 11 -4.5
f -2/3/3 -3/3/3 -4/3/3
f -1/3/3 -3/3/3 -2/3/3
v 2.5 8 7.5
v 2.5 11 7.5
v 7.5 8 7.5
v 7.5 11 7.5
f -4/3/4 -3/3/4 -2/3/4
f -2/3/4 -3/3/4 -1/3/4
v -6.5 0 4.5
v -6.5 4 4.5
v -2.5 0 4.5
v -2.5 4 4.5
f -4/3/4 -3/3/4 -2/3/4
f -2/3/4 -3/3/4 -1/3/4
v -4.5 24 1.5
v -4.5 25 1.5
v -3.5 24 1.5
v -3.5 25 1.5
f -4/1/4 -3/1/4 -2/1/4
f -2/1/4 -3/1/4 -1/1/4
v 2.5 9 -1.5
v 2.5 10 -1.5
v 3.5 9 -1.5
v 3.5 10 -1.5
f -4/6/4 -3/6/4 -2/6/4
f -2/6/4 -3/6/4 -1/6/4
v -8.5 23 -4.5
v -8.5 24 -4.5
v 0.5 23 -4.5
v 0.5 24 -4.5
f -4/1/4 -3/1/4 -2/1/4
f -2/1/4 -3/1/4 -1/1/4
v -6.5 0 -5.5
v -6.5 4 -5.5
v -2.5 0 -5.5
v -2.5 4 -5.5
f -4/3/4 -3/3/4 -2/3/4
f -2/3/4 -3/3/4 -1/3/4
v -10.5 4 -6.5
v -10.5 21 -6.5
v -10.5 23 -6.5
v -0.5 21 -6.5
v -0.5 22 -6.5
v 2.5 4 -6.5
v 2.5 8 -6.5
v 2.5 11 -6.5
v 2.5 21 -6.5
v 2.5 22 -6.5
v 2.5 23 -6.5
f -11/3/4 -10/3/4 -8/3/4
f -10/1/4 -9/1/4 -8/1/4
f -8/1/4 -9/1/4 -7/1/4
f -11/3/4 -8/3/4 -6/3/4
f -6/3/4 -8/3/4 -5/3/4
f -5/3/4 -8/3/4 -4/3/4
f -4/3/4 -8/3/4 -3/3/4
f -7/1/4 -9/1/4 -2/1/4
f -2/1/4 -9/1/4 -1/1/4
v -0.5 21 -7.5
v -0.5 22 -7.5
v 2.5 8 -7.5
v 2.5 11 -7.5
v 3.5 21 -7.5
v 3.5 22 -7.5
v 7.5 8 -7.5
v 7.5 11 -7.5
f -8/1/4 -7/1/4 -4/1/4
f -4/1/4 -7/1/4 -3/1/4
f -6/3/4 -5/3/4 -2/3/4
f -2/3/4 -5/3/4 -1/3/4
v 7.5 5 -8.5
v 7.5 17 -8.5
v 8.5 5 -8.5
v 8.5 17 -8.5
f -4/7/4 -3/7/4 -2/7/4
f -2/7/4 -3/7/4 -1/7/4
v -6.5 0 8.5
v -2.5 0 8.5
v -6.5 0 4.5
v -2.5 0 4.5
v -6.5 0 -1.5
v -2.5 0 -1.5
v -6.5 0 -5.5
v -2.5 0 -5.5
f -6/3/5 -7/3/5 -8/3/5
f -5/3/5 -7/3/5 -6/3/5
f -2/3/5 -3/3/5 -4/3/5
f -1/3/5 -3/3/5 -2/3/5
v -10.5 4 9.5
v 2.5 4 9.5
v -6.5 4 8.5
v -2.5 4 8.5
v -6.5 4 4.5
v -2.5 4 4.5
v -6.5 4 -1.5
v -2.5 4 -1.5
v -6.5 4 -5.5
v -2.5 4 -5.5
v -10.5 4 -6.5
v 2.5 4 -6.5
f -10/3/5 -11/3/5 -12/3/5
f -9/3/5 -11/3/5 -10/3/5
f -8/3/5 -10/3/5 -12/3/5
f -7/3/5 -11/3/5 -9/3/5
f -6/3/5 -8/3/5 -12/3/5
f -6/3/5 -7/3/5 -8/3/5
f -5/3/5 -11/3/5 -7/3/5
f -5/3/5 -7/3/5 -6/3/5
f -4/3/5 -6/3/5 -12/3/5
f -3/3/5 -11/3/5 -5/3/5
f -2/3/5 -4/3/5 -12/3/5
f -2/3/5 -3/3/5 -4/3/5
f -1/3/5 -11/3/5 -3/3/5
f -1/3/5 -3/3/5 -2/3/5
v 7.5 5 10.5
v 8.5 5 10.5
v 7.5 5 -8.5
v 8.5 5 -8.5
f -2/7/5 -3/7/5 -4/7/5
f -1/7/5 -3/7/5 -2/7/5
v 2.5 8 10.5
v 7.5 8 10.5
v 2.5 8 9.5
v 7.5 8 9.5
v 7.5 8 8.5
v 2.5 8 7.5
v 7.5 8 7.5
v 2.5 8 -4.5
v 7.5 8 -4.5
v 2.5 8 -6.5
v 2.5 8 -7.5
v 7.5 8 -7.5
f -10/3/5 -11/3/5 -12/3/5
f -9/3/5 -11/3/5 -10/3/5
f -8/3/5 -9/3/5 -10/3/5
f -7/3/5 -8/3/5 -10/3/5
f -6/3/5 -8/3/5 -7/3/5
f -3/3/5 -4/3/5 -5/3/5
f -2/3/5 -4/3/5 -3/3/5
f -1/3/5 -4/3/5 -2/3/5
v 2.5 9 4.5
v 3.5 9 4.5
v 2.5 9 -1.5
v 3.5 9 -1.5
f -2/6/5 -3/6/5 -4/6/5
f -1/6/5 -3/6/5 -2/6/5
v -0.5 21 10.5
v 3.5 21 10.5
v -0.5 21 9.5
v 2.5 21 9.5
v -0.5 21 -6.5
v 2.5 21 -6.5
v -0.5 21 -7.5
v 3.5 21 -7.5
f -6/1/5 -7/1/5 -8/1/5
f -5/1/5 -7/1/5 -6/1/5
f -3/1/5 -7/1/5 -5/1/5
f -2/1/5 -3/1/5 -4/1/5
f -1/1/5 -7/1/5 -3/1/5
f -1/1/5 -3/1/5 -2/1/5
v 2.5 10 4.5
v 3.5 10 4.5
v 2.5 10 -1.5
v 3.5 10 -1.5
f -4/6/6 -3/6/6 -2/6/6
f -2/6/6 -3/6/6 -1/6/6
v 2.5 11 10.5
v 7.5 11 10.5
v 2.5 11 9.5
v 7.5 11 9.5
v 7.5 11 8.5
v 2.5 11 7.5
v 7.5 11 7.5
v 2.5 11 -4.5
v 7.5 11 -4.5
v 2.5 11 -6.5
v 7.5 11 -6.5
v 2.5 11 -7.5
v 7.5 11 -7.5
f -13/3/6 -12/3/6 -11/3/6
f -11/3/6 -12/3/6 -10/3/6
f -11/3/6 -10/3/6 -9/3/6
f -11/3/6 -9/3/6 -8/3/6
f -8/3/6 -9/3/6 -7/3/6
f -6/3/6 -5/3/6 -4/3/6
f -4/3/6 -5/3/6 -3/3/6
f -4/3/6 -3/3/6 -2/3/6
f -2/3/6 -3/3/6 -1/3/6
v 7.5 17 10.5
v 8.5 17 10.5
v 7.5 17 -8.5
v 8.5 17 -8.5
f -4/7/6 -3/7/6 -2/7/6
f -2/7/6 -3/7/6 -1/7/6
v -0.5 22 10.5
v 3.5 22 10.5
v -0.5 22 9.5
v 2.5 22 9.5
v -0.5 22 -6.5
v 2.5 22 -6.5
v -0.5 22 -7.5
v 3.5 22 -7.5
f -8/1/6 -7/1/6 -6/1/6
f -6/1/6 -7/1/6 -5/1/6
f -5/1/6 -7/1/6 -3/1/6
f -4/1/6 -3/1/6 -2/1/6
f -3/1/6 -7/1/6 -1/1/6
f -2/1/6 -3/1/6 -1/1/6
v -10.5 23 9.5
v 2.5 23 9.5
v -8.5 23 7.5
v 0.5 23 7.5
v -8.5 23 -4.5
v 0.5 23 -4.5
v -10.5 23 -6.5
v 2.5 23 -6.5
f -8/1/6 -7/1/6 -6/1/6
f -6/1/6 -7/1/6 -5/1/6
f -8/1/6 -6/1/6 -4/1/6
f -5/1/6 -7/1/6 -3/1/6
f -8/1/6 -4/1/6 -2/1/6
f -4/1/6 -3/1/6 -2/1/6
f -3/1/6 -7/1/6 -1/1/6
f -2/1/6 -3/1/6 -1/1/6
v -8.5 24 7.5
v 0.5 24 7.5
v -4.5 24 2.5
v -3.5 24 2.5
v -4.5 24 1.5
v -3.5 24 1.5
v -8.5 24 -4.5
v 0.5 24 -4.5
f -8/1/6 -7/1/6 -6/1/6
f -6/1/6 -7/1/6 -5/1/6
f -8/1/6 -6/1/6 -4/1/6
f -5/1/6 -7/1/6 -3/1/6
f -8/1/6 -4/1/6 -2/1/6
f -4/1/6 -3/1/6 -2/1/6
f -3/1/6 -7/1/6 -1/1/6
f -2/1/6 -3/1/6 -1/1/6
v -4.5 25 2.5
v -3.5 25 2.5
v -4.5 25 1.5
v -3.5 25 1.5
f -4/1/6 -3/1/6 -2/1/6
f -2/1/6 -3/1/6 -1/1/6
