# MagicaVoxel @ ephtracy

# material
mtllib fish.mtl

# mesh name
g fish_mesh

# normals
vn -1 0 0
vn 1 0 0
vn 0 0 1
vn 0 0 -1
vn 0 -1 0
vn 0 1 0

# texcoords
vt 0.115234 0.5
vt 0.994141 0.5

# verts
v -2 0 5
v -2 0 4
v -2 0 3
v -2 0 -3
v -2 1 4
v -2 1 3
v -2 2 -1
v -2 2 -2
v -2 3 4
v -2 3 3
v -2 3 -1
v -2 3 -2
v -2 4 5
v -2 4 4
v -2 4 3
v -2 4 -3
f -12/1/1 -15/1/1 -16/1/1
f -11/1/1 -13/1/1 -14/1/1
f -10/1/1 -13/1/1 -11/1/1
f -10/1/1 -11/1/1 -12/1/1
f -9/1/1 -13/1/1 -10/1/1
f -8/1/1 -12/1/1 -16/1/1
f -8/1/1 -10/1/1 -12/1/1
f -7/1/1 -10/1/1 -8/1/1
f -6/2/1 -9/2/1 -10/2/1
f -6/1/1 -10/1/1 -7/1/1
f -5/1/1 -13/1/1 -9/1/1
f -5/2/1 -9/2/1 -6/2/1
f -4/1/1 -8/1/1 -16/1/1
f -3/1/1 -8/1/1 -4/1/1
f -2/1/1 -6/1/1 -7/1/1
f -2/1/1 -5/1/1 -6/1/1
f -1/1/1 -13/1/1 -5/1/1
f -1/1/1 -5/1/1 -2/1/1
v 0 0 5
v 0 0 4
v 0 0 3
v 0 0 -3
v 0 1 4
v 0 1 3
v 0 2 -1
v 0 2 -2
v 0 3 4
v 0 3 3
v 0 3 -1
v 0 3 -2
v 0 4 5
v 0 4 4
v 0 4 3
v 0 4 -3
f -16/1/2 -15/1/2 -12/1/2
f -14/1/2 -13/1/2 -11/1/2
f -11/1/2 -13/1/2 -10/1/2
f -12/1/2 -11/1/2 -10/1/2
f -10/1/2 -13/1/2 -9/1/2
f -16/1/2 -12/1/2 -8/1/2
f -12/1/2 -10/1/2 -8/1/2
f -8/1/2 -10/1/2 -7/1/2
f -10/2/2 -9/2/2 -6/2/2
f -7/1/2 -10/1/2 -6/1/2
f -9/1/2 -13/1/2 -5/1/2
f -6/2/2 -9/2/2 -5/2/2
f -16/1/2 -8/1/2 -4/1/2
f -4/1/2 -8/1/2 -3/1/2
f -7/1/2 -6/1/2 -2/1/2
f -6/1/2 -5/1/2 -2/1/2
f -5/1/2 -13/1/2 -1/1/2
f -2/1/2 -5/1/2 -1/1/2
v -2 0 5
v -2 4 5
v 0 0 5
v 0 4 5
f -2/1/3 -3/1/3 -4/1/3
f -1/1/3 -3/1/3 -2/1/3
v -2 0 3
v -2 1 3
v -2 3 3
v -2 4 3
v 0 0 3
v 0 1 3
v 0 3 3
v 0 4 3
f -4/1/3 -7/1/3 -8/1/3
f -3/1/3 -7/1/3 -4/1/3
f -2/1/3 -5/1/3 -6/1/3
f -1/1/3 -5/1/3 -2/1/3
v -2 0 4
v -2 1 4
v -2 3 4
v -2 4 4
v 0 0 4
v 0 1 4
v 0 3 4
v 0 4 4
f -8/1/4 -7/1/4 -4/1/4
f -4/1/4 -7/1/4 -3/1/4
f -6/1/4 -5/1/4 -2/1/4
f -2/1/4 -5/1/4 -1/1/4
v -2 0 -3
v -2 4 -3
v 0 0 -3
v 0 4 -3
f -4/1/4 -3/1/4 -2/1/4
f -2/1/4 -3/1/4 -1/1/4
v -2 0 5
v 0 0 5
v -2 0 4
v 0 0 4
v -2 0 3
v 0 0 3
v -2 0 -3
v 0 0 -3
f -6/1/5 -7/1/5 -8/1/5
f -5/1/5 -7/1/5 -6/1/5
f -2/1/5 -3/1/5 -4/1/5
f -1/1/5 -3/1/5 -2/1/5
v -2 1 4
v 0 1 4
v -2 1 3
v 0 1 3
f -2/1/5 -3/1/5 -4/1/5
f -1/1/5 -3/1/5 -2/1/5
v -2 3 4
v 0 3 4
v -2 3 3
v 0 3 3
f -4/1/6 -3/1/6 -2/1/6
f -2/1/6 -3/1/6 -1/1/6
v -2 4 5
v 0 4 5
v -2 4 4
v 0 4 4
v -2 4 3
v 0 4 3
v -2 4 -3
v 0 4 -3
f -8/1/6 -7/1/6 -6/1/6
f -6/1/6 -7/1/6 -5/1/6
f -4/1/6 -3/1/6 -2/1/6
f -2/1/6 -3/1/6 -1/1/6
