# MagicaVoxel @ ephtracy

# material
mtllib junker4.mtl
usemtl palette

# mesh name
g junker4_mesh

# normals
vn -1 0 0
vn 1 0 0
vn 0 0 1
vn 0 0 -1
vn 0 -1 0
vn 0 1 0

# texcoords
vt 0.751953 0.5
vt 0.962891 0.5

# verts
v -1 0 5
v -1 0 -6
v -1 3 6
v -1 3 5
v -1 5 3
v -1 5 -6
v -1 7 4
v -1 7 3
v -1 8 6
v -1 8 4
v 0 0 -4
v 0 0 -6
v 0 5 -4
v 0 5 -6
v 1 0 5
v 1 0 -4
v 1 3 6
v 1 3 5
v 1 5 3
v 1 5 -4
v 1 7 4
v 1 7 3
v 1 8 6
v 1 8 4
v -1 3 6
v -1 8 6
v 0 3 6
v 0 8 6
v 1 3 6
v 1 8 6
v -1 0 5
v -1 3 5
v 0 0 5
v 0 3 5
v 1 0 5
v 1 3 5
v -1 7 4
v -1 8 4
v 0 7 4
v 0 8 4
v 1 7 4
v 1 8 4
v -1 5 3
v -1 7 3
v 0 5 3
v 0 7 3
v 1 5 3
v 1 7 3
v 0 0 -4
v 0 5 -4
v 1 0 -4
v 1 5 -4
v -1 0 -6
v -1 5 -6
v 0 0 -6
v 0 5 -6
v -1 0 5
v 0 0 5
v 1 0 5
v 0 0 -4
v 1 0 -4
v -1 0 -6
v 0 0 -6
v -1 3 6
v 0 3 6
v 1 3 6
v -1 3 5
v 0 3 5
v 1 3 5
v -1 5 3
v 0 5 3
v 1 5 3
v 0 5 -4
v 1 5 -4
v -1 5 -6
v 0 5 -6
v -1 7 4
v 0 7 4
v 1 7 4
v -1 7 3
v 0 7 3
v 1 7 3
v -1 8 6
v 0 8 6
v 1 8 6
v -1 8 4
v 0 8 4
v 1 8 4

# faces
f 4/2/1 2/2/1 1/2/1
f 5/2/1 2/2/1 4/2/1
f 5/2/1 4/2/1 3/2/1
f 6/2/1 2/2/1 5/2/1
f 7/2/1 5/2/1 3/2/1
f 8/2/1 5/2/1 7/2/1
f 9/2/1 7/2/1 3/2/1
f 10/2/1 7/2/1 9/2/1
f 11/2/2 12/2/2 13/2/2
f 13/2/2 12/2/2 14/2/2
f 15/1/2 16/1/2 18/1/2
f 18/1/2 16/1/2 19/1/2
f 17/1/2 18/1/2 19/1/2
f 19/1/2 16/1/2 20/1/2
f 17/1/2 19/1/2 21/1/2
f 21/1/2 19/1/2 22/1/2
f 17/1/2 21/1/2 23/1/2
f 23/1/2 21/1/2 24/1/2
f 27/2/3 26/2/3 25/2/3
f 28/2/3 26/2/3 27/2/3
f 29/1/3 28/1/3 27/1/3
f 30/1/3 28/1/3 29/1/3
f 33/2/3 32/2/3 31/2/3
f 34/2/3 32/2/3 33/2/3
f 35/1/3 34/1/3 33/1/3
f 36/1/3 34/1/3 35/1/3
f 37/2/4 38/2/4 39/2/4
f 39/2/4 38/2/4 40/2/4
f 39/1/4 40/1/4 41/1/4
f 41/1/4 40/1/4 42/1/4
f 43/2/4 44/2/4 45/2/4
f 45/2/4 44/2/4 46/2/4
f 45/1/4 46/1/4 47/1/4
f 47/1/4 46/1/4 48/1/4
f 49/1/4 50/1/4 51/1/4
f 51/1/4 50/1/4 52/1/4
f 53/2/4 54/2/4 55/2/4
f 55/2/4 54/2/4 56/2/4
f 60/2/5 58/2/5 57/2/5
f 60/1/5 59/1/5 58/1/5
f 61/1/5 59/1/5 60/1/5
f 62/2/5 60/2/5 57/2/5
f 63/2/5 60/2/5 62/2/5
f 67/2/5 65/2/5 64/2/5
f 68/1/5 66/1/5 65/1/5
f 68/2/5 65/2/5 67/2/5
f 69/1/5 66/1/5 68/1/5
f 70/2/6 71/2/6 73/2/6
f 71/1/6 72/1/6 73/1/6
f 73/1/6 72/1/6 74/1/6
f 70/2/6 73/2/6 75/2/6
f 75/2/6 73/2/6 76/2/6
f 77/2/6 78/2/6 80/2/6
f 78/1/6 79/1/6 81/1/6
f 80/2/6 78/2/6 81/2/6
f 81/1/6 79/1/6 82/1/6
f 83/2/6 84/2/6 86/2/6
f 84/1/6 85/1/6 87/1/6
f 86/2/6 84/2/6 87/2/6
f 87/1/6 85/1/6 88/1/6
