# MagicaVoxel @ ephtracy

# material
mtllib junker3.mtl
usemtl palette

# mesh name
g junker3_mesh

# normals
vn -1 0 0
vn 1 0 0
vn 0 0 1
vn 0 0 -1
vn 0 -1 0
vn 0 1 0

# texcoords
vt 0.751953 0.5
vt 0.802734 0.5
vt 0.962891 0.5

# verts
v -3 0 2
v -3 0 1
v -3 11 2
v -3 11 1
v -2 0 5
v -2 0 3
v -2 0 2
v -2 0 1
v -2 0 -1
v -2 0 -2
v -2 0 -5
v -2 11 2
v -2 11 1
v -2 11 -1
v -2 11 -2
v -2 16 5
v -2 16 3
v -2 16 2
v -2 16 -2
v -2 16 -5
v -1 5 14
v -1 5 5
v -1 5 -5
v -1 5 -14
v -1 8 15
v -1 8 14
v -1 8 -14
v -1 8 -15
v -1 10 12
v -1 10 5
v -1 10 -5
v -1 10 -12
v -1 12 13
v -1 12 12
v -1 12 -12
v -1 12 -13
v -1 13 15
v -1 13 13
v -1 13 -13
v -1 13 -15
v 1 5 14
v 1 5 5
v 1 5 -5
v 1 5 -14
v 1 8 15
v 1 8 14
v 1 8 -14
v 1 8 -15
v 1 10 12
v 1 10 5
v 1 10 -5
v 1 10 -12
v 1 12 13
v 1 12 12
v 1 12 -12
v 1 12 -13
v 1 13 15
v 1 13 13
v 1 13 -13
v 1 13 -15
v 3 0 5
v 3 0 -5
v 3 11 2
v 3 11 -2
v 3 16 5
v 3 16 2
v 3 16 -2
v 3 16 -5
v -1 8 15
v -1 13 15
v 0 8 15
v 0 13 15
v 1 8 15
v 1 13 15
v -1 5 14
v -1 8 14
v 0 5 14
v 0 8 14
v 1 5 14
v 1 8 14
v -2 0 5
v -2 16 5
v -1 5 5
v -1 10 5
v 0 5 5
v 0 10 5
v 1 5 5
v 1 10 5
v 3 0 5
v 3 16 5
v -3 0 2
v -3 11 2
v -2 0 2
v -2 11 2
v -2 11 -2
v -2 16 -2
v -1 11 -2
v 3 11 -2
v 3 16 -2
v -1 10 -12
v -1 12 -12
v 0 10 -12
v 0 12 -12
v 1 10 -12
v 1 12 -12
v -1 12 -13
v -1 13 -13
v 0 12 -13
v 0 13 -13
v 1 12 -13
v 1 13 -13
v -1 12 13
v -1 13 13
v 0 12 13
v 0 13 13
v 1 12 13
v 1 13 13
v -1 10 12
v -1 12 12
v 0 10 12
v 0 12 12
v 1 10 12
v 1 12 12
v -2 11 2
v -2 16 2
v 0 11 2
v 0 16 2
v 3 11 2
v 3 16 2
v -3 0 1
v -3 11 1
v -2 0 1
v -2 11 1
v -2 0 -5
v -2 16 -5
v -1 5 -5
v -1 10 -5
v 0 5 -5
v 0 10 -5
v 1 5 -5
v 1 10 -5
v 3 0 -5
v 3 16 -5
v -1 5 -14
v -1 8 -14
v 0 5 -14
v 0 8 -14
v 1 5 -14
v 1 8 -14
v -1 8 -15
v -1 13 -15
v 0 8 -15
v 0 13 -15
v 1 8 -15
v 1 13 -15
v -2 0 5
v 3 0 5
v -2 0 3
v 2 0 3
v -3 0 2
v -2 0 2
v -3 0 1
v -2 0 1
v 2 0 1
v -2 0 -1
v 2 0 -1
v -2 0 -2
v 1 0 -2
v 1 0 -3
v 2 0 -3
v -2 0 -5
v 3 0 -5
v -1 5 14
v 0 5 14
v 1 5 14
v -1 5 5
v 0 5 5
v 1 5 5
v -1 5 -5
v 0 5 -5
v 1 5 -5
v -1 5 -14
v 0 5 -14
v 1 5 -14
v -1 8 15
v 0 8 15
v 1 8 15
v -1 8 14
v 0 8 14
v 1 8 14
v -1 8 -14
v 0 8 -14
v 1 8 -14
v -1 8 -15
v 0 8 -15
v 1 8 -15
v -1 10 12
v 0 10 12
v 1 10 12
v -1 10 5
v 0 10 5
v 1 10 5
v -1 10 -5
v 0 10 -5
v 1 10 -5
v -1 10 -12
v 0 10 -12
v 1 10 -12
v -3 11 2
v -2 11 2
v 0 11 2
v 3 11 2
v -3 11 1
v -2 11 1
v -2 11 -1
v -1 11 -1
v -2 11 -2
v -1 11 -2
v 3 11 -2
v -1 12 13
v 0 12 13
v 1 12 13
v -1 12 12
v 0 12 12
v 1 12 12
v -1 12 -12
v 0 12 -12
v 1 12 -12
v -1 12 -13
v 0 12 -13
v 1 12 -13
v -1 13 15
v 0 13 15
v 1 13 15
v -1 13 13
v 0 13 13
v 1 13 13
v -1 13 -13
v 0 13 -13
v 1 13 -13
v -1 13 -15
v 0 13 -15
v 1 13 -15
v -2 16 5
v 3 16 5
v -2 16 3
v 0 16 3
v -2 16 2
v 0 16 2
v 3 16 2
v -2 16 -2
v 3 16 -2
v -2 16 -5
v 3 16 -5

# faces
f 3/2/1 2/2/1 1/2/1
f 4/2/1 2/2/1 3/2/1
f 12/2/1 7/2/1 6/2/1
f 13/3/1 9/3/1 8/3/1
f 14/2/1 10/2/1 9/2/1
f 14/3/1 9/3/1 13/3/1
f 15/3/1 11/3/1 10/3/1
f 15/2/1 10/2/1 14/2/1
f 16/3/1 6/3/1 5/3/1
f 17/2/1 12/2/1 6/2/1
f 17/3/1 6/3/1 16/3/1
f 18/2/1 12/2/1 17/2/1
f 19/3/1 11/3/1 15/3/1
f 20/3/1 11/3/1 19/3/1
f 26/3/1 22/3/1 21/3/1
f 27/3/1 24/3/1 23/3/1
f 29/3/1 26/3/1 25/3/1
f 29/3/1 22/3/1 26/3/1
f 30/3/1 22/3/1 29/3/1
f 31/3/1 28/3/1 27/3/1
f 31/3/1 27/3/1 23/3/1
f 32/3/1 28/3/1 31/3/1
f 33/3/1 29/3/1 25/3/1
f 34/3/1 29/3/1 33/3/1
f 35/3/1 28/3/1 32/3/1
f 36/3/1 28/3/1 35/3/1
f 37/3/1 33/3/1 25/3/1
f 38/3/1 33/3/1 37/3/1
f 39/3/1 28/3/1 36/3/1
f 40/3/1 28/3/1 39/3/1
f 41/1/2 42/1/2 46/1/2
f 43/1/2 44/1/2 47/1/2
f 45/1/2 46/1/2 49/1/2
f 46/1/2 42/1/2 49/1/2
f 49/1/2 42/1/2 50/1/2
f 47/1/2 48/1/2 51/1/2
f 43/1/2 47/1/2 51/1/2
f 51/1/2 48/1/2 52/1/2
f 45/1/2 49/1/2 53/1/2
f 53/1/2 49/1/2 54/1/2
f 52/1/2 48/1/2 55/1/2
f 55/1/2 48/1/2 56/1/2
f 45/1/2 53/1/2 57/1/2
f 57/1/2 53/1/2 58/1/2
f 56/1/2 48/1/2 59/1/2
f 59/1/2 48/1/2 60/1/2
f 61/3/2 62/3/2 63/3/2
f 63/3/2 62/3/2 64/3/2
f 61/3/2 63/3/2 65/3/2
f 65/3/2 63/3/2 66/3/2
f 64/3/2 62/3/2 67/3/2
f 67/3/2 62/3/2 68/3/2
f 71/3/3 70/3/3 69/3/3
f 72/3/3 70/3/3 71/3/3
f 73/1/3 72/1/3 71/1/3
f 74/1/3 72/1/3 73/1/3
f 77/3/3 76/3/3 75/3/3
f 78/3/3 76/3/3 77/3/3
f 79/1/3 78/1/3 77/1/3
f 80/1/3 78/1/3 79/1/3
f 83/3/3 82/3/3 81/3/3
f 84/3/3 82/3/3 83/3/3
f 85/3/3 83/3/3 81/3/3
f 86/3/3 82/3/3 84/3/3
f 87/3/3 85/3/3 81/3/3
f 88/3/3 82/3/3 86/3/3
f 89/3/3 87/3/3 81/3/3
f 89/3/3 88/3/3 87/3/3
f 90/3/3 82/3/3 88/3/3
f 90/3/3 88/3/3 89/3/3
f 93/2/3 92/2/3 91/2/3
f 94/2/3 92/2/3 93/2/3
f 97/3/3 96/3/3 95/3/3
f 98/3/3 96/3/3 97/3/3
f 99/3/3 96/3/3 98/3/3
f 102/3/3 101/3/3 100/3/3
f 103/3/3 101/3/3 102/3/3
f 104/1/3 103/1/3 102/1/3
f 105/1/3 103/1/3 104/1/3
f 108/3/3 107/3/3 106/3/3
f 109/3/3 107/3/3 108/3/3
f 110/1/3 109/1/3 108/1/3
f 111/1/3 109/1/3 110/1/3
f 112/3/4 113/3/4 114/3/4
f 114/3/4 113/3/4 115/3/4
f 114/1/4 115/1/4 116/1/4
f 116/1/4 115/1/4 117/1/4
f 118/3/4 119/3/4 120/3/4
f 120/3/4 119/3/4 121/3/4
f 120/1/4 121/1/4 122/1/4
f 122/1/4 121/1/4 123/1/4
f 124/2/4 125/2/4 126/2/4
f 126/2/4 125/2/4 127/2/4
f 126/3/4 127/3/4 128/3/4
f 128/3/4 127/3/4 129/3/4
f 130/2/4 131/2/4 132/2/4
f 132/2/4 131/2/4 133/2/4
f 134/3/4 135/3/4 136/3/4
f 136/3/4 135/3/4 137/3/4
f 134/3/4 136/3/4 138/3/4
f 137/3/4 135/3/4 139/3/4
f 134/3/4 138/3/4 140/3/4
f 139/3/4 135/3/4 141/3/4
f 134/3/4 140/3/4 142/3/4
f 140/3/4 141/3/4 142/3/4
f 141/3/4 135/3/4 143/3/4
f 142/3/4 141/3/4 143/3/4
f 144/3/4 145/3/4 146/3/4
f 146/3/4 145/3/4 147/3/4
f 146/1/4 147/1/4 148/1/4
f 148/1/4 147/1/4 149/1/4
f 150/3/4 151/3/4 152/3/4
f 152/3/4 151/3/4 153/3/4
f 152/1/4 153/1/4 154/1/4
f 154/1/4 153/1/4 155/1/4
f 158/3/5 157/3/5 156/3/5
f 159/3/5 157/3/5 158/3/5
f 161/2/5 159/2/5 158/2/5
f 162/2/5 161/2/5 160/2/5
f 163/2/5 159/2/5 161/2/5
f 163/2/5 161/2/5 162/2/5
f 164/3/5 157/3/5 159/3/5
f 164/2/5 159/2/5 163/2/5
f 165/3/5 164/3/5 163/3/5
f 166/3/5 157/3/5 164/3/5
f 166/3/5 164/3/5 165/3/5
f 167/2/5 166/2/5 165/2/5
f 168/2/5 166/2/5 167/2/5
f 169/3/5 168/3/5 167/3/5
f 169/2/5 166/2/5 168/2/5
f 170/3/5 157/3/5 166/3/5
f 170/2/5 166/2/5 169/2/5
f 171/3/5 169/3/5 167/3/5
f 171/3/5 170/3/5 169/3/5
f 172/3/5 157/3/5 170/3/5
f 172/3/5 170/3/5 171/3/5
f 176/3/5 174/3/5 173/3/5
f 177/1/5 175/1/5 174/1/5
f 177/3/5 174/3/5 176/3/5
f 178/1/5 175/1/5 177/1/5
f 182/3/5 180/3/5 179/3/5
f 183/1/5 181/1/5 180/1/5
f 183/3/5 180/3/5 182/3/5
f 184/1/5 181/1/5 183/1/5
f 188/3/5 186/3/5 185/3/5
f 189/1/5 187/1/5 186/1/5
f 189/3/5 186/3/5 188/3/5
f 190/1/5 187/1/5 189/1/5
f 194/3/5 192/3/5 191/3/5
f 195/1/5 193/1/5 192/1/5
f 195/3/5 192/3/5 194/3/5
f 196/1/5 193/1/5 195/1/5
f 197/3/6 198/3/6 200/3/6
f 198/1/6 199/1/6 201/1/6
f 200/3/6 198/3/6 201/3/6
f 201/1/6 199/1/6 202/1/6
f 203/3/6 204/3/6 206/3/6
f 204/1/6 205/1/6 207/1/6
f 206/3/6 204/3/6 207/3/6
f 207/1/6 205/1/6 208/1/6
f 209/2/6 210/2/6 213/2/6
f 211/3/6 212/3/6 214/3/6
f 213/2/6 210/2/6 214/2/6
f 210/3/6 211/3/6 214/3/6
f 214/3/6 212/3/6 215/3/6
f 215/3/6 212/3/6 216/3/6
f 215/2/6 216/2/6 217/2/6
f 216/3/6 212/3/6 218/3/6
f 217/2/6 216/2/6 218/2/6
f 218/3/6 212/3/6 219/3/6
f 220/3/6 221/3/6 223/3/6
f 221/1/6 222/1/6 224/1/6
f 223/3/6 221/3/6 224/3/6
f 224/1/6 222/1/6 225/1/6
f 226/3/6 227/3/6 229/3/6
f 227/1/6 228/1/6 230/1/6
f 229/3/6 227/3/6 230/3/6
f 230/1/6 228/1/6 231/1/6
f 232/3/6 233/3/6 235/3/6
f 233/1/6 234/1/6 236/1/6
f 235/3/6 233/3/6 236/3/6
f 236/1/6 234/1/6 237/1/6
f 238/3/6 239/3/6 241/3/6
f 239/1/6 240/1/6 242/1/6
f 241/3/6 239/3/6 242/3/6
f 242/1/6 240/1/6 243/1/6
f 244/3/6 245/3/6 246/3/6
f 246/3/6 245/3/6 247/3/6
f 246/2/6 247/2/6 248/2/6
f 247/3/6 245/3/6 249/3/6
f 248/2/6 247/2/6 249/2/6
f 249/3/6 245/3/6 250/3/6
f 251/3/6 252/3/6 253/3/6
f 253/3/6 252/3/6 254/3/6
