# MagicaVoxel @ ephtracy

# material
mtllib cubeboy27.mtl

# mesh name
g leg27_mesh

# normals
vn -1 0 0
vn 1 0 0
vn 0 0 1
vn 0 0 -1
vn 0 -1 0
vn 0 1 0

# texcoords
vt 0.0214844 0.5
vt 0.986328 0.5

# verts
v -3 0 3
v -3 0 -1
v -3 2 3
v -3 2 -1
v -3 5 3
v -3 5 -1
f -4/2/1 -5/2/1 -6/2/1
f -3/2/1 -5/2/1 -4/2/1
f -2/1/1 -3/1/1 -4/1/1
f -1/1/1 -3/1/1 -2/1/1
v 1 0 3
v 1 0 -1
v 1 2 3
v 1 2 -1
v 1 5 3
v 1 5 -1
f -6/2/2 -5/2/2 -4/2/2
f -4/2/2 -5/2/2 -3/2/2
f -4/1/2 -3/1/2 -2/1/2
f -2/1/2 -3/1/2 -1/1/2
v -3 0 3
v -3 2 3
v -3 5 3
v -2 3 3
v -2 5 3
v 0 3 3
v 0 5 3
v 1 0 3
v 1 2 3
v 1 5 3
f -7/1/3 -8/1/3 -9/1/3
f -6/1/3 -8/1/3 -7/1/3
f -5/1/3 -7/1/3 -9/1/3
f -5/2/3 -6/2/3 -7/2/3
f -4/2/3 -6/2/3 -5/2/3
f -3/2/3 -9/2/3 -10/2/3
f -2/1/3 -5/1/3 -9/1/3
f -2/2/3 -9/2/3 -3/2/3
f -2/1/3 -4/1/3 -5/1/3
f -1/1/3 -4/1/3 -2/1/3
v -3 0 -1
v -3 2 -1
v -3 5 -1
v 1 0 -1
v 1 2 -1
v 1 5 -1
f -6/2/4 -5/2/4 -3/2/4
f -5/1/4 -4/1/4 -2/1/4
f -3/2/4 -5/2/4 -2/2/4
f -2/1/4 -4/1/4 -1/1/4
v -3 0 3
v 1 0 3
v -3 0 -1
v 1 0 -1
f -2/2/5 -3/2/5 -4/2/5
f -1/2/5 -3/2/5 -2/2/5
v -3 5 3
v -2 5 3
v 0 5 3
v 1 5 3
v -2 5 2
v 0 5 2
v -3 5 -1
v 1 5 -1
f -8/1/6 -7/1/6 -4/1/6
f -7/2/6 -6/2/6 -4/2/6
f -6/1/6 -5/1/6 -3/1/6
f -4/2/6 -6/2/6 -3/2/6
f -8/1/6 -4/1/6 -2/1/6
f -4/1/6 -3/1/6 -2/1/6
f -3/1/6 -5/1/6 -1/1/6
f -2/1/6 -3/1/6 -1/1/6
