# MagicaVoxel @ ephtracy

# material
mtllib mystery.mtl

# mesh name
g mystery_mesh

# normals
vn -1 0 0
vn 1 0 0
vn 0 0 1
vn 0 0 -1
vn 0 -1 0
vn 0 1 0

# texcoords
vt 0.962891 0.5
vt 0.994141 0.5

# verts
v -8.5 0 8
v -8.5 0 -7
v -8.5 15 8
v -8.5 15 -7
f -2/2/1 -3/2/1 -4/2/1
f -1/2/1 -3/2/1 -2/2/1
v -7.5 10 9
v -7.5 10 8
v -7.5 13 9
v -7.5 13 8
f -2/1/1 -3/1/1 -4/1/1
f -1/1/1 -3/1/1 -2/1/1
v -3.5 2 9
v -3.5 2 8
v -3.5 4 9
v -3.5 4 8
v -3.5 5 9
v -3.5 5 8
v -3.5 9 9
v -3.5 9 8
f -6/1/1 -7/1/1 -8/1/1
f -5/1/1 -7/1/1 -6/1/1
f -2/1/1 -3/1/1 -4/1/1
f -1/1/1 -3/1/1 -2/1/1
v 2.5 9 9
v 2.5 9 8
v 2.5 11 9
v 2.5 11 8
f -2/1/1 -3/1/1 -4/1/1
f -1/1/1 -3/1/1 -2/1/1
v -4.5 10 9
v -4.5 10 8
v -4.5 11 9
v -4.5 11 8
f -4/1/2 -3/1/2 -2/1/2
f -2/1/2 -3/1/2 -1/1/2
v 0.5 2 9
v 0.5 2 8
v 0.5 4 9
v 0.5 4 8
v 0.5 5 9
v 0.5 5 8
v 0.5 7 9
v 0.5 7 8
f -8/1/2 -7/1/2 -6/1/2
f -6/1/2 -7/1/2 -5/1/2
f -4/1/2 -3/1/2 -2/1/2
f -2/1/2 -3/1/2 -1/1/2
v 5.5 7 9
v 5.5 7 8
v 5.5 13 9
v 5.5 13 8
f -4/1/2 -3/1/2 -2/1/2
f -2/1/2 -3/1/2 -1/1/2
v 6.5 0 8
v 6.5 0 -7
v 6.5 15 8
v 6.5 15 -7
f -4/2/2 -3/2/2 -2/2/2
f -2/2/2 -3/2/2 -1/2/2
v -7.5 10 9
v -7.5 13 9
v -4.5 10 9
v -4.5 11 9
v -3.5 2 9
v -3.5 4 9
v -3.5 5 9
v -3.5 9 9
v 0.5 2 9
v 0.5 4 9
v 0.5 5 9
v 0.5 7 9
v 2.5 9 9
v 2.5 11 9
v 5.5 7 9
v 5.5 13 9
f -14/1/3 -15/1/3 -16/1/3
f -13/1/3 -15/1/3 -14/1/3
f -8/1/3 -11/1/3 -12/1/3
f -7/1/3 -11/1/3 -8/1/3
f -6/1/3 -9/1/3 -10/1/3
f -5/1/3 -9/1/3 -6/1/3
f -4/1/3 -9/1/3 -5/1/3
f -3/1/3 -15/1/3 -13/1/3
f -2/1/3 -4/1/3 -5/1/3
f -2/1/3 -3/1/3 -4/1/3
f -1/1/3 -15/1/3 -3/1/3
f -1/1/3 -3/1/3 -2/1/3
v -8.5 0 8
v -8.5 15 8
v -7.5 10 8
v -7.5 13 8
v -4.5 10 8
v -4.5 11 8
v -3.5 2 8
v -3.5 4 8
v -3.5 5 8
v -3.5 9 8
v 0.5 2 8
v 0.5 4 8
v 0.5 5 8
v 0.5 7 8
v 2.5 9 8
v 2.5 11 8
v 5.5 7 8
v 5.5 13 8
v 6.5 0 8
v 6.5 15 8
f -18/2/3 -19/2/3 -20/2/3
f -17/2/3 -19/2/3 -18/2/3
f -16/2/3 -18/2/3 -20/2/3
f -14/2/3 -16/2/3 -20/2/3
f -14/2/3 -15/2/3 -16/2/3
f -13/2/3 -15/2/3 -14/2/3
f -12/2/3 -15/2/3 -13/2/3
f -11/2/3 -15/2/3 -12/2/3
f -10/2/3 -14/2/3 -20/2/3
f -9/2/3 -12/2/3 -13/2/3
f -8/2/3 -12/2/3 -9/2/3
f -6/2/3 -15/2/3 -11/2/3
f -5/2/3 -15/2/3 -6/2/3
f -4/2/3 -7/2/3 -8/2/3
f -4/2/3 -9/2/3 -10/2/3
f -4/2/3 -8/2/3 -9/2/3
f -3/2/3 -19/2/3 -17/2/3
f -2/2/3 -4/2/3 -10/2/3
f -2/2/3 -3/2/3 -4/2/3
f -2/2/3 -10/2/3 -20/2/3
f -1/2/3 -19/2/3 -3/2/3
f -1/2/3 -3/2/3 -2/2/3
v -8.5 0 -7
v -8.5 15 -7
v 6.5 0 -7
v 6.5 15 -7
f -4/2/4 -3/2/4 -2/2/4
f -2/2/4 -3/2/4 -1/2/4
v -8.5 0 8
v 6.5 0 8
v -8.5 0 -7
v 6.5 0 -7
f -2/2/5 -3/2/5 -4/2/5
f -1/2/5 -3/2/5 -2/2/5
v -3.5 2 9
v 0.5 2 9
v -3.5 2 8
v 0.5 2 8
f -2/1/5 -3/1/5 -4/1/5
f -1/1/5 -3/1/5 -2/1/5
v -3.5 5 9
v 0.5 5 9
v -3.5 5 8
v 0.5 5 8
f -2/1/5 -3/1/5 -4/1/5
f -1/1/5 -3/1/5 -2/1/5
v 0.5 7 9
v 5.5 7 9
v 0.5 7 8
v 5.5 7 8
f -2/1/5 -3/1/5 -4/1/5
f -1/1/5 -3/1/5 -2/1/5
v -7.5 10 9
v -4.5 10 9
v -7.5 10 8
v -4.5 10 8
f -2/1/5 -3/1/5 -4/1/5
f -1/1/5 -3/1/5 -2/1/5
v -4.5 11 9
v 2.5 11 9
v -4.5 11 8
v 2.5 11 8
f -2/1/5 -3/1/5 -4/1/5
f -1/1/5 -3/1/5 -2/1/5
v -3.5 4 9
v 0.5 4 9
v -3.5 4 8
v 0.5 4 8
f -4/1/6 -3/1/6 -2/1/6
f -2/1/6 -3/1/6 -1/1/6
v -3.5 9 9
v 2.5 9 9
v -3.5 9 8
v 2.5 9 8
f -4/1/6 -3/1/6 -2/1/6
f -2/1/6 -3/1/6 -1/1/6
v -7.5 13 9
v 5.5 13 9
v -7.5 13 8
v 5.5 13 8
f -4/1/6 -3/1/6 -2/1/6
f -2/1/6 -3/1/6 -1/1/6
v -8.5 15 8
v 6.5 15 8
v -8.5 15 -7
v 6.5 15 -7
f -4/2/6 -3/2/6 -2/2/6
f -2/2/6 -3/2/6 -1/2/6
