# MagicaVoxel @ ephtracy

# material
mtllib phone.mtl
usemtl palette

# mesh name
g phone_mesh

# normals
vn -1 0 0
vn 1 0 0
vn 0 0 1
vn 0 0 -1
vn 0 -1 0
vn 0 1 0

# texcoords
vt 0.431641 0.5
vt 0.615234 0.5
vt 0.958984 0.5
vt 0.986328 0.5

# verts
v -1 0 2.5
v -1 0 -2.5
v -1 1 2.5
v -1 1 -2.5
v -1 5 2.5
v -1 5 1.5
v -1 5 -1.5
v -1 5 -2.5
v -1 7 1.5
v -1 7 -1.5
v -1 8 2.5
v -1 8 -2.5
v -1 9 2.5
v -1 9 -2.5
v 1 0 2.5
v 1 0 -2.5
v 1 7 0.5
v 1 7 -0.5
v 1 8 0.5
v 1 8 -0.5
v 1 9 2.5
v 1 9 -2.5
v -1 0 2.5
v -1 1 2.5
v -1 5 2.5
v -1 8 2.5
v -1 9 2.5
v 0 1 2.5
v 0 5 2.5
v 0 8 2.5
v 1 0 2.5
v 1 9 2.5
v -1 0 -2.5
v -1 1 -2.5
v -1 5 -2.5
v -1 8 -2.5
v -1 9 -2.5
v 0 1 -2.5
v 0 5 -2.5
v 0 8 -2.5
v 1 0 -2.5
v 1 9 -2.5
v -1 0 2.5
v 1 0 2.5
v -1 0 -2.5
v 1 0 -2.5
v -1 9 2.5
v 1 9 2.5
v -1 9 -2.5
v 1 9 -2.5

# faces
f 3/3/1 2/3/1 1/3/1
f 4/3/1 2/3/1 3/3/1
f 5/1/1 4/1/1 3/1/1
f 6/1/1 4/1/1 5/1/1
f 7/1/1 4/1/1 6/1/1
f 8/1/1 4/1/1 7/1/1
f 9/2/1 6/2/1 5/2/1
f 9/1/1 7/1/1 6/1/1
f 10/2/1 8/2/1 7/2/1
f 10/1/1 7/1/1 9/1/1
f 11/2/1 9/2/1 5/2/1
f 11/2/1 10/2/1 9/2/1
f 12/2/1 8/2/1 10/2/1
f 12/2/1 10/2/1 11/2/1
f 13/3/1 12/3/1 11/3/1
f 14/3/1 12/3/1 13/3/1
f 15/3/2 16/3/2 17/3/2
f 17/3/2 16/3/2 18/3/2
f 15/3/2 17/3/2 19/3/2
f 17/4/2 18/4/2 19/4/2
f 18/3/2 16/3/2 20/3/2
f 19/4/2 18/4/2 20/4/2
f 15/3/2 19/3/2 21/3/2
f 19/3/2 20/3/2 21/3/2
f 20/3/2 16/3/2 22/3/2
f 21/3/2 20/3/2 22/3/2
f 28/3/3 24/3/3 23/3/3
f 28/1/3 25/1/3 24/1/3
f 29/2/3 26/2/3 25/2/3
f 29/1/3 25/1/3 28/1/3
f 30/3/3 27/3/3 26/3/3
f 30/2/3 26/2/3 29/2/3
f 31/3/3 29/3/3 28/3/3
f 31/3/3 28/3/3 23/3/3
f 31/3/3 30/3/3 29/3/3
f 32/3/3 27/3/3 30/3/3
f 32/3/3 30/3/3 31/3/3
f 33/3/4 34/3/4 38/3/4
f 34/1/4 35/1/4 38/1/4
f 35/2/4 36/2/4 39/2/4
f 38/1/4 35/1/4 39/1/4
f 36/3/4 37/3/4 40/3/4
f 39/2/4 36/2/4 40/2/4
f 38/3/4 39/3/4 41/3/4
f 33/3/4 38/3/4 41/3/4
f 39/3/4 40/3/4 41/3/4
f 40/3/4 37/3/4 42/3/4
f 41/3/4 40/3/4 42/3/4
f 45/3/5 44/3/5 43/3/5
f 46/3/5 44/3/5 45/3/5
f 47/3/6 48/3/6 49/3/6
f 49/3/6 48/3/6 50/3/6
