# MagicaVoxel @ ephtracy

# material
mtllib remote.mtl
usemtl palette

# mesh name
g remote_mesh

# normals
vn -1 0 0
vn 1 0 0
vn 0 0 1
vn 0 0 -1
vn 0 -1 0
vn 0 1 0

# texcoords
vt 0.841797 0.5
vt 0.982422 0.5

# verts and faces
v -7.5 0 1.5
v -7.5 0 -3.5
v -7.5 19 1.5
v -7.5 19 -3.5
f -2/2/1 -3/2/1 -4/2/1
f -1/2/1 -3/2/1 -2/2/1
v -5.5 19 -0.5
v -5.5 19 -3.5
v -5.5 25 -0.5
v -5.5 25 -3.5
f -2/2/1 -3/2/1 -4/2/1
f -1/2/1 -3/2/1 -2/2/1
v -3.5 8 3.5
v -3.5 8 1.5
v -3.5 14 3.5
v -3.5 14 1.5
f -2/1/1 -3/1/1 -4/1/1
f -1/1/1 -3/1/1 -2/1/1
v -2.5 19 -0.5
v -2.5 19 -3.5
v -2.5 25 -0.5
v -2.5 25 -3.5
f -4/2/2 -3/2/2 -2/2/2
f -2/2/2 -3/2/2 -1/2/2
v 3.5 8 3.5
v 3.5 8 1.5
v 3.5 14 3.5
v 3.5 14 1.5
f -4/1/2 -3/1/2 -2/1/2
f -2/1/2 -3/1/2 -1/1/2
v 7.5 0 1.5
v 7.5 0 -3.5
v 7.5 19 1.5
v 7.5 19 -3.5
f -4/2/2 -3/2/2 -2/2/2
f -2/2/2 -3/2/2 -1/2/2
v -3.5 8 3.5
v -3.5 14 3.5
v 3.5 8 3.5
v 3.5 14 3.5
f -2/1/3 -3/1/3 -4/1/3
f -1/1/3 -3/1/3 -2/1/3
v -7.5 0 1.5
v -7.5 19 1.5
v -3.5 8 1.5
v -3.5 14 1.5
v 3.5 8 1.5
v 3.5 14 1.5
v 7.5 0 1.5
v 7.5 19 1.5
f -6/2/3 -7/2/3 -8/2/3
f -5/2/3 -7/2/3 -6/2/3
f -4/2/3 -6/2/3 -8/2/3
f -3/2/3 -7/2/3 -5/2/3
f -2/2/3 -4/2/3 -8/2/3
f -2/2/3 -3/2/3 -4/2/3
f -1/2/3 -7/2/3 -3/2/3
f -1/2/3 -3/2/3 -2/2/3
v -5.5 19 -0.5
v -5.5 25 -0.5
v -2.5 19 -0.5
v -2.5 25 -0.5
f -2/2/3 -3/2/3 -4/2/3
f -1/2/3 -3/2/3 -2/2/3
v -7.5 0 -3.5
v -7.5 19 -3.5
v -5.5 19 -3.5
v -5.5 25 -3.5
v -2.5 19 -3.5
v -2.5 25 -3.5
v 7.5 0 -3.5
v 7.5 19 -3.5
f -8/2/4 -7/2/4 -6/2/4
f -8/2/4 -6/2/4 -4/2/4
f -6/2/4 -5/2/4 -4/2/4
f -4/2/4 -5/2/4 -3/2/4
f -8/2/4 -4/2/4 -2/2/4
f -2/2/4 -4/2/4 -1/2/4
v -7.5 0 1.5
v 7.5 0 1.5
v -7.5 0 -3.5
v 7.5 0 -3.5
f -2/2/5 -3/2/5 -4/2/5
f -1/2/5 -3/2/5 -2/2/5
v -3.5 8 3.5
v 3.5 8 3.5
v -3.5 8 1.5
v 3.5 8 1.5
f -2/1/5 -3/1/5 -4/1/5
f -1/1/5 -3/1/5 -2/1/5
v -3.5 14 3.5
v 3.5 14 3.5
v -3.5 14 1.5
v 3.5 14 1.5
f -4/1/6 -3/1/6 -2/1/6
f -2/1/6 -3/1/6 -1/1/6
v -7.5 19 1.5
v 7.5 19 1.5
v -5.5 19 -0.5
v -2.5 19 -0.5
v -7.5 19 -3.5
v -5.5 19 -3.5
v -2.5 19 -3.5
v 7.5 19 -3.5
f -8/2/6 -7/2/6 -6/2/6
f -6/2/6 -7/2/6 -5/2/6
f -8/2/6 -6/2/6 -4/2/6
f -4/2/6 -6/2/6 -3/2/6
f -5/2/6 -7/2/6 -2/2/6
f -2/2/6 -7/2/6 -1/2/6
v -5.5 25 -0.5
v -2.5 25 -0.5
v -5.5 25 -3.5
v -2.5 25 -3.5
f -4/2/6 -3/2/6 -2/2/6
f -2/2/6 -3/2/6 -1/2/6
