# MagicaVoxel @ ephtracy

# material
mtllib ring.mtl

# mesh name
g ring_mesh

# normals
vn -1 0 0
vn 1 0 0
vn 0 0 1
vn 0 0 -1
vn 0 -1 0
vn 0 1 0

# texcoords
vt 0.0644531 0.5

# verts
v -16 0 6
v -16 0 -5
v -16 1 6
v -16 1 -5
f -2/1/1 -3/1/1 -4/1/1
f -1/1/1 -3/1/1 -2/1/1
v -15 0 8
v -15 0 6
v -15 0 -5
v -15 0 -7
v -15 1 8
v -15 1 6
v -15 1 -5
v -15 1 -7
f -4/1/1 -7/1/1 -8/1/1
f -3/1/1 -7/1/1 -4/1/1
f -2/1/1 -5/1/1 -6/1/1
f -1/1/1 -5/1/1 -2/1/1
v -14 0 10
v -14 0 8
v -14 0 -7
v -14 0 -9
v -14 1 10
v -14 1 8
v -14 1 -7
v -14 1 -9
f -4/1/1 -7/1/1 -8/1/1
f -3/1/1 -7/1/1 -4/1/1
f -2/1/1 -5/1/1 -6/1/1
f -1/1/1 -5/1/1 -2/1/1
v -13 0 11
v -13 0 10
v -13 0 -9
v -13 0 -10
v -13 1 11
v -13 1 10
v -13 1 -9
v -13 1 -10
f -4/1/1 -7/1/1 -8/1/1
f -3/1/1 -7/1/1 -4/1/1
f -2/1/1 -5/1/1 -6/1/1
f -1/1/1 -5/1/1 -2/1/1
v -12 0 12
v -12 0 11
v -12 0 -10
v -12 0 -11
v -12 1 12
v -12 1 11
v -12 1 -10
v -12 1 -11
f -4/1/1 -7/1/1 -8/1/1
f -3/1/1 -7/1/1 -4/1/1
f -2/1/1 -5/1/1 -6/1/1
f -1/1/1 -5/1/1 -2/1/1
v -11 0 13
v -11 0 12
v -11 0 -11
v -11 0 -12
v -11 1 13
v -11 1 12
v -11 1 -11
v -11 1 -12
f -4/1/1 -7/1/1 -8/1/1
f -3/1/1 -7/1/1 -4/1/1
f -2/1/1 -5/1/1 -6/1/1
f -1/1/1 -5/1/1 -2/1/1
v -10 0 14
v -10 0 13
v -10 0 -12
v -10 0 -13
v -10 1 14
v -10 1 13
v -10 1 -12
v -10 1 -13
f -4/1/1 -7/1/1 -8/1/1
f -3/1/1 -7/1/1 -4/1/1
f -2/1/1 -5/1/1 -6/1/1
f -1/1/1 -5/1/1 -2/1/1
v -8 0 15
v -8 0 14
v -8 0 -13
v -8 0 -14
v -8 1 15
v -8 1 14
v -8 1 -13
v -8 1 -14
f -4/1/1 -7/1/1 -8/1/1
f -3/1/1 -7/1/1 -4/1/1
f -2/1/1 -5/1/1 -6/1/1
f -1/1/1 -5/1/1 -2/1/1
v -6 0 16
v -6 0 15
v -6 1 16
v -6 1 15
f -2/1/1 -3/1/1 -4/1/1
f -1/1/1 -3/1/1 -2/1/1
v 4 0 13
v 4 0 12
v 4 0 -11
v 4 0 -12
v 4 1 13
v 4 1 12
v 4 1 -11
v 4 1 -12
f -4/1/1 -7/1/1 -8/1/1
f -3/1/1 -7/1/1 -4/1/1
f -2/1/1 -5/1/1 -6/1/1
f -1/1/1 -5/1/1 -2/1/1
v 6 0 12
v 6 0 11
v 6 0 -10
v 6 0 -11
v 6 1 12
v 6 1 11
v 6 1 -10
v 6 1 -11
f -4/1/1 -7/1/1 -8/1/1
f -3/1/1 -7/1/1 -4/1/1
f -2/1/1 -5/1/1 -6/1/1
f -1/1/1 -5/1/1 -2/1/1
v 8 0 11
v 8 0 10
v 8 0 -9
v 8 0 -10
v 8 1 11
v 8 1 10
v 8 1 -9
v 8 1 -10
f -4/1/1 -7/1/1 -8/1/1
f -3/1/1 -7/1/1 -4/1/1
f -2/1/1 -5/1/1 -6/1/1
f -1/1/1 -5/1/1 -2/1/1
v 9 0 10
v 9 0 9
v 9 0 -8
v 9 0 -9
v 9 1 10
v 9 1 9
v 9 1 -8
v 9 1 -9
f -4/1/1 -7/1/1 -8/1/1
f -3/1/1 -7/1/1 -4/1/1
f -2/1/1 -5/1/1 -6/1/1
f -1/1/1 -5/1/1 -2/1/1
v 10 0 9
v 10 0 7
v 10 0 -6
v 10 0 -8
v 10 1 9
v 10 1 7
v 10 1 -6
v 10 1 -8
f -4/1/1 -7/1/1 -8/1/1
f -3/1/1 -7/1/1 -4/1/1
f -2/1/1 -5/1/1 -6/1/1
f -1/1/1 -5/1/1 -2/1/1
v 11 0 7
v 11 0 5
v 11 0 -4
v 11 0 -6
v 11 1 7
v 11 1 5
v 11 1 -4
v 11 1 -6
f -4/1/1 -7/1/1 -8/1/1
f -3/1/1 -7/1/1 -4/1/1
f -2/1/1 -5/1/1 -6/1/1
f -1/1/1 -5/1/1 -2/1/1
v 12 0 5
v 12 0 -4
v 12 1 5
v 12 1 -4
f -2/1/1 -3/1/1 -4/1/1
f -1/1/1 -3/1/1 -2/1/1
v -13 0 5
v -13 0 -4
v -13 1 5
v -13 1 -4
f -4/1/2 -3/1/2 -2/1/2
f -2/1/2 -3/1/2 -1/1/2
v -12 0 7
v -12 0 5
v -12 0 -4
v -12 0 -6
v -12 1 7
v -12 1 5
v -12 1 -4
v -12 1 -6
f -8/1/2 -7/1/2 -4/1/2
f -4/1/2 -7/1/2 -3/1/2
f -6/1/2 -5/1/2 -2/1/2
f -2/1/2 -5/1/2 -1/1/2
v -11 0 9
v -11 0 7
v -11 0 -6
v -11 0 -8
v -11 1 9
v -11 1 7
v -11 1 -6
v -11 1 -8
f -8/1/2 -7/1/2 -4/1/2
f -4/1/2 -7/1/2 -3/1/2
f -6/1/2 -5/1/2 -2/1/2
f -2/1/2 -5/1/2 -1/1/2
v -10 0 10
v -10 0 9
v -10 0 -8
v -10 0 -9
v -10 1 10
v -10 1 9
v -10 1 -8
v -10 1 -9
f -8/1/2 -7/1/2 -4/1/2
f -4/1/2 -7/1/2 -3/1/2
f -6/1/2 -5/1/2 -2/1/2
f -2/1/2 -5/1/2 -1/1/2
v -9 0 11
v -9 0 10
v -9 0 -9
v -9 0 -10
v -9 1 11
v -9 1 10
v -9 1 -9
v -9 1 -10
f -8/1/2 -7/1/2 -4/1/2
f -4/1/2 -7/1/2 -3/1/2
f -6/1/2 -5/1/2 -2/1/2
f -2/1/2 -5/1/2 -1/1/2
v -7 0 12
v -7 0 11
v -7 0 -10
v -7 0 -11
v -7 1 12
v -7 1 11
v -7 1 -10
v -7 1 -11
f -8/1/2 -7/1/2 -4/1/2
f -4/1/2 -7/1/2 -3/1/2
f -6/1/2 -5/1/2 -2/1/2
f -2/1/2 -5/1/2 -1/1/2
v -5 0 13
v -5 0 12
v -5 0 -11
v -5 0 -12
v -5 1 13
v -5 1 12
v -5 1 -11
v -5 1 -12
f -8/1/2 -7/1/2 -4/1/2
f -4/1/2 -7/1/2 -3/1/2
f -6/1/2 -5/1/2 -2/1/2
f -2/1/2 -5/1/2 -1/1/2
v 5 0 16
v 5 0 15
v 5 1 16
v 5 1 15
f -4/1/2 -3/1/2 -2/1/2
f -2/1/2 -3/1/2 -1/1/2
v 7 0 15
v 7 0 14
v 7 0 -13
v 7 0 -14
v 7 1 15
v 7 1 14
v 7 1 -13
v 7 1 -14
f -8/1/2 -7/1/2 -4/1/2
f -4/1/2 -7/1/2 -3/1/2
f -6/1/2 -5/1/2 -2/1/2
f -2/1/2 -5/1/2 -1/1/2
v 9 0 14
v 9 0 13
v 9 0 -12
v 9 0 -13
v 9 1 14
v 9 1 13
v 9 1 -12
v 9 1 -13
f -8/1/2 -7/1/2 -4/1/2
f -4/1/2 -7/1/2 -3/1/2
f -6/1/2 -5/1/2 -2/1/2
f -2/1/2 -5/1/2 -1/1/2
v 10 0 13
v 10 0 12
v 10 0 -11
v 10 0 -12
v 10 1 13
v 10 1 12
v 10 1 -11
v 10 1 -12
f -8/1/2 -7/1/2 -4/1/2
f -4/1/2 -7/1/2 -3/1/2
f -6/1/2 -5/1/2 -2/1/2
f -2/1/2 -5/1/2 -1/1/2
v 11 0 12
v 11 0 11
v 11 0 -10
v 11 0 -11
v 11 1 12
v 11 1 11
v 11 1 -10
v 11 1 -11
f -8/1/2 -7/1/2 -4/1/2
f -4/1/2 -7/1/2 -3/1/2
f -6/1/2 -5/1/2 -2/1/2
f -2/1/2 -5/1/2 -1/1/2
v 12 0 11
v 12 0 10
v 12 0 -9
v 12 0 -10
v 12 1 11
v 12 1 10
v 12 1 -9
v 12 1 -10
f -8/1/2 -7/1/2 -4/1/2
f -4/1/2 -7/1/2 -3/1/2
f -6/1/2 -5/1/2 -2/1/2
f -2/1/2 -5/1/2 -1/1/2
v 13 0 10
v 13 0 8
v 13 0 -7
v 13 0 -9
v 13 1 10
v 13 1 8
v 13 1 -7
v 13 1 -9
f -8/1/2 -7/1/2 -4/1/2
f -4/1/2 -7/1/2 -3/1/2
f -6/1/2 -5/1/2 -2/1/2
f -2/1/2 -5/1/2 -1/1/2
v 14 0 8
v 14 0 -7
v 14 1 8
v 14 1 -7
f -4/1/2 -3/1/2 -2/1/2
f -2/1/2 -3/1/2 -1/1/2
v -6 0 16
v -6 1 16
v 5 0 16
v 5 1 16
f -2/1/3 -3/1/3 -4/1/3
f -1/1/3 -3/1/3 -2/1/3
v -8 0 15
v -8 1 15
v -6 0 15
v -6 1 15
v 5 0 15
v 5 1 15
v 7 0 15
v 7 1 15
f -6/1/3 -7/1/3 -8/1/3
f -5/1/3 -7/1/3 -6/1/3
f -2/1/3 -3/1/3 -4/1/3
f -1/1/3 -3/1/3 -2/1/3
v -10 0 14
v -10 1 14
v -8 0 14
v -8 1 14
v 7 0 14
v 7 1 14
v 9 0 14
v 9 1 14
f -6/1/3 -7/1/3 -8/1/3
f -5/1/3 -7/1/3 -6/1/3
f -2/1/3 -3/1/3 -4/1/3
f -1/1/3 -3/1/3 -2/1/3
v -11 0 13
v -11 1 13
v -10 0 13
v -10 1 13
v 9 0 13
v 9 1 13
v 10 0 13
v 10 1 13
f -6/1/3 -7/1/3 -8/1/3
f -5/1/3 -7/1/3 -6/1/3
f -2/1/3 -3/1/3 -4/1/3
f -1/1/3 -3/1/3 -2/1/3
v -12 0 12
v -12 1 12
v -11 0 12
v -11 1 12
v 10 0 12
v 10 1 12
v 11 0 12
v 11 1 12
f -6/1/3 -7/1/3 -8/1/3
f -5/1/3 -7/1/3 -6/1/3
f -2/1/3 -3/1/3 -4/1/3
f -1/1/3 -3/1/3 -2/1/3
v -13 0 11
v -13 1 11
v -12 0 11
v -12 1 11
v 11 0 11
v 11 1 11
v 12 0 11
v 12 1 11
f -6/1/3 -7/1/3 -8/1/3
f -5/1/3 -7/1/3 -6/1/3
f -2/1/3 -3/1/3 -4/1/3
f -1/1/3 -3/1/3 -2/1/3
v -14 0 10
v -14 1 10
v -13 0 10
v -13 1 10
v 12 0 10
v 12 1 10
v 13 0 10
v 13 1 10
f -6/1/3 -7/1/3 -8/1/3
f -5/1/3 -7/1/3 -6/1/3
f -2/1/3 -3/1/3 -4/1/3
f -1/1/3 -3/1/3 -2/1/3
v -15 0 8
v -15 1 8
v -14 0 8
v -14 1 8
v 13 0 8
v 13 1 8
v 14 0 8
v 14 1 8
f -6/1/3 -7/1/3 -8/1/3
f -5/1/3 -7/1/3 -6/1/3
f -2/1/3 -3/1/3 -4/1/3
f -1/1/3 -3/1/3 -2/1/3
v -16 0 6
v -16 1 6
v -15 0 6
v -15 1 6
f -2/1/3 -3/1/3 -4/1/3
f -1/1/3 -3/1/3 -2/1/3
v -13 0 -4
v -13 1 -4
v -12 0 -4
v -12 1 -4
v 11 0 -4
v 11 1 -4
v 12 0 -4
v 12 1 -4
f -6/1/3 -7/1/3 -8/1/3
f -5/1/3 -7/1/3 -6/1/3
f -2/1/3 -3/1/3 -4/1/3
f -1/1/3 -3/1/3 -2/1/3
v -12 0 -6
v -12 1 -6
v -11 0 -6
v -11 1 -6
v 10 0 -6
v 10 1 -6
v 11 0 -6
v 11 1 -6
f -6/1/3 -7/1/3 -8/1/3
f -5/1/3 -7/1/3 -6/1/3
f -2/1/3 -3/1/3 -4/1/3
f -1/1/3 -3/1/3 -2/1/3
v -11 0 -8
v -11 1 -8
v -10 0 -8
v -10 1 -8
v 9 0 -8
v 9 1 -8
v 10 0 -8
v 10 1 -8
f -6/1/3 -7/1/3 -8/1/3
f -5/1/3 -7/1/3 -6/1/3
f -2/1/3 -3/1/3 -4/1/3
f -1/1/3 -3/1/3 -2/1/3
v -10 0 -9
v -10 1 -9
v -9 0 -9
v -9 1 -9
v 8 0 -9
v 8 1 -9
v 9 0 -9
v 9 1 -9
f -6/1/3 -7/1/3 -8/1/3
f -5/1/3 -7/1/3 -6/1/3
f -2/1/3 -3/1/3 -4/1/3
f -1/1/3 -3/1/3 -2/1/3
v -9 0 -10
v -9 1 -10
v -7 0 -10
v -7 1 -10
v 6 0 -10
v 6 1 -10
v 8 0 -10
v 8 1 -10
f -6/1/3 -7/1/3 -8/1/3
f -5/1/3 -7/1/3 -6/1/3
f -2/1/3 -3/1/3 -4/1/3
f -1/1/3 -3/1/3 -2/1/3
v -7 0 -11
v -7 1 -11
v -5 0 -11
v -5 1 -11
v 4 0 -11
v 4 1 -11
v 6 0 -11
v 6 1 -11
f -6/1/3 -7/1/3 -8/1/3
f -5/1/3 -7/1/3 -6/1/3
f -2/1/3 -3/1/3 -4/1/3
f -1/1/3 -3/1/3 -2/1/3
v -5 0 -12
v -5 1 -12
v 4 0 -12
v 4 1 -12
f -2/1/3 -3/1/3 -4/1/3
f -1/1/3 -3/1/3 -2/1/3
v -5 0 13
v -5 1 13
v 4 0 13
v 4 1 13
f -4/1/4 -3/1/4 -2/1/4
f -2/1/4 -3/1/4 -1/1/4
v -7 0 12
v -7 1 12
v -5 0 12
v -5 1 12
v 4 0 12
v 4 1 12
v 6 0 12
v 6 1 12
f -8/1/4 -7/1/4 -6/1/4
f -6/1/4 -7/1/4 -5/1/4
f -4/1/4 -3/1/4 -2/1/4
f -2/1/4 -3/1/4 -1/1/4
v -9 0 11
v -9 1 11
v -7 0 11
v -7 1 11
v 6 0 11
v 6 1 11
v 8 0 11
v 8 1 11
f -8/1/4 -7/1/4 -6/1/4
f -6/1/4 -7/1/4 -5/1/4
f -4/1/4 -3/1/4 -2/1/4
f -2/1/4 -3/1/4 -1/1/4
v -10 0 10
v -10 1 10
v -9 0 10
v -9 1 10
v 8 0 10
v 8 1 10
v 9 0 10
v 9 1 10
f -8/1/4 -7/1/4 -6/1/4
f -6/1/4 -7/1/4 -5/1/4
f -4/1/4 -3/1/4 -2/1/4
f -2/1/4 -3/1/4 -1/1/4
v -11 0 9
v -11 1 9
v -10 0 9
v -10 1 9
v 9 0 9
v 9 1 9
v 10 0 9
v 10 1 9
f -8/1/4 -7/1/4 -6/1/4
f -6/1/4 -7/1/4 -5/1/4
f -4/1/4 -3/1/4 -2/1/4
f -2/1/4 -3/1/4 -1/1/4
v -12 0 7
v -12 1 7
v -11 0 7
v -11 1 7
v 10 0 7
v 10 1 7
v 11 0 7
v 11 1 7
f -8/1/4 -7/1/4 -6/1/4
f -6/1/4 -7/1/4 -5/1/4
f -4/1/4 -3/1/4 -2/1/4
f -2/1/4 -3/1/4 -1/1/4
v -13 0 5
v -13 1 5
v -12 0 5
v -12 1 5
v 11 0 5
v 11 1 5
v 12 0 5
v 12 1 5
f -8/1/4 -7/1/4 -6/1/4
f -6/1/4 -7/1/4 -5/1/4
f -4/1/4 -3/1/4 -2/1/4
f -2/1/4 -3/1/4 -1/1/4
v -16 0 -5
v -16 1 -5
v -15 0 -5
v -15 1 -5
f -4/1/4 -3/1/4 -2/1/4
f -2/1/4 -3/1/4 -1/1/4
v -15 0 -7
v -15 1 -7
v -14 0 -7
v -14 1 -7
v 13 0 -7
v 13 1 -7
v 14 0 -7
v 14 1 -7
f -8/1/4 -7/1/4 -6/1/4
f -6/1/4 -7/1/4 -5/1/4
f -4/1/4 -3/1/4 -2/1/4
f -2/1/4 -3/1/4 -1/1/4
v -14 0 -9
v -14 1 -9
v -13 0 -9
v -13 1 -9
v 12 0 -9
v 12 1 -9
v 13 0 -9
v 13 1 -9
f -8/1/4 -7/1/4 -6/1/4
f -6/1/4 -7/1/4 -5/1/4
f -4/1/4 -3/1/4 -2/1/4
f -2/1/4 -3/1/4 -1/1/4
v -13 0 -10
v -13 1 -10
v -12 0 -10
v -12 1 -10
v 11 0 -10
v 11 1 -10
v 12 0 -10
v 12 1 -10
f -8/1/4 -7/1/4 -6/1/4
f -6/1/4 -7/1/4 -5/1/4
f -4/1/4 -3/1/4 -2/1/4
f -2/1/4 -3/1/4 -1/1/4
v -12 0 -11
v -12 1 -11
v -11 0 -11
v -11 1 -11
v 10 0 -11
v 10 1 -11
v 11 0 -11
v 11 1 -11
f -8/1/4 -7/1/4 -6/1/4
f -6/1/4 -7/1/4 -5/1/4
f -4/1/4 -3/1/4 -2/1/4
f -2/1/4 -3/1/4 -1/1/4
v -11 0 -12
v -11 1 -12
v -10 0 -12
v -10 1 -12
v 9 0 -12
v 9 1 -12
v 10 0 -12
v 10 1 -12
f -8/1/4 -7/1/4 -6/1/4
f -6/1/4 -7/1/4 -5/1/4
f -4/1/4 -3/1/4 -2/1/4
f -2/1/4 -3/1/4 -1/1/4
v -10 0 -13
v -10 1 -13
v -8 0 -13
v -8 1 -13
v 7 0 -13
v 7 1 -13
v 9 0 -13
v 9 1 -13
f -8/1/4 -7/1/4 -6/1/4
f -6/1/4 -7/1/4 -5/1/4
f -4/1/4 -3/1/4 -2/1/4
f -2/1/4 -3/1/4 -1/1/4
v -8 0 -14
v -8 1 -14
v 7 0 -14
v 7 1 -14
f -4/1/4 -3/1/4 -2/1/4
f -2/1/4 -3/1/4 -1/1/4
v -6 0 16
v 5 0 16
v -8 0 15
v -6 0 15
v 5 0 15
v 7 0 15
v -10 0 14
v -8 0 14
v 7 0 14
v 9 0 14
v -11 0 13
v -10 0 13
v -5 0 13
v 4 0 13
v 9 0 13
v 10 0 13
v -12 0 12
v -11 0 12
v -7 0 12
v -5 0 12
v 4 0 12
v 6 0 12
v 10 0 12
v 11 0 12
v -13 0 11
v -12 0 11
v -9 0 11
v -7 0 11
v 6 0 11
v 8 0 11
v 11 0 11
v 12 0 11
v -14 0 10
v -13 0 10
v -10 0 10
v -9 0 10
v 8 0 10
v 9 0 10
v 12 0 10
v 13 0 10
v -11 0 9
v -10 0 9
v 9 0 9
v 10 0 9
v -15 0 8
v -14 0 8
v 13 0 8
v 14 0 8
v -12 0 7
v -11 0 7
v 10 0 7
v 11 0 7
v -16 0 6
v -15 0 6
v -13 0 5
v -12 0 5
v 11 0 5
v 12 0 5
v -13 0 -4
v -12 0 -4
v 11 0 -4
v 12 0 -4
v -16 0 -5
v -15 0 -5
v -12 0 -6
v -11 0 -6
v 10 0 -6
v 11 0 -6
v -15 0 -7
v -14 0 -7
v 13 0 -7
v 14 0 -7
v -11 0 -8
v -10 0 -8
v 9 0 -8
v 10 0 -8
v -14 0 -9
v -13 0 -9
v -10 0 -9
v -9 0 -9
v 8 0 -9
v 9 0 -9
v 12 0 -9
v 13 0 -9
v -13 0 -10
v -12 0 -10
v -9 0 -10
v -7 0 -10
v 6 0 -10
v 8 0 -10
v 11 0 -10
v 12 0 -10
v -12 0 -11
v -11 0 -11
v -7 0 -11
v -5 0 -11
v 4 0 -11
v 6 0 -11
v 10 0 -11
v 11 0 -11
v -11 0 -12
v -10 0 -12
v -5 0 -12
v 4 0 -12
v 9 0 -12
v 10 0 -12
v -10 0 -13
v -8 0 -13
v 7 0 -13
v 9 0 -13
v -8 0 -14
v 7 0 -14
f -109/1/5 -111/1/5 -112/1/5
f -108/1/5 -111/1/5 -109/1/5
f -105/1/5 -109/1/5 -110/1/5
f -105/1/5 -107/1/5 -108/1/5
f -105/1/5 -108/1/5 -109/1/5
f -104/1/5 -107/1/5 -105/1/5
f -101/1/5 -105/1/5 -106/1/5
f -101/1/5 -103/1/5 -104/1/5
f -101/1/5 -104/1/5 -105/1/5
f -100/1/5 -103/1/5 -101/1/5
f -99/1/5 -103/1/5 -100/1/5
f -98/1/5 -103/1/5 -99/1/5
f -95/1/5 -101/1/5 -102/1/5
f -95/1/5 -100/1/5 -101/1/5
f -94/1/5 -100/1/5 -95/1/5
f -93/1/5 -100/1/5 -94/1/5
f -92/1/5 -98/1/5 -99/1/5
f -92/1/5 -97/1/5 -98/1/5
f -91/1/5 -97/1/5 -92/1/5
f -90/1/5 -97/1/5 -91/1/5
f -87/1/5 -94/1/5 -95/1/5
f -87/1/5 -95/1/5 -96/1/5
f -86/1/5 -94/1/5 -87/1/5
f -85/1/5 -94/1/5 -86/1/5
f -84/1/5 -89/1/5 -90/1/5
f -84/1/5 -90/1/5 -91/1/5
f -83/1/5 -89/1/5 -84/1/5
f -82/1/5 -89/1/5 -83/1/5
f -79/1/5 -86/1/5 -87/1/5
f -79/1/5 -87/1/5 -88/1/5
f -78/1/5 -86/1/5 -79/1/5
f -77/1/5 -86/1/5 -78/1/5
f -76/1/5 -81/1/5 -82/1/5
f -76/1/5 -82/1/5 -83/1/5
f -75/1/5 -81/1/5 -76/1/5
f -74/1/5 -81/1/5 -75/1/5
f -72/1/5 -78/1/5 -79/1/5
f -72/1/5 -79/1/5 -80/1/5
f -71/1/5 -78/1/5 -72/1/5
f -70/1/5 -73/1/5 -74/1/5
f -70/1/5 -74/1/5 -75/1/5
f -69/1/5 -73/1/5 -70/1/5
f -67/1/5 -72/1/5 -80/1/5
f -66/1/5 -73/1/5 -69/1/5
f -64/1/5 -67/1/5 -68/1/5
f -64/1/5 -72/1/5 -67/1/5
f -63/1/5 -72/1/5 -64/1/5
f -62/1/5 -65/1/5 -66/1/5
f -62/1/5 -66/1/5 -69/1/5
f -61/1/5 -65/1/5 -62/1/5
f -59/1/5 -64/1/5 -68/1/5
f -58/1/5 -64/1/5 -59/1/5
f -58/1/5 -59/1/5 -60/1/5
f -57/1/5 -64/1/5 -58/1/5
f -56/1/5 -65/1/5 -61/1/5
f -55/1/5 -65/1/5 -56/1/5
f -54/1/5 -58/1/5 -60/1/5
f -51/1/5 -65/1/5 -55/1/5
f -50/1/5 -53/1/5 -54/1/5
f -50/1/5 -54/1/5 -60/1/5
f -49/1/5 -53/1/5 -50/1/5
f -48/1/5 -53/1/5 -49/1/5
f -45/1/5 -51/1/5 -52/1/5
f -44/1/5 -47/1/5 -48/1/5
f -44/1/5 -48/1/5 -49/1/5
f -43/1/5 -47/1/5 -44/1/5
f -42/1/5 -45/1/5 -46/1/5
f -42/1/5 -65/1/5 -51/1/5
f -42/1/5 -51/1/5 -45/1/5
f -41/1/5 -65/1/5 -42/1/5
f -40/1/5 -47/1/5 -43/1/5
f -37/1/5 -42/1/5 -46/1/5
f -36/1/5 -39/1/5 -40/1/5
f -36/1/5 -40/1/5 -43/1/5
f -35/1/5 -39/1/5 -36/1/5
f -34/1/5 -39/1/5 -35/1/5
f -31/1/5 -37/1/5 -38/1/5
f -30/1/5 -42/1/5 -37/1/5
f -30/1/5 -37/1/5 -31/1/5
f -29/1/5 -42/1/5 -30/1/5
f -28/1/5 -33/1/5 -34/1/5
f -28/1/5 -34/1/5 -35/1/5
f -27/1/5 -33/1/5 -28/1/5
f -26/1/5 -33/1/5 -27/1/5
f -23/1/5 -31/1/5 -32/1/5
f -23/1/5 -30/1/5 -31/1/5
f -22/1/5 -30/1/5 -23/1/5
f -21/1/5 -30/1/5 -22/1/5
f -20/1/5 -25/1/5 -26/1/5
f -20/1/5 -26/1/5 -27/1/5
f -19/1/5 -25/1/5 -20/1/5
f -18/1/5 -25/1/5 -19/1/5
f -15/1/5 -22/1/5 -23/1/5
f -15/1/5 -23/1/5 -24/1/5
f -14/1/5 -22/1/5 -15/1/5
f -13/1/5 -22/1/5 -14/1/5
f -12/1/5 -17/1/5 -18/1/5
f -12/1/5 -18/1/5 -19/1/5
f -11/1/5 -17/1/5 -12/1/5
f -10/1/5 -17/1/5 -11/1/5
f -9/1/5 -14/1/5 -15/1/5
f -9/1/5 -15/1/5 -16/1/5
f -8/1/5 -14/1/5 -9/1/5
f -7/1/5 -14/1/5 -8/1/5
f -6/1/5 -10/1/5 -11/1/5
f -6/1/5 -8/1/5 -9/1/5
f -6/1/5 -9/1/5 -10/1/5
f -5/1/5 -8/1/5 -6/1/5
f -4/1/5 -8/1/5 -5/1/5
f -3/1/5 -8/1/5 -4/1/5
f -2/1/5 -4/1/5 -5/1/5
f -1/1/5 -4/1/5 -2/1/5
v -6 1 16
v 5 1 16
v -8 1 15
v -6 1 15
v 5 1 15
v 7 1 15
v -10 1 14
v -8 1 14
v 7 1 14
v 9 1 14
v -11 1 13
v -10 1 13
v -5 1 13
v 4 1 13
v 9 1 13
v 10 1 13
v -12 1 12
v -11 1 12
v -7 1 12
v -5 1 12
v 4 1 12
v 6 1 12
v 10 1 12
v 11 1 12
v -13 1 11
v -12 1 11
v -9 1 11
v -7 1 11
v 6 1 11
v 8 1 11
v 11 1 11
v 12 1 11
v -14 1 10
v -13 1 10
v -10 1 10
v -9 1 10
v 8 1 10
v 9 1 10
v 12 1 10
v 13 1 10
v -11 1 9
v -10 1 9
v 9 1 9
v 10 1 9
v -15 1 8
v -14 1 8
v 13 1 8
v 14 1 8
v -12 1 7
v -11 1 7
v 10 1 7
v 11 1 7
v -16 1 6
v -15 1 6
v -13 1 5
v -12 1 5
v 11 1 5
v 12 1 5
v -13 1 -4
v -12 1 -4
v 11 1 -4
v 12 1 -4
v -16 1 -5
v -15 1 -5
v -12 1 -6
v -11 1 -6
v 10 1 -6
v 11 1 -6
v -15 1 -7
v -14 1 -7
v 13 1 -7
v 14 1 -7
v -11 1 -8
v -10 1 -8
v 9 1 -8
v 10 1 -8
v -14 1 -9
v -13 1 -9
v -10 1 -9
v -9 1 -9
v 8 1 -9
v 9 1 -9
v 12 1 -9
v 13 1 -9
v -13 1 -10
v -12 1 -10
v -9 1 -10
v -7 1 -10
v 6 1 -10
v 8 1 -10
v 11 1 -10
v 12 1 -10
v -12 1 -11
v -11 1 -11
v -7 1 -11
v -5 1 -11
v 4 1 -11
v 6 1 -11
v 10 1 -11
v 11 1 -11
v -11 1 -12
v -10 1 -12
v -5 1 -12
v 4 1 -12
v 9 1 -12
v 10 1 -12
v -10 1 -13
v -8 1 -13
v 7 1 -13
v 9 1 -13
v -8 1 -14
v 7 1 -14
f -112/1/6 -111/1/6 -109/1/6
f -109/1/6 -111/1/6 -108/1/6
f -110/1/6 -109/1/6 -105/1/6
f -108/1/6 -107/1/6 -105/1/6
f -109/1/6 -108/1/6 -105/1/6
f -105/1/6 -107/1/6 -104/1/6
f -106/1/6 -105/1/6 -101/1/6
f -104/1/6 -103/1/6 -101/1/6
f -105/1/6 -104/1/6 -101/1/6
f -101/1/6 -103/1/6 -100/1/6
f -100/1/6 -103/1/6 -99/1/6
f -99/1/6 -103/1/6 -98/1/6
f -102/1/6 -101/1/6 -95/1/6
f -101/1/6 -100/1/6 -95/1/6
f -95/1/6 -100/1/6 -94/1/6
f -94/1/6 -100/1/6 -93/1/6
f -99/1/6 -98/1/6 -92/1/6
f -98/1/6 -97/1/6 -92/1/6
f -92/1/6 -97/1/6 -91/1/6
f -91/1/6 -97/1/6 -90/1/6
f -95/1/6 -94/1/6 -87/1/6
f -96/1/6 -95/1/6 -87/1/6
f -87/1/6 -94/1/6 -86/1/6
f -86/1/6 -94/1/6 -85/1/6
f -90/1/6 -89/1/6 -84/1/6
f -91/1/6 -90/1/6 -84/1/6
f -84/1/6 -89/1/6 -83/1/6
f -83/1/6 -89/1/6 -82/1/6
f -87/1/6 -86/1/6 -79/1/6
f -88/1/6 -87/1/6 -79/1/6
f -79/1/6 -86/1/6 -78/1/6
f -78/1/6 -86/1/6 -77/1/6
f -82/1/6 -81/1/6 -76/1/6
f -83/1/6 -82/1/6 -76/1/6
f -76/1/6 -81/1/6 -75/1/6
f -75/1/6 -81/1/6 -74/1/6
f -79/1/6 -78/1/6 -72/1/6
f -80/1/6 -79/1/6 -72/1/6
f -72/1/6 -78/1/6 -71/1/6
f -74/1/6 -73/1/6 -70/1/6
f -75/1/6 -74/1/6 -70/1/6
f -70/1/6 -73/1/6 -69/1/6
f -80/1/6 -72/1/6 -67/1/6
f -69/1/6 -73/1/6 -66/1/6
f -68/1/6 -67/1/6 -64/1/6
f -67/1/6 -72/1/6 -64/1/6
f -64/1/6 -72/1/6 -63/1/6
f -66/1/6 -65/1/6 -62/1/6
f -69/1/6 -66/1/6 -62/1/6
f -62/1/6 -65/1/6 -61/1/6
f -68/1/6 -64/1/6 -59/1/6
f -59/1/6 -64/1/6 -58/1/6
f -60/1/6 -59/1/6 -58/1/6
f -58/1/6 -64/1/6 -57/1/6
f -61/1/6 -65/1/6 -56/1/6
f -56/1/6 -65/1/6 -55/1/6
f -60/1/6 -58/1/6 -54/1/6
f -55/1/6 -65/1/6 -51/1/6
f -54/1/6 -53/1/6 -50/1/6
f -60/1/6 -54/1/6 -50/1/6
f -50/1/6 -53/1/6 -49/1/6
f -49/1/6 -53/1/6 -48/1/6
f -52/1/6 -51/1/6 -45/1/6
f -48/1/6 -47/1/6 -44/1/6
f -49/1/6 -48/1/6 -44/1/6
f -44/1/6 -47/1/6 -43/1/6
f -46/1/6 -45/1/6 -42/1/6
f -51/1/6 -65/1/6 -42/1/6
f -45/1/6 -51/1/6 -42/1/6
f -42/1/6 -65/1/6 -41/1/6
f -43/1/6 -47/1/6 -40/1/6
f -46/1/6 -42/1/6 -37/1/6
f -40/1/6 -39/1/6 -36/1/6
f -43/1/6 -40/1/6 -36/1/6
f -36/1/6 -39/1/6 -35/1/6
f -35/1/6 -39/1/6 -34/1/6
f -38/1/6 -37/1/6 -31/1/6
f -37/1/6 -42/1/6 -30/1/6
f -31/1/6 -37/1/6 -30/1/6
f -30/1/6 -42/1/6 -29/1/6
f -34/1/6 -33/1/6 -28/1/6
f -35/1/6 -34/1/6 -28/1/6
f -28/1/6 -33/1/6 -27/1/6
f -27/1/6 -33/1/6 -26/1/6
f -32/1/6 -31/1/6 -23/1/6
f -31/1/6 -30/1/6 -23/1/6
f -23/1/6 -30/1/6 -22/1/6
f -22/1/6 -30/1/6 -21/1/6
f -26/1/6 -25/1/6 -20/1/6
f -27/1/6 -26/1/6 -20/1/6
f -20/1/6 -25/1/6 -19/1/6
f -19/1/6 -25/1/6 -18/1/6
f -23/1/6 -22/1/6 -15/1/6
f -24/1/6 -23/1/6 -15/1/6
f -15/1/6 -22/1/6 -14/1/6
f -14/1/6 -22/1/6 -13/1/6
f -18/1/6 -17/1/6 -12/1/6
f -19/1/6 -18/1/6 -12/1/6
f -12/1/6 -17/1/6 -11/1/6
f -11/1/6 -17/1/6 -10/1/6
f -15/1/6 -14/1/6 -9/1/6
f -16/1/6 -15/1/6 -9/1/6
f -9/1/6 -14/1/6 -8/1/6
f -8/1/6 -14/1/6 -7/1/6
f -11/1/6 -10/1/6 -6/1/6
f -9/1/6 -8/1/6 -6/1/6
f -10/1/6 -9/1/6 -6/1/6
f -6/1/6 -8/1/6 -5/1/6
f -5/1/6 -8/1/6 -4/1/6
f -4/1/6 -8/1/6 -3/1/6
f -5/1/6 -4/1/6 -2/1/6
f -2/1/6 -4/1/6 -1/1/6
