# MagicaVoxel @ ephtracy

# material
mtllib rocket3.mtl
usemtl palette

# mesh name
g rocket3_mesh

# normals
vn -1 0 0
vn 1 0 0
vn 0 0 1
vn 0 0 -1
vn 0 -1 0
vn 0 1 0

# texcoords
vt 0.755859 0.5
vt 0.802734 0.5
vt 0.958984 0.5

# verts
v -5 0 1
v -5 0 -1
v -5 13 1
v -5 13 -1
v -3 3 2
v -3 3 1
v -3 3 -1
v -3 3 -2
v -3 13 1
v -3 13 -1
v -3 14 2
v -3 14 1
v -3 14 -1
v -3 14 -2
v -3 19 2
v -3 19 -2
v -2 3 5
v -2 3 3
v -2 3 2
v -2 3 -2
v -2 3 -3
v -2 3 -5
v -2 14 2
v -2 14 -2
v -2 19 5
v -2 19 3
v -2 19 2
v -2 19 -2
v -2 19 -3
v -2 19 -5
v -1 8 14
v -1 8 5
v -1 8 -5
v -1 8 -14
v -1 11 15
v -1 11 14
v -1 11 -14
v -1 11 -15
v -1 12 12
v -1 12 5
v -1 12 -5
v -1 12 -12
v -1 13 13
v -1 13 12
v -1 13 5
v -1 13 -5
v -1 13 -12
v -1 13 -13
v -1 15 15
v -1 15 13
v -1 15 12
v -1 15 -12
v -1 15 -13
v -1 15 -15
v -1 16 15
v -1 16 13
v -1 16 -13
v -1 16 -15
v -1 19 4
v -1 19 3
v -1 19 2
v -1 19 1
v -1 19 -1
v -1 19 -2
v -1 19 -3
v -1 19 -4
v -1 29 4
v -1 29 3
v -1 29 1
v -1 29 -1
v -1 29 -3
v -1 29 -4
v 0 29 3
v 0 29 1
v 0 29 -1
v 0 29 -3
v 0 40 3
v 0 40 1
v 0 40 -1
v 0 40 -3
v 1 40 2
v 1 40 1
v 1 40 -1
v 1 40 -2
v 1 42 2
v 1 42 -2
v 2 42 1
v 2 42 -1
v 2 44 1
v 2 44 -1
v 3 0 5
v 3 0 2
v 3 0 -2
v 3 0 -5
v 3 3 5
v 3 3 2
v 3 3 -2
v 3 3 -5
v 3 19 5
v 3 19 4
v 3 19 -4
v 3 19 -5
v 3 21 5
v 3 21 4
v 3 21 -4
v 3 21 -5
v -3 0 1
v -3 0 -1
v -3 3 1
v -3 3 -1
v 1 8 14
v 1 8 5
v 1 8 -5
v 1 8 -14
v 1 11 15
v 1 11 14
v 1 11 -14
v 1 11 -15
v 1 13 12
v 1 13 5
v 1 13 -5
v 1 13 -12
v 1 15 13
v 1 15 12
v 1 15 -12
v 1 15 -13
v 1 16 15
v 1 16 13
v 1 16 -13
v 1 16 -15
v 3 3 2
v 3 3 -2
v 3 21 4
v 3 21 2
v 3 21 -2
v 3 21 -4
v 3 29 4
v 3 29 3
v 3 29 -3
v 3 29 -4
v 3 40 3
v 3 40 2
v 3 40 -2
v 3 40 -3
v 3 42 2
v 3 42 1
v 3 42 -1
v 3 42 -2
v 3 44 1
v 3 44 -1
v 5 0 5
v 5 0 2
v 5 0 -2
v 5 0 -5
v 5 21 5
v 5 21 2
v 5 21 -2
v 5 21 -5
v -1 11 15
v -1 15 15
v -1 16 15
v 0 11 15
v 0 15 15
v 1 11 15
v 1 16 15
v -1 8 14
v -1 11 14
v 0 8 14
v 0 11 14
v 1 8 14
v 1 11 14
v -2 3 5
v -2 19 5
v -1 8 5
v -1 12 5
v -1 13 5
v 0 8 5
v 1 8 5
v 1 13 5
v 3 0 5
v 3 3 5
v 3 19 5
v 3 21 5
v 5 0 5
v 5 21 5
v -1 19 4
v -1 29 4
v 3 19 4
v 3 21 4
v 3 29 4
v 0 29 3
v 0 40 3
v 2 29 3
v 2 40 3
v 3 29 3
v 3 40 3
v -3 3 2
v -3 14 2
v -3 19 2
v -2 3 2
v -2 14 2
v -2 19 2
v 1 40 2
v 1 42 2
v 2 40 2
v 3 40 2
v 3 42 2
v -5 0 1
v -5 13 1
v -3 0 1
v -3 3 1
v -3 13 1
v 2 42 1
v 2 44 1
v 3 42 1
v 3 44 1
v 3 0 -2
v 3 3 -2
v 3 21 -2
v 5 0 -2
v 5 21 -2
v -1 13 -12
v -1 15 -12
v 1 13 -12
v 1 15 -12
v -1 15 -13
v -1 16 -13
v 1 15 -13
v 1 16 -13
v -1 15 13
v -1 16 13
v 1 15 13
v 1 16 13
v -1 13 12
v -1 15 12
v 1 13 12
v 1 15 12
v 3 0 2
v 3 3 2
v 3 21 2
v 5 0 2
v 5 21 2
v -5 0 -1
v -5 13 -1
v -3 0 -1
v -3 3 -1
v -3 13 -1
v 2 42 -1
v 2 44 -1
v 3 42 -1
v 3 44 -1
v -3 3 -2
v -3 14 -2
v -3 19 -2
v -2 3 -2
v -2 14 -2
v -2 19 -2
v 1 40 -2
v 1 42 -2
v 2 40 -2
v 3 40 -2
v 3 42 -2
v 0 29 -3
v 0 40 -3
v 2 29 -3
v 2 40 -3
v 3 29 -3
v 3 40 -3
v -1 19 -4
v -1 29 -4
v 3 19 -4
v 3 21 -4
v 3 29 -4
v -2 3 -5
v -2 19 -5
v -1 8 -5
v -1 12 -5
v -1 13 -5
v 0 8 -5
v 1 8 -5
v 1 13 -5
v 3 0 -5
v 3 3 -5
v 3 19 -5
v 3 21 -5
v 5 0 -5
v 5 21 -5
v -1 8 -14
v -1 11 -14
v 0 8 -14
v 0 11 -14
v 1 8 -14
v 1 11 -14
v -1 11 -15
v -1 15 -15
v -1 16 -15
v 0 11 -15
v 0 15 -15
v 1 11 -15
v 1 16 -15
v 3 0 5
v 5 0 5
v 3 0 2
v 5 0 2
v -5 0 1
v -3 0 1
v -5 0 -1
v -3 0 -1
v 3 0 -2
v 5 0 -2
v 3 0 -5
v 5 0 -5
v -2 3 5
v 3 3 5
v -2 3 3
v 2 3 3
v -3 3 2
v -2 3 2
v 3 3 2
v -3 3 1
v 2 3 1
v -3 3 -1
v 2 3 -1
v -3 3 -2
v -2 3 -2
v 3 3 -2
v -2 3 -3
v 2 3 -3
v -2 3 -5
v 3 3 -5
v -1 8 14
v 0 8 14
v 1 8 14
v -1 8 5
v 0 8 5
v 1 8 5
v -1 8 -5
v 0 8 -5
v 1 8 -5
v -1 8 -14
v 0 8 -14
v 1 8 -14
v -1 11 15
v 0 11 15
v 1 11 15
v -1 11 14
v 0 11 14
v 1 11 14
v -1 11 -14
v 0 11 -14
v 1 11 -14
v -1 11 -15
v 0 11 -15
v 1 11 -15
v -1 13 12
v 1 13 12
v -1 13 5
v 1 13 5
v -5 13 1
v -3 13 1
v -5 13 -1
v -3 13 -1
v -1 13 -5
v 1 13 -5
v -1 13 -12
v 1 13 -12
v -1 15 13
v 1 15 13
v -1 15 12
v 1 15 12
v -1 15 -12
v 1 15 -12
v -1 15 -13
v 1 15 -13
v -1 16 15
v 1 16 15
v -1 16 13
v 1 16 13
v -1 16 -13
v 1 16 -13
v -1 16 -15
v 1 16 -15
v -2 19 5
v 3 19 5
v -1 19 4
v 3 19 4
v -2 19 3
v -1 19 3
v -3 19 2
v -2 19 2
v -1 19 2
v -1 19 1
v -1 19 -1
v -3 19 -2
v -2 19 -2
v -1 19 -2
v -2 19 -3
v -1 19 -3
v -1 19 -4
v 3 19 -4
v -2 19 -5
v 3 19 -5
v 3 21 5
v 5 21 5
v 3 21 4
v 3 21 2
v 5 21 2
v 3 21 -2
v 5 21 -2
v 3 21 -4
v 3 21 -5
v 5 21 -5
v -1 29 4
v 3 29 4
v -1 29 3
v 0 29 3
v 2 29 3
v 3 29 3
v -1 29 1
v 0 29 1
v -1 29 -1
v 0 29 -1
v -1 29 -3
v 0 29 -3
v 2 29 -3
v 3 29 -3
v -1 29 -4
v 3 29 -4
v 0 40 3
v 2 40 3
v 3 40 3
v 1 40 2
v 2 40 2
v 3 40 2
v 0 40 1
v 1 40 1
v 0 40 -1
v 1 40 -1
v 1 40 -2
v 2 40 -2
v 3 40 -2
v 0 40 -3
v 2 40 -3
v 3 40 -3
v 1 42 2
v 3 42 2
v 2 42 1
v 3 42 1
v 2 42 -1
v 3 42 -1
v 1 42 -2
v 3 42 -2
v 2 44 1
v 3 44 1
v 2 44 -1
v 3 44 -1

# faces
f 3/2/1 2/2/1 1/2/1
f 4/2/1 2/2/1 3/2/1
f 9/2/1 6/2/1 5/2/1
f 10/2/1 8/2/1 7/2/1
f 11/2/1 9/2/1 5/2/1
f 12/3/1 10/3/1 9/3/1
f 12/2/1 9/2/1 11/2/1
f 13/2/1 8/2/1 10/2/1
f 13/3/1 10/3/1 12/3/1
f 14/2/1 8/2/1 13/2/1
f 15/1/1 12/1/1 11/1/1
f 15/1/1 13/1/1 12/1/1
f 15/1/1 14/1/1 13/1/1
f 16/1/1 14/1/1 15/1/1
f 23/2/1 19/2/1 18/2/1
f 24/2/1 21/2/1 20/2/1
f 25/3/1 18/3/1 17/3/1
f 26/2/1 23/2/1 18/2/1
f 26/3/1 18/3/1 25/3/1
f 27/2/1 23/2/1 26/2/1
f 28/2/1 21/2/1 24/2/1
f 29/3/1 22/3/1 21/3/1
f 29/2/1 21/2/1 28/2/1
f 30/3/1 22/3/1 29/3/1
f 36/3/1 32/3/1 31/3/1
f 37/3/1 34/3/1 33/3/1
f 39/3/1 36/3/1 35/3/1
f 39/3/1 32/3/1 36/3/1
f 40/3/1 32/3/1 39/3/1
f 41/3/1 38/3/1 37/3/1
f 41/3/1 37/3/1 33/3/1
f 42/3/1 38/3/1 41/3/1
f 43/3/1 39/3/1 35/3/1
f 44/2/1 40/2/1 39/2/1
f 44/3/1 39/3/1 43/3/1
f 45/2/1 40/2/1 44/2/1
f 46/2/1 42/2/1 41/2/1
f 47/3/1 38/3/1 42/3/1
f 47/2/1 42/2/1 46/2/1
f 48/3/1 38/3/1 47/3/1
f 49/3/1 43/3/1 35/3/1
f 50/2/1 44/2/1 43/2/1
f 50/3/1 43/3/1 49/3/1
f 51/2/1 44/2/1 50/2/1
f 52/2/1 48/2/1 47/2/1
f 53/3/1 38/3/1 48/3/1
f 53/2/1 48/2/1 52/2/1
f 54/3/1 38/3/1 53/3/1
f 55/2/1 50/2/1 49/2/1
f 56/2/1 50/2/1 55/2/1
f 57/2/1 54/2/1 53/2/1
f 58/2/1 54/2/1 57/2/1
f 67/3/1 60/3/1 59/3/1
f 68/2/1 61/2/1 60/2/1
f 68/3/1 60/3/1 67/3/1
f 68/2/1 62/2/1 61/2/1
f 69/3/1 63/3/1 62/3/1
f 69/2/1 62/2/1 68/2/1
f 70/2/1 65/2/1 64/2/1
f 70/3/1 63/3/1 69/3/1
f 70/2/1 64/2/1 63/2/1
f 71/3/1 66/3/1 65/3/1
f 71/2/1 65/2/1 70/2/1
f 72/3/1 66/3/1 71/3/1
f 77/2/1 74/2/1 73/2/1
f 78/3/1 75/3/1 74/3/1
f 78/2/1 74/2/1 77/2/1
f 79/2/1 76/2/1 75/2/1
f 79/3/1 75/3/1 78/3/1
f 80/2/1 76/2/1 79/2/1
f 85/2/1 82/2/1 81/2/1
f 85/2/1 84/2/1 83/2/1
f 85/2/1 83/2/1 82/2/1
f 86/2/1 84/2/1 85/2/1
f 89/2/1 88/2/1 87/2/1
f 90/2/1 88/2/1 89/2/1
f 95/2/1 92/2/1 91/2/1
f 96/2/1 92/2/1 95/2/1
f 97/2/1 94/2/1 93/2/1
f 98/2/1 94/2/1 97/2/1
f 103/2/1 100/2/1 99/2/1
f 104/2/1 100/2/1 103/2/1
f 105/2/1 102/2/1 101/2/1
f 106/2/1 102/2/1 105/2/1
f 107/2/2 108/2/2 109/2/2
f 109/2/2 108/2/2 110/2/2
f 111/2/2 112/2/2 116/2/2
f 113/2/2 114/2/2 117/2/2
f 115/2/2 116/2/2 119/2/2
f 116/2/2 112/2/2 119/2/2
f 119/2/2 112/2/2 120/2/2
f 117/2/2 118/2/2 121/2/2
f 113/2/2 117/2/2 121/2/2
f 121/2/2 118/2/2 122/2/2
f 115/2/2 119/2/2 123/2/2
f 123/2/2 119/2/2 124/2/2
f 122/2/2 118/2/2 125/2/2
f 125/2/2 118/2/2 126/2/2
f 115/2/2 123/2/2 127/2/2
f 127/2/2 123/2/2 128/2/2
f 126/2/2 118/2/2 129/2/2
f 129/2/2 118/2/2 130/2/2
f 131/3/2 132/3/2 134/3/2
f 134/3/2 132/3/2 135/3/2
f 133/3/2 134/3/2 137/3/2
f 135/3/2 136/3/2 137/3/2
f 134/3/2 135/3/2 137/3/2
f 137/3/2 136/3/2 138/3/2
f 138/3/2 136/3/2 139/3/2
f 139/3/2 136/3/2 140/3/2
f 138/3/2 139/3/2 141/3/2
f 141/3/2 139/3/2 142/3/2
f 142/3/2 139/3/2 143/3/2
f 143/3/2 139/3/2 144/3/2
f 142/2/2 143/2/2 145/2/2
f 145/2/2 143/2/2 146/2/2
f 146/2/2 143/2/2 147/2/2
f 147/2/2 143/2/2 148/2/2
f 146/2/2 147/2/2 149/2/2
f 149/2/2 147/2/2 150/2/2
f 151/2/2 152/2/2 155/2/2
f 155/2/2 152/2/2 156/2/2
f 153/2/2 154/2/2 157/2/2
f 157/2/2 154/2/2 158/2/2
f 162/3/3 160/3/3 159/3/3
f 163/2/3 161/2/3 160/2/3
f 163/3/3 160/3/3 162/3/3
f 164/2/3 163/2/3 162/2/3
f 165/2/3 161/2/3 163/2/3
f 165/2/3 163/2/3 164/2/3
f 168/3/3 167/3/3 166/3/3
f 169/3/3 167/3/3 168/3/3
f 170/2/3 169/2/3 168/2/3
f 171/2/3 169/2/3 170/2/3
f 174/3/3 173/3/3 172/3/3
f 175/3/3 173/3/3 174/3/3
f 176/3/3 173/3/3 175/3/3
f 177/3/3 174/3/3 172/3/3
f 178/3/3 177/3/3 172/3/3
f 179/3/3 173/3/3 176/3/3
f 181/3/3 178/3/3 172/3/3
f 181/3/3 179/3/3 178/3/3
f 182/3/3 173/3/3 179/3/3
f 182/3/3 179/3/3 181/3/3
f 184/2/3 181/2/3 180/2/3
f 184/2/3 183/2/3 182/2/3
f 184/2/3 182/2/3 181/2/3
f 185/2/3 183/2/3 184/2/3
f 188/3/3 187/3/3 186/3/3
f 189/3/3 187/3/3 188/3/3
f 190/3/3 187/3/3 189/3/3
f 193/2/3 192/2/3 191/2/3
f 194/2/3 192/2/3 193/2/3
f 195/3/3 194/3/3 193/3/3
f 196/3/3 194/3/3 195/3/3
f 200/2/3 198/2/3 197/2/3
f 201/1/3 199/1/3 198/1/3
f 201/2/3 198/2/3 200/2/3
f 202/1/3 199/1/3 201/1/3
f 205/2/3 204/2/3 203/2/3
f 206/2/3 204/2/3 205/2/3
f 207/2/3 204/2/3 206/2/3
f 210/2/3 209/2/3 208/2/3
f 211/2/3 209/2/3 210/2/3
f 212/2/3 209/2/3 211/2/3
f 215/2/3 214/2/3 213/2/3
f 216/2/3 214/2/3 215/2/3
f 220/2/3 218/2/3 217/2/3
f 220/2/3 219/2/3 218/2/3
f 221/2/3 219/2/3 220/2/3
f 224/2/3 223/2/3 222/2/3
f 225/2/3 223/2/3 224/2/3
f 228/2/3 227/2/3 226/2/3
f 229/2/3 227/2/3 228/2/3
f 230/2/4 231/2/4 232/2/4
f 232/2/4 231/2/4 233/2/4
f 234/2/4 235/2/4 236/2/4
f 236/2/4 235/2/4 237/2/4
f 238/2/4 239/2/4 241/2/4
f 239/2/4 240/2/4 241/2/4
f 241/2/4 240/2/4 242/2/4
f 243/2/4 244/2/4 245/2/4
f 245/2/4 244/2/4 246/2/4
f 246/2/4 244/2/4 247/2/4
f 248/2/4 249/2/4 250/2/4
f 250/2/4 249/2/4 251/2/4
f 252/2/4 253/2/4 255/2/4
f 253/1/4 254/1/4 256/1/4
f 255/2/4 253/2/4 256/2/4
f 256/1/4 254/1/4 257/1/4
f 258/2/4 259/2/4 260/2/4
f 260/2/4 259/2/4 261/2/4
f 261/2/4 259/2/4 262/2/4
f 263/2/4 264/2/4 265/2/4
f 265/2/4 264/2/4 266/2/4
f 265/3/4 266/3/4 267/3/4
f 267/3/4 266/3/4 268/3/4
f 269/3/4 270/3/4 271/3/4
f 271/3/4 270/3/4 272/3/4
f 272/3/4 270/3/4 273/3/4
f 274/3/4 275/3/4 276/3/4
f 276/3/4 275/3/4 277/3/4
f 277/3/4 275/3/4 278/3/4
f 274/3/4 276/3/4 279/3/4
f 274/3/4 279/3/4 280/3/4
f 278/3/4 275/3/4 281/3/4
f 274/3/4 280/3/4 283/3/4
f 280/3/4 281/3/4 283/3/4
f 281/3/4 275/3/4 284/3/4
f 283/3/4 281/3/4 284/3/4
f 282/2/4 283/2/4 286/2/4
f 284/2/4 285/2/4 286/2/4
f 283/2/4 284/2/4 286/2/4
f 286/2/4 285/2/4 287/2/4
f 288/3/4 289/3/4 290/3/4
f 290/3/4 289/3/4 291/3/4
f 290/2/4 291/2/4 292/2/4
f 292/2/4 291/2/4 293/2/4
f 294/3/4 295/3/4 297/3/4
f 295/2/4 296/2/4 298/2/4
f 297/3/4 295/3/4 298/3/4
f 297/2/4 298/2/4 299/2/4
f 298/2/4 296/2/4 300/2/4
f 299/2/4 298/2/4 300/2/4
f 303/2/5 302/2/5 301/2/5
f 304/2/5 302/2/5 303/2/5
f 307/2/5 306/2/5 305/2/5
f 308/2/5 306/2/5 307/2/5
f 311/2/5 310/2/5 309/2/5
f 312/2/5 310/2/5 311/2/5
f 315/3/5 314/3/5 313/3/5
f 316/3/5 314/3/5 315/3/5
f 318/2/5 316/2/5 315/2/5
f 319/3/5 314/3/5 316/3/5
f 320/2/5 318/2/5 317/2/5
f 321/2/5 316/2/5 318/2/5
f 321/2/5 318/2/5 320/2/5
f 321/3/5 319/3/5 316/3/5
f 322/3/5 321/3/5 320/3/5
f 323/3/5 319/3/5 321/3/5
f 323/3/5 321/3/5 322/3/5
f 324/2/5 323/2/5 322/2/5
f 325/2/5 323/2/5 324/2/5
f 326/3/5 319/3/5 323/3/5
f 327/2/5 323/2/5 325/2/5
f 328/3/5 326/3/5 323/3/5
f 328/2/5 323/2/5 327/2/5
f 329/3/5 328/3/5 327/3/5
f 330/3/5 326/3/5 328/3/5
f 330/3/5 328/3/5 329/3/5
f 334/3/5 332/3/5 331/3/5
f 335/2/5 333/2/5 332/2/5
f 335/3/5 332/3/5 334/3/5
f 336/2/5 333/2/5 335/2/5
f 340/3/5 338/3/5 337/3/5
f 341/2/5 339/2/5 338/2/5
f 341/3/5 338/3/5 340/3/5
f 342/2/5 339/2/5 341/2/5
f 346/3/5 344/3/5 343/3/5
f 347/2/5 345/2/5 344/2/5
f 347/3/5 344/3/5 346/3/5
f 348/2/5 345/2/5 347/2/5
f 352/3/5 350/3/5 349/3/5
f 353/2/5 351/2/5 350/2/5
f 353/3/5 350/3/5 352/3/5
f 354/2/5 351/2/5 353/2/5
f 355/2/6 356/2/6 357/2/6
f 357/2/6 356/2/6 358/2/6
f 359/2/6 360/2/6 361/2/6
f 361/2/6 360/2/6 362/2/6
f 363/2/6 364/2/6 365/2/6
f 365/2/6 364/2/6 366/2/6
f 367/2/6 368/2/6 369/2/6
f 369/2/6 368/2/6 370/2/6
f 371/2/6 372/2/6 373/2/6
f 373/2/6 372/2/6 374/2/6
f 375/2/6 376/2/6 377/2/6
f 377/2/6 376/2/6 378/2/6
f 379/2/6 380/2/6 381/2/6
f 381/2/6 380/2/6 382/2/6
f 383/3/6 384/3/6 385/3/6
f 385/3/6 384/3/6 386/3/6
f 383/3/6 385/3/6 387/3/6
f 387/3/6 385/3/6 388/3/6
f 387/2/6 388/2/6 390/2/6
f 390/2/6 388/2/6 391/2/6
f 389/1/6 390/1/6 392/1/6
f 390/1/6 391/1/6 392/1/6
f 389/1/6 392/1/6 393/1/6
f 389/1/6 393/1/6 394/1/6
f 394/1/6 393/1/6 395/1/6
f 395/1/6 393/1/6 396/1/6
f 395/2/6 396/2/6 397/2/6
f 397/2/6 396/2/6 398/2/6
f 397/3/6 398/3/6 399/3/6
f 397/3/6 399/3/6 401/3/6
f 399/3/6 400/3/6 401/3/6
f 401/3/6 400/3/6 402/3/6
f 403/2/6 404/2/6 405/2/6
f 405/2/6 404/2/6 406/2/6
f 406/2/6 404/2/6 407/2/6
f 408/2/6 409/2/6 410/2/6
f 410/2/6 409/2/6 411/2/6
f 411/2/6 409/2/6 412/2/6
f 413/3/6 414/3/6 415/3/6
f 415/3/6 414/3/6 416/3/6
f 416/3/6 414/3/6 417/3/6
f 417/3/6 414/3/6 418/3/6
f 415/2/6 416/2/6 419/2/6
f 419/2/6 416/2/6 420/2/6
f 419/3/6 420/3/6 421/3/6
f 421/3/6 420/3/6 422/3/6
f 421/2/6 422/2/6 423/2/6
f 423/2/6 422/2/6 424/2/6
f 423/3/6 424/3/6 427/3/6
f 425/3/6 426/3/6 427/3/6
f 424/3/6 425/3/6 427/3/6
f 427/3/6 426/3/6 428/3/6
f 429/2/6 430/2/6 432/2/6
f 430/3/6 431/3/6 433/3/6
f 432/2/6 430/2/6 433/2/6
f 433/3/6 431/3/6 434/3/6
f 429/2/6 432/2/6 435/2/6
f 435/2/6 432/2/6 436/2/6
f 435/3/6 436/3/6 437/3/6
f 437/3/6 436/3/6 438/3/6
f 437/2/6 438/2/6 439/2/6
f 437/2/6 439/2/6 442/2/6
f 439/2/6 440/2/6 442/2/6
f 440/3/6 441/3/6 443/3/6
f 442/2/6 440/2/6 443/2/6
f 443/3/6 441/3/6 444/3/6
f 445/2/6 446/2/6 447/2/6
f 447/2/6 446/2/6 448/2/6
f 445/2/6 447/2/6 449/2/6
f 445/2/6 449/2/6 451/2/6
f 449/2/6 450/2/6 451/2/6
f 451/2/6 450/2/6 452/2/6
f 453/2/6 454/2/6 455/2/6
f 455/2/6 454/2/6 456/2/6
