# MagicaVoxel @ ephtracy

# material
mtllib rocket5.mtl
usemtl palette

# mesh name
g rocket5_mesh

# normals
vn -1 0 0
vn 1 0 0
vn 0 0 1
vn 0 0 -1
vn 0 -1 0
vn 0 1 0

# texcoords
vt 0.755859 0.5
vt 0.865234 0.5
vt 0.990234 0.5

# verts
v -5 0 1
v -5 0 -1
v -5 13 1
v -5 13 -1
v -3 3 2
v -3 3 1
v -3 3 -1
v -3 3 -2
v -3 13 1
v -3 13 -1
v -3 14 2
v -3 14 -2
v -3 19 2
v -3 19 -2
v -2 3 5
v -2 3 2
v -2 3 -2
v -2 3 -5
v -2 14 2
v -2 14 -2
v -2 19 5
v -2 19 2
v -2 19 -2
v -2 19 -5
v -1 8 14
v -1 8 5
v -1 8 -5
v -1 8 -14
v -1 11 15
v -1 11 14
v -1 11 -14
v -1 11 -15
v -1 12 12
v -1 12 5
v -1 12 -5
v -1 12 -12
v -1 13 13
v -1 13 12
v -1 13 5
v -1 13 -5
v -1 13 -12
v -1 13 -13
v -1 15 15
v -1 15 13
v -1 15 12
v -1 15 -12
v -1 15 -13
v -1 15 -15
v -1 16 15
v -1 16 13
v -1 16 -13
v -1 16 -15
v -1 19 4
v -1 19 2
v -1 19 -2
v -1 19 -4
v -1 29 4
v -1 29 -4
v 0 29 3
v 0 29 -3
v 0 40 3
v 0 40 -3
v 1 40 2
v 1 40 -2
v 1 42 2
v 1 42 -2
v 2 42 1
v 2 42 -1
v 2 44 1
v 2 44 -1
v 3 0 5
v 3 0 2
v 3 0 -2
v 3 0 -5
v 3 3 5
v 3 3 2
v 3 3 -2
v 3 3 -5
v 3 19 5
v 3 19 4
v 3 19 -4
v 3 19 -5
v 3 21 5
v 3 21 4
v 3 21 -4
v 3 21 -5
v -3 0 1
v -3 0 -1
v -3 3 1
v -3 3 -1
v 1 8 14
v 1 8 5
v 1 8 -5
v 1 8 -14
v 1 11 15
v 1 11 14
v 1 11 -14
v 1 11 -15
v 1 13 12
v 1 13 5
v 1 13 -5
v 1 13 -12
v 1 15 13
v 1 15 12
v 1 15 -12
v 1 15 -13
v 1 16 15
v 1 16 13
v 1 16 -13
v 1 16 -15
v 3 3 2
v 3 3 -2
v 3 21 4
v 3 21 2
v 3 21 -2
v 3 21 -4
v 3 29 4
v 3 29 3
v 3 29 -3
v 3 29 -4
v 3 40 3
v 3 40 2
v 3 40 -2
v 3 40 -3
v 3 42 2
v 3 42 1
v 3 42 -1
v 3 42 -2
v 3 44 1
v 3 44 -1
v 5 0 5
v 5 0 2
v 5 0 -2
v 5 0 -5
v 5 21 5
v 5 21 2
v 5 21 -2
v 5 21 -5
v -1 11 15
v -1 15 15
v -1 16 15
v 0 11 15
v 0 15 15
v 1 11 15
v 1 16 15
v -1 8 14
v -1 11 14
v 0 8 14
v 0 11 14
v 1 8 14
v 1 11 14
v -2 3 5
v -2 19 5
v -1 8 5
v -1 12 5
v -1 13 5
v 0 8 5
v 1 8 5
v 1 13 5
v 3 0 5
v 3 3 5
v 3 19 5
v 3 21 5
v 5 0 5
v 5 21 5
v -1 19 4
v -1 29 4
v 3 19 4
v 3 21 4
v 3 29 4
v 0 29 3
v 0 40 3
v 3 29 3
v 3 40 3
v -3 3 2
v -3 14 2
v -3 19 2
v -2 3 2
v -2 14 2
v -2 19 2
v 1 40 2
v 1 42 2
v 3 40 2
v 3 42 2
v -5 0 1
v -5 13 1
v -3 0 1
v -3 3 1
v -3 13 1
v 2 42 1
v 2 44 1
v 3 42 1
v 3 44 1
v 3 0 -2
v 3 3 -2
v 3 21 -2
v 5 0 -2
v 5 21 -2
v -1 13 -12
v -1 15 -12
v 1 13 -12
v 1 15 -12
v -1 15 -13
v -1 16 -13
v 1 15 -13
v 1 16 -13
v -1 15 13
v -1 16 13
v 1 15 13
v 1 16 13
v -1 13 12
v -1 15 12
v 1 13 12
v 1 15 12
v 3 0 2
v 3 3 2
v 3 21 2
v 5 0 2
v 5 21 2
v -5 0 -1
v -5 13 -1
v -3 0 -1
v -3 3 -1
v -3 13 -1
v 2 42 -1
v 2 44 -1
v 3 42 -1
v 3 44 -1
v -3 3 -2
v -3 14 -2
v -3 19 -2
v -2 3 -2
v -2 14 -2
v -2 19 -2
v 1 40 -2
v 1 42 -2
v 3 40 -2
v 3 42 -2
v 0 29 -3
v 0 40 -3
v 3 29 -3
v 3 40 -3
v -1 19 -4
v -1 29 -4
v 3 19 -4
v 3 21 -4
v 3 29 -4
v -2 3 -5
v -2 19 -5
v -1 8 -5
v -1 12 -5
v -1 13 -5
v 0 8 -5
v 1 8 -5
v 1 13 -5
v 3 0 -5
v 3 3 -5
v 3 19 -5
v 3 21 -5
v 5 0 -5
v 5 21 -5
v -1 8 -14
v -1 11 -14
v 0 8 -14
v 0 11 -14
v 1 8 -14
v 1 11 -14
v -1 11 -15
v -1 15 -15
v -1 16 -15
v 0 11 -15
v 0 15 -15
v 1 11 -15
v 1 16 -15
v 3 0 5
v 5 0 5
v 3 0 2
v 5 0 2
v -5 0 1
v -3 0 1
v -5 0 -1
v -3 0 -1
v 3 0 -2
v 5 0 -2
v 3 0 -5
v 5 0 -5
v -2 3 5
v 3 3 5
v -3 3 2
v -2 3 2
v 3 3 2
v -3 3 1
v -3 3 -1
v -3 3 -2
v -2 3 -2
v 3 3 -2
v -2 3 -5
v 3 3 -5
v -1 8 14
v 0 8 14
v 1 8 14
v -1 8 5
v 0 8 5
v 1 8 5
v -1 8 -5
v 0 8 -5
v 1 8 -5
v -1 8 -14
v 0 8 -14
v 1 8 -14
v -1 11 15
v 0 11 15
v 1 11 15
v -1 11 14
v 0 11 14
v 1 11 14
v -1 11 -14
v 0 11 -14
v 1 11 -14
v -1 11 -15
v 0 11 -15
v 1 11 -15
v -1 13 12
v 1 13 12
v -1 13 5
v 1 13 5
v -5 13 1
v -3 13 1
v -5 13 -1
v -3 13 -1
v -1 13 -5
v 1 13 -5
v -1 13 -12
v 1 13 -12
v -1 15 13
v 1 15 13
v -1 15 12
v 1 15 12
v -1 15 -12
v 1 15 -12
v -1 15 -13
v 1 15 -13
v -1 16 15
v 1 16 15
v -1 16 13
v 1 16 13
v -1 16 -13
v 1 16 -13
v -1 16 -15
v 1 16 -15
v -2 19 5
v 3 19 5
v -1 19 4
v 3 19 4
v -3 19 2
v -2 19 2
v -1 19 2
v -3 19 -2
v -2 19 -2
v -1 19 -2
v -1 19 -4
v 3 19 -4
v -2 19 -5
v 3 19 -5
v 3 21 5
v 5 21 5
v 3 21 4
v 3 21 2
v 5 21 2
v 3 21 -2
v 5 21 -2
v 3 21 -4
v 3 21 -5
v 5 21 -5
v -1 29 4
v 3 29 4
v 0 29 3
v 3 29 3
v 0 29 -3
v 3 29 -3
v -1 29 -4
v 3 29 -4
v 0 40 3
v 3 40 3
v 1 40 2
v 3 40 2
v 1 40 -2
v 3 40 -2
v 0 40 -3
v 3 40 -3
v 1 42 2
v 3 42 2
v 2 42 1
v 3 42 1
v 2 42 -1
v 3 42 -1
v 1 42 -2
v 3 42 -2
v 2 44 1
v 3 44 1
v 2 44 -1
v 3 44 -1

# faces
f 3/2/1 2/2/1 1/2/1
f 4/2/1 2/2/1 3/2/1
f 9/3/1 6/3/1 5/3/1
f 10/3/1 8/3/1 7/3/1
f 11/3/1 9/3/1 5/3/1
f 11/3/1 10/3/1 9/3/1
f 12/3/1 8/3/1 10/3/1
f 12/3/1 10/3/1 11/3/1
f 13/1/1 12/1/1 11/1/1
f 14/1/1 12/1/1 13/1/1
f 19/3/1 16/3/1 15/3/1
f 20/3/1 18/3/1 17/3/1
f 21/3/1 19/3/1 15/3/1
f 22/3/1 19/3/1 21/3/1
f 23/3/1 18/3/1 20/3/1
f 24/3/1 18/3/1 23/3/1
f 30/3/1 26/3/1 25/3/1
f 31/3/1 28/3/1 27/3/1
f 33/3/1 30/3/1 29/3/1
f 33/3/1 26/3/1 30/3/1
f 34/3/1 26/3/1 33/3/1
f 35/3/1 32/3/1 31/3/1
f 35/3/1 31/3/1 27/3/1
f 36/3/1 32/3/1 35/3/1
f 37/3/1 33/3/1 29/3/1
f 38/2/1 34/2/1 33/2/1
f 38/3/1 33/3/1 37/3/1
f 39/2/1 34/2/1 38/2/1
f 40/2/1 36/2/1 35/2/1
f 41/3/1 32/3/1 36/3/1
f 41/2/1 36/2/1 40/2/1
f 42/3/1 32/3/1 41/3/1
f 43/3/1 37/3/1 29/3/1
f 44/2/1 38/2/1 37/2/1
f 44/3/1 37/3/1 43/3/1
f 45/2/1 38/2/1 44/2/1
f 46/2/1 42/2/1 41/2/1
f 47/3/1 32/3/1 42/3/1
f 47/2/1 42/2/1 46/2/1
f 48/3/1 32/3/1 47/3/1
f 49/2/1 44/2/1 43/2/1
f 50/2/1 44/2/1 49/2/1
f 51/2/1 48/2/1 47/2/1
f 52/2/1 48/2/1 51/2/1
f 57/3/1 54/3/1 53/3/1
f 57/3/1 56/3/1 55/3/1
f 57/3/1 55/3/1 54/3/1
f 58/3/1 56/3/1 57/3/1
f 61/3/1 60/3/1 59/3/1
f 62/3/1 60/3/1 61/3/1
f 65/3/1 64/3/1 63/3/1
f 66/3/1 64/3/1 65/3/1
f 69/3/1 68/3/1 67/3/1
f 70/3/1 68/3/1 69/3/1
f 75/2/1 72/2/1 71/2/1
f 76/2/1 72/2/1 75/2/1
f 77/2/1 74/2/1 73/2/1
f 78/2/1 74/2/1 77/2/1
f 83/2/1 80/2/1 79/2/1
f 84/2/1 80/2/1 83/2/1
f 85/2/1 82/2/1 81/2/1
f 86/2/1 82/2/1 85/2/1
f 87/2/2 88/2/2 89/2/2
f 89/2/2 88/2/2 90/2/2
f 91/2/2 92/2/2 96/2/2
f 93/2/2 94/2/2 97/2/2
f 95/2/2 96/2/2 99/2/2
f 96/2/2 92/2/2 99/2/2
f 99/2/2 92/2/2 100/2/2
f 97/2/2 98/2/2 101/2/2
f 93/2/2 97/2/2 101/2/2
f 101/2/2 98/2/2 102/2/2
f 95/2/2 99/2/2 103/2/2
f 103/2/2 99/2/2 104/2/2
f 102/2/2 98/2/2 105/2/2
f 105/2/2 98/2/2 106/2/2
f 95/2/2 103/2/2 107/2/2
f 107/2/2 103/2/2 108/2/2
f 106/2/2 98/2/2 109/2/2
f 109/2/2 98/2/2 110/2/2
f 111/3/2 112/3/2 114/3/2
f 114/3/2 112/3/2 115/3/2
f 113/3/2 114/3/2 117/3/2
f 115/3/2 116/3/2 117/3/2
f 114/3/2 115/3/2 117/3/2
f 117/3/2 116/3/2 118/3/2
f 118/3/2 116/3/2 119/3/2
f 119/3/2 116/3/2 120/3/2
f 118/3/2 119/3/2 121/3/2
f 121/3/2 119/3/2 122/3/2
f 122/3/2 119/3/2 123/3/2
f 123/3/2 119/3/2 124/3/2
f 122/3/2 123/3/2 125/3/2
f 125/3/2 123/3/2 126/3/2
f 126/3/2 123/3/2 127/3/2
f 127/3/2 123/3/2 128/3/2
f 126/3/2 127/3/2 129/3/2
f 129/3/2 127/3/2 130/3/2
f 131/2/2 132/2/2 135/2/2
f 135/2/2 132/2/2 136/2/2
f 133/2/2 134/2/2 137/2/2
f 137/2/2 134/2/2 138/2/2
f 142/3/3 140/3/3 139/3/3
f 143/2/3 141/2/3 140/2/3
f 143/3/3 140/3/3 142/3/3
f 144/2/3 143/2/3 142/2/3
f 145/2/3 141/2/3 143/2/3
f 145/2/3 143/2/3 144/2/3
f 148/3/3 147/3/3 146/3/3
f 149/3/3 147/3/3 148/3/3
f 150/2/3 149/2/3 148/2/3
f 151/2/3 149/2/3 150/2/3
f 154/3/3 153/3/3 152/3/3
f 155/3/3 153/3/3 154/3/3
f 156/3/3 153/3/3 155/3/3
f 157/3/3 154/3/3 152/3/3
f 158/3/3 157/3/3 152/3/3
f 159/3/3 153/3/3 156/3/3
f 161/3/3 158/3/3 152/3/3
f 161/3/3 159/3/3 158/3/3
f 162/3/3 153/3/3 159/3/3
f 162/3/3 159/3/3 161/3/3
f 164/2/3 161/2/3 160/2/3
f 164/2/3 163/2/3 162/2/3
f 164/2/3 162/2/3 161/2/3
f 165/2/3 163/2/3 164/2/3
f 168/3/3 167/3/3 166/3/3
f 169/3/3 167/3/3 168/3/3
f 170/3/3 167/3/3 169/3/3
f 173/3/3 172/3/3 171/3/3
f 174/3/3 172/3/3 173/3/3
f 178/3/3 176/3/3 175/3/3
f 179/1/3 177/1/3 176/1/3
f 179/3/3 176/3/3 178/3/3
f 180/1/3 177/1/3 179/1/3
f 183/3/3 182/3/3 181/3/3
f 184/3/3 182/3/3 183/3/3
f 187/2/3 186/2/3 185/2/3
f 188/2/3 186/2/3 187/2/3
f 189/2/3 186/2/3 188/2/3
f 192/3/3 191/3/3 190/3/3
f 193/3/3 191/3/3 192/3/3
f 197/2/3 195/2/3 194/2/3
f 197/2/3 196/2/3 195/2/3
f 198/2/3 196/2/3 197/2/3
f 201/2/3 200/2/3 199/2/3
f 202/2/3 200/2/3 201/2/3
f 205/2/3 204/2/3 203/2/3
f 206/2/3 204/2/3 205/2/3
f 207/2/4 208/2/4 209/2/4
f 209/2/4 208/2/4 210/2/4
f 211/2/4 212/2/4 213/2/4
f 213/2/4 212/2/4 214/2/4
f 215/2/4 216/2/4 218/2/4
f 216/2/4 217/2/4 218/2/4
f 218/2/4 217/2/4 219/2/4
f 220/2/4 221/2/4 222/2/4
f 222/2/4 221/2/4 223/2/4
f 223/2/4 221/2/4 224/2/4
f 225/3/4 226/3/4 227/3/4
f 227/3/4 226/3/4 228/3/4
f 229/3/4 230/3/4 232/3/4
f 230/1/4 231/1/4 233/1/4
f 232/3/4 230/3/4 233/3/4
f 233/1/4 231/1/4 234/1/4
f 235/3/4 236/3/4 237/3/4
f 237/3/4 236/3/4 238/3/4
f 239/3/4 240/3/4 241/3/4
f 241/3/4 240/3/4 242/3/4
f 243/3/4 244/3/4 245/3/4
f 245/3/4 244/3/4 246/3/4
f 246/3/4 244/3/4 247/3/4
f 248/3/4 249/3/4 250/3/4
f 250/3/4 249/3/4 251/3/4
f 251/3/4 249/3/4 252/3/4
f 248/3/4 250/3/4 253/3/4
f 248/3/4 253/3/4 254/3/4
f 252/3/4 249/3/4 255/3/4
f 248/3/4 254/3/4 257/3/4
f 254/3/4 255/3/4 257/3/4
f 255/3/4 249/3/4 258/3/4
f 257/3/4 255/3/4 258/3/4
f 256/2/4 257/2/4 260/2/4
f 258/2/4 259/2/4 260/2/4
f 257/2/4 258/2/4 260/2/4
f 260/2/4 259/2/4 261/2/4
f 262/3/4 263/3/4 264/3/4
f 264/3/4 263/3/4 265/3/4
f 264/2/4 265/2/4 266/2/4
f 266/2/4 265/2/4 267/2/4
f 268/3/4 269/3/4 271/3/4
f 269/2/4 270/2/4 272/2/4
f 271/3/4 269/3/4 272/3/4
f 271/2/4 272/2/4 273/2/4
f 272/2/4 270/2/4 274/2/4
f 273/2/4 272/2/4 274/2/4
f 277/2/5 276/2/5 275/2/5
f 278/2/5 276/2/5 277/2/5
f 281/2/5 280/2/5 279/2/5
f 282/2/5 280/2/5 281/2/5
f 285/2/5 284/2/5 283/2/5
f 286/2/5 284/2/5 285/2/5
f 290/3/5 288/3/5 287/3/5
f 291/3/5 288/3/5 290/3/5
f 292/3/5 290/3/5 289/3/5
f 292/3/5 291/3/5 290/3/5
f 293/3/5 291/3/5 292/3/5
f 294/3/5 291/3/5 293/3/5
f 295/3/5 291/3/5 294/3/5
f 296/3/5 291/3/5 295/3/5
f 297/3/5 296/3/5 295/3/5
f 298/3/5 296/3/5 297/3/5
f 302/3/5 300/3/5 299/3/5
f 303/2/5 301/2/5 300/2/5
f 303/3/5 300/3/5 302/3/5
f 304/2/5 301/2/5 303/2/5
f 308/3/5 306/3/5 305/3/5
f 309/2/5 307/2/5 306/2/5
f 309/3/5 306/3/5 308/3/5
f 310/2/5 307/2/5 309/2/5
f 314/3/5 312/3/5 311/3/5
f 315/2/5 313/2/5 312/2/5
f 315/3/5 312/3/5 314/3/5
f 316/2/5 313/2/5 315/2/5
f 320/3/5 318/3/5 317/3/5
f 321/2/5 319/2/5 318/2/5
f 321/3/5 318/3/5 320/3/5
f 322/2/5 319/2/5 321/2/5
f 323/2/6 324/2/6 325/2/6
f 325/2/6 324/2/6 326/2/6
f 327/2/6 328/2/6 329/2/6
f 329/2/6 328/2/6 330/2/6
f 331/2/6 332/2/6 333/2/6
f 333/2/6 332/2/6 334/2/6
f 335/2/6 336/2/6 337/2/6
f 337/2/6 336/2/6 338/2/6
f 339/2/6 340/2/6 341/2/6
f 341/2/6 340/2/6 342/2/6
f 343/2/6 344/2/6 345/2/6
f 345/2/6 344/2/6 346/2/6
f 347/2/6 348/2/6 349/2/6
f 349/2/6 348/2/6 350/2/6
f 351/3/6 352/3/6 353/3/6
f 353/3/6 352/3/6 354/3/6
f 351/3/6 353/3/6 356/3/6
f 356/3/6 353/3/6 357/3/6
f 355/1/6 356/1/6 358/1/6
f 356/1/6 357/1/6 358/1/6
f 358/1/6 357/1/6 359/1/6
f 359/1/6 357/1/6 360/1/6
f 359/3/6 360/3/6 361/3/6
f 359/3/6 361/3/6 363/3/6
f 361/3/6 362/3/6 363/3/6
f 363/3/6 362/3/6 364/3/6
f 365/2/6 366/2/6 367/2/6
f 367/2/6 366/2/6 368/2/6
f 368/2/6 366/2/6 369/2/6
f 370/2/6 371/2/6 372/2/6
f 372/2/6 371/2/6 373/2/6
f 373/2/6 371/2/6 374/2/6
f 375/3/6 376/3/6 377/3/6
f 377/3/6 376/3/6 378/3/6
f 375/3/6 377/3/6 379/3/6
f 375/3/6 379/3/6 381/3/6
f 379/3/6 380/3/6 381/3/6
f 381/3/6 380/3/6 382/3/6
f 383/3/6 384/3/6 385/3/6
f 385/3/6 384/3/6 386/3/6
f 383/3/6 385/3/6 387/3/6
f 383/3/6 387/3/6 389/3/6
f 387/3/6 388/3/6 389/3/6
f 389/3/6 388/3/6 390/3/6
f 391/3/6 392/3/6 393/3/6
f 393/3/6 392/3/6 394/3/6
f 391/3/6 393/3/6 395/3/6
f 391/3/6 395/3/6 397/3/6
f 395/3/6 396/3/6 397/3/6
f 397/3/6 396/3/6 398/3/6
f 399/3/6 400/3/6 401/3/6
f 401/3/6 400/3/6 402/3/6
