# MagicaVoxel @ ephtracy

# material
mtllib rocket1.mtl

# mesh name
g rocket1_mesh

# normals
vn -1 0 0
vn 1 0 0
vn 0 0 1
vn 0 0 -1
vn 0 -1 0
vn 0 1 0

# texcoords
vt 0.841797 0.5
vt 0.970703 0.5
vt 0.994141 0.5

# verts
v -12 3 4
v -12 3 -2
v -12 9 4
v -12 9 -2
f -2/1/1 -3/1/1 -4/1/1
f -1/1/1 -3/1/1 -2/1/1
v -11 0 3
v -11 0 -1
v -11 3 3
v -11 3 -1
v -11 9 4
v -11 9 -2
v -11 11 4
v -11 11 -2
f -6/1/1 -7/1/1 -8/1/1
f -5/1/1 -7/1/1 -6/1/1
f -2/1/1 -3/1/1 -4/1/1
f -1/1/1 -3/1/1 -2/1/1
v -10 11 4
v -10 11 -2
v -10 13 4
v -10 13 -2
f -2/1/1 -3/1/1 -4/1/1
f -1/1/1 -3/1/1 -2/1/1
v -7 3 6
v -7 3 -4
v -7 9 4
v -7 9 -2
v -7 13 4
v -7 13 -2
v -7 17 6
v -7 17 -4
v -7 19 6
v -7 19 -4
v -7 27 4
v -7 27 -2
v -7 32 4
v -7 32 -2
v -7 36 6
v -7 36 -4
f -14/2/1 -15/2/1 -16/2/1
f -13/2/1 -15/2/1 -14/2/1
f -12/2/1 -14/2/1 -16/2/1
f -11/2/1 -15/2/1 -13/2/1
f -10/2/1 -12/2/1 -16/2/1
f -10/2/1 -11/2/1 -12/2/1
f -9/2/1 -15/2/1 -11/2/1
f -9/2/1 -11/2/1 -10/2/1
f -8/1/1 -9/1/1 -10/1/1
f -7/1/1 -9/1/1 -8/1/1
f -6/2/1 -7/2/1 -8/2/1
f -5/2/1 -7/2/1 -6/2/1
f -4/2/1 -6/2/1 -8/2/1
f -3/2/1 -7/2/1 -5/2/1
f -2/2/1 -4/2/1 -8/2/1
f -2/2/1 -3/2/1 -4/2/1
f -1/2/1 -7/2/1 -3/2/1
f -1/2/1 -3/2/1 -2/2/1
v -6 3 7
v -6 3 6
v -6 3 -4
v -6 3 -5
v -6 17 7
v -6 17 6
v -6 17 -4
v -6 17 -5
v -6 19 7
v -6 19 6
v -6 19 -4
v -6 19 -5
v -6 27 4
v -6 27 -2
v -6 32 4
v -6 32 -2
v -6 36 7
v -6 36 6
v -6 36 -4
v -6 36 -5
v -6 38 6
v -6 38 -4
f -18/2/1 -21/2/1 -22/2/1
f -17/2/1 -21/2/1 -18/2/1
f -16/2/1 -19/2/1 -20/2/1
f -15/2/1 -19/2/1 -16/2/1
f -14/1/1 -17/1/1 -18/1/1
f -13/1/1 -17/1/1 -14/1/1
f -12/1/1 -15/1/1 -16/1/1
f -11/1/1 -15/1/1 -12/1/1
f -8/3/1 -9/3/1 -10/3/1
f -7/3/1 -9/3/1 -8/3/1
f -6/2/1 -13/2/1 -14/2/1
f -5/2/1 -13/2/1 -6/2/1
f -4/2/1 -11/2/1 -12/2/1
f -3/2/1 -11/2/1 -4/2/1
f -2/1/1 -4/1/1 -5/1/1
f -1/1/1 -4/1/1 -2/1/1
v -5 38 5
v -5 38 -3
v -5 40 5
v -5 40 -3
f -2/1/1 -3/1/1 -4/1/1
f -1/1/1 -3/1/1 -2/1/1
v -4 3 12
v -4 3 9
v -4 3 -7
v -4 3 -10
v -4 8 9
v -4 8 8
v -4 8 -6
v -4 8 -7
v -4 9 12
v -4 9 11
v -4 9 8
v -4 9 7
v -4 9 -5
v -4 9 -6
v -4 9 -9
v -4 9 -10
v -4 11 11
v -4 11 10
v -4 11 -8
v -4 11 -9
v -4 13 10
v -4 13 7
v -4 13 -5
v -4 13 -8
v -4 40 4
v -4 40 -2
v -4 42 4
v -4 42 -2
f -24/1/1 -27/1/1 -28/1/1
f -21/1/1 -25/1/1 -26/1/1
f -20/1/1 -23/1/1 -24/1/1
f -20/1/1 -24/1/1 -28/1/1
f -19/1/1 -23/1/1 -20/1/1
f -18/1/1 -23/1/1 -19/1/1
f -15/1/1 -21/1/1 -22/1/1
f -14/1/1 -25/1/1 -21/1/1
f -14/1/1 -21/1/1 -15/1/1
f -13/1/1 -25/1/1 -14/1/1
f -12/1/1 -17/1/1 -18/1/1
f -12/1/1 -18/1/1 -19/1/1
f -11/1/1 -17/1/1 -12/1/1
f -10/1/1 -15/1/1 -16/1/1
f -10/1/1 -14/1/1 -15/1/1
f -9/1/1 -14/1/1 -10/1/1
f -8/1/1 -17/1/1 -11/1/1
f -7/1/1 -17/1/1 -8/1/1
f -6/1/1 -10/1/1 -16/1/1
f -5/1/1 -10/1/1 -6/1/1
f -2/1/1 -3/1/1 -4/1/1
f -1/1/1 -3/1/1 -2/1/1
v -3 0 11
v -3 0 9
v -3 0 -7
v -3 0 -9
v -3 3 11
v -3 3 9
v -3 3 -7
v -3 3 -9
v -3 42 3
v -3 42 -1
v -3 44 3
v -3 44 -1
f -8/1/1 -11/1/1 -12/1/1
f -7/1/1 -11/1/1 -8/1/1
f -6/1/1 -9/1/1 -10/1/1
f -5/1/1 -9/1/1 -6/1/1
f -2/1/1 -3/1/1 -4/1/1
f -1/1/1 -3/1/1 -2/1/1
v -2 44 2
v -2 44 -0
v -2 45 2
v -2 45 -0
f -2/1/1 -3/1/1 -4/1/1
f -1/1/1 -3/1/1 -2/1/1
v 2 27 7
v 2 27 6
v 2 27 -4
v 2 27 -5
v 2 32 7
v 2 32 6
v 2 32 -4
v 2 32 -5
f -4/2/1 -7/2/1 -8/2/1
f -3/2/1 -7/2/1 -4/2/1
f -2/2/1 -5/2/1 -6/2/1
f -1/2/1 -5/2/1 -2/2/1
v 6 8 4
v 6 8 -2
v 6 9 4
v 6 9 -2
f -2/1/1 -3/1/1 -4/1/1
f -1/1/1 -3/1/1 -2/1/1
v 7 0 3
v 7 0 -1
v 7 3 4
v 7 3 3
v 7 3 -1
v 7 3 -2
v 7 8 4
v 7 8 -2
f -5/1/1 -7/1/1 -8/1/1
f -4/1/1 -7/1/1 -5/1/1
f -2/1/1 -5/1/1 -6/1/1
f -2/1/1 -3/1/1 -4/1/1
f -2/1/1 -4/1/1 -5/1/1
f -1/1/1 -3/1/1 -2/1/1
v -9 0 3
v -9 0 -1
v -9 3 4
v -9 3 3
v -9 3 -1
v -9 3 -2
v -9 8 4
v -9 8 -2
f -8/1/2 -7/1/2 -5/1/2
f -5/1/2 -7/1/2 -4/1/2
f -6/1/2 -5/1/2 -2/1/2
f -4/1/2 -3/1/2 -2/1/2
f -5/1/2 -4/1/2 -2/1/2
f -2/1/2 -3/1/2 -1/1/2
v -8 8 4
v -8 8 -2
v -8 9 4
v -8 9 -2
f -4/1/2 -3/1/2 -2/1/2
f -2/1/2 -3/1/2 -1/1/2
v -4 27 7
v -4 27 6
v -4 27 -4
v -4 27 -5
v -4 32 7
v -4 32 6
v -4 32 -4
v -4 32 -5
f -8/2/2 -7/2/2 -4/2/2
f -4/2/2 -7/2/2 -3/2/2
f -6/2/2 -5/2/2 -2/2/2
f -2/2/2 -5/2/2 -1/2/2
v 0 44 2
v 0 44 -0
v 0 45 2
v 0 45 -0
f -4/1/2 -3/1/2 -2/1/2
f -2/1/2 -3/1/2 -1/1/2
v 1 0 11
v 1 0 9
v 1 0 -7
v 1 0 -9
v 1 3 11
v 1 3 9
v 1 3 -7
v 1 3 -9
v 1 42 3
v 1 42 -1
v 1 44 3
v 1 44 -1
f -12/1/2 -11/1/2 -8/1/2
f -8/1/2 -11/1/2 -7/1/2
f -10/1/2 -9/1/2 -6/1/2
f -6/1/2 -9/1/2 -5/1/2
f -4/1/2 -3/1/2 -2/1/2
f -2/1/2 -3/1/2 -1/1/2
v 2 3 12
v 2 3 9
v 2 3 -7
v 2 3 -10
v 2 8 9
v 2 8 8
v 2 8 -6
v 2 8 -7
v 2 9 12
v 2 9 11
v 2 9 8
v 2 9 7
v 2 9 -5
v 2 9 -6
v 2 9 -9
v 2 9 -10
v 2 11 11
v 2 11 10
v 2 11 -8
v 2 11 -9
v 2 13 10
v 2 13 7
v 2 13 -5
v 2 13 -8
v 2 40 4
v 2 40 -2
v 2 42 4
v 2 42 -2
f -28/1/2 -27/1/2 -24/1/2
f -26/1/2 -25/1/2 -21/1/2
f -24/1/2 -23/1/2 -20/1/2
f -28/1/2 -24/1/2 -20/1/2
f -20/1/2 -23/1/2 -19/1/2
f -19/1/2 -23/1/2 -18/1/2
f -22/1/2 -21/1/2 -15/1/2
f -21/1/2 -25/1/2 -14/1/2
f -15/1/2 -21/1/2 -14/1/2
f -14/1/2 -25/1/2 -13/1/2
f -18/1/2 -17/1/2 -12/1/2
f -19/1/2 -18/1/2 -12/1/2
f -12/1/2 -17/1/2 -11/1/2
f -16/1/2 -15/1/2 -10/1/2
f -15/1/2 -14/1/2 -10/1/2
f -10/1/2 -14/1/2 -9/1/2
f -11/1/2 -17/1/2 -8/1/2
f -8/1/2 -17/1/2 -7/1/2
f -16/1/2 -10/1/2 -6/1/2
f -6/1/2 -10/1/2 -5/1/2
f -4/1/2 -3/1/2 -2/1/2
f -2/1/2 -3/1/2 -1/1/2
v 3 38 5
v 3 38 -3
v 3 40 5
v 3 40 -3
f -4/1/2 -3/1/2 -2/1/2
f -2/1/2 -3/1/2 -1/1/2
v 4 3 7
v 4 3 6
v 4 3 -4
v 4 3 -5
v 4 17 7
v 4 17 6
v 4 17 -4
v 4 17 -5
v 4 19 7
v 4 19 6
v 4 19 -4
v 4 19 -5
v 4 27 4
v 4 27 -2
v 4 32 4
v 4 32 -2
v 4 36 7
v 4 36 6
v 4 36 -4
v 4 36 -5
v 4 38 6
v 4 38 -4
f -22/2/2 -21/2/2 -18/2/2
f -18/2/2 -21/2/2 -17/2/2
f -20/2/2 -19/2/2 -16/2/2
f -16/2/2 -19/2/2 -15/2/2
f -18/1/2 -17/1/2 -14/1/2
f -14/1/2 -17/1/2 -13/1/2
f -16/1/2 -15/1/2 -12/1/2
f -12/1/2 -15/1/2 -11/1/2
f -10/3/2 -9/3/2 -8/3/2
f -8/3/2 -9/3/2 -7/3/2
f -14/2/2 -13/2/2 -6/2/2
f -6/2/2 -13/2/2 -5/2/2
f -12/2/2 -11/2/2 -4/2/2
f -4/2/2 -11/2/2 -3/2/2
f -5/1/2 -4/1/2 -2/1/2
f -2/1/2 -4/1/2 -1/1/2
v 5 3 6
v 5 3 -4
v 5 9 4
v 5 9 -2
v 5 13 4
v 5 13 -2
v 5 17 6
v 5 17 -4
v 5 19 6
v 5 19 -4
v 5 27 4
v 5 27 -2
v 5 32 4
v 5 32 -2
v 5 36 6
v 5 36 -4
f -16/2/2 -15/2/2 -14/2/2
f -14/2/2 -15/2/2 -13/2/2
f -16/2/2 -14/2/2 -12/2/2
f -13/2/2 -15/2/2 -11/2/2
f -16/2/2 -12/2/2 -10/2/2
f -12/2/2 -11/2/2 -10/2/2
f -11/2/2 -15/2/2 -9/2/2
f -10/2/2 -11/2/2 -9/2/2
f -10/1/2 -9/1/2 -8/1/2
f -8/1/2 -9/1/2 -7/1/2
f -8/2/2 -7/2/2 -6/2/2
f -6/2/2 -7/2/2 -5/2/2
f -8/2/2 -6/2/2 -4/2/2
f -5/2/2 -7/2/2 -3/2/2
f -8/2/2 -4/2/2 -2/2/2
f -4/2/2 -3/2/2 -2/2/2
f -3/2/2 -7/2/2 -1/2/2
f -2/2/2 -3/2/2 -1/2/2
v 8 11 4
v 8 11 -2
v 8 13 4
v 8 13 -2
f -4/1/2 -3/1/2 -2/1/2
f -2/1/2 -3/1/2 -1/1/2
v 9 0 3
v 9 0 -1
v 9 3 3
v 9 3 -1
v 9 9 4
v 9 9 -2
v 9 11 4
v 9 11 -2
f -8/1/2 -7/1/2 -6/1/2
f -6/1/2 -7/1/2 -5/1/2
f -4/1/2 -3/1/2 -2/1/2
f -2/1/2 -3/1/2 -1/1/2
v 10 3 4
v 10 3 -2
v 10 9 4
v 10 9 -2
f -4/1/2 -3/1/2 -2/1/2
f -2/1/2 -3/1/2 -1/1/2
v -4 3 12
v -4 9 12
v 2 3 12
v 2 9 12
f -2/1/3 -3/1/3 -4/1/3
f -1/1/3 -3/1/3 -2/1/3
v -4 9 11
v -4 11 11
v -3 0 11
v -3 3 11
v 1 0 11
v 1 3 11
v 2 9 11
v 2 11 11
f -4/1/3 -5/1/3 -6/1/3
f -3/1/3 -5/1/3 -4/1/3
f -2/1/3 -7/1/3 -8/1/3
f -1/1/3 -7/1/3 -2/1/3
v -4 11 10
v -4 13 10
v 2 11 10
v 2 13 10
f -2/1/3 -3/1/3 -4/1/3
f -1/1/3 -3/1/3 -2/1/3
v -6 3 7
v -6 17 7
v -6 19 7
v -6 36 7
v -4 9 7
v -4 13 7
v -4 27 7
v -4 32 7
v 2 9 7
v 2 13 7
v 2 27 7
v 2 32 7
v 4 3 7
v 4 17 7
v 4 19 7
v 4 36 7
f -12/2/3 -15/2/3 -16/2/3
f -11/2/3 -15/2/3 -12/2/3
f -10/2/3 -13/2/3 -14/2/3
f -9/2/3 -13/2/3 -10/2/3
f -8/2/3 -12/2/3 -16/2/3
f -7/2/3 -15/2/3 -11/2/3
f -6/2/3 -10/2/3 -14/2/3
f -5/2/3 -13/2/3 -9/2/3
f -4/2/3 -8/2/3 -16/2/3
f -4/2/3 -7/2/3 -8/2/3
f -3/1/3 -14/1/3 -15/1/3
f -3/2/3 -7/2/3 -4/2/3
f -3/2/3 -15/2/3 -7/2/3
f -2/2/3 -5/2/3 -6/2/3
f -2/1/3 -14/1/3 -3/1/3
f -2/2/3 -6/2/3 -14/2/3
f -1/2/3 -13/2/3 -5/2/3
f -1/2/3 -5/2/3 -2/2/3
v -7 3 6
v -7 17 6
v -7 19 6
v -7 36 6
v -6 3 6
v -6 17 6
v -6 19 6
v -6 36 6
v -6 38 6
v -4 27 6
v -4 32 6
v 2 27 6
v 2 32 6
v 4 3 6
v 4 17 6
v 4 19 6
v 4 36 6
v 4 38 6
v 5 3 6
v 5 17 6
v 5 19 6
v 5 36 6
f -18/2/3 -21/2/3 -22/2/3
f -17/1/3 -20/1/3 -21/1/3
f -17/2/3 -21/2/3 -18/2/3
f -16/2/3 -19/2/3 -20/2/3
f -16/1/3 -20/1/3 -17/1/3
f -15/2/3 -19/2/3 -16/2/3
f -11/3/3 -12/3/3 -13/3/3
f -10/3/3 -12/3/3 -11/3/3
f -6/1/3 -14/1/3 -15/1/3
f -5/1/3 -14/1/3 -6/1/3
f -4/2/3 -8/2/3 -9/2/3
f -3/1/3 -7/1/3 -8/1/3
f -3/2/3 -8/2/3 -4/2/3
f -2/2/3 -6/2/3 -7/2/3
f -2/1/3 -7/1/3 -3/1/3
f -1/2/3 -6/2/3 -2/2/3
v -5 38 5
v -5 40 5
v 3 38 5
v 3 40 5
f -2/1/3 -3/1/3 -4/1/3
f -1/1/3 -3/1/3 -2/1/3
v -12 3 4
v -12 9 4
v -11 9 4
v -11 11 4
v -10 11 4
v -10 13 4
v -9 3 4
v -9 8 4
v -8 8 4
v -8 9 4
v -7 9 4
v -7 13 4
v -4 40 4
v -4 42 4
v 2 40 4
v 2 42 4
v 5 9 4
v 5 13 4
v 6 8 4
v 6 9 4
v 7 3 4
v 7 8 4
v 8 11 4
v 8 13 4
v 9 9 4
v 9 11 4
v 10 3 4
v 10 9 4
f -26/1/3 -27/1/3 -28/1/3
f -24/1/3 -25/1/3 -26/1/3
f -22/1/3 -26/1/3 -28/1/3
f -22/1/3 -23/1/3 -24/1/3
f -22/1/3 -24/1/3 -26/1/3
f -21/1/3 -23/1/3 -22/1/3
f -20/1/3 -23/1/3 -21/1/3
f -19/1/3 -23/1/3 -20/1/3
f -18/1/3 -23/1/3 -19/1/3
f -17/1/3 -23/1/3 -18/1/3
f -14/1/3 -15/1/3 -16/1/3
f -13/1/3 -15/1/3 -14/1/3
f -9/1/3 -11/1/3 -12/1/3
f -7/1/3 -9/1/3 -10/1/3
f -6/1/3 -11/1/3 -9/1/3
f -6/1/3 -7/1/3 -8/1/3
f -6/1/3 -9/1/3 -7/1/3
f -5/1/3 -11/1/3 -6/1/3
f -4/1/3 -6/1/3 -8/1/3
f -3/1/3 -6/1/3 -4/1/3
f -2/1/3 -4/1/3 -8/1/3
f -1/1/3 -4/1/3 -2/1/3
v -11 0 3
v -11 3 3
v -9 0 3
v -9 3 3
v -3 42 3
v -3 44 3
v 1 42 3
v 1 44 3
v 7 0 3
v 7 3 3
v 9 0 3
v 9 3 3
f -10/1/3 -11/1/3 -12/1/3
f -9/1/3 -11/1/3 -10/1/3
f -6/1/3 -7/1/3 -8/1/3
f -5/1/3 -7/1/3 -6/1/3
f -2/1/3 -3/1/3 -4/1/3
f -1/1/3 -3/1/3 -2/1/3
v -2 44 2
v -2 45 2
v 0 44 2
v 0 45 2
f -2/1/3 -3/1/3 -4/1/3
f -1/1/3 -3/1/3 -2/1/3
v -7 27 -2
v -7 32 -2
v -6 27 -2
v -6 32 -2
v 4 27 -2
v 4 32 -2
v 5 27 -2
v 5 32 -2
f -6/2/3 -7/2/3 -8/2/3
f -5/2/3 -7/2/3 -6/2/3
f -2/2/3 -3/2/3 -4/2/3
f -1/2/3 -3/2/3 -2/2/3
v -4 8 -6
v -4 9 -6
v 2 8 -6
v 2 9 -6
f -2/1/3 -3/1/3 -4/1/3
f -1/1/3 -3/1/3 -2/1/3
v -4 3 -7
v -4 8 -7
v -3 0 -7
v -3 3 -7
v 1 0 -7
v 1 3 -7
v 2 3 -7
v 2 8 -7
f -5/1/3 -7/1/3 -8/1/3
f -4/1/3 -5/1/3 -6/1/3
f -3/1/3 -7/1/3 -5/1/3
f -3/1/3 -5/1/3 -4/1/3
f -2/1/3 -7/1/3 -3/1/3
f -1/1/3 -7/1/3 -2/1/3
v -4 3 9
v -4 8 9
v -3 0 9
v -3 3 9
v 1 0 9
v 1 3 9
v 2 3 9
v 2 8 9
f -8/1/4 -7/1/4 -5/1/4
f -6/1/4 -5/1/4 -4/1/4
f -5/1/4 -7/1/4 -3/1/4
f -4/1/4 -5/1/4 -3/1/4
f -3/1/4 -7/1/4 -2/1/4
f -2/1/4 -7/1/4 -1/1/4
v -4 8 8
v -4 9 8
v 2 8 8
v 2 9 8
f -4/1/4 -3/1/4 -2/1/4
f -2/1/4 -3/1/4 -1/1/4
v -7 27 4
v -7 32 4
v -6 27 4
v -6 32 4
v 4 27 4
v 4 32 4
v 5 27 4
v 5 32 4
f -8/2/4 -7/2/4 -6/2/4
f -6/2/4 -7/2/4 -5/2/4
f -4/2/4 -3/2/4 -2/2/4
f -2/2/4 -3/2/4 -1/2/4
v -2 44 -0
v -2 45 -0
v 0 44 -0
v 0 45 -0
f -4/1/4 -3/1/4 -2/1/4
f -2/1/4 -3/1/4 -1/1/4
v -11 0 -1
v -11 3 -1
v -9 0 -1
v -9 3 -1
v -3 42 -1
v -3 44 -1
v 1 42 -1
v 1 44 -1
v 7 0 -1
v 7 3 -1
v 9 0 -1
v 9 3 -1
f -12/1/4 -11/1/4 -10/1/4
f -10/1/4 -11/1/4 -9/1/4
f -8/1/4 -7/1/4 -6/1/4
f -6/1/4 -7/1/4 -5/1/4
f -4/1/4 -3/1/4 -2/1/4
f -2/1/4 -3/1/4 -1/1/4
v -12 3 -2
v -12 9 -2
v -11 9 -2
v -11 11 -2
v -10 11 -2
v -10 13 -2
v -9 3 -2
v -9 8 -2
v -8 8 -2
v -8 9 -2
v -7 9 -2
v -7 13 -2
v -4 40 -2
v -4 42 -2
v 2 40 -2
v 2 42 -2
v 5 9 -2
v 5 13 -2
v 6 8 -2
v 6 9 -2
v 7 3 -2
v 7 8 -2
v 8 11 -2
v 8 13 -2
v 9 9 -2
v 9 11 -2
v 10 3 -2
v 10 9 -2
f -28/1/4 -27/1/4 -26/1/4
f -26/1/4 -25/1/4 -24/1/4
f -28/1/4 -26/1/4 -22/1/4
f -24/1/4 -23/1/4 -22/1/4
f -26/1/4 -24/1/4 -22/1/4
f -22/1/4 -23/1/4 -21/1/4
f -21/1/4 -23/1/4 -20/1/4
f -20/1/4 -23/1/4 -19/1/4
f -19/1/4 -23/1/4 -18/1/4
f -18/1/4 -23/1/4 -17/1/4
f -16/1/4 -15/1/4 -14/1/4
f -14/1/4 -15/1/4 -13/1/4
f -12/1/4 -11/1/4 -9/1/4
f -10/1/4 -9/1/4 -7/1/4
f -9/1/4 -11/1/4 -6/1/4
f -8/1/4 -7/1/4 -6/1/4
f -7/1/4 -9/1/4 -6/1/4
f -6/1/4 -11/1/4 -5/1/4
f -8/1/4 -6/1/4 -4/1/4
f -4/1/4 -6/1/4 -3/1/4
f -8/1/4 -4/1/4 -2/1/4
f -2/1/4 -4/1/4 -1/1/4
v -5 38 -3
v -5 40 -3
v 3 38 -3
v 3 40 -3
f -4/1/4 -3/1/4 -2/1/4
f -2/1/4 -3/1/4 -1/1/4
v -7 3 -4
v -7 17 -4
v -7 19 -4
v -7 36 -4
v -6 3 -4
v -6 17 -4
v -6 19 -4
v -6 36 -4
v -6 38 -4
v -4 27 -4
v -4 32 -4
v 2 27 -4
v 2 32 -4
v 4 3 -4
v 4 17 -4
v 4 19 -4
v 4 36 -4
v 4 38 -4
v 5 3 -4
v 5 17 -4
v 5 19 -4
v 5 36 -4
f -22/2/4 -21/2/4 -18/2/4
f -21/1/4 -20/1/4 -17/1/4
f -18/2/4 -21/2/4 -17/2/4
f -20/2/4 -19/2/4 -16/2/4
f -17/1/4 -20/1/4 -16/1/4
f -16/2/4 -19/2/4 -15/2/4
f -13/3/4 -12/3/4 -11/3/4
f -11/3/4 -12/3/4 -10/3/4
f -15/1/4 -14/1/4 -6/1/4
f -6/1/4 -14/1/4 -5/1/4
f -9/2/4 -8/2/4 -4/2/4
f -8/1/4 -7/1/4 -3/1/4
f -4/2/4 -8/2/4 -3/2/4
f -7/2/4 -6/2/4 -2/2/4
f -3/1/4 -7/1/4 -2/1/4
f -2/2/4 -6/2/4 -1/2/4
v -6 3 -5
v -6 17 -5
v -6 19 -5
v -6 36 -5
v -4 9 -5
v -4 13 -5
v -4 27 -5
v -4 32 -5
v 2 9 -5
v 2 13 -5
v 2 27 -5
v 2 32 -5
v 4 3 -5
v 4 17 -5
v 4 19 -5
v 4 36 -5
f -16/2/4 -15/2/4 -12/2/4
f -12/2/4 -15/2/4 -11/2/4
f -14/2/4 -13/2/4 -10/2/4
f -10/2/4 -13/2/4 -9/2/4
f -16/2/4 -12/2/4 -8/2/4
f -11/2/4 -15/2/4 -7/2/4
f -14/2/4 -10/2/4 -6/2/4
f -9/2/4 -13/2/4 -5/2/4
f -16/2/4 -8/2/4 -4/2/4
f -8/2/4 -7/2/4 -4/2/4
f -15/1/4 -14/1/4 -3/1/4
f -4/2/4 -7/2/4 -3/2/4
f -7/2/4 -15/2/4 -3/2/4
f -6/2/4 -5/2/4 -2/2/4
f -3/1/4 -14/1/4 -2/1/4
f -14/2/4 -6/2/4 -2/2/4
f -5/2/4 -13/2/4 -1/2/4
f -2/2/4 -5/2/4 -1/2/4
v -4 11 -8
v -4 13 -8
v 2 11 -8
v 2 13 -8
f -4/1/4 -3/1/4 -2/1/4
f -2/1/4 -3/1/4 -1/1/4
v -4 9 -9
v -4 11 -9
v -3 0 -9
v -3 3 -9
v 1 0 -9
v 1 3 -9
v 2 9 -9
v 2 11 -9
f -6/1/4 -5/1/4 -4/1/4
f -4/1/4 -5/1/4 -3/1/4
f -8/1/4 -7/1/4 -2/1/4
f -2/1/4 -7/1/4 -1/1/4
v -4 3 -10
v -4 9 -10
v 2 3 -10
v 2 9 -10
f -4/1/4 -3/1/4 -2/1/4
f -2/1/4 -3/1/4 -1/1/4
v -3 0 11
v 1 0 11
v -3 0 9
v 1 0 9
v -11 0 3
v -9 0 3
v 7 0 3
v 9 0 3
v -11 0 -1
v -9 0 -1
v 7 0 -1
v 9 0 -1
v -3 0 -7
v 1 0 -7
v -3 0 -9
v 1 0 -9
f -14/1/5 -15/1/5 -16/1/5
f -13/1/5 -15/1/5 -14/1/5
f -8/1/5 -11/1/5 -12/1/5
f -7/1/5 -11/1/5 -8/1/5
f -6/1/5 -9/1/5 -10/1/5
f -5/1/5 -9/1/5 -6/1/5
f -2/1/5 -3/1/5 -4/1/5
f -1/1/5 -3/1/5 -2/1/5
v -4 3 12
v 2 3 12
v -3 3 11
v 1 3 11
v -4 3 9
v -3 3 9
v 1 3 9
v 2 3 9
v -6 3 7
v 4 3 7
v -7 3 6
v -6 3 6
v 4 3 6
v 5 3 6
v -12 3 4
v -9 3 4
v 7 3 4
v 10 3 4
v -11 3 3
v -9 3 3
v 7 3 3
v 9 3 3
v -11 3 -1
v -9 3 -1
v 7 3 -1
v 9 3 -1
v -12 3 -2
v -9 3 -2
v 7 3 -2
v 10 3 -2
v -7 3 -4
v -6 3 -4
v 4 3 -4
v 5 3 -4
v -6 3 -5
v 4 3 -5
v -4 3 -7
v -3 3 -7
v 1 3 -7
v 2 3 -7
v -3 3 -9
v 1 3 -9
v -4 3 -10
v 2 3 -10
f -42/1/5 -43/1/5 -44/1/5
f -41/1/5 -43/1/5 -42/1/5
f -40/1/5 -42/1/5 -44/1/5
f -39/1/5 -42/1/5 -40/1/5
f -38/1/5 -43/1/5 -41/1/5
f -37/1/5 -43/1/5 -38/1/5
f -33/2/5 -35/2/5 -36/2/5
f -32/2/5 -35/2/5 -33/2/5
f -26/1/5 -29/1/5 -30/1/5
f -25/1/5 -29/1/5 -26/1/5
f -24/1/5 -27/1/5 -28/1/5
f -23/1/5 -27/1/5 -24/1/5
f -22/1/5 -26/1/5 -30/1/5
f -19/1/5 -27/1/5 -23/1/5
f -18/1/5 -21/1/5 -22/1/5
f -18/1/5 -22/1/5 -30/1/5
f -17/1/5 -21/1/5 -18/1/5
f -16/1/5 -19/1/5 -20/1/5
f -15/1/5 -27/1/5 -19/1/5
f -15/1/5 -19/1/5 -16/1/5
f -14/2/5 -33/2/5 -34/2/5
f -14/2/5 -32/2/5 -33/2/5
f -14/2/5 -31/2/5 -32/2/5
f -13/2/5 -31/2/5 -14/2/5
f -12/2/5 -31/2/5 -13/2/5
f -11/2/5 -31/2/5 -12/2/5
f -10/2/5 -12/2/5 -13/2/5
f -9/2/5 -12/2/5 -10/2/5
f -4/1/5 -7/1/5 -8/1/5
f -3/1/5 -5/1/5 -6/1/5
f -2/1/5 -4/1/5 -8/1/5
f -2/1/5 -3/1/5 -4/1/5
f -1/1/5 -5/1/5 -3/1/5
f -1/1/5 -3/1/5 -2/1/5
v -4 8 9
v 2 8 9
v -4 8 8
v 2 8 8
v -9 8 4
v -8 8 4
v 6 8 4
v 7 8 4
v -9 8 -2
v -8 8 -2
v 6 8 -2
v 7 8 -2
v -4 8 -6
v 2 8 -6
v -4 8 -7
v 2 8 -7
f -14/1/5 -15/1/5 -16/1/5
f -13/1/5 -15/1/5 -14/1/5
f -8/1/5 -11/1/5 -12/1/5
f -7/1/5 -11/1/5 -8/1/5
f -6/1/5 -9/1/5 -10/1/5
f -5/1/5 -9/1/5 -6/1/5
f -2/1/5 -3/1/5 -4/1/5
f -1/1/5 -3/1/5 -2/1/5
v -4 9 8
v 2 9 8
v -4 9 7
v 2 9 7
v -8 9 4
v -7 9 4
v 5 9 4
v 6 9 4
v -8 9 -2
v -7 9 -2
v 5 9 -2
v 6 9 -2
v -4 9 -5
v 2 9 -5
v -4 9 -6
v 2 9 -6
f -14/1/5 -15/1/5 -16/1/5
f -13/1/5 -15/1/5 -14/1/5
f -8/1/5 -11/1/5 -12/1/5
f -7/1/5 -11/1/5 -8/1/5
f -6/1/5 -9/1/5 -10/1/5
f -5/1/5 -9/1/5 -6/1/5
f -2/1/5 -3/1/5 -4/1/5
f -1/1/5 -3/1/5 -2/1/5
v -4 32 7
v 2 32 7
v -4 32 6
v 2 32 6
v -7 32 4
v -6 32 4
v 4 32 4
v 5 32 4
v -7 32 -2
v -6 32 -2
v 4 32 -2
v 5 32 -2
v -4 32 -4
v 2 32 -4
v -4 32 -5
v 2 32 -5
f -14/2/5 -15/2/5 -16/2/5
f -13/2/5 -15/2/5 -14/2/5
f -8/2/5 -11/2/5 -12/2/5
f -7/2/5 -11/2/5 -8/2/5
f -6/2/5 -9/2/5 -10/2/5
f -5/2/5 -9/2/5 -6/2/5
f -2/2/5 -3/2/5 -4/2/5
f -1/2/5 -3/2/5 -2/2/5
v -4 9 12
v 2 9 12
v -4 9 11
v 2 9 11
v -12 9 4
v -11 9 4
v 9 9 4
v 10 9 4
v -12 9 -2
v -11 9 -2
v 9 9 -2
v 10 9 -2
v -4 9 -9
v 2 9 -9
v -4 9 -10
v 2 9 -10
f -16/1/6 -15/1/6 -14/1/6
f -14/1/6 -15/1/6 -13/1/6
f -12/1/6 -11/1/6 -8/1/6
f -8/1/6 -11/1/6 -7/1/6
f -10/1/6 -9/1/6 -6/1/6
f -6/1/6 -9/1/6 -5/1/6
f -4/1/6 -3/1/6 -2/1/6
f -2/1/6 -3/1/6 -1/1/6
v -4 11 11
v 2 11 11
v -4 11 10
v 2 11 10
v -11 11 4
v -10 11 4
v 8 11 4
v 9 11 4
v -11 11 -2
v -10 11 -2
v 8 11 -2
v 9 11 -2
v -4 11 -8
v 2 11 -8
v -4 11 -9
v 2 11 -9
f -16/1/6 -15/1/6 -14/1/6
f -14/1/6 -15/1/6 -13/1/6
f -12/1/6 -11/1/6 -8/1/6
f -8/1/6 -11/1/6 -7/1/6
f -10/1/6 -9/1/6 -6/1/6
f -6/1/6 -9/1/6 -5/1/6
f -4/1/6 -3/1/6 -2/1/6
f -2/1/6 -3/1/6 -1/1/6
v -4 13 10
v 2 13 10
v -4 13 7
v 2 13 7
v -10 13 4
v -7 13 4
v 5 13 4
v 8 13 4
v -10 13 -2
v -7 13 -2
v 5 13 -2
v 8 13 -2
v -4 13 -5
v 2 13 -5
v -4 13 -8
v 2 13 -8
f -16/1/6 -15/1/6 -14/1/6
f -14/1/6 -15/1/6 -13/1/6
f -12/1/6 -11/1/6 -8/1/6
f -8/1/6 -11/1/6 -7/1/6
f -10/1/6 -9/1/6 -6/1/6
f -6/1/6 -9/1/6 -5/1/6
f -4/1/6 -3/1/6 -2/1/6
f -2/1/6 -3/1/6 -1/1/6
v -4 27 7
v 2 27 7
v -4 27 6
v 2 27 6
v -7 27 4
v -6 27 4
v 4 27 4
v 5 27 4
v -7 27 -2
v -6 27 -2
v 4 27 -2
v 5 27 -2
v -4 27 -4
v 2 27 -4
v -4 27 -5
v 2 27 -5
f -16/2/6 -15/2/6 -14/2/6
f -14/2/6 -15/2/6 -13/2/6
f -12/2/6 -11/2/6 -8/2/6
f -8/2/6 -11/2/6 -7/2/6
f -10/2/6 -9/2/6 -6/2/6
f -6/2/6 -9/2/6 -5/2/6
f -4/2/6 -3/2/6 -2/2/6
f -2/2/6 -3/2/6 -1/2/6
v -6 36 7
v 4 36 7
v -7 36 6
v -6 36 6
v 4 36 6
v 5 36 6
v -7 36 -4
v -6 36 -4
v 4 36 -4
v 5 36 -4
v -6 36 -5
v 4 36 -5
f -12/2/6 -11/2/6 -9/2/6
f -9/2/6 -11/2/6 -8/2/6
f -10/2/6 -9/2/6 -6/2/6
f -6/2/6 -9/2/6 -5/2/6
f -8/2/6 -7/2/6 -4/2/6
f -4/2/6 -7/2/6 -3/2/6
f -5/2/6 -4/2/6 -2/2/6
f -2/2/6 -4/2/6 -1/2/6
v -6 38 6
v 4 38 6
v -5 38 5
v 3 38 5
v -5 38 -3
v 3 38 -3
v -6 38 -4
v 4 38 -4
f -8/1/6 -7/1/6 -6/1/6
f -6/1/6 -7/1/6 -5/1/6
f -8/1/6 -6/1/6 -4/1/6
f -5/1/6 -7/1/6 -3/1/6
f -8/1/6 -4/1/6 -2/1/6
f -4/1/6 -3/1/6 -2/1/6
f -3/1/6 -7/1/6 -1/1/6
f -2/1/6 -3/1/6 -1/1/6
v -5 40 5
v 3 40 5
v -4 40 4
v 2 40 4
v -4 40 -2
v 2 40 -2
v -5 40 -3
v 3 40 -3
f -8/1/6 -7/1/6 -6/1/6
f -6/1/6 -7/1/6 -5/1/6
f -8/1/6 -6/1/6 -4/1/6
f -5/1/6 -7/1/6 -3/1/6
f -8/1/6 -4/1/6 -2/1/6
f -4/1/6 -3/1/6 -2/1/6
f -3/1/6 -7/1/6 -1/1/6
f -2/1/6 -3/1/6 -1/1/6
v -4 42 4
v 2 42 4
v -3 42 3
v 1 42 3
v -3 42 -1
v 1 42 -1
v -4 42 -2
v 2 42 -2
f -8/1/6 -7/1/6 -6/1/6
f -6/1/6 -7/1/6 -5/1/6
f -8/1/6 -6/1/6 -4/1/6
f -5/1/6 -7/1/6 -3/1/6
f -8/1/6 -4/1/6 -2/1/6
f -4/1/6 -3/1/6 -2/1/6
f -3/1/6 -7/1/6 -1/1/6
f -2/1/6 -3/1/6 -1/1/6
v -3 44 3
v 1 44 3
v -2 44 2
v 0 44 2
v -2 44 -0
v 0 44 -0
v -3 44 -1
v 1 44 -1
f -8/1/6 -7/1/6 -6/1/6
f -6/1/6 -7/1/6 -5/1/6
f -8/1/6 -6/1/6 -4/1/6
f -5/1/6 -7/1/6 -3/1/6
f -8/1/6 -4/1/6 -2/1/6
f -4/1/6 -3/1/6 -2/1/6
f -3/1/6 -7/1/6 -1/1/6
f -2/1/6 -3/1/6 -1/1/6
v -2 45 2
v 0 45 2
v -2 45 -0
v 0 45 -0
f -4/1/6 -3/1/6 -2/1/6
f -2/1/6 -3/1/6 -1/1/6
