# MagicaVoxel @ ephtracy

# material
mtllib rocket2.mtl
usemtl palette

# mesh name
g rocket2_mesh


# normals
vn -1 0 0
vn 1 0 0
vn 0 0 1
vn 0 0 -1
vn 0 -1 0
vn 0 1 0

# texcoords
vt 0.0917969 0.5
vt 0.138672 0.5
vt 0.255859 0.5
vt 0.755859 0.5

# verts
v -5 0 1
v -5 0 -1
v -5 13 1
v -5 13 -1
v -3 3 2
v -3 3 1
v -3 3 -1
v -3 3 -2
v -3 13 1
v -3 13 -1
v -3 14 2
v -3 14 1
v -3 14 -1
v -3 14 -2
v -3 19 2
v -3 19 -2
v -2 3 5
v -2 3 3
v -2 3 2
v -2 3 -2
v -2 3 -3
v -2 3 -5
v -2 14 2
v -2 14 -2
v -2 19 5
v -2 19 3
v -2 19 2
v -2 19 -2
v -2 19 -3
v -2 19 -5
v -1 8 14
v -1 8 5
v -1 8 -5
v -1 8 -14
v -1 11 15
v -1 11 14
v -1 11 -14
v -1 11 -15
v -1 13 12
v -1 13 5
v -1 13 -5
v -1 13 -12
v -1 15 13
v -1 15 12
v -1 15 -12
v -1 15 -13
v -1 16 15
v -1 16 13
v -1 16 -13
v -1 16 -15
v -1 19 4
v -1 19 3
v -1 19 2
v -1 19 1
v -1 19 -1
v -1 19 -2
v -1 19 -3
v -1 19 -4
v -1 29 4
v -1 29 3
v -1 29 1
v -1 29 -1
v -1 29 -3
v -1 29 -4
v 0 29 3
v 0 29 1
v 0 29 -1
v 0 29 -3
v 0 40 3
v 0 40 1
v 0 40 -1
v 0 40 -3
v 1 40 2
v 1 40 1
v 1 40 -1
v 1 40 -2
v 1 42 2
v 1 42 -2
v 2 42 1
v 2 42 -1
v 2 44 1
v 2 44 -1
v 3 0 5
v 3 0 2
v 3 0 -2
v 3 0 -5
v 3 3 5
v 3 3 2
v 3 3 -2
v 3 3 -5
v 3 19 5
v 3 19 4
v 3 19 -4
v 3 19 -5
v 3 21 5
v 3 21 4
v 3 21 -4
v 3 21 -5
v -3 0 1
v -3 0 -1
v -3 3 1
v -3 3 -1
v 1 8 14
v 1 8 5
v 1 8 -5
v 1 8 -14
v 1 11 15
v 1 11 14
v 1 11 -14
v 1 11 -15
v 1 13 12
v 1 13 5
v 1 13 -5
v 1 13 -12
v 1 15 13
v 1 15 12
v 1 15 -12
v 1 15 -13
v 1 16 15
v 1 16 13
v 1 16 -13
v 1 16 -15
v 3 3 2
v 3 3 -2
v 3 21 4
v 3 21 2
v 3 21 -2
v 3 21 -4
v 3 29 4
v 3 29 3
v 3 29 -3
v 3 29 -4
v 3 40 3
v 3 40 2
v 3 40 -2
v 3 40 -3
v 3 42 2
v 3 42 1
v 3 42 -1
v 3 42 -2
v 3 44 1
v 3 44 -1
v 5 0 5
v 5 0 2
v 5 0 -2
v 5 0 -5
v 5 21 5
v 5 21 2
v 5 21 -2
v 5 21 -5
v -1 11 15
v -1 16 15
v 0 11 15
v 0 16 15
v 1 11 15
v 1 16 15
v -1 8 14
v -1 11 14
v 0 8 14
v 0 11 14
v 1 8 14
v 1 11 14
v -2 3 5
v -2 19 5
v -1 8 5
v -1 13 5
v 0 8 5
v 0 13 5
v 1 8 5
v 1 13 5
v 3 0 5
v 3 3 5
v 3 19 5
v 3 21 5
v 5 0 5
v 5 21 5
v -1 19 4
v -1 29 4
v 3 19 4
v 3 21 4
v 3 29 4
v 0 29 3
v 0 40 3
v 2 29 3
v 2 40 3
v 3 29 3
v 3 40 3
v -3 3 2
v -3 14 2
v -3 19 2
v -2 3 2
v -2 14 2
v -2 19 2
v 1 40 2
v 1 42 2
v 2 40 2
v 3 40 2
v 3 42 2
v -5 0 1
v -5 13 1
v -3 0 1
v -3 3 1
v -3 13 1
v 2 42 1
v 2 44 1
v 3 42 1
v 3 44 1
v 3 0 -2
v 3 3 -2
v 3 21 -2
v 5 0 -2
v 5 21 -2
v -1 13 -12
v -1 15 -12
v 0 13 -12
v 0 15 -12
v 1 13 -12
v 1 15 -12
v -1 15 -13
v -1 16 -13
v 0 15 -13
v 0 16 -13
v 1 15 -13
v 1 16 -13
v -1 15 13
v -1 16 13
v 0 15 13
v 0 16 13
v 1 15 13
v 1 16 13
v -1 13 12
v -1 15 12
v 0 13 12
v 0 15 12
v 1 13 12
v 1 15 12
v 3 0 2
v 3 3 2
v 3 21 2
v 5 0 2
v 5 21 2
v -5 0 -1
v -5 13 -1
v -3 0 -1
v -3 3 -1
v -3 13 -1
v 2 42 -1
v 2 44 -1
v 3 42 -1
v 3 44 -1
v -3 3 -2
v -3 14 -2
v -3 19 -2
v -2 3 -2
v -2 14 -2
v -2 19 -2
v 1 40 -2
v 1 42 -2
v 2 40 -2
v 3 40 -2
v 3 42 -2
v 0 29 -3
v 0 40 -3
v 2 29 -3
v 2 40 -3
v 3 29 -3
v 3 40 -3
v -1 19 -4
v -1 29 -4
v 3 19 -4
v 3 21 -4
v 3 29 -4
v -2 3 -5
v -2 19 -5
v -1 8 -5
v -1 13 -5
v 0 8 -5
v 0 13 -5
v 1 8 -5
v 1 13 -5
v 3 0 -5
v 3 3 -5
v 3 19 -5
v 3 21 -5
v 5 0 -5
v 5 21 -5
v -1 8 -14
v -1 11 -14
v 0 8 -14
v 0 11 -14
v 1 8 -14
v 1 11 -14
v -1 11 -15
v -1 16 -15
v 0 11 -15
v 0 16 -15
v 1 11 -15
v 1 16 -15
v 3 0 5
v 5 0 5
v 3 0 2
v 5 0 2
v -5 0 1
v -3 0 1
v -5 0 -1
v -3 0 -1
v 3 0 -2
v 5 0 -2
v 3 0 -5
v 5 0 -5
v -2 3 5
v 3 3 5
v -2 3 3
v 2 3 3
v -3 3 2
v -2 3 2
v 3 3 2
v -3 3 1
v 2 3 1
v -3 3 -1
v 2 3 -1
v -3 3 -2
v -2 3 -2
v 3 3 -2
v -2 3 -3
v 2 3 -3
v -2 3 -5
v 3 3 -5
v -1 8 14
v 0 8 14
v 1 8 14
v -1 8 5
v 0 8 5
v 1 8 5
v -1 8 -5
v 0 8 -5
v 1 8 -5
v -1 8 -14
v 0 8 -14
v 1 8 -14
v -1 11 15
v 0 11 15
v 1 11 15
v -1 11 14
v 0 11 14
v 1 11 14
v -1 11 -14
v 0 11 -14
v 1 11 -14
v -1 11 -15
v 0 11 -15
v 1 11 -15
v -1 13 12
v 0 13 12
v 1 13 12
v -1 13 5
v 0 13 5
v 1 13 5
v -5 13 1
v -3 13 1
v -5 13 -1
v -3 13 -1
v -1 13 -5
v 0 13 -5
v 1 13 -5
v -1 13 -12
v 0 13 -12
v 1 13 -12
v -1 15 13
v 0 15 13
v 1 15 13
v -1 15 12
v 0 15 12
v 1 15 12
v -1 15 -12
v 0 15 -12
v 1 15 -12
v -1 15 -13
v 0 15 -13
v 1 15 -13
v -1 16 15
v 0 16 15
v 1 16 15
v -1 16 13
v 0 16 13
v 1 16 13
v -1 16 -13
v 0 16 -13
v 1 16 -13
v -1 16 -15
v 0 16 -15
v 1 16 -15
v -2 19 5
v 3 19 5
v -1 19 4
v 3 19 4
v -2 19 3
v -1 19 3
v -3 19 2
v -2 19 2
v -1 19 2
v -1 19 1
v -1 19 -1
v -3 19 -2
v -2 19 -2
v -1 19 -2
v -2 19 -3
v -1 19 -3
v -1 19 -4
v 3 19 -4
v -2 19 -5
v 3 19 -5
v 3 21 5
v 5 21 5
v 3 21 4
v 3 21 2
v 5 21 2
v 3 21 -2
v 5 21 -2
v 3 21 -4
v 3 21 -5
v 5 21 -5
v -1 29 4
v 3 29 4
v -1 29 3
v 0 29 3
v 2 29 3
v 3 29 3
v -1 29 1
v 0 29 1
v -1 29 -1
v 0 29 -1
v -1 29 -3
v 0 29 -3
v 2 29 -3
v 3 29 -3
v -1 29 -4
v 3 29 -4
v 0 40 3
v 2 40 3
v 3 40 3
v 1 40 2
v 2 40 2
v 3 40 2
v 0 40 1
v 1 40 1
v 0 40 -1
v 1 40 -1
v 1 40 -2
v 2 40 -2
v 3 40 -2
v 0 40 -3
v 2 40 -3
v 3 40 -3
v 1 42 2
v 3 42 2
v 2 42 1
v 3 42 1
v 2 42 -1
v 3 42 -1
v 1 42 -2
v 3 42 -2
v 2 44 1
v 3 44 1
v 2 44 -1
v 3 44 -1

# faces
f 3/3/1 2/3/1 1/3/1
f 4/3/1 2/3/1 3/3/1
f 9/3/1 6/3/1 5/3/1
f 10/3/1 8/3/1 7/3/1
f 11/3/1 9/3/1 5/3/1
f 12/1/1 10/1/1 9/1/1
f 12/3/1 9/3/1 11/3/1
f 13/3/1 8/3/1 10/3/1
f 13/1/1 10/1/1 12/1/1
f 14/3/1 8/3/1 13/3/1
f 15/4/1 12/4/1 11/4/1
f 15/4/1 13/4/1 12/4/1
f 15/4/1 14/4/1 13/4/1
f 16/4/1 14/4/1 15/4/1
f 23/3/1 19/3/1 18/3/1
f 24/3/1 21/3/1 20/3/1
f 25/1/1 18/1/1 17/1/1
f 26/3/1 23/3/1 18/3/1
f 26/1/1 18/1/1 25/1/1
f 27/3/1 23/3/1 26/3/1
f 28/3/1 21/3/1 24/3/1
f 29/1/1 22/1/1 21/1/1
f 29/3/1 21/3/1 28/3/1
f 30/1/1 22/1/1 29/1/1
f 36/1/1 32/1/1 31/1/1
f 37/1/1 34/1/1 33/1/1
f 39/1/1 36/1/1 35/1/1
f 39/1/1 32/1/1 36/1/1
f 40/1/1 32/1/1 39/1/1
f 41/1/1 38/1/1 37/1/1
f 41/1/1 37/1/1 33/1/1
f 42/1/1 38/1/1 41/1/1
f 43/1/1 39/1/1 35/1/1
f 44/1/1 39/1/1 43/1/1
f 45/1/1 38/1/1 42/1/1
f 46/1/1 38/1/1 45/1/1
f 47/1/1 43/1/1 35/1/1
f 48/1/1 43/1/1 47/1/1
f 49/1/1 38/1/1 46/1/1
f 50/1/1 38/1/1 49/1/1
f 59/1/1 52/1/1 51/1/1
f 60/3/1 53/3/1 52/3/1
f 60/1/1 52/1/1 59/1/1
f 60/3/1 54/3/1 53/3/1
f 61/1/1 55/1/1 54/1/1
f 61/3/1 54/3/1 60/3/1
f 62/3/1 57/3/1 56/3/1
f 62/1/1 55/1/1 61/1/1
f 62/3/1 56/3/1 55/3/1
f 63/1/1 58/1/1 57/1/1
f 63/3/1 57/3/1 62/3/1
f 64/1/1 58/1/1 63/1/1
f 69/3/1 66/3/1 65/3/1
f 70/1/1 67/1/1 66/1/1
f 70/3/1 66/3/1 69/3/1
f 71/3/1 68/3/1 67/3/1
f 71/1/1 67/1/1 70/1/1
f 72/3/1 68/3/1 71/3/1
f 77/3/1 74/3/1 73/3/1
f 77/3/1 76/3/1 75/3/1
f 77/3/1 75/3/1 74/3/1
f 78/3/1 76/3/1 77/3/1
f 81/3/1 80/3/1 79/3/1
f 82/3/1 80/3/1 81/3/1
f 87/3/1 84/3/1 83/3/1
f 88/3/1 84/3/1 87/3/1
f 89/3/1 86/3/1 85/3/1
f 90/3/1 86/3/1 89/3/1
f 95/3/1 92/3/1 91/3/1
f 96/3/1 92/3/1 95/3/1
f 97/3/1 94/3/1 93/3/1
f 98/3/1 94/3/1 97/3/1
f 99/3/2 100/3/2 101/3/2
f 101/3/2 100/3/2 102/3/2
f 103/2/2 104/2/2 108/2/2
f 105/2/2 106/2/2 109/2/2
f 107/2/2 108/2/2 111/2/2
f 108/2/2 104/2/2 111/2/2
f 111/2/2 104/2/2 112/2/2
f 109/2/2 110/2/2 113/2/2
f 105/2/2 109/2/2 113/2/2
f 113/2/2 110/2/2 114/2/2
f 107/2/2 111/2/2 115/2/2
f 115/2/2 111/2/2 116/2/2
f 114/2/2 110/2/2 117/2/2
f 117/2/2 110/2/2 118/2/2
f 107/2/2 115/2/2 119/2/2
f 119/2/2 115/2/2 120/2/2
f 118/2/2 110/2/2 121/2/2
f 121/2/2 110/2/2 122/2/2
f 123/1/2 124/1/2 126/1/2
f 126/1/2 124/1/2 127/1/2
f 125/1/2 126/1/2 129/1/2
f 127/1/2 128/1/2 129/1/2
f 126/1/2 127/1/2 129/1/2
f 129/1/2 128/1/2 130/1/2
f 130/1/2 128/1/2 131/1/2
f 131/1/2 128/1/2 132/1/2
f 130/1/2 131/1/2 133/1/2
f 133/1/2 131/1/2 134/1/2
f 134/1/2 131/1/2 135/1/2
f 135/1/2 131/1/2 136/1/2
f 134/3/2 135/3/2 137/3/2
f 137/3/2 135/3/2 138/3/2
f 138/3/2 135/3/2 139/3/2
f 139/3/2 135/3/2 140/3/2
f 138/3/2 139/3/2 141/3/2
f 141/3/2 139/3/2 142/3/2
f 143/3/2 144/3/2 147/3/2
f 147/3/2 144/3/2 148/3/2
f 145/3/2 146/3/2 149/3/2
f 149/3/2 146/3/2 150/3/2
f 153/1/3 152/1/3 151/1/3
f 154/1/3 152/1/3 153/1/3
f 155/2/3 154/2/3 153/2/3
f 156/2/3 154/2/3 155/2/3
f 159/1/3 158/1/3 157/1/3
f 160/1/3 158/1/3 159/1/3
f 161/2/3 160/2/3 159/2/3
f 162/2/3 160/2/3 161/2/3
f 165/1/3 164/1/3 163/1/3
f 166/1/3 164/1/3 165/1/3
f 167/1/3 165/1/3 163/1/3
f 168/1/3 164/1/3 166/1/3
f 169/1/3 167/1/3 163/1/3
f 170/1/3 164/1/3 168/1/3
f 172/1/3 169/1/3 163/1/3
f 172/1/3 170/1/3 169/1/3
f 173/1/3 164/1/3 170/1/3
f 173/1/3 170/1/3 172/1/3
f 175/3/3 172/3/3 171/3/3
f 175/3/3 174/3/3 173/3/3
f 175/3/3 173/3/3 172/3/3
f 176/3/3 174/3/3 175/3/3
f 179/1/3 178/1/3 177/1/3
f 180/1/3 178/1/3 179/1/3
f 181/1/3 178/1/3 180/1/3
f 184/3/3 183/3/3 182/3/3
f 185/3/3 183/3/3 184/3/3
f 186/1/3 185/1/3 184/1/3
f 187/1/3 185/1/3 186/1/3
f 191/3/3 189/3/3 188/3/3
f 192/4/3 190/4/3 189/4/3
f 192/3/3 189/3/3 191/3/3
f 193/4/3 190/4/3 192/4/3
f 196/3/3 195/3/3 194/3/3
f 197/3/3 195/3/3 196/3/3
f 198/3/3 195/3/3 197/3/3
f 201/3/3 200/3/3 199/3/3
f 202/3/3 200/3/3 201/3/3
f 203/3/3 200/3/3 202/3/3
f 206/3/3 205/3/3 204/3/3
f 207/3/3 205/3/3 206/3/3
f 211/3/3 209/3/3 208/3/3
f 211/3/3 210/3/3 209/3/3
f 212/3/3 210/3/3 211/3/3
f 215/1/3 214/1/3 213/1/3
f 216/1/3 214/1/3 215/1/3
f 217/2/3 216/2/3 215/2/3
f 218/2/3 216/2/3 217/2/3
f 221/1/3 220/1/3 219/1/3
f 222/1/3 220/1/3 221/1/3
f 223/2/3 222/2/3 221/2/3
f 224/2/3 222/2/3 223/2/3
f 225/1/4 226/1/4 227/1/4
f 227/1/4 226/1/4 228/1/4
f 227/2/4 228/2/4 229/2/4
f 229/2/4 228/2/4 230/2/4
f 231/1/4 232/1/4 233/1/4
f 233/1/4 232/1/4 234/1/4
f 233/2/4 234/2/4 235/2/4
f 235/2/4 234/2/4 236/2/4
f 237/3/4 238/3/4 240/3/4
f 238/3/4 239/3/4 240/3/4
f 240/3/4 239/3/4 241/3/4
f 242/3/4 243/3/4 244/3/4
f 244/3/4 243/3/4 245/3/4
f 245/3/4 243/3/4 246/3/4
f 247/3/4 248/3/4 249/3/4
f 249/3/4 248/3/4 250/3/4
f 251/3/4 252/3/4 254/3/4
f 252/4/4 253/4/4 255/4/4
f 254/3/4 252/3/4 255/3/4
f 255/4/4 253/4/4 256/4/4
f 257/3/4 258/3/4 259/3/4
f 259/3/4 258/3/4 260/3/4
f 260/3/4 258/3/4 261/3/4
f 262/3/4 263/3/4 264/3/4
f 264/3/4 263/3/4 265/3/4
f 264/1/4 265/1/4 266/1/4
f 266/1/4 265/1/4 267/1/4
f 268/1/4 269/1/4 270/1/4
f 270/1/4 269/1/4 271/1/4
f 271/1/4 269/1/4 272/1/4
f 273/1/4 274/1/4 275/1/4
f 275/1/4 274/1/4 276/1/4
f 273/1/4 275/1/4 277/1/4
f 276/1/4 274/1/4 278/1/4
f 273/1/4 277/1/4 279/1/4
f 278/1/4 274/1/4 280/1/4
f 273/1/4 279/1/4 282/1/4
f 279/1/4 280/1/4 282/1/4
f 280/1/4 274/1/4 283/1/4
f 282/1/4 280/1/4 283/1/4
f 281/3/4 282/3/4 285/3/4
f 283/3/4 284/3/4 285/3/4
f 282/3/4 283/3/4 285/3/4
f 285/3/4 284/3/4 286/3/4
f 287/1/4 288/1/4 289/1/4
f 289/1/4 288/1/4 290/1/4
f 289/2/4 290/2/4 291/2/4
f 291/2/4 290/2/4 292/2/4
f 293/1/4 294/1/4 295/1/4
f 295/1/4 294/1/4 296/1/4
f 295/2/4 296/2/4 297/2/4
f 297/2/4 296/2/4 298/2/4
f 301/3/5 300/3/5 299/3/5
f 302/3/5 300/3/5 301/3/5
f 305/3/5 304/3/5 303/3/5
f 306/3/5 304/3/5 305/3/5
f 309/3/5 308/3/5 307/3/5
f 310/3/5 308/3/5 309/3/5
f 313/1/5 312/1/5 311/1/5
f 314/1/5 312/1/5 313/1/5
f 316/3/5 314/3/5 313/3/5
f 317/1/5 312/1/5 314/1/5
f 318/3/5 316/3/5 315/3/5
f 319/3/5 314/3/5 316/3/5
f 319/3/5 316/3/5 318/3/5
f 319/1/5 317/1/5 314/1/5
f 320/1/5 319/1/5 318/1/5
f 321/1/5 317/1/5 319/1/5
f 321/1/5 319/1/5 320/1/5
f 322/3/5 321/3/5 320/3/5
f 323/3/5 321/3/5 322/3/5
f 324/1/5 317/1/5 321/1/5
f 325/3/5 321/3/5 323/3/5
f 326/1/5 324/1/5 321/1/5
f 326/3/5 321/3/5 325/3/5
f 327/1/5 326/1/5 325/1/5
f 328/1/5 324/1/5 326/1/5
f 328/1/5 326/1/5 327/1/5
f 332/1/5 330/1/5 329/1/5
f 333/2/5 331/2/5 330/2/5
f 333/1/5 330/1/5 332/1/5
f 334/2/5 331/2/5 333/2/5
f 338/1/5 336/1/5 335/1/5
f 339/2/5 337/2/5 336/2/5
f 339/1/5 336/1/5 338/1/5
f 340/2/5 337/2/5 339/2/5
f 344/1/5 342/1/5 341/1/5
f 345/2/5 343/2/5 342/2/5
f 345/1/5 342/1/5 344/1/5
f 346/2/5 343/2/5 345/2/5
f 350/1/5 348/1/5 347/1/5
f 351/2/5 349/2/5 348/2/5
f 351/1/5 348/1/5 350/1/5
f 352/2/5 349/2/5 351/2/5
f 353/1/6 354/1/6 356/1/6
f 354/2/6 355/2/6 357/2/6
f 356/1/6 354/1/6 357/1/6
f 357/2/6 355/2/6 358/2/6
f 359/3/6 360/3/6 361/3/6
f 361/3/6 360/3/6 362/3/6
f 363/1/6 364/1/6 366/1/6
f 364/2/6 365/2/6 367/2/6
f 366/1/6 364/1/6 367/1/6
f 367/2/6 365/2/6 368/2/6
f 369/1/6 370/1/6 372/1/6
f 370/2/6 371/2/6 373/2/6
f 372/1/6 370/1/6 373/1/6
f 373/2/6 371/2/6 374/2/6
f 375/1/6 376/1/6 378/1/6
f 376/2/6 377/2/6 379/2/6
f 378/1/6 376/1/6 379/1/6
f 379/2/6 377/2/6 380/2/6
f 381/1/6 382/1/6 384/1/6
f 382/2/6 383/2/6 385/2/6
f 384/1/6 382/1/6 385/1/6
f 385/2/6 383/2/6 386/2/6
f 387/1/6 388/1/6 390/1/6
f 388/2/6 389/2/6 391/2/6
f 390/1/6 388/1/6 391/1/6
f 391/2/6 389/2/6 392/2/6
f 393/1/6 394/1/6 395/1/6
f 395/1/6 394/1/6 396/1/6
f 393/1/6 395/1/6 397/1/6
f 397/1/6 395/1/6 398/1/6
f 397/3/6 398/3/6 400/3/6
f 400/3/6 398/3/6 401/3/6
f 399/4/6 400/4/6 402/4/6
f 400/4/6 401/4/6 402/4/6
f 399/4/6 402/4/6 403/4/6
f 399/4/6 403/4/6 404/4/6
f 404/4/6 403/4/6 405/4/6
f 405/4/6 403/4/6 406/4/6
f 405/3/6 406/3/6 407/3/6
f 407/3/6 406/3/6 408/3/6
f 407/1/6 408/1/6 409/1/6
f 407/1/6 409/1/6 411/1/6
f 409/1/6 410/1/6 411/1/6
f 411/1/6 410/1/6 412/1/6
f 413/3/6 414/3/6 415/3/6
f 415/3/6 414/3/6 416/3/6
f 416/3/6 414/3/6 417/3/6
f 418/3/6 419/3/6 420/3/6
f 420/3/6 419/3/6 421/3/6
f 421/3/6 419/3/6 422/3/6
f 423/1/6 424/1/6 425/1/6
f 425/1/6 424/1/6 426/1/6
f 426/1/6 424/1/6 427/1/6
f 427/1/6 424/1/6 428/1/6
f 425/3/6 426/3/6 429/3/6
f 429/3/6 426/3/6 430/3/6
f 429/1/6 430/1/6 431/1/6
f 431/1/6 430/1/6 432/1/6
f 431/3/6 432/3/6 433/3/6
f 433/3/6 432/3/6 434/3/6
f 433/1/6 434/1/6 437/1/6
f 435/1/6 436/1/6 437/1/6
f 434/1/6 435/1/6 437/1/6
f 437/1/6 436/1/6 438/1/6
f 439/3/6 440/3/6 442/3/6
f 440/1/6 441/1/6 443/1/6
f 442/3/6 440/3/6 443/3/6
f 443/1/6 441/1/6 444/1/6
f 439/3/6 442/3/6 445/3/6
f 445/3/6 442/3/6 446/3/6
f 445/1/6 446/1/6 447/1/6
f 447/1/6 446/1/6 448/1/6
f 447/3/6 448/3/6 449/3/6
f 447/3/6 449/3/6 452/3/6
f 449/3/6 450/3/6 452/3/6
f 450/1/6 451/1/6 453/1/6
f 452/3/6 450/3/6 453/3/6
f 453/1/6 451/1/6 454/1/6
f 455/3/6 456/3/6 457/3/6
f 457/3/6 456/3/6 458/3/6
f 455/3/6 457/3/6 459/3/6
f 455/3/6 459/3/6 461/3/6
f 459/3/6 460/3/6 461/3/6
f 461/3/6 460/3/6 462/3/6
f 463/3/6 464/3/6 465/3/6
f 465/3/6 464/3/6 466/3/6
