# MagicaVoxel @ ephtracy

# material
mtllib cubeboy16.mtl

# mesh name
g snack2_mesh

# normals
vn -1 0 0
vn 1 0 0
vn 0 0 1
vn 0 0 -1
vn 0 -1 0
vn 0 1 0

# texcoords
vt 0.0683594 0.5
vt 0.791016 0.5
vt 0.865234 0.5

# verts
v -5 3 2
v -5 3 -0
v -5 4 2
v -5 4 -0
f -2/1/1 -3/1/1 -4/1/1
f -1/1/1 -3/1/1 -2/1/1
v -4 2 2
v -4 2 -0
v -4 3 2
v -4 3 -0
v -4 4 2
v -4 4 -0
v -4 5 2
v -4 5 -0
f -6/1/1 -7/1/1 -8/1/1
f -5/1/1 -7/1/1 -6/1/1
f -2/3/1 -3/3/1 -4/3/1
f -1/3/1 -3/3/1 -2/3/1
v -3 1 2
v -3 1 -0
v -3 2 2
v -3 2 -0
f -2/1/1 -3/1/1 -4/1/1
f -1/1/1 -3/1/1 -2/1/1
v -2 0 2
v -2 0 -0
v -2 1 2
v -2 1 -0
f -2/1/1 -3/1/1 -4/1/1
f -1/1/1 -3/1/1 -2/1/1
v 0 0 2
v 0 0 -0
v 0 1 2
v 0 1 -0
f -4/1/2 -3/1/2 -2/1/2
f -2/1/2 -3/1/2 -1/1/2
v 1 1 2
v 1 1 -0
v 1 2 2
v 1 2 -0
f -4/1/2 -3/1/2 -2/1/2
f -2/1/2 -3/1/2 -1/1/2
v 2 2 2
v 2 2 -0
v 2 3 2
v 2 3 -0
v 2 4 2
v 2 4 1
v 2 4 -0
v 2 5 2
v 2 5 1
v 2 5 -0
f -10/1/2 -9/1/2 -8/1/2
f -8/1/2 -9/1/2 -7/1/2
f -6/2/2 -5/2/2 -3/2/2
f -5/3/2 -4/3/2 -2/3/2
f -3/2/2 -5/2/2 -2/2/2
f -2/3/2 -4/3/2 -1/3/2
v 3 3 2
v 3 3 -0
v 3 4 2
v 3 4 -0
f -4/1/2 -3/1/2 -2/1/2
f -2/1/2 -3/1/2 -1/1/2
v -5 3 2
v -5 4 2
v -4 2 2
v -4 3 2
v -4 4 2
v -4 5 2
v -3 1 2
v -3 2 2
v -3 4 2
v -3 5 2
v -2 0 2
v -2 1 2
v -2 4 2
v -2 5 2
v -1 4 2
v -1 5 2
v 0 0 2
v 0 1 2
v 0 4 2
v 0 5 2
v 1 1 2
v 1 2 2
v 1 4 2
v 1 5 2
v 2 2 2
v 2 3 2
v 2 4 2
v 2 5 2
v 3 3 2
v 3 4 2
f -27/1/3 -29/1/3 -30/1/3
f -26/1/3 -29/1/3 -27/1/3
f -23/1/3 -27/1/3 -28/1/3
f -23/1/3 -26/1/3 -27/1/3
f -22/3/3 -25/3/3 -26/3/3
f -22/1/3 -26/1/3 -23/1/3
f -21/3/3 -25/3/3 -22/3/3
f -19/1/3 -23/1/3 -24/1/3
f -19/1/3 -22/1/3 -23/1/3
f -18/2/3 -21/2/3 -22/2/3
f -18/1/3 -22/1/3 -19/1/3
f -17/2/3 -21/2/3 -18/2/3
f -16/1/3 -19/1/3 -20/1/3
f -16/1/3 -18/1/3 -19/1/3
f -16/3/3 -17/3/3 -18/3/3
f -15/3/3 -17/3/3 -16/3/3
f -14/1/3 -16/1/3 -20/1/3
f -13/1/3 -16/1/3 -14/1/3
f -12/2/3 -15/2/3 -16/2/3
f -12/1/3 -16/1/3 -13/1/3
f -11/2/3 -15/2/3 -12/2/3
f -10/1/3 -12/1/3 -13/1/3
f -9/1/3 -12/1/3 -10/1/3
f -8/3/3 -11/3/3 -12/3/3
f -8/1/3 -12/1/3 -9/1/3
f -7/3/3 -11/3/3 -8/3/3
f -6/1/3 -8/1/3 -9/1/3
f -5/1/3 -8/1/3 -6/1/3
f -4/2/3 -7/2/3 -8/2/3
f -4/1/3 -8/1/3 -5/1/3
f -3/2/3 -7/2/3 -4/2/3
f -2/1/3 -4/1/3 -5/1/3
f -1/1/3 -4/1/3 -2/1/3
v -5 3 -0
v -5 4 -0
v -4 2 -0
v -4 3 -0
v -4 4 -0
v -4 5 -0
v -3 1 -0
v -3 2 -0
v -2 0 -0
v -2 1 -0
v -2 4 -0
v -2 5 -0
v -1 4 -0
v -1 5 -0
v 0 0 -0
v 0 1 -0
v 0 4 -0
v 0 5 -0
v 1 1 -0
v 1 2 -0
v 1 4 -0
v 1 5 -0
v 2 2 -0
v 2 3 -0
v 2 4 -0
v 2 5 -0
v 3 3 -0
v 3 4 -0
f -28/1/4 -27/1/4 -25/1/4
f -25/1/4 -27/1/4 -24/1/4
f -26/1/4 -25/1/4 -21/1/4
f -25/1/4 -24/1/4 -21/1/4
f -22/1/4 -21/1/4 -19/1/4
f -24/3/4 -23/3/4 -18/3/4
f -21/1/4 -24/1/4 -18/1/4
f -19/1/4 -21/1/4 -18/1/4
f -18/3/4 -23/3/4 -17/3/4
f -20/1/4 -19/1/4 -16/1/4
f -19/1/4 -18/1/4 -16/1/4
f -18/2/4 -17/2/4 -16/2/4
f -16/2/4 -17/2/4 -15/2/4
f -20/1/4 -16/1/4 -14/1/4
f -14/1/4 -16/1/4 -13/1/4
f -16/3/4 -15/3/4 -12/3/4
f -13/1/4 -16/1/4 -12/1/4
f -12/3/4 -15/3/4 -11/3/4
f -13/1/4 -12/1/4 -10/1/4
f -10/1/4 -12/1/4 -9/1/4
f -12/2/4 -11/2/4 -8/2/4
f -9/1/4 -12/1/4 -8/1/4
f -8/2/4 -11/2/4 -7/2/4
f -9/1/4 -8/1/4 -6/1/4
f -6/1/4 -8/1/4 -5/1/4
f -8/3/4 -7/3/4 -4/3/4
f -5/1/4 -8/1/4 -4/1/4
f -4/3/4 -7/3/4 -3/3/4
f -5/1/4 -4/1/4 -2/1/4
f -2/1/4 -4/1/4 -1/1/4
v -2 0 2
v 0 0 2
v -2 0 -0
v 0 0 -0
f -2/1/5 -3/1/5 -4/1/5
f -1/1/5 -3/1/5 -2/1/5
v -3 1 2
v -2 1 2
v 0 1 2
v 1 1 2
v -3 1 -0
v -2 1 -0
v 0 1 -0
v 1 1 -0
f -4/1/5 -7/1/5 -8/1/5
f -3/1/5 -7/1/5 -4/1/5
f -2/1/5 -5/1/5 -6/1/5
f -1/1/5 -5/1/5 -2/1/5
v -4 2 2
v -3 2 2
v 1 2 2
v 2 2 2
v -4 2 -0
v -3 2 -0
v 1 2 -0
v 2 2 -0
f -4/1/5 -7/1/5 -8/1/5
f -3/1/5 -7/1/5 -4/1/5
f -2/1/5 -5/1/5 -6/1/5
f -1/1/5 -5/1/5 -2/1/5
v -5 3 2
v -4 3 2
v 2 3 2
v 3 3 2
v -5 3 -0
v -4 3 -0
v 2 3 -0
v 3 3 -0
f -4/1/5 -7/1/5 -8/1/5
f -3/1/5 -7/1/5 -4/1/5
f -2/1/5 -5/1/5 -6/1/5
f -1/1/5 -5/1/5 -2/1/5
v -5 4 2
v -4 4 2
v 2 4 2
v 3 4 2
v 2 4 1
v -5 4 -0
v -4 4 -0
v 2 4 -0
v 3 4 -0
f -7/1/6 -6/1/6 -5/1/6
f -9/1/6 -8/1/6 -4/1/6
f -4/1/6 -8/1/6 -3/1/6
f -5/1/6 -6/1/6 -2/1/6
f -2/1/6 -6/1/6 -1/1/6
v -4 5 2
v -3 5 2
v -2 5 2
v -1 5 2
v 0 5 2
v 1 5 2
v 2 5 2
v -3 5 1
v -2 5 1
v -1 5 1
v 0 5 1
v 1 5 1
v 2 5 1
v -4 5 -0
v -2 5 -0
v -1 5 -0
v 0 5 -0
v 1 5 -0
v 2 5 -0
f -19/3/6 -18/3/6 -12/3/6
f -18/2/6 -17/2/6 -12/2/6
f -17/3/6 -16/3/6 -11/3/6
f -12/2/6 -17/2/6 -11/2/6
f -16/2/6 -15/2/6 -10/2/6
f -11/3/6 -16/3/6 -10/3/6
f -15/3/6 -14/3/6 -9/3/6
f -10/2/6 -15/2/6 -9/2/6
f -14/2/6 -13/2/6 -8/2/6
f -9/3/6 -14/3/6 -8/3/6
f -8/2/6 -13/2/6 -7/2/6
f -19/3/6 -12/3/6 -6/3/6
f -12/3/6 -11/3/6 -6/3/6
f -11/2/6 -10/2/6 -5/2/6
f -6/3/6 -11/3/6 -5/3/6
f -10/3/6 -9/3/6 -4/3/6
f -5/2/6 -10/2/6 -4/2/6
f -9/2/6 -8/2/6 -3/2/6
f -4/3/6 -9/3/6 -3/3/6
f -8/3/6 -7/3/6 -2/3/6
f -3/2/6 -8/2/6 -2/2/6
f -2/3/6 -7/3/6 -1/3/6
