# MagicaVoxel @ ephtracy

# material
mtllib cubeboy8.mtl

# mesh name
g stick_mesh

# normals
vn -1 0 0
vn 1 0 0
vn 0 0 1
vn 0 0 -1
vn 0 -1 0
vn 0 1 0

# texcoords
vt 0.533203 0.5

# verts
v -2 0 2
v -2 0 -0
v -2 22 2
v -2 22 -0
f -2/1/1 -3/1/1 -4/1/1
f -1/1/1 -3/1/1 -2/1/1
v 0 0 2
v 0 0 -0
v 0 22 2
v 0 22 -0
f -4/1/2 -3/1/2 -2/1/2
f -2/1/2 -3/1/2 -1/1/2
v -2 0 2
v -2 22 2
v 0 0 2
v 0 22 2
f -2/1/3 -3/1/3 -4/1/3
f -1/1/3 -3/1/3 -2/1/3
v -2 0 -0
v -2 22 -0
v 0 0 -0
v 0 22 -0
f -4/1/4 -3/1/4 -2/1/4
f -2/1/4 -3/1/4 -1/1/4
v -2 0 2
v 0 0 2
v -2 0 -0
v 0 0 -0
f -2/1/5 -3/1/5 -4/1/5
f -1/1/5 -3/1/5 -2/1/5
v -2 22 2
v 0 22 2
v -2 22 -0
v 0 22 -0
f -4/1/6 -3/1/6 -2/1/6
f -2/1/6 -3/1/6 -1/1/6
