# Alias OBJ Model File
# Exported from SketchUp, (c) 2000-2012 Trimble Navigation Limited
# File units = meters

mtllib title.mtl

g Mesh1 C__SMIC_____LEAP1 Model

usemtl FrontColor
v 0.595899 0.725 -1.22804
vt -8.20693 9.84252
vn 0 6.62664e-016 -1
v -0.0228514 0.725 -1.22804
vt -0.825041 9.84252
v -0.0228514 0.793752 -1.22804
vt -0.825041 10.6628
v -0.0916035 0.793752 -1.22804
vt -0.00480592 10.6628
v -0.0916035 1.34375 -1.22804
vt -0.00480592 17.2244
v -0.0228514 1.34375 -1.22804
vt -0.825041 17.2244
v -0.0228514 1.41263 -1.22804
vt -0.825041 18.0462
v 0.595899 1.41263 -1.22804
vt -8.20693 18.0462
v 0.595899 1.27527 -1.22804
vt -8.20693 16.4074
v 0.183399 1.27527 -1.22804
vt -3.28567 16.4074
v 0.183399 0.862366 -1.22804
vt -3.28567 11.4813
v 0.595899 0.862366 -1.22804
vt -8.20693 11.4813
f 1/1/1 2/2/1 3/3/1 4/4/1 5/5/1 6/6/1 7/7/1 8/8/1 9/9/1 10/10/1 11/11/1 12/12/1 

vt 0.825041 0
vn 0 -1 -6.62664e-016
vt 8.20693 0
v 0.595899 0.725 -0.238043
vt 8.20693 11.811
v -0.0228514 0.725 -0.238043
vt 0.825041 11.811
f 2/13/2 1/14/2 13/15/2 14/16/2 

vt 9.84252 0
vn 1 0 -0
vt 11.4813 0
v 0.595899 0.862366 -0.238043
vt 11.4813 11.811
vt 9.84252 11.811
f 1/17/3 12/18/3 15/19/3 13/20/3 

vt -8.20693 0
vn 0 1 6.62664e-016
vt -3.28567 0
v 0.183399 0.862366 -0.238043
vt -3.28567 11.811
vt -8.20693 11.811
f 12/21/4 11/22/4 16/23/4 15/24/4 

vt 16.4074 0
v 0.183399 1.27527 -0.238043
vt 16.4074 11.811
f 11/18/3 10/25/3 17/26/3 16/19/3 

vt 3.28567 0
v 0.595899 1.27527 -0.238043
vt 3.28567 11.811
f 10/27/2 9/14/2 18/15/2 17/28/2 

vt 18.0462 0
v 0.595899 1.41263 -0.238043
vt 18.0462 11.811
f 9/25/3 8/29/3 19/30/3 18/26/3 

vt -0.825041 0
v -0.0228514 1.41263 -0.238043
vt -0.825041 11.811
f 8/21/4 7/31/4 20/32/4 19/24/4 

vt -18.0462 0
vn -1 0 0
vt -17.2244 0
v -0.0228514 1.34375 -0.238043
vt -17.2244 11.811
vt -18.0462 11.811
f 7/33/5 6/34/5 21/35/5 20/36/5 

vt -0.00480592 0
v -0.0916035 1.34375 -0.238043
vt -0.00480592 11.811
f 6/31/4 5/37/4 22/38/4 21/32/4 

vt -10.6628 0
v -0.0916035 0.793752 -0.238043
vt -10.6628 11.811
f 5/34/5 4/39/5 23/40/5 22/35/5 

vt 0.00480592 0
v -0.0228514 0.793752 -0.238043
vt 0.00480592 11.811
f 4/41/2 3/13/2 24/16/2 23/42/2 

vt -9.84252 0
vt -9.84252 11.811
f 3/39/5 2/43/5 14/44/5 24/40/5 

vt 0.825041 9.84252
vn 0 -6.62664e-016 1
vt 8.20693 9.84252
vt 8.20693 11.4813
vt 3.28567 11.4813
vt 3.28567 16.4074
vt 8.20693 16.4074
vt 8.20693 18.0462
vt 0.825041 18.0462
vt 0.825041 17.2244
vt 0.00480592 17.2244
vt 0.00480592 10.6628
vt 0.825041 10.6628
f 14/45/6 13/46/6 15/47/6 16/48/6 17/49/6 18/50/6 19/51/6 20/52/6 21/53/6 22/54/6 23/55/6 24/56/6 

g Mesh2 C__SMIC_____LEAP1 Model

v 2.2459 0.793752 -1.22804
vt -27.892 10.6628
v 2.17715 0.793752 -1.22804
vt -27.0717 10.6628
v 2.17715 0.725 -1.22804
vt -27.0717 9.84252
v 1.5584 0.725 -1.22804
vt -19.6898 9.84252
v 1.5584 0.862366 -1.22804
vt -19.6898 11.4813
v 1.9709 0.862366 -1.22804
vt -24.6111 11.4813
v 1.9709 1.00013 -1.22804
vt -24.6111 13.125
v 1.62715 1.00013 -1.22804
vt -20.5101 13.125
v 1.62715 1.06875 -1.22804
vt -20.5101 13.9435
v 1.5584 1.06875 -1.22804
vt -19.6898 13.9435
v 1.5584 1.34375 -1.22804
vt -19.6898 17.2244
v 1.62715 1.34375 -1.22804
vt -20.5101 17.2244
v 1.62715 1.41263 -1.22804
vt -20.5101 18.0462
v 2.2459 1.41263 -1.22804
vt -27.892 18.0462
v 2.2459 1.27527 -1.22804
vt -27.892 16.4074
v 1.8334 1.27527 -1.22804
vt -22.9707 16.4074
v 1.8334 1.1375 -1.22804
vt -22.9707 14.7638
v 2.17715 1.1375 -1.22804
vt -27.0717 14.7638
v 2.17715 1.06875 -1.22804
vt -27.0717 13.9435
v 2.2459 1.06875 -1.22804
vt -27.892 13.9435
f 25/57/1 26/58/1 27/59/1 28/60/1 29/61/1 30/62/1 31/63/1 32/64/1 33/65/1 34/66/1 35/67/1 36/68/1 37/69/1 38/70/1 39/71/1 40/72/1 41/73/1 42/74/1 43/75/1 44/76/1 

vt 27.0717 0
vt 27.892 0
v 2.2459 0.793752 -0.238043
vt 27.892 11.811
v 2.17715 0.793752 -0.238043
vt 27.0717 11.811
f 26/77/2 25/78/2 45/79/2 46/80/2 

vt 10.6628 0
vt 13.9435 0
v 2.2459 1.06875 -0.238043
vt 13.9435 11.811
vt 10.6628 11.811
f 25/81/3 44/82/3 47/83/3 45/84/3 

vt -27.892 0
vt -27.0717 0
v 2.17715 1.06875 -0.238043
vt -27.0717 11.811
vt -27.892 11.811
f 44/85/4 43/86/4 48/87/4 47/88/4 

vt 14.7638 0
v 2.17715 1.1375 -0.238043
vt 14.7638 11.811
f 43/82/3 42/89/3 49/90/3 48/83/3 

vt -22.9707 0
v 1.8334 1.1375 -0.238043
vt -22.9707 11.811
f 42/86/4 41/91/4 50/92/4 49/87/4 

v 1.8334 1.27527 -0.238043
f 41/89/3 40/25/3 51/26/3 50/90/3 

vt 22.9707 0
v 2.2459 1.27527 -0.238043
vt 22.9707 11.811
f 40/93/2 39/78/2 52/79/2 51/94/2 

v 2.2459 1.41263 -0.238043
f 39/25/3 38/29/3 53/30/3 52/26/3 

vt -20.5101 0
v 1.62715 1.41263 -0.238043
vt -20.5101 11.811
f 38/85/4 37/95/4 54/96/4 53/88/4 

v 1.62715 1.34375 -0.238043
f 37/33/5 36/34/5 55/35/5 54/36/5 

vt -19.6898 0
v 1.5584 1.34375 -0.238043
vt -19.6898 11.811
f 36/95/4 35/97/4 56/98/4 55/96/4 

vt -13.9435 0
v 1.5584 1.06875 -0.238043
vt -13.9435 11.811
f 35/34/5 34/99/5 57/100/5 56/35/5 

vt 19.6898 0
vt 20.5101 0
v 1.62715 1.06875 -0.238043
vt 20.5101 11.811
vt 19.6898 11.811
f 34/101/2 33/102/2 58/103/2 57/104/2 

vt -13.125 0
v 1.62715 1.00013 -0.238043
vt -13.125 11.811
f 33/99/5 32/105/5 59/106/5 58/100/5 

vt 24.6111 0
v 1.9709 1.00013 -0.238043
vt 24.6111 11.811
f 32/102/2 31/107/2 60/108/2 59/103/2 

vt -11.4813 0
v 1.9709 0.862366 -0.238043
vt -11.4813 11.811
f 31/105/5 30/109/5 61/110/5 60/106/5 

vt -24.6111 0
v 1.5584 0.862366 -0.238043
vt -24.6111 11.811
f 30/111/4 29/97/4 62/98/4 61/112/4 

v 1.5584 0.725 -0.238043
f 29/109/5 28/43/5 63/44/5 62/110/5 

v 2.17715 0.725 -0.238043
f 28/101/2 27/77/2 64/80/2 63/104/2 

f 27/17/3 26/81/3 46/84/3 64/20/3 

vt 27.0717 10.6628
vt 27.892 10.6628
vt 27.892 13.9435
vt 27.0717 13.9435
vt 27.0717 14.7638
vt 22.9707 14.7638
vt 22.9707 16.4074
vt 27.892 16.4074
vt 27.892 18.0462
vt 20.5101 18.0462
vt 20.5101 17.2244
vt 19.6898 17.2244
vt 19.6898 13.9435
vt 20.5101 13.9435
vt 20.5101 13.125
vt 24.6111 13.125
vt 24.6111 11.4813
vt 19.6898 11.4813
vt 19.6898 9.84252
vt 27.0717 9.84252
f 46/113/6 45/114/6 47/115/6 48/116/6 49/117/6 50/118/6 51/119/6 52/120/6 53/121/6 54/122/6 55/123/6 56/124/6 57/125/6 58/126/6 59/127/6 60/128/6 61/129/6 62/130/6 63/131/6 64/132/6 

g Mesh3 C__SMIC_____LEAP1 Model

v 3.4834 0.725 -1.22804
vt -42.6557 9.84252
v 3.2084 0.725 -1.22804
vt -39.3749 9.84252
v 3.2084 1.27527 -1.22804
vt -39.3749 16.4074
v 3.0709 1.27527 -1.22804
vt -37.7345 16.4074
v 3.0709 0.725 -1.22804
vt -37.7345 9.84252
v 2.7959 0.725 -1.22804
vt -34.4536 9.84252
v 2.7959 1.27527 -1.22804
vt -34.4536 16.4074
v 2.6584 1.27527 -1.22804
vt -32.8132 16.4074
v 2.6584 0.725 -1.22804
vt -32.8132 9.84252
v 2.3834 0.725 -1.22804
vt -29.5324 9.84252
v 2.3834 1.41263 -1.22804
vt -29.5324 18.0462
v 3.41465 1.41263 -1.22804
vt -41.8355 18.0462
v 3.41465 1.34375 -1.22804
vt -41.8355 17.2244
v 3.4834 1.34375 -1.22804
vt -42.6557 17.2244
f 65/133/1 66/134/1 67/135/1 68/136/1 69/137/1 70/138/1 71/139/1 72/140/1 73/141/1 74/142/1 75/143/1 76/144/1 77/145/1 78/146/1 

vt 39.3749 0
vt 42.6557 0
v 3.4834 0.725 -0.238043
vt 42.6557 11.811
v 3.2084 0.725 -0.238043
vt 39.3749 11.811
f 66/147/2 65/148/2 79/149/2 80/150/2 

vt 17.2244 0
v 3.4834 1.34375 -0.238043
vt 17.2244 11.811
f 65/17/3 78/151/3 81/152/3 79/20/3 

vt -42.6557 0
vt -41.8355 0
v 3.41465 1.34375 -0.238043
vt -41.8355 11.811
vt -42.6557 11.811
f 78/153/4 77/154/4 82/155/4 81/156/4 

v 3.41465 1.41263 -0.238043
f 77/151/3 76/29/3 83/30/3 82/152/3 

vt -29.5324 0
v 2.3834 1.41263 -0.238043
vt -29.5324 11.811
f 76/154/4 75/157/4 84/158/4 83/155/4 

v 2.3834 0.725 -0.238043
f 75/33/5 74/43/5 85/44/5 84/36/5 

vt 29.5324 0
vt 32.8132 0
v 2.6584 0.725 -0.238043
vt 32.8132 11.811
vt 29.5324 11.811
f 74/159/2 73/160/2 86/161/2 85/162/2 

v 2.6584 1.27527 -0.238043
f 73/17/3 72/25/3 87/26/3 86/20/3 

vt 34.4536 0
v 2.7959 1.27527 -0.238043
vt 34.4536 11.811
f 72/160/2 71/163/2 88/164/2 87/161/2 

vt -16.4074 0
v 2.7959 0.725 -0.238043
vt -16.4074 11.811
f 71/165/5 70/43/5 89/44/5 88/166/5 

vt 37.7345 0
v 3.0709 0.725 -0.238043
vt 37.7345 11.811
f 70/163/2 69/167/2 90/168/2 89/164/2 

v 3.0709 1.27527 -0.238043
f 69/17/3 68/25/3 91/26/3 90/20/3 

v 3.2084 1.27527 -0.238043
f 68/167/2 67/147/2 92/150/2 91/168/2 

f 67/165/5 66/43/5 80/44/5 92/166/5 

vt 39.3749 9.84252
vt 42.6557 9.84252
vt 42.6557 17.2244
vt 41.8355 17.2244
vt 41.8355 18.0462
vt 29.5324 18.0462
vt 29.5324 9.84252
vt 32.8132 9.84252
vt 32.8132 16.4074
vt 34.4536 16.4074
vt 34.4536 9.84252
vt 37.7345 9.84252
vt 37.7345 16.4074
vt 39.3749 16.4074
f 80/169/6 79/170/6 81/171/6 82/172/6 83/173/6 84/174/6 85/175/6 86/176/6 87/177/6 88/178/6 89/179/6 90/180/6 91/181/6 92/182/6 

g Mesh4 C__SMIC_____LEAP1 Model

v 3.8959 0.725 -1.22804
vt -47.577 9.84252
v 3.6209 0.725 -1.22804
vt -44.2961 9.84252
v 3.6209 1.41263 -1.22804
vt -44.2961 18.0462
v 3.8959 1.41263 -1.22804
vt -47.577 18.0462
f 93/183/1 94/184/1 95/185/1 96/186/1 

vt 44.2961 0
vt 47.577 0
v 3.8959 0.725 -0.238043
vt 47.577 11.811
v 3.6209 0.725 -0.238043
vt 44.2961 11.811
f 94/187/2 93/188/2 97/189/2 98/190/2 

v 3.8959 1.41263 -0.238043
f 93/17/3 96/29/3 99/30/3 97/20/3 

vt -47.577 0
vt -44.2961 0
v 3.6209 1.41263 -0.238043
vt -44.2961 11.811
vt -47.577 11.811
f 96/191/4 95/192/4 100/193/4 99/194/4 

f 95/33/5 94/43/5 98/44/5 100/36/5 

vt 44.2961 9.84252
vt 47.577 9.84252
vt 47.577 18.0462
vt 44.2961 18.0462
f 98/195/6 97/196/6 99/197/6 100/198/6 

g Mesh5 C__SMIC_____LEAP1 Model

v 4.7209 0.725 -1.22804
vt -57.4195 9.84252
v 4.10215 0.725 -1.22804
vt -50.0376 9.84252
v 4.10215 0.793752 -1.22804
vt -50.0376 10.6628
v 4.0334 0.793752 -1.22804
vt -49.2174 10.6628
v 4.0334 1.34375 -1.22804
vt -49.2174 17.2244
v 4.10215 1.34375 -1.22804
vt -50.0376 17.2244
v 4.10215 1.41263 -1.22804
vt -50.0376 18.0462
v 4.7209 1.41263 -1.22804
vt -57.4195 18.0462
v 4.7209 1.27527 -1.22804
vt -57.4195 16.4074
v 4.3084 1.27527 -1.22804
vt -52.4983 16.4074
v 4.3084 0.862366 -1.22804
vt -52.4983 11.4813
v 4.7209 0.862366 -1.22804
vt -57.4195 11.4813
f 101/199/1 102/200/1 103/201/1 104/202/1 105/203/1 106/204/1 107/205/1 108/206/1 109/207/1 110/208/1 111/209/1 112/210/1 

vt 50.0376 0
vt 57.4195 0
v 4.7209 0.725 -0.238043
vt 57.4195 11.811
v 4.10215 0.725 -0.238043
vt 50.0376 11.811
f 102/211/2 101/212/2 113/213/2 114/214/2 

v 4.7209 0.862366 -0.238043
f 101/17/3 112/18/3 115/19/3 113/20/3 

vt -57.4195 0
vt -52.4983 0
v 4.3084 0.862366 -0.238043
vt -52.4983 11.811
vt -57.4195 11.811
f 112/215/4 111/216/4 116/217/4 115/218/4 

v 4.3084 1.27527 -0.238043
f 111/18/3 110/25/3 117/26/3 116/19/3 

vt 52.4983 0
v 4.7209 1.27527 -0.238043
vt 52.4983 11.811
f 110/219/2 109/212/2 118/213/2 117/220/2 

v 4.7209 1.41263 -0.238043
f 109/25/3 108/29/3 119/30/3 118/26/3 

vt -50.0376 0
v 4.10215 1.41263 -0.238043
vt -50.0376 11.811
f 108/215/4 107/221/4 120/222/4 119/218/4 

v 4.10215 1.34375 -0.238043
f 107/33/5 106/34/5 121/35/5 120/36/5 

vt -49.2174 0
v 4.0334 1.34375 -0.238043
vt -49.2174 11.811
f 106/221/4 105/223/4 122/224/4 121/222/4 

v 4.0334 0.793752 -0.238043
f 105/34/5 104/39/5 123/40/5 122/35/5 

vt 49.2174 0
v 4.10215 0.793752 -0.238043
vt 49.2174 11.811
f 104/225/2 103/211/2 124/214/2 123/226/2 

f 103/39/5 102/43/5 114/44/5 124/40/5 

vt 50.0376 9.84252
vt 57.4195 9.84252
vt 57.4195 11.4813
vt 52.4983 11.4813
vt 52.4983 16.4074
vt 57.4195 16.4074
vt 57.4195 18.0462
vt 50.0376 18.0462
vt 50.0376 17.2244
vt 49.2174 17.2244
vt 49.2174 10.6628
vt 50.0376 10.6628
f 114/227/6 113/228/6 115/229/6 116/230/6 117/231/6 118/232/6 119/233/6 120/234/6 121/235/6 122/236/6 123/237/6 124/238/6 

g Mesh6 C__SMIC_____LEAP1 Model

v 2.2459 -0.1 -1.22804
v 1.5584 -0.1 -1.22804
v 1.5584 0.587634 -1.22804
vt -19.6898 8.2037
v 1.8334 0.587634 -1.22804
vt -22.9707 8.2037
v 1.8334 0.0373657 -1.22804
vt -22.9707 1.63882
v 2.2459 0.0373657 -1.22804
vt -27.892 1.63882
f 125/85/1 126/97/1 127/239/1 128/240/1 129/241/1 130/242/1 

v 2.2459 -0.1 -0.238043
v 1.5584 -0.1 -0.238043
f 126/101/2 125/78/2 131/79/2 132/104/2 

vt 0 0
vt 1.63882 0
v 2.2459 0.0373657 -0.238043
vt 1.63882 11.811
vt 0 11.811
f 125/243/3 130/244/3 133/245/3 131/246/3 

v 1.8334 0.0373657 -0.238043
f 130/85/4 129/91/4 134/92/4 133/88/4 

vt 8.2037 0
v 1.8334 0.587634 -0.238043
vt 8.2037 11.811
f 129/244/3 128/247/3 135/248/3 134/245/3 

v 1.5584 0.587634 -0.238043
f 128/91/4 127/97/4 136/98/4 135/92/4 

vt -8.2037 0
vt -8.2037 11.811
f 127/249/5 126/243/5 132/246/5 136/250/5 

vt 27.892 1.63882
vt 22.9707 1.63882
vt 22.9707 8.2037
vt 19.6898 8.2037
f 132/101/6 131/78/6 133/251/6 134/252/6 135/253/6 136/254/6 

g Mesh7 C__SMIC_____LEAP1 Model

v 3.0709 -0.1 -1.22804
vt -37.7345 0
v 2.45215 -0.1 -1.22804
vt -30.3526 0
v 2.45215 -0.0312479 -1.22804
vt -30.3526 0.820235
v 2.3834 -0.0312479 -1.22804
vt -29.5324 0.820235
v 2.3834 0.51875 -1.22804
vt -29.5324 7.38189
v 2.45215 0.51875 -1.22804
vt -30.3526 7.38189
v 2.45215 0.587634 -1.22804
vt -30.3526 8.2037
v 3.0709 0.587634 -1.22804
vt -37.7345 8.2037
v 3.0709 0.450269 -1.22804
vt -37.7345 6.56488
v 2.6584 0.450269 -1.22804
vt -32.8132 6.56488
v 2.6584 0.3125 -1.22804
vt -32.8132 4.92126
v 2.86465 0.3125 -1.22804
vt -35.2739 4.92126
v 2.86465 0.175134 -1.22804
vt -35.2739 3.28244
v 2.6584 0.175134 -1.22804
vt -32.8132 3.28244
v 2.6584 0.0373657 -1.22804
vt -32.8132 1.63882
v 3.0709 0.0373657 -1.22804
vt -37.7345 1.63882
f 137/255/1 138/256/1 139/257/1 140/258/1 141/259/1 142/260/1 143/261/1 144/262/1 145/263/1 146/264/1 147/265/1 148/266/1 149/267/1 150/268/1 151/269/1 152/270/1 

vt 30.3526 0
v 3.0709 -0.1 -0.238043
v 2.45215 -0.1 -0.238043
vt 30.3526 11.811
f 138/271/2 137/167/2 153/168/2 154/272/2 

v 3.0709 0.0373657 -0.238043
f 137/243/3 152/244/3 155/245/3 153/246/3 

vt -32.8132 0
v 2.6584 0.0373657 -0.238043
vt -32.8132 11.811
vt -37.7345 11.811
f 152/255/4 151/273/4 156/274/4 155/275/4 

vt 3.28244 0
v 2.6584 0.175134 -0.238043
vt 3.28244 11.811
f 151/244/3 150/276/3 157/277/3 156/245/3 

vt 35.2739 0
v 2.86465 0.175134 -0.238043
vt 35.2739 11.811
f 150/160/2 149/278/2 158/279/2 157/161/2 

vt 4.92126 0
v 2.86465 0.3125 -0.238043
vt 4.92126 11.811
f 149/276/3 148/280/3 159/281/3 158/277/3 

vt -35.2739 0
v 2.6584 0.3125 -0.238043
vt -35.2739 11.811
f 148/282/4 147/273/4 160/274/4 159/283/4 

vt 6.56488 0
v 2.6584 0.450269 -0.238043
vt 6.56488 11.811
f 147/280/3 146/284/3 161/285/3 160/281/3 

v 3.0709 0.450269 -0.238043
f 146/160/2 145/167/2 162/168/2 161/161/2 

v 3.0709 0.587634 -0.238043
f 145/284/3 144/247/3 163/248/3 162/285/3 

v 2.45215 0.587634 -0.238043
vt -30.3526 11.811
f 144/255/4 143/256/4 164/286/4 163/275/4 

vt -7.38189 0
v 2.45215 0.51875 -0.238043
vt -7.38189 11.811
f 143/249/5 142/287/5 165/288/5 164/250/5 

v 2.3834 0.51875 -0.238043
f 142/256/4 141/157/4 166/158/4 165/286/4 

vt -0.820235 0
v 2.3834 -0.0312479 -0.238043
vt -0.820235 11.811
f 141/287/5 140/289/5 167/290/5 166/288/5 

v 2.45215 -0.0312479 -0.238043
f 140/159/2 139/271/2 168/272/2 167/162/2 

f 139/289/5 138/243/5 154/246/5 168/290/5 

vt 37.7345 1.63882
vt 32.8132 1.63882
vt 32.8132 3.28244
vt 35.2739 3.28244
vt 35.2739 4.92126
vt 32.8132 4.92126
vt 32.8132 6.56488
vt 37.7345 6.56488
vt 37.7345 8.2037
vt 30.3526 8.2037
vt 30.3526 7.38189
vt 29.5324 7.38189
vt 29.5324 0.820235
vt 30.3526 0.820235
f 154/271/6 153/167/6 155/291/6 156/292/6 157/293/6 158/294/6 159/295/6 160/296/6 161/297/6 162/298/6 163/299/6 164/300/6 165/301/6 166/302/6 167/303/6 168/304/6 

g Mesh8 C__SMIC_____LEAP1 Model

v 3.82715 0.587634 -1.22804
vt -46.7568 8.2037
v 3.27715 0.51875 -1.22804
vt -40.1951 7.38189
v 3.27715 0.587634 -1.22804
vt -40.1951 8.2037
f 169/305/1 170/306/1 171/307/1

v 3.4834 0.450269 -1.22804
vt -42.6557 6.56488
f 170/306/1 169/305/1 172/308/1

v 3.6209 0.450269 -1.22804
vt -44.2961 6.56488
f 172/308/1 169/305/1 173/309/1

v 3.6209 0.3125 -1.22804
vt -44.2961 4.92126
f 173/309/1 169/305/1 174/310/1

v 3.6209 0.175134 -1.22804
vt -44.2961 3.28244
f 174/310/1 169/305/1 175/311/1

v 3.6209 -0.1 -1.22804
f 175/311/1 169/305/1 176/192/1

v 3.82715 0.51875 -1.22804
vt -46.7568 7.38189
f 176/192/1 169/305/1 177/312/1

vt 7.38189 0
v 3.82715 0.587634 -0.238043
v 3.82715 0.51875 -0.238043
vt 7.38189 11.811
f 177/313/3 169/247/3 178/248/3 179/314/3 

vt -46.7568 0
vt -40.1951 0
v 3.27715 0.587634 -0.238043
vt -40.1951 11.811
vt -46.7568 11.811
f 169/315/4 171/316/4 180/317/4 178/318/4 

v 3.27715 0.51875 -0.238043
f 171/249/5 170/287/5 181/288/5 180/250/5 

v 3.2084 0.51875 -1.22804
vt -39.3749 0
v 3.2084 0.51875 -0.238043
vt -39.3749 11.811
f 170/316/4 182/319/4 183/320/4 181/317/4 

v 3.2084 -0.1 -1.22804
vt -39.3749 7.38189
f 170/306/1 184/319/1 182/321/1

v 3.4834 -0.1 -1.22804
f 184/319/1 170/306/1 185/153/1

f 185/153/1 170/306/1 172/308/1

v 3.4834 0.3125 -1.22804
vt -42.6557 4.92126
f 185/153/1 172/308/1 186/322/1

v 3.4834 0.450269 -0.238043
v 3.4834 0.3125 -0.238043
f 186/280/3 172/284/3 187/285/3 188/281/3 

v 3.6209 0.450269 -0.238043
f 172/148/2 173/187/2 189/190/2 187/149/2 

vt -6.56488 0
vt -4.92126 0
v 3.6209 0.3125 -0.238043
vt -4.92126 11.811
vt -6.56488 11.811
f 173/323/5 174/324/5 190/325/5 189/326/5 

f 174/192/4 186/153/4 188/156/4 190/193/4 

v 3.4834 0.175134 -1.22804
vt -42.6557 3.28244
f 174/310/1 191/327/1 186/322/1

f 191/327/1 174/310/1 175/311/1

v 3.6209 0.175134 -0.238043
v 3.4834 0.175134 -0.238043
f 191/148/2 175/187/2 192/190/2 193/149/2 

vt -3.28244 0
v 3.6209 -0.1 -0.238043
vt -3.28244 11.811
f 175/328/5 176/243/5 194/246/5 192/329/5 

v 3.8959 -0.1 -1.22804
v 3.8959 -0.1 -0.238043
f 176/187/2 195/188/2 196/189/2 194/190/2 

f 176/192/1 177/312/1 195/191/1

v 3.8959 0.51875 -1.22804
vt -47.577 7.38189
f 195/191/1 177/312/1 197/330/1

v 3.8959 0.51875 -0.238043
f 197/191/4 177/315/4 179/318/4 198/194/4 

vt 46.7568 7.38189
vt 47.577 7.38189
f 179/331/6 196/188/6 198/332/6

vt 44.2961 6.56488
f 189/333/6 196/188/6 179/331/6

vt 44.2961 4.92126
f 190/334/6 196/188/6 189/333/6

vt 44.2961 3.28244
f 192/335/6 196/188/6 190/334/6

f 196/188/6 192/335/6 194/187/6

vt 42.6557 4.92126
f 188/336/6 192/335/6 190/334/6

vt 42.6557 3.28244
f 192/335/6 188/336/6 193/337/6

vt 42.6557 6.56488
f 187/338/6 193/337/6 188/336/6

v 3.4834 -0.1 -0.238043
f 187/338/6 199/148/6 193/337/6

vt 40.1951 8.2037
f 180/339/6 199/148/6 187/338/6

vt 40.1951 7.38189
f 181/340/6 199/148/6 180/339/6

vt 39.3749 7.38189
f 183/341/6 199/148/6 181/340/6

v 3.2084 -0.1 -0.238043
f 199/148/6 183/341/6 200/147/6

f 182/287/5 184/243/5 200/246/5 183/288/5 

f 184/147/2 185/148/2 199/149/2 200/150/2 

f 185/243/3 191/276/3 193/277/3 199/246/3 

f 185/153/1 186/322/1 191/327/1

vt 46.7568 8.2037
f 180/339/6 187/338/6 178/342/6

f 178/342/6 187/338/6 189/333/6

f 178/342/6 189/333/6 179/331/6

f 195/243/3 197/313/3 198/314/3 196/246/3 

g Mesh9 C__SMIC_____LEAP1 Model

v 4.0334 0.587634 -1.22804
vt -49.2174 8.2037
v 4.3084 0.450269 -1.22804
vt -52.4983 6.56488
v 4.0334 -0.1 -1.22804
f 201/343/1 202/344/1 203/223/1

v 4.65215 0.587634 -1.22804
vt -56.5993 8.2037
f 202/344/1 201/343/1 204/345/1

vt -56.5993 0
v 4.0334 0.587634 -0.238043
v 4.65215 0.587634 -0.238043
vt -56.5993 11.811
f 204/346/4 201/223/4 205/224/4 206/347/4 

v 4.0334 -0.1 -0.238043
f 201/249/5 203/243/5 207/246/5 205/250/5 

v 4.3084 -0.1 -1.22804
v 4.3084 -0.1 -0.238043
f 203/225/2 208/219/2 209/220/2 207/226/2 

f 202/344/1 208/216/1 203/223/1

v 4.3084 0.3125 -1.22804
vt -52.4983 4.92126
f 208/216/1 202/344/1 210/348/1

v 4.3084 0.450269 -0.238043
v 4.3084 0.3125 -0.238043
f 210/280/3 202/284/3 211/285/3 212/281/3 

v 4.4459 0.450269 -1.22804
vt 54.1387 0
v 4.4459 0.450269 -0.238043
vt 54.1387 11.811
f 202/219/2 213/349/2 214/350/2 211/220/2 

vt -54.1387 6.56488
f 202/344/1 204/345/1 213/351/1

v 4.4459 0.3125 -1.22804
vt -54.1387 4.92126
f 213/351/1 204/345/1 215/352/1

v 4.65215 0.175134 -1.22804
vt -56.5993 3.28244
f 216/353/1 215/352/1 204/345/1

v 4.3084 0.175134 -1.22804
vt -52.4983 3.28244
f 217/354/1 215/352/1 216/353/1

f 215/352/1 217/354/1 210/348/1

f 208/216/1 210/348/1 217/354/1

v 4.3084 0.175134 -0.238043
f 208/243/3 217/276/3 218/277/3 209/246/3 

vt 56.5993 0
v 4.65215 0.175134 -0.238043
vt 56.5993 11.811
f 217/219/2 216/355/2 219/356/2 218/220/2 

v 4.65215 0.243748 -1.22804
vt 4.10102 0
v 4.65215 0.243748 -0.238043
vt 4.10102 11.811
f 216/276/3 220/357/3 221/358/3 219/277/3 

v 4.65215 0.51875 -1.22804
vt -56.5993 7.38189
vt -56.5993 4.10102
f 216/353/1 222/359/1 220/360/1

f 216/353/1 204/345/1 222/359/1

v 4.65215 0.51875 -0.238043
f 222/313/3 204/247/3 206/248/3 223/314/3 

vt 56.5993 8.2037
vt 56.5993 4.10102
vt 56.5993 7.38189
f 206/361/6 221/362/6 223/363/6

vt 56.5993 3.28244
f 206/361/6 219/364/6 221/362/6

vt 54.1387 6.56488
f 206/361/6 214/365/6 219/364/6

vt 52.4983 6.56488
f 206/361/6 211/366/6 214/365/6

vt 49.2174 8.2037
f 205/367/6 211/366/6 206/361/6

f 205/367/6 209/219/6 211/366/6

f 209/219/6 205/367/6 207/225/6

vt 52.4983 3.28244
f 211/366/6 209/219/6 218/368/6

vt 52.4983 4.92126
f 211/366/6 218/368/6 212/369/6

f 219/364/6 212/369/6 218/368/6

v 4.4459 0.3125 -0.238043
vt 54.1387 4.92126
f 212/369/6 219/364/6 224/370/6

f 224/370/6 219/364/6 214/365/6

f 213/323/5 215/324/5 224/325/5 214/326/5 

vt -54.1387 0
vt -54.1387 11.811
f 215/371/4 210/216/4 212/217/4 224/372/4 

v 4.7209 0.243748 -0.238043
vt 57.4195 4.10102
f 225/373/6 223/363/6 221/362/6

v 4.7209 0.51875 -0.238043
vt 57.4195 7.38189
f 223/363/6 225/373/6 226/374/6

v 4.7209 0.243748 -1.22804
v 4.7209 0.51875 -1.22804
f 227/357/3 228/313/3 226/314/3 225/358/3 

vt -57.4195 7.38189
vt -57.4195 4.10102
f 220/360/1 228/375/1 227/376/1

f 228/375/1 220/360/1 222/359/1

f 228/215/4 222/346/4 223/347/4 226/218/4 

f 220/355/2 227/212/2 225/213/2 221/356/2 

