# MagicaVoxel @ ephtracy

# material
mtllib water.mtl

# mesh name
g water_mesh

# normals
vn -1 0 0
vn 1 0 0
vn 0 0 1
vn 0 0 -1
vn 0 -1 0
vn 0 1 0

# texcoords
vt 0.927734 0.5

# verts
v -7.5 0 9
v -7.5 0 -7
v -7.5 12 9
v -7.5 12 -7
f -2/1/1 -3/1/1 -4/1/1
f -1/1/1 -3/1/1 -2/1/1
v 5.5 0 9
v 5.5 0 -7
v 5.5 12 9
v 5.5 12 -7
f -4/1/2 -3/1/2 -2/1/2
f -2/1/2 -3/1/2 -1/1/2
v -7.5 0 9
v -7.5 12 9
v 5.5 0 9
v 5.5 12 9
f -2/1/3 -3/1/3 -4/1/3
f -1/1/3 -3/1/3 -2/1/3
v -7.5 0 -7
v -7.5 12 -7
v 5.5 0 -7
v 5.5 12 -7
f -4/1/4 -3/1/4 -2/1/4
f -2/1/4 -3/1/4 -1/1/4
v -7.5 0 9
v 5.5 0 9
v -7.5 0 -7
v 5.5 0 -7
f -2/1/5 -3/1/5 -4/1/5
f -1/1/5 -3/1/5 -2/1/5
v -7.5 12 9
v 5.5 12 9
v -7.5 12 -7
v 5.5 12 -7
f -4/1/6 -3/1/6 -2/1/6
f -2/1/6 -3/1/6 -1/1/6
