# MagicaVoxel @ ephtracy

# material
mtllib cubeboy40.mtl
usemtl palette

# mesh name
g cubeboy40_mesh

# normals
vn -1 0 0
vn 1 0 0
vn 0 0 1
vn 0 0 -1
vn 0 -1 0
vn 0 1 0

# texcoords
vt 0.560547 0.5
vt 0.634766 0.5
vt 0.728516 0.5
vt 0.755859 0.5
vt 0.775391 0.5
vt 0.958984 0.5
vt 0.986328 0.5
vt 0.990234 0.5
vt 0.994141 0.5

# verts
v -10 7 1
v -10 7 -1
v -10 9 1
v -10 9 -1
v -7 9 1
v -7 9 -1
v -7 10 1
v -7 10 -1
v -6 10 7
v -6 10 1
v -6 10 -1
v -6 10 -7
v -6 11 8
v -6 11 7
v -6 11 -7
v -6 11 -8
v -6 17 8
v -6 17 -8
v -5 0 8
v -5 0 -8
v -5 8 1
v -5 8 -1
v -5 10 7
v -5 10 1
v -5 10 -1
v -5 10 -7
v -5 11 9
v -5 11 8
v -5 11 7
v -5 11 -7
v -5 11 -8
v -5 11 -9
v -5 17 9
v -5 17 8
v -5 17 -8
v -5 17 -9
v -5 18 8
v -5 18 -8
v 3 4 9
v 3 4 8
v 3 4 -8
v 3 4 -9
v 3 11 9
v 3 11 8
v 3 11 -8
v 3 11 -9
v 4 18 6
v 4 18 -4
v 4 20 6
v 4 20 -4
v 5 2 9
v 5 2 8
v 5 2 -8
v 5 2 -9
v 5 4 9
v 5 4 8
v 5 4 -8
v 5 4 -9
v 6 19 7
v 6 19 6
v 6 20 6
v 6 20 -3
v 6 21 -2
v 6 21 -3
v 6 22 7
v 6 22 -2
v -7 7 1
v -7 7 -1
v -7 8 1
v -7 8 -1
v 4 10 -8
v 4 10 -9
v 4 11 9
v 4 11 8
v 4 11 -8
v 4 11 -9
v 4 15 9
v 4 15 8
v 5 11 -8
v 5 11 -9
v 5 15 -8
v 5 15 -9
v 6 7 9
v 6 7 8
v 6 7 -8
v 6 7 -9
v 6 10 9
v 6 10 8
v 6 10 -8
v 6 10 -9
v 6 15 9
v 6 15 8
v 6 17 9
v 6 17 8
v 6 17 6
v 6 18 8
v 6 18 6
v 7 15 -8
v 7 15 -9
v 7 17 -6
v 7 17 -8
v 7 17 -9
v 7 18 -6
v 7 18 -8
v 8 0 8
v 8 0 -8
v 8 2 9
v 8 2 8
v 8 2 -8
v 8 2 -9
v 8 4 8
v 8 4 3
v 8 4 -3
v 8 4 -8
v 8 5 3
v 8 5 -3
v 8 6 7
v 8 6 5
v 8 6 3
v 8 6 -3
v 8 6 -5
v 8 6 -7
v 8 7 9
v 8 7 8
v 8 7 7
v 8 7 5
v 8 7 4
v 8 7 -3
v 8 7 -5
v 8 7 -7
v 8 7 -8
v 8 7 -9
v 8 8 4
v 8 8 3
v 8 8 -2
v 8 8 -3
v 8 9 3
v 8 9 -2
v 8 10 9
v 8 10 8
v 8 10 3
v 8 10 -3
v 8 10 -6
v 8 11 9
v 8 11 8
v 8 11 7
v 8 11 -3
v 8 11 -6
v 8 13 3
v 8 13 2
v 8 13 -5
v 8 13 -6
v 8 14 8
v 8 14 7
v 8 14 3
v 8 14 2
v 8 14 1
v 8 14 -3
v 8 14 -5
v 8 14 -6
v 8 14 -8
v 8 15 6
v 8 15 3
v 8 15 2
v 8 15 1
v 8 15 -0
v 8 15 -3
v 8 15 -6
v 8 16 8
v 8 16 6
v 8 16 1
v 8 16 -0
v 8 16 -3
v 8 16 -6
v 8 16 -8
v 8 17 8
v 8 17 6
v 8 17 -0
v 8 17 -3
v 8 17 -6
v 8 17 -8
v 8 18 -4
v 8 18 -6
v 8 19 7
v 8 19 6
v 8 20 -3
v 8 20 -4
v 8 21 -2
v 8 21 -3
v 8 22 7
v 8 22 -2
v 9 10 8
v 9 10 3
v 9 11 8
v 9 11 7
v 9 13 3
v 9 13 2
v 9 14 8
v 9 14 7
v 9 14 3
v 9 14 2
v 9 14 1
v 9 14 -3
v 9 14 -8
v 9 15 6
v 9 15 3
v 9 15 2
v 9 15 1
v 9 15 -0
v 9 15 -3
v 9 15 -6
v 9 16 8
v 9 16 6
v 9 16 1
v 9 16 -0
v 9 16 -3
v 9 16 -6
v 9 16 -8
v 9 17 -0
v 9 17 -3
v 10 4 8
v 10 4 3
v 10 4 -3
v 10 4 -8
v 10 6 7
v 10 6 5
v 10 6 3
v 10 6 -3
v 10 6 -5
v 10 6 -7
v 10 7 8
v 10 7 7
v 10 7 5
v 10 7 4
v 10 7 -3
v 10 7 -5
v 10 7 -7
v 10 7 -8
v 10 8 4
v 10 8 3
v 10 8 -2
v 10 8 -3
v 10 9 3
v 10 9 -2
v -5 11 9
v -5 17 9
v 3 4 9
v 3 11 9
v 4 10 9
v 4 11 9
v 4 15 9
v 5 2 9
v 5 4 9
v 6 7 9
v 6 10 9
v 6 15 9
v 6 17 9
v 8 2 9
v 8 7 9
v 8 10 9
v 8 11 9
v -6 11 8
v -6 17 8
v -5 0 8
v -5 11 8
v -5 17 8
v -5 18 8
v 3 4 8
v 3 11 8
v 4 11 8
v 4 15 8
v 5 2 8
v 5 4 8
v 6 7 8
v 6 10 8
v 6 15 8
v 6 17 8
v 6 18 8
v 8 0 8
v 8 2 8
v 8 4 8
v 8 7 8
v 8 10 8
v 8 11 8
v 8 14 8
v 8 16 8
v 8 17 8
v 9 10 8
v 9 11 8
v 9 14 8
v 9 16 8
v 10 4 8
v 10 7 8
v -6 10 7
v -6 11 7
v -5 10 7
v -5 11 7
v 6 19 7
v 6 22 7
v 8 11 7
v 8 14 7
v 8 19 7
v 8 22 7
v 9 11 7
v 9 14 7
v 4 18 6
v 4 20 6
v 6 17 6
v 6 18 6
v 6 19 6
v 6 20 6
v 8 17 6
v 8 19 6
v 8 6 5
v 8 7 5
v 10 6 5
v 10 7 5
v 8 7 4
v 8 8 4
v 10 7 4
v 10 8 4
v 8 8 3
v 8 9 3
v 10 8 3
v 10 9 3
v 8 14 2
v 8 15 2
v 9 14 2
v 9 15 2
v -10 7 1
v -10 9 1
v -7 7 1
v -7 8 1
v -7 9 1
v -7 10 1
v -6 8 1
v -6 10 1
v -5 8 1
v -5 10 1
v 8 15 1
v 8 16 1
v 9 15 1
v 9 16 1
v 8 16 -0
v 8 17 -0
v 9 16 -0
v 9 17 -0
v 8 4 -3
v 8 5 -3
v 8 6 -3
v 8 14 -3
v 8 15 -3
v 9 14 -3
v 9 15 -3
v 10 4 -3
v 10 6 -3
v 8 15 -6
v 8 16 -6
v 9 15 -6
v 9 16 -6
v 8 6 -7
v 8 7 -7
v 10 6 -7
v 10 7 -7
v 8 6 7
v 8 7 7
v 10 6 7
v 10 7 7
v 8 15 6
v 8 16 6
v 9 15 6
v 9 16 6
v 8 4 3
v 8 5 3
v 8 6 3
v 8 10 3
v 8 13 3
v 8 14 3
v 8 15 3
v 9 10 3
v 9 13 3
v 9 14 3
v 9 15 3
v 10 4 3
v 10 6 3
v 8 13 2
v 8 14 2
v 9 13 2
v 9 14 2
v 8 14 1
v 8 15 1
v 9 14 1
v 9 15 1
v 8 15 -0
v 8 16 -0
v 9 15 -0
v 9 16 -0
v -10 7 -1
v -10 9 -1
v -7 7 -1
v -7 8 -1
v -7 9 -1
v -7 10 -1
v -6 8 -1
v -6 10 -1
v -5 8 -1
v -5 10 -1
v 6 21 -2
v 6 22 -2
v 8 8 -2
v 8 9 -2
v 8 21 -2
v 8 22 -2
v 10 8 -2
v 10 9 -2
v 6 20 -3
v 6 21 -3
v 8 7 -3
v 8 8 -3
v 8 16 -3
v 8 17 -3
v 8 20 -3
v 8 21 -3
v 9 16 -3
v 9 17 -3
v 10 7 -3
v 10 8 -3
v 4 18 -4
v 4 20 -4
v 8 18 -4
v 8 20 -4
v 8 6 -5
v 8 7 -5
v 10 6 -5
v 10 7 -5
v 7 17 -6
v 7 18 -6
v 8 17 -6
v 8 18 -6
v -6 10 -7
v -6 11 -7
v -5 10 -7
v -5 11 -7
v -6 11 -8
v -6 17 -8
v -5 0 -8
v -5 11 -8
v -5 17 -8
v -5 18 -8
v 3 4 -8
v 3 11 -8
v 4 10 -8
v 4 11 -8
v 5 2 -8
v 5 4 -8
v 5 11 -8
v 5 15 -8
v 6 7 -8
v 6 10 -8
v 7 15 -8
v 7 17 -8
v 7 18 -8
v 8 0 -8
v 8 2 -8
v 8 4 -8
v 8 7 -8
v 8 14 -8
v 8 16 -8
v 8 17 -8
v 9 14 -8
v 9 16 -8
v 10 4 -8
v 10 7 -8
v -5 11 -9
v -5 17 -9
v 3 4 -9
v 3 11 -9
v 4 10 -9
v 4 11 -9
v 5 2 -9
v 5 4 -9
v 5 11 -9
v 5 15 -9
v 6 7 -9
v 6 10 -9
v 7 15 -9
v 7 17 -9
v 8 2 -9
v 8 7 -9
v -5 0 8
v 8 0 8
v -5 0 -8
v 8 0 -8
v 5 2 9
v 8 2 9
v 5 2 8
v 8 2 8
v 5 2 -8
v 8 2 -8
v 5 2 -9
v 8 2 -9
v 3 4 9
v 5 4 9
v 3 4 8
v 5 4 8
v 8 4 8
v 10 4 8
v 8 4 3
v 10 4 3
v 8 4 -3
v 10 4 -3
v 3 4 -8
v 5 4 -8
v 8 4 -8
v 10 4 -8
v 3 4 -9
v 5 4 -9
v 8 6 3
v 10 6 3
v 8 6 -3
v 10 6 -3
v -10 7 1
v -7 7 1
v -10 7 -1
v -7 7 -1
v -7 8 1
v -6 8 1
v -5 8 1
v -7 8 -1
v -6 8 -1
v -5 8 -1
v 6 10 9
v 8 10 9
v 6 10 8
v 8 10 8
v 9 10 8
v -6 10 7
v -5 10 7
v 8 10 3
v 9 10 3
v -6 10 1
v -5 10 1
v -6 10 -1
v -5 10 -1
v -6 10 -7
v -5 10 -7
v -5 11 9
v 3 11 9
v -6 11 8
v -5 11 8
v 3 11 8
v -6 11 7
v -5 11 7
v -6 11 -7
v -5 11 -7
v -6 11 -8
v -5 11 -8
v 3 11 -8
v 4 11 -8
v 5 11 -8
v -5 11 -9
v 3 11 -9
v 4 11 -9
v 5 11 -9
v 8 13 3
v 9 13 3
v 8 13 2
v 9 13 2
v 8 14 8
v 9 14 8
v 8 14 7
v 9 14 7
v 8 14 2
v 9 14 2
v 8 14 1
v 9 14 1
v 8 14 -3
v 9 14 -3
v 8 14 -5
v 8 14 -6
v 8 14 -8
v 9 14 -8
v 4 15 9
v 6 15 9
v 4 15 8
v 6 15 8
v 8 15 1
v 9 15 1
v 8 15 -0
v 9 15 -0
v 5 15 -8
v 7 15 -8
v 5 15 -9
v 7 15 -9
v 8 16 -0
v 9 16 -0
v 8 16 -3
v 9 16 -3
v 6 19 7
v 8 19 7
v 6 19 6
v 8 19 6
v 8 6 7
v 10 6 7
v 8 6 5
v 10 6 5
v 8 6 -5
v 10 6 -5
v 8 6 -7
v 10 6 -7
v 6 7 9
v 8 7 9
v 6 7 8
v 8 7 8
v 10 7 8
v 8 7 7
v 10 7 7
v 8 7 5
v 10 7 5
v 8 7 4
v 10 7 4
v 8 7 -3
v 10 7 -3
v 8 7 -5
v 10 7 -5
v 8 7 -7
v 10 7 -7
v 6 7 -8
v 8 7 -8
v 10 7 -8
v 6 7 -9
v 8 7 -9
v 8 8 4
v 10 8 4
v 8 8 3
v 10 8 3
v 8 8 -2
v 10 8 -2
v 8 8 -3
v 10 8 -3
v 8 9 3
v 10 9 3
v -10 9 1
v -7 9 1
v -10 9 -1
v -7 9 -1
v 8 9 -2
v 10 9 -2
v -7 10 1
v -6 10 1
v -7 10 -1
v -6 10 -1
v 4 10 -8
v 6 10 -8
v 4 10 -9
v 6 10 -9
v 4 11 9
v 8 11 9
v 4 11 8
v 8 11 8
v 9 11 8
v 8 11 7
v 9 11 7
v 8 14 3
v 9 14 3
v 8 14 2
v 9 14 2
v 8 15 6
v 9 15 6
v 8 15 3
v 9 15 3
v 8 15 2
v 9 15 2
v 8 15 1
v 9 15 1
v 8 15 -3
v 9 15 -3
v 8 15 -6
v 9 15 -6
v 8 16 8
v 9 16 8
v 8 16 6
v 9 16 6
v 8 16 1
v 9 16 1
v 8 16 -0
v 9 16 -0
v 8 16 -6
v 9 16 -6
v 8 16 -8
v 9 16 -8
v -5 17 9
v 6 17 9
v -6 17 8
v -5 17 8
v 6 17 8
v 8 17 8
v 6 17 6
v 8 17 6
v 8 17 -0
v 9 17 -0
v 8 17 -3
v 9 17 -3
v 7 17 -6
v 8 17 -6
v -6 17 -8
v -5 17 -8
v 7 17 -8
v 8 17 -8
v -5 17 -9
v 7 17 -9
v -5 18 8
v 6 18 8
v 4 18 6
v 6 18 6
v 4 18 -4
v 8 18 -4
v 7 18 -6
v 8 18 -6
v -5 18 -8
v 7 18 -8
v 4 20 6
v 6 20 6
v 6 20 -3
v 8 20 -3
v 4 20 -4
v 8 20 -4
v 6 21 -2
v 8 21 -2
v 6 21 -3
v 8 21 -3
v 6 22 7
v 8 22 7
v 6 22 -2
v 8 22 -2

# faces
f 3/1/1 2/1/1 1/1/1
f 4/1/1 2/1/1 3/1/1
f 7/9/1 6/9/1 5/9/1
f 8/9/1 6/9/1 7/9/1
f 14/1/1 10/1/1 9/1/1
f 14/1/1 12/1/1 11/1/1
f 14/1/1 11/1/1 10/1/1
f 15/1/1 12/1/1 14/1/1
f 17/1/1 14/1/1 13/1/1
f 17/1/1 16/1/1 15/1/1
f 17/1/1 15/1/1 14/1/1
f 18/1/1 16/1/1 17/1/1
f 21/3/1 20/3/1 19/3/1
f 22/3/1 20/3/1 21/3/1
f 23/3/1 21/3/1 19/3/1
f 24/3/1 21/3/1 23/3/1
f 25/3/1 20/3/1 22/3/1
f 26/3/1 20/3/1 25/3/1
f 28/3/1 23/3/1 19/3/1
f 29/3/1 23/3/1 28/3/1
f 30/3/1 20/3/1 26/3/1
f 31/3/1 20/3/1 30/3/1
f 33/1/1 28/1/1 27/1/1
f 34/1/1 28/1/1 33/1/1
f 35/1/1 32/1/1 31/1/1
f 36/1/1 32/1/1 35/1/1
f 37/1/1 35/1/1 34/1/1
f 38/1/1 35/1/1 37/1/1
f 43/1/1 40/1/1 39/1/1
f 44/1/1 40/1/1 43/1/1
f 45/1/1 42/1/1 41/1/1
f 46/1/1 42/1/1 45/1/1
f 49/1/1 48/1/1 47/1/1
f 50/1/1 48/1/1 49/1/1
f 55/1/1 52/1/1 51/1/1
f 56/1/1 52/1/1 55/1/1
f 57/1/1 54/1/1 53/1/1
f 58/1/1 54/1/1 57/1/1
f 61/1/1 60/1/1 59/1/1
f 63/1/1 62/1/1 61/1/1
f 64/1/1 62/1/1 63/1/1
f 65/1/1 61/1/1 59/1/1
f 65/1/1 63/1/1 61/1/1
f 66/1/1 63/1/1 65/1/1
f 67/1/2 68/1/2 69/1/2
f 69/1/2 68/1/2 70/1/2
f 71/1/2 72/1/2 75/1/2
f 75/1/2 72/1/2 76/1/2
f 73/1/2 74/1/2 77/1/2
f 77/1/2 74/1/2 78/1/2
f 79/1/2 80/1/2 81/1/2
f 81/1/2 80/1/2 82/1/2
f 83/1/2 84/1/2 87/1/2
f 87/1/2 84/1/2 88/1/2
f 85/1/2 86/1/2 89/1/2
f 89/1/2 86/1/2 90/1/2
f 91/1/2 92/1/2 93/1/2
f 93/1/2 92/1/2 94/1/2
f 94/1/2 95/1/2 96/1/2
f 96/1/2 95/1/2 97/1/2
f 98/1/2 99/1/2 101/1/2
f 101/1/2 99/1/2 102/1/2
f 100/1/2 101/1/2 103/1/2
f 103/1/2 101/1/2 104/1/2
f 105/3/2 106/3/2 108/3/2
f 108/3/2 106/3/2 109/3/2
f 107/1/2 108/1/2 111/1/2
f 108/3/2 109/3/2 111/3/2
f 111/3/2 109/3/2 112/3/2
f 112/3/2 109/3/2 113/3/2
f 109/1/2 110/1/2 114/1/2
f 113/3/2 109/3/2 114/3/2
f 112/3/2 113/3/2 115/3/2
f 115/3/2 113/3/2 116/3/2
f 115/9/2 116/9/2 119/9/2
f 119/9/2 116/9/2 120/9/2
f 107/1/2 111/1/2 123/1/2
f 123/1/2 111/1/2 124/1/2
f 117/3/2 118/3/2 125/3/2
f 125/3/2 118/3/2 126/3/2
f 121/3/2 122/3/2 129/3/2
f 129/3/2 122/3/2 130/3/2
f 114/1/2 110/1/2 131/1/2
f 131/1/2 110/1/2 132/1/2
f 126/3/2 127/3/2 133/3/2
f 124/3/2 125/3/2 133/3/2
f 125/3/2 126/3/2 133/3/2
f 129/3/2 130/3/2 136/3/2
f 130/3/2 131/3/2 136/3/2
f 128/3/2 129/3/2 136/3/2
f 133/3/2 134/3/2 137/3/2
f 135/3/2 136/3/2 138/3/2
f 133/3/2 137/3/2 140/3/2
f 137/3/2 138/3/2 140/3/2
f 124/3/2 133/3/2 140/3/2
f 140/3/2 138/3/2 141/3/2
f 138/3/2 136/3/2 142/3/2
f 141/3/2 138/3/2 142/3/2
f 136/3/2 131/3/2 142/3/2
f 142/3/2 131/3/2 143/3/2
f 139/8/2 140/8/2 144/8/2
f 144/8/2 140/8/2 145/8/2
f 142/4/2 143/4/2 147/4/2
f 141/3/2 142/3/2 147/3/2
f 143/3/2 131/3/2 148/3/2
f 147/4/2 143/4/2 148/4/2
f 141/3/2 147/3/2 149/3/2
f 149/3/2 147/3/2 150/3/2
f 147/7/2 148/7/2 151/7/2
f 148/3/2 131/3/2 152/3/2
f 151/7/2 148/7/2 152/7/2
f 145/3/2 146/3/2 153/3/2
f 153/3/2 146/3/2 154/3/2
f 150/3/2 147/3/2 156/3/2
f 156/3/2 147/3/2 157/3/2
f 147/7/2 151/7/2 158/7/2
f 157/3/2 147/3/2 158/3/2
f 151/6/2 152/6/2 159/6/2
f 158/7/2 151/7/2 159/7/2
f 152/3/2 131/3/2 160/3/2
f 159/6/2 152/6/2 160/6/2
f 160/3/2 131/3/2 161/3/2
f 155/3/2 156/3/2 163/3/2
f 163/3/2 156/3/2 164/3/2
f 157/3/2 158/3/2 165/3/2
f 165/3/2 158/3/2 166/3/2
f 166/3/2 158/3/2 167/3/2
f 163/3/2 164/3/2 170/3/2
f 162/3/2 163/3/2 170/3/2
f 164/3/2 165/3/2 170/3/2
f 170/3/2 165/3/2 171/3/2
f 166/3/2 167/3/2 172/3/2
f 167/3/2 168/3/2 172/3/2
f 172/3/2 168/3/2 173/3/2
f 173/3/2 168/3/2 174/3/2
f 170/3/2 171/3/2 176/3/2
f 169/3/2 170/3/2 176/3/2
f 171/3/2 172/3/2 176/3/2
f 176/3/2 172/3/2 177/3/2
f 177/3/2 172/3/2 178/3/2
f 174/3/2 175/3/2 179/3/2
f 173/3/2 174/3/2 179/3/2
f 179/3/2 175/3/2 180/3/2
f 180/3/2 175/3/2 181/3/2
f 177/1/2 178/1/2 182/1/2
f 179/1/2 180/1/2 182/1/2
f 178/1/2 179/1/2 182/1/2
f 182/1/2 180/1/2 183/1/2
f 177/1/2 182/1/2 185/1/2
f 185/1/2 182/1/2 186/1/2
f 184/1/2 185/1/2 186/1/2
f 186/1/2 182/1/2 187/1/2
f 184/1/2 186/1/2 188/1/2
f 188/1/2 186/1/2 189/1/2
f 184/1/2 188/1/2 190/1/2
f 190/1/2 188/1/2 191/1/2
f 192/8/2 193/8/2 194/8/2
f 194/8/2 193/8/2 195/8/2
f 195/8/2 193/8/2 196/8/2
f 195/8/2 196/8/2 199/8/2
f 196/8/2 197/8/2 199/8/2
f 199/8/2 197/8/2 200/8/2
f 200/8/2 197/8/2 201/8/2
f 198/1/2 199/1/2 205/1/2
f 199/1/2 200/1/2 205/1/2
f 205/1/2 200/1/2 206/1/2
f 201/8/2 202/8/2 207/8/2
f 207/8/2 202/8/2 208/8/2
f 203/1/2 204/1/2 210/1/2
f 210/1/2 204/1/2 211/1/2
f 198/1/2 205/1/2 212/1/2
f 212/1/2 205/1/2 213/1/2
f 208/8/2 209/8/2 214/8/2
f 214/8/2 209/8/2 215/8/2
f 211/1/2 204/1/2 217/1/2
f 217/1/2 204/1/2 218/1/2
f 215/8/2 216/8/2 219/8/2
f 219/8/2 216/8/2 220/8/2
f 221/1/2 222/1/2 225/1/2
f 225/1/2 222/1/2 226/1/2
f 226/1/2 222/1/2 227/1/2
f 223/1/2 224/1/2 228/1/2
f 228/1/2 224/1/2 229/1/2
f 229/1/2 224/1/2 230/1/2
f 221/1/2 225/1/2 231/1/2
f 231/1/2 225/1/2 232/1/2
f 226/1/2 227/1/2 233/1/2
f 228/1/2 229/1/2 233/1/2
f 227/1/2 228/1/2 233/1/2
f 233/1/2 229/1/2 234/1/2
f 234/1/2 229/1/2 235/1/2
f 235/1/2 229/1/2 236/1/2
f 230/1/2 224/1/2 237/1/2
f 237/1/2 224/1/2 238/1/2
f 234/1/2 235/1/2 239/1/2
f 239/1/2 235/1/2 240/1/2
f 240/1/2 235/1/2 241/1/2
f 241/1/2 235/1/2 242/1/2
f 240/1/2 241/1/2 243/1/2
f 243/1/2 241/1/2 244/1/2
f 248/1/3 246/1/3 245/1/3
f 249/1/3 248/1/3 247/1/3
f 250/1/3 246/1/3 248/1/3
f 250/1/3 248/1/3 249/1/3
f 251/1/3 246/1/3 250/1/3
f 253/1/3 249/1/3 247/1/3
f 254/1/3 249/1/3 253/1/3
f 254/1/3 253/1/3 252/1/3
f 255/8/3 250/8/3 249/8/3
f 255/1/3 249/1/3 254/1/3
f 256/1/3 246/1/3 251/1/3
f 257/1/3 246/1/3 256/1/3
f 258/1/3 254/1/3 252/1/3
f 259/1/3 254/1/3 258/1/3
f 260/8/3 250/8/3 255/8/3
f 261/8/3 250/8/3 260/8/3
f 265/1/3 263/1/3 262/1/3
f 266/1/3 263/1/3 265/1/3
f 268/3/3 265/3/3 264/3/3
f 269/3/3 265/3/3 268/3/3
f 272/3/3 268/3/3 264/3/3
f 273/3/3 268/3/3 272/3/3
f 276/3/3 271/3/3 270/3/3
f 277/1/3 267/1/3 266/1/3
f 278/1/3 267/1/3 277/1/3
f 279/3/3 272/3/3 264/3/3
f 280/3/3 272/3/3 279/3/3
f 282/3/3 275/3/3 274/3/3
f 283/3/3 275/3/3 282/3/3
f 284/3/3 276/3/3 270/3/3
f 284/3/3 277/3/3 276/3/3
f 285/3/3 277/3/3 284/3/3
f 286/3/3 277/3/3 285/3/3
f 287/3/3 277/3/3 286/3/3
f 288/8/3 284/8/3 283/8/3
f 289/8/3 284/8/3 288/8/3
f 290/1/3 286/1/3 285/1/3
f 291/1/3 286/1/3 290/1/3
f 292/1/3 282/1/3 281/1/3
f 293/1/3 282/1/3 292/1/3
f 296/1/3 295/1/3 294/1/3
f 297/1/3 295/1/3 296/1/3
f 302/1/3 299/1/3 298/1/3
f 303/1/3 299/1/3 302/1/3
f 304/8/3 301/8/3 300/8/3
f 305/8/3 301/8/3 304/8/3
f 309/1/3 307/1/3 306/1/3
f 310/1/3 307/1/3 309/1/3
f 311/1/3 307/1/3 310/1/3
f 312/1/3 309/1/3 308/1/3
f 312/1/3 310/1/3 309/1/3
f 313/1/3 310/1/3 312/1/3
f 316/1/3 315/1/3 314/1/3
f 317/1/3 315/1/3 316/1/3
f 320/1/3 319/1/3 318/1/3
f 321/1/3 319/1/3 320/1/3
f 324/1/3 323/1/3 322/1/3
f 325/1/3 323/1/3 324/1/3
f 328/8/3 327/8/3 326/8/3
f 329/8/3 327/8/3 328/8/3
f 332/1/3 331/1/3 330/1/3
f 333/1/3 331/1/3 332/1/3
f 334/1/3 331/1/3 333/1/3
f 336/9/3 335/9/3 334/9/3
f 336/9/3 334/9/3 333/9/3
f 337/9/3 335/9/3 336/9/3
f 338/1/3 337/1/3 336/1/3
f 339/1/3 337/1/3 338/1/3
f 342/8/3 341/8/3 340/8/3
f 343/8/3 341/8/3 342/8/3
f 346/8/3 345/8/3 344/8/3
f 347/8/3 345/8/3 346/8/3
f 353/1/3 352/1/3 351/1/3
f 354/1/3 352/1/3 353/1/3
f 355/1/3 349/1/3 348/1/3
f 355/1/3 350/1/3 349/1/3
f 356/1/3 350/1/3 355/1/3
f 359/1/3 358/1/3 357/1/3
f 360/1/3 358/1/3 359/1/3
f 363/1/3 362/1/3 361/1/3
f 364/1/3 362/1/3 363/1/3
f 365/1/4 366/1/4 367/1/4
f 367/1/4 366/1/4 368/1/4
f 369/1/4 370/1/4 371/1/4
f 371/1/4 370/1/4 372/1/4
f 376/8/4 377/8/4 380/8/4
f 380/8/4 377/8/4 381/8/4
f 378/1/4 379/1/4 382/1/4
f 382/1/4 379/1/4 383/1/4
f 373/1/4 374/1/4 384/1/4
f 374/1/4 375/1/4 384/1/4
f 384/1/4 375/1/4 385/1/4
f 386/8/4 387/8/4 388/8/4
f 388/8/4 387/8/4 389/8/4
f 390/8/4 391/8/4 392/8/4
f 392/8/4 391/8/4 393/8/4
f 394/8/4 395/8/4 396/8/4
f 396/8/4 395/8/4 397/8/4
f 398/1/4 399/1/4 400/1/4
f 400/1/4 399/1/4 401/1/4
f 401/1/4 399/1/4 402/1/4
f 402/9/4 403/9/4 404/9/4
f 401/9/4 402/9/4 404/9/4
f 404/9/4 403/9/4 405/9/4
f 404/1/4 405/1/4 406/1/4
f 406/1/4 405/1/4 407/1/4
f 408/1/4 409/1/4 412/1/4
f 412/1/4 409/1/4 413/1/4
f 410/1/4 411/1/4 414/1/4
f 414/1/4 411/1/4 415/1/4
f 416/1/4 417/1/4 422/1/4
f 422/1/4 417/1/4 423/1/4
f 420/8/4 421/8/4 424/8/4
f 424/8/4 421/8/4 425/8/4
f 418/1/4 419/1/4 426/1/4
f 426/1/4 419/1/4 427/1/4
f 428/1/4 429/1/4 430/1/4
f 430/1/4 429/1/4 431/1/4
f 432/1/4 433/1/4 434/1/4
f 434/1/4 433/1/4 435/1/4
f 436/1/4 437/1/4 438/1/4
f 438/1/4 437/1/4 439/1/4
f 440/1/4 441/1/4 442/1/4
f 442/1/4 441/1/4 443/1/4
f 444/1/4 445/1/4 447/1/4
f 447/1/4 445/1/4 448/1/4
f 446/3/4 447/3/4 450/3/4
f 450/3/4 447/3/4 451/3/4
f 446/3/4 450/3/4 454/3/4
f 454/3/4 450/3/4 455/3/4
f 452/3/4 453/3/4 456/3/4
f 456/3/4 457/3/4 459/3/4
f 452/3/4 456/3/4 459/3/4
f 459/3/4 457/3/4 460/3/4
f 458/3/4 459/3/4 460/3/4
f 448/1/4 449/1/4 461/1/4
f 461/1/4 449/1/4 462/1/4
f 446/3/4 454/3/4 463/3/4
f 463/3/4 454/3/4 464/3/4
f 458/3/4 460/3/4 466/3/4
f 460/3/4 461/3/4 466/3/4
f 466/3/4 461/3/4 467/3/4
f 467/3/4 461/3/4 468/3/4
f 468/3/4 461/3/4 469/3/4
f 467/1/4 468/1/4 470/1/4
f 470/1/4 468/1/4 471/1/4
f 465/1/4 466/1/4 472/1/4
f 472/1/4 466/1/4 473/1/4
f 474/1/4 475/1/4 477/1/4
f 476/1/4 477/1/4 478/1/4
f 477/1/4 475/1/4 479/1/4
f 478/1/4 477/1/4 479/1/4
f 476/1/4 478/1/4 481/1/4
f 479/1/4 475/1/4 482/1/4
f 482/1/4 475/1/4 483/1/4
f 480/1/4 481/1/4 484/1/4
f 481/1/4 478/1/4 484/1/4
f 484/1/4 478/1/4 485/1/4
f 483/1/4 475/1/4 486/1/4
f 486/1/4 475/1/4 487/1/4
f 480/1/4 484/1/4 488/1/4
f 488/1/4 484/1/4 489/1/4
f 492/3/5 491/3/5 490/3/5
f 493/3/5 491/3/5 492/3/5
f 496/1/5 495/1/5 494/1/5
f 497/1/5 495/1/5 496/1/5
f 500/1/5 499/1/5 498/1/5
f 501/1/5 499/1/5 500/1/5
f 504/1/5 503/1/5 502/1/5
f 505/1/5 503/1/5 504/1/5
f 508/1/5 507/1/5 506/1/5
f 509/1/5 507/1/5 508/1/5
f 514/1/5 511/1/5 510/1/5
f 515/1/5 511/1/5 514/1/5
f 516/1/5 513/1/5 512/1/5
f 517/1/5 513/1/5 516/1/5
f 520/1/5 519/1/5 518/1/5
f 521/1/5 519/1/5 520/1/5
f 524/1/5 523/1/5 522/1/5
f 525/1/5 523/1/5 524/1/5
f 529/9/5 527/9/5 526/9/5
f 530/1/5 528/1/5 527/1/5
f 530/9/5 527/9/5 529/9/5
f 531/1/5 528/1/5 530/1/5
f 534/8/5 533/8/5 532/8/5
f 535/8/5 533/8/5 534/8/5
f 539/8/5 536/8/5 535/8/5
f 540/8/5 536/8/5 539/8/5
f 541/1/5 538/1/5 537/1/5
f 542/1/5 538/1/5 541/1/5
f 545/1/5 544/1/5 543/1/5
f 546/1/5 544/1/5 545/1/5
f 550/1/5 548/1/5 547/1/5
f 551/1/5 548/1/5 550/1/5
f 552/1/5 550/1/5 549/1/5
f 553/1/5 550/1/5 552/1/5
f 556/1/5 555/1/5 554/1/5
f 557/1/5 555/1/5 556/1/5
f 561/1/5 558/1/5 557/1/5
f 562/1/5 558/1/5 561/1/5
f 563/1/5 560/1/5 559/1/5
f 564/1/5 560/1/5 563/1/5
f 567/8/5 566/8/5 565/8/5
f 568/8/5 566/8/5 567/8/5
f 571/1/5 570/1/5 569/1/5
f 572/1/5 570/1/5 571/1/5
f 575/8/5 574/8/5 573/8/5
f 576/8/5 574/8/5 575/8/5
f 579/1/5 578/1/5 577/1/5
f 580/1/5 578/1/5 579/1/5
f 581/1/5 578/1/5 580/1/5
f 582/1/5 578/1/5 581/1/5
f 585/1/5 584/1/5 583/1/5
f 586/1/5 584/1/5 585/1/5
f 589/8/5 588/8/5 587/8/5
f 590/8/5 588/8/5 589/8/5
f 593/1/5 592/1/5 591/1/5
f 594/1/5 592/1/5 593/1/5
f 597/8/5 596/8/5 595/8/5
f 598/8/5 596/8/5 597/8/5
f 601/1/5 600/1/5 599/1/5
f 602/1/5 600/1/5 601/1/5
f 603/1/6 604/1/6 605/1/6
f 605/1/6 604/1/6 606/1/6
f 607/1/6 608/1/6 609/1/6
f 609/1/6 608/1/6 610/1/6
f 611/1/6 612/1/6 613/1/6
f 613/1/6 612/1/6 614/1/6
f 614/1/6 615/1/6 616/1/6
f 616/1/6 615/1/6 617/1/6
f 618/1/6 619/1/6 620/1/6
f 620/1/6 619/1/6 621/1/6
f 622/1/6 623/1/6 624/1/6
f 624/1/6 623/1/6 625/1/6
f 626/1/6 627/1/6 629/1/6
f 629/1/6 627/1/6 630/1/6
f 628/1/6 629/1/6 631/1/6
f 631/1/6 629/1/6 632/1/6
f 633/1/6 634/1/6 635/1/6
f 635/1/6 634/1/6 636/1/6
f 637/1/6 638/1/6 639/1/6
f 639/1/6 638/1/6 640/1/6
f 643/1/6 644/1/6 645/1/6
f 645/1/6 644/1/6 646/1/6
f 641/1/6 642/1/6 647/1/6
f 647/1/6 642/1/6 648/1/6
f 649/9/6 650/9/6 651/9/6
f 651/9/6 650/9/6 652/9/6
f 653/1/6 654/1/6 655/1/6
f 655/1/6 654/1/6 656/1/6
f 657/8/6 658/8/6 659/8/6
f 659/8/6 658/8/6 660/8/6
f 660/8/6 661/8/6 662/8/6
f 662/8/6 661/8/6 663/8/6
f 664/8/6 665/8/6 666/8/6
f 666/8/6 665/8/6 667/8/6
f 668/1/6 669/1/6 670/1/6
f 670/1/6 669/1/6 671/1/6
f 672/8/6 673/8/6 674/8/6
f 674/8/6 673/8/6 675/8/6
f 676/1/6 677/1/6 678/1/6
f 678/1/6 677/1/6 679/1/6
f 680/1/6 681/1/6 682/1/6
f 682/1/6 681/1/6 683/1/6
f 684/8/6 685/8/6 686/8/6
f 686/8/6 685/8/6 687/8/6
f 688/1/6 689/1/6 690/1/6
f 690/1/6 689/1/6 691/1/6
f 692/1/6 693/1/6 695/1/6
f 695/1/6 693/1/6 696/1/6
f 696/3/6 697/3/6 698/3/6
f 698/3/6 697/3/6 699/3/6
f 700/8/6 701/8/6 702/8/6
f 702/8/6 701/8/6 703/8/6
f 694/1/6 695/1/6 706/1/6
f 706/1/6 695/1/6 707/1/6
f 704/3/6 705/3/6 708/3/6
f 708/3/6 705/3/6 709/3/6
f 707/1/6 708/1/6 710/1/6
f 710/1/6 708/1/6 711/1/6
f 712/1/6 713/1/6 714/1/6
f 714/1/6 713/1/6 715/1/6
f 712/1/6 714/1/6 716/1/6
f 716/1/6 717/1/6 718/1/6
f 718/1/6 717/1/6 719/1/6
f 712/1/6 716/1/6 720/1/6
f 716/1/6 718/1/6 720/1/6
f 720/1/6 718/1/6 721/1/6
f 722/1/6 723/1/6 724/1/6
f 722/1/6 724/1/6 726/1/6
f 724/1/6 725/1/6 726/1/6
f 726/1/6 725/1/6 727/1/6
f 728/1/6 729/1/6 730/1/6
f 730/1/6 729/1/6 731/1/6
f 732/1/6 733/1/6 734/1/6
f 734/1/6 733/1/6 735/1/6
