# MagicaVoxel @ ephtracy

# material
mtllib cubeboy4.mtl

# mesh name
g cubeboy4_mesh

# normals
vn -1 0 0
vn 1 0 0
vn 0 0 1
vn 0 0 -1
vn 0 -1 0
vn 0 1 0

# texcoords
vt 0.208984 0.5
vt 0.232422 0.5
vt 0.560547 0.5
vt 0.744141 0.5
vt 0.748047 0.5
vt 0.892578 0.5
vt 0.958984 0.5
vt 0.994141 0.5

# verts
v -8.5 0 10
v -8.5 0 -8
v -8.5 18 10
v -8.5 18 -8
f -2/8/1 -3/8/1 -4/8/1
f -1/8/1 -3/8/1 -2/8/1
v 5.5 9 9
v 5.5 9 -7
v 5.5 10 7
v 5.5 10 4
v 5.5 10 -2
v 5.5 10 -5
v 5.5 11 7
v 5.5 11 4
v 5.5 11 -2
v 5.5 11 -5
v 5.5 13 5
v 5.5 13 4
v 5.5 13 -4
v 5.5 13 -5
v 5.5 14 7
v 5.5 14 5
v 5.5 14 4
v 5.5 14 -2
v 5.5 14 -4
v 5.5 14 -5
v 5.5 16 9
v 5.5 16 -7
f -22/1/2 -21/1/2 -20/1/2
f -20/1/2 -21/1/2 -19/1/2
f -19/1/2 -21/1/2 -18/1/2
f -18/1/2 -21/1/2 -17/1/2
f -22/1/2 -20/1/2 -16/1/2
f -20/2/2 -19/2/2 -16/2/2
f -19/1/2 -18/1/2 -15/1/2
f -16/2/2 -19/2/2 -15/2/2
f -18/2/2 -17/2/2 -14/2/2
f -15/1/2 -18/1/2 -14/1/2
f -17/1/2 -21/1/2 -13/1/2
f -14/2/2 -17/2/2 -13/2/2
f -16/8/2 -15/8/2 -12/8/2
f -15/1/2 -14/1/2 -11/1/2
f -12/8/2 -15/8/2 -11/8/2
f -14/8/2 -13/8/2 -10/8/2
f -13/1/2 -21/1/2 -9/1/2
f -10/8/2 -13/8/2 -9/8/2
f -16/8/2 -12/8/2 -8/8/2
f -22/1/2 -16/1/2 -8/1/2
f -12/7/2 -11/7/2 -7/7/2
f -8/8/2 -12/8/2 -7/8/2
f -11/1/2 -14/1/2 -6/1/2
f -7/7/2 -11/7/2 -6/7/2
f -14/8/2 -10/8/2 -5/8/2
f -6/1/2 -14/1/2 -5/1/2
f -10/7/2 -9/7/2 -4/7/2
f -5/8/2 -10/8/2 -4/8/2
f -9/1/2 -21/1/2 -3/1/2
f -4/7/2 -9/7/2 -3/7/2
f -5/1/2 -4/1/2 -2/1/2
f -7/1/2 -6/1/2 -2/1/2
f -4/1/2 -3/1/2 -2/1/2
f -22/1/2 -8/1/2 -2/1/2
f -8/1/2 -7/1/2 -2/1/2
f -6/1/2 -5/1/2 -2/1/2
f -3/1/2 -21/1/2 -1/1/2
f -2/1/2 -3/1/2 -1/1/2
v 6.5 0 10
v 6.5 0 -8
v 6.5 9 9
v 6.5 9 -7
v 6.5 16 9
v 6.5 16 -7
v 6.5 18 10
v 6.5 18 -8
f -8/8/2 -7/8/2 -6/8/2
f -6/8/2 -7/8/2 -5/8/2
f -8/8/2 -6/8/2 -4/8/2
f -5/8/2 -7/8/2 -3/8/2
f -8/8/2 -4/8/2 -2/8/2
f -4/8/2 -3/8/2 -2/8/2
f -3/8/2 -7/8/2 -1/8/2
f -2/8/2 -3/8/2 -1/8/2
v -8.5 0 10
v -8.5 18 10
v 6.5 0 10
v 6.5 18 10
f -2/8/3 -3/8/3 -4/8/3
f -1/8/3 -3/8/3 -2/8/3
v 5.5 9 -7
v 5.5 16 -7
v 6.5 9 -7
v 6.5 16 -7
f -2/8/3 -3/8/3 -4/8/3
f -1/8/3 -3/8/3 -2/8/3
v 5.5 9 9
v 5.5 16 9
v 6.5 9 9
v 6.5 16 9
f -4/8/4 -3/8/4 -2/8/4
f -2/8/4 -3/8/4 -1/8/4
v -8.5 0 -8
v -8.5 18 -8
v 6.5 0 -8
v 6.5 18 -8
f -4/8/4 -3/8/4 -2/8/4
f -2/8/4 -3/8/4 -1/8/4
v -8.5 0 10
v 6.5 0 10
v -8.5 0 -8
v 6.5 0 -8
f -2/8/5 -3/8/5 -4/8/5
f -1/8/5 -3/8/5 -2/8/5
v 5.5 16 9
v 6.5 16 9
v 5.5 16 -7
v 6.5 16 -7
f -2/8/5 -3/8/5 -4/8/5
f -1/8/5 -3/8/5 -2/8/5
v 5.5 9 9
v 6.5 9 9
v 5.5 9 -7
v 6.5 9 -7
f -4/8/6 -3/8/6 -2/8/6
f -2/8/6 -3/8/6 -1/8/6
v -8.5 18 10
v 6.5 18 10
v -8.5 18 -8
v 6.5 18 -8
f -4/8/6 -3/8/6 -2/8/6
f -2/8/6 -3/8/6 -1/8/6
