# MagicaVoxel @ ephtracy

# material
mtllib cubeboy12.mtl
usemtl palette

# mesh name
g cubeboy12_mesh

# normals
vn -1 0 0
vn 1 0 0
vn 0 0 1
vn 0 0 -1
vn 0 -1 0
vn 0 1 0

# texcoords
vt 0.0175781 0.5
vt 0.470703 0.5
vt 0.474609 0.5
vt 0.537109 0.5
vt 0.806641 0.5
vt 0.955078 0.5
vt 0.958984 0.5
vt 0.990234 0.5
vt 0.994141 0.5

# verts
v -10 19 10
v -10 19 -10
v -10 22 10
v -10 22 -10
v -9 11 9
v -9 11 -9
v -9 17 9
v -9 17 -9
v -9 19 9
v -9 19 -9
v -9 22 8
v -9 22 -8
v -9 23 8
v -9 23 -8
v -8 0 8
v -8 0 -8
v -8 11 8
v -8 11 -8
v 2 7 9
v 2 7 8
v 2 7 -8
v 2 7 -9
v 2 13 9
v 2 13 8
v 2 13 -8
v 2 13 -9
v 2 22 10
v 2 22 8
v 2 22 -8
v 2 22 -10
v 2 23 10
v 2 23 8
v 2 23 -8
v 2 23 -10
v 3 23 10
v 3 23 -10
v 3 24 10
v 3 24 -10
v -5 11 9
v -5 11 8
v -5 13 9
v -5 13 8
v -4 11 -8
v -4 11 -9
v -4 13 -8
v -4 13 -9
v 3 13 9
v 3 13 8
v 3 13 -8
v 3 13 -9
v 3 15 9
v 3 15 8
v 3 15 -8
v 3 15 -9
v 4 15 9
v 4 15 8
v 4 15 -8
v 4 15 -9
v 4 17 9
v 4 17 8
v 4 17 -8
v 4 17 -9
v 5 0 8
v 5 0 -8
v 5 3 5
v 5 3 3
v 5 3 -3
v 5 3 -5
v 5 5 3
v 5 5 -3
v 5 7 9
v 5 7 8
v 5 7 5
v 5 7 4
v 5 7 -4
v 5 7 -5
v 5 7 -8
v 5 7 -9
v 5 8 8
v 5 8 4
v 5 8 -4
v 5 8 -8
v 5 10 7
v 5 10 2
v 5 10 -2
v 5 10 -7
v 5 12 8
v 5 12 7
v 5 12 2
v 5 12 -2
v 5 12 -7
v 5 12 -8
v 5 13 9
v 5 13 8
v 5 13 7
v 5 13 2
v 5 13 -2
v 5 13 -7
v 5 13 -8
v 5 13 -9
v 5 14 7
v 5 14 2
v 5 14 -2
v 5 14 -7
v 5 15 7
v 5 15 2
v 5 15 -2
v 5 15 -7
v 5 17 9
v 5 17 8
v 5 17 -6
v 5 17 -8
v 5 17 -9
v 5 18 9
v 5 18 8
v 5 18 -6
v 5 18 -8
v 5 18 -9
v 6 3 5
v 6 3 3
v 6 3 -3
v 6 3 -5
v 6 5 3
v 6 5 -3
v 6 6 3
v 6 6 -3
v 6 7 5
v 6 7 4
v 6 7 -4
v 6 7 -5
v 6 8 4
v 6 8 -4
v 6 10 7
v 6 10 2
v 6 10 -2
v 6 10 -7
v 6 12 8
v 6 12 7
v 6 12 2
v 6 12 -2
v 6 12 -7
v 6 12 -8
v 6 13 8
v 6 13 7
v 6 13 2
v 6 13 -2
v 6 13 -7
v 6 13 -8
v 6 14 7
v 6 14 2
v 6 14 -2
v 6 14 -7
v 6 15 7
v 6 15 2
v 6 15 -2
v 6 15 -7
v 6 17 8
v 6 17 -6
v 6 18 8
v 6 18 -6
v 6 19 10
v 6 19 9
v 6 19 -9
v 6 19 -10
v 6 20 1
v 6 20 -1
v 6 21 2
v 6 21 1
v 6 21 -1
v 6 21 -2
v 6 23 2
v 6 23 -2
v 6 24 10
v 6 24 -10
v 8 18 9
v 8 18 8
v 8 18 -8
v 8 18 -9
v 8 19 9
v 8 19 8
v 8 19 -8
v 8 19 -9
v 9 18 8
v 9 18 6
v 9 18 -6
v 9 18 -8
v 9 19 8
v 9 19 6
v 9 19 -6
v 9 19 -8
v 10 18 6
v 10 18 -6
v 10 19 6
v 10 19 -6
v -10 19 10
v -10 22 10
v 2 22 10
v 2 23 10
v 3 23 10
v 3 24 10
v 6 19 10
v 6 24 10
v -9 11 9
v -9 17 9
v -9 19 9
v -5 11 9
v -5 13 9
v 2 7 9
v 2 13 9
v 3 13 9
v 3 15 9
v 4 15 9
v 4 17 9
v 5 7 9
v 5 13 9
v 5 17 9
v 5 18 9
v 6 19 9
v 8 18 9
v 8 19 9
v -9 22 8
v -9 23 8
v -8 0 8
v -8 11 8
v -5 11 8
v -5 13 8
v 2 7 8
v 2 13 8
v 2 22 8
v 2 23 8
v 3 13 8
v 3 15 8
v 4 0 8
v 4 7 8
v 4 15 8
v 4 17 8
v 5 0 8
v 5 7 8
v 5 12 8
v 5 13 8
v 5 17 8
v 5 18 8
v 6 12 8
v 6 13 8
v 6 17 8
v 6 18 8
v 8 18 8
v 8 19 8
v 9 18 8
v 9 19 8
v 5 10 7
v 5 12 7
v 5 13 7
v 5 14 7
v 5 15 7
v 6 10 7
v 6 12 7
v 6 13 7
v 6 14 7
v 6 15 7
v 9 18 6
v 9 19 6
v 10 18 6
v 10 19 6
v 5 3 5
v 5 7 5
v 6 3 5
v 6 7 5
v 5 7 4
v 5 8 4
v 6 7 4
v 6 8 4
v 5 10 -2
v 5 12 -2
v 5 13 -2
v 5 14 -2
v 5 15 -2
v 6 10 -2
v 6 12 -2
v 6 13 -2
v 6 14 -2
v 6 15 -2
v 5 3 -3
v 5 5 -3
v 6 3 -3
v 6 5 -3
v 5 3 3
v 5 5 3
v 6 3 3
v 6 5 3
v 5 10 2
v 5 12 2
v 5 13 2
v 5 14 2
v 5 15 2
v 6 10 2
v 6 12 2
v 6 13 2
v 6 14 2
v 6 15 2
v 5 7 -4
v 5 8 -4
v 6 7 -4
v 6 8 -4
v 5 3 -5
v 5 7 -5
v 6 3 -5
v 6 7 -5
v 5 17 -6
v 5 18 -6
v 6 17 -6
v 6 18 -6
v 9 18 -6
v 9 19 -6
v 10 18 -6
v 10 19 -6
v 5 10 -7
v 5 12 -7
v 5 13 -7
v 5 14 -7
v 5 15 -7
v 6 10 -7
v 6 12 -7
v 6 13 -7
v 6 14 -7
v 6 15 -7
v -9 22 -8
v -9 23 -8
v -8 0 -8
v -8 11 -8
v -4 11 -8
v -4 13 -8
v 2 7 -8
v 2 13 -8
v 2 22 -8
v 2 23 -8
v 3 13 -8
v 3 15 -8
v 4 0 -8
v 4 7 -8
v 4 15 -8
v 4 17 -8
v 5 0 -8
v 5 7 -8
v 5 12 -8
v 5 13 -8
v 5 17 -8
v 6 12 -8
v 6 13 -8
v 8 18 -8
v 8 19 -8
v 9 18 -8
v 9 19 -8
v -9 11 -9
v -9 17 -9
v -9 19 -9
v -4 11 -9
v -4 13 -9
v 2 7 -9
v 2 13 -9
v 3 13 -9
v 3 15 -9
v 4 15 -9
v 4 17 -9
v 5 7 -9
v 5 13 -9
v 5 17 -9
v 5 18 -9
v 6 19 -9
v 8 18 -9
v 8 19 -9
v -10 19 -10
v -10 22 -10
v 2 22 -10
v 2 23 -10
v 3 23 -10
v 3 24 -10
v 6 19 -10
v 6 24 -10
v -8 0 8
v 4 0 8
v 5 0 8
v -8 0 -8
v 4 0 -8
v 5 0 -8
v 5 3 5
v 6 3 5
v 5 3 3
v 6 3 3
v 5 3 -3
v 6 3 -3
v 5 3 -5
v 6 3 -5
v 5 5 3
v 6 5 3
v 5 5 -3
v 6 5 -3
v 2 7 9
v 5 7 9
v 2 7 8
v 4 7 8
v 5 7 8
v 2 7 -8
v 4 7 -8
v 5 7 -8
v 2 7 -9
v 5 7 -9
v 5 10 7
v 6 10 7
v 5 10 2
v 6 10 2
v 5 10 -2
v 6 10 -2
v 5 10 -7
v 6 10 -7
v -9 11 9
v -5 11 9
v -8 11 8
v -5 11 8
v -8 11 -8
v -4 11 -8
v -9 11 -9
v -4 11 -9
v 5 12 8
v 6 12 8
v 5 12 7
v 6 12 7
v 5 12 2
v 6 12 2
v 5 12 -2
v 6 12 -2
v 5 12 -7
v 6 12 -7
v 5 12 -8
v 6 12 -8
v -5 13 9
v 2 13 9
v -5 13 8
v 2 13 8
v -4 13 -8
v 2 13 -8
v -4 13 -9
v 2 13 -9
v 3 15 9
v 4 15 9
v 3 15 8
v 4 15 8
v 3 15 -8
v 4 15 -8
v 3 15 -9
v 4 15 -9
v 4 17 9
v 5 17 9
v 4 17 8
v 5 17 8
v 6 17 8
v 5 17 -6
v 6 17 -6
v 4 17 -8
v 5 17 -8
v 4 17 -9
v 5 17 -9
v 5 18 9
v 8 18 9
v 5 18 8
v 6 18 8
v 8 18 8
v 9 18 8
v 9 18 6
v 10 18 6
v 5 18 -6
v 6 18 -6
v 9 18 -6
v 10 18 -6
v 5 18 -8
v 8 18 -8
v 9 18 -8
v 5 18 -9
v 8 18 -9
v -10 19 10
v 6 19 10
v -9 19 9
v 6 19 9
v -9 19 -9
v 6 19 -9
v -10 19 -10
v 6 19 -10
v 5 7 5
v 6 7 5
v 5 7 4
v 6 7 4
v 5 7 -4
v 6 7 -4
v 5 7 -5
v 6 7 -5
v 5 8 4
v 6 8 4
v 5 8 -4
v 6 8 -4
v 3 13 9
v 5 13 9
v 3 13 8
v 5 13 8
v 6 13 8
v 5 13 7
v 6 13 7
v 5 13 2
v 6 13 2
v 5 13 -2
v 6 13 -2
v 5 13 -7
v 6 13 -7
v 3 13 -8
v 5 13 -8
v 6 13 -8
v 3 13 -9
v 5 13 -9
v 5 15 7
v 6 15 7
v 5 15 2
v 6 15 2
v 5 15 -2
v 6 15 -2
v 5 15 -7
v 6 15 -7
v 6 19 9
v 8 19 9
v 8 19 8
v 9 19 8
v 9 19 6
v 10 19 6
v 9 19 -6
v 10 19 -6
v 8 19 -8
v 9 19 -8
v 6 19 -9
v 8 19 -9
v -10 22 10
v 2 22 10
v -9 22 8
v 2 22 8
v -9 22 -8
v 2 22 -8
v -10 22 -10
v 2 22 -10
v 2 23 10
v 3 23 10
v -9 23 8
v 2 23 8
v -9 23 -8
v 2 23 -8
v 2 23 -10
v 3 23 -10
v 3 24 10
v 6 24 10
v 3 24 -10
v 6 24 -10

# faces
f 3/5/1 2/5/1 1/5/1
f 4/5/1 2/5/1 3/5/1
f 7/4/1 6/4/1 5/4/1
f 8/4/1 6/4/1 7/4/1
f 9/8/1 8/8/1 7/8/1
f 10/8/1 8/8/1 9/8/1
f 13/5/1 12/5/1 11/5/1
f 14/5/1 12/5/1 13/5/1
f 17/2/1 16/2/1 15/2/1
f 18/2/1 16/2/1 17/2/1
f 23/4/1 20/4/1 19/4/1
f 24/4/1 20/4/1 23/4/1
f 25/4/1 22/4/1 21/4/1
f 26/4/1 22/4/1 25/4/1
f 31/5/1 28/5/1 27/5/1
f 32/5/1 28/5/1 31/5/1
f 33/5/1 30/5/1 29/5/1
f 34/5/1 30/5/1 33/5/1
f 37/5/1 36/5/1 35/5/1
f 38/5/1 36/5/1 37/5/1
f 39/4/2 40/4/2 41/4/2
f 41/4/2 40/4/2 42/4/2
f 43/4/2 44/4/2 45/4/2
f 45/4/2 44/4/2 46/4/2
f 47/4/2 48/4/2 51/4/2
f 51/4/2 48/4/2 52/4/2
f 49/4/2 50/4/2 53/4/2
f 53/4/2 50/4/2 54/4/2
f 55/4/2 56/4/2 59/4/2
f 59/4/2 56/4/2 60/4/2
f 57/4/2 58/4/2 61/4/2
f 61/4/2 58/4/2 62/4/2
f 63/3/2 64/3/2 65/3/2
f 65/3/2 64/3/2 66/3/2
f 66/3/2 64/3/2 67/3/2
f 67/3/2 64/3/2 68/3/2
f 66/3/2 67/3/2 69/3/2
f 69/3/2 67/3/2 70/3/2
f 63/3/2 65/3/2 72/3/2
f 72/3/2 65/3/2 73/3/2
f 68/3/2 64/3/2 76/3/2
f 76/3/2 64/3/2 77/3/2
f 73/3/2 74/3/2 79/3/2
f 72/3/2 73/3/2 79/3/2
f 71/4/2 72/4/2 79/4/2
f 79/3/2 74/3/2 80/3/2
f 76/3/2 77/3/2 81/3/2
f 75/3/2 76/3/2 81/3/2
f 77/4/2 78/4/2 82/4/2
f 81/3/2 77/3/2 82/3/2
f 80/2/2 81/2/2 83/2/2
f 79/2/2 80/2/2 83/2/2
f 81/2/2 82/2/2 83/2/2
f 83/2/2 82/2/2 84/2/2
f 84/2/2 82/2/2 85/2/2
f 85/2/2 82/2/2 86/2/2
f 71/4/2 79/4/2 87/4/2
f 79/2/2 83/2/2 87/2/2
f 87/2/2 83/2/2 88/2/2
f 84/2/2 85/2/2 89/2/2
f 89/2/2 85/2/2 90/2/2
f 86/2/2 82/2/2 91/2/2
f 82/4/2 78/4/2 92/4/2
f 91/2/2 82/2/2 92/2/2
f 71/4/2 87/4/2 93/4/2
f 93/4/2 87/4/2 94/4/2
f 92/4/2 78/4/2 99/4/2
f 99/4/2 78/4/2 100/4/2
f 94/2/2 95/2/2 101/2/2
f 96/2/2 97/2/2 102/2/2
f 102/2/2 97/2/2 103/2/2
f 98/2/2 99/2/2 104/2/2
f 94/2/2 101/2/2 105/2/2
f 102/2/2 103/2/2 106/2/2
f 106/2/2 103/2/2 107/2/2
f 104/2/2 99/2/2 108/2/2
f 106/2/2 107/2/2 110/2/2
f 107/2/2 108/2/2 110/2/2
f 94/2/2 105/2/2 110/2/2
f 105/2/2 106/2/2 110/2/2
f 110/2/2 108/2/2 111/2/2
f 108/2/2 99/2/2 112/2/2
f 111/2/2 108/2/2 112/2/2
f 109/8/2 110/8/2 114/8/2
f 114/8/2 110/8/2 115/8/2
f 111/4/2 112/4/2 116/4/2
f 112/8/2 113/8/2 117/8/2
f 116/4/2 112/4/2 117/4/2
f 117/8/2 113/8/2 118/8/2
f 119/4/2 120/4/2 123/4/2
f 121/4/2 122/4/2 124/4/2
f 119/4/2 123/4/2 125/4/2
f 123/8/2 124/8/2 125/8/2
f 124/4/2 122/4/2 126/4/2
f 125/8/2 124/8/2 126/8/2
f 119/4/2 125/4/2 127/4/2
f 125/4/2 126/4/2 127/4/2
f 127/4/2 126/4/2 128/4/2
f 126/4/2 122/4/2 129/4/2
f 128/4/2 126/4/2 129/4/2
f 129/4/2 122/4/2 130/4/2
f 128/4/2 129/4/2 131/4/2
f 131/4/2 129/4/2 132/4/2
f 133/6/2 134/6/2 138/6/2
f 138/6/2 134/6/2 139/6/2
f 135/6/2 136/6/2 140/6/2
f 140/6/2 136/6/2 141/6/2
f 138/6/2 139/6/2 143/6/2
f 141/6/2 142/6/2 143/6/2
f 140/6/2 141/6/2 143/6/2
f 139/6/2 140/6/2 143/6/2
f 137/6/2 138/6/2 143/6/2
f 143/6/2 142/6/2 144/6/2
f 144/6/2 142/6/2 145/6/2
f 145/6/2 142/6/2 146/6/2
f 146/6/2 142/6/2 147/6/2
f 147/6/2 142/6/2 148/6/2
f 144/6/2 145/6/2 149/6/2
f 149/6/2 145/6/2 150/6/2
f 146/6/2 147/6/2 151/6/2
f 151/6/2 147/6/2 152/6/2
f 149/4/2 150/4/2 153/4/2
f 153/4/2 150/4/2 154/4/2
f 151/4/2 152/4/2 155/4/2
f 155/4/2 152/4/2 156/4/2
f 157/4/2 158/4/2 159/4/2
f 159/4/2 158/4/2 160/4/2
f 161/5/2 162/5/2 165/5/2
f 163/5/2 164/5/2 165/5/2
f 162/5/2 163/5/2 165/5/2
f 165/5/2 164/5/2 166/5/2
f 161/5/2 165/5/2 167/5/2
f 165/1/2 166/1/2 168/1/2
f 167/5/2 165/5/2 168/5/2
f 166/5/2 164/5/2 169/5/2
f 168/1/2 166/1/2 169/1/2
f 169/5/2 164/5/2 170/5/2
f 167/1/2 168/1/2 171/1/2
f 161/5/2 167/5/2 171/5/2
f 169/1/2 170/1/2 171/1/2
f 168/1/2 169/1/2 171/1/2
f 170/5/2 164/5/2 172/5/2
f 171/1/2 170/1/2 172/1/2
f 161/5/2 171/5/2 173/5/2
f 171/5/2 172/5/2 173/5/2
f 172/5/2 164/5/2 174/5/2
f 173/5/2 172/5/2 174/5/2
f 175/8/2 176/8/2 179/8/2
f 179/8/2 176/8/2 180/8/2
f 177/8/2 178/8/2 181/8/2
f 181/8/2 178/8/2 182/8/2
f 183/8/2 184/8/2 187/8/2
f 187/8/2 184/8/2 188/8/2
f 185/8/2 186/8/2 189/8/2
f 189/8/2 186/8/2 190/8/2
f 191/8/2 192/8/2 193/8/2
f 193/8/2 192/8/2 194/8/2
f 197/5/3 196/5/3 195/5/3
f 199/5/3 198/5/3 197/5/3
f 201/5/3 197/5/3 195/5/3
f 201/5/3 200/5/3 199/5/3
f 201/5/3 199/5/3 197/5/3
f 202/5/3 200/5/3 201/5/3
f 206/4/3 204/4/3 203/4/3
f 207/4/3 204/4/3 206/4/3
f 209/4/3 204/4/3 207/4/3
f 210/4/3 204/4/3 209/4/3
f 210/4/3 209/4/3 208/4/3
f 211/4/3 204/4/3 210/4/3
f 212/4/3 204/4/3 211/4/3
f 213/8/3 205/8/3 204/8/3
f 213/4/3 204/4/3 212/4/3
f 214/4/3 210/4/3 208/4/3
f 215/4/3 210/4/3 214/4/3
f 216/8/3 205/8/3 213/8/3
f 217/8/3 205/8/3 216/8/3
f 218/8/3 205/8/3 217/8/3
f 219/8/3 218/8/3 217/8/3
f 220/8/3 218/8/3 219/8/3
f 225/2/3 224/2/3 223/2/3
f 227/2/3 225/2/3 223/2/3
f 227/2/3 226/2/3 225/2/3
f 228/2/3 226/2/3 227/2/3
f 229/5/3 222/5/3 221/5/3
f 230/5/3 222/5/3 229/5/3
f 233/2/3 227/2/3 223/2/3
f 234/2/3 227/2/3 233/2/3
f 235/2/3 232/2/3 231/2/3
f 237/3/3 234/3/3 233/3/3
f 238/3/3 234/3/3 237/3/3
f 240/2/3 236/2/3 235/2/3
f 240/2/3 235/2/3 231/2/3
f 241/2/3 236/2/3 240/2/3
f 243/6/3 240/6/3 239/6/3
f 244/6/3 240/6/3 243/6/3
f 245/4/3 242/4/3 241/4/3
f 246/4/3 242/4/3 245/4/3
f 249/8/3 248/8/3 247/8/3
f 250/8/3 248/8/3 249/8/3
f 256/6/3 252/6/3 251/6/3
f 257/6/3 252/6/3 256/6/3
f 258/6/3 254/6/3 253/6/3
f 259/4/3 255/4/3 254/4/3
f 259/6/3 254/6/3 258/6/3
f 260/4/3 255/4/3 259/4/3
f 263/8/3 262/8/3 261/8/3
f 264/8/3 262/8/3 263/8/3
f 267/4/3 266/4/3 265/4/3
f 268/4/3 266/4/3 267/4/3
f 271/4/3 270/4/3 269/4/3
f 272/4/3 270/4/3 271/4/3
f 278/6/3 274/6/3 273/6/3
f 279/6/3 274/6/3 278/6/3
f 280/6/3 276/6/3 275/6/3
f 281/4/3 277/4/3 276/4/3
f 281/6/3 276/6/3 280/6/3
f 282/4/3 277/4/3 281/4/3
f 285/4/3 284/4/3 283/4/3
f 286/4/3 284/4/3 285/4/3
f 287/4/4 288/4/4 289/4/4
f 289/4/4 288/4/4 290/4/4
f 291/6/4 292/6/4 296/6/4
f 296/6/4 292/6/4 297/6/4
f 293/6/4 294/6/4 298/6/4
f 294/4/4 295/4/4 299/4/4
f 298/6/4 294/6/4 299/6/4
f 299/4/4 295/4/4 300/4/4
f 301/4/4 302/4/4 303/4/4
f 303/4/4 302/4/4 304/4/4
f 305/4/4 306/4/4 307/4/4
f 307/4/4 306/4/4 308/4/4
f 309/4/4 310/4/4 311/4/4
f 311/4/4 310/4/4 312/4/4
f 313/8/4 314/8/4 315/8/4
f 315/8/4 314/8/4 316/8/4
f 317/6/4 318/6/4 322/6/4
f 322/6/4 318/6/4 323/6/4
f 319/6/4 320/6/4 324/6/4
f 320/4/4 321/4/4 325/4/4
f 324/6/4 320/6/4 325/6/4
f 325/4/4 321/4/4 326/4/4
f 329/2/4 330/2/4 331/2/4
f 329/2/4 331/2/4 333/2/4
f 331/2/4 332/2/4 333/2/4
f 333/2/4 332/2/4 334/2/4
f 327/5/4 328/5/4 335/5/4
f 335/5/4 328/5/4 336/5/4
f 329/2/4 333/2/4 339/2/4
f 339/2/4 333/2/4 340/2/4
f 337/2/4 338/2/4 341/2/4
f 339/3/4 340/3/4 343/3/4
f 343/3/4 340/3/4 344/3/4
f 341/2/4 342/2/4 346/2/4
f 337/2/4 341/2/4 346/2/4
f 346/2/4 342/2/4 347/2/4
f 345/6/4 346/6/4 348/6/4
f 348/6/4 346/6/4 349/6/4
f 350/8/4 351/8/4 352/8/4
f 352/8/4 351/8/4 353/8/4
f 354/4/4 355/4/4 357/4/4
f 357/4/4 355/4/4 358/4/4
f 358/4/4 355/4/4 360/4/4
f 360/4/4 355/4/4 361/4/4
f 359/4/4 360/4/4 361/4/4
f 361/4/4 355/4/4 362/4/4
f 362/4/4 355/4/4 363/4/4
f 355/8/4 356/8/4 364/8/4
f 363/4/4 355/4/4 364/4/4
f 359/4/4 361/4/4 365/4/4
f 365/4/4 361/4/4 366/4/4
f 364/8/4 356/8/4 367/8/4
f 367/8/4 356/8/4 368/8/4
f 368/8/4 356/8/4 369/8/4
f 368/8/4 369/8/4 370/8/4
f 370/8/4 369/8/4 371/8/4
f 372/5/4 373/5/4 374/5/4
f 374/5/4 375/5/4 376/5/4
f 372/5/4 374/5/4 378/5/4
f 376/5/4 377/5/4 378/5/4
f 374/5/4 376/5/4 378/5/4
f 378/5/4 377/5/4 379/5/4
f 383/2/5 381/2/5 380/2/5
f 384/3/5 382/3/5 381/3/5
f 384/2/5 381/2/5 383/2/5
f 385/3/5 382/3/5 384/3/5
f 388/4/5 387/4/5 386/4/5
f 389/4/5 387/4/5 388/4/5
f 392/4/5 391/4/5 390/4/5
f 393/4/5 391/4/5 392/4/5
f 396/8/5 395/8/5 394/8/5
f 397/8/5 395/8/5 396/8/5
f 400/4/5 399/4/5 398/4/5
f 401/4/5 399/4/5 400/4/5
f 402/4/5 399/4/5 401/4/5
f 406/4/5 404/4/5 403/4/5
f 406/4/5 405/4/5 404/4/5
f 407/4/5 405/4/5 406/4/5
f 410/6/5 409/6/5 408/6/5
f 411/6/5 409/6/5 410/6/5
f 414/6/5 413/6/5 412/6/5
f 415/6/5 413/6/5 414/6/5
f 418/4/5 417/4/5 416/4/5
f 419/4/5 417/4/5 418/4/5
f 420/4/5 418/4/5 416/4/5
f 422/4/5 420/4/5 416/4/5
f 422/4/5 421/4/5 420/4/5
f 423/4/5 421/4/5 422/4/5
f 426/6/5 425/6/5 424/6/5
f 427/6/5 425/6/5 426/6/5
f 430/6/5 429/6/5 428/6/5
f 431/6/5 429/6/5 430/6/5
f 434/6/5 433/6/5 432/6/5
f 435/6/5 433/6/5 434/6/5
f 438/4/5 437/4/5 436/4/5
f 439/4/5 437/4/5 438/4/5
f 442/4/5 441/4/5 440/4/5
f 443/4/5 441/4/5 442/4/5
f 446/4/5 445/4/5 444/4/5
f 447/4/5 445/4/5 446/4/5
f 450/4/5 449/4/5 448/4/5
f 451/4/5 449/4/5 450/4/5
f 454/8/5 453/8/5 452/8/5
f 455/8/5 453/8/5 454/8/5
f 457/4/5 456/4/5 455/4/5
f 458/4/5 456/4/5 457/4/5
f 461/8/5 460/8/5 459/8/5
f 462/8/5 460/8/5 461/8/5
f 465/8/5 464/8/5 463/8/5
f 466/8/5 464/8/5 465/8/5
f 467/8/5 464/8/5 466/8/5
f 469/8/5 468/8/5 467/8/5
f 469/8/5 467/8/5 466/8/5
f 472/8/5 469/8/5 466/8/5
f 472/8/5 470/8/5 469/8/5
f 473/8/5 470/8/5 472/8/5
f 474/8/5 470/8/5 473/8/5
f 475/8/5 472/8/5 471/8/5
f 475/8/5 473/8/5 472/8/5
f 476/8/5 473/8/5 475/8/5
f 477/8/5 473/8/5 476/8/5
f 478/8/5 476/8/5 475/8/5
f 479/8/5 476/8/5 478/8/5
f 482/5/5 481/5/5 480/5/5
f 483/5/5 481/5/5 482/5/5
f 484/5/5 482/5/5 480/5/5
f 486/5/5 484/5/5 480/5/5
f 486/5/5 485/5/5 484/5/5
f 487/5/5 485/5/5 486/5/5
f 488/4/6 489/4/6 490/4/6
f 490/4/6 489/4/6 491/4/6
f 492/4/6 493/4/6 494/4/6
f 494/4/6 493/4/6 495/4/6
f 496/4/6 497/4/6 498/4/6
f 498/4/6 497/4/6 499/4/6
f 500/4/6 501/4/6 502/4/6
f 502/4/6 501/4/6 503/4/6
f 503/6/6 504/6/6 505/6/6
f 505/6/6 504/6/6 506/6/6
f 507/6/6 508/6/6 509/6/6
f 509/6/6 508/6/6 510/6/6
f 511/6/6 512/6/6 514/6/6
f 514/6/6 512/6/6 515/6/6
f 513/4/6 514/4/6 516/4/6
f 516/4/6 514/4/6 517/4/6
f 518/4/6 519/4/6 520/4/6
f 520/4/6 519/4/6 521/4/6
f 522/4/6 523/4/6 524/4/6
f 524/4/6 523/4/6 525/4/6
f 526/8/6 527/8/6 528/8/6
f 528/8/6 529/8/6 530/8/6
f 528/8/6 530/8/6 532/8/6
f 530/8/6 531/8/6 532/8/6
f 532/8/6 531/8/6 533/8/6
f 526/8/6 528/8/6 534/8/6
f 528/8/6 532/8/6 534/8/6
f 534/8/6 532/8/6 535/8/6
f 526/8/6 534/8/6 536/8/6
f 536/8/6 534/8/6 537/8/6
f 538/5/6 539/5/6 540/5/6
f 540/5/6 539/5/6 541/5/6
f 538/5/6 540/5/6 542/5/6
f 538/5/6 542/5/6 544/5/6
f 542/5/6 543/5/6 544/5/6
f 544/5/6 543/5/6 545/5/6
f 546/5/6 547/5/6 549/5/6
f 548/5/6 549/5/6 550/5/6
f 549/5/6 547/5/6 551/5/6
f 550/5/6 549/5/6 551/5/6
f 551/5/6 547/5/6 552/5/6
f 552/5/6 547/5/6 553/5/6
f 554/5/6 555/5/6 556/5/6
f 556/5/6 555/5/6 557/5/6
