# MagicaVoxel @ ephtracy

# material
mtllib cubeboy17.mtl
usemtl palette

# mesh name
g cubeboy17_mesh

# normals
vn -1 0 0
vn 1 0 0
vn 0 0 1
vn 0 0 -1
vn 0 -1 0
vn 0 1 0

# texcoords
vt 0.0410156 0.5
vt 0.119141 0.5
vt 0.123047 0.5
vt 0.728516 0.5
vt 0.732422 0.5
vt 0.958984 0.5
vt 0.994141 0.5

# verts
v -9 10 8
v -9 10 -8
v -9 13 8
v -9 13 -8
v -8 8 8
v -8 8 -8
v -8 10 8
v -8 10 -8
v -8 13 8
v -8 13 -8
v -8 17 8
v -8 17 -8
v -7 0 8
v -7 0 -8
v -7 8 8
v -7 8 -8
v -7 9 9
v -7 9 8
v -7 9 -8
v -7 9 -9
v -7 10 10
v -7 10 9
v -7 10 8
v -7 10 -8
v -7 10 -9
v -7 10 -10
v -7 13 11
v -7 13 10
v -7 13 8
v -7 13 -8
v -7 13 -10
v -7 13 -11
v -7 17 11
v -7 17 9
v -7 17 8
v -7 17 -8
v -7 17 -10
v -7 17 -11
v -7 19 9
v -7 19 -10
v -6 19 8
v -6 19 -10
v -6 22 8
v -6 22 -10
v 2 2 10
v 2 2 8
v 2 2 -8
v 2 2 -10
v 2 10 10
v 2 10 8
v 2 10 -8
v 2 10 -10
v 3 12 11
v 3 12 10
v 3 13 11
v 3 13 10
v 8 13 -6
v 8 13 -9
v 8 14 -5
v 8 14 -6
v 8 15 -2
v 8 15 -5
v 8 16 -9
v 8 16 -10
v 8 17 -2
v 8 17 -10
v -3 9 9
v -3 9 8
v -3 9 -8
v -3 9 -9
v -3 10 9
v -3 10 8
v -3 10 -8
v -3 10 -9
v 3 10 10
v 3 10 9
v 3 10 -9
v 3 10 -10
v 3 12 10
v 3 12 9
v 3 13 -9
v 3 13 -10
v 5 2 10
v 5 2 8
v 5 2 -8
v 5 2 -10
v 5 5 4
v 5 5 -4
v 5 6 4
v 5 6 -4
v 5 9 8
v 5 9 -8
v 5 10 10
v 5 10 9
v 5 10 8
v 5 10 -8
v 5 10 -9
v 5 10 -10
v 5 12 11
v 5 12 9
v 5 13 -9
v 5 13 -11
v 5 14 9
v 5 14 8
v 5 14 -8
v 5 14 -9
v 5 15 11
v 5 15 9
v 5 15 -8
v 5 15 -9
v 5 17 -8
v 5 17 -10
v 5 17 -11
v 6 0 8
v 6 0 -8
v 6 4 4
v 6 4 -4
v 6 5 4
v 6 5 -4
v 6 6 4
v 6 6 -4
v 6 7 4
v 6 7 -4
v 6 8 4
v 6 8 -4
v 6 9 8
v 6 9 1
v 6 9 -1
v 6 9 -8
v 6 10 7
v 6 10 6
v 6 10 3
v 6 10 2
v 6 10 -2
v 6 10 -3
v 6 10 -6
v 6 10 -7
v 6 11 6
v 6 11 3
v 6 11 -3
v 6 11 -6
v 6 12 1
v 6 12 -1
v 6 13 4
v 6 13 3
v 6 13 -5
v 6 13 -6
v 6 14 7
v 6 14 6
v 6 14 4
v 6 14 3
v 6 14 2
v 6 14 -2
v 6 14 -3
v 6 14 -5
v 6 14 -6
v 6 14 -7
v 6 15 11
v 6 15 9
v 6 15 8
v 6 15 -8
v 6 17 11
v 6 17 9
v 6 17 8
v 6 17 4
v 6 17 -8
v 6 19 9
v 6 19 8
v 6 22 8
v 6 22 4
v 7 4 4
v 7 4 -4
v 7 5 4
v 7 5 -4
v 7 9 8
v 7 9 1
v 7 9 -1
v 7 9 -8
v 7 10 7
v 7 10 2
v 7 10 -2
v 7 10 -7
v 7 12 1
v 7 12 -1
v 7 14 9
v 7 14 8
v 7 14 7
v 7 14 2
v 7 14 -2
v 7 14 -7
v 7 14 -8
v 7 14 -9
v 7 15 9
v 7 15 -9
v 8 17 4
v 8 17 1
v 8 22 4
v 8 22 1
v 9 13 -6
v 9 13 -9
v 9 14 -5
v 9 14 -6
v 9 15 -2
v 9 15 -5
v 9 16 -9
v 9 16 -10
v 9 17 1
v 9 17 -2
v 9 22 1
v 9 22 -10
v -7 13 11
v -7 17 11
v 3 12 11
v 3 13 11
v 5 12 11
v 5 15 11
v 6 15 11
v 6 17 11
v -7 10 10
v -7 13 10
v 2 2 10
v 2 10 10
v 3 10 10
v 3 12 10
v 3 13 10
v 5 2 10
v 5 10 10
v -7 9 9
v -7 10 9
v -7 17 9
v -7 19 9
v -3 9 9
v -3 10 9
v 3 10 9
v 3 12 9
v 5 10 9
v 5 12 9
v 5 14 9
v 5 15 9
v 6 15 9
v 6 17 9
v 6 19 9
v 7 14 9
v 7 15 9
v -9 10 8
v -9 13 8
v -8 8 8
v -8 10 8
v -8 13 8
v -8 17 8
v -7 0 8
v -7 8 8
v -7 9 8
v -7 10 8
v -7 13 8
v -7 17 8
v -6 19 8
v -6 22 8
v -3 9 8
v -3 10 8
v 2 2 8
v 2 10 8
v 5 0 8
v 5 2 8
v 5 9 8
v 5 10 8
v 5 14 8
v 6 0 8
v 6 9 8
v 6 14 8
v 6 19 8
v 6 22 8
v 7 9 8
v 7 14 8
v 6 4 4
v 6 5 4
v 6 17 4
v 6 22 4
v 7 4 4
v 7 5 4
v 8 17 4
v 8 22 4
v 6 10 2
v 6 14 2
v 7 10 2
v 7 14 2
v 8 17 1
v 8 22 1
v 9 17 1
v 9 22 1
v 6 9 -1
v 6 12 -1
v 7 9 -1
v 7 12 -1
v 8 15 -2
v 8 17 -2
v 9 15 -2
v 9 17 -2
v 5 5 -4
v 5 6 -4
v 6 5 -4
v 6 6 -4
v 8 14 -5
v 8 15 -5
v 9 14 -5
v 9 15 -5
v 8 13 -6
v 8 14 -6
v 9 13 -6
v 9 14 -6
v 6 10 -7
v 6 14 -7
v 7 10 -7
v 7 14 -7
v 6 10 7
v 6 14 7
v 7 10 7
v 7 14 7
v 5 5 4
v 5 6 4
v 6 5 4
v 6 6 4
v 6 9 1
v 6 12 1
v 7 9 1
v 7 12 1
v 6 10 -2
v 6 14 -2
v 7 10 -2
v 7 14 -2
v 6 4 -4
v 6 5 -4
v 7 4 -4
v 7 5 -4
v -9 10 -8
v -9 13 -8
v -8 8 -8
v -8 10 -8
v -8 13 -8
v -8 17 -8
v -7 0 -8
v -7 8 -8
v -7 9 -8
v -7 10 -8
v -7 13 -8
v -7 17 -8
v -3 9 -8
v -3 10 -8
v 2 2 -8
v 2 10 -8
v 5 0 -8
v 5 2 -8
v 5 9 -8
v 5 10 -8
v 5 14 -8
v 5 15 -8
v 5 17 -8
v 6 0 -8
v 6 9 -8
v 6 14 -8
v 6 15 -8
v 6 17 -8
v 7 9 -8
v 7 14 -8
v -7 9 -9
v -7 10 -9
v -3 9 -9
v -3 10 -9
v 3 10 -9
v 3 13 -9
v 5 10 -9
v 5 13 -9
v 5 14 -9
v 5 15 -9
v 7 14 -9
v 7 15 -9
v 8 13 -9
v 8 16 -9
v 9 13 -9
v 9 16 -9
v -7 10 -10
v -7 13 -10
v -7 17 -10
v -7 19 -10
v -6 19 -10
v -6 22 -10
v 2 2 -10
v 2 10 -10
v 3 10 -10
v 3 13 -10
v 5 2 -10
v 5 10 -10
v 5 17 -10
v 8 16 -10
v 8 17 -10
v 9 16 -10
v 9 22 -10
v -7 13 -11
v -7 17 -11
v 5 13 -11
v 5 17 -11
v -7 0 8
v 5 0 8
v 6 0 8
v -7 0 -8
v 5 0 -8
v 6 0 -8
v 2 2 10
v 5 2 10
v 2 2 8
v 5 2 8
v 2 2 -8
v 5 2 -8
v 2 2 -10
v 5 2 -10
v 6 4 4
v 7 4 4
v 6 4 -4
v 7 4 -4
v 5 6 4
v 6 6 4
v 5 6 -4
v 6 6 -4
v -8 8 8
v -7 8 8
v -8 8 -8
v -7 8 -8
v -7 9 9
v -3 9 9
v -7 9 8
v -3 9 8
v 6 9 8
v 7 9 8
v 6 9 1
v 7 9 1
v 6 9 -1
v 7 9 -1
v -7 9 -8
v -3 9 -8
v 6 9 -8
v 7 9 -8
v -7 9 -9
v -3 9 -9
v -7 10 10
v 2 10 10
v -7 10 9
v -3 10 9
v -9 10 8
v -8 10 8
v -3 10 8
v 2 10 8
v -9 10 -8
v -8 10 -8
v -3 10 -8
v 2 10 -8
v -7 10 -9
v -3 10 -9
v -7 10 -10
v 2 10 -10
v 3 12 11
v 5 12 11
v 3 12 10
v 3 12 9
v 5 12 9
v 6 12 1
v 7 12 1
v 6 12 -1
v 7 12 -1
v -7 13 11
v 3 13 11
v -7 13 10
v 3 13 10
v 8 13 -6
v 9 13 -6
v 3 13 -9
v 5 13 -9
v 8 13 -9
v 9 13 -9
v -7 13 -10
v 3 13 -10
v -7 13 -11
v 5 13 -11
v 5 14 9
v 7 14 9
v 5 14 8
v 6 14 8
v 7 14 8
v 6 14 7
v 7 14 7
v 6 14 6
v 6 14 4
v 6 14 3
v 6 14 2
v 7 14 2
v 6 14 -2
v 7 14 -2
v 6 14 -3
v 6 14 -5
v 8 14 -5
v 9 14 -5
v 6 14 -6
v 8 14 -6
v 9 14 -6
v 6 14 -7
v 7 14 -7
v 5 14 -8
v 6 14 -8
v 7 14 -8
v 5 14 -9
v 7 14 -9
v 5 15 11
v 6 15 11
v 5 15 9
v 6 15 9
v 8 15 -2
v 9 15 -2
v 8 15 -5
v 9 15 -5
v 8 16 -9
v 9 16 -9
v 8 16 -10
v 9 16 -10
v 6 17 4
v 8 17 4
v 8 17 1
v 9 17 1
v 8 17 -2
v 9 17 -2
v 5 17 -8
v 6 17 -8
v 5 17 -10
v 8 17 -10
v 5 5 4
v 6 5 4
v 7 5 4
v 5 5 -4
v 6 5 -4
v 7 5 -4
v 3 10 10
v 5 10 10
v 3 10 9
v 5 10 9
v 6 10 7
v 7 10 7
v 6 10 6
v 6 10 3
v 6 10 2
v 7 10 2
v 6 10 -2
v 7 10 -2
v 6 10 -3
v 6 10 -6
v 6 10 -7
v 7 10 -7
v 3 10 -9
v 5 10 -9
v 3 10 -10
v 5 10 -10
v -9 13 8
v -8 13 8
v -9 13 -8
v -8 13 -8
v 6 15 9
v 7 15 9
v 6 15 8
v 5 15 -8
v 6 15 -8
v 5 15 -9
v 7 15 -9
v -7 17 11
v 6 17 11
v -7 17 9
v 6 17 9
v -8 17 8
v -7 17 8
v -8 17 -8
v -7 17 -8
v -7 17 -10
v 5 17 -10
v -7 17 -11
v 5 17 -11
v -7 19 9
v 6 19 9
v -6 19 8
v 6 19 8
v -7 19 -10
v -6 19 -10
v -6 22 8
v 6 22 8
v 6 22 4
v 8 22 4
v 8 22 1
v 9 22 1
v -6 22 -10
v 9 22 -10

# faces
f 3/3/1 2/3/1 1/3/1
f 4/3/1 2/3/1 3/3/1
f 7/1/1 6/1/1 5/1/1
f 8/1/1 6/1/1 7/1/1
f 11/1/1 10/1/1 9/1/1
f 12/1/1 10/1/1 11/1/1
f 15/4/1 14/4/1 13/4/1
f 16/4/1 14/4/1 15/4/1
f 22/1/1 18/1/1 17/1/1
f 23/1/1 18/1/1 22/1/1
f 24/1/1 20/1/1 19/1/1
f 25/1/1 20/1/1 24/1/1
f 28/3/1 23/3/1 22/3/1
f 28/3/1 22/3/1 21/3/1
f 29/3/1 23/3/1 28/3/1
f 30/3/1 26/3/1 25/3/1
f 30/3/1 25/3/1 24/3/1
f 31/3/1 26/3/1 30/3/1
f 33/1/1 29/1/1 28/1/1
f 33/1/1 28/1/1 27/1/1
f 34/1/1 29/1/1 33/1/1
f 35/1/1 29/1/1 34/1/1
f 36/1/1 32/1/1 31/1/1
f 36/1/1 31/1/1 30/1/1
f 37/1/1 32/1/1 36/1/1
f 38/1/1 32/1/1 37/1/1
f 39/1/1 35/1/1 34/1/1
f 39/1/1 37/1/1 36/1/1
f 39/1/1 36/1/1 35/1/1
f 40/1/1 37/1/1 39/1/1
f 43/1/1 42/1/1 41/1/1
f 44/1/1 42/1/1 43/1/1
f 49/3/1 46/3/1 45/3/1
f 50/3/1 46/3/1 49/3/1
f 51/3/1 48/3/1 47/3/1
f 52/3/1 48/3/1 51/3/1
f 55/1/1 54/1/1 53/1/1
f 56/1/1 54/1/1 55/1/1
f 60/1/1 58/1/1 57/1/1
f 62/1/1 60/1/1 59/1/1
f 63/1/1 58/1/1 60/1/1
f 63/1/1 62/1/1 61/1/1
f 63/1/1 60/1/1 62/1/1
f 65/1/1 63/1/1 61/1/1
f 65/1/1 64/1/1 63/1/1
f 66/1/1 64/1/1 65/1/1
f 67/1/2 68/1/2 71/1/2
f 71/1/2 68/1/2 72/1/2
f 69/1/2 70/1/2 73/1/2
f 73/1/2 70/1/2 74/1/2
f 75/3/2 76/3/2 79/3/2
f 79/3/2 76/3/2 80/3/2
f 77/3/2 78/3/2 81/3/2
f 81/3/2 78/3/2 82/3/2
f 87/7/2 88/7/2 89/7/2
f 89/7/2 88/7/2 90/7/2
f 83/3/2 84/3/2 91/3/2
f 85/3/2 86/3/2 92/3/2
f 83/3/2 91/3/2 93/3/2
f 93/3/2 91/3/2 94/3/2
f 94/3/2 91/3/2 95/3/2
f 92/3/2 86/3/2 96/3/2
f 96/3/2 86/3/2 97/3/2
f 97/3/2 86/3/2 98/3/2
f 94/1/2 95/1/2 100/1/2
f 96/1/2 97/1/2 101/1/2
f 99/1/2 100/1/2 103/1/2
f 100/1/2 95/1/2 103/1/2
f 103/1/2 95/1/2 104/1/2
f 101/1/2 102/1/2 105/1/2
f 96/1/2 101/1/2 105/1/2
f 105/1/2 102/1/2 106/1/2
f 99/1/2 103/1/2 107/1/2
f 107/1/2 103/1/2 108/1/2
f 106/1/2 102/1/2 110/1/2
f 109/1/2 110/1/2 111/1/2
f 110/1/2 102/1/2 112/1/2
f 111/1/2 110/1/2 112/1/2
f 112/1/2 102/1/2 113/1/2
f 114/5/2 115/5/2 116/5/2
f 116/5/2 115/5/2 117/5/2
f 114/5/2 116/5/2 118/5/2
f 117/5/2 115/5/2 119/5/2
f 114/5/2 118/5/2 120/5/2
f 119/5/2 115/5/2 121/5/2
f 114/5/2 120/5/2 122/5/2
f 120/6/2 121/6/2 122/6/2
f 121/5/2 115/5/2 123/5/2
f 122/6/2 121/6/2 123/6/2
f 114/5/2 122/5/2 124/5/2
f 122/2/2 123/2/2 124/2/2
f 123/5/2 115/5/2 125/5/2
f 124/2/2 123/2/2 125/2/2
f 114/5/2 124/5/2 126/5/2
f 124/5/2 125/5/2 126/5/2
f 126/5/2 125/5/2 127/5/2
f 127/5/2 125/5/2 128/5/2
f 125/5/2 115/5/2 129/5/2
f 128/5/2 125/5/2 129/5/2
f 130/4/2 131/4/2 138/4/2
f 131/3/2 132/3/2 138/3/2
f 132/4/2 133/4/2 139/4/2
f 138/3/2 132/3/2 139/3/2
f 135/3/2 136/3/2 140/3/2
f 134/4/2 135/4/2 140/4/2
f 136/4/2 137/4/2 141/4/2
f 140/3/2 136/3/2 141/3/2
f 127/4/2 128/4/2 142/4/2
f 142/4/2 128/4/2 143/4/2
f 138/7/2 139/7/2 144/7/2
f 139/4/2 133/4/2 145/4/2
f 144/7/2 139/7/2 145/7/2
f 140/7/2 141/7/2 146/7/2
f 141/4/2 137/4/2 147/4/2
f 146/7/2 141/7/2 147/7/2
f 130/4/2 138/4/2 148/4/2
f 138/7/2 144/7/2 149/7/2
f 148/4/2 138/4/2 149/4/2
f 144/6/2 145/6/2 150/6/2
f 149/7/2 144/7/2 150/7/2
f 145/4/2 133/4/2 151/4/2
f 150/6/2 145/6/2 151/6/2
f 151/4/2 133/4/2 152/4/2
f 134/4/2 140/4/2 153/4/2
f 140/7/2 146/7/2 154/7/2
f 153/4/2 140/4/2 154/4/2
f 146/6/2 147/6/2 155/6/2
f 154/7/2 146/7/2 155/7/2
f 147/4/2 137/4/2 156/4/2
f 155/6/2 147/6/2 156/6/2
f 156/4/2 137/4/2 157/4/2
f 159/1/2 160/1/2 162/1/2
f 158/1/2 159/1/2 162/1/2
f 162/1/2 160/1/2 163/1/2
f 160/4/2 161/4/2 164/4/2
f 163/1/2 160/1/2 164/1/2
f 164/4/2 161/4/2 165/4/2
f 165/4/2 161/4/2 166/4/2
f 163/1/2 164/1/2 167/1/2
f 164/1/2 165/1/2 167/1/2
f 167/1/2 165/1/2 168/1/2
f 168/1/2 165/1/2 169/1/2
f 169/1/2 165/1/2 170/1/2
f 171/2/2 172/2/2 173/2/2
f 173/2/2 172/2/2 174/2/2
f 175/6/2 176/6/2 179/6/2
f 179/6/2 176/6/2 180/6/2
f 177/6/2 178/6/2 181/6/2
f 181/6/2 178/6/2 182/6/2
f 180/6/2 176/6/2 183/6/2
f 177/6/2 181/6/2 184/6/2
f 175/6/2 179/6/2 186/6/2
f 186/6/2 179/6/2 187/6/2
f 183/6/2 184/6/2 188/6/2
f 180/6/2 183/6/2 188/6/2
f 184/6/2 181/6/2 189/6/2
f 188/6/2 184/6/2 189/6/2
f 182/6/2 178/6/2 190/6/2
f 190/6/2 178/6/2 191/6/2
f 188/6/2 189/6/2 193/6/2
f 191/6/2 192/6/2 193/6/2
f 190/6/2 191/6/2 193/6/2
f 189/6/2 190/6/2 193/6/2
f 186/6/2 187/6/2 193/6/2
f 185/6/2 186/6/2 193/6/2
f 187/6/2 188/6/2 193/6/2
f 193/6/2 192/6/2 194/6/2
f 195/1/2 196/1/2 197/1/2
f 197/1/2 196/1/2 198/1/2
f 199/1/2 200/1/2 202/1/2
f 201/1/2 202/1/2 204/1/2
f 202/1/2 200/1/2 205/1/2
f 203/1/2 204/1/2 205/1/2
f 204/1/2 202/1/2 205/1/2
f 203/1/2 205/1/2 208/1/2
f 205/1/2 206/1/2 208/1/2
f 207/1/2 208/1/2 209/1/2
f 208/1/2 206/1/2 210/1/2
f 209/1/2 208/1/2 210/1/2
f 214/1/3 212/1/3 211/1/3
f 215/1/3 214/1/3 213/1/3
f 216/1/3 212/1/3 214/1/3
f 216/1/3 214/1/3 215/1/3
f 217/1/3 212/1/3 216/1/3
f 218/1/3 212/1/3 217/1/3
f 222/3/3 220/3/3 219/3/3
f 223/3/3 220/3/3 222/3/3
f 223/3/3 222/3/3 221/3/3
f 224/3/3 220/3/3 223/3/3
f 225/3/3 220/3/3 224/3/3
f 226/3/3 223/3/3 221/3/3
f 227/3/3 223/3/3 226/3/3
f 232/1/3 229/1/3 228/1/3
f 233/1/3 229/1/3 232/1/3
f 236/1/3 235/1/3 234/1/3
f 237/1/3 235/1/3 236/1/3
f 240/6/3 239/6/3 238/6/3
f 241/1/3 231/1/3 230/1/3
f 242/1/3 231/1/3 241/1/3
f 243/6/3 240/6/3 238/6/3
f 244/6/3 240/6/3 243/6/3
f 248/3/3 246/3/3 245/3/3
f 249/3/3 246/3/3 248/3/3
f 252/1/3 248/1/3 247/1/3
f 253/1/3 248/1/3 252/1/3
f 254/3/3 249/3/3 248/3/3
f 254/1/3 248/1/3 253/1/3
f 255/1/3 250/1/3 249/1/3
f 255/3/3 249/3/3 254/3/3
f 256/1/3 250/1/3 255/1/3
f 259/4/3 252/4/3 251/4/3
f 259/4/3 253/4/3 252/4/3
f 261/4/3 259/4/3 251/4/3
f 261/4/3 260/4/3 259/4/3
f 262/4/3 260/4/3 261/4/3
f 263/4/3 261/4/3 251/4/3
f 264/4/3 261/4/3 263/4/3
f 268/5/3 264/5/3 263/5/3
f 268/5/3 265/5/3 264/5/3
f 269/4/3 266/4/3 265/4/3
f 269/5/3 265/5/3 268/5/3
f 269/4/3 267/4/3 266/4/3
f 270/4/3 267/4/3 269/4/3
f 271/1/3 258/1/3 257/1/3
f 272/1/3 258/1/3 271/1/3
f 273/6/3 270/6/3 269/6/3
f 274/6/3 270/6/3 273/6/3
f 279/2/3 276/2/3 275/2/3
f 280/2/3 276/2/3 279/2/3
f 281/1/3 278/1/3 277/1/3
f 282/1/3 278/1/3 281/1/3
f 285/6/3 284/6/3 283/6/3
f 286/6/3 284/6/3 285/6/3
f 289/1/3 288/1/3 287/1/3
f 290/1/3 288/1/3 289/1/3
f 293/6/3 292/6/3 291/6/3
f 294/6/3 292/6/3 293/6/3
f 297/1/3 296/1/3 295/1/3
f 298/1/3 296/1/3 297/1/3
f 301/5/3 300/5/3 299/5/3
f 302/5/3 300/5/3 301/5/3
f 305/1/3 304/1/3 303/1/3
f 306/1/3 304/1/3 305/1/3
f 309/1/3 308/1/3 307/1/3
f 310/1/3 308/1/3 309/1/3
f 313/6/3 312/6/3 311/6/3
f 314/6/3 312/6/3 313/6/3
f 315/6/4 316/6/4 317/6/4
f 317/6/4 316/6/4 318/6/4
f 319/5/4 320/5/4 321/5/4
f 321/5/4 320/5/4 322/5/4
f 323/6/4 324/6/4 325/6/4
f 325/6/4 324/6/4 326/6/4
f 327/6/4 328/6/4 329/6/4
f 329/6/4 328/6/4 330/6/4
f 331/2/4 332/2/4 333/2/4
f 333/2/4 332/2/4 334/2/4
f 335/3/4 336/3/4 338/3/4
f 338/3/4 336/3/4 339/3/4
f 337/1/4 338/1/4 342/1/4
f 342/1/4 338/1/4 343/1/4
f 338/3/4 339/3/4 344/3/4
f 343/1/4 338/1/4 344/1/4
f 339/1/4 340/1/4 345/1/4
f 344/3/4 339/3/4 345/3/4
f 345/1/4 340/1/4 346/1/4
f 342/4/4 343/4/4 347/4/4
f 341/4/4 342/4/4 347/4/4
f 341/4/4 347/4/4 349/4/4
f 347/4/4 348/4/4 349/4/4
f 349/4/4 348/4/4 350/4/4
f 341/4/4 349/4/4 351/4/4
f 351/4/4 349/4/4 352/4/4
f 351/5/4 352/5/4 358/5/4
f 352/5/4 353/5/4 358/5/4
f 353/4/4 354/4/4 359/4/4
f 358/5/4 353/5/4 359/5/4
f 354/4/4 355/4/4 359/4/4
f 359/4/4 355/4/4 360/4/4
f 356/4/4 357/4/4 361/4/4
f 361/4/4 357/4/4 362/4/4
f 359/6/4 360/6/4 363/6/4
f 363/6/4 360/6/4 364/6/4
f 365/1/4 366/1/4 367/1/4
f 367/1/4 366/1/4 368/1/4
f 369/1/4 370/1/4 371/1/4
f 371/1/4 370/1/4 372/1/4
f 373/6/4 374/6/4 375/6/4
f 375/6/4 374/6/4 376/6/4
f 377/1/4 378/1/4 379/1/4
f 379/1/4 378/1/4 380/1/4
f 383/1/4 384/1/4 385/1/4
f 381/3/4 382/3/4 388/3/4
f 388/3/4 382/3/4 389/3/4
f 387/3/4 388/3/4 389/3/4
f 389/3/4 382/3/4 390/3/4
f 387/3/4 389/3/4 391/3/4
f 391/3/4 389/3/4 392/3/4
f 385/1/4 386/1/4 393/1/4
f 383/1/4 385/1/4 393/1/4
f 393/1/4 386/1/4 395/1/4
f 394/1/4 395/1/4 396/1/4
f 395/1/4 386/1/4 397/1/4
f 396/1/4 395/1/4 397/1/4
f 398/1/4 399/1/4 400/1/4
f 400/1/4 399/1/4 401/1/4
f 405/4/5 403/4/5 402/4/5
f 406/5/5 404/5/5 403/5/5
f 406/4/5 403/4/5 405/4/5
f 407/5/5 404/5/5 406/5/5
f 410/3/5 409/3/5 408/3/5
f 411/3/5 409/3/5 410/3/5
f 414/3/5 413/3/5 412/3/5
f 415/3/5 413/3/5 414/3/5
f 418/2/5 417/2/5 416/2/5
f 419/2/5 417/2/5 418/2/5
f 422/6/5 421/6/5 420/6/5
f 423/6/5 421/6/5 422/6/5
f 426/1/5 425/1/5 424/1/5
f 427/1/5 425/1/5 426/1/5
f 430/1/5 429/1/5 428/1/5
f 431/1/5 429/1/5 430/1/5
f 434/6/5 433/6/5 432/6/5
f 435/6/5 433/6/5 434/6/5
f 440/6/5 437/6/5 436/6/5
f 441/6/5 437/6/5 440/6/5
f 442/1/5 439/1/5 438/1/5
f 443/1/5 439/1/5 442/1/5
f 446/3/5 445/3/5 444/3/5
f 447/3/5 445/3/5 446/3/5
f 450/3/5 445/3/5 447/3/5
f 451/3/5 445/3/5 450/3/5
f 452/3/5 449/3/5 448/3/5
f 453/3/5 449/3/5 452/3/5
f 457/3/5 455/3/5 454/3/5
f 458/3/5 457/3/5 456/3/5
f 459/3/5 455/3/5 457/3/5
f 459/3/5 457/3/5 458/3/5
f 462/1/5 461/1/5 460/1/5
f 463/1/5 461/1/5 462/1/5
f 464/1/5 461/1/5 463/1/5
f 467/6/5 466/6/5 465/6/5
f 468/6/5 466/6/5 467/6/5
f 471/1/5 470/1/5 469/1/5
f 472/1/5 470/1/5 471/1/5
f 477/1/5 474/1/5 473/1/5
f 478/1/5 474/1/5 477/1/5
f 480/1/5 476/1/5 475/1/5
f 481/1/5 480/1/5 479/1/5
f 482/1/5 476/1/5 480/1/5
f 482/1/5 480/1/5 481/1/5
f 485/6/5 484/6/5 483/6/5
f 486/6/5 484/6/5 485/6/5
f 487/6/5 484/6/5 486/6/5
f 490/6/5 489/6/5 488/6/5
f 491/6/5 489/6/5 490/6/5
f 492/6/5 489/6/5 491/6/5
f 493/6/5 489/6/5 492/6/5
f 494/6/5 489/6/5 493/6/5
f 497/6/5 496/6/5 495/6/5
f 498/6/5 496/6/5 497/6/5
f 501/6/5 496/6/5 498/6/5
f 502/1/5 500/1/5 499/1/5
f 503/1/5 500/1/5 502/1/5
f 504/6/5 496/6/5 501/6/5
f 505/6/5 496/6/5 504/6/5
f 509/6/5 507/6/5 506/6/5
f 509/6/5 508/6/5 507/6/5
f 510/6/5 508/6/5 509/6/5
f 513/1/5 512/1/5 511/1/5
f 514/1/5 512/1/5 513/1/5
f 517/1/5 516/1/5 515/1/5
f 518/1/5 516/1/5 517/1/5
f 521/1/5 520/1/5 519/1/5
f 522/1/5 520/1/5 521/1/5
f 525/1/5 524/1/5 523/1/5
f 527/1/5 525/1/5 523/1/5
f 527/1/5 526/1/5 525/1/5
f 528/1/5 526/1/5 527/1/5
f 530/1/5 527/1/5 523/1/5
f 531/1/5 530/1/5 529/1/5
f 532/1/5 527/1/5 530/1/5
f 532/1/5 530/1/5 531/1/5
f 533/7/6 534/7/6 536/7/6
f 534/2/6 535/2/6 537/2/6
f 536/7/6 534/7/6 537/7/6
f 537/2/6 535/2/6 538/2/6
f 539/3/6 540/3/6 541/3/6
f 541/3/6 540/3/6 542/3/6
f 543/6/6 544/6/6 545/6/6
f 545/6/6 544/6/6 546/6/6
f 546/6/6 544/6/6 547/6/6
f 547/6/6 544/6/6 548/6/6
f 549/6/6 550/6/6 551/6/6
f 551/6/6 550/6/6 552/6/6
f 552/6/6 550/6/6 553/6/6
f 553/6/6 550/6/6 554/6/6
f 555/3/6 556/3/6 557/3/6
f 557/3/6 556/3/6 558/3/6
f 559/3/6 560/3/6 561/3/6
f 561/3/6 560/3/6 562/3/6
f 563/6/6 564/6/6 565/6/6
f 565/6/6 564/6/6 567/6/6
f 566/6/6 567/6/6 568/6/6
f 567/6/6 564/6/6 569/6/6
f 568/6/6 567/6/6 569/6/6
f 570/1/6 571/1/6 572/1/6
f 572/1/6 571/1/6 573/1/6
f 574/1/6 575/1/6 576/1/6
f 576/1/6 575/1/6 577/1/6
f 578/1/6 579/1/6 580/1/6
f 580/1/6 579/1/6 581/1/6
f 582/1/6 583/1/6 584/1/6
f 584/1/6 583/1/6 585/1/6
f 582/1/6 584/1/6 586/1/6
f 586/1/6 584/1/6 587/1/6
f 588/1/6 589/1/6 590/1/6
f 590/1/6 591/1/6 592/1/6
f 588/1/6 590/1/6 594/1/6
f 592/1/6 593/1/6 594/1/6
f 590/1/6 592/1/6 594/1/6
f 594/1/6 593/1/6 595/1/6
