# MagicaVoxel @ ephtracy

# material
mtllib cubeboy5.mtl

# mesh name
g cubeboy4_mesh

# normals
vn -1 0 0
vn 1 0 0
vn 0 0 1
vn 0 0 -1
vn 0 -1 0
vn 0 1 0

# texcoords
vt 0.544922 0.5
vt 0.556641 0.5
vt 0.560547 0.5
vt 0.783203 0.5
vt 0.955078 0.5
vt 0.958984 0.5
vt 0.994141 0.5

# verts
v -8 0 9
v -8 0 -7
v -8 17 9
v -8 17 -7
f -2/1/1 -3/1/1 -4/1/1
f -1/1/1 -3/1/1 -2/1/1
v 1 11 10
v 1 11 9
v 1 11 -7
v 1 11 -8
v 1 13 10
v 1 13 9
v 1 13 -7
v 1 13 -8
f -4/5/1 -7/5/1 -8/5/1
f -3/5/1 -7/5/1 -4/5/1
f -2/5/1 -5/5/1 -6/5/1
f -1/5/1 -5/5/1 -2/5/1
v 5 0 9
v 5 0 -7
v 5 4 2
v 5 4 -0
v 5 5 4
v 5 5 2
v 5 5 -0
v 5 5 -2
v 5 6 4
v 5 6 -2
v 5 9 8
v 5 9 3
v 5 9 -1
v 5 9 -6
v 5 11 9
v 5 11 8
v 5 11 3
v 5 11 -1
v 5 11 -6
v 5 11 -7
v 5 13 9
v 5 13 8
v 5 13 3
v 5 13 -1
v 5 13 -6
v 5 13 -7
v 5 15 8
v 5 15 3
v 5 15 -1
v 5 15 -6
v 5 17 9
v 5 17 -7
f -32/1/2 -31/1/2 -30/1/2
f -30/1/2 -31/1/2 -29/1/2
f -32/1/2 -30/1/2 -28/1/2
f -28/1/2 -30/1/2 -27/1/2
f -29/1/2 -31/1/2 -26/1/2
f -26/1/2 -31/1/2 -25/1/2
f -32/1/2 -28/1/2 -24/1/2
f -25/1/2 -31/1/2 -23/1/2
f -32/1/2 -24/1/2 -22/1/2
f -24/1/2 -23/1/2 -22/1/2
f -22/1/2 -23/1/2 -21/1/2
f -21/1/2 -23/1/2 -20/1/2
f -23/1/2 -31/1/2 -19/1/2
f -20/1/2 -23/1/2 -19/1/2
f -32/1/2 -22/1/2 -18/1/2
f -18/1/2 -22/1/2 -17/1/2
f -21/1/2 -20/1/2 -16/1/2
f -16/1/2 -20/1/2 -15/1/2
f -19/1/2 -31/1/2 -14/1/2
f -14/1/2 -31/1/2 -13/1/2
f -12/1/2 -11/1/2 -6/1/2
f -10/1/2 -9/1/2 -5/1/2
f -5/1/2 -9/1/2 -4/1/2
f -8/1/2 -7/1/2 -3/1/2
f -5/1/2 -4/1/2 -2/1/2
f -4/1/2 -3/1/2 -2/1/2
f -12/1/2 -6/1/2 -2/1/2
f -6/1/2 -5/1/2 -2/1/2
f -3/1/2 -7/1/2 -1/1/2
f -2/1/2 -3/1/2 -1/1/2
v 6 4 2
v 6 4 -0
v 6 5 4
v 6 5 2
v 6 5 -0
v 6 5 -2
v 6 6 4
v 6 6 -2
v 6 9 8
v 6 9 3
v 6 9 -1
v 6 9 -6
v 6 10 7
v 6 10 4
v 6 10 -2
v 6 10 -5
v 6 11 10
v 6 11 8
v 6 11 3
v 6 11 -1
v 6 11 -6
v 6 11 -8
v 6 13 10
v 6 13 8
v 6 13 5
v 6 13 4
v 6 13 3
v 6 13 -1
v 6 13 -4
v 6 13 -5
v 6 13 -6
v 6 13 -8
v 6 14 7
v 6 14 5
v 6 14 4
v 6 14 -2
v 6 14 -4
v 6 14 -5
v 6 15 8
v 6 15 3
v 6 15 -1
v 6 15 -6
f -42/6/2 -41/6/2 -39/6/2
f -39/6/2 -41/6/2 -38/6/2
f -40/5/2 -39/5/2 -36/5/2
f -38/5/2 -37/5/2 -36/5/2
f -39/5/2 -38/5/2 -36/5/2
f -36/5/2 -37/5/2 -35/5/2
f -34/5/2 -33/5/2 -30/5/2
f -30/5/2 -33/5/2 -29/5/2
f -32/5/2 -31/5/2 -28/5/2
f -28/5/2 -31/5/2 -27/5/2
f -34/5/2 -30/5/2 -25/5/2
f -29/5/2 -33/5/2 -24/5/2
f -32/5/2 -28/5/2 -23/5/2
f -27/5/2 -31/5/2 -22/5/2
f -26/5/2 -25/5/2 -20/5/2
f -25/5/2 -30/5/2 -19/5/2
f -20/5/2 -25/5/2 -19/5/2
f -30/4/2 -29/4/2 -18/4/2
f -24/5/2 -23/5/2 -17/5/2
f -18/4/2 -29/4/2 -17/4/2
f -29/5/2 -24/5/2 -17/5/2
f -17/5/2 -23/5/2 -16/5/2
f -23/5/2 -28/5/2 -15/5/2
f -16/5/2 -23/5/2 -15/5/2
f -28/4/2 -27/4/2 -14/4/2
f -22/5/2 -21/5/2 -13/5/2
f -14/4/2 -27/4/2 -13/4/2
f -27/5/2 -22/5/2 -13/5/2
f -13/5/2 -21/5/2 -12/5/2
f -12/5/2 -21/5/2 -11/5/2
f -30/4/2 -18/4/2 -10/4/2
f -19/5/2 -30/5/2 -10/5/2
f -18/6/2 -17/6/2 -9/6/2
f -10/4/2 -18/4/2 -9/4/2
f -17/5/2 -16/5/2 -8/5/2
f -9/6/2 -17/6/2 -8/6/2
f -28/4/2 -14/4/2 -7/4/2
f -15/5/2 -28/5/2 -7/5/2
f -14/6/2 -13/6/2 -6/6/2
f -7/4/2 -14/4/2 -6/4/2
f -13/5/2 -12/5/2 -5/5/2
f -6/6/2 -13/6/2 -5/6/2
f -9/5/2 -8/5/2 -4/5/2
f -10/5/2 -9/5/2 -4/5/2
f -19/5/2 -10/5/2 -4/5/2
f -8/5/2 -16/5/2 -3/5/2
f -4/5/2 -8/5/2 -3/5/2
f -7/5/2 -6/5/2 -2/5/2
f -15/5/2 -7/5/2 -2/5/2
f -6/5/2 -5/5/2 -2/5/2
f -5/5/2 -12/5/2 -1/5/2
f -2/5/2 -5/5/2 -1/5/2
v 1 11 10
v 1 13 10
v 6 11 10
v 6 13 10
f -2/5/3 -3/5/3 -4/5/3
f -1/5/3 -3/5/3 -2/5/3
v -8 0 9
v -8 17 9
v 1 11 9
v 1 13 9
v 5 0 9
v 5 11 9
v 5 13 9
v 5 17 9
f -6/1/3 -7/1/3 -8/1/3
f -5/1/3 -7/1/3 -6/1/3
f -4/1/3 -6/1/3 -8/1/3
f -3/1/3 -6/1/3 -4/1/3
f -2/1/3 -7/1/3 -5/1/3
f -1/1/3 -7/1/3 -2/1/3
v 5 9 8
v 5 11 8
v 5 13 8
v 5 15 8
v 6 9 8
v 6 11 8
v 6 13 8
v 6 15 8
f -4/5/3 -7/5/3 -8/5/3
f -3/5/3 -7/5/3 -4/5/3
f -2/5/3 -5/5/3 -6/5/3
f -1/5/3 -5/5/3 -2/5/3
v 5 5 4
v 5 6 4
v 6 5 4
v 6 6 4
f -2/5/3 -3/5/3 -4/5/3
f -1/5/3 -3/5/3 -2/5/3
v 5 4 2
v 5 5 2
v 6 4 2
v 6 5 2
f -2/6/3 -3/6/3 -4/6/3
f -1/6/3 -3/6/3 -2/6/3
v 5 9 -1
v 5 11 -1
v 5 13 -1
v 5 15 -1
v 6 9 -1
v 6 11 -1
v 6 13 -1
v 6 15 -1
f -4/5/3 -7/5/3 -8/5/3
f -3/5/3 -7/5/3 -4/5/3
f -2/5/3 -5/5/3 -6/5/3
f -1/5/3 -5/5/3 -2/5/3
v 5 9 3
v 5 11 3
v 5 13 3
v 5 15 3
v 6 9 3
v 6 11 3
v 6 13 3
v 6 15 3
f -8/5/4 -7/5/4 -4/5/4
f -4/5/4 -7/5/4 -3/5/4
f -6/5/4 -5/5/4 -2/5/4
f -2/5/4 -5/5/4 -1/5/4
v 5 4 -0
v 5 5 -0
v 6 4 -0
v 6 5 -0
f -4/6/4 -3/6/4 -2/6/4
f -2/6/4 -3/6/4 -1/6/4
v 5 5 -2
v 5 6 -2
v 6 5 -2
v 6 6 -2
f -4/5/4 -3/5/4 -2/5/4
f -2/5/4 -3/5/4 -1/5/4
v 5 9 -6
v 5 11 -6
v 5 13 -6
v 5 15 -6
v 6 9 -6
v 6 11 -6
v 6 13 -6
v 6 15 -6
f -8/5/4 -7/5/4 -4/5/4
f -4/5/4 -7/5/4 -3/5/4
f -6/5/4 -5/5/4 -2/5/4
f -2/5/4 -5/5/4 -1/5/4
v -8 0 -7
v -8 17 -7
v 1 11 -7
v 1 13 -7
v 5 0 -7
v 5 11 -7
v 5 13 -7
v 5 17 -7
f -8/1/4 -7/1/4 -6/1/4
f -6/1/4 -7/1/4 -5/1/4
f -8/1/4 -6/1/4 -4/1/4
f -4/1/4 -6/1/4 -3/1/4
f -5/1/4 -7/1/4 -2/1/4
f -2/1/4 -7/1/4 -1/1/4
v 1 11 -8
v 1 13 -8
v 6 11 -8
v 6 13 -8
f -4/5/4 -3/5/4 -2/5/4
f -2/5/4 -3/5/4 -1/5/4
v -8 0 9
v 5 0 9
v -8 0 -7
v 5 0 -7
f -2/1/5 -3/1/5 -4/1/5
f -1/1/5 -3/1/5 -2/1/5
v 5 4 2
v 6 4 2
v 5 4 -0
v 6 4 -0
f -2/6/5 -3/6/5 -4/6/5
f -1/6/5 -3/6/5 -2/6/5
v 5 5 4
v 6 5 4
v 5 5 2
v 6 5 2
v 5 5 -0
v 6 5 -0
v 5 5 -2
v 6 5 -2
f -6/5/5 -7/5/5 -8/5/5
f -5/5/5 -7/5/5 -6/5/5
f -2/5/5 -3/5/5 -4/5/5
f -1/5/5 -3/5/5 -2/5/5
v 5 9 8
v 6 9 8
v 5 9 3
v 6 9 3
v 5 9 -1
v 6 9 -1
v 5 9 -6
v 6 9 -6
f -6/5/5 -7/5/5 -8/5/5
f -5/5/5 -7/5/5 -6/5/5
f -2/5/5 -3/5/5 -4/5/5
f -1/5/5 -3/5/5 -2/5/5
v 1 11 10
v 6 11 10
v 1 11 9
v 5 11 9
v 5 11 8
v 6 11 8
v 5 11 3
v 6 11 3
v 5 11 -1
v 6 11 -1
v 5 11 -6
v 6 11 -6
v 1 11 -7
v 5 11 -7
v 1 11 -8
v 6 11 -8
f -14/5/5 -15/5/5 -16/5/5
f -13/5/5 -15/5/5 -14/5/5
f -12/5/5 -15/5/5 -13/5/5
f -11/5/5 -15/5/5 -12/5/5
f -8/5/5 -9/5/5 -10/5/5
f -7/5/5 -9/5/5 -8/5/5
f -3/5/5 -5/5/5 -6/5/5
f -2/5/5 -3/5/5 -4/5/5
f -1/5/5 -5/5/5 -3/5/5
f -1/5/5 -3/5/5 -2/5/5
v 5 6 4
v 6 6 4
v 5 6 -2
v 6 6 -2
f -4/5/6 -3/5/6 -2/5/6
f -2/5/6 -3/5/6 -1/5/6
v 1 13 10
v 6 13 10
v 1 13 9
v 5 13 9
v 5 13 8
v 6 13 8
v 5 13 3
v 6 13 3
v 5 13 -1
v 6 13 -1
v 5 13 -6
v 6 13 -6
v 1 13 -7
v 5 13 -7
v 1 13 -8
v 6 13 -8
f -16/5/6 -15/5/6 -14/5/6
f -14/5/6 -15/5/6 -13/5/6
f -13/5/6 -15/5/6 -12/5/6
f -12/5/6 -15/5/6 -11/5/6
f -10/5/6 -9/5/6 -8/5/6
f -8/5/6 -9/5/6 -7/5/6
f -6/5/6 -5/5/6 -3/5/6
f -4/5/6 -3/5/6 -2/5/6
f -3/5/6 -5/5/6 -1/5/6
f -2/5/6 -3/5/6 -1/5/6
v 5 15 8
v 6 15 8
v 5 15 3
v 6 15 3
v 5 15 -1
v 6 15 -1
v 5 15 -6
v 6 15 -6
f -8/5/6 -7/5/6 -6/5/6
f -6/5/6 -7/5/6 -5/5/6
f -4/5/6 -3/5/6 -2/5/6
f -2/5/6 -3/5/6 -1/5/6
v -8 17 9
v 5 17 9
v -8 17 -7
v 5 17 -7
f -4/1/6 -3/1/6 -2/1/6
f -2/1/6 -3/1/6 -1/1/6
