# MagicaVoxel @ ephtracy

# material
mtllib cubeboy14.mtl

# mesh name
g cubeboy14_mesh

# normals
vn -1 0 0
vn 1 0 0
vn 0 0 1
vn 0 0 -1
vn 0 -1 0
vn 0 1 0

# texcoords
vt 0.0332031 0.5
vt 0.0722656 0.5
vt 0.751953 0.5
vt 0.841797 0.5
vt 0.958984 0.5
vt 0.962891 0.5
vt 0.970703 0.5
vt 0.982422 0.5
vt 0.986328 0.5
vt 0.990234 0.5

# verts
v -7.5 0 11
v -7.5 0 -9
v -7.5 17 11
v -7.5 17 -9
f -2/8/1 -3/8/1 -4/8/1
f -1/8/1 -3/8/1 -2/8/1
v -1.5 17 -1
v -1.5 17 -2
v -1.5 17 -4
v -1.5 17 -5
v -1.5 18 -0
v -1.5 18 -1
v -1.5 18 -2
v -1.5 18 -4
v -1.5 18 -5
v -1.5 18 -6
v -1.5 19 1
v -1.5 19 -0
v -1.5 19 -1
v -1.5 19 -5
v -1.5 19 -6
v -1.5 19 -7
v -1.5 20 2
v -1.5 20 1
v -1.5 20 -0
v -1.5 20 -6
v -1.5 20 -7
v -1.5 20 -8
v -1.5 21 2
v -1.5 21 1
v -1.5 21 -7
v -1.5 21 -8
f -21/8/1 -25/8/1 -26/8/1
f -20/8/1 -25/8/1 -21/8/1
f -19/8/1 -23/8/1 -24/8/1
f -18/8/1 -23/8/1 -19/8/1
f -15/8/1 -21/8/1 -22/8/1
f -14/8/1 -21/8/1 -15/8/1
f -13/8/1 -17/8/1 -18/8/1
f -12/8/1 -17/8/1 -13/8/1
f -9/8/1 -15/8/1 -16/8/1
f -8/8/1 -15/8/1 -9/8/1
f -7/8/1 -11/8/1 -12/8/1
f -6/8/1 -11/8/1 -7/8/1
f -4/8/1 -9/8/1 -10/8/1
f -3/8/1 -9/8/1 -4/8/1
f -2/8/1 -5/8/1 -6/8/1
f -1/8/1 -5/8/1 -2/8/1
v -0.5 17 -1
v -0.5 17 -2
v -0.5 17 -4
v -0.5 17 -5
v -0.5 18 -0
v -0.5 18 -1
v -0.5 18 -2
v -0.5 18 -4
v -0.5 18 -5
v -0.5 18 -6
v -0.5 19 1
v -0.5 19 -0
v -0.5 19 -1
v -0.5 19 -5
v -0.5 19 -6
v -0.5 19 -7
v -0.5 20 2
v -0.5 20 1
v -0.5 20 -0
v -0.5 20 -6
v -0.5 20 -7
v -0.5 20 -8
v -0.5 21 2
v -0.5 21 1
v -0.5 21 -7
v -0.5 21 -8
f -26/8/2 -25/8/2 -21/8/2
f -21/8/2 -25/8/2 -20/8/2
f -24/8/2 -23/8/2 -19/8/2
f -19/8/2 -23/8/2 -18/8/2
f -22/8/2 -21/8/2 -15/8/2
f -15/8/2 -21/8/2 -14/8/2
f -18/8/2 -17/8/2 -13/8/2
f -13/8/2 -17/8/2 -12/8/2
f -16/8/2 -15/8/2 -9/8/2
f -9/8/2 -15/8/2 -8/8/2
f -12/8/2 -11/8/2 -7/8/2
f -7/8/2 -11/8/2 -6/8/2
f -10/8/2 -9/8/2 -4/8/2
f -4/8/2 -9/8/2 -3/8/2
f -6/8/2 -5/8/2 -2/8/2
f -2/8/2 -5/8/2 -1/8/2
v 4.5 0 11
v 4.5 0 -9
v 4.5 1 9
v 4.5 1 -5
v 4.5 1 -7
v 4.5 1 -8
v 4.5 2 10
v 4.5 2 9
v 4.5 2 -5
v 4.5 2 -6
v 4.5 4 -7
v 4.5 4 -8
v 4.5 5 -7
v 4.5 5 -8
v 4.5 6 -7
v 4.5 6 -8
v 4.5 7 -7
v 4.5 7 -8
v 4.5 9 -7
v 4.5 9 -8
v 4.5 10 -7
v 4.5 10 -8
v 4.5 12 -7
v 4.5 12 -8
v 4.5 13 -7
v 4.5 13 -8
v 4.5 15 10
v 4.5 15 9
v 4.5 15 -5
v 4.5 15 -6
v 4.5 15 -7
v 4.5 15 -8
v 4.5 16 9
v 4.5 16 -5
v 4.5 17 11
v 4.5 17 -9
f -36/8/2 -35/8/2 -34/8/2
f -34/8/2 -35/8/2 -33/8/2
f -33/8/2 -35/8/2 -32/8/2
f -32/8/2 -35/8/2 -31/8/2
f -36/8/2 -34/8/2 -30/8/2
f -30/8/2 -34/8/2 -29/8/2
f -33/8/2 -32/8/2 -28/8/2
f -28/8/2 -32/8/2 -27/8/2
f -32/5/2 -31/5/2 -26/5/2
f -27/8/2 -32/8/2 -26/8/2
f -31/8/2 -35/8/2 -25/8/2
f -26/5/2 -31/5/2 -25/5/2
f -27/8/2 -26/8/2 -24/8/2
f -26/8/2 -25/8/2 -24/8/2
f -25/8/2 -35/8/2 -23/8/2
f -24/8/2 -25/8/2 -23/8/2
f -27/8/2 -24/8/2 -22/8/2
f -24/5/2 -23/5/2 -22/5/2
f -23/8/2 -35/8/2 -21/8/2
f -22/5/2 -23/5/2 -21/5/2
f -27/8/2 -22/8/2 -20/8/2
f -22/8/2 -21/8/2 -20/8/2
f -21/8/2 -35/8/2 -19/8/2
f -20/8/2 -21/8/2 -19/8/2
f -27/8/2 -20/8/2 -18/8/2
f -20/5/2 -19/5/2 -18/5/2
f -19/8/2 -35/8/2 -17/8/2
f -18/5/2 -19/5/2 -17/5/2
f -27/8/2 -18/8/2 -16/8/2
f -18/8/2 -17/8/2 -16/8/2
f -17/8/2 -35/8/2 -15/8/2
f -16/8/2 -17/8/2 -15/8/2
f -27/8/2 -16/8/2 -14/8/2
f -16/5/2 -15/5/2 -14/5/2
f -15/8/2 -35/8/2 -13/8/2
f -14/5/2 -15/5/2 -13/5/2
f -27/8/2 -14/8/2 -12/8/2
f -14/8/2 -13/8/2 -12/8/2
f -13/8/2 -35/8/2 -11/8/2
f -12/8/2 -13/8/2 -11/8/2
f -36/8/2 -30/8/2 -10/8/2
f -27/8/2 -12/8/2 -7/8/2
f -12/5/2 -11/5/2 -6/5/2
f -7/8/2 -12/8/2 -6/8/2
f -11/8/2 -35/8/2 -5/8/2
f -6/5/2 -11/5/2 -5/5/2
f -10/8/2 -9/8/2 -4/8/2
f -7/8/2 -6/8/2 -3/8/2
f -8/8/2 -7/8/2 -3/8/2
f -6/8/2 -5/8/2 -3/8/2
f -10/8/2 -4/8/2 -2/8/2
f -4/8/2 -3/8/2 -2/8/2
f -36/8/2 -10/8/2 -2/8/2
f -5/8/2 -35/8/2 -1/8/2
f -2/8/2 -3/8/2 -1/8/2
f -3/8/2 -5/8/2 -1/8/2
v 5.5 1 9
v 5.5 1 -5
v 5.5 2 10
v 5.5 2 9
v 5.5 2 8
v 5.5 2 -4
v 5.5 2 -5
v 5.5 2 -6
v 5.5 3 9
v 5.5 3 8
v 5.5 3 -4
v 5.5 3 -5
v 5.5 4 4
v 5.5 4 -0
v 5.5 5 5
v 5.5 5 4
v 5.5 5 -0
v 5.5 5 -1
v 5.5 6 5
v 5.5 6 4
v 5.5 6 -0
v 5.5 6 -1
v 5.5 7 4
v 5.5 7 -0
v 5.5 8 7
v 5.5 8 4
v 5.5 8 -0
v 5.5 8 -3
v 5.5 9 7
v 5.5 9 4
v 5.5 9 -0
v 5.5 9 -3
v 5.5 10 7
v 5.5 10 4
v 5.5 10 -0
v 5.5 10 -3
v 5.5 12 5
v 5.5 12 4
v 5.5 12 -2
v 5.5 12 -3
v 5.5 13 7
v 5.5 13 5
v 5.5 13 4
v 5.5 13 -0
v 5.5 13 -2
v 5.5 13 -3
v 5.5 14 9
v 5.5 14 8
v 5.5 14 7
v 5.5 14 4
v 5.5 14 -0
v 5.5 14 -3
v 5.5 14 -4
v 5.5 14 -5
v 5.5 15 10
v 5.5 15 9
v 5.5 15 8
v 5.5 15 -4
v 5.5 15 -5
v 5.5 15 -6
v 5.5 16 9
v 5.5 16 -5
f -62/9/2 -61/9/2 -59/9/2
f -59/9/2 -61/9/2 -58/9/2
f -58/9/2 -61/9/2 -57/9/2
f -57/9/2 -61/9/2 -56/9/2
f -60/9/2 -59/9/2 -54/9/2
f -59/9/2 -58/9/2 -54/9/2
f -58/1/2 -57/1/2 -53/1/2
f -54/9/2 -58/9/2 -53/9/2
f -56/9/2 -55/9/2 -52/9/2
f -53/1/2 -57/1/2 -52/1/2
f -57/9/2 -56/9/2 -52/9/2
f -52/9/2 -55/9/2 -51/9/2
f -54/1/2 -53/1/2 -50/1/2
f -53/1/2 -52/1/2 -50/1/2
f -52/1/2 -51/1/2 -50/1/2
f -50/1/2 -51/1/2 -49/1/2
f -54/1/2 -50/1/2 -48/1/2
f -50/4/2 -49/4/2 -47/4/2
f -48/1/2 -50/1/2 -47/1/2
f -49/1/2 -51/1/2 -46/1/2
f -47/4/2 -49/4/2 -46/4/2
f -46/1/2 -51/1/2 -45/1/2
f -48/4/2 -47/4/2 -44/4/2
f -54/1/2 -48/1/2 -44/1/2
f -47/5/2 -46/5/2 -43/5/2
f -44/4/2 -47/4/2 -43/4/2
f -46/4/2 -45/4/2 -42/4/2
f -43/5/2 -46/5/2 -42/5/2
f -45/1/2 -51/1/2 -41/1/2
f -42/4/2 -45/4/2 -41/4/2
f -43/4/2 -42/4/2 -40/4/2
f -44/1/2 -43/1/2 -40/1/2
f -42/1/2 -41/1/2 -39/1/2
f -40/4/2 -42/4/2 -39/4/2
f -44/1/2 -40/1/2 -38/1/2
f -54/1/2 -44/1/2 -38/1/2
f -40/1/2 -39/1/2 -38/1/2
f -38/1/2 -39/1/2 -37/1/2
f -39/1/2 -41/1/2 -36/1/2
f -37/1/2 -39/1/2 -36/1/2
f -41/1/2 -51/1/2 -35/1/2
f -36/1/2 -41/1/2 -35/1/2
f -38/2/2 -37/2/2 -34/2/2
f -54/1/2 -38/1/2 -34/1/2
f -37/1/2 -36/1/2 -33/1/2
f -34/2/2 -37/2/2 -33/2/2
f -36/2/2 -35/2/2 -32/2/2
f -33/1/2 -36/1/2 -32/1/2
f -35/1/2 -51/1/2 -31/1/2
f -32/2/2 -35/2/2 -31/2/2
f -54/1/2 -34/1/2 -30/1/2
f -33/1/2 -32/1/2 -30/1/2
f -32/1/2 -31/1/2 -30/1/2
f -34/1/2 -33/1/2 -30/1/2
f -30/1/2 -31/1/2 -29/1/2
f -29/1/2 -31/1/2 -28/1/2
f -31/1/2 -51/1/2 -27/1/2
f -28/1/2 -31/1/2 -27/1/2
f -30/10/2 -29/10/2 -26/10/2
f -29/1/2 -28/1/2 -25/1/2
f -26/10/2 -29/10/2 -25/10/2
f -28/10/2 -27/10/2 -24/10/2
f -27/1/2 -51/1/2 -23/1/2
f -24/10/2 -27/10/2 -23/10/2
f -30/10/2 -26/10/2 -22/10/2
f -54/1/2 -30/1/2 -22/1/2
f -26/6/2 -25/6/2 -21/6/2
f -22/10/2 -26/10/2 -21/10/2
f -25/1/2 -28/1/2 -20/1/2
f -21/6/2 -25/6/2 -20/6/2
f -28/10/2 -24/10/2 -19/10/2
f -20/1/2 -28/1/2 -19/1/2
f -24/6/2 -23/6/2 -18/6/2
f -19/10/2 -24/10/2 -18/10/2
f -23/1/2 -51/1/2 -17/1/2
f -18/6/2 -23/6/2 -17/6/2
f -60/9/2 -54/9/2 -16/9/2
f -54/1/2 -22/1/2 -16/1/2
f -16/1/2 -22/1/2 -15/1/2
f -21/3/2 -20/3/2 -14/3/2
f -15/1/2 -22/1/2 -14/1/2
f -22/3/2 -21/3/2 -14/3/2
f -20/1/2 -19/1/2 -13/1/2
f -14/3/2 -20/3/2 -13/3/2
f -19/3/2 -18/3/2 -12/3/2
f -13/1/2 -19/1/2 -12/1/2
f -18/3/2 -17/3/2 -12/3/2
f -17/1/2 -51/1/2 -11/1/2
f -12/3/2 -17/3/2 -11/3/2
f -11/1/2 -51/1/2 -10/1/2
f -51/9/2 -55/9/2 -9/9/2
f -10/1/2 -51/1/2 -9/1/2
f -16/9/2 -15/9/2 -8/9/2
f -60/9/2 -16/9/2 -8/9/2
f -8/9/2 -15/9/2 -7/9/2
f -11/1/2 -10/1/2 -6/1/2
f -7/9/2 -15/9/2 -6/9/2
f -13/1/2 -12/1/2 -6/1/2
f -14/1/2 -13/1/2 -6/1/2
f -12/1/2 -11/1/2 -6/1/2
f -15/1/2 -14/1/2 -6/1/2
f -10/9/2 -9/9/2 -5/9/2
f -6/1/2 -10/1/2 -5/1/2
f -9/9/2 -55/9/2 -4/9/2
f -5/9/2 -9/9/2 -4/9/2
f -4/9/2 -55/9/2 -3/9/2
f -7/9/2 -6/9/2 -2/9/2
f -5/9/2 -4/9/2 -2/9/2
f -6/9/2 -5/9/2 -2/9/2
f -2/9/2 -4/9/2 -1/9/2
v -7.5 0 11
v -7.5 17 11
v 4.5 0 11
v 4.5 17 11
f -2/8/3 -3/8/3 -4/8/3
f -1/8/3 -3/8/3 -2/8/3
v 4.5 2 10
v 4.5 15 10
v 5.5 2 10
v 5.5 15 10
f -2/9/3 -3/9/3 -4/9/3
f -1/9/3 -3/9/3 -2/9/3
v 4.5 1 9
v 4.5 2 9
v 4.5 15 9
v 4.5 16 9
v 5.5 1 9
v 5.5 2 9
v 5.5 15 9
v 5.5 16 9
f -4/9/3 -7/9/3 -8/9/3
f -3/9/3 -7/9/3 -4/9/3
f -2/9/3 -5/9/3 -6/9/3
f -1/9/3 -5/9/3 -2/9/3
v -1.5 20 2
v -1.5 21 2
v -0.5 20 2
v -0.5 21 2
f -2/8/3 -3/8/3 -4/8/3
f -1/8/3 -3/8/3 -2/8/3
v -1.5 19 1
v -1.5 20 1
v -0.5 19 1
v -0.5 20 1
f -2/8/3 -3/8/3 -4/8/3
f -1/8/3 -3/8/3 -2/8/3
v -1.5 18 -0
v -1.5 19 -0
v -0.5 18 -0
v -0.5 19 -0
f -2/8/3 -3/8/3 -4/8/3
f -1/8/3 -3/8/3 -2/8/3
v -1.5 17 -1
v -1.5 18 -1
v -0.5 17 -1
v -0.5 18 -1
f -2/8/3 -3/8/3 -4/8/3
f -1/8/3 -3/8/3 -2/8/3
v -1.5 17 -4
v -1.5 18 -4
v -0.5 17 -4
v -0.5 18 -4
f -2/8/3 -3/8/3 -4/8/3
f -1/8/3 -3/8/3 -2/8/3
v -1.5 18 -5
v -1.5 19 -5
v -0.5 18 -5
v -0.5 19 -5
f -2/8/3 -3/8/3 -4/8/3
f -1/8/3 -3/8/3 -2/8/3
v -1.5 19 -6
v -1.5 20 -6
v -0.5 19 -6
v -0.5 20 -6
f -2/8/3 -3/8/3 -4/8/3
f -1/8/3 -3/8/3 -2/8/3
v -1.5 20 -7
v -1.5 21 -7
v -0.5 20 -7
v -0.5 21 -7
f -2/8/3 -3/8/3 -4/8/3
f -1/8/3 -3/8/3 -2/8/3
v -1.5 20 1
v -1.5 21 1
v -0.5 20 1
v -0.5 21 1
f -4/8/4 -3/8/4 -2/8/4
f -2/8/4 -3/8/4 -1/8/4
v -1.5 19 -0
v -1.5 20 -0
v -0.5 19 -0
v -0.5 20 -0
f -4/8/4 -3/8/4 -2/8/4
f -2/8/4 -3/8/4 -1/8/4
v -1.5 18 -1
v -1.5 19 -1
v -0.5 18 -1
v -0.5 19 -1
f -4/8/4 -3/8/4 -2/8/4
f -2/8/4 -3/8/4 -1/8/4
v -1.5 17 -2
v -1.5 18 -2
v -0.5 17 -2
v -0.5 18 -2
f -4/8/4 -3/8/4 -2/8/4
f -2/8/4 -3/8/4 -1/8/4
v -1.5 17 -5
v -1.5 18 -5
v -0.5 17 -5
v -0.5 18 -5
v 4.5 1 -5
v 4.5 2 -5
v 4.5 15 -5
v 4.5 16 -5
v 5.5 1 -5
v 5.5 2 -5
v 5.5 15 -5
v 5.5 16 -5
f -12/8/4 -11/8/4 -10/8/4
f -10/8/4 -11/8/4 -9/8/4
f -8/9/4 -7/9/4 -4/9/4
f -4/9/4 -7/9/4 -3/9/4
f -6/9/4 -5/9/4 -2/9/4
f -2/9/4 -5/9/4 -1/9/4
v -1.5 18 -6
v -1.5 19 -6
v -0.5 18 -6
v -0.5 19 -6
v 4.5 2 -6
v 4.5 15 -6
v 5.5 2 -6
v 5.5 15 -6
f -8/8/4 -7/8/4 -6/8/4
f -6/8/4 -7/8/4 -5/8/4
f -4/9/4 -3/9/4 -2/9/4
f -2/9/4 -3/9/4 -1/9/4
v -1.5 19 -7
v -1.5 20 -7
v -0.5 19 -7
v -0.5 20 -7
f -4/8/4 -3/8/4 -2/8/4
f -2/8/4 -3/8/4 -1/8/4
v -1.5 20 -8
v -1.5 21 -8
v -0.5 20 -8
v -0.5 21 -8
f -4/8/4 -3/8/4 -2/8/4
f -2/8/4 -3/8/4 -1/8/4
v -7.5 0 -9
v -7.5 17 -9
v 4.5 0 -9
v 4.5 17 -9
f -4/8/4 -3/8/4 -2/8/4
f -2/8/4 -3/8/4 -1/8/4
v -7.5 0 11
v 4.5 0 11
v -7.5 0 -9
v 4.5 0 -9
f -2/8/5 -3/8/5 -4/8/5
f -1/8/5 -3/8/5 -2/8/5
v 4.5 1 9
v 5.5 1 9
v 4.5 1 -5
v 5.5 1 -5
f -2/9/5 -3/9/5 -4/9/5
f -1/9/5 -3/9/5 -2/9/5
v 4.5 2 10
v 5.5 2 10
v 4.5 2 9
v 5.5 2 9
v 4.5 2 -5
v 5.5 2 -5
v 4.5 2 -6
v 5.5 2 -6
f -6/9/5 -7/9/5 -8/9/5
f -5/9/5 -7/9/5 -6/9/5
f -2/9/5 -3/9/5 -4/9/5
f -1/9/5 -3/9/5 -2/9/5
v -1.5 18 -0
v -0.5 18 -0
v -1.5 18 -1
v -0.5 18 -1
v -1.5 18 -5
v -0.5 18 -5
v -1.5 18 -6
v -0.5 18 -6
f -6/8/5 -7/8/5 -8/8/5
f -5/8/5 -7/8/5 -6/8/5
f -2/8/5 -3/8/5 -4/8/5
f -1/8/5 -3/8/5 -2/8/5
v -1.5 19 1
v -0.5 19 1
v -1.5 19 -0
v -0.5 19 -0
v -1.5 19 -6
v -0.5 19 -6
v -1.5 19 -7
v -0.5 19 -7
f -6/8/5 -7/8/5 -8/8/5
f -5/8/5 -7/8/5 -6/8/5
f -2/8/5 -3/8/5 -4/8/5
f -1/8/5 -3/8/5 -2/8/5
v -1.5 20 2
v -0.5 20 2
v -1.5 20 1
v -0.5 20 1
v -1.5 20 -7
v -0.5 20 -7
v -1.5 20 -8
v -0.5 20 -8
f -6/8/5 -7/8/5 -8/8/5
f -5/8/5 -7/8/5 -6/8/5
f -2/8/5 -3/8/5 -4/8/5
f -1/8/5 -3/8/5 -2/8/5
v 4.5 15 10
v 5.5 15 10
v 4.5 15 9
v 5.5 15 9
v 4.5 15 -5
v 5.5 15 -5
v 4.5 15 -6
v 5.5 15 -6
f -8/9/6 -7/9/6 -6/9/6
f -6/9/6 -7/9/6 -5/9/6
f -4/9/6 -3/9/6 -2/9/6
f -2/9/6 -3/9/6 -1/9/6
v 4.5 16 9
v 5.5 16 9
v 4.5 16 -5
v 5.5 16 -5
f -4/9/6 -3/9/6 -2/9/6
f -2/9/6 -3/9/6 -1/9/6
v -7.5 17 11
v 4.5 17 11
v -1.5 17 -1
v -0.5 17 -1
v -1.5 17 -2
v -0.5 17 -2
v -1.5 17 -4
v -0.5 17 -4
v -1.5 17 -5
v -0.5 17 -5
v -7.5 17 -9
v 4.5 17 -9
f -12/8/6 -11/8/6 -10/8/6
f -10/8/6 -11/8/6 -9/8/6
f -12/8/6 -10/8/6 -8/8/6
f -9/8/6 -11/8/6 -7/8/6
f -12/8/6 -8/8/6 -6/8/6
f -8/8/6 -7/8/6 -6/8/6
f -7/8/6 -11/8/6 -5/8/6
f -6/8/6 -7/8/6 -5/8/6
f -12/8/6 -6/8/6 -4/8/6
f -5/8/6 -11/8/6 -3/8/6
f -12/8/6 -4/8/6 -2/8/6
f -4/8/6 -3/8/6 -2/8/6
f -3/8/6 -11/8/6 -1/8/6
f -2/8/6 -3/8/6 -1/8/6
v -1.5 18 -1
v -0.5 18 -1
v -1.5 18 -2
v -0.5 18 -2
v -1.5 18 -4
v -0.5 18 -4
v -1.5 18 -5
v -0.5 18 -5
f -8/8/6 -7/8/6 -6/8/6
f -6/8/6 -7/8/6 -5/8/6
f -4/8/6 -3/8/6 -2/8/6
f -2/8/6 -3/8/6 -1/8/6
v -1.5 19 -0
v -0.5 19 -0
v -1.5 19 -1
v -0.5 19 -1
v -1.5 19 -5
v -0.5 19 -5
v -1.5 19 -6
v -0.5 19 -6
f -8/8/6 -7/8/6 -6/8/6
f -6/8/6 -7/8/6 -5/8/6
f -4/8/6 -3/8/6 -2/8/6
f -2/8/6 -3/8/6 -1/8/6
v -1.5 20 1
v -0.5 20 1
v -1.5 20 -0
v -0.5 20 -0
v -1.5 20 -6
v -0.5 20 -6
v -1.5 20 -7
v -0.5 20 -7
f -8/8/6 -7/8/6 -6/8/6
f -6/8/6 -7/8/6 -5/8/6
f -4/8/6 -3/8/6 -2/8/6
f -2/8/6 -3/8/6 -1/8/6
v -1.5 21 2
v -0.5 21 2
v -1.5 21 1
v -0.5 21 1
v -1.5 21 -7
v -0.5 21 -7
v -1.5 21 -8
v -0.5 21 -8
f -8/8/6 -7/8/6 -6/8/6
f -6/8/6 -7/8/6 -5/8/6
f -4/8/6 -3/8/6 -2/8/6
f -2/8/6 -3/8/6 -1/8/6
