# MagicaVoxel @ ephtracy

# material
mtllib cubeboy28.mtl

# mesh name
g cubeboy28_mesh

# normals
vn -1 0 0
vn 1 0 0
vn 0 0 1
vn 0 0 -1
vn 0 -1 0
vn 0 1 0

# texcoords
vt 0.115234 0.5
vt 0.962891 0.5
vt 0.990234 0.5

# verts
v -4 0 9
v -4 0 -7
v -4 1 8
v -4 1 -6
v -4 4 -0
v -4 4 -2
v -4 5 1
v -4 5 -0
v -4 6 3
v -4 6 1
v -4 7 4
v -4 7 3
v -4 9 4
v -4 9 3
v -4 10 3
v -4 10 1
v -4 11 1
v -4 11 -0
v -4 12 -0
v -4 12 -2
v -4 16 8
v -4 16 -6
v -4 17 9
v -4 17 -7
f -22/3/1 -23/3/1 -24/3/1
f -21/3/1 -23/3/1 -22/3/1
f -17/2/1 -19/2/1 -20/2/1
f -15/2/1 -17/2/1 -18/2/1
f -13/2/1 -15/2/1 -16/2/1
f -12/2/1 -13/2/1 -14/2/1
f -11/2/1 -15/2/1 -13/2/1
f -11/2/1 -13/2/1 -12/2/1
f -10/2/1 -15/2/1 -11/2/1
f -9/2/1 -17/2/1 -15/2/1
f -9/2/1 -15/2/1 -10/2/1
f -8/2/1 -17/2/1 -9/2/1
f -7/2/1 -19/2/1 -17/2/1
f -7/2/1 -17/2/1 -8/2/1
f -6/2/1 -19/2/1 -7/2/1
f -5/2/1 -19/2/1 -6/2/1
f -4/3/1 -22/3/1 -24/3/1
f -3/3/1 -23/3/1 -21/3/1
f -2/3/1 -4/3/1 -24/3/1
f -2/3/1 -3/3/1 -4/3/1
f -1/3/1 -23/3/1 -3/3/1
f -1/3/1 -3/3/1 -2/3/1
v -3 1 8
v -3 1 -6
v -3 4 -0
v -3 4 -2
v -3 5 1
v -3 5 -0
v -3 6 3
v -3 6 1
v -3 7 4
v -3 7 3
v -3 9 4
v -3 9 3
v -3 10 3
v -3 10 1
v -3 11 1
v -3 11 -0
v -3 12 -0
v -3 12 -2
v -3 16 8
v -3 16 -6
f -18/1/1 -19/1/1 -20/1/1
f -17/1/1 -19/1/1 -18/1/1
f -16/1/1 -18/1/1 -20/1/1
f -15/1/1 -18/1/1 -16/1/1
f -14/1/1 -16/1/1 -20/1/1
f -13/1/1 -16/1/1 -14/1/1
f -12/1/1 -14/1/1 -20/1/1
f -11/1/1 -14/1/1 -12/1/1
f -10/1/1 -12/1/1 -20/1/1
f -8/1/1 -9/1/1 -10/1/1
f -6/1/1 -7/1/1 -8/1/1
f -4/1/1 -5/1/1 -6/1/1
f -3/1/1 -19/1/1 -17/1/1
f -2/1/1 -4/1/1 -6/1/1
f -2/1/1 -3/1/1 -4/1/1
f -2/1/1 -10/1/1 -20/1/1
f -2/1/1 -6/1/1 -8/1/1
f -2/1/1 -8/1/1 -10/1/1
f -1/1/1 -19/1/1 -3/1/1
f -1/1/1 -3/1/1 -2/1/1
v 1 1 8
v 1 1 -6
v 1 4 4
v 1 4 2
v 1 5 2
v 1 5 1
v 1 6 1
v 1 6 -1
v 1 7 -1
v 1 7 -2
v 1 9 -1
v 1 9 -2
v 1 10 1
v 1 10 -1
v 1 11 2
v 1 11 1
v 1 12 4
v 1 12 2
v 1 16 8
v 1 16 -6
f -20/1/2 -19/1/2 -18/1/2
f -18/1/2 -19/1/2 -17/1/2
f -17/1/2 -19/1/2 -16/1/2
f -16/1/2 -19/1/2 -15/1/2
f -15/1/2 -19/1/2 -14/1/2
f -14/1/2 -19/1/2 -13/1/2
f -13/1/2 -19/1/2 -12/1/2
f -12/1/2 -19/1/2 -11/1/2
f -11/1/2 -19/1/2 -9/1/2
f -10/1/2 -9/1/2 -7/1/2
f -8/1/2 -7/1/2 -5/1/2
f -20/1/2 -18/1/2 -4/1/2
f -6/1/2 -5/1/2 -3/1/2
f -20/1/2 -4/1/2 -2/1/2
f -4/1/2 -3/1/2 -2/1/2
f -3/1/2 -5/1/2 -1/1/2
f -2/1/2 -3/1/2 -1/1/2
f -9/1/2 -19/1/2 -1/1/2
f -7/1/2 -9/1/2 -1/1/2
f -5/1/2 -7/1/2 -1/1/2
v 2 0 9
v 2 0 -7
v 2 1 8
v 2 1 -6
v 2 4 4
v 2 4 2
v 2 5 2
v 2 5 1
v 2 6 1
v 2 6 -1
v 2 7 -1
v 2 7 -2
v 2 9 -1
v 2 9 -2
v 2 10 1
v 2 10 -1
v 2 11 2
v 2 11 1
v 2 12 4
v 2 12 2
v 2 16 8
v 2 16 -6
v 2 17 9
v 2 17 -7
f -24/3/2 -23/3/2 -22/3/2
f -22/3/2 -23/3/2 -21/3/2
f -20/2/2 -19/2/2 -18/2/2
f -18/2/2 -17/2/2 -16/2/2
f -16/2/2 -15/2/2 -14/2/2
f -16/2/2 -14/2/2 -12/2/2
f -14/2/2 -13/2/2 -12/2/2
f -12/2/2 -13/2/2 -11/2/2
f -18/2/2 -16/2/2 -10/2/2
f -16/2/2 -12/2/2 -10/2/2
f -10/2/2 -12/2/2 -9/2/2
f -20/2/2 -18/2/2 -8/2/2
f -18/2/2 -10/2/2 -8/2/2
f -8/2/2 -10/2/2 -7/2/2
f -20/2/2 -8/2/2 -6/2/2
f -6/2/2 -8/2/2 -5/2/2
f -24/3/2 -22/3/2 -4/3/2
f -21/3/2 -23/3/2 -3/3/2
f -24/3/2 -4/3/2 -2/3/2
f -4/3/2 -3/3/2 -2/3/2
f -3/3/2 -23/3/2 -1/3/2
f -2/3/2 -3/3/2 -1/3/2
v -4 0 9
v -4 17 9
v 2 0 9
v 2 17 9
f -2/3/3 -3/3/3 -4/3/3
f -1/3/3 -3/3/3 -2/3/3
v -4 7 4
v -4 9 4
v -3 7 4
v -3 9 4
v 1 4 4
v 1 12 4
v 2 4 4
v 2 12 4
f -6/2/3 -7/2/3 -8/2/3
f -5/2/3 -7/2/3 -6/2/3
f -2/2/3 -3/2/3 -4/2/3
f -1/2/3 -3/2/3 -2/2/3
v -4 6 3
v -4 7 3
v -4 9 3
v -4 10 3
v -3 6 3
v -3 7 3
v -3 9 3
v -3 10 3
f -4/2/3 -7/2/3 -8/2/3
f -3/2/3 -7/2/3 -4/2/3
f -2/2/3 -5/2/3 -6/2/3
f -1/2/3 -5/2/3 -2/2/3
v -4 5 1
v -4 6 1
v -4 10 1
v -4 11 1
v -3 5 1
v -3 6 1
v -3 10 1
v -3 11 1
f -4/2/3 -7/2/3 -8/2/3
f -3/2/3 -7/2/3 -4/2/3
f -2/2/3 -5/2/3 -6/2/3
f -1/2/3 -5/2/3 -2/2/3
v -4 4 -0
v -4 5 -0
v -4 11 -0
v -4 12 -0
v -3 4 -0
v -3 5 -0
v -3 11 -0
v -3 12 -0
f -4/2/3 -7/2/3 -8/2/3
f -3/2/3 -7/2/3 -4/2/3
f -2/2/3 -5/2/3 -6/2/3
f -1/2/3 -5/2/3 -2/2/3
v -4 1 -6
v -4 16 -6
v -3 1 -6
v -3 16 -6
v 1 1 -6
v 1 16 -6
v 2 1 -6
v 2 16 -6
f -6/3/3 -7/3/3 -8/3/3
f -5/3/3 -7/3/3 -6/3/3
f -2/3/3 -3/3/3 -4/3/3
f -1/3/3 -3/3/3 -2/3/3
v -4 1 8
v -4 16 8
v -3 1 8
v -3 16 8
v 1 1 8
v 1 16 8
v 2 1 8
v 2 16 8
f -8/3/4 -7/3/4 -6/3/4
f -6/3/4 -7/3/4 -5/3/4
f -4/3/4 -3/3/4 -2/3/4
f -2/3/4 -3/3/4 -1/3/4
v 1 4 2
v 1 5 2
v 1 11 2
v 1 12 2
v 2 4 2
v 2 5 2
v 2 11 2
v 2 12 2
f -8/2/4 -7/2/4 -4/2/4
f -4/2/4 -7/2/4 -3/2/4
f -6/2/4 -5/2/4 -2/2/4
f -2/2/4 -5/2/4 -1/2/4
v 1 5 1
v 1 6 1
v 1 10 1
v 1 11 1
v 2 5 1
v 2 6 1
v 2 10 1
v 2 11 1
f -8/2/4 -7/2/4 -4/2/4
f -4/2/4 -7/2/4 -3/2/4
f -6/2/4 -5/2/4 -2/2/4
f -2/2/4 -5/2/4 -1/2/4
v 1 6 -1
v 1 7 -1
v 1 9 -1
v 1 10 -1
v 2 6 -1
v 2 7 -1
v 2 9 -1
v 2 10 -1
f -8/2/4 -7/2/4 -4/2/4
f -4/2/4 -7/2/4 -3/2/4
f -6/2/4 -5/2/4 -2/2/4
f -2/2/4 -5/2/4 -1/2/4
v -4 4 -2
v -4 12 -2
v -3 4 -2
v -3 12 -2
v 1 7 -2
v 1 9 -2
v 2 7 -2
v 2 9 -2
f -8/2/4 -7/2/4 -6/2/4
f -6/2/4 -7/2/4 -5/2/4
f -4/2/4 -3/2/4 -2/2/4
f -2/2/4 -3/2/4 -1/2/4
v -4 0 -7
v -4 17 -7
v 2 0 -7
v 2 17 -7
f -4/3/4 -3/3/4 -2/3/4
f -2/3/4 -3/3/4 -1/3/4
v -4 0 9
v 2 0 9
v -4 0 -7
v 2 0 -7
f -2/3/5 -3/3/5 -4/3/5
f -1/3/5 -3/3/5 -2/3/5
v 1 4 4
v 2 4 4
v 1 4 2
v 2 4 2
v -4 4 -0
v -3 4 -0
v -4 4 -2
v -3 4 -2
f -6/2/5 -7/2/5 -8/2/5
f -5/2/5 -7/2/5 -6/2/5
f -2/2/5 -3/2/5 -4/2/5
f -1/2/5 -3/2/5 -2/2/5
v 1 5 2
v 2 5 2
v -4 5 1
v -3 5 1
v 1 5 1
v 2 5 1
v -4 5 -0
v -3 5 -0
f -4/2/5 -7/2/5 -8/2/5
f -3/2/5 -7/2/5 -4/2/5
f -2/2/5 -5/2/5 -6/2/5
f -1/2/5 -5/2/5 -2/2/5
v -4 6 3
v -3 6 3
v -4 6 1
v -3 6 1
v 1 6 1
v 2 6 1
v 1 6 -1
v 2 6 -1
f -6/2/5 -7/2/5 -8/2/5
f -5/2/5 -7/2/5 -6/2/5
f -2/2/5 -3/2/5 -4/2/5
f -1/2/5 -3/2/5 -2/2/5
v -4 7 4
v -3 7 4
v -4 7 3
v -3 7 3
v 1 7 -1
v 2 7 -1
v 1 7 -2
v 2 7 -2
f -6/2/5 -7/2/5 -8/2/5
f -5/2/5 -7/2/5 -6/2/5
f -2/2/5 -3/2/5 -4/2/5
f -1/2/5 -3/2/5 -2/2/5
v -4 16 8
v -3 16 8
v 1 16 8
v 2 16 8
v -4 16 -6
v -3 16 -6
v 1 16 -6
v 2 16 -6
f -4/3/5 -7/3/5 -8/3/5
f -3/3/5 -7/3/5 -4/3/5
f -2/3/5 -5/3/5 -6/3/5
f -1/3/5 -5/3/5 -2/3/5
v -4 1 8
v -3 1 8
v 1 1 8
v 2 1 8
v -4 1 -6
v -3 1 -6
v 1 1 -6
v 2 1 -6
f -8/3/6 -7/3/6 -4/3/6
f -4/3/6 -7/3/6 -3/3/6
f -6/3/6 -5/3/6 -2/3/6
f -2/3/6 -5/3/6 -1/3/6
v -4 9 4
v -3 9 4
v -4 9 3
v -3 9 3
v 1 9 -1
v 2 9 -1
v 1 9 -2
v 2 9 -2
f -8/2/6 -7/2/6 -6/2/6
f -6/2/6 -7/2/6 -5/2/6
f -4/2/6 -3/2/6 -2/2/6
f -2/2/6 -3/2/6 -1/2/6
v -4 10 3
v -3 10 3
v -4 10 1
v -3 10 1
v 1 10 1
v 2 10 1
v 1 10 -1
v 2 10 -1
f -8/2/6 -7/2/6 -6/2/6
f -6/2/6 -7/2/6 -5/2/6
f -4/2/6 -3/2/6 -2/2/6
f -2/2/6 -3/2/6 -1/2/6
v 1 11 2
v 2 11 2
v -4 11 1
v -3 11 1
v 1 11 1
v 2 11 1
v -4 11 -0
v -3 11 -0
f -8/2/6 -7/2/6 -4/2/6
f -4/2/6 -7/2/6 -3/2/6
f -6/2/6 -5/2/6 -2/2/6
f -2/2/6 -5/2/6 -1/2/6
v 1 12 4
v 2 12 4
v 1 12 2
v 2 12 2
v -4 12 -0
v -3 12 -0
v -4 12 -2
v -3 12 -2
f -8/2/6 -7/2/6 -6/2/6
f -6/2/6 -7/2/6 -5/2/6
f -4/2/6 -3/2/6 -2/2/6
f -2/2/6 -3/2/6 -1/2/6
v -4 17 9
v 2 17 9
v -4 17 -7
v 2 17 -7
f -4/3/6 -3/3/6 -2/3/6
f -2/3/6 -3/3/6 -1/3/6
