# MagicaVoxel @ ephtracy

# material
mtllib cubeboy9.mtl

# mesh name
g cubeboy9_mesh

# normals
vn -1 0 0
vn 1 0 0
vn 0 0 1
vn 0 0 -1
vn 0 -1 0
vn 0 1 0

# texcoords
vt 0.0605469 0.5
vt 0.841797 0.5
vt 0.958984 0.5
vt 0.962891 0.5
vt 0.994141 0.5

# verts
v -9 0 9
v -9 0 3
v -9 0 -1
v -9 0 -7
v -9 1 9
v -9 1 3
v -9 1 -1
v -9 1 -7
v -9 2 9
v -9 2 2
v -9 2 -0
v -9 2 -7
v -9 4 9
v -9 4 2
v -9 4 -0
v -9 4 -7
v -9 13 1
v -9 13 -0
v -9 18 1
v -9 18 -0
f -16/1/1 -19/1/1 -20/1/1
f -15/2/1 -18/2/1 -19/2/1
f -15/1/1 -19/1/1 -16/1/1
f -14/1/1 -17/1/1 -18/1/1
f -14/2/1 -18/2/1 -15/2/1
f -13/1/1 -17/1/1 -14/1/1
f -12/2/1 -15/2/1 -16/2/1
f -12/2/1 -14/2/1 -15/2/1
f -12/2/1 -13/2/1 -14/2/1
f -11/2/1 -13/2/1 -12/2/1
f -10/2/1 -13/2/1 -11/2/1
f -9/2/1 -13/2/1 -10/2/1
f -8/1/1 -11/1/1 -12/1/1
f -7/1/1 -11/1/1 -8/1/1
f -6/1/1 -9/1/1 -10/1/1
f -5/1/1 -9/1/1 -6/1/1
f -2/5/1 -3/5/1 -4/5/1
f -1/5/1 -3/5/1 -2/5/1
v -8 2 2
v -8 2 -0
v -8 4 9
v -8 4 2
v -8 4 -0
v -8 4 -7
v -8 13 1
v -8 13 -0
v -8 17 9
v -8 17 1
v -8 17 -0
v -8 17 -7
f -9/1/1 -11/1/1 -12/1/1
f -8/1/1 -11/1/1 -9/1/1
f -6/1/1 -9/1/1 -10/1/1
f -6/1/1 -7/1/1 -8/1/1
f -6/1/1 -8/1/1 -9/1/1
f -5/1/1 -7/1/1 -6/1/1
f -4/1/1 -6/1/1 -10/1/1
f -3/1/1 -6/1/1 -4/1/1
f -2/1/1 -7/1/1 -5/1/1
f -1/1/1 -7/1/1 -2/1/1
v -3 17 2
v -3 17 1
v -3 17 -0
v -3 17 -1
v -3 18 2
v -3 18 1
v -3 18 -0
v -3 18 -1
f -4/5/1 -7/5/1 -8/5/1
f -3/5/1 -7/5/1 -4/5/1
f -2/5/1 -5/5/1 -6/5/1
f -1/5/1 -5/5/1 -2/5/1
v 2 17 2
v 2 17 -1
v 2 18 2
v 2 18 -1
f -4/5/2 -3/5/2 -2/5/2
f -2/5/2 -3/5/2 -1/5/2
v 5 0 9
v 5 0 3
v 5 0 -1
v 5 0 -7
v 5 1 9
v 5 1 8
v 5 1 3
v 5 1 -1
v 5 1 -6
v 5 1 -7
v 5 2 9
v 5 2 8
v 5 2 -6
v 5 2 -7
v 5 9 8
v 5 9 -6
v 5 10 5
v 5 10 -3
v 5 11 5
v 5 11 4
v 5 11 -2
v 5 11 -3
v 5 12 4
v 5 12 -2
v 5 13 4
v 5 13 -2
v 5 14 3
v 5 14 2
v 5 14 -0
v 5 14 -1
v 5 15 5
v 5 15 3
v 5 15 2
v 5 15 -0
v 5 15 -1
v 5 15 -3
v 5 16 5
v 5 16 2
v 5 16 -0
v 5 16 -3
v 5 17 9
v 5 17 -7
f -42/1/2 -41/1/2 -38/1/2
f -38/1/2 -41/1/2 -37/1/2
f -41/2/2 -40/2/2 -36/2/2
f -37/1/2 -41/1/2 -36/1/2
f -40/1/2 -39/1/2 -35/1/2
f -36/2/2 -40/2/2 -35/2/2
f -35/1/2 -39/1/2 -34/1/2
f -34/1/2 -39/1/2 -33/1/2
f -38/2/2 -37/2/2 -32/2/2
f -32/2/2 -37/2/2 -31/2/2
f -34/2/2 -33/2/2 -30/2/2
f -30/2/2 -33/2/2 -29/2/2
f -32/1/2 -31/1/2 -28/1/2
f -30/1/2 -29/1/2 -27/1/2
f -28/1/2 -27/1/2 -26/1/2
f -26/1/2 -27/1/2 -25/1/2
f -28/1/2 -26/1/2 -24/1/2
f -25/1/2 -27/1/2 -21/1/2
f -23/5/2 -22/5/2 -20/5/2
f -24/1/2 -23/1/2 -20/1/2
f -22/1/2 -21/1/2 -19/1/2
f -20/5/2 -22/5/2 -19/5/2
f -24/1/2 -20/1/2 -18/1/2
f -20/3/2 -19/3/2 -18/3/2
f -19/1/2 -21/1/2 -17/1/2
f -18/3/2 -19/3/2 -17/3/2
f -18/1/2 -17/1/2 -16/1/2
f -16/1/2 -17/1/2 -15/1/2
f -15/1/2 -17/1/2 -14/1/2
f -14/1/2 -17/1/2 -13/1/2
f -24/1/2 -18/1/2 -12/1/2
f -28/1/2 -24/1/2 -12/1/2
f -18/1/2 -16/1/2 -12/1/2
f -16/5/2 -15/5/2 -11/5/2
f -12/1/2 -16/1/2 -11/1/2
f -15/1/2 -14/1/2 -10/1/2
f -11/5/2 -15/5/2 -10/5/2
f -14/5/2 -13/5/2 -9/5/2
f -10/1/2 -14/1/2 -9/1/2
f -13/1/2 -17/1/2 -8/1/2
f -9/5/2 -13/5/2 -8/5/2
f -21/1/2 -27/1/2 -7/1/2
f -8/1/2 -17/1/2 -7/1/2
f -17/1/2 -21/1/2 -7/1/2
f -28/1/2 -12/1/2 -6/1/2
f -10/1/2 -9/1/2 -5/1/2
f -5/1/2 -9/1/2 -4/1/2
f -7/1/2 -27/1/2 -3/1/2
f -32/1/2 -28/1/2 -2/1/2
f -4/1/2 -3/1/2 -2/1/2
f -28/1/2 -6/1/2 -2/1/2
f -5/1/2 -4/1/2 -2/1/2
f -6/1/2 -5/1/2 -2/1/2
f -3/1/2 -27/1/2 -1/1/2
f -2/1/2 -3/1/2 -1/1/2
f -27/1/2 -29/1/2 -1/1/2
v 6 1 8
v 6 1 -6
v 6 2 8
v 6 2 -6
v 6 7 8
v 6 7 7
v 6 7 6
v 6 7 -4
v 6 7 -5
v 6 7 -6
v 6 8 7
v 6 8 6
v 6 8 -4
v 6 8 -5
v 6 9 8
v 6 9 -6
v 6 10 5
v 6 10 -3
v 6 11 5
v 6 11 -3
v 6 15 5
v 6 15 2
v 6 15 -0
v 6 15 -3
v 6 16 5
v 6 16 2
v 6 16 -0
v 6 16 -3
f -28/2/2 -27/2/2 -26/2/2
f -26/2/2 -27/2/2 -25/2/2
f -24/1/2 -23/1/2 -18/1/2
f -23/5/2 -22/5/2 -18/5/2
f -22/1/2 -21/1/2 -17/1/2
f -18/5/2 -22/5/2 -17/5/2
f -21/5/2 -20/5/2 -16/5/2
f -17/1/2 -21/1/2 -16/1/2
f -20/1/2 -19/1/2 -15/1/2
f -16/5/2 -20/5/2 -15/5/2
f -17/1/2 -16/1/2 -14/1/2
f -18/1/2 -17/1/2 -14/1/2
f -16/1/2 -15/1/2 -14/1/2
f -24/1/2 -18/1/2 -14/1/2
f -15/1/2 -19/1/2 -13/1/2
f -14/1/2 -15/1/2 -13/1/2
f -12/1/2 -11/1/2 -10/1/2
f -10/1/2 -11/1/2 -9/1/2
f -8/5/2 -7/5/2 -4/5/2
f -4/5/2 -7/5/2 -3/5/2
f -6/5/2 -5/5/2 -2/5/2
f -2/5/2 -5/5/2 -1/5/2
v 7 2 8
v 7 2 -6
v 7 3 2
v 7 3 -0
v 7 4 2
v 7 4 -0
v 7 7 8
v 7 7 -6
f -8/1/2 -7/1/2 -6/1/2
f -6/1/2 -7/1/2 -5/1/2
f -8/1/2 -6/1/2 -4/1/2
f -6/5/2 -5/5/2 -4/5/2
f -5/1/2 -7/1/2 -3/1/2
f -4/5/2 -5/5/2 -3/5/2
f -8/1/2 -4/1/2 -2/1/2
f -4/1/2 -3/1/2 -2/1/2
f -3/1/2 -7/1/2 -1/1/2
f -2/1/2 -3/1/2 -1/1/2
v -9 0 9
v -9 1 9
v -9 2 9
v -9 4 9
v -8 4 9
v -8 17 9
v 5 0 9
v 5 1 9
v 5 2 9
v 5 17 9
f -6/1/3 -7/1/3 -8/1/3
f -4/1/3 -9/1/3 -10/1/3
f -3/2/3 -8/2/3 -9/2/3
f -3/1/3 -9/1/3 -4/1/3
f -2/1/3 -5/1/3 -6/1/3
f -2/2/3 -8/2/3 -3/2/3
f -2/1/3 -6/1/3 -8/1/3
f -1/1/3 -5/1/3 -2/1/3
v 5 1 8
v 5 2 8
v 5 9 8
v 6 1 8
v 6 2 8
v 6 7 8
v 6 9 8
v 7 2 8
v 7 7 8
f -6/2/3 -8/2/3 -9/2/3
f -5/1/3 -7/1/3 -8/1/3
f -5/2/3 -8/2/3 -6/2/3
f -4/1/3 -7/1/3 -5/1/3
f -3/1/3 -7/1/3 -4/1/3
f -2/1/3 -4/1/3 -5/1/3
f -1/1/3 -4/1/3 -2/1/3
v 5 10 5
v 5 11 5
v 5 15 5
v 5 16 5
v 6 10 5
v 6 11 5
v 6 15 5
v 6 16 5
f -4/1/3 -7/1/3 -8/1/3
f -3/1/3 -7/1/3 -4/1/3
f -2/5/3 -5/5/3 -6/5/3
f -1/5/3 -5/5/3 -2/5/3
v -3 17 2
v -3 18 2
v 2 17 2
v 2 18 2
f -2/5/3 -3/5/3 -4/5/3
f -1/5/3 -3/5/3 -2/5/3
v -9 13 1
v -9 18 1
v -8 13 1
v -8 17 1
v -3 17 1
v -3 18 1
f -4/5/3 -5/5/3 -6/5/3
f -3/5/3 -5/5/3 -4/5/3
f -2/5/3 -5/5/3 -3/5/3
f -1/5/3 -5/5/3 -2/5/3
v -9 2 -0
v -9 4 -0
v -8 2 -0
v -8 4 -0
v 5 15 -0
v 5 16 -0
v 6 15 -0
v 6 16 -0
f -6/1/3 -7/1/3 -8/1/3
f -5/1/3 -7/1/3 -6/1/3
f -2/5/3 -3/5/3 -4/5/3
f -1/5/3 -3/5/3 -2/5/3
v -9 2 2
v -9 4 2
v -8 2 2
v -8 4 2
v 5 15 2
v 5 16 2
v 6 15 2
v 6 16 2
f -8/1/4 -7/1/4 -6/1/4
f -6/1/4 -7/1/4 -5/1/4
f -4/5/4 -3/5/4 -2/5/4
f -2/5/4 -3/5/4 -1/5/4
v -9 13 -0
v -9 18 -0
v -8 13 -0
v -8 17 -0
v -3 17 -0
v -3 18 -0
f -6/5/4 -5/5/4 -4/5/4
f -4/5/4 -5/5/4 -3/5/4
f -3/5/4 -5/5/4 -2/5/4
f -2/5/4 -5/5/4 -1/5/4
v -3 17 -1
v -3 18 -1
v 2 17 -1
v 2 18 -1
f -4/5/4 -3/5/4 -2/5/4
f -2/5/4 -3/5/4 -1/5/4
v 5 10 -3
v 5 11 -3
v 5 15 -3
v 5 16 -3
v 6 10 -3
v 6 11 -3
v 6 15 -3
v 6 16 -3
f -8/1/4 -7/1/4 -4/1/4
f -4/1/4 -7/1/4 -3/1/4
f -6/5/4 -5/5/4 -2/5/4
f -2/5/4 -5/5/4 -1/5/4
v 5 1 -6
v 5 2 -6
v 5 9 -6
v 6 1 -6
v 6 2 -6
v 6 7 -6
v 6 9 -6
v 7 2 -6
v 7 7 -6
f -9/2/4 -8/2/4 -6/2/4
f -8/1/4 -7/1/4 -5/1/4
f -6/2/4 -8/2/4 -5/2/4
f -5/1/4 -7/1/4 -4/1/4
f -4/1/4 -7/1/4 -3/1/4
f -5/1/4 -4/1/4 -2/1/4
f -2/1/4 -4/1/4 -1/1/4
v -9 0 -7
v -9 1 -7
v -9 2 -7
v -9 4 -7
v -8 4 -7
v -8 17 -7
v 5 0 -7
v 5 1 -7
v 5 2 -7
v 5 17 -7
f -8/1/4 -7/1/4 -6/1/4
f -10/1/4 -9/1/4 -4/1/4
f -9/2/4 -8/2/4 -3/2/4
f -4/1/4 -9/1/4 -3/1/4
f -6/1/4 -5/1/4 -2/1/4
f -3/2/4 -8/2/4 -2/2/4
f -8/1/4 -6/1/4 -2/1/4
f -2/1/4 -5/1/4 -1/1/4
v -9 0 9
v 5 0 9
v -9 0 3
v 5 0 3
v -9 0 -1
v 5 0 -1
v -9 0 -7
v 5 0 -7
f -6/1/5 -7/1/5 -8/1/5
f -5/1/5 -7/1/5 -6/1/5
f -4/2/5 -5/2/5 -6/2/5
f -3/2/5 -5/2/5 -4/2/5
f -2/1/5 -3/1/5 -4/1/5
f -1/1/5 -3/1/5 -2/1/5
v 5 1 8
v 6 1 8
v 5 1 3
v 5 1 -1
v 5 1 -6
v 6 1 -6
f -4/2/5 -5/2/5 -6/2/5
f -3/2/5 -5/2/5 -4/2/5
f -2/2/5 -5/2/5 -3/2/5
f -1/2/5 -5/2/5 -2/2/5
v 6 2 8
v 7 2 8
v 6 2 -6
v 7 2 -6
f -2/1/5 -3/1/5 -4/1/5
f -1/1/5 -3/1/5 -2/1/5
v 5 10 5
v 6 10 5
v 5 10 -3
v 6 10 -3
f -2/1/5 -3/1/5 -4/1/5
f -1/1/5 -3/1/5 -2/1/5
v -9 13 1
v -8 13 1
v -9 13 -0
v -8 13 -0
f -2/5/5 -3/5/5 -4/5/5
f -1/5/5 -3/5/5 -2/5/5
v 5 15 5
v 6 15 5
v 5 15 3
v 5 15 2
v 6 15 2
v 5 15 -0
v 6 15 -0
v 5 15 -1
v 5 15 -3
v 6 15 -3
f -8/5/5 -9/5/5 -10/5/5
f -7/5/5 -9/5/5 -8/5/5
f -6/5/5 -9/5/5 -7/5/5
f -3/5/5 -4/5/5 -5/5/5
f -2/5/5 -4/5/5 -3/5/5
f -1/5/5 -4/5/5 -2/5/5
v -9 2 2
v -8 2 2
v -9 2 -0
v -8 2 -0
f -4/2/6 -3/2/6 -2/2/6
f -2/2/6 -3/2/6 -1/2/6
v -9 4 9
v -8 4 9
v -9 4 2
v -8 4 2
v -9 4 -0
v -8 4 -0
v -9 4 -7
v -8 4 -7
f -8/1/6 -7/1/6 -6/1/6
f -6/1/6 -7/1/6 -5/1/6
f -4/1/6 -3/1/6 -2/1/6
f -2/1/6 -3/1/6 -1/1/6
v 6 7 8
v 7 7 8
v 6 7 7
v 6 7 6
v 6 7 -4
v 6 7 -5
v 6 7 -6
v 7 7 -6
f -8/1/6 -7/1/6 -6/1/6
f -6/1/6 -7/1/6 -5/1/6
f -5/1/6 -7/1/6 -4/1/6
f -4/1/6 -7/1/6 -3/1/6
f -3/1/6 -7/1/6 -2/1/6
f -2/1/6 -7/1/6 -1/1/6
v 5 9 8
v 6 9 8
v 5 9 -6
v 6 9 -6
f -4/1/6 -3/1/6 -2/1/6
f -2/1/6 -3/1/6 -1/1/6
v 5 11 5
v 6 11 5
v 5 11 4
v 5 11 -2
v 5 11 -3
v 6 11 -3
f -6/1/6 -5/1/6 -4/1/6
f -4/1/6 -5/1/6 -3/1/6
f -3/1/6 -5/1/6 -2/1/6
f -2/1/6 -5/1/6 -1/1/6
v 5 16 5
v 6 16 5
v 5 16 2
v 6 16 2
v 5 16 -0
v 6 16 -0
v 5 16 -3
v 6 16 -3
f -8/5/6 -7/5/6 -6/5/6
f -6/5/6 -7/5/6 -5/5/6
f -4/5/6 -3/5/6 -2/5/6
f -2/5/6 -3/5/6 -1/5/6
v -8 17 9
v 5 17 9
v -3 17 2
v 2 17 2
v -8 17 1
v -3 17 1
v -8 17 -0
v -3 17 -0
v -3 17 -1
v 2 17 -1
v -8 17 -7
v 5 17 -7
f -12/1/6 -11/1/6 -10/1/6
f -10/1/6 -11/1/6 -9/1/6
f -12/1/6 -10/1/6 -8/1/6
f -8/1/6 -10/1/6 -7/1/6
f -6/1/6 -5/1/6 -4/1/6
f -9/1/6 -11/1/6 -3/1/6
f -6/1/6 -4/1/6 -2/1/6
f -4/1/6 -3/1/6 -2/1/6
f -3/1/6 -11/1/6 -1/1/6
f -2/1/6 -3/1/6 -1/1/6
v -3 18 2
v 2 18 2
v -9 18 1
v -3 18 1
v -9 18 -0
v -3 18 -0
v -3 18 -1
v 2 18 -1
f -8/5/6 -7/5/6 -5/5/6
f -6/5/6 -5/5/6 -4/5/6
f -5/5/6 -7/5/6 -3/5/6
f -4/5/6 -5/5/6 -3/5/6
f -3/5/6 -7/5/6 -2/5/6
f -2/5/6 -7/5/6 -1/5/6
