# MagicaVoxel @ ephtracy

# material
mtllib cubeboy8.mtl

# mesh name
g cubeboy8_mesh

# normals
vn -1 0 0
vn 1 0 0
vn 0 0 1
vn 0 0 -1
vn 0 -1 0
vn 0 1 0

# texcoords
vt 0.470703 0.5
vt 0.501953 0.5
vt 0.525391 0.5
vt 0.841797 0.5
vt 0.865234 0.5
vt 0.958984 0.5
vt 0.962891 0.5

# verts
v -8.5 3 9
v -8.5 3 -7
v -8.5 21 9
v -8.5 21 -7
f -2/3/1 -3/3/1 -4/3/1
f -1/3/1 -3/3/1 -2/3/1
v -7.5 25 5
v -7.5 25 -3
v -7.5 27 5
v -7.5 27 -3
f -2/3/1 -3/3/1 -4/3/1
f -1/3/1 -3/3/1 -2/3/1
v -5.5 21 6
v -5.5 21 -4
v -5.5 22 6
v -5.5 22 5
v -5.5 22 -3
v -5.5 22 -4
v -5.5 25 5
v -5.5 25 -3
f -6/3/1 -7/3/1 -8/3/1
f -5/3/1 -7/3/1 -6/3/1
f -4/3/1 -7/3/1 -5/3/1
f -3/3/1 -7/3/1 -4/3/1
f -2/3/1 -4/3/1 -5/3/1
f -1/3/1 -4/3/1 -2/3/1
v 5.5 0 3
v 5.5 0 -1
v 5.5 1 4
v 5.5 1 3
v 5.5 1 -1
v 5.5 1 -2
v 5.5 2 5
v 5.5 2 4
v 5.5 2 -2
v 5.5 2 -3
v 5.5 4 5
v 5.5 4 -3
f -9/6/1 -11/6/1 -12/6/1
f -8/6/1 -11/6/1 -9/6/1
f -5/6/1 -9/6/1 -10/6/1
f -5/6/1 -7/6/1 -8/6/1
f -5/6/1 -8/6/1 -9/6/1
f -4/6/1 -7/6/1 -5/6/1
f -2/6/1 -5/6/1 -6/6/1
f -2/6/1 -3/6/1 -4/6/1
f -2/6/1 -4/6/1 -5/6/1
f -1/6/1 -3/6/1 -2/6/1
v -0.5 25 5
v -0.5 25 -3
v -0.5 27 5
v -0.5 27 -3
f -4/3/2 -3/3/2 -2/3/2
f -2/3/2 -3/3/2 -1/3/2
v 1.5 21 6
v 1.5 21 -4
v 1.5 22 6
v 1.5 22 5
v 1.5 22 -3
v 1.5 22 -4
v 1.5 25 5
v 1.5 25 -3
f -8/3/2 -7/3/2 -6/3/2
f -6/3/2 -7/3/2 -5/3/2
f -5/3/2 -7/3/2 -4/3/2
f -4/3/2 -7/3/2 -3/3/2
f -5/3/2 -4/3/2 -2/3/2
f -2/3/2 -4/3/2 -1/3/2
v 4.5 3 9
v 4.5 3 -7
v 4.5 4 9
v 4.5 4 -7
v 4.5 5 8
v 4.5 5 5
v 4.5 5 -3
v 4.5 5 -6
v 4.5 7 4
v 4.5 7 2
v 4.5 7 -0
v 4.5 7 -2
v 4.5 8 4
v 4.5 8 2
v 4.5 8 -0
v 4.5 8 -2
v 4.5 10 5
v 4.5 10 4
v 4.5 10 -2
v 4.5 10 -3
v 4.5 11 4
v 4.5 11 -2
v 4.5 13 7
v 4.5 13 4
v 4.5 13 -2
v 4.5 13 -5
v 4.5 14 7
v 4.5 14 4
v 4.5 14 -2
v 4.5 14 -5
v 4.5 16 5
v 4.5 16 4
v 4.5 16 -4
v 4.5 16 -5
v 4.5 17 8
v 4.5 17 7
v 4.5 17 5
v 4.5 17 4
v 4.5 17 3
v 4.5 17 -1
v 4.5 17 -2
v 4.5 17 -4
v 4.5 17 -5
v 4.5 17 -6
v 4.5 18 4
v 4.5 18 3
v 4.5 18 -1
v 4.5 18 -2
v 4.5 19 4
v 4.5 19 -2
v 4.5 20 9
v 4.5 20 -7
v 4.5 21 9
v 4.5 21 -7
f -54/3/2 -53/3/2 -52/3/2
f -52/3/2 -53/3/2 -51/3/2
f -46/1/2 -45/1/2 -42/1/2
f -42/1/2 -45/1/2 -41/1/2
f -44/1/2 -43/1/2 -40/1/2
f -40/1/2 -43/1/2 -39/1/2
f -50/1/2 -49/1/2 -38/1/2
f -48/1/2 -47/1/2 -35/1/2
f -38/1/2 -37/1/2 -34/1/2
f -36/1/2 -35/1/2 -33/1/2
f -38/1/2 -34/1/2 -32/1/2
f -34/1/2 -33/1/2 -32/1/2
f -50/1/2 -38/1/2 -32/1/2
f -32/1/2 -33/1/2 -31/1/2
f -33/1/2 -35/1/2 -30/1/2
f -31/1/2 -33/1/2 -30/1/2
f -35/1/2 -47/1/2 -29/1/2
f -30/1/2 -35/1/2 -29/1/2
f -32/2/2 -31/2/2 -28/2/2
f -50/1/2 -32/1/2 -28/1/2
f -31/1/2 -30/1/2 -27/1/2
f -28/2/2 -31/2/2 -27/2/2
f -30/2/2 -29/2/2 -26/2/2
f -27/1/2 -30/1/2 -26/1/2
f -29/1/2 -47/1/2 -25/1/2
f -26/2/2 -29/2/2 -25/2/2
f -28/5/2 -27/5/2 -24/5/2
f -27/1/2 -26/1/2 -23/1/2
f -24/5/2 -27/5/2 -23/5/2
f -26/5/2 -25/5/2 -22/5/2
f -25/1/2 -47/1/2 -21/1/2
f -22/5/2 -25/5/2 -21/5/2
f -50/1/2 -28/1/2 -20/1/2
f -28/5/2 -24/5/2 -19/5/2
f -20/1/2 -28/1/2 -19/1/2
f -24/7/2 -23/7/2 -18/7/2
f -19/5/2 -24/5/2 -18/5/2
f -23/1/2 -26/1/2 -17/1/2
f -18/7/2 -23/7/2 -17/7/2
f -17/1/2 -26/1/2 -16/1/2
f -16/1/2 -26/1/2 -15/1/2
f -26/5/2 -22/5/2 -14/5/2
f -15/1/2 -26/1/2 -14/1/2
f -22/7/2 -21/7/2 -13/7/2
f -14/5/2 -22/5/2 -13/5/2
f -21/1/2 -47/1/2 -12/1/2
f -13/7/2 -21/7/2 -12/7/2
f -12/1/2 -47/1/2 -11/1/2
f -16/1/2 -15/1/2 -9/1/2
f -9/1/2 -15/1/2 -8/1/2
f -10/1/2 -9/1/2 -6/1/2
f -8/1/2 -7/1/2 -6/1/2
f -9/1/2 -8/1/2 -6/1/2
f -6/1/2 -7/1/2 -5/1/2
f -4/3/2 -3/3/2 -2/3/2
f -2/3/2 -3/3/2 -1/3/2
v 5.5 4 9
v 5.5 4 5
v 5.5 4 -3
v 5.5 4 -7
v 5.5 5 8
v 5.5 5 5
v 5.5 5 -3
v 5.5 5 -6
v 5.5 8 4
v 5.5 8 2
v 5.5 8 -0
v 5.5 8 -2
v 5.5 9 4
v 5.5 9 -2
v 5.5 17 8
v 5.5 17 3
v 5.5 17 -1
v 5.5 17 -6
v 5.5 18 4
v 5.5 18 3
v 5.5 18 -1
v 5.5 18 -2
v 5.5 19 8
v 5.5 19 4
v 5.5 19 -2
v 5.5 19 -6
v 5.5 20 9
v 5.5 20 -7
f -28/3/2 -27/3/2 -24/3/2
f -24/3/2 -27/3/2 -23/3/2
f -26/3/2 -25/3/2 -22/3/2
f -22/3/2 -25/3/2 -21/3/2
f -20/5/2 -19/5/2 -16/5/2
f -18/5/2 -17/5/2 -16/5/2
f -19/5/2 -18/5/2 -16/5/2
f -16/5/2 -17/5/2 -15/5/2
f -28/3/2 -24/3/2 -14/3/2
f -21/3/2 -25/3/2 -11/3/2
f -14/6/2 -13/6/2 -10/6/2
f -10/6/2 -13/6/2 -9/6/2
f -12/6/2 -11/6/2 -8/6/2
f -8/6/2 -11/6/2 -7/6/2
f -28/3/2 -14/3/2 -6/3/2
f -14/6/2 -10/6/2 -6/6/2
f -6/6/2 -10/6/2 -5/6/2
f -7/6/2 -11/6/2 -4/6/2
f -11/3/2 -25/3/2 -3/3/2
f -4/6/2 -11/6/2 -3/6/2
f -6/3/2 -5/3/2 -2/3/2
f -5/3/2 -4/3/2 -2/3/2
f -4/3/2 -3/3/2 -2/3/2
f -28/3/2 -6/3/2 -2/3/2
f -3/3/2 -25/3/2 -1/3/2
f -2/3/2 -3/3/2 -1/3/2
v 6.5 0 3
v 6.5 0 -1
v 6.5 1 4
v 6.5 1 3
v 6.5 1 -1
v 6.5 1 -2
v 6.5 2 5
v 6.5 2 4
v 6.5 2 -2
v 6.5 2 -3
v 6.5 7 4
v 6.5 7 2
v 6.5 7 -0
v 6.5 7 -2
v 6.5 8 2
v 6.5 8 -0
v 6.5 9 4
v 6.5 9 -2
v 6.5 10 5
v 6.5 10 4
v 6.5 10 -2
v 6.5 10 -3
v 6.5 11 4
v 6.5 11 -2
f -24/6/2 -23/6/2 -21/6/2
f -21/6/2 -23/6/2 -20/6/2
f -22/6/2 -21/6/2 -17/6/2
f -20/6/2 -19/6/2 -17/6/2
f -21/6/2 -20/6/2 -17/6/2
f -17/6/2 -19/6/2 -16/6/2
f -18/6/2 -17/6/2 -14/6/2
f -16/6/2 -15/6/2 -14/6/2
f -17/6/2 -16/6/2 -14/6/2
f -14/6/2 -15/6/2 -13/6/2
f -13/6/2 -15/6/2 -12/6/2
f -12/6/2 -15/6/2 -11/6/2
f -13/6/2 -12/6/2 -10/6/2
f -10/6/2 -12/6/2 -9/6/2
f -18/6/2 -14/6/2 -8/6/2
f -11/6/2 -15/6/2 -7/6/2
f -18/6/2 -8/6/2 -6/6/2
f -8/6/2 -7/6/2 -6/6/2
f -6/6/2 -7/6/2 -5/6/2
f -7/6/2 -15/6/2 -4/6/2
f -5/6/2 -7/6/2 -4/6/2
f -4/6/2 -15/6/2 -3/6/2
f -5/6/2 -4/6/2 -2/6/2
f -2/6/2 -4/6/2 -1/6/2
v -8.5 3 9
v -8.5 21 9
v 4.5 3 9
v 4.5 4 9
v 4.5 20 9
v 4.5 21 9
v 5.5 4 9
v 5.5 20 9
f -6/3/3 -7/3/3 -8/3/3
f -5/3/3 -7/3/3 -6/3/3
f -4/3/3 -7/3/3 -5/3/3
f -3/3/3 -7/3/3 -4/3/3
f -2/3/3 -4/3/3 -5/3/3
f -1/3/3 -4/3/3 -2/3/3
v -5.5 21 6
v -5.5 22 6
v 1.5 21 6
v 1.5 22 6
f -2/3/3 -3/3/3 -4/3/3
f -1/3/3 -3/3/3 -2/3/3
v -7.5 25 5
v -7.5 27 5
v -5.5 22 5
v -5.5 25 5
v -0.5 25 5
v -0.5 27 5
v 1.5 22 5
v 1.5 25 5
v 4.5 5 5
v 4.5 10 5
v 5.5 2 5
v 5.5 4 5
v 5.5 5 5
v 6.5 2 5
v 6.5 10 5
f -12/3/3 -14/3/3 -15/3/3
f -11/3/3 -14/3/3 -12/3/3
f -11/3/3 -12/3/3 -13/3/3
f -10/3/3 -14/3/3 -11/3/3
f -9/3/3 -11/3/3 -13/3/3
f -8/3/3 -11/3/3 -9/3/3
f -3/6/3 -6/6/3 -7/6/3
f -2/6/3 -4/6/3 -5/6/3
f -2/6/3 -3/6/3 -4/6/3
f -1/6/3 -6/6/3 -3/6/3
f -1/6/3 -3/6/3 -2/6/3
v 4.5 10 4
v 4.5 11 4
v 5.5 1 4
v 5.5 2 4
v 6.5 1 4
v 6.5 2 4
v 6.5 10 4
v 6.5 11 4
f -4/6/3 -5/6/3 -6/6/3
f -3/6/3 -5/6/3 -4/6/3
f -2/6/3 -7/6/3 -8/6/3
f -1/6/3 -7/6/3 -2/6/3
v 5.5 0 3
v 5.5 1 3
v 6.5 0 3
v 6.5 1 3
f -2/6/3 -3/6/3 -4/6/3
f -1/6/3 -3/6/3 -2/6/3
v 4.5 7 2
v 4.5 8 2
v 5.5 8 2
v 6.5 7 2
v 6.5 8 2
f -3/6/3 -4/6/3 -5/6/3
f -2/6/3 -3/6/3 -5/6/3
f -1/6/3 -3/6/3 -2/6/3
v 4.5 17 -1
v 4.5 18 -1
v 5.5 17 -1
v 5.5 18 -1
f -2/6/3 -3/6/3 -4/6/3
f -1/6/3 -3/6/3 -2/6/3
v 4.5 7 -2
v 4.5 8 -2
v 4.5 18 -2
v 4.5 19 -2
v 5.5 8 -2
v 5.5 9 -2
v 5.5 18 -2
v 5.5 19 -2
v 6.5 7 -2
v 6.5 9 -2
f -6/6/3 -9/6/3 -10/6/3
f -4/6/3 -7/6/3 -8/6/3
f -3/6/3 -7/6/3 -4/6/3
f -2/6/3 -5/6/3 -6/6/3
f -2/6/3 -6/6/3 -10/6/3
f -1/6/3 -5/6/3 -2/6/3
v 4.5 5 -6
v 4.5 17 -6
v 5.5 5 -6
v 5.5 17 -6
f -2/3/3 -3/3/3 -4/3/3
f -1/3/3 -3/3/3 -2/3/3
v 4.5 5 8
v 4.5 17 8
v 5.5 5 8
v 5.5 17 8
f -4/3/4 -3/3/4 -2/3/4
f -2/3/4 -3/3/4 -1/3/4
v 4.5 7 4
v 4.5 8 4
v 4.5 18 4
v 4.5 19 4
v 5.5 8 4
v 5.5 9 4
v 5.5 18 4
v 5.5 19 4
v 6.5 7 4
v 6.5 9 4
f -10/6/4 -9/6/4 -6/6/4
f -8/6/4 -7/6/4 -4/6/4
f -4/6/4 -7/6/4 -3/6/4
f -6/6/4 -5/6/4 -2/6/4
f -10/6/4 -6/6/4 -2/6/4
f -2/6/4 -5/6/4 -1/6/4
v 4.5 17 3
v 4.5 18 3
v 5.5 17 3
v 5.5 18 3
f -4/6/4 -3/6/4 -2/6/4
f -2/6/4 -3/6/4 -1/6/4
v 4.5 7 -0
v 4.5 8 -0
v 5.5 8 -0
v 6.5 7 -0
v 6.5 8 -0
f -5/6/4 -4/6/4 -3/6/4
f -5/6/4 -3/6/4 -2/6/4
f -2/6/4 -3/6/4 -1/6/4
v 5.5 0 -1
v 5.5 1 -1
v 6.5 0 -1
v 6.5 1 -1
f -4/6/4 -3/6/4 -2/6/4
f -2/6/4 -3/6/4 -1/6/4
v 4.5 10 -2
v 4.5 11 -2
v 5.5 1 -2
v 5.5 2 -2
v 6.5 1 -2
v 6.5 2 -2
v 6.5 10 -2
v 6.5 11 -2
f -6/6/4 -5/6/4 -4/6/4
f -4/6/4 -5/6/4 -3/6/4
f -8/6/4 -7/6/4 -2/6/4
f -2/6/4 -7/6/4 -1/6/4
v -7.5 25 -3
v -7.5 27 -3
v -5.5 22 -3
v -5.5 25 -3
v -0.5 25 -3
v -0.5 27 -3
v 1.5 22 -3
v 1.5 25 -3
v 4.5 5 -3
v 4.5 10 -3
v 5.5 2 -3
v 5.5 4 -3
v 5.5 5 -3
v 6.5 2 -3
v 6.5 10 -3
f -15/3/4 -14/3/4 -12/3/4
f -12/3/4 -14/3/4 -11/3/4
f -13/3/4 -12/3/4 -11/3/4
f -11/3/4 -14/3/4 -10/3/4
f -13/3/4 -11/3/4 -9/3/4
f -9/3/4 -11/3/4 -8/3/4
f -7/6/4 -6/6/4 -3/6/4
f -5/6/4 -4/6/4 -2/6/4
f -4/6/4 -3/6/4 -2/6/4
f -3/6/4 -6/6/4 -1/6/4
f -2/6/4 -3/6/4 -1/6/4
v -5.5 21 -4
v -5.5 22 -4
v 1.5 21 -4
v 1.5 22 -4
f -4/3/4 -3/3/4 -2/3/4
f -2/3/4 -3/3/4 -1/3/4
v -8.5 3 -7
v -8.5 21 -7
v 4.5 3 -7
v 4.5 4 -7
v 4.5 20 -7
v 4.5 21 -7
v 5.5 4 -7
v 5.5 20 -7
f -8/3/4 -7/3/4 -6/3/4
f -6/3/4 -7/3/4 -5/3/4
f -5/3/4 -7/3/4 -4/3/4
f -4/3/4 -7/3/4 -3/3/4
f -5/3/4 -4/3/4 -2/3/4
f -2/3/4 -4/3/4 -1/3/4
v 5.5 0 3
v 6.5 0 3
v 5.5 0 -1
v 6.5 0 -1
f -2/6/5 -3/6/5 -4/6/5
f -1/6/5 -3/6/5 -2/6/5
v 5.5 1 4
v 6.5 1 4
v 5.5 1 3
v 6.5 1 3
v 5.5 1 -1
v 6.5 1 -1
v 5.5 1 -2
v 6.5 1 -2
f -6/6/5 -7/6/5 -8/6/5
f -5/6/5 -7/6/5 -6/6/5
f -2/6/5 -3/6/5 -4/6/5
f -1/6/5 -3/6/5 -2/6/5
v 5.5 2 5
v 6.5 2 5
v 5.5 2 4
v 6.5 2 4
v 5.5 2 -2
v 6.5 2 -2
v 5.5 2 -3
v 6.5 2 -3
f -6/6/5 -7/6/5 -8/6/5
f -5/6/5 -7/6/5 -6/6/5
f -2/6/5 -3/6/5 -4/6/5
f -1/6/5 -3/6/5 -2/6/5
v -8.5 3 9
v 4.5 3 9
v -8.5 3 -7
v 4.5 3 -7
f -2/3/5 -3/3/5 -4/3/5
f -1/3/5 -3/3/5 -2/3/5
v 4.5 4 9
v 5.5 4 9
v 5.5 4 5
v 5.5 4 -3
v 4.5 4 -7
v 5.5 4 -7
f -4/3/5 -5/3/5 -6/3/5
f -3/3/5 -4/3/5 -6/3/5
f -2/3/5 -3/3/5 -6/3/5
f -1/3/5 -3/3/5 -2/3/5
v 4.5 8 4
v 5.5 8 4
v 4.5 8 2
v 5.5 8 2
v 4.5 8 -0
v 5.5 8 -0
v 4.5 8 -2
v 5.5 8 -2
f -6/5/5 -7/5/5 -8/5/5
f -5/5/5 -7/5/5 -6/5/5
f -2/5/5 -3/5/5 -4/5/5
f -1/5/5 -3/5/5 -2/5/5
v 5.5 9 4
v 6.5 9 4
v 5.5 9 -2
v 6.5 9 -2
f -2/6/5 -3/6/5 -4/6/5
f -1/6/5 -3/6/5 -2/6/5
v 4.5 17 8
v 5.5 17 8
v 4.5 17 7
v 4.5 17 5
v 4.5 17 4
v 4.5 17 3
v 5.5 17 3
v 4.5 17 -1
v 5.5 17 -1
v 4.5 17 -2
v 4.5 17 -4
v 4.5 17 -5
v 4.5 17 -6
v 5.5 17 -6
f -12/6/5 -13/6/5 -14/6/5
f -11/6/5 -13/6/5 -12/6/5
f -10/6/5 -13/6/5 -11/6/5
f -9/6/5 -13/6/5 -10/6/5
f -8/6/5 -13/6/5 -9/6/5
f -5/6/5 -6/6/5 -7/6/5
f -4/6/5 -6/6/5 -5/6/5
f -3/6/5 -6/6/5 -4/6/5
f -2/6/5 -6/6/5 -3/6/5
f -1/6/5 -6/6/5 -2/6/5
v 4.5 19 4
v 5.5 19 4
v 4.5 19 -2
v 5.5 19 -2
f -2/3/5 -3/3/5 -4/3/5
f -1/3/5 -3/3/5 -2/3/5
v -7.5 25 5
v -5.5 25 5
v -7.5 25 -3
v -5.5 25 -3
f -2/3/5 -3/3/5 -4/3/5
f -1/3/5 -3/3/5 -2/3/5
v 4.5 5 8
v 5.5 5 8
v 4.5 5 5
v 5.5 5 5
v 4.5 5 -3
v 5.5 5 -3
v 4.5 5 -6
v 5.5 5 -6
f -8/3/6 -7/3/6 -6/3/6
f -6/3/6 -7/3/6 -5/3/6
f -4/3/6 -3/3/6 -2/3/6
f -2/3/6 -3/3/6 -1/3/6
v 4.5 7 4
v 6.5 7 4
v 4.5 7 2
v 6.5 7 2
v 4.5 7 -0
v 6.5 7 -0
v 4.5 7 -2
v 6.5 7 -2
f -8/6/6 -7/6/6 -6/6/6
f -6/6/6 -7/6/6 -5/6/6
f -4/6/6 -3/6/6 -2/6/6
f -2/6/6 -3/6/6 -1/6/6
v 5.5 8 2
v 6.5 8 2
v 5.5 8 -0
v 6.5 8 -0
f -4/6/6 -3/6/6 -2/6/6
f -2/6/6 -3/6/6 -1/6/6
v 4.5 10 5
v 6.5 10 5
v 4.5 10 4
v 6.5 10 4
v 4.5 10 -2
v 6.5 10 -2
v 4.5 10 -3
v 6.5 10 -3
f -8/6/6 -7/6/6 -6/6/6
f -6/6/6 -7/6/6 -5/6/6
f -4/6/6 -3/6/6 -2/6/6
f -2/6/6 -3/6/6 -1/6/6
v 4.5 11 4
v 6.5 11 4
v 4.5 11 -2
v 6.5 11 -2
f -4/6/6 -3/6/6 -2/6/6
f -2/6/6 -3/6/6 -1/6/6
v 4.5 18 4
v 5.5 18 4
v 4.5 18 3
v 5.5 18 3
v 4.5 18 -1
v 5.5 18 -1
v 4.5 18 -2
v 5.5 18 -2
f -8/6/6 -7/6/6 -6/6/6
f -6/6/6 -7/6/6 -5/6/6
f -4/6/6 -3/6/6 -2/6/6
f -2/6/6 -3/6/6 -1/6/6
v 4.5 20 9
v 5.5 20 9
v 4.5 20 -7
v 5.5 20 -7
f -4/3/6 -3/3/6 -2/3/6
f -2/3/6 -3/3/6 -1/3/6
v -8.5 21 9
v 4.5 21 9
v -5.5 21 6
v 1.5 21 6
v -5.5 21 -4
v 1.5 21 -4
v -8.5 21 -7
v 4.5 21 -7
f -8/3/6 -7/3/6 -6/3/6
f -6/3/6 -7/3/6 -5/3/6
f -8/3/6 -6/3/6 -4/3/6
f -5/3/6 -7/3/6 -3/3/6
f -8/3/6 -4/3/6 -2/3/6
f -4/3/6 -3/3/6 -2/3/6
f -3/3/6 -7/3/6 -1/3/6
f -2/3/6 -3/3/6 -1/3/6
v -5.5 22 6
v 1.5 22 6
v -5.5 22 5
v 1.5 22 5
v -5.5 22 -3
v 1.5 22 -3
v -5.5 22 -4
v 1.5 22 -4
f -8/3/6 -7/3/6 -6/3/6
f -6/3/6 -7/3/6 -5/3/6
f -4/3/6 -3/3/6 -2/3/6
f -2/3/6 -3/3/6 -1/3/6
v -0.5 25 5
v 1.5 25 5
v -0.5 25 -3
v 1.5 25 -3
f -4/3/6 -3/3/6 -2/3/6
f -2/3/6 -3/3/6 -1/3/6
v -7.5 27 5
v -0.5 27 5
v -7.5 27 -3
v -0.5 27 -3
f -4/3/6 -3/3/6 -2/3/6
f -2/3/6 -3/3/6 -1/3/6
