# MagicaVoxel @ ephtracy

# material
mtllib cubeboy7.mtl

# mesh name
g cubeboy7_mesh

# normals
vn -1 0 0
vn 1 0 0
vn 0 0 1
vn 0 0 -1
vn 0 -1 0
vn 0 1 0

# texcoords
vt 0.0175781 0.5
vt 0.0214844 0.5
vt 0.208984 0.5
vt 0.533203 0.5
vt 0.537109 0.5
vt 0.544922 0.5
vt 0.552734 0.5
vt 0.556641 0.5
vt 0.560547 0.5
vt 0.630859 0.5
vt 0.685547 0.5
vt 0.787109 0.5
vt 0.814453 0.5
vt 0.841797 0.5
vt 0.958984 0.5
vt 0.994141 0.5

# verts
v -9 10 11
v -9 10 4
v -9 10 3
v -9 10 -1
v -9 10 -2
v -9 10 -9
v -9 11 11
v -9 11 4
v -9 11 -2
v -9 11 -9
v -9 21 11
v -9 21 4
v -9 21 3
v -9 21 -1
v -9 21 -2
v -9 21 -9
f -10/1/1 -15/1/1 -16/1/1
f -9/10/1 -14/10/1 -15/10/1
f -9/1/1 -15/1/1 -10/1/1
f -8/1/1 -11/1/1 -12/1/1
f -8/10/1 -12/10/1 -13/10/1
f -7/1/1 -11/1/1 -8/1/1
f -6/2/1 -9/2/1 -10/2/1
f -5/10/1 -14/10/1 -9/10/1
f -5/2/1 -9/2/1 -6/2/1
f -4/15/1 -13/15/1 -14/15/1
f -4/10/1 -14/10/1 -5/10/1
f -3/10/1 -8/10/1 -13/10/1
f -3/15/1 -13/15/1 -4/15/1
f -2/2/1 -7/2/1 -8/2/1
f -2/10/1 -8/10/1 -3/10/1
f -1/2/1 -7/2/1 -2/2/1
v -7 0 9
v -7 0 -7
v -7 10 9
v -7 10 -7
f -2/12/1 -3/12/1 -4/12/1
f -1/12/1 -3/12/1 -2/12/1
v 1 12 11
v 1 12 10
v 1 12 -8
v 1 12 -9
v 1 16 11
v 1 16 10
v 1 16 -8
v 1 16 -9
f -4/2/1 -7/2/1 -8/2/1
f -3/2/1 -7/2/1 -4/2/1
f -2/2/1 -5/2/1 -6/2/1
f -1/2/1 -5/2/1 -2/2/1
v -3 12 11
v -3 12 10
v -3 12 -8
v -3 12 -9
v -3 16 11
v -3 16 10
v -3 16 -8
v -3 16 -9
f -8/2/2 -7/2/2 -4/2/2
f -4/2/2 -7/2/2 -3/2/2
f -6/2/2 -5/2/2 -2/2/2
f -2/2/2 -5/2/2 -1/2/2
v 6 0 9
v 6 0 -7
v 6 5 3
v 6 5 -1
v 6 6 3
v 6 6 -1
v 6 10 9
v 6 10 7
v 6 10 4
v 6 10 -2
v 6 10 -5
v 6 10 -7
v 6 11 9
v 6 11 7
v 6 11 4
v 6 11 -2
v 6 11 -5
v 6 11 -7
v 6 13 5
v 6 13 4
v 6 13 -4
v 6 13 -5
v 6 14 7
v 6 14 5
v 6 14 4
v 6 14 -2
v 6 14 -4
v 6 14 -5
v 6 15 7
v 6 15 4
v 6 15 -2
v 6 15 -5
v 6 16 9
v 6 16 7
v 6 16 4
v 6 16 3
v 6 16 -1
v 6 16 -2
v 6 16 -5
v 6 16 -7
f -40/12/2 -39/12/2 -38/12/2
f -38/12/2 -39/12/2 -37/12/2
f -40/12/2 -38/12/2 -36/12/2
f -37/12/2 -39/12/2 -35/12/2
f -40/12/2 -36/12/2 -34/12/2
f -36/12/2 -35/12/2 -34/12/2
f -34/12/2 -35/12/2 -33/12/2
f -33/12/2 -35/12/2 -32/12/2
f -35/12/2 -39/12/2 -31/12/2
f -32/12/2 -35/12/2 -31/12/2
f -31/12/2 -39/12/2 -30/12/2
f -30/12/2 -39/12/2 -29/12/2
f -34/12/2 -33/12/2 -28/12/2
f -33/13/2 -32/13/2 -27/13/2
f -28/12/2 -33/12/2 -27/12/2
f -32/12/2 -31/12/2 -26/12/2
f -27/13/2 -32/13/2 -26/13/2
f -31/13/2 -30/13/2 -25/13/2
f -26/12/2 -31/12/2 -25/12/2
f -30/12/2 -29/12/2 -24/12/2
f -25/13/2 -30/13/2 -24/13/2
f -24/12/2 -29/12/2 -23/12/2
f -27/16/2 -26/16/2 -22/16/2
f -26/12/2 -25/12/2 -21/12/2
f -22/16/2 -26/16/2 -21/16/2
f -25/16/2 -24/16/2 -20/16/2
f -24/12/2 -23/12/2 -19/12/2
f -20/16/2 -24/16/2 -19/16/2
f -28/12/2 -27/12/2 -18/12/2
f -27/16/2 -22/16/2 -18/16/2
f -22/15/2 -21/15/2 -17/15/2
f -18/16/2 -22/16/2 -17/16/2
f -21/12/2 -25/12/2 -16/12/2
f -17/15/2 -21/15/2 -16/15/2
f -25/16/2 -20/16/2 -15/16/2
f -16/12/2 -25/12/2 -15/12/2
f -20/15/2 -19/15/2 -14/15/2
f -15/16/2 -20/16/2 -14/16/2
f -19/12/2 -23/12/2 -13/12/2
f -14/15/2 -19/15/2 -13/15/2
f -15/12/2 -14/12/2 -12/12/2
f -16/12/2 -15/12/2 -12/12/2
f -14/12/2 -13/12/2 -12/12/2
f -28/12/2 -18/12/2 -12/12/2
f -17/12/2 -16/12/2 -12/12/2
f -18/12/2 -17/12/2 -12/12/2
f -12/12/2 -13/12/2 -11/12/2
f -11/12/2 -13/12/2 -10/12/2
f -13/12/2 -23/12/2 -9/12/2
f -10/12/2 -13/12/2 -9/12/2
f -28/12/2 -12/12/2 -8/12/2
f -8/12/2 -12/12/2 -7/12/2
f -11/12/2 -10/12/2 -6/12/2
f -6/12/2 -10/12/2 -5/12/2
f -5/12/2 -10/12/2 -4/12/2
f -4/12/2 -10/12/2 -3/12/2
f -9/12/2 -23/12/2 -2/12/2
f -2/12/2 -23/12/2 -1/12/2
v 7 5 3
v 7 5 -1
v 7 6 3
v 7 6 -1
v 7 10 11
v 7 10 9
v 7 10 -7
v 7 10 -9
v 7 11 11
v 7 11 9
v 7 11 -7
v 7 11 -9
v 7 15 7
v 7 15 4
v 7 15 -2
v 7 15 -5
v 7 16 9
v 7 16 7
v 7 16 4
v 7 16 3
v 7 16 -1
v 7 16 -2
v 7 16 -5
v 7 16 -7
v 7 21 11
v 7 21 4
v 7 21 3
v 7 21 -1
v 7 21 -2
v 7 21 -9
f -30/7/2 -29/7/2 -28/7/2
f -28/7/2 -29/7/2 -27/7/2
f -26/1/2 -25/1/2 -22/1/2
f -22/1/2 -25/1/2 -21/1/2
f -24/1/2 -23/1/2 -20/1/2
f -20/1/2 -23/1/2 -19/1/2
f -22/2/2 -21/2/2 -14/2/2
f -18/5/2 -17/5/2 -13/5/2
f -13/5/2 -17/5/2 -12/5/2
f -16/5/2 -15/5/2 -9/5/2
f -9/5/2 -15/5/2 -8/5/2
f -20/2/2 -19/2/2 -7/2/2
f -22/2/2 -14/2/2 -6/2/2
f -14/2/2 -13/2/2 -6/2/2
f -13/2/2 -12/2/2 -6/2/2
f -12/10/2 -11/10/2 -5/10/2
f -6/2/2 -12/2/2 -5/2/2
f -11/15/2 -10/15/2 -4/15/2
f -5/10/2 -11/10/2 -4/10/2
f -10/10/2 -9/10/2 -3/10/2
f -4/15/2 -10/15/2 -3/15/2
f -9/2/2 -8/2/2 -2/2/2
f -3/10/2 -9/10/2 -2/10/2
f -8/2/2 -7/2/2 -2/2/2
f -7/2/2 -19/2/2 -1/2/2
f -2/2/2 -7/2/2 -1/2/2
v -9 10 11
v -9 11 11
v -9 21 11
v -3 12 11
v -3 16 11
v 1 12 11
v 1 16 11
v 7 10 11
v 7 11 11
v 7 21 11
f -7/2/3 -8/2/3 -9/2/3
f -6/2/3 -8/2/3 -7/2/3
f -5/2/3 -7/2/3 -9/2/3
f -4/2/3 -8/2/3 -6/2/3
f -3/1/3 -9/1/3 -10/1/3
f -2/2/3 -4/2/3 -5/2/3
f -2/1/3 -9/1/3 -3/1/3
f -2/2/3 -5/2/3 -9/2/3
f -1/2/3 -8/2/3 -4/2/3
f -1/2/3 -4/2/3 -2/2/3
v -3 12 10
v -3 16 10
v 1 12 10
v 1 16 10
f -2/1/3 -3/1/3 -4/1/3
f -1/1/3 -3/1/3 -2/1/3
v -7 0 9
v -7 10 9
v 6 0 9
v 6 10 9
f -2/12/3 -3/12/3 -4/12/3
f -1/12/3 -3/12/3 -2/12/3
v 6 15 7
v 6 16 7
v 7 15 7
v 7 16 7
f -2/5/3 -3/5/3 -4/5/3
f -1/5/3 -3/5/3 -2/5/3
v 6 5 3
v 6 6 3
v 7 5 3
v 7 6 3
f -2/7/3 -3/7/3 -4/7/3
f -1/7/3 -3/7/3 -2/7/3
v 6 15 -2
v 6 16 -2
v 7 15 -2
v 7 16 -2
f -2/5/3 -3/5/3 -4/5/3
f -1/5/3 -3/5/3 -2/5/3
v 6 10 -7
v 6 11 -7
v 6 16 -7
v 7 10 -7
v 7 11 -7
v 7 16 -7
f -3/1/3 -5/1/3 -6/1/3
f -2/2/3 -4/2/3 -5/2/3
f -2/1/3 -5/1/3 -3/1/3
f -1/2/3 -4/2/3 -2/2/3
v 6 10 9
v 6 11 9
v 6 16 9
v 7 10 9
v 7 11 9
v 7 16 9
f -6/1/4 -5/1/4 -3/1/4
f -5/2/4 -4/2/4 -2/2/4
f -3/1/4 -5/1/4 -2/1/4
f -2/2/4 -4/2/4 -1/2/4
v 6 15 4
v 6 16 4
v 7 15 4
v 7 16 4
f -4/5/4 -3/5/4 -2/5/4
f -2/5/4 -3/5/4 -1/5/4
v 6 5 -1
v 6 6 -1
v 7 5 -1
v 7 6 -1
f -4/7/4 -3/7/4 -2/7/4
f -2/7/4 -3/7/4 -1/7/4
v 6 15 -5
v 6 16 -5
v 7 15 -5
v 7 16 -5
f -4/5/4 -3/5/4 -2/5/4
f -2/5/4 -3/5/4 -1/5/4
v -7 0 -7
v -7 10 -7
v 6 0 -7
v 6 10 -7
f -4/12/4 -3/12/4 -2/12/4
f -2/12/4 -3/12/4 -1/12/4
v -3 12 -8
v -3 16 -8
v 1 12 -8
v 1 16 -8
f -4/1/4 -3/1/4 -2/1/4
f -2/1/4 -3/1/4 -1/1/4
v -9 10 -9
v -9 11 -9
v -9 21 -9
v -3 12 -9
v -3 16 -9
v 1 12 -9
v 1 16 -9
v 2 14 -9
v 2 21 -9
v 3 14 -9
v 3 16 -9
v 3 17 -9
v 3 21 -9
v 4 16 -9
v 4 17 -9
v 7 10 -9
v 7 11 -9
v 7 21 -9
f -17/2/4 -16/2/4 -15/2/4
f -15/2/4 -16/2/4 -14/2/4
f -17/2/4 -15/2/4 -13/2/4
f -14/2/4 -16/2/4 -12/2/4
f -13/2/4 -12/2/4 -11/2/4
f -12/2/4 -16/2/4 -10/2/4
f -11/2/4 -12/2/4 -10/2/4
f -13/2/4 -11/2/4 -9/2/4
f -11/1/4 -10/1/4 -9/1/4
f -9/1/4 -10/1/4 -8/1/4
f -8/1/4 -10/1/4 -7/1/4
f -7/1/4 -10/1/4 -6/1/4
f -9/2/4 -8/2/4 -5/2/4
f -8/1/4 -7/1/4 -5/1/4
f -7/2/4 -6/2/4 -4/2/4
f -5/1/4 -7/1/4 -4/1/4
f -18/1/4 -17/1/4 -3/1/4
f -17/2/4 -13/2/4 -2/2/4
f -3/1/4 -17/1/4 -2/1/4
f -13/2/4 -9/2/4 -2/2/4
f -5/2/4 -4/2/4 -2/2/4
f -9/2/4 -5/2/4 -2/2/4
f -4/2/4 -6/2/4 -1/2/4
f -2/2/4 -4/2/4 -1/2/4
v -7 0 9
v 6 0 9
v -7 0 -7
v 6 0 -7
f -2/12/5 -3/12/5 -4/12/5
f -1/12/5 -3/12/5 -2/12/5
v 6 5 3
v 7 5 3
v 6 5 -1
v 7 5 -1
f -2/7/5 -3/7/5 -4/7/5
f -1/7/5 -3/7/5 -2/7/5
v -9 10 11
v 7 10 11
v -7 10 9
v 6 10 9
v 7 10 9
v -9 10 4
v -8 10 4
v -9 10 3
v -8 10 3
v -9 10 -1
v -8 10 -1
v -9 10 -2
v -8 10 -2
v -7 10 -7
v 6 10 -7
v 7 10 -7
v -9 10 -9
v 7 10 -9
f -16/1/5 -17/1/5 -18/1/5
f -15/1/5 -17/1/5 -16/1/5
f -14/1/5 -17/1/5 -15/1/5
f -13/1/5 -16/1/5 -18/1/5
f -12/1/5 -16/1/5 -13/1/5
f -11/10/5 -12/10/5 -13/10/5
f -10/1/5 -16/1/5 -12/1/5
f -10/10/5 -12/10/5 -11/10/5
f -9/15/5 -10/15/5 -11/15/5
f -8/1/5 -16/1/5 -10/1/5
f -8/15/5 -10/15/5 -9/15/5
f -7/10/5 -8/10/5 -9/10/5
f -6/1/5 -16/1/5 -8/1/5
f -6/10/5 -8/10/5 -7/10/5
f -5/1/5 -6/1/5 -7/1/5
f -5/1/5 -16/1/5 -6/1/5
f -2/1/5 -5/1/5 -7/1/5
f -2/1/5 -3/1/5 -4/1/5
f -2/1/5 -4/1/5 -5/1/5
f -1/1/5 -3/1/5 -2/1/5
v 6 15 7
v 7 15 7
v 6 15 4
v 7 15 4
v 6 15 -2
v 7 15 -2
v 6 15 -5
v 7 15 -5
f -6/5/5 -7/5/5 -8/5/5
f -5/5/5 -7/5/5 -6/5/5
f -2/5/5 -3/5/5 -4/5/5
f -1/5/5 -3/5/5 -2/5/5
v -3 16 11
v 1 16 11
v -3 16 10
v 1 16 10
v 6 16 9
v 7 16 9
v 6 16 7
v 7 16 7
v 6 16 4
v 7 16 4
v 6 16 3
v 7 16 3
v 6 16 -1
v 7 16 -1
v 6 16 -2
v 7 16 -2
v 6 16 -5
v 7 16 -5
v 6 16 -7
v 7 16 -7
v -3 16 -8
v 1 16 -8
v -3 16 -9
v 1 16 -9
f -22/2/5 -23/2/5 -24/2/5
f -21/2/5 -23/2/5 -22/2/5
f -18/2/5 -19/2/5 -20/2/5
f -17/2/5 -19/2/5 -18/2/5
f -14/10/5 -15/10/5 -16/10/5
f -13/10/5 -15/10/5 -14/10/5
f -12/15/5 -13/15/5 -14/15/5
f -11/15/5 -13/15/5 -12/15/5
f -10/10/5 -11/10/5 -12/10/5
f -9/10/5 -11/10/5 -10/10/5
f -6/2/5 -7/2/5 -8/2/5
f -5/2/5 -7/2/5 -6/2/5
f -2/2/5 -3/2/5 -4/2/5
f -1/2/5 -3/2/5 -2/2/5
v 6 6 3
v 7 6 3
v 6 6 -1
v 7 6 -1
f -4/7/6 -3/7/6 -2/7/6
f -2/7/6 -3/7/6 -1/7/6
v -3 12 11
v 1 12 11
v -3 12 10
v 1 12 10
v -3 12 -8
v 1 12 -8
v -3 12 -9
v 1 12 -9
f -8/2/6 -7/2/6 -6/2/6
f -6/2/6 -7/2/6 -5/2/6
f -4/2/6 -3/2/6 -2/2/6
f -2/2/6 -3/2/6 -1/2/6
v -9 21 11
v 7 21 11
v -9 21 4
v 7 21 4
v -9 21 3
v 7 21 3
v -9 21 -1
v 7 21 -1
v -9 21 -2
v 7 21 -2
v 2 21 -8
v 3 21 -8
v -9 21 -9
v 2 21 -9
v 3 21 -9
v 7 21 -9
f -16/2/6 -15/2/6 -14/2/6
f -14/2/6 -15/2/6 -13/2/6
f -14/10/6 -13/10/6 -12/10/6
f -12/10/6 -13/10/6 -11/10/6
f -12/15/6 -11/15/6 -10/15/6
f -10/15/6 -11/15/6 -9/15/6
f -10/10/6 -9/10/6 -8/10/6
f -8/10/6 -9/10/6 -7/10/6
f -8/2/6 -7/2/6 -6/2/6
f -6/2/6 -7/2/6 -5/2/6
f -8/2/6 -6/2/6 -4/2/6
f -6/1/6 -5/1/6 -3/1/6
f -4/2/6 -6/2/6 -3/2/6
f -5/2/6 -7/2/6 -2/2/6
f -3/1/6 -5/1/6 -2/1/6
f -2/2/6 -7/2/6 -1/2/6
