# MagicaVoxel @ ephtracy

# material
mtllib cubeboy25.mtl

# mesh name
g cubeboy25_mesh

# normals
vn -1 0 0
vn 1 0 0
vn 0 0 1
vn 0 0 -1
vn 0 -1 0
vn 0 1 0

# texcoords
vt 0.0605469 0.5
vt 0.533203 0.5
vt 0.537109 0.5
vt 0.962891 0.5
vt 0.990234 0.5
vt 0.994141 0.5

# verts
v -8 0 9
v -8 0 -7
v -8 17 9
v -8 17 -7
f -2/3/1 -3/3/1 -4/3/1
f -1/3/1 -3/3/1 -2/3/1
v -4 17 8
v -4 17 4
v -4 17 -2
v -4 17 -6
v -4 20 8
v -4 20 4
v -4 20 -2
v -4 20 -6
f -4/3/1 -7/3/1 -8/3/1
f -3/3/1 -7/3/1 -4/3/1
f -2/3/1 -5/3/1 -6/3/1
f -1/3/1 -5/3/1 -2/3/1
v 0 17 8
v 0 17 7
v 0 17 5
v 0 17 4
v 0 17 -2
v 0 17 -3
v 0 17 -5
v 0 17 -6
v 0 19 7
v 0 19 5
v 0 19 -3
v 0 19 -5
v 0 20 8
v 0 20 4
v 0 20 -2
v 0 20 -6
f -16/3/2 -15/3/2 -8/3/2
f -15/1/2 -14/1/2 -8/1/2
f -14/3/2 -13/3/2 -7/3/2
f -8/1/2 -14/1/2 -7/1/2
f -11/1/2 -10/1/2 -6/1/2
f -12/3/2 -11/3/2 -6/3/2
f -10/3/2 -9/3/2 -5/3/2
f -6/1/2 -10/1/2 -5/1/2
f -16/3/2 -8/3/2 -4/3/2
f -8/3/2 -7/3/2 -4/3/2
f -7/3/2 -13/3/2 -3/3/2
f -4/3/2 -7/3/2 -3/3/2
f -12/3/2 -6/3/2 -2/3/2
f -6/3/2 -5/3/2 -2/3/2
f -5/3/2 -9/3/2 -1/3/2
f -2/3/2 -5/3/2 -1/3/2
v 5 0 9
v 5 0 -7
v 5 2 7
v 5 2 -5
v 5 7 7
v 5 7 4
v 5 7 -2
v 5 7 -5
v 5 8 4
v 5 8 2
v 5 8 -0
v 5 8 -2
v 5 9 7
v 5 9 3
v 5 9 -1
v 5 9 -5
v 5 10 7
v 5 10 3
v 5 10 -1
v 5 10 -5
v 5 13 4
v 5 13 3
v 5 13 -4
v 5 13 -5
v 5 14 7
v 5 14 4
v 5 14 3
v 5 14 -1
v 5 14 -4
v 5 14 -5
v 5 17 9
v 5 17 -7
f -32/3/2 -31/3/2 -30/3/2
f -30/3/2 -31/3/2 -29/3/2
f -32/3/2 -30/3/2 -28/3/2
f -29/3/2 -31/3/2 -25/3/2
f -28/3/2 -27/3/2 -24/3/2
f -26/3/2 -25/3/2 -21/3/2
f -23/3/2 -22/3/2 -20/3/2
f -22/3/2 -21/3/2 -20/3/2
f -32/3/2 -28/3/2 -20/3/2
f -28/3/2 -24/3/2 -20/3/2
f -24/3/2 -23/3/2 -20/3/2
f -20/3/2 -21/3/2 -19/3/2
f -19/3/2 -21/3/2 -18/3/2
f -21/3/2 -25/3/2 -17/3/2
f -18/3/2 -21/3/2 -17/3/2
f -25/3/2 -31/3/2 -17/3/2
f -20/2/2 -19/2/2 -16/2/2
f -32/3/2 -20/3/2 -16/3/2
f -19/3/2 -18/3/2 -15/3/2
f -16/2/2 -19/2/2 -15/2/2
f -18/2/2 -17/2/2 -14/2/2
f -15/3/2 -18/3/2 -14/3/2
f -17/3/2 -31/3/2 -13/3/2
f -14/2/2 -17/2/2 -13/2/2
f -16/6/2 -15/6/2 -12/6/2
f -15/3/2 -14/3/2 -11/3/2
f -12/6/2 -15/6/2 -11/6/2
f -14/6/2 -13/6/2 -10/6/2
f -13/3/2 -31/3/2 -9/3/2
f -10/6/2 -13/6/2 -9/6/2
f -32/3/2 -16/3/2 -8/3/2
f -16/6/2 -12/6/2 -8/6/2
f -12/4/2 -11/4/2 -7/4/2
f -8/6/2 -12/6/2 -7/6/2
f -11/3/2 -14/3/2 -6/3/2
f -7/4/2 -11/4/2 -6/4/2
f -14/6/2 -10/6/2 -5/6/2
f -6/3/2 -14/3/2 -5/3/2
f -10/4/2 -9/4/2 -4/4/2
f -5/6/2 -10/6/2 -4/6/2
f -9/3/2 -31/3/2 -3/3/2
f -4/4/2 -9/4/2 -3/4/2
f -5/3/2 -4/3/2 -2/3/2
f -6/3/2 -5/3/2 -2/3/2
f -4/3/2 -3/3/2 -2/3/2
f -32/3/2 -8/3/2 -2/3/2
f -8/3/2 -7/3/2 -2/3/2
f -7/3/2 -6/3/2 -2/3/2
f -3/3/2 -31/3/2 -1/3/2
f -2/3/2 -3/3/2 -1/3/2
v 6 2 7
v 6 2 -5
v 6 4 5
v 6 4 -3
v 6 5 5
v 6 5 -3
v 6 6 2
v 6 6 -0
v 6 7 7
v 6 7 4
v 6 7 -2
v 6 7 -5
v 6 8 4
v 6 8 2
v 6 8 -0
v 6 8 -2
f -16/1/2 -15/1/2 -14/1/2
f -14/1/2 -15/1/2 -13/1/2
f -16/1/2 -14/1/2 -12/1/2
f -14/5/2 -13/5/2 -12/5/2
f -13/1/2 -15/1/2 -11/1/2
f -12/5/2 -13/5/2 -11/5/2
f -12/1/2 -11/1/2 -10/1/2
f -10/1/2 -11/1/2 -9/1/2
f -16/1/2 -12/1/2 -8/1/2
f -12/1/2 -10/1/2 -8/1/2
f -8/1/2 -10/1/2 -7/1/2
f -9/1/2 -11/1/2 -6/1/2
f -11/1/2 -15/1/2 -5/1/2
f -6/1/2 -11/1/2 -5/1/2
f -7/1/2 -10/1/2 -4/1/2
f -10/5/2 -9/5/2 -3/5/2
f -4/1/2 -10/1/2 -3/1/2
f -9/1/2 -6/1/2 -2/1/2
f -3/5/2 -9/5/2 -2/5/2
f -2/1/2 -6/1/2 -1/1/2
v -8 0 9
v -8 17 9
v 5 0 9
v 5 17 9
f -2/3/3 -3/3/3 -4/3/3
f -1/3/3 -3/3/3 -2/3/3
v -4 17 8
v -4 20 8
v 0 17 8
v 0 20 8
f -2/3/3 -3/3/3 -4/3/3
f -1/3/3 -3/3/3 -2/3/3
v 5 2 7
v 5 7 7
v 6 2 7
v 6 7 7
f -2/1/3 -3/1/3 -4/1/3
f -1/1/3 -3/1/3 -2/1/3
v 5 7 4
v 5 8 4
v 6 7 4
v 6 8 4
f -2/1/3 -3/1/3 -4/1/3
f -1/1/3 -3/1/3 -2/1/3
v -4 17 -2
v -4 20 -2
v 0 17 -2
v 0 20 -2
f -2/3/3 -3/3/3 -4/3/3
f -1/3/3 -3/3/3 -2/3/3
v -4 17 4
v -4 20 4
v 0 17 4
v 0 20 4
f -4/3/4 -3/3/4 -2/3/4
f -2/3/4 -3/3/4 -1/3/4
v 5 7 -2
v 5 8 -2
v 6 7 -2
v 6 8 -2
f -4/1/4 -3/1/4 -2/1/4
f -2/1/4 -3/1/4 -1/1/4
v 5 2 -5
v 5 7 -5
v 6 2 -5
v 6 7 -5
f -4/1/4 -3/1/4 -2/1/4
f -2/1/4 -3/1/4 -1/1/4
v -4 17 -6
v -4 20 -6
v 0 17 -6
v 0 20 -6
f -4/3/4 -3/3/4 -2/3/4
f -2/3/4 -3/3/4 -1/3/4
v -8 0 -7
v -8 17 -7
v 5 0 -7
v 5 17 -7
f -4/3/4 -3/3/4 -2/3/4
f -2/3/4 -3/3/4 -1/3/4
v -8 0 9
v 5 0 9
v -8 0 -7
v 5 0 -7
f -2/3/5 -3/3/5 -4/3/5
f -1/3/5 -3/3/5 -2/3/5
v 5 2 7
v 6 2 7
v 5 2 -5
v 6 2 -5
f -2/1/5 -3/1/5 -4/1/5
f -1/1/5 -3/1/5 -2/1/5
v 5 7 7
v 6 7 7
v 5 7 4
v 6 7 4
v 5 7 -2
v 6 7 -2
v 5 7 -5
v 6 7 -5
f -8/1/6 -7/1/6 -6/1/6
f -6/1/6 -7/1/6 -5/1/6
f -4/1/6 -3/1/6 -2/1/6
f -2/1/6 -3/1/6 -1/1/6
v 5 8 4
v 6 8 4
v 5 8 2
v 6 8 2
v 5 8 -0
v 6 8 -0
v 5 8 -2
v 6 8 -2
f -8/1/6 -7/1/6 -6/1/6
f -6/1/6 -7/1/6 -5/1/6
f -6/5/6 -5/5/6 -4/5/6
f -4/5/6 -5/5/6 -3/5/6
f -4/1/6 -3/1/6 -2/1/6
f -2/1/6 -3/1/6 -1/1/6
v -8 17 9
v 5 17 9
v -4 17 8
v 0 17 8
v 0 17 7
v 0 17 5
v -4 17 4
v 0 17 4
v -4 17 -2
v 0 17 -2
v 0 17 -3
v 0 17 -5
v -4 17 -6
v 0 17 -6
v -8 17 -7
v 5 17 -7
f -16/3/6 -15/3/6 -14/3/6
f -14/3/6 -15/3/6 -13/3/6
f -13/3/6 -15/3/6 -12/3/6
f -12/3/6 -15/3/6 -11/3/6
f -16/3/6 -14/3/6 -10/3/6
f -11/3/6 -15/3/6 -9/3/6
f -16/3/6 -10/3/6 -8/3/6
f -10/3/6 -9/3/6 -8/3/6
f -9/3/6 -15/3/6 -7/3/6
f -8/3/6 -9/3/6 -7/3/6
f -7/3/6 -15/3/6 -6/3/6
f -6/3/6 -15/3/6 -5/3/6
f -16/3/6 -8/3/6 -4/3/6
f -5/3/6 -15/3/6 -3/3/6
f -16/3/6 -4/3/6 -2/3/6
f -4/3/6 -3/3/6 -2/3/6
f -3/3/6 -15/3/6 -1/3/6
f -2/3/6 -3/3/6 -1/3/6
v -4 20 8
v 0 20 8
v -4 20 4
v 0 20 4
v -4 20 -2
v 0 20 -2
v -4 20 -6
v 0 20 -6
f -8/3/6 -7/3/6 -6/3/6
f -6/3/6 -7/3/6 -5/3/6
f -4/3/6 -3/3/6 -2/3/6
f -2/3/6 -3/3/6 -1/3/6
