# MagicaVoxel @ ephtracy

# material
mtllib cubeboy3.mtl

# mesh name
g cubeboy3_mesh

# normals
vn -1 0 0
vn 1 0 0
vn 0 0 1
vn 0 0 -1
vn 0 -1 0
vn 0 1 0

# texcoords
vt 0.537109 0.5
vt 0.560547 0.5
vt 0.744141 0.5
vt 0.748047 0.5
vt 0.771484 0.5
vt 0.873047 0.5
vt 0.892578 0.5
vt 0.958984 0.5
vt 0.994141 0.5

# verts
v -12.5 15 12
v -12.5 15 -10
v -12.5 16 12
v -12.5 16 -10
f -2/1/1 -3/1/1 -4/1/1
f -1/1/1 -3/1/1 -2/1/1
v -11.5 15 13
v -11.5 15 12
v -11.5 15 -10
v -11.5 15 -11
v -11.5 16 13
v -11.5 16 12
v -11.5 16 -10
v -11.5 16 -11
f -4/1/1 -7/1/1 -8/1/1
f -3/1/1 -7/1/1 -4/1/1
f -2/1/1 -5/1/1 -6/1/1
f -1/1/1 -5/1/1 -2/1/1
v -10.5 15 14
v -10.5 15 13
v -10.5 15 -11
v -10.5 15 -12
v -10.5 16 14
v -10.5 16 13
v -10.5 16 -11
v -10.5 16 -12
f -4/1/1 -7/1/1 -8/1/1
f -3/1/1 -7/1/1 -4/1/1
f -2/1/1 -5/1/1 -6/1/1
f -1/1/1 -5/1/1 -2/1/1
v -7.5 0 9
v -7.5 0 -7
v -7.5 15 9
v -7.5 15 -7
v -7.5 16 9
v -7.5 16 -7
v -7.5 18 9
v -7.5 18 -7
v -7.5 23 9
v -7.5 23 -7
f -8/4/1 -9/4/1 -10/4/1
f -7/4/1 -9/4/1 -8/4/1
f -4/6/1 -5/6/1 -6/6/1
f -3/6/1 -5/6/1 -4/6/1
f -2/1/1 -3/1/1 -4/1/1
f -1/1/1 -3/1/1 -2/1/1
v -6.5 2 10
v -6.5 2 9
v -6.5 11 10
v -6.5 11 9
f -2/1/1 -3/1/1 -4/1/1
f -1/1/1 -3/1/1 -2/1/1
v -4.5 5 10
v -4.5 5 9
v -4.5 10 10
v -4.5 10 9
f -2/1/1 -3/1/1 -4/1/1
f -1/1/1 -3/1/1 -2/1/1
v 0.5 6 10
v 0.5 6 9
v 0.5 10 10
v 0.5 10 9
f -2/1/1 -3/1/1 -4/1/1
f -1/1/1 -3/1/1 -2/1/1
v -5.5 2 10
v -5.5 2 9
v -5.5 10 10
v -5.5 10 9
f -4/1/2 -3/1/2 -2/1/2
f -2/1/2 -3/1/2 -1/1/2
v -3.5 6 10
v -3.5 6 9
v -3.5 10 10
v -3.5 10 9
f -4/1/2 -3/1/2 -2/1/2
f -2/1/2 -3/1/2 -1/1/2
v 1.5 5 10
v 1.5 5 9
v 1.5 11 10
v 1.5 11 9
f -4/1/2 -3/1/2 -2/1/2
f -2/1/2 -3/1/2 -1/1/2
v 5.5 0 9
v 5.5 0 -7
v 5.5 5 4
v 5.5 5 -2
v 5.5 6 4
v 5.5 6 -2
v 5.5 8 9
v 5.5 8 -7
v 5.5 10 7
v 5.5 10 4
v 5.5 10 -2
v 5.5 10 -5
v 5.5 11 7
v 5.5 11 4
v 5.5 11 -2
v 5.5 11 -5
v 5.5 13 5
v 5.5 13 4
v 5.5 13 -4
v 5.5 13 -5
v 5.5 14 8
v 5.5 14 7
v 5.5 14 5
v 5.5 14 4
v 5.5 14 3
v 5.5 14 -1
v 5.5 14 -2
v 5.5 14 -4
v 5.5 14 -5
v 5.5 14 -6
v 5.5 15 9
v 5.5 15 8
v 5.5 15 3
v 5.5 15 -1
v 5.5 15 -6
v 5.5 15 -7
v 5.5 16 9
v 5.5 16 -7
v 5.5 18 9
v 5.5 18 -7
v 5.5 23 9
v 5.5 23 -7
f -42/7/2 -41/7/2 -40/7/2
f -40/7/2 -41/7/2 -39/7/2
f -42/7/2 -40/7/2 -38/7/2
f -39/7/2 -41/7/2 -37/7/2
f -42/7/2 -38/7/2 -36/7/2
f -38/7/2 -37/7/2 -36/7/2
f -37/7/2 -41/7/2 -35/7/2
f -36/7/2 -37/7/2 -35/7/2
f -36/4/2 -35/4/2 -34/4/2
f -34/4/2 -35/4/2 -33/4/2
f -33/4/2 -35/4/2 -32/4/2
f -32/4/2 -35/4/2 -31/4/2
f -36/4/2 -34/4/2 -30/4/2
f -34/5/2 -33/5/2 -30/5/2
f -33/4/2 -32/4/2 -29/4/2
f -30/5/2 -33/5/2 -29/5/2
f -32/5/2 -31/5/2 -28/5/2
f -29/4/2 -32/4/2 -28/4/2
f -31/4/2 -35/4/2 -27/4/2
f -28/5/2 -31/5/2 -27/5/2
f -30/9/2 -29/9/2 -26/9/2
f -29/4/2 -28/4/2 -25/4/2
f -26/9/2 -29/9/2 -25/9/2
f -28/9/2 -27/9/2 -24/9/2
f -27/4/2 -35/4/2 -23/4/2
f -24/9/2 -27/9/2 -23/9/2
f -36/4/2 -30/4/2 -22/4/2
f -30/9/2 -26/9/2 -21/9/2
f -22/4/2 -30/4/2 -21/4/2
f -26/8/2 -25/8/2 -20/8/2
f -21/9/2 -26/9/2 -20/9/2
f -25/4/2 -28/4/2 -19/4/2
f -20/8/2 -25/8/2 -19/8/2
f -19/4/2 -28/4/2 -18/4/2
f -18/4/2 -28/4/2 -17/4/2
f -28/9/2 -24/9/2 -16/9/2
f -17/4/2 -28/4/2 -16/4/2
f -24/8/2 -23/8/2 -15/8/2
f -16/9/2 -24/9/2 -15/9/2
f -23/4/2 -35/4/2 -14/4/2
f -15/8/2 -23/8/2 -14/8/2
f -14/4/2 -35/4/2 -13/4/2
f -36/4/2 -22/4/2 -12/4/2
f -12/4/2 -22/4/2 -11/4/2
f -18/4/2 -17/4/2 -10/4/2
f -10/4/2 -17/4/2 -9/4/2
f -13/4/2 -35/4/2 -8/4/2
f -8/4/2 -35/4/2 -7/4/2
f -6/6/2 -5/6/2 -4/6/2
f -4/6/2 -5/6/2 -3/6/2
f -4/1/2 -3/1/2 -2/1/2
f -2/1/2 -3/1/2 -1/1/2
v 6.5 5 4
v 6.5 5 -2
v 6.5 6 4
v 6.5 6 -2
v 6.5 14 8
v 6.5 14 3
v 6.5 14 -1
v 6.5 14 -6
v 6.5 15 8
v 6.5 15 3
v 6.5 15 -1
v 6.5 15 -6
f -12/9/2 -11/9/2 -10/9/2
f -10/9/2 -11/9/2 -9/9/2
f -8/6/2 -7/6/2 -4/6/2
f -4/6/2 -7/6/2 -3/6/2
f -6/6/2 -5/6/2 -2/6/2
f -2/6/2 -5/6/2 -1/6/2
v 8.5 15 14
v 8.5 15 13
v 8.5 15 -11
v 8.5 15 -12
v 8.5 16 14
v 8.5 16 13
v 8.5 16 -11
v 8.5 16 -12
f -8/1/2 -7/1/2 -4/1/2
f -4/1/2 -7/1/2 -3/1/2
f -6/1/2 -5/1/2 -2/1/2
f -2/1/2 -5/1/2 -1/1/2
v 9.5 15 13
v 9.5 15 12
v 9.5 15 -10
v 9.5 15 -11
v 9.5 16 13
v 9.5 16 12
v 9.5 16 -10
v 9.5 16 -11
f -8/1/2 -7/1/2 -4/1/2
f -4/1/2 -7/1/2 -3/1/2
f -6/1/2 -5/1/2 -2/1/2
f -2/1/2 -5/1/2 -1/1/2
v 10.5 15 12
v 10.5 15 -10
v 10.5 16 12
v 10.5 16 -10
f -4/1/2 -3/1/2 -2/1/2
f -2/1/2 -3/1/2 -1/1/2
v -10.5 15 14
v -10.5 16 14
v 8.5 15 14
v 8.5 16 14
f -2/1/3 -3/1/3 -4/1/3
f -1/1/3 -3/1/3 -2/1/3
v -11.5 15 13
v -11.5 16 13
v -10.5 15 13
v -10.5 16 13
v 8.5 15 13
v 8.5 16 13
v 9.5 15 13
v 9.5 16 13
f -6/1/3 -7/1/3 -8/1/3
f -5/1/3 -7/1/3 -6/1/3
f -2/1/3 -3/1/3 -4/1/3
f -1/1/3 -3/1/3 -2/1/3
v -12.5 15 12
v -12.5 16 12
v -11.5 15 12
v -11.5 16 12
v 9.5 15 12
v 9.5 16 12
v 10.5 15 12
v 10.5 16 12
f -6/1/3 -7/1/3 -8/1/3
f -5/1/3 -7/1/3 -6/1/3
f -2/1/3 -3/1/3 -4/1/3
f -1/1/3 -3/1/3 -2/1/3
v -6.5 2 10
v -6.5 11 10
v -5.5 2 10
v -5.5 10 10
v -4.5 5 10
v -4.5 10 10
v -3.5 6 10
v -3.5 10 10
v 0.5 6 10
v 0.5 10 10
v 1.5 5 10
v 1.5 11 10
f -10/1/3 -11/1/3 -12/1/3
f -9/1/3 -11/1/3 -10/1/3
f -7/1/3 -11/1/3 -9/1/3
f -6/1/3 -7/1/3 -8/1/3
f -5/1/3 -11/1/3 -7/1/3
f -5/1/3 -7/1/3 -6/1/3
f -4/1/3 -6/1/3 -8/1/3
f -3/1/3 -11/1/3 -5/1/3
f -2/1/3 -4/1/3 -8/1/3
f -2/1/3 -3/1/3 -4/1/3
f -1/1/3 -11/1/3 -3/1/3
f -1/1/3 -3/1/3 -2/1/3
v -7.5 0 9
v -7.5 15 9
v -7.5 16 9
v -7.5 18 9
v -7.5 23 9
v -6.5 2 9
v -6.5 11 9
v -5.5 2 9
v -5.5 10 9
v -4.5 5 9
v -4.5 10 9
v -3.5 6 9
v -3.5 10 9
v 0.5 6 9
v 0.5 10 9
v 1.5 5 9
v 1.5 11 9
v 4.5 0 9
v 4.5 8 9
v 5.5 0 9
v 5.5 8 9
v 5.5 15 9
v 5.5 16 9
v 5.5 18 9
v 5.5 23 9
f -20/4/3 -24/4/3 -25/4/3
f -19/4/3 -24/4/3 -20/4/3
f -18/4/3 -20/4/3 -25/4/3
f -16/4/3 -17/4/3 -18/4/3
f -15/4/3 -17/4/3 -16/4/3
f -12/3/3 -13/3/3 -14/3/3
f -11/3/3 -13/3/3 -12/3/3
f -10/4/3 -16/4/3 -18/4/3
f -9/4/3 -24/4/3 -19/4/3
f -8/4/3 -10/4/3 -18/4/3
f -8/4/3 -9/4/3 -10/4/3
f -8/4/3 -18/4/3 -25/4/3
f -7/4/3 -9/4/3 -8/4/3
f -6/7/3 -7/7/3 -8/7/3
f -5/4/3 -9/4/3 -7/4/3
f -5/7/3 -7/7/3 -6/7/3
f -4/4/3 -24/4/3 -9/4/3
f -4/4/3 -9/4/3 -5/4/3
f -3/6/3 -22/6/3 -23/6/3
f -2/1/3 -21/1/3 -22/1/3
f -2/6/3 -22/6/3 -3/6/3
f -1/1/3 -21/1/3 -2/1/3
v 5.5 14 8
v 5.5 15 8
v 6.5 14 8
v 6.5 15 8
f -2/6/3 -3/6/3 -4/6/3
f -1/6/3 -3/6/3 -2/6/3
v 5.5 5 4
v 5.5 6 4
v 6.5 5 4
v 6.5 6 4
f -2/9/3 -3/9/3 -4/9/3
f -1/9/3 -3/9/3 -2/9/3
v 5.5 14 -1
v 5.5 15 -1
v 6.5 14 -1
v 6.5 15 -1
f -2/6/3 -3/6/3 -4/6/3
f -1/6/3 -3/6/3 -2/6/3
v 5.5 14 3
v 5.5 15 3
v 6.5 14 3
v 6.5 15 3
f -4/6/4 -3/6/4 -2/6/4
f -2/6/4 -3/6/4 -1/6/4
v 5.5 5 -2
v 5.5 6 -2
v 6.5 5 -2
v 6.5 6 -2
f -4/9/4 -3/9/4 -2/9/4
f -2/9/4 -3/9/4 -1/9/4
v 5.5 14 -6
v 5.5 15 -6
v 6.5 14 -6
v 6.5 15 -6
f -4/6/4 -3/6/4 -2/6/4
f -2/6/4 -3/6/4 -1/6/4
v -7.5 0 -7
v -7.5 15 -7
v -7.5 16 -7
v -7.5 18 -7
v -7.5 23 -7
v -3.5 6 -7
v -3.5 10 -7
v 0.5 6 -7
v 0.5 10 -7
v 4.5 0 -7
v 4.5 8 -7
v 5.5 0 -7
v 5.5 8 -7
v 5.5 15 -7
v 5.5 16 -7
v 5.5 18 -7
v 5.5 23 -7
f -17/4/4 -16/4/4 -12/4/4
f -12/4/4 -16/4/4 -11/4/4
f -17/4/4 -12/4/4 -10/4/4
f -12/3/4 -11/3/4 -10/3/4
f -11/4/4 -16/4/4 -9/4/4
f -10/3/4 -11/3/4 -9/3/4
f -17/4/4 -10/4/4 -8/4/4
f -10/4/4 -9/4/4 -8/4/4
f -8/4/4 -9/4/4 -7/4/4
f -8/7/4 -7/7/4 -6/7/4
f -7/4/4 -9/4/4 -5/4/4
f -6/7/4 -7/7/4 -5/7/4
f -9/4/4 -16/4/4 -4/4/4
f -5/4/4 -9/4/4 -4/4/4
f -15/6/4 -14/6/4 -3/6/4
f -14/1/4 -13/1/4 -2/1/4
f -3/6/4 -14/6/4 -2/6/4
f -2/1/4 -13/1/4 -1/1/4
v -12.5 15 -10
v -12.5 16 -10
v -11.5 15 -10
v -11.5 16 -10
v 9.5 15 -10
v 9.5 16 -10
v 10.5 15 -10
v 10.5 16 -10
f -8/1/4 -7/1/4 -6/1/4
f -6/1/4 -7/1/4 -5/1/4
f -4/1/4 -3/1/4 -2/1/4
f -2/1/4 -3/1/4 -1/1/4
v -11.5 15 -11
v -11.5 16 -11
v -10.5 15 -11
v -10.5 16 -11
v 8.5 15 -11
v 8.5 16 -11
v 9.5 15 -11
v 9.5 16 -11
f -8/1/4 -7/1/4 -6/1/4
f -6/1/4 -7/1/4 -5/1/4
f -4/1/4 -3/1/4 -2/1/4
f -2/1/4 -3/1/4 -1/1/4
v -10.5 15 -12
v -10.5 16 -12
v 8.5 15 -12
v 8.5 16 -12
f -4/1/4 -3/1/4 -2/1/4
f -2/1/4 -3/1/4 -1/1/4
v -7.5 0 9
v 4.5 0 9
v 5.5 0 9
v -3.5 0 8
v 0.5 0 8
v -3.5 0 4
v 0.5 0 4
v -3.5 0 -2
v 0.5 0 -2
v -3.5 0 -6
v 0.5 0 -6
v -7.5 0 -7
v 4.5 0 -7
v 5.5 0 -7
f -11/4/5 -13/4/5 -14/4/5
f -10/4/5 -13/4/5 -11/4/5
f -9/4/5 -11/4/5 -14/4/5
f -9/3/5 -10/3/5 -11/3/5
f -8/4/5 -13/4/5 -10/4/5
f -8/3/5 -10/3/5 -9/3/5
f -7/4/5 -9/4/5 -14/4/5
f -7/4/5 -8/4/5 -9/4/5
f -6/4/5 -13/4/5 -8/4/5
f -6/4/5 -8/4/5 -7/4/5
f -5/4/5 -7/4/5 -14/4/5
f -5/3/5 -6/3/5 -7/3/5
f -4/4/5 -13/4/5 -6/4/5
f -4/3/5 -6/3/5 -5/3/5
f -3/4/5 -5/4/5 -14/4/5
f -3/4/5 -4/4/5 -5/4/5
f -2/7/5 -12/7/5 -13/7/5
f -2/4/5 -4/4/5 -3/4/5
f -2/4/5 -13/4/5 -4/4/5
f -1/7/5 -12/7/5 -2/7/5
v -6.5 2 10
v -5.5 2 10
v -6.5 2 9
v -5.5 2 9
f -2/1/5 -3/1/5 -4/1/5
f -1/1/5 -3/1/5 -2/1/5
v -4.5 5 10
v 1.5 5 10
v -4.5 5 9
v 1.5 5 9
v 5.5 5 4
v 6.5 5 4
v 5.5 5 -2
v 6.5 5 -2
f -6/1/5 -7/1/5 -8/1/5
f -5/1/5 -7/1/5 -6/1/5
f -2/9/5 -3/9/5 -4/9/5
f -1/9/5 -3/9/5 -2/9/5
v -5.5 10 10
v -4.5 10 10
v -3.5 10 10
v 0.5 10 10
v -5.5 10 9
v -4.5 10 9
v -3.5 10 9
v 0.5 10 9
f -4/1/5 -7/1/5 -8/1/5
f -3/1/5 -7/1/5 -4/1/5
f -2/1/5 -5/1/5 -6/1/5
f -1/1/5 -5/1/5 -2/1/5
v 5.5 14 8
v 6.5 14 8
v 5.5 14 7
v 5.5 14 5
v 5.5 14 4
v 5.5 14 3
v 6.5 14 3
v 5.5 14 -1
v 6.5 14 -1
v 5.5 14 -2
v 5.5 14 -4
v 5.5 14 -5
v 5.5 14 -6
v 6.5 14 -6
f -12/6/5 -13/6/5 -14/6/5
f -11/6/5 -13/6/5 -12/6/5
f -10/6/5 -13/6/5 -11/6/5
f -9/6/5 -13/6/5 -10/6/5
f -8/6/5 -13/6/5 -9/6/5
f -5/6/5 -6/6/5 -7/6/5
f -4/6/5 -6/6/5 -5/6/5
f -3/6/5 -6/6/5 -4/6/5
f -2/6/5 -6/6/5 -3/6/5
f -1/6/5 -6/6/5 -2/6/5
v -10.5 15 14
v 8.5 15 14
v -11.5 15 13
v -10.5 15 13
v 8.5 15 13
v 9.5 15 13
v -12.5 15 12
v -11.5 15 12
v 9.5 15 12
v 10.5 15 12
v -7.5 15 9
v 5.5 15 9
v 5.5 15 8
v 6.5 15 8
v 5.5 15 3
v 6.5 15 3
v 5.5 15 -1
v 6.5 15 -1
v 5.5 15 -6
v 6.5 15 -6
v -7.5 15 -7
v 5.5 15 -7
v -12.5 15 -10
v -11.5 15 -10
v 9.5 15 -10
v 10.5 15 -10
v -11.5 15 -11
v -10.5 15 -11
v 8.5 15 -11
v 9.5 15 -11
v -10.5 15 -12
v 8.5 15 -12
f -29/1/5 -31/1/5 -32/1/5
f -28/1/5 -31/1/5 -29/1/5
f -25/1/5 -29/1/5 -30/1/5
f -25/1/5 -27/1/5 -28/1/5
f -25/1/5 -28/1/5 -29/1/5
f -24/1/5 -27/1/5 -25/1/5
f -22/1/5 -25/1/5 -26/1/5
f -22/1/5 -23/1/5 -24/1/5
f -22/1/5 -24/1/5 -25/1/5
f -21/1/5 -23/1/5 -22/1/5
f -20/1/5 -23/1/5 -21/1/5
f -19/1/5 -23/1/5 -20/1/5
f -17/1/5 -23/1/5 -19/1/5
f -16/1/5 -17/1/5 -18/1/5
f -15/1/5 -23/1/5 -17/1/5
f -15/1/5 -17/1/5 -16/1/5
f -13/1/5 -23/1/5 -15/1/5
f -12/1/5 -22/1/5 -26/1/5
f -11/1/5 -13/1/5 -14/1/5
f -10/1/5 -12/1/5 -26/1/5
f -10/1/5 -11/1/5 -12/1/5
f -9/1/5 -11/1/5 -10/1/5
f -8/1/5 -13/1/5 -11/1/5
f -8/1/5 -11/1/5 -9/1/5
f -8/1/5 -23/1/5 -13/1/5
f -7/1/5 -23/1/5 -8/1/5
f -6/1/5 -8/1/5 -9/1/5
f -5/1/5 -8/1/5 -6/1/5
f -4/1/5 -8/1/5 -5/1/5
f -3/1/5 -8/1/5 -4/1/5
f -2/1/5 -4/1/5 -5/1/5
f -1/1/5 -4/1/5 -2/1/5
v -3.5 6 10
v 0.5 6 10
v -3.5 6 9
v 0.5 6 9
v 5.5 6 4
v 6.5 6 4
v 5.5 6 -2
v 6.5 6 -2
f -8/1/6 -7/1/6 -6/1/6
f -6/1/6 -7/1/6 -5/1/6
f -4/9/6 -3/9/6 -2/9/6
f -2/9/6 -3/9/6 -1/9/6
v -6.5 11 10
v 1.5 11 10
v -6.5 11 9
v 1.5 11 9
f -4/1/6 -3/1/6 -2/1/6
f -2/1/6 -3/1/6 -1/1/6
v -10.5 16 14
v 8.5 16 14
v -11.5 16 13
v -10.5 16 13
v 8.5 16 13
v 9.5 16 13
v -12.5 16 12
v -11.5 16 12
v 9.5 16 12
v 10.5 16 12
v -7.5 16 9
v 5.5 16 9
v -7.5 16 -7
v 5.5 16 -7
v -12.5 16 -10
v -11.5 16 -10
v 9.5 16 -10
v 10.5 16 -10
v -11.5 16 -11
v -10.5 16 -11
v 8.5 16 -11
v 9.5 16 -11
v -10.5 16 -12
v 8.5 16 -12
f -24/1/6 -23/1/6 -21/1/6
f -21/1/6 -23/1/6 -20/1/6
f -22/1/6 -21/1/6 -17/1/6
f -20/1/6 -19/1/6 -17/1/6
f -21/1/6 -20/1/6 -17/1/6
f -17/1/6 -19/1/6 -16/1/6
f -18/1/6 -17/1/6 -14/1/6
f -16/1/6 -15/1/6 -14/1/6
f -17/1/6 -16/1/6 -14/1/6
f -14/1/6 -15/1/6 -13/1/6
f -18/1/6 -14/1/6 -12/1/6
f -13/1/6 -15/1/6 -11/1/6
f -18/1/6 -12/1/6 -10/1/6
f -12/1/6 -11/1/6 -10/1/6
f -10/1/6 -11/1/6 -9/1/6
f -11/1/6 -15/1/6 -8/1/6
f -9/1/6 -11/1/6 -8/1/6
f -8/1/6 -15/1/6 -7/1/6
f -9/1/6 -8/1/6 -6/1/6
f -6/1/6 -8/1/6 -5/1/6
f -5/1/6 -8/1/6 -4/1/6
f -4/1/6 -8/1/6 -3/1/6
f -5/1/6 -4/1/6 -2/1/6
f -2/1/6 -4/1/6 -1/1/6
v -7.5 23 9
v 5.5 23 9
v -7.5 23 -7
v 5.5 23 -7
f -4/1/6 -3/1/6 -2/1/6
f -2/1/6 -3/1/6 -1/1/6
