# MagicaVoxel @ ephtracy

# material
mtllib cubeboy33.mtl

# mesh name
g cubeboy33_mesh

# normals
vn -1 0 0
vn 1 0 0
vn 0 0 1
vn 0 0 -1
vn 0 -1 0
vn 0 1 0

# texcoords
vt 0.587891 0.5

# verts
v -8.5 0 9
v -8.5 0 -7
v -8.5 17 9
v -8.5 17 -7
f -2/1/1 -3/1/1 -4/1/1
f -1/1/1 -3/1/1 -2/1/1
v -7.5 0 10
v -7.5 0 9
v -7.5 0 -7
v -7.5 0 -8
v -7.5 17 10
v -7.5 17 9
v -7.5 17 -7
v -7.5 17 -8
f -4/1/1 -7/1/1 -8/1/1
f -3/1/1 -7/1/1 -4/1/1
f -2/1/1 -5/1/1 -6/1/1
f -1/1/1 -5/1/1 -2/1/1
v 5.5 1 9
v 5.5 1 -7
v 5.5 17 9
v 5.5 17 -7
f -2/1/1 -3/1/1 -4/1/1
f -1/1/1 -3/1/1 -2/1/1
v -7.5 1 9
v -7.5 1 -7
v -7.5 17 9
v -7.5 17 -7
f -4/1/2 -3/1/2 -2/1/2
f -2/1/2 -3/1/2 -1/1/2
v 5.5 0 10
v 5.5 0 9
v 5.5 0 -7
v 5.5 0 -8
v 5.5 17 10
v 5.5 17 9
v 5.5 17 -7
v 5.5 17 -8
f -8/1/2 -7/1/2 -4/1/2
f -4/1/2 -7/1/2 -3/1/2
f -6/1/2 -5/1/2 -2/1/2
f -2/1/2 -5/1/2 -1/1/2
v 6.5 0 9
v 6.5 0 -7
v 6.5 17 9
v 6.5 17 -7
f -4/1/2 -3/1/2 -2/1/2
f -2/1/2 -3/1/2 -1/1/2
v -7.5 0 10
v -7.5 17 10
v 5.5 0 10
v 5.5 17 10
f -2/1/3 -3/1/3 -4/1/3
f -1/1/3 -3/1/3 -2/1/3
v -8.5 0 9
v -8.5 17 9
v -7.5 0 9
v -7.5 17 9
v 5.5 0 9
v 5.5 17 9
v 6.5 0 9
v 6.5 17 9
f -6/1/3 -7/1/3 -8/1/3
f -5/1/3 -7/1/3 -6/1/3
f -2/1/3 -3/1/3 -4/1/3
f -1/1/3 -3/1/3 -2/1/3
v -7.5 1 -7
v -7.5 17 -7
v 5.5 1 -7
v 5.5 17 -7
f -2/1/3 -3/1/3 -4/1/3
f -1/1/3 -3/1/3 -2/1/3
v -7.5 1 9
v -7.5 17 9
v 5.5 1 9
v 5.5 17 9
f -4/1/4 -3/1/4 -2/1/4
f -2/1/4 -3/1/4 -1/1/4
v -8.5 0 -7
v -8.5 17 -7
v -7.5 0 -7
v -7.5 17 -7
v 5.5 0 -7
v 5.5 17 -7
v 6.5 0 -7
v 6.5 17 -7
f -8/1/4 -7/1/4 -6/1/4
f -6/1/4 -7/1/4 -5/1/4
f -4/1/4 -3/1/4 -2/1/4
f -2/1/4 -3/1/4 -1/1/4
v -7.5 0 -8
v -7.5 17 -8
v 5.5 0 -8
v 5.5 17 -8
f -4/1/4 -3/1/4 -2/1/4
f -2/1/4 -3/1/4 -1/1/4
v -7.5 0 10
v 5.5 0 10
v -8.5 0 9
v -7.5 0 9
v 5.5 0 9
v 6.5 0 9
v -8.5 0 -7
v -7.5 0 -7
v 5.5 0 -7
v 6.5 0 -7
v -7.5 0 -8
v 5.5 0 -8
f -9/1/5 -11/1/5 -12/1/5
f -8/1/5 -11/1/5 -9/1/5
f -6/1/5 -9/1/5 -10/1/5
f -6/1/5 -7/1/5 -8/1/5
f -6/1/5 -8/1/5 -9/1/5
f -5/1/5 -7/1/5 -6/1/5
f -4/1/5 -7/1/5 -5/1/5
f -3/1/5 -7/1/5 -4/1/5
f -2/1/5 -4/1/5 -5/1/5
f -1/1/5 -4/1/5 -2/1/5
v -7.5 1 9
v 5.5 1 9
v -7.5 1 -7
v 5.5 1 -7
f -4/1/6 -3/1/6 -2/1/6
f -2/1/6 -3/1/6 -1/1/6
v -7.5 17 10
v 5.5 17 10
v -8.5 17 9
v -7.5 17 9
v 5.5 17 9
v 6.5 17 9
v -8.5 17 -7
v -7.5 17 -7
v 5.5 17 -7
v 6.5 17 -7
v -7.5 17 -8
v 5.5 17 -8
f -12/1/6 -11/1/6 -9/1/6
f -9/1/6 -11/1/6 -8/1/6
f -10/1/6 -9/1/6 -6/1/6
f -6/1/6 -9/1/6 -5/1/6
f -8/1/6 -7/1/6 -4/1/6
f -4/1/6 -7/1/6 -3/1/6
f -5/1/6 -4/1/6 -2/1/6
f -2/1/6 -4/1/6 -1/1/6
