# MagicaVoxel @ ephtracy

# material
mtllib cubeboy29.mtl

# mesh name
g cubeboy29_mesh

# normals
vn -1 0 0
vn 1 0 0
vn 0 0 1
vn 0 0 -1
vn 0 -1 0
vn 0 1 0

# texcoords
vt 0.232422 0.5
vt 0.591797 0.5
vt 0.705078 0.5
vt 0.841797 0.5
vt 0.958984 0.5
vt 0.990234 0.5
vt 0.994141 0.5

# verts
v -8.5 10 9
v -8.5 10 -7
v -8.5 17 9
v -8.5 17 -7
f -2/1/1 -3/1/1 -4/1/1
f -1/1/1 -3/1/1 -2/1/1
v -7.5 0 9
v -7.5 0 -7
v -7.5 10 9
v -7.5 10 -7
v -7.5 11 10
v -7.5 11 9
v -7.5 11 -7
v -7.5 11 -8
v -7.5 17 10
v -7.5 17 9
v -7.5 17 -7
v -7.5 17 -8
v -7.5 18 9
v -7.5 18 -7
f -12/3/1 -13/3/1 -14/3/1
f -11/3/1 -13/3/1 -12/3/1
f -6/1/1 -9/1/1 -10/1/1
f -5/1/1 -9/1/1 -6/1/1
f -4/1/1 -7/1/1 -8/1/1
f -3/1/1 -7/1/1 -4/1/1
f -2/1/1 -4/1/1 -5/1/1
f -1/1/1 -4/1/1 -2/1/1
v -4.5 10 12
v -4.5 10 9
v -4.5 10 -7
v -4.5 10 -10
v -4.5 11 10
v -4.5 11 9
v -4.5 11 -7
v -4.5 11 -8
v -4.5 16 12
v -4.5 16 10
v -4.5 16 -8
v -4.5 16 -10
f -8/6/1 -11/6/1 -12/6/1
f -7/6/1 -11/6/1 -8/6/1
f -6/6/1 -9/6/1 -10/6/1
f -5/6/1 -9/6/1 -6/6/1
f -4/6/1 -8/6/1 -12/6/1
f -3/6/1 -8/6/1 -4/6/1
f -2/6/1 -9/6/1 -5/6/1
f -1/6/1 -9/6/1 -2/6/1
v -2.5 16 11
v -2.5 16 10
v -2.5 16 -8
v -2.5 16 -9
v -2.5 17 10
v -2.5 17 9
v -2.5 17 -7
v -2.5 17 -8
v -2.5 18 9
v -2.5 18 -7
v -2.5 19 9
v -2.5 19 -7
v -2.5 21 11
v -2.5 21 -9
f -10/6/1 -13/6/1 -14/6/1
f -7/6/1 -11/6/1 -12/6/1
f -6/6/1 -9/6/1 -10/6/1
f -5/6/1 -7/6/1 -8/6/1
f -4/6/1 -6/6/1 -10/6/1
f -3/6/1 -7/6/1 -5/6/1
f -2/6/1 -4/6/1 -10/6/1
f -2/6/1 -3/6/1 -4/6/1
f -2/6/1 -10/6/1 -14/6/1
f -1/6/1 -7/6/1 -3/6/1
f -1/6/1 -3/6/1 -2/6/1
f -1/6/1 -11/6/1 -7/6/1
v 5.5 18 9
v 5.5 18 -2
v 5.5 19 -0
v 5.5 19 -2
v 5.5 20 3
v 5.5 20 -0
v 5.5 21 5
v 5.5 21 3
v 5.5 22 9
v 5.5 22 5
f -8/1/1 -9/1/1 -10/1/1
f -7/1/1 -9/1/1 -8/1/1
f -6/1/1 -8/1/1 -10/1/1
f -5/1/1 -8/1/1 -6/1/1
f -4/1/1 -6/1/1 -10/1/1
f -3/1/1 -6/1/1 -4/1/1
f -2/1/1 -4/1/1 -10/1/1
f -1/1/1 -4/1/1 -2/1/1
v 0.5 16 11
v 0.5 16 10
v 0.5 16 -8
v 0.5 16 -9
v 0.5 17 10
v 0.5 17 9
v 0.5 17 -7
v 0.5 17 -8
v 0.5 18 9
v 0.5 18 -7
v 0.5 19 9
v 0.5 19 -7
v 0.5 21 11
v 0.5 21 -9
f -14/6/2 -13/6/2 -10/6/2
f -12/6/2 -11/6/2 -7/6/2
f -10/6/2 -9/6/2 -6/6/2
f -8/6/2 -7/6/2 -5/6/2
f -10/6/2 -6/6/2 -4/6/2
f -5/6/2 -7/6/2 -3/6/2
f -10/6/2 -4/6/2 -2/6/2
f -4/6/2 -3/6/2 -2/6/2
f -14/6/2 -10/6/2 -2/6/2
f -3/6/2 -7/6/2 -1/6/2
f -2/6/2 -3/6/2 -1/6/2
f -7/6/2 -11/6/2 -1/6/2
v 2.5 10 12
v 2.5 10 9
v 2.5 10 -7
v 2.5 10 -10
v 2.5 12 10
v 2.5 12 9
v 2.5 12 -7
v 2.5 12 -8
v 2.5 13 10
v 2.5 13 9
v 2.5 13 -7
v 2.5 13 -8
v 2.5 16 12
v 2.5 16 10
v 2.5 16 9
v 2.5 16 -7
v 2.5 16 -8
v 2.5 16 -10
f -18/6/2 -17/6/2 -14/6/2
f -14/6/2 -17/6/2 -13/6/2
f -16/6/2 -15/6/2 -12/6/2
f -12/6/2 -15/6/2 -11/6/2
f -18/6/2 -14/6/2 -10/6/2
f -11/6/2 -15/6/2 -7/6/2
f -10/6/2 -9/6/2 -6/6/2
f -18/6/2 -10/6/2 -6/6/2
f -6/6/2 -9/6/2 -5/6/2
f -5/6/2 -9/6/2 -4/6/2
f -8/6/2 -7/6/2 -3/6/2
f -7/6/2 -15/6/2 -2/6/2
f -3/6/2 -7/6/2 -2/6/2
f -2/6/2 -15/6/2 -1/6/2
v 3.5 16 10
v 3.5 16 9
v 3.5 16 -7
v 3.5 16 -8
v 3.5 17 10
v 3.5 17 9
v 3.5 17 -7
v 3.5 17 -8
f -8/1/2 -7/1/2 -4/1/2
f -4/1/2 -7/1/2 -3/1/2
f -6/1/2 -5/1/2 -2/1/2
f -2/1/2 -5/1/2 -1/1/2
v 5.5 0 9
v 5.5 0 -7
v 5.5 2 2
v 5.5 2 -0
v 5.5 4 2
v 5.5 4 -0
v 5.5 5 4
v 5.5 5 -2
v 5.5 6 4
v 5.5 6 -2
v 5.5 10 7
v 5.5 10 4
v 5.5 10 -2
v 5.5 10 -5
v 5.5 11 7
v 5.5 11 4
v 5.5 11 -2
v 5.5 11 -5
v 5.5 12 10
v 5.5 12 9
v 5.5 12 3
v 5.5 12 -1
v 5.5 12 -7
v 5.5 12 -8
v 5.5 13 10
v 5.5 13 9
v 5.5 13 5
v 5.5 13 4
v 5.5 13 3
v 5.5 13 -1
v 5.5 13 -4
v 5.5 13 -5
v 5.5 13 -7
v 5.5 13 -8
v 5.5 14 8
v 5.5 14 7
v 5.5 14 5
v 5.5 14 4
v 5.5 14 -2
v 5.5 14 -4
v 5.5 14 -5
v 5.5 14 -6
v 5.5 15 8
v 5.5 15 4
v 5.5 15 -2
v 5.5 15 -6
v 5.5 17 9
v 5.5 17 -7
f -48/3/2 -47/3/2 -46/3/2
f -46/3/2 -47/3/2 -45/3/2
f -48/3/2 -46/3/2 -44/3/2
f -45/3/2 -47/3/2 -43/3/2
f -48/3/2 -44/3/2 -42/3/2
f -44/3/2 -43/3/2 -42/3/2
f -43/3/2 -47/3/2 -41/3/2
f -42/3/2 -43/3/2 -41/3/2
f -48/3/2 -42/3/2 -40/3/2
f -41/3/2 -47/3/2 -39/3/2
f -48/3/2 -40/3/2 -38/3/2
f -40/3/2 -39/3/2 -38/3/2
f -38/3/2 -39/3/2 -37/3/2
f -39/3/2 -47/3/2 -36/3/2
f -37/3/2 -39/3/2 -36/3/2
f -36/3/2 -47/3/2 -35/3/2
f -38/2/2 -37/2/2 -34/2/2
f -48/3/2 -38/3/2 -34/3/2
f -37/3/2 -36/3/2 -33/3/2
f -34/2/2 -37/2/2 -33/2/2
f -36/2/2 -35/2/2 -32/2/2
f -33/3/2 -36/3/2 -32/3/2
f -35/3/2 -47/3/2 -31/3/2
f -32/2/2 -35/2/2 -31/2/2
f -48/3/2 -34/3/2 -29/3/2
f -33/3/2 -32/3/2 -28/3/2
f -28/3/2 -32/3/2 -27/3/2
f -31/3/2 -47/3/2 -26/3/2
f -30/5/2 -29/5/2 -24/5/2
f -29/3/2 -34/3/2 -23/3/2
f -24/5/2 -29/5/2 -23/5/2
f -34/7/2 -33/7/2 -22/7/2
f -33/3/2 -28/3/2 -21/3/2
f -22/7/2 -33/7/2 -21/7/2
f -21/3/2 -28/3/2 -20/3/2
f -27/3/2 -32/3/2 -19/3/2
f -32/7/2 -31/7/2 -18/7/2
f -31/3/2 -26/3/2 -17/3/2
f -18/7/2 -31/7/2 -17/7/2
f -26/5/2 -25/5/2 -16/5/2
f -17/3/2 -26/3/2 -16/3/2
f -16/5/2 -25/5/2 -15/5/2
f -23/3/2 -34/3/2 -14/3/2
f -34/7/2 -22/7/2 -13/7/2
f -14/3/2 -34/3/2 -13/3/2
f -22/5/2 -21/5/2 -12/5/2
f -13/7/2 -22/7/2 -12/7/2
f -21/3/2 -20/3/2 -11/3/2
f -12/5/2 -21/5/2 -11/5/2
f -20/3/2 -19/3/2 -11/3/2
f -19/3/2 -32/3/2 -10/3/2
f -11/3/2 -19/3/2 -10/3/2
f -32/7/2 -18/7/2 -10/7/2
f -18/5/2 -17/5/2 -9/5/2
f -10/7/2 -18/7/2 -9/7/2
f -17/3/2 -16/3/2 -8/3/2
f -9/5/2 -17/5/2 -8/5/2
f -8/3/2 -16/3/2 -7/3/2
f -23/3/2 -14/3/2 -6/3/2
f -11/3/2 -10/3/2 -5/3/2
f -5/3/2 -10/3/2 -4/3/2
f -7/3/2 -16/3/2 -3/3/2
f -23/3/2 -6/3/2 -2/3/2
f -4/3/2 -3/3/2 -2/3/2
f -5/3/2 -4/3/2 -2/3/2
f -6/3/2 -5/3/2 -2/3/2
f -3/3/2 -16/3/2 -1/3/2
f -2/3/2 -3/3/2 -1/3/2
v 6.5 2 2
v 6.5 2 -0
v 6.5 4 2
v 6.5 4 -0
v 6.5 5 4
v 6.5 5 -2
v 6.5 6 4
v 6.5 6 -2
v 6.5 12 3
v 6.5 12 -1
v 6.5 13 3
v 6.5 13 -1
v 6.5 14 8
v 6.5 14 4
v 6.5 14 -2
v 6.5 14 -6
v 6.5 15 8
v 6.5 15 4
v 6.5 15 -2
v 6.5 15 -6
v 6.5 17 9
v 6.5 17 -7
v 6.5 18 -2
v 6.5 18 -7
v 6.5 19 -0
v 6.5 19 -2
v 6.5 20 3
v 6.5 20 -0
v 6.5 21 5
v 6.5 21 3
v 6.5 22 9
v 6.5 22 5
f -32/1/2 -31/1/2 -30/1/2
f -30/1/2 -31/1/2 -29/1/2
f -28/6/2 -27/6/2 -26/6/2
f -26/6/2 -27/6/2 -25/6/2
f -24/5/2 -23/5/2 -22/5/2
f -22/5/2 -23/5/2 -21/5/2
f -20/1/2 -19/1/2 -16/1/2
f -16/1/2 -19/1/2 -15/1/2
f -18/1/2 -17/1/2 -14/1/2
f -14/1/2 -17/1/2 -13/1/2
f -12/1/2 -11/1/2 -10/1/2
f -10/1/2 -11/1/2 -9/1/2
f -12/1/2 -10/1/2 -8/1/2
f -8/1/2 -10/1/2 -7/1/2
f -12/1/2 -8/1/2 -6/1/2
f -6/1/2 -8/1/2 -5/1/2
f -12/1/2 -6/1/2 -4/1/2
f -4/1/2 -6/1/2 -3/1/2
f -12/1/2 -4/1/2 -2/1/2
f -2/1/2 -4/1/2 -1/1/2
v -4.5 10 12
v -4.5 16 12
v -3.5 11 12
v -3.5 15 12
v 1.5 11 12
v 1.5 15 12
v 2.5 10 12
v 2.5 16 12
f -6/6/3 -7/6/3 -8/6/3
f -5/6/3 -7/6/3 -6/6/3
f -4/6/3 -6/6/3 -8/6/3
f -4/4/3 -5/4/3 -6/4/3
f -3/6/3 -7/6/3 -5/6/3
f -3/4/3 -5/4/3 -4/4/3
f -2/6/3 -4/6/3 -8/6/3
f -2/6/3 -3/6/3 -4/6/3
f -1/6/3 -7/6/3 -3/6/3
f -1/6/3 -3/6/3 -2/6/3
v -2.5 16 11
v -2.5 21 11
v 0.5 16 11
v 0.5 21 11
f -2/6/3 -3/6/3 -4/6/3
f -1/6/3 -3/6/3 -2/6/3
v -7.5 11 10
v -7.5 17 10
v -4.5 11 10
v -4.5 16 10
v -2.5 16 10
v -2.5 17 10
v 0.5 16 10
v 0.5 17 10
v 2.5 12 10
v 2.5 13 10
v 2.5 16 10
v 3.5 16 10
v 3.5 17 10
v 5.5 12 10
v 5.5 13 10
f -13/1/3 -14/1/3 -15/1/3
f -12/1/3 -14/1/3 -13/1/3
f -11/1/3 -14/1/3 -12/1/3
f -10/1/3 -14/1/3 -11/1/3
f -5/1/3 -8/1/3 -9/1/3
f -4/1/3 -8/1/3 -5/1/3
f -3/1/3 -8/1/3 -4/1/3
f -2/5/3 -6/5/3 -7/5/3
f -1/5/3 -6/5/3 -2/5/3
v -8.5 10 9
v -8.5 17 9
v -7.5 0 9
v -7.5 10 9
v -7.5 11 9
v -7.5 17 9
v -7.5 18 9
v -4.5 10 9
v -4.5 11 9
v -2.5 17 9
v -2.5 18 9
v 0.5 17 9
v 0.5 18 9
v 2.5 10 9
v 2.5 12 9
v 2.5 13 9
v 2.5 16 9
v 3.5 16 9
v 3.5 17 9
v 5.5 0 9
v 5.5 12 9
v 5.5 13 9
v 5.5 17 9
v 5.5 18 9
v 5.5 22 9
v 6.5 17 9
v 6.5 22 9
f -24/1/3 -26/1/3 -27/1/3
f -23/1/3 -26/1/3 -24/1/3
f -22/1/3 -26/1/3 -23/1/3
f -20/3/3 -24/3/3 -25/3/3
f -20/3/3 -23/3/3 -24/3/3
f -19/3/3 -23/3/3 -20/3/3
f -18/1/3 -21/1/3 -22/1/3
f -17/1/3 -21/1/3 -18/1/3
f -14/3/3 -20/3/3 -25/3/3
f -10/3/3 -11/3/3 -12/3/3
f -9/1/3 -15/1/3 -16/1/3
f -8/3/3 -14/3/3 -25/3/3
f -8/3/3 -13/3/3 -14/3/3
f -7/3/3 -13/3/3 -8/3/3
f -6/3/3 -10/3/3 -12/3/3
f -6/3/3 -9/3/3 -10/3/3
f -5/1/3 -15/1/3 -9/1/3
f -5/3/3 -9/3/3 -6/3/3
f -4/1/3 -15/1/3 -5/1/3
f -2/1/3 -3/1/3 -4/1/3
f -2/1/3 -4/1/3 -5/1/3
f -1/1/3 -3/1/3 -2/1/3
v 5.5 14 8
v 5.5 15 8
v 6.5 14 8
v 6.5 15 8
f -2/1/3 -3/1/3 -4/1/3
f -1/1/3 -3/1/3 -2/1/3
v 5.5 5 4
v 5.5 6 4
v 6.5 5 4
v 6.5 6 4
f -2/6/3 -3/6/3 -4/6/3
f -1/6/3 -3/6/3 -2/6/3
v 5.5 12 3
v 5.5 13 3
v 6.5 12 3
v 6.5 13 3
f -2/5/3 -3/5/3 -4/5/3
f -1/5/3 -3/5/3 -2/5/3
v 5.5 2 2
v 5.5 4 2
v 6.5 2 2
v 6.5 4 2
f -2/1/3 -3/1/3 -4/1/3
f -1/1/3 -3/1/3 -2/1/3
v 5.5 14 -2
v 5.5 15 -2
v 6.5 14 -2
v 6.5 15 -2
f -2/1/3 -3/1/3 -4/1/3
f -1/1/3 -3/1/3 -2/1/3
v -2.5 18 -7
v -2.5 19 -7
v 0.5 18 -7
v 0.5 19 -7
f -2/6/3 -3/6/3 -4/6/3
f -1/6/3 -3/6/3 -2/6/3
v -2.5 18 9
v -2.5 19 9
v 0.5 18 9
v 0.5 19 9
f -4/6/4 -3/6/4 -2/6/4
f -2/6/4 -3/6/4 -1/6/4
v 5.5 21 5
v 5.5 22 5
v 6.5 21 5
v 6.5 22 5
f -4/1/4 -3/1/4 -2/1/4
f -2/1/4 -3/1/4 -1/1/4
v 5.5 14 4
v 5.5 15 4
v 6.5 14 4
v 6.5 15 4
f -4/1/4 -3/1/4 -2/1/4
f -2/1/4 -3/1/4 -1/1/4
v 5.5 20 3
v 5.5 21 3
v 6.5 20 3
v 6.5 21 3
f -4/1/4 -3/1/4 -2/1/4
f -2/1/4 -3/1/4 -1/1/4
v 5.5 2 -0
v 5.5 4 -0
v 5.5 19 -0
v 5.5 20 -0
v 6.5 2 -0
v 6.5 4 -0
v 6.5 19 -0
v 6.5 20 -0
f -8/1/4 -7/1/4 -4/1/4
f -4/1/4 -7/1/4 -3/1/4
f -6/1/4 -5/1/4 -2/1/4
f -2/1/4 -5/1/4 -1/1/4
v 5.5 12 -1
v 5.5 13 -1
v 6.5 12 -1
v 6.5 13 -1
f -4/5/4 -3/5/4 -2/5/4
f -2/5/4 -3/5/4 -1/5/4
v 5.5 5 -2
v 5.5 6 -2
v 5.5 18 -2
v 5.5 19 -2
v 6.5 5 -2
v 6.5 6 -2
v 6.5 18 -2
v 6.5 19 -2
f -8/6/4 -7/6/4 -4/6/4
f -4/6/4 -7/6/4 -3/6/4
f -6/1/4 -5/1/4 -2/1/4
f -2/1/4 -5/1/4 -1/1/4
v 5.5 14 -6
v 5.5 15 -6
v 6.5 14 -6
v 6.5 15 -6
f -4/1/4 -3/1/4 -2/1/4
f -2/1/4 -3/1/4 -1/1/4
v -8.5 10 -7
v -8.5 17 -7
v -7.5 0 -7
v -7.5 10 -7
v -7.5 11 -7
v -7.5 17 -7
v -7.5 18 -7
v -4.5 10 -7
v -4.5 11 -7
v -2.5 17 -7
v -2.5 18 -7
v 0.5 17 -7
v 0.5 18 -7
v 2.5 10 -7
v 2.5 12 -7
v 2.5 13 -7
v 2.5 16 -7
v 3.5 16 -7
v 3.5 17 -7
v 5.5 0 -7
v 5.5 12 -7
v 5.5 13 -7
v 5.5 17 -7
v 6.5 17 -7
v 6.5 18 -7
f -25/1/4 -24/1/4 -22/1/4
f -22/1/4 -24/1/4 -21/1/4
f -21/1/4 -24/1/4 -20/1/4
f -23/3/4 -22/3/4 -18/3/4
f -22/3/4 -21/3/4 -18/3/4
f -18/3/4 -21/3/4 -17/3/4
f -20/1/4 -19/1/4 -16/1/4
f -16/1/4 -19/1/4 -15/1/4
f -23/3/4 -18/3/4 -12/3/4
f -10/3/4 -9/3/4 -8/3/4
f -14/1/4 -13/1/4 -7/1/4
f -23/3/4 -12/3/4 -6/3/4
f -12/3/4 -11/3/4 -6/3/4
f -6/3/4 -11/3/4 -5/3/4
f -10/3/4 -8/3/4 -4/3/4
f -8/3/4 -7/3/4 -4/3/4
f -7/1/4 -13/1/4 -3/1/4
f -4/3/4 -7/3/4 -3/3/4
f -3/1/4 -13/1/4 -2/1/4
f -2/1/4 -13/1/4 -1/1/4
v -7.5 11 -8
v -7.5 17 -8
v -4.5 11 -8
v -4.5 16 -8
v -2.5 16 -8
v -2.5 17 -8
v 0.5 16 -8
v 0.5 17 -8
v 2.5 12 -8
v 2.5 13 -8
v 2.5 16 -8
v 3.5 16 -8
v 3.5 17 -8
v 5.5 12 -8
v 5.5 13 -8
f -15/1/4 -14/1/4 -13/1/4
f -13/1/4 -14/1/4 -12/1/4
f -12/1/4 -14/1/4 -11/1/4
f -11/1/4 -14/1/4 -10/1/4
f -9/1/4 -8/1/4 -5/1/4
f -5/1/4 -8/1/4 -4/1/4
f -4/1/4 -8/1/4 -3/1/4
f -7/5/4 -6/5/4 -2/5/4
f -2/5/4 -6/5/4 -1/5/4
v -2.5 16 -9
v -2.5 21 -9
v 0.5 16 -9
v 0.5 21 -9
f -4/6/4 -3/6/4 -2/6/4
f -2/6/4 -3/6/4 -1/6/4
v -4.5 10 -10
v -4.5 16 -10
v -3.5 11 -10
v -3.5 15 -10
v 1.5 11 -10
v 1.5 15 -10
v 2.5 10 -10
v 2.5 16 -10
f -8/6/4 -7/6/4 -6/6/4
f -6/6/4 -7/6/4 -5/6/4
f -8/6/4 -6/6/4 -4/6/4
f -6/4/4 -5/4/4 -4/4/4
f -5/6/4 -7/6/4 -3/6/4
f -4/4/4 -5/4/4 -3/4/4
f -8/6/4 -4/6/4 -2/6/4
f -4/6/4 -3/6/4 -2/6/4
f -3/6/4 -7/6/4 -1/6/4
f -2/6/4 -3/6/4 -1/6/4
v -7.5 0 9
v 5.5 0 9
v -7.5 0 -7
v 5.5 0 -7
f -2/3/5 -3/3/5 -4/3/5
f -1/3/5 -3/3/5 -2/3/5
v 5.5 2 2
v 6.5 2 2
v 5.5 2 -0
v 6.5 2 -0
f -2/1/5 -3/1/5 -4/1/5
f -1/1/5 -3/1/5 -2/1/5
v 5.5 5 4
v 6.5 5 4
v 5.5 5 -2
v 6.5 5 -2
f -2/6/5 -3/6/5 -4/6/5
f -1/6/5 -3/6/5 -2/6/5
v -4.5 10 12
v 2.5 10 12
v -8.5 10 9
v -7.5 10 9
v -4.5 10 9
v 2.5 10 9
v -8.5 10 -7
v -7.5 10 -7
v -4.5 10 -7
v 2.5 10 -7
v -4.5 10 -10
v 2.5 10 -10
f -8/6/5 -11/6/5 -12/6/5
f -7/6/5 -11/6/5 -8/6/5
f -6/1/5 -9/1/5 -10/1/5
f -5/1/5 -9/1/5 -6/1/5
f -2/6/5 -3/6/5 -4/6/5
f -1/6/5 -3/6/5 -2/6/5
v -7.5 11 10
v -4.5 11 10
v -7.5 11 9
v -4.5 11 9
v -7.5 11 -7
v -4.5 11 -7
v -7.5 11 -8
v -4.5 11 -8
f -6/1/5 -7/1/5 -8/1/5
f -5/1/5 -7/1/5 -6/1/5
f -2/1/5 -3/1/5 -4/1/5
f -1/1/5 -3/1/5 -2/1/5
v 2.5 12 10
v 5.5 12 10
v 2.5 12 9
v 5.5 12 9
v 5.5 12 3
v 6.5 12 3
v 5.5 12 -1
v 6.5 12 -1
v 2.5 12 -7
v 5.5 12 -7
v 2.5 12 -8
v 5.5 12 -8
f -10/5/5 -11/5/5 -12/5/5
f -9/5/5 -11/5/5 -10/5/5
f -6/5/5 -7/5/5 -8/5/5
f -5/5/5 -7/5/5 -6/5/5
f -2/5/5 -3/5/5 -4/5/5
f -1/5/5 -3/5/5 -2/5/5
v 5.5 14 8
v 6.5 14 8
v 5.5 14 7
v 5.5 14 5
v 5.5 14 4
v 6.5 14 4
v 5.5 14 -2
v 6.5 14 -2
v 5.5 14 -4
v 5.5 14 -5
v 5.5 14 -6
v 6.5 14 -6
f -10/1/5 -11/1/5 -12/1/5
f -9/1/5 -11/1/5 -10/1/5
f -8/1/5 -11/1/5 -9/1/5
f -7/1/5 -11/1/5 -8/1/5
f -4/1/5 -5/1/5 -6/1/5
f -3/1/5 -5/1/5 -4/1/5
f -2/1/5 -5/1/5 -3/1/5
f -1/1/5 -5/1/5 -2/1/5
v 2.5 16 10
v 3.5 16 10
v 2.5 16 9
v 3.5 16 9
v 2.5 16 -7
v 3.5 16 -7
v 2.5 16 -8
v 3.5 16 -8
f -6/1/5 -7/1/5 -8/1/5
f -5/1/5 -7/1/5 -6/1/5
f -2/1/5 -3/1/5 -4/1/5
f -1/1/5 -3/1/5 -2/1/5
v 5.5 17 9
v 6.5 17 9
v 5.5 17 -7
v 6.5 17 -7
f -2/1/5 -3/1/5 -4/1/5
f -1/1/5 -3/1/5 -2/1/5
v -2.5 19 9
v 0.5 19 9
v -2.5 19 -7
v 0.5 19 -7
f -2/6/5 -3/6/5 -4/6/5
f -1/6/5 -3/6/5 -2/6/5
v 5.5 4 2
v 6.5 4 2
v 5.5 4 -0
v 6.5 4 -0
f -4/1/6 -3/1/6 -2/1/6
f -2/1/6 -3/1/6 -1/1/6
v 5.5 6 4
v 6.5 6 4
v 5.5 6 -2
v 6.5 6 -2
f -4/6/6 -3/6/6 -2/6/6
f -2/6/6 -3/6/6 -1/6/6
v 2.5 13 10
v 5.5 13 10
v 2.5 13 9
v 5.5 13 9
v 5.5 13 3
v 6.5 13 3
v 5.5 13 -1
v 6.5 13 -1
v 2.5 13 -7
v 5.5 13 -7
v 2.5 13 -8
v 5.5 13 -8
f -12/5/6 -11/5/6 -10/5/6
f -10/5/6 -11/5/6 -9/5/6
f -8/5/6 -7/5/6 -6/5/6
f -6/5/6 -7/5/6 -5/5/6
f -4/5/6 -3/5/6 -2/5/6
f -2/5/6 -3/5/6 -1/5/6
v 5.5 15 8
v 6.5 15 8
v 5.5 15 4
v 6.5 15 4
v 5.5 15 -2
v 6.5 15 -2
v 5.5 15 -6
v 6.5 15 -6
f -8/1/6 -7/1/6 -6/1/6
f -6/1/6 -7/1/6 -5/1/6
f -4/1/6 -3/1/6 -2/1/6
f -2/1/6 -3/1/6 -1/1/6
v -4.5 16 12
v 2.5 16 12
v -2.5 16 11
v 0.5 16 11
v -4.5 16 10
v -2.5 16 10
v 0.5 16 10
v 2.5 16 10
v -4.5 16 -8
v -2.5 16 -8
v 0.5 16 -8
v 2.5 16 -8
v -2.5 16 -9
v 0.5 16 -9
v -4.5 16 -10
v 2.5 16 -10
f -16/6/6 -15/6/6 -14/6/6
f -14/6/6 -15/6/6 -13/6/6
f -16/6/6 -14/6/6 -12/6/6
f -12/6/6 -14/6/6 -11/6/6
f -13/6/6 -15/6/6 -10/6/6
f -10/6/6 -15/6/6 -9/6/6
f -8/6/6 -7/6/6 -4/6/6
f -6/6/6 -5/6/6 -3/6/6
f -8/6/6 -4/6/6 -2/6/6
f -4/6/6 -3/6/6 -2/6/6
f -3/6/6 -5/6/6 -1/6/6
f -2/6/6 -3/6/6 -1/6/6
v -7.5 17 10
v -2.5 17 10
v 0.5 17 10
v 3.5 17 10
v -8.5 17 9
v -7.5 17 9
v -2.5 17 9
v 0.5 17 9
v 3.5 17 9
v -8.5 17 -7
v -7.5 17 -7
v -2.5 17 -7
v 0.5 17 -7
v 3.5 17 -7
v -7.5 17 -8
v -2.5 17 -8
v 0.5 17 -8
v 3.5 17 -8
f -18/1/6 -17/1/6 -13/1/6
f -13/1/6 -17/1/6 -12/1/6
f -16/1/6 -15/1/6 -11/1/6
f -11/1/6 -15/1/6 -10/1/6
f -14/1/6 -13/1/6 -9/1/6
f -9/1/6 -13/1/6 -8/1/6
f -8/1/6 -7/1/6 -4/1/6
f -4/1/6 -7/1/6 -3/1/6
f -6/1/6 -5/1/6 -2/1/6
f -2/1/6 -5/1/6 -1/1/6
v -7.5 18 9
v -2.5 18 9
v 0.5 18 9
v 5.5 18 9
v 5.5 18 -2
v 6.5 18 -2
v -7.5 18 -7
v -2.5 18 -7
v 0.5 18 -7
v 6.5 18 -7
f -10/1/6 -9/1/6 -6/1/6
f -8/1/6 -7/1/6 -6/1/6
f -9/1/6 -8/1/6 -6/1/6
f -10/1/6 -6/1/6 -4/1/6
f -6/1/6 -5/1/6 -4/1/6
f -4/1/6 -5/1/6 -3/1/6
f -3/1/6 -5/1/6 -2/1/6
f -2/1/6 -5/1/6 -1/1/6
v 5.5 19 -0
v 6.5 19 -0
v 5.5 19 -2
v 6.5 19 -2
f -4/1/6 -3/1/6 -2/1/6
f -2/1/6 -3/1/6 -1/1/6
v 5.5 20 3
v 6.5 20 3
v 5.5 20 -0
v 6.5 20 -0
f -4/1/6 -3/1/6 -2/1/6
f -2/1/6 -3/1/6 -1/1/6
v -2.5 21 11
v 0.5 21 11
v 5.5 21 5
v 6.5 21 5
v 5.5 21 3
v 6.5 21 3
v -2.5 21 -9
v 0.5 21 -9
f -6/1/6 -5/1/6 -4/1/6
f -4/1/6 -5/1/6 -3/1/6
f -8/6/6 -7/6/6 -2/6/6
f -2/6/6 -7/6/6 -1/6/6
v 5.5 22 9
v 6.5 22 9
v 5.5 22 5
v 6.5 22 5
f -4/1/6 -3/1/6 -2/1/6
f -2/1/6 -3/1/6 -1/1/6
