# MagicaVoxel @ ephtracy

# material
mtllib cubeboy36.mtl
usemtl palette

# mesh name
g cubeboy36_mesh

# normals
vn -1 0 0
vn 1 0 0
vn 0 0 1
vn 0 0 -1
vn 0 -1 0
vn 0 1 0

# texcoords
vt 0.419922 0.5
vt 0.443359 0.5
vt 0.783203 0.5
vt 0.841797 0.5
vt 0.955078 0.5
vt 0.958984 0.5
vt 0.994141 0.5

# verts
v -7.5 0 8
v -7.5 0 -8
v -7.5 13 8
v -7.5 13 -8
v 0.5 13 4
v 0.5 13 1
v 0.5 13 -1
v 0.5 13 -4
v 0.5 15 1
v 0.5 15 -1
v 0.5 21 4
v 0.5 21 -4
v 2.5 15 6
v 2.5 15 4
v 2.5 15 -4
v 2.5 15 -6
v 2.5 17 6
v 2.5 17 4
v 2.5 17 -4
v 2.5 17 -6
v 3.5 13 7
v 3.5 13 4
v 3.5 13 -4
v 3.5 13 -7
v 3.5 15 7
v 3.5 15 6
v 3.5 15 4
v 3.5 15 -4
v 3.5 15 -6
v 3.5 15 -7
v 4.5 8 3
v 4.5 8 1
v 4.5 8 -1
v 4.5 8 -3
v 4.5 10 3
v 4.5 10 1
v 4.5 10 -1
v 4.5 10 -3
v 6.5 1 2
v 6.5 1 -2
v 6.5 4 2
v 6.5 4 -2
v 3.5 6 7
v 3.5 6 2
v 3.5 6 -2
v 3.5 6 -7
v 3.5 7 2
v 3.5 7 -2
v 3.5 10 7
v 3.5 10 -7
v 3.5 13 2
v 3.5 13 1
v 3.5 13 -1
v 3.5 13 -2
v 3.5 15 4
v 3.5 15 2
v 3.5 15 1
v 3.5 15 -1
v 3.5 15 -2
v 3.5 15 -4
v 3.5 16 1
v 3.5 16 -1
v 3.5 17 4
v 3.5 17 1
v 3.5 17 -1
v 3.5 17 -4
v 3.5 18 3
v 3.5 18 1
v 3.5 18 -1
v 3.5 18 -3
v 3.5 19 2
v 3.5 19 1
v 3.5 19 -2
v 3.5 19 -3
v 3.5 20 3
v 3.5 20 2
v 3.5 20 1
v 3.5 20 -1
v 3.5 20 -2
v 3.5 20 -3
v 3.5 21 4
v 3.5 21 -4
v 4.5 15 6
v 4.5 15 4
v 4.5 15 -4
v 4.5 15 -6
v 4.5 17 6
v 4.5 17 4
v 4.5 17 -4
v 4.5 17 -6
v 5.5 0 8
v 5.5 0 -8
v 5.5 4 7
v 5.5 4 -7
v 5.5 6 7
v 5.5 6 -7
v 5.5 8 3
v 5.5 8 1
v 5.5 8 -1
v 5.5 8 -3
v 5.5 10 7
v 5.5 10 3
v 5.5 10 1
v 5.5 10 -1
v 5.5 10 -3
v 5.5 10 -7
v 5.5 11 6
v 5.5 11 3
v 5.5 11 -3
v 5.5 11 -6
v 5.5 13 8
v 5.5 13 7
v 5.5 13 2
v 5.5 13 -2
v 5.5 13 -7
v 5.5 13 -8
v 5.5 14 6
v 5.5 14 3
v 5.5 14 -3
v 5.5 14 -6
v 5.5 15 7
v 5.5 15 2
v 5.5 15 -2
v 5.5 15 -7
v 6.5 4 7
v 6.5 4 2
v 6.5 4 -2
v 6.5 4 -7
v 6.5 6 7
v 6.5 6 2
v 6.5 6 -2
v 6.5 6 -7
v 6.5 11 6
v 6.5 11 3
v 6.5 11 -3
v 6.5 11 -6
v 6.5 12 5
v 6.5 12 4
v 6.5 12 -4
v 6.5 12 -5
v 6.5 13 5
v 6.5 13 4
v 6.5 13 -4
v 6.5 13 -5
v 6.5 14 6
v 6.5 14 3
v 6.5 14 -3
v 6.5 14 -6
v 7.5 1 2
v 7.5 1 -2
v 7.5 7 2
v 7.5 7 -2
v -7.5 0 8
v -7.5 13 8
v 5.5 0 8
v 5.5 13 8
v 3.5 13 7
v 3.5 15 7
v 5.5 4 7
v 5.5 6 7
v 5.5 13 7
v 5.5 15 7
v 6.5 4 7
v 6.5 6 7
v 2.5 15 6
v 2.5 17 6
v 3.5 15 6
v 4.5 15 6
v 4.5 17 6
v 5.5 11 6
v 5.5 14 6
v 6.5 11 6
v 6.5 14 6
v 0.5 13 4
v 0.5 21 4
v 2.5 15 4
v 2.5 17 4
v 3.5 13 4
v 3.5 15 4
v 3.5 17 4
v 3.5 21 4
v 4.5 8 3
v 4.5 10 3
v 5.5 8 3
v 5.5 10 3
v 3.5 6 2
v 3.5 7 2
v 6.5 1 2
v 6.5 4 2
v 6.5 6 2
v 7.5 1 2
v 7.5 7 2
v 0.5 13 -1
v 0.5 15 -1
v 3.5 13 -1
v 3.5 15 -1
v 4.5 8 -1
v 4.5 10 -1
v 5.5 8 -1
v 5.5 10 -1
v 3.5 13 -2
v 3.5 15 -2
v 5.5 13 -2
v 5.5 15 -2
v 5.5 11 -3
v 5.5 14 -3
v 6.5 11 -3
v 6.5 14 -3
v 3.5 15 -4
v 3.5 17 -4
v 4.5 15 -4
v 4.5 17 -4
v 3.5 6 -7
v 3.5 10 -7
v 5.5 6 -7
v 5.5 10 -7
v 3.5 6 7
v 3.5 10 7
v 5.5 6 7
v 5.5 10 7
v 3.5 15 4
v 3.5 17 4
v 4.5 15 4
v 4.5 17 4
v 5.5 11 3
v 5.5 14 3
v 6.5 11 3
v 6.5 14 3
v 3.5 13 2
v 3.5 15 2
v 5.5 13 2
v 5.5 15 2
v 0.5 13 1
v 0.5 15 1
v 3.5 13 1
v 3.5 15 1
v 4.5 8 1
v 4.5 10 1
v 5.5 8 1
v 5.5 10 1
v 3.5 6 -2
v 3.5 7 -2
v 6.5 1 -2
v 6.5 4 -2
v 6.5 6 -2
v 7.5 1 -2
v 7.5 7 -2
v 4.5 8 -3
v 4.5 10 -3
v 5.5 8 -3
v 5.5 10 -3
v 0.5 13 -4
v 0.5 21 -4
v 2.5 15 -4
v 2.5 17 -4
v 3.5 13 -4
v 3.5 15 -4
v 3.5 17 -4
v 3.5 21 -4
v 2.5 15 -6
v 2.5 17 -6
v 3.5 15 -6
v 4.5 15 -6
v 4.5 17 -6
v 5.5 11 -6
v 5.5 14 -6
v 6.5 11 -6
v 6.5 14 -6
v 3.5 13 -7
v 3.5 15 -7
v 5.5 4 -7
v 5.5 6 -7
v 5.5 13 -7
v 5.5 15 -7
v 6.5 4 -7
v 6.5 6 -7
v -7.5 0 -8
v -7.5 13 -8
v 5.5 0 -8
v 5.5 13 -8
v -7.5 0 8
v 5.5 0 8
v -7.5 0 -8
v 5.5 0 -8
v 6.5 1 2
v 7.5 1 2
v 6.5 1 -2
v 7.5 1 -2
v 5.5 4 7
v 6.5 4 7
v 6.5 4 2
v 6.5 4 -2
v 5.5 4 -7
v 6.5 4 -7
v 4.5 8 3
v 5.5 8 3
v 4.5 8 1
v 5.5 8 1
v 4.5 8 -1
v 5.5 8 -1
v 4.5 8 -3
v 5.5 8 -3
v 3.5 10 7
v 5.5 10 7
v 4.5 10 3
v 5.5 10 3
v 4.5 10 1
v 5.5 10 1
v 4.5 10 -1
v 5.5 10 -1
v 4.5 10 -3
v 5.5 10 -3
v 3.5 10 -7
v 5.5 10 -7
v 5.5 11 6
v 6.5 11 6
v 5.5 11 3
v 6.5 11 3
v 5.5 11 -3
v 6.5 11 -3
v 5.5 11 -6
v 6.5 11 -6
v 2.5 15 6
v 3.5 15 6
v 2.5 15 4
v 3.5 15 4
v 0.5 15 1
v 3.5 15 1
v 0.5 15 -1
v 3.5 15 -1
v 2.5 15 -4
v 3.5 15 -4
v 2.5 15 -6
v 3.5 15 -6
v 3.5 6 7
v 5.5 6 7
v 6.5 6 7
v 3.5 6 2
v 6.5 6 2
v 3.5 6 -2
v 6.5 6 -2
v 3.5 6 -7
v 5.5 6 -7
v 6.5 6 -7
v 3.5 7 2
v 7.5 7 2
v 3.5 7 -2
v 7.5 7 -2
v -7.5 13 8
v 5.5 13 8
v 3.5 13 7
v 5.5 13 7
v 0.5 13 4
v 3.5 13 4
v 3.5 13 2
v 5.5 13 2
v 0.5 13 1
v 3.5 13 1
v 0.5 13 -1
v 3.5 13 -1
v 3.5 13 -2
v 5.5 13 -2
v 0.5 13 -4
v 3.5 13 -4
v 3.5 13 -7
v 5.5 13 -7
v -7.5 13 -8
v 5.5 13 -8
v 5.5 14 6
v 6.5 14 6
v 5.5 14 3
v 6.5 14 3
v 5.5 14 -3
v 6.5 14 -3
v 5.5 14 -6
v 6.5 14 -6
v 3.5 15 7
v 5.5 15 7
v 3.5 15 6
v 4.5 15 6
v 3.5 15 4
v 4.5 15 4
v 3.5 15 2
v 5.5 15 2
v 3.5 15 -2
v 5.5 15 -2
v 3.5 15 -4
v 4.5 15 -4
v 3.5 15 -6
v 4.5 15 -6
v 3.5 15 -7
v 5.5 15 -7
v 2.5 17 6
v 4.5 17 6
v 2.5 17 4
v 3.5 17 4
v 4.5 17 4
v 2.5 17 -4
v 3.5 17 -4
v 4.5 17 -4
v 2.5 17 -6
v 4.5 17 -6
v 0.5 21 4
v 3.5 21 4
v 0.5 21 -4
v 3.5 21 -4

# faces
f 3/2/1 2/2/1 1/2/1
f 4/2/1 2/2/1 3/2/1
f 9/3/1 6/3/1 5/3/1
f 10/3/1 8/3/1 7/3/1
f 11/3/1 9/3/1 5/3/1
f 11/3/1 10/3/1 9/3/1
f 12/3/1 8/3/1 10/3/1
f 12/3/1 10/3/1 11/3/1
f 17/3/1 14/3/1 13/3/1
f 18/3/1 14/3/1 17/3/1
f 19/3/1 16/3/1 15/3/1
f 20/3/1 16/3/1 19/3/1
f 25/2/1 22/2/1 21/2/1
f 26/2/1 22/2/1 25/2/1
f 27/2/1 22/2/1 26/2/1
f 28/2/1 24/2/1 23/2/1
f 29/2/1 24/2/1 28/2/1
f 30/2/1 24/2/1 29/2/1
f 35/6/1 32/6/1 31/6/1
f 36/6/1 32/6/1 35/6/1
f 37/6/1 34/6/1 33/6/1
f 38/6/1 34/6/1 37/6/1
f 41/4/1 40/4/1 39/4/1
f 42/4/1 40/4/1 41/4/1
f 43/7/2 44/7/2 47/7/2
f 45/7/2 46/7/2 48/7/2
f 43/7/2 47/7/2 49/7/2
f 47/7/2 48/7/2 49/7/2
f 48/7/2 46/7/2 50/7/2
f 49/7/2 48/7/2 50/7/2
f 51/3/2 52/3/2 56/3/2
f 56/3/2 52/3/2 57/3/2
f 53/3/2 54/3/2 58/3/2
f 58/3/2 54/3/2 59/3/2
f 56/3/2 57/3/2 61/3/2
f 59/3/2 60/3/2 61/3/2
f 58/3/2 59/3/2 61/3/2
f 57/3/2 58/3/2 61/3/2
f 55/3/2 56/3/2 61/3/2
f 61/3/2 60/3/2 62/3/2
f 55/3/2 61/3/2 63/3/2
f 61/1/2 62/1/2 64/1/2
f 63/3/2 61/3/2 64/3/2
f 62/3/2 60/3/2 65/3/2
f 64/1/2 62/1/2 65/1/2
f 65/3/2 60/3/2 66/3/2
f 63/3/2 64/3/2 67/3/2
f 64/3/2 65/3/2 67/3/2
f 65/3/2 66/3/2 67/3/2
f 67/3/2 66/3/2 68/3/2
f 68/3/2 66/3/2 69/3/2
f 69/3/2 66/3/2 70/3/2
f 67/5/2 68/5/2 71/5/2
f 68/3/2 69/3/2 72/3/2
f 71/5/2 68/5/2 72/5/2
f 69/5/2 70/5/2 73/5/2
f 70/3/2 66/3/2 74/3/2
f 73/5/2 70/5/2 74/5/2
f 63/3/2 67/3/2 75/3/2
f 67/5/2 71/5/2 75/5/2
f 71/6/2 72/6/2 76/6/2
f 75/5/2 71/5/2 76/5/2
f 72/3/2 69/3/2 77/3/2
f 76/6/2 72/6/2 77/6/2
f 69/5/2 73/5/2 78/5/2
f 77/3/2 69/3/2 78/3/2
f 73/6/2 74/6/2 79/6/2
f 78/5/2 73/5/2 79/5/2
f 74/3/2 66/3/2 80/3/2
f 79/6/2 74/6/2 80/6/2
f 78/3/2 79/3/2 81/3/2
f 76/3/2 77/3/2 81/3/2
f 79/3/2 80/3/2 81/3/2
f 63/3/2 75/3/2 81/3/2
f 75/3/2 76/3/2 81/3/2
f 77/3/2 78/3/2 81/3/2
f 80/3/2 66/3/2 82/3/2
f 81/3/2 80/3/2 82/3/2
f 83/3/2 84/3/2 87/3/2
f 87/3/2 84/3/2 88/3/2
f 85/3/2 86/3/2 89/3/2
f 89/3/2 86/3/2 90/3/2
f 91/2/2 92/2/2 93/2/2
f 93/2/2 92/2/2 94/2/2
f 91/2/2 93/2/2 95/2/2
f 94/2/2 92/2/2 96/2/2
f 91/2/2 95/2/2 101/2/2
f 97/6/2 98/6/2 102/6/2
f 102/6/2 98/6/2 103/6/2
f 99/6/2 100/6/2 104/6/2
f 104/6/2 100/6/2 105/6/2
f 96/2/2 92/2/2 106/2/2
f 102/2/2 103/2/2 107/2/2
f 105/2/2 106/2/2 107/2/2
f 104/2/2 105/2/2 107/2/2
f 101/2/2 102/2/2 107/2/2
f 103/2/2 104/2/2 107/2/2
f 107/2/2 106/2/2 108/2/2
f 108/2/2 106/2/2 109/2/2
f 109/2/2 106/2/2 110/2/2
f 91/2/2 101/2/2 111/2/2
f 101/2/2 107/2/2 111/2/2
f 111/2/2 107/2/2 112/2/2
f 108/2/2 109/2/2 113/2/2
f 113/2/2 109/2/2 114/2/2
f 106/2/2 92/2/2 115/2/2
f 110/2/2 106/2/2 115/2/2
f 115/2/2 92/2/2 116/2/2
f 112/2/2 107/2/2 117/2/2
f 108/2/2 113/2/2 118/2/2
f 114/2/2 109/2/2 119/2/2
f 110/2/2 115/2/2 120/2/2
f 117/2/2 118/2/2 121/2/2
f 112/2/2 117/2/2 121/2/2
f 118/2/2 113/2/2 122/2/2
f 121/2/2 118/2/2 122/2/2
f 119/2/2 120/2/2 123/2/2
f 114/2/2 119/2/2 123/2/2
f 120/2/2 115/2/2 124/2/2
f 123/2/2 120/2/2 124/2/2
f 125/2/2 126/2/2 129/2/2
f 129/2/2 126/2/2 130/2/2
f 127/2/2 128/2/2 131/2/2
f 131/2/2 128/2/2 132/2/2
f 133/6/2 134/6/2 137/6/2
f 137/6/2 134/6/2 138/6/2
f 135/6/2 136/6/2 139/6/2
f 139/6/2 136/6/2 140/6/2
f 133/6/2 137/6/2 141/6/2
f 137/5/2 138/5/2 141/5/2
f 138/6/2 134/6/2 142/6/2
f 141/5/2 138/5/2 142/5/2
f 139/5/2 140/5/2 143/5/2
f 135/6/2 139/6/2 143/6/2
f 140/6/2 136/6/2 144/6/2
f 143/5/2 140/5/2 144/5/2
f 133/6/2 141/6/2 145/6/2
f 141/6/2 142/6/2 145/6/2
f 142/6/2 134/6/2 146/6/2
f 145/6/2 142/6/2 146/6/2
f 135/6/2 143/6/2 147/6/2
f 143/6/2 144/6/2 147/6/2
f 144/6/2 136/6/2 148/6/2
f 147/6/2 144/6/2 148/6/2
f 149/4/2 150/4/2 151/4/2
f 151/4/2 150/4/2 152/4/2
f 155/2/3 154/2/3 153/2/3
f 156/2/3 154/2/3 155/2/3
f 161/2/3 158/2/3 157/2/3
f 162/2/3 158/2/3 161/2/3
f 163/2/3 160/2/3 159/2/3
f 164/2/3 160/2/3 163/2/3
f 167/3/3 166/3/3 165/3/3
f 168/3/3 166/3/3 167/3/3
f 169/3/3 166/3/3 168/3/3
f 172/6/3 171/6/3 170/6/3
f 173/6/3 171/6/3 172/6/3
f 176/3/3 175/3/3 174/3/3
f 177/3/3 175/3/3 176/3/3
f 178/3/3 176/3/3 174/3/3
f 179/3/3 176/3/3 178/3/3
f 180/3/3 175/3/3 177/3/3
f 181/3/3 175/3/3 180/3/3
f 184/6/3 183/6/3 182/6/3
f 185/6/3 183/6/3 184/6/3
f 190/4/3 187/4/3 186/4/3
f 191/4/3 189/4/3 188/4/3
f 191/4/3 190/4/3 189/4/3
f 192/4/3 187/4/3 190/4/3
f 192/4/3 190/4/3 191/4/3
f 195/3/3 194/3/3 193/3/3
f 196/3/3 194/3/3 195/3/3
f 199/6/3 198/6/3 197/6/3
f 200/6/3 198/6/3 199/6/3
f 203/2/3 202/2/3 201/2/3
f 204/2/3 202/2/3 203/2/3
f 207/6/3 206/6/3 205/6/3
f 208/6/3 206/6/3 207/6/3
f 211/3/3 210/3/3 209/3/3
f 212/3/3 210/3/3 211/3/3
f 215/2/3 214/2/3 213/2/3
f 216/2/3 214/2/3 215/2/3
f 217/2/4 218/2/4 219/2/4
f 219/2/4 218/2/4 220/2/4
f 221/3/4 222/3/4 223/3/4
f 223/3/4 222/3/4 224/3/4
f 225/6/4 226/6/4 227/6/4
f 227/6/4 226/6/4 228/6/4
f 229/2/4 230/2/4 231/2/4
f 231/2/4 230/2/4 232/2/4
f 233/3/4 234/3/4 235/3/4
f 235/3/4 234/3/4 236/3/4
f 237/6/4 238/6/4 239/6/4
f 239/6/4 238/6/4 240/6/4
f 241/4/4 242/4/4 245/4/4
f 243/4/4 244/4/4 246/4/4
f 244/4/4 245/4/4 246/4/4
f 245/4/4 242/4/4 247/4/4
f 246/4/4 245/4/4 247/4/4
f 248/6/4 249/6/4 250/6/4
f 250/6/4 249/6/4 251/6/4
f 252/3/4 253/3/4 254/3/4
f 254/3/4 253/3/4 255/3/4
f 252/3/4 254/3/4 256/3/4
f 256/3/4 254/3/4 257/3/4
f 255/3/4 253/3/4 258/3/4
f 258/3/4 253/3/4 259/3/4
f 260/3/4 261/3/4 262/3/4
f 262/3/4 261/3/4 263/3/4
f 263/3/4 261/3/4 264/3/4
f 265/6/4 266/6/4 267/6/4
f 267/6/4 266/6/4 268/6/4
f 269/2/4 270/2/4 273/2/4
f 273/2/4 270/2/4 274/2/4
f 271/2/4 272/2/4 275/2/4
f 275/2/4 272/2/4 276/2/4
f 277/2/4 278/2/4 279/2/4
f 279/2/4 278/2/4 280/2/4
f 283/2/5 282/2/5 281/2/5
f 284/2/5 282/2/5 283/2/5
f 287/4/5 286/4/5 285/4/5
f 288/4/5 286/4/5 287/4/5
f 291/2/5 290/2/5 289/2/5
f 292/2/5 291/2/5 289/2/5
f 293/2/5 292/2/5 289/2/5
f 294/2/5 292/2/5 293/2/5
f 297/6/5 296/6/5 295/6/5
f 298/6/5 296/6/5 297/6/5
f 301/6/5 300/6/5 299/6/5
f 302/6/5 300/6/5 301/6/5
f 305/2/5 304/2/5 303/2/5
f 306/2/5 304/2/5 305/2/5
f 307/2/5 305/2/5 303/2/5
f 309/2/5 307/2/5 303/2/5
f 309/2/5 308/2/5 307/2/5
f 310/2/5 308/2/5 309/2/5
f 311/2/5 309/2/5 303/2/5
f 313/2/5 311/2/5 303/2/5
f 313/2/5 312/2/5 311/2/5
f 314/2/5 312/2/5 313/2/5
f 317/6/5 316/6/5 315/6/5
f 318/6/5 316/6/5 317/6/5
f 321/6/5 320/6/5 319/6/5
f 322/6/5 320/6/5 321/6/5
f 325/3/5 324/3/5 323/3/5
f 326/3/5 324/3/5 325/3/5
f 329/3/5 328/3/5 327/3/5
f 330/3/5 328/3/5 329/3/5
f 333/3/5 332/3/5 331/3/5
f 334/3/5 332/3/5 333/3/5
f 335/2/6 336/2/6 338/2/6
f 336/2/6 337/2/6 338/2/6
f 338/2/6 337/2/6 339/2/6
f 340/2/6 341/2/6 342/2/6
f 342/2/6 341/2/6 343/2/6
f 343/2/6 341/2/6 344/2/6
f 345/4/6 346/4/6 347/4/6
f 347/4/6 346/4/6 348/4/6
f 349/2/6 350/2/6 351/2/6
f 351/2/6 350/2/6 352/2/6
f 349/2/6 351/2/6 353/2/6
f 353/2/6 351/2/6 354/2/6
f 349/2/6 353/2/6 357/2/6
f 355/2/6 356/2/6 358/2/6
f 349/2/6 357/2/6 359/2/6
f 357/2/6 358/2/6 359/2/6
f 358/2/6 356/2/6 360/2/6
f 359/2/6 358/2/6 360/2/6
f 360/2/6 356/2/6 361/2/6
f 361/2/6 356/2/6 362/2/6
f 349/2/6 359/2/6 363/2/6
f 363/2/6 364/2/6 365/2/6
f 349/2/6 363/2/6 367/2/6
f 365/2/6 366/2/6 367/2/6
f 363/2/6 365/2/6 367/2/6
f 367/2/6 366/2/6 368/2/6
f 369/6/6 370/6/6 371/6/6
f 371/6/6 370/6/6 372/6/6
f 373/6/6 374/6/6 375/6/6
f 375/6/6 374/6/6 376/6/6
f 377/2/6 378/2/6 379/2/6
f 379/2/6 378/2/6 380/2/6
f 380/2/6 378/2/6 382/2/6
f 381/2/6 382/2/6 383/2/6
f 382/2/6 378/2/6 384/2/6
f 383/2/6 382/2/6 384/2/6
f 385/2/6 386/2/6 387/2/6
f 387/2/6 386/2/6 388/2/6
f 388/2/6 386/2/6 390/2/6
f 389/2/6 390/2/6 391/2/6
f 390/2/6 386/2/6 392/2/6
f 391/2/6 390/2/6 392/2/6
f 393/3/6 394/3/6 395/3/6
f 395/3/6 394/3/6 396/3/6
f 396/3/6 394/3/6 397/3/6
f 398/3/6 399/3/6 401/3/6
f 399/3/6 400/3/6 401/3/6
f 401/3/6 400/3/6 402/3/6
f 403/3/6 404/3/6 405/3/6
f 405/3/6 404/3/6 406/3/6
