# MagicaVoxel @ ephtracy

# material
mtllib cubeboy6.mtl

# mesh name
g cubeboy6_mesh

# normals
vn -1 0 0
vn 1 0 0
vn 0 0 1
vn 0 0 -1
vn 0 -1 0
vn 0 1 0

# texcoords
vt 0.0683594 0.5
vt 0.216797 0.5
vt 0.236328 0.5
vt 0.419922 0.5
vt 0.552734 0.5
vt 0.556641 0.5
vt 0.958984 0.5
vt 0.994141 0.5

# verts
v -8.5 7 10
v -8.5 7 -8
v -8.5 9 10
v -8.5 9 -8
v -8.5 11 10
v -8.5 11 -8
v -8.5 13 10
v -8.5 13 -8
v -8.5 15 10
v -8.5 15 -8
v -8.5 17 10
v -8.5 17 -8
v -8.5 19 10
v -8.5 19 -8
f -12/6/1 -13/6/1 -14/6/1
f -11/6/1 -13/6/1 -12/6/1
f -10/2/1 -11/2/1 -12/2/1
f -9/2/1 -11/2/1 -10/2/1
f -8/6/1 -9/6/1 -10/6/1
f -7/6/1 -9/6/1 -8/6/1
f -6/2/1 -7/2/1 -8/2/1
f -5/2/1 -7/2/1 -6/2/1
f -4/6/1 -5/6/1 -6/6/1
f -3/6/1 -5/6/1 -4/6/1
f -2/2/1 -3/2/1 -4/2/1
f -1/2/1 -3/2/1 -2/2/1
v -7.5 0 9
v -7.5 0 -7
v -7.5 7 9
v -7.5 7 -7
f -2/1/1 -3/1/1 -4/1/1
f -1/1/1 -3/1/1 -2/1/1
v -6.5 19 8
v -6.5 19 -6
v -6.5 20 8
v -6.5 20 -6
f -2/6/1 -3/6/1 -4/6/1
f -1/6/1 -3/6/1 -2/6/1
v -3.5 14 17
v -3.5 14 12
v -3.5 14 -10
v -3.5 14 -15
v -3.5 15 18
v -3.5 15 17
v -3.5 15 -15
v -3.5 15 -16
v -3.5 16 19
v -3.5 16 18
v -3.5 16 -16
v -3.5 16 -17
v -3.5 18 19
v -3.5 18 18
v -3.5 18 -16
v -3.5 18 -17
v -3.5 19 13
v -3.5 19 12
v -3.5 19 -10
v -3.5 19 -11
v -3.5 20 18
v -3.5 20 17
v -3.5 20 14
v -3.5 20 13
v -3.5 20 -11
v -3.5 20 -12
v -3.5 20 -15
v -3.5 20 -16
v -3.5 21 17
v -3.5 21 14
v -3.5 21 -12
v -3.5 21 -15
f -27/4/1 -31/4/1 -32/4/1
f -26/4/1 -29/4/1 -30/4/1
f -23/4/1 -27/4/1 -28/4/1
f -22/4/1 -25/4/1 -26/4/1
f -20/4/1 -23/4/1 -24/4/1
f -19/4/1 -27/4/1 -23/4/1
f -19/4/1 -23/4/1 -20/4/1
f -18/4/1 -21/4/1 -22/4/1
f -18/4/1 -22/4/1 -26/4/1
f -17/4/1 -21/4/1 -18/4/1
f -16/4/1 -27/4/1 -19/4/1
f -16/4/1 -31/4/1 -27/4/1
f -15/4/1 -31/4/1 -16/4/1
f -14/4/1 -18/4/1 -26/4/1
f -14/4/1 -26/4/1 -30/4/1
f -13/4/1 -18/4/1 -14/4/1
f -12/4/1 -16/4/1 -19/4/1
f -11/4/1 -16/4/1 -12/4/1
f -10/4/1 -16/4/1 -11/4/1
f -9/4/1 -16/4/1 -10/4/1
f -8/4/1 -18/4/1 -13/4/1
f -7/4/1 -18/4/1 -8/4/1
f -6/4/1 -18/4/1 -7/4/1
f -5/4/1 -18/4/1 -6/4/1
f -4/4/1 -10/4/1 -11/4/1
f -3/4/1 -10/4/1 -4/4/1
f -2/4/1 -6/4/1 -7/4/1
f -1/4/1 -6/4/1 -2/4/1
v -2.5 15 12
v -2.5 15 10
v -2.5 15 -8
v -2.5 15 -10
v -2.5 17 12
v -2.5 17 10
v -2.5 17 -8
v -2.5 17 -10
f -4/8/1 -7/8/1 -8/8/1
f -3/8/1 -7/8/1 -4/8/1
f -2/8/1 -5/8/1 -6/8/1
f -1/8/1 -5/8/1 -2/8/1
v 1.5 4 10
v 1.5 4 9
v 1.5 4 -7
v 1.5 4 -8
v 1.5 5 10
v 1.5 5 9
v 1.5 5 -7
v 1.5 5 -8
v 1.5 7 10
v 1.5 7 9
v 1.5 7 -7
v 1.5 7 -8
v 1.5 9 10
v 1.5 9 9
v 1.5 9 -7
v 1.5 9 -8
v 1.5 11 10
v 1.5 11 9
v 1.5 11 -7
v 1.5 11 -8
f -16/6/1 -19/6/1 -20/6/1
f -15/6/1 -19/6/1 -16/6/1
f -14/6/1 -17/6/1 -18/6/1
f -13/6/1 -17/6/1 -14/6/1
f -12/2/1 -15/2/1 -16/2/1
f -11/2/1 -15/2/1 -12/2/1
f -10/2/1 -13/2/1 -14/2/1
f -9/2/1 -13/2/1 -10/2/1
f -8/6/1 -11/6/1 -12/6/1
f -7/6/1 -11/6/1 -8/6/1
f -6/6/1 -9/6/1 -10/6/1
f -5/6/1 -9/6/1 -6/6/1
f -4/2/1 -7/2/1 -8/2/1
f -3/2/1 -7/2/1 -4/2/1
f -2/2/1 -5/2/1 -6/2/1
f -1/2/1 -5/2/1 -2/2/1
v 2.5 1 10
v 2.5 1 9
v 2.5 1 -7
v 2.5 1 -8
v 2.5 3 10
v 2.5 3 9
v 2.5 3 -7
v 2.5 3 -8
v 2.5 4 10
v 2.5 4 9
v 2.5 4 -7
v 2.5 4 -8
f -8/2/1 -11/2/1 -12/2/1
f -7/2/1 -11/2/1 -8/2/1
f -6/2/1 -9/2/1 -10/2/1
f -5/2/1 -9/2/1 -6/2/1
f -4/6/1 -7/6/1 -8/6/1
f -3/6/1 -7/6/1 -4/6/1
f -2/6/1 -5/6/1 -6/6/1
f -1/6/1 -5/6/1 -2/6/1
v -4.5 7 10
v -4.5 7 9
v -4.5 7 -7
v -4.5 7 -8
v -4.5 9 10
v -4.5 9 9
v -4.5 9 -7
v -4.5 9 -8
v -4.5 11 10
v -4.5 11 9
v -4.5 11 -7
v -4.5 11 -8
f -12/6/2 -11/6/2 -8/6/2
f -8/6/2 -11/6/2 -7/6/2
f -10/6/2 -9/6/2 -6/6/2
f -6/6/2 -9/6/2 -5/6/2
f -8/2/2 -7/2/2 -4/2/2
f -4/2/2 -7/2/2 -3/2/2
f -6/2/2 -5/2/2 -2/2/2
f -2/2/2 -5/2/2 -1/2/2
v -0.5 15 12
v -0.5 15 10
v -0.5 15 -8
v -0.5 15 -10
v -0.5 17 12
v -0.5 17 10
v -0.5 17 -8
v -0.5 17 -10
f -8/8/2 -7/8/2 -4/8/2
f -4/8/2 -7/8/2 -3/8/2
f -6/8/2 -5/8/2 -2/8/2
f -2/8/2 -5/8/2 -1/8/2
v 0.5 14 17
v 0.5 14 12
v 0.5 14 -10
v 0.5 14 -15
v 0.5 15 18
v 0.5 15 17
v 0.5 15 -15
v 0.5 15 -16
v 0.5 16 19
v 0.5 16 18
v 0.5 16 -16
v 0.5 16 -17
v 0.5 18 19
v 0.5 18 18
v 0.5 18 -16
v 0.5 18 -17
v 0.5 19 13
v 0.5 19 12
v 0.5 19 -10
v 0.5 19 -11
v 0.5 20 18
v 0.5 20 17
v 0.5 20 14
v 0.5 20 13
v 0.5 20 -11
v 0.5 20 -12
v 0.5 20 -15
v 0.5 20 -16
v 0.5 21 17
v 0.5 21 14
v 0.5 21 -12
v 0.5 21 -15
f -32/4/2 -31/4/2 -27/4/2
f -30/4/2 -29/4/2 -26/4/2
f -28/4/2 -27/4/2 -23/4/2
f -26/4/2 -25/4/2 -22/4/2
f -24/4/2 -23/4/2 -20/4/2
f -23/4/2 -27/4/2 -19/4/2
f -20/4/2 -23/4/2 -19/4/2
f -22/4/2 -21/4/2 -18/4/2
f -26/4/2 -22/4/2 -18/4/2
f -18/4/2 -21/4/2 -17/4/2
f -19/4/2 -27/4/2 -16/4/2
f -27/4/2 -31/4/2 -16/4/2
f -16/4/2 -31/4/2 -15/4/2
f -26/4/2 -18/4/2 -14/4/2
f -30/4/2 -26/4/2 -14/4/2
f -14/4/2 -18/4/2 -13/4/2
f -19/4/2 -16/4/2 -12/4/2
f -12/4/2 -16/4/2 -11/4/2
f -11/4/2 -16/4/2 -10/4/2
f -10/4/2 -16/4/2 -9/4/2
f -13/4/2 -18/4/2 -8/4/2
f -8/4/2 -18/4/2 -7/4/2
f -7/4/2 -18/4/2 -6/4/2
f -6/4/2 -18/4/2 -5/4/2
f -11/4/2 -10/4/2 -4/4/2
f -4/4/2 -10/4/2 -3/4/2
f -7/4/2 -6/4/2 -2/4/2
f -2/4/2 -6/4/2 -1/4/2
v 3.5 19 8
v 3.5 19 -6
v 3.5 20 8
v 3.5 20 -6
f -4/6/2 -3/6/2 -2/6/2
f -2/6/2 -3/6/2 -1/6/2
v 4.5 1 10
v 4.5 1 9
v 4.5 1 -7
v 4.5 1 -8
v 4.5 3 10
v 4.5 3 9
v 4.5 3 -7
v 4.5 3 -8
v 4.5 5 10
v 4.5 5 9
v 4.5 5 -7
v 4.5 5 -8
v 4.5 7 10
v 4.5 7 9
v 4.5 7 -7
v 4.5 7 -8
v 4.5 9 10
v 4.5 9 9
v 4.5 9 -7
v 4.5 9 -8
v 4.5 11 10
v 4.5 11 9
v 4.5 11 -7
v 4.5 11 -8
v 4.5 13 10
v 4.5 13 9
v 4.5 13 -7
v 4.5 13 -8
v 4.5 15 10
v 4.5 15 9
v 4.5 15 -7
v 4.5 15 -8
v 4.5 18 10
v 4.5 18 -8
v 4.5 19 10
v 4.5 19 -8
f -36/2/2 -35/2/2 -32/2/2
f -32/2/2 -35/2/2 -31/2/2
f -34/2/2 -33/2/2 -30/2/2
f -30/2/2 -33/2/2 -29/2/2
f -32/6/2 -31/6/2 -28/6/2
f -28/6/2 -31/6/2 -27/6/2
f -30/6/2 -29/6/2 -26/6/2
f -26/6/2 -29/6/2 -25/6/2
f -28/2/2 -27/2/2 -24/2/2
f -24/2/2 -27/2/2 -23/2/2
f -26/2/2 -25/2/2 -22/2/2
f -22/2/2 -25/2/2 -21/2/2
f -24/6/2 -23/6/2 -20/6/2
f -20/6/2 -23/6/2 -19/6/2
f -22/6/2 -21/6/2 -18/6/2
f -18/6/2 -21/6/2 -17/6/2
f -20/2/2 -19/2/2 -16/2/2
f -16/2/2 -19/2/2 -15/2/2
f -18/2/2 -17/2/2 -14/2/2
f -14/2/2 -17/2/2 -13/2/2
f -16/6/2 -15/6/2 -12/6/2
f -12/6/2 -15/6/2 -11/6/2
f -14/6/2 -13/6/2 -10/6/2
f -10/6/2 -13/6/2 -9/6/2
f -12/2/2 -11/2/2 -8/2/2
f -8/2/2 -11/2/2 -7/2/2
f -10/2/2 -9/2/2 -6/2/2
f -6/2/2 -9/2/2 -5/2/2
f -4/2/2 -3/2/2 -2/2/2
f -2/2/2 -3/2/2 -1/2/2
v 5.5 0 9
v 5.5 0 -7
v 5.5 5 3
v 5.5 5 -1
v 5.5 6 3
v 5.5 6 -1
v 5.5 9 7
v 5.5 9 4
v 5.5 9 -2
v 5.5 9 -5
v 5.5 10 7
v 5.5 10 4
v 5.5 10 -2
v 5.5 10 -5
v 5.5 11 7
v 5.5 11 4
v 5.5 11 -2
v 5.5 11 -5
v 5.5 13 5
v 5.5 13 4
v 5.5 13 -4
v 5.5 13 -5
v 5.5 14 7
v 5.5 14 5
v 5.5 14 4
v 5.5 14 -2
v 5.5 14 -4
v 5.5 14 -5
v 5.5 15 9
v 5.5 15 6
v 5.5 15 -5
v 5.5 15 -7
v 5.5 17 6
v 5.5 17 -5
f -34/1/2 -33/1/2 -32/1/2
f -32/1/2 -33/1/2 -31/1/2
f -34/1/2 -32/1/2 -30/1/2
f -31/1/2 -33/1/2 -29/1/2
f -34/1/2 -30/1/2 -28/1/2
f -30/1/2 -29/1/2 -28/1/2
f -28/1/2 -29/1/2 -27/1/2
f -29/1/2 -33/1/2 -26/1/2
f -27/1/2 -29/1/2 -26/1/2
f -26/1/2 -33/1/2 -25/1/2
f -28/3/2 -27/3/2 -24/3/2
f -34/1/2 -28/1/2 -24/1/2
f -27/1/2 -26/1/2 -23/1/2
f -24/3/2 -27/3/2 -23/3/2
f -26/3/2 -25/3/2 -22/3/2
f -23/1/2 -26/1/2 -22/1/2
f -25/1/2 -33/1/2 -21/1/2
f -22/3/2 -25/3/2 -21/3/2
f -23/1/2 -22/1/2 -20/1/2
f -24/1/2 -23/1/2 -20/1/2
f -22/1/2 -21/1/2 -20/1/2
f -34/1/2 -24/1/2 -20/1/2
f -20/1/2 -21/1/2 -19/1/2
f -19/1/2 -21/1/2 -18/1/2
f -21/1/2 -33/1/2 -17/1/2
f -18/1/2 -21/1/2 -17/1/2
f -20/8/2 -19/8/2 -16/8/2
f -19/1/2 -18/1/2 -15/1/2
f -16/8/2 -19/8/2 -15/8/2
f -18/8/2 -17/8/2 -14/8/2
f -17/1/2 -33/1/2 -13/1/2
f -14/8/2 -17/8/2 -13/8/2
f -20/8/2 -16/8/2 -12/8/2
f -34/1/2 -20/1/2 -12/1/2
f -16/7/2 -15/7/2 -11/7/2
f -12/8/2 -16/8/2 -11/8/2
f -15/1/2 -18/1/2 -10/1/2
f -11/7/2 -15/7/2 -10/7/2
f -18/8/2 -14/8/2 -9/8/2
f -10/1/2 -18/1/2 -9/1/2
f -14/7/2 -13/7/2 -8/7/2
f -9/8/2 -14/8/2 -8/8/2
f -13/1/2 -33/1/2 -7/1/2
f -8/7/2 -13/7/2 -7/7/2
f -9/1/2 -8/1/2 -6/1/2
f -10/1/2 -9/1/2 -6/1/2
f -8/1/2 -7/1/2 -6/1/2
f -34/1/2 -12/1/2 -6/1/2
f -12/1/2 -11/1/2 -6/1/2
f -11/1/2 -10/1/2 -6/1/2
f -6/1/2 -7/1/2 -5/1/2
f -7/1/2 -33/1/2 -4/1/2
f -5/1/2 -7/1/2 -4/1/2
f -4/1/2 -33/1/2 -3/1/2
f -5/1/2 -4/1/2 -2/1/2
f -2/1/2 -4/1/2 -1/1/2
v 6.5 5 3
v 6.5 5 -1
v 6.5 6 3
v 6.5 6 -1
v 6.5 15 10
v 6.5 15 6
v 6.5 15 -5
v 6.5 15 -8
v 6.5 17 6
v 6.5 17 -5
v 6.5 18 10
v 6.5 18 -8
f -12/5/2 -11/5/2 -10/5/2
f -10/5/2 -11/5/2 -9/5/2
f -8/4/2 -7/4/2 -4/4/2
f -6/4/2 -5/4/2 -3/4/2
f -8/4/2 -4/4/2 -2/4/2
f -4/4/2 -3/4/2 -2/4/2
f -3/4/2 -5/4/2 -1/4/2
f -2/4/2 -3/4/2 -1/4/2
v -3.5 16 19
v -3.5 18 19
v 0.5 16 19
v 0.5 18 19
f -2/4/3 -3/4/3 -4/4/3
f -1/4/3 -3/4/3 -2/4/3
v -3.5 15 18
v -3.5 16 18
v -3.5 18 18
v -3.5 20 18
v 0.5 15 18
v 0.5 16 18
v 0.5 18 18
v 0.5 20 18
f -4/4/3 -7/4/3 -8/4/3
f -3/4/3 -7/4/3 -4/4/3
f -2/4/3 -5/4/3 -6/4/3
f -1/4/3 -5/4/3 -2/4/3
v -3.5 14 17
v -3.5 15 17
v -3.5 20 17
v -3.5 21 17
v 0.5 14 17
v 0.5 15 17
v 0.5 20 17
v 0.5 21 17
f -4/4/3 -7/4/3 -8/4/3
f -3/4/3 -7/4/3 -4/4/3
f -2/4/3 -5/4/3 -6/4/3
f -1/4/3 -5/4/3 -2/4/3
v -8.5 7 10
v -8.5 9 10
v -8.5 11 10
v -8.5 13 10
v -8.5 15 10
v -8.5 17 10
v -8.5 19 10
v -4.5 7 10
v -4.5 9 10
v -4.5 11 10
v -2.5 15 10
v -2.5 17 10
v -0.5 15 10
v -0.5 17 10
v 1.5 4 10
v 1.5 5 10
v 1.5 7 10
v 1.5 9 10
v 1.5 11 10
v 2.5 1 10
v 2.5 3 10
v 2.5 4 10
v 4.5 1 10
v 4.5 3 10
v 4.5 5 10
v 4.5 7 10
v 4.5 9 10
v 4.5 11 10
v 4.5 13 10
v 4.5 15 10
v 4.5 17 10
v 4.5 18 10
v 4.5 19 10
v 6.5 15 10
v 6.5 18 10
f -28/6/3 -34/6/3 -35/6/3
f -27/2/3 -33/2/3 -34/2/3
f -27/6/3 -34/6/3 -28/6/3
f -26/6/3 -32/6/3 -33/6/3
f -26/2/3 -33/2/3 -27/2/3
f -25/2/3 -31/2/3 -32/2/3
f -25/6/3 -30/6/3 -31/6/3
f -24/2/3 -29/2/3 -30/2/3
f -24/6/3 -30/6/3 -25/6/3
f -23/2/3 -25/2/3 -32/2/3
f -22/2/3 -29/2/3 -24/2/3
f -17/6/3 -32/6/3 -26/6/3
f -14/6/3 -20/6/3 -21/6/3
f -13/2/3 -15/2/3 -16/2/3
f -12/6/3 -14/6/3 -15/6/3
f -12/2/3 -15/2/3 -13/2/3
f -11/2/3 -19/2/3 -20/2/3
f -11/6/3 -14/6/3 -12/6/3
f -11/6/3 -20/6/3 -14/6/3
f -10/6/3 -18/6/3 -19/6/3
f -10/2/3 -19/2/3 -11/2/3
f -9/2/3 -17/2/3 -18/2/3
f -9/6/3 -18/6/3 -10/6/3
f -8/6/3 -32/6/3 -17/6/3
f -8/2/3 -17/2/3 -9/2/3
f -7/2/3 -23/2/3 -32/2/3
f -7/6/3 -32/6/3 -8/6/3
f -6/6/3 -22/6/3 -23/6/3
f -6/2/3 -23/2/3 -7/2/3
f -5/2/3 -29/2/3 -22/2/3
f -5/6/3 -22/6/3 -6/6/3
f -4/2/3 -29/2/3 -5/2/3
f -3/2/3 -29/2/3 -4/2/3
f -2/4/3 -4/4/3 -5/4/3
f -2/4/3 -5/4/3 -6/4/3
f -1/4/3 -4/4/3 -2/4/3
v -7.5 0 9
v -7.5 7 9
v -4.5 7 9
v -4.5 9 9
v -4.5 11 9
v 1.5 4 9
v 1.5 5 9
v 1.5 7 9
v 1.5 9 9
v 1.5 11 9
v 2.5 1 9
v 2.5 3 9
v 2.5 4 9
v 4.5 1 9
v 4.5 3 9
v 4.5 5 9
v 4.5 7 9
v 4.5 9 9
v 4.5 11 9
v 4.5 13 9
v 4.5 15 9
v 5.5 0 9
v 5.5 15 9
f -21/1/3 -22/1/3 -23/1/3
f -18/1/3 -21/1/3 -23/1/3
f -18/1/3 -19/1/3 -20/1/3
f -18/1/3 -20/1/3 -21/1/3
f -17/1/3 -19/1/3 -18/1/3
f -16/1/3 -19/1/3 -17/1/3
f -15/1/3 -19/1/3 -16/1/3
f -14/1/3 -19/1/3 -15/1/3
f -13/1/3 -18/1/3 -23/1/3
f -12/1/3 -18/1/3 -13/1/3
f -11/1/3 -18/1/3 -12/1/3
f -10/1/3 -13/1/3 -23/1/3
f -2/1/3 -5/1/3 -6/1/3
f -2/1/3 -3/1/3 -4/1/3
f -2/1/3 -4/1/3 -5/1/3
f -2/1/3 -6/1/3 -7/1/3
f -2/1/3 -7/1/3 -8/1/3
f -2/1/3 -8/1/3 -9/1/3
f -2/1/3 -10/1/3 -23/1/3
f -2/1/3 -9/1/3 -10/1/3
f -1/1/3 -3/1/3 -2/1/3
v -6.5 19 8
v -6.5 20 8
v 3.5 19 8
v 3.5 20 8
f -2/6/3 -3/6/3 -4/6/3
f -1/6/3 -3/6/3 -2/6/3
v 5.5 5 3
v 5.5 6 3
v 6.5 5 3
v 6.5 6 3
f -2/5/3 -3/5/3 -4/5/3
f -1/5/3 -3/5/3 -2/5/3
v 5.5 15 -5
v 5.5 17 -5
v 6.5 15 -5
v 6.5 17 -5
f -2/4/3 -3/4/3 -4/4/3
f -1/4/3 -3/4/3 -2/4/3
v -3.5 14 -10
v -3.5 19 -10
v -2.5 15 -10
v -2.5 17 -10
v -0.5 15 -10
v -0.5 17 -10
v 0.5 14 -10
v 0.5 19 -10
f -6/4/3 -7/4/3 -8/4/3
f -5/4/3 -7/4/3 -6/4/3
f -4/4/3 -6/4/3 -8/4/3
f -3/4/3 -7/4/3 -5/4/3
f -2/4/3 -4/4/3 -8/4/3
f -2/4/3 -3/4/3 -4/4/3
f -1/4/3 -7/4/3 -3/4/3
f -1/4/3 -3/4/3 -2/4/3
v -3.5 19 -11
v -3.5 20 -11
v 0.5 19 -11
v 0.5 20 -11
f -2/4/3 -3/4/3 -4/4/3
f -1/4/3 -3/4/3 -2/4/3
v -3.5 20 -12
v -3.5 21 -12
v 0.5 20 -12
v 0.5 21 -12
f -2/4/3 -3/4/3 -4/4/3
f -1/4/3 -3/4/3 -2/4/3
v -3.5 20 14
v -3.5 21 14
v 0.5 20 14
v 0.5 21 14
f -4/4/4 -3/4/4 -2/4/4
f -2/4/4 -3/4/4 -1/4/4
v -3.5 19 13
v -3.5 20 13
v 0.5 19 13
v 0.5 20 13
f -4/4/4 -3/4/4 -2/4/4
f -2/4/4 -3/4/4 -1/4/4
v -3.5 14 12
v -3.5 19 12
v -2.5 15 12
v -2.5 17 12
v -0.5 15 12
v -0.5 17 12
v 0.5 14 12
v 0.5 19 12
f -8/4/4 -7/4/4 -6/4/4
f -6/4/4 -7/4/4 -5/4/4
f -8/4/4 -6/4/4 -4/4/4
f -5/4/4 -7/4/4 -3/4/4
f -8/4/4 -4/4/4 -2/4/4
f -4/4/4 -3/4/4 -2/4/4
f -3/4/4 -7/4/4 -1/4/4
f -2/4/4 -3/4/4 -1/4/4
v 5.5 15 6
v 5.5 17 6
v 6.5 15 6
v 6.5 17 6
f -4/4/4 -3/4/4 -2/4/4
f -2/4/4 -3/4/4 -1/4/4
v 5.5 5 -1
v 5.5 6 -1
v 6.5 5 -1
v 6.5 6 -1
f -4/5/4 -3/5/4 -2/5/4
f -2/5/4 -3/5/4 -1/5/4
v -6.5 19 -6
v -6.5 20 -6
v 3.5 19 -6
v 3.5 20 -6
f -4/6/4 -3/6/4 -2/6/4
f -2/6/4 -3/6/4 -1/6/4
v -7.5 0 -7
v -7.5 7 -7
v -4.5 7 -7
v -4.5 9 -7
v -4.5 11 -7
v 1.5 4 -7
v 1.5 5 -7
v 1.5 7 -7
v 1.5 9 -7
v 1.5 11 -7
v 2.5 1 -7
v 2.5 3 -7
v 2.5 4 -7
v 4.5 1 -7
v 4.5 3 -7
v 4.5 5 -7
v 4.5 7 -7
v 4.5 9 -7
v 4.5 11 -7
v 4.5 13 -7
v 4.5 15 -7
v 5.5 0 -7
v 5.5 15 -7
f -23/1/4 -22/1/4 -21/1/4
f -23/1/4 -21/1/4 -18/1/4
f -20/1/4 -19/1/4 -18/1/4
f -21/1/4 -20/1/4 -18/1/4
f -18/1/4 -19/1/4 -17/1/4
f -17/1/4 -19/1/4 -16/1/4
f -16/1/4 -19/1/4 -15/1/4
f -15/1/4 -19/1/4 -14/1/4
f -23/1/4 -18/1/4 -13/1/4
f -13/1/4 -18/1/4 -12/1/4
f -12/1/4 -18/1/4 -11/1/4
f -23/1/4 -13/1/4 -10/1/4
f -6/1/4 -5/1/4 -2/1/4
f -4/1/4 -3/1/4 -2/1/4
f -5/1/4 -4/1/4 -2/1/4
f -7/1/4 -6/1/4 -2/1/4
f -8/1/4 -7/1/4 -2/1/4
f -9/1/4 -8/1/4 -2/1/4
f -23/1/4 -10/1/4 -2/1/4
f -10/1/4 -9/1/4 -2/1/4
f -2/1/4 -3/1/4 -1/1/4
v -8.5 7 -8
v -8.5 9 -8
v -8.5 11 -8
v -8.5 13 -8
v -8.5 15 -8
v -8.5 17 -8
v -8.5 19 -8
v -4.5 7 -8
v -4.5 9 -8
v -4.5 11 -8
v -2.5 15 -8
v -2.5 17 -8
v -0.5 15 -8
v -0.5 17 -8
v 1.5 4 -8
v 1.5 5 -8
v 1.5 7 -8
v 1.5 9 -8
v 1.5 11 -8
v 2.5 1 -8
v 2.5 3 -8
v 2.5 4 -8
v 4.5 1 -8
v 4.5 3 -8
v 4.5 5 -8
v 4.5 7 -8
v 4.5 9 -8
v 4.5 11 -8
v 4.5 13 -8
v 4.5 15 -8
v 4.5 17 -8
v 4.5 18 -8
v 4.5 19 -8
v 6.5 15 -8
v 6.5 18 -8
f -35/6/4 -34/6/4 -28/6/4
f -34/2/4 -33/2/4 -27/2/4
f -28/6/4 -34/6/4 -27/6/4
f -33/6/4 -32/6/4 -26/6/4
f -27/2/4 -33/2/4 -26/2/4
f -32/2/4 -31/2/4 -25/2/4
f -31/6/4 -30/6/4 -25/6/4
f -30/2/4 -29/2/4 -24/2/4
f -25/6/4 -30/6/4 -24/6/4
f -32/2/4 -25/2/4 -23/2/4
f -24/2/4 -29/2/4 -22/2/4
f -26/6/4 -32/6/4 -17/6/4
f -21/6/4 -20/6/4 -14/6/4
f -16/2/4 -15/2/4 -13/2/4
f -15/6/4 -14/6/4 -12/6/4
f -13/2/4 -15/2/4 -12/2/4
f -20/2/4 -19/2/4 -11/2/4
f -12/6/4 -14/6/4 -11/6/4
f -14/6/4 -20/6/4 -11/6/4
f -19/6/4 -18/6/4 -10/6/4
f -11/2/4 -19/2/4 -10/2/4
f -18/2/4 -17/2/4 -9/2/4
f -10/6/4 -18/6/4 -9/6/4
f -17/6/4 -32/6/4 -8/6/4
f -9/2/4 -17/2/4 -8/2/4
f -32/2/4 -23/2/4 -7/2/4
f -8/6/4 -32/6/4 -7/6/4
f -23/6/4 -22/6/4 -6/6/4
f -7/2/4 -23/2/4 -6/2/4
f -22/2/4 -29/2/4 -5/2/4
f -6/6/4 -22/6/4 -5/6/4
f -5/2/4 -29/2/4 -4/2/4
f -4/2/4 -29/2/4 -3/2/4
f -5/4/4 -4/4/4 -2/4/4
f -6/4/4 -5/4/4 -2/4/4
f -2/4/4 -4/4/4 -1/4/4
v -3.5 14 -15
v -3.5 15 -15
v -3.5 20 -15
v -3.5 21 -15
v 0.5 14 -15
v 0.5 15 -15
v 0.5 20 -15
v 0.5 21 -15
f -8/4/4 -7/4/4 -4/4/4
f -4/4/4 -7/4/4 -3/4/4
f -6/4/4 -5/4/4 -2/4/4
f -2/4/4 -5/4/4 -1/4/4
v -3.5 15 -16
v -3.5 16 -16
v -3.5 18 -16
v -3.5 20 -16
v 0.5 15 -16
v 0.5 16 -16
v 0.5 18 -16
v 0.5 20 -16
f -8/4/4 -7/4/4 -4/4/4
f -4/4/4 -7/4/4 -3/4/4
f -6/4/4 -5/4/4 -2/4/4
f -2/4/4 -5/4/4 -1/4/4
v -3.5 16 -17
v -3.5 18 -17
v 0.5 16 -17
v 0.5 18 -17
f -4/4/4 -3/4/4 -2/4/4
f -2/4/4 -3/4/4 -1/4/4
v -7.5 0 9
v 5.5 0 9
v -7.5 0 -7
v 5.5 0 -7
f -2/1/5 -3/1/5 -4/1/5
f -1/1/5 -3/1/5 -2/1/5
v 2.5 1 10
v 4.5 1 10
v 2.5 1 9
v 4.5 1 9
v 2.5 1 -7
v 4.5 1 -7
v 2.5 1 -8
v 4.5 1 -8
f -6/2/5 -7/2/5 -8/2/5
f -5/2/5 -7/2/5 -6/2/5
f -2/2/5 -3/2/5 -4/2/5
f -1/2/5 -3/2/5 -2/2/5
v 1.5 4 10
v 2.5 4 10
v 1.5 4 9
v 2.5 4 9
v 1.5 4 -7
v 2.5 4 -7
v 1.5 4 -8
v 2.5 4 -8
f -6/6/5 -7/6/5 -8/6/5
f -5/6/5 -7/6/5 -6/6/5
f -2/6/5 -3/6/5 -4/6/5
f -1/6/5 -3/6/5 -2/6/5
v 5.5 5 3
v 6.5 5 3
v 5.5 5 -1
v 6.5 5 -1
f -2/5/5 -3/5/5 -4/5/5
f -1/5/5 -3/5/5 -2/5/5
v -8.5 7 10
v -4.5 7 10
v -7.5 7 9
v -4.5 7 9
v -7.5 7 -7
v -4.5 7 -7
v -8.5 7 -8
v -4.5 7 -8
f -6/6/5 -7/6/5 -8/6/5
f -5/6/5 -7/6/5 -6/6/5
f -4/6/5 -6/6/5 -8/6/5
f -2/6/5 -4/6/5 -8/6/5
f -2/6/5 -3/6/5 -4/6/5
f -1/6/5 -3/6/5 -2/6/5
v -4.5 11 10
v 1.5 11 10
v -4.5 11 9
v 1.5 11 9
v -4.5 11 -7
v 1.5 11 -7
v -4.5 11 -8
v 1.5 11 -8
f -6/6/5 -7/6/5 -8/6/5
f -5/6/5 -7/6/5 -6/6/5
f -2/6/5 -3/6/5 -4/6/5
f -1/6/5 -3/6/5 -2/6/5
v -3.5 14 17
v 0.5 14 17
v -3.5 14 12
v 0.5 14 12
v -3.5 14 -10
v 0.5 14 -10
v -3.5 14 -15
v 0.5 14 -15
f -6/4/5 -7/4/5 -8/4/5
f -5/4/5 -7/4/5 -6/4/5
f -2/4/5 -3/4/5 -4/4/5
f -1/4/5 -3/4/5 -2/4/5
v -3.5 15 18
v 0.5 15 18
v -3.5 15 17
v 0.5 15 17
v -2.5 15 12
v -0.5 15 12
v -2.5 15 10
v -0.5 15 10
v 4.5 15 10
v 6.5 15 10
v 4.5 15 9
v 5.5 15 9
v 5.5 15 6
v 6.5 15 6
v 5.5 15 -5
v 6.5 15 -5
v 4.5 15 -7
v 5.5 15 -7
v -2.5 15 -8
v -0.5 15 -8
v 4.5 15 -8
v 6.5 15 -8
v -2.5 15 -10
v -0.5 15 -10
v -3.5 15 -15
v 0.5 15 -15
v -3.5 15 -16
v 0.5 15 -16
f -26/4/5 -27/4/5 -28/4/5
f -25/4/5 -27/4/5 -26/4/5
f -22/8/5 -23/8/5 -24/8/5
f -21/8/5 -23/8/5 -22/8/5
f -18/4/5 -19/4/5 -20/4/5
f -17/4/5 -19/4/5 -18/4/5
f -16/4/5 -19/4/5 -17/4/5
f -15/4/5 -19/4/5 -16/4/5
f -11/4/5 -13/4/5 -14/4/5
f -8/4/5 -11/4/5 -12/4/5
f -7/4/5 -13/4/5 -11/4/5
f -7/4/5 -11/4/5 -8/4/5
f -6/8/5 -9/8/5 -10/8/5
f -5/8/5 -9/8/5 -6/8/5
f -2/4/5 -3/4/5 -4/4/5
f -1/4/5 -3/4/5 -2/4/5
v -3.5 16 19
v 0.5 16 19
v -3.5 16 18
v 0.5 16 18
v -3.5 16 -16
v 0.5 16 -16
v -3.5 16 -17
v 0.5 16 -17
f -6/4/5 -7/4/5 -8/4/5
f -5/4/5 -7/4/5 -6/4/5
f -2/4/5 -3/4/5 -4/4/5
f -1/4/5 -3/4/5 -2/4/5
v 5.5 17 6
v 6.5 17 6
v 5.5 17 -5
v 6.5 17 -5
f -2/4/5 -3/4/5 -4/4/5
f -1/4/5 -3/4/5 -2/4/5
v 5.5 6 3
v 6.5 6 3
v 5.5 6 -1
v 6.5 6 -1
f -4/5/6 -3/5/6 -2/5/6
f -2/5/6 -3/5/6 -1/5/6
v -2.5 17 12
v -0.5 17 12
v -2.5 17 10
v -0.5 17 10
v -2.5 17 -8
v -0.5 17 -8
v -2.5 17 -10
v -0.5 17 -10
f -8/8/6 -7/8/6 -6/8/6
f -6/8/6 -7/8/6 -5/8/6
f -4/8/6 -3/8/6 -2/8/6
f -2/8/6 -3/8/6 -1/8/6
v -3.5 18 19
v 0.5 18 19
v -3.5 18 18
v 0.5 18 18
v 4.5 18 10
v 6.5 18 10
v 4.5 18 -8
v 6.5 18 -8
v -3.5 18 -16
v 0.5 18 -16
v -3.5 18 -17
v 0.5 18 -17
f -12/4/6 -11/4/6 -10/4/6
f -10/4/6 -11/4/6 -9/4/6
f -8/4/6 -7/4/6 -6/4/6
f -6/4/6 -7/4/6 -5/4/6
f -4/4/6 -3/4/6 -2/4/6
f -2/4/6 -3/4/6 -1/4/6
v -3.5 19 13
v 0.5 19 13
v -3.5 19 12
v 0.5 19 12
v -8.5 19 10
v 4.5 19 10
v -7.5 19 9
v 3.5 19 9
v -6.5 19 8
v 3.5 19 8
v -6.5 19 -6
v 3.5 19 -6
v -7.5 19 -7
v 3.5 19 -7
v -8.5 19 -8
v 4.5 19 -8
v -3.5 19 -10
v 0.5 19 -10
v -3.5 19 -11
v 0.5 19 -11
f -20/4/6 -19/4/6 -18/4/6
f -18/4/6 -19/4/6 -17/4/6
f -16/2/6 -15/2/6 -14/2/6
f -14/2/6 -15/2/6 -13/2/6
f -14/6/6 -13/6/6 -12/6/6
f -13/2/6 -15/2/6 -11/2/6
f -12/6/6 -13/6/6 -11/6/6
f -14/6/6 -12/6/6 -10/6/6
f -11/2/6 -15/2/6 -9/2/6
f -16/2/6 -14/2/6 -8/2/6
f -10/6/6 -9/6/6 -8/6/6
f -14/6/6 -10/6/6 -8/6/6
f -9/2/6 -15/2/6 -7/2/6
f -8/6/6 -9/6/6 -7/6/6
f -16/2/6 -8/2/6 -6/2/6
f -8/2/6 -7/2/6 -6/2/6
f -7/2/6 -15/2/6 -5/2/6
f -6/2/6 -7/2/6 -5/2/6
f -4/4/6 -3/4/6 -2/4/6
f -2/4/6 -3/4/6 -1/4/6
v -3.5 20 18
v 0.5 20 18
v -3.5 20 17
v 0.5 20 17
v -3.5 20 14
v 0.5 20 14
v -3.5 20 13
v 0.5 20 13
v -6.5 20 8
v 3.5 20 8
v -5.5 20 7
v 2.5 20 7
v -4.5 20 5
v 0.5 20 5
v -4.5 20 -3
v 0.5 20 -3
v -5.5 20 -5
v 2.5 20 -5
v -6.5 20 -6
v 3.5 20 -6
v -3.5 20 -11
v 0.5 20 -11
v -3.5 20 -12
v 0.5 20 -12
v -3.5 20 -15
v 0.5 20 -15
v -3.5 20 -16
v 0.5 20 -16
f -28/4/6 -27/4/6 -26/4/6
f -26/4/6 -27/4/6 -25/4/6
f -24/4/6 -23/4/6 -22/4/6
f -22/4/6 -23/4/6 -21/4/6
f -20/6/6 -19/6/6 -18/6/6
f -18/6/6 -19/6/6 -17/6/6
f -18/2/6 -17/2/6 -16/2/6
f -16/2/6 -17/2/6 -15/2/6
f -18/2/6 -16/2/6 -14/2/6
f -16/6/6 -15/6/6 -14/6/6
f -15/2/6 -17/2/6 -13/2/6
f -14/6/6 -15/6/6 -13/6/6
f -20/6/6 -18/6/6 -12/6/6
f -18/2/6 -14/2/6 -12/2/6
f -14/2/6 -13/2/6 -12/2/6
f -13/2/6 -17/2/6 -11/2/6
f -12/2/6 -13/2/6 -11/2/6
f -17/6/6 -19/6/6 -11/6/6
f -20/6/6 -12/6/6 -10/6/6
f -12/6/6 -11/6/6 -10/6/6
f -11/6/6 -19/6/6 -9/6/6
f -10/6/6 -11/6/6 -9/6/6
f -8/4/6 -7/4/6 -6/4/6
f -6/4/6 -7/4/6 -5/4/6
f -4/4/6 -3/4/6 -2/4/6
f -2/4/6 -3/4/6 -1/4/6
v -3.5 21 17
v 0.5 21 17
v -3.5 21 14
v 0.5 21 14
v -3.5 21 -12
v 0.5 21 -12
v -3.5 21 -15
v 0.5 21 -15
f -8/4/6 -7/4/6 -6/4/6
f -6/4/6 -7/4/6 -5/4/6
f -4/4/6 -3/4/6 -2/4/6
f -2/4/6 -3/4/6 -1/4/6
