# MagicaVoxel @ ephtracy

# material
mtllib cubeboy38.mtl
usemtl palette

# mesh name
g cubeboy38_mesh

# normals
vn -1 0 0
vn 1 0 0
vn 0 0 1
vn 0 0 -1
vn 0 -1 0
vn 0 1 0

# texcoords
vt 0.00976563 0.5
vt 0.138672 0.5
vt 0.279297 0.5
vt 0.396484 0.5
vt 0.537109 0.5
vt 0.634766 0.5
vt 0.958984 0.5
vt 0.974609 0.5
vt 0.994141 0.5

# verts
v -8 12 8
v -8 12 -8
v -8 17 8
v -8 17 -8
v -7 0 8
v -7 0 -8
v -7 12 9
v -7 12 8
v -7 12 -8
v -7 12 -9
v -7 17 9
v -7 17 8
v -7 17 -8
v -7 17 -9
v -7 18 8
v -7 18 -8
v -6 18 7
v -6 18 -7
v -6 20 7
v -6 20 -7
v -1 20 6
v -1 20 1
v -1 20 -1
v -1 20 -6
v -1 22 6
v -1 22 1
v -1 22 -1
v -1 22 -6
v 0 18 8
v 0 18 7
v 0 18 -7
v 0 18 -8
v 0 20 8
v 0 20 7
v 0 20 6
v 0 20 1
v 0 20 -1
v 0 20 -6
v 0 20 -7
v 0 20 -8
v 0 21 7
v 0 21 6
v 0 21 -6
v 0 21 -7
v 0 22 1
v 0 22 -1
v 2 6 9
v 2 6 8
v 2 6 -8
v 2 6 -9
v 2 12 9
v 2 12 8
v 2 12 -8
v 2 12 -9
v 4 20 7
v 4 20 -3
v 4 21 -2
v 4 21 -3
v 4 22 7
v 4 22 -2
v 2 18 8
v 2 18 7
v 2 18 -7
v 2 18 -8
v 2 20 8
v 2 20 7
v 2 20 6
v 2 20 1
v 2 20 -1
v 2 20 -6
v 2 20 -7
v 2 20 -8
v 2 21 7
v 2 21 6
v 2 21 -6
v 2 21 -7
v 2 22 1
v 2 22 -1
v 3 20 6
v 3 20 1
v 3 20 -1
v 3 20 -6
v 3 22 6
v 3 22 1
v 3 22 -1
v 3 22 -6
v 4 18 7
v 4 18 6
v 4 18 -4
v 4 18 -6
v 4 18 -7
v 4 19 7
v 4 19 6
v 4 20 -4
v 4 20 -7
v 5 6 9
v 5 6 8
v 5 6 -8
v 5 6 -9
v 5 17 9
v 5 17 8
v 5 17 6
v 5 17 -6
v 5 17 -8
v 5 17 -9
v 5 18 8
v 5 18 6
v 5 18 -6
v 5 18 -8
v 6 0 8
v 6 0 -8
v 6 5 8
v 6 5 3
v 6 5 -3
v 6 5 -8
v 6 6 7
v 6 6 5
v 6 6 3
v 6 6 -3
v 6 6 -5
v 6 6 -7
v 6 7 8
v 6 7 7
v 6 7 5
v 6 7 4
v 6 7 -3
v 6 7 -5
v 6 7 -7
v 6 7 -8
v 6 8 4
v 6 8 3
v 6 8 -2
v 6 8 -3
v 6 9 3
v 6 9 -2
v 6 10 6
v 6 10 3
v 6 10 -3
v 6 10 -6
v 6 11 6
v 6 11 3
v 6 11 -3
v 6 11 -6
v 6 13 4
v 6 13 3
v 6 13 -5
v 6 13 -6
v 6 14 8
v 6 14 6
v 6 14 4
v 6 14 3
v 6 14 -3
v 6 14 -5
v 6 14 -6
v 6 14 -8
v 6 15 6
v 6 15 3
v 6 15 -3
v 6 15 -6
v 6 16 8
v 6 16 6
v 6 16 -6
v 6 16 -8
v 6 17 8
v 6 17 6
v 6 17 -6
v 6 17 -8
v 6 18 -4
v 6 18 -6
v 6 19 7
v 6 19 6
v 6 20 -3
v 6 20 -4
v 6 21 -2
v 6 21 -3
v 6 22 7
v 6 22 -2
v 7 14 8
v 7 14 3
v 7 14 -3
v 7 14 -8
v 7 15 6
v 7 15 3
v 7 15 -3
v 7 15 -6
v 7 16 8
v 7 16 6
v 7 16 -6
v 7 16 -8
v 8 5 8
v 8 5 3
v 8 5 -3
v 8 5 -8
v 8 6 7
v 8 6 5
v 8 6 3
v 8 6 -3
v 8 6 -5
v 8 6 -7
v 8 7 8
v 8 7 7
v 8 7 5
v 8 7 4
v 8 7 -3
v 8 7 -5
v 8 7 -7
v 8 7 -8
v 8 8 4
v 8 8 3
v 8 8 -2
v 8 8 -3
v 8 9 3
v 8 9 -2
v -7 12 9
v -7 17 9
v 2 6 9
v 2 12 9
v 5 6 9
v 5 17 9
v -8 12 8
v -8 17 8
v -7 0 8
v -7 12 8
v -7 17 8
v -7 18 8
v 0 18 8
v 0 20 8
v 2 6 8
v 2 12 8
v 2 18 8
v 2 20 8
v 5 0 8
v 5 5 8
v 5 6 8
v 5 17 8
v 5 18 8
v 6 0 8
v 6 5 8
v 6 7 8
v 6 14 8
v 6 16 8
v 6 17 8
v 7 14 8
v 7 16 8
v 8 5 8
v 8 7 8
v -6 18 7
v -6 20 7
v 0 18 7
v 0 20 7
v 0 21 7
v 2 18 7
v 2 20 7
v 2 21 7
v 4 18 7
v 4 19 7
v 4 20 7
v 4 22 7
v 6 19 7
v 6 22 7
v -1 20 6
v -1 22 6
v 0 20 6
v 0 21 6
v 2 20 6
v 2 21 6
v 3 20 6
v 3 22 6
v 4 18 6
v 4 19 6
v 5 17 6
v 5 18 6
v 6 17 6
v 6 19 6
v 6 6 5
v 6 7 5
v 8 6 5
v 8 7 5
v 6 7 4
v 6 8 4
v 8 7 4
v 8 8 4
v 6 8 3
v 6 9 3
v 8 8 3
v 8 9 3
v -1 20 -1
v -1 22 -1
v 0 20 -1
v 0 22 -1
v 2 20 -1
v 2 22 -1
v 3 20 -1
v 3 22 -1
v 6 5 -3
v 6 6 -3
v 6 14 -3
v 6 15 -3
v 7 14 -3
v 7 15 -3
v 8 5 -3
v 8 6 -3
v 6 15 -6
v 6 16 -6
v 7 15 -6
v 7 16 -6
v 6 6 -7
v 6 7 -7
v 8 6 -7
v 8 7 -7
v 6 6 7
v 6 7 7
v 8 6 7
v 8 7 7
v 6 15 6
v 6 16 6
v 7 15 6
v 7 16 6
v 6 5 3
v 6 6 3
v 6 14 3
v 6 15 3
v 7 14 3
v 7 15 3
v 8 5 3
v 8 6 3
v -1 20 1
v -1 22 1
v 0 20 1
v 0 22 1
v 2 20 1
v 2 22 1
v 3 20 1
v 3 22 1
v 4 21 -2
v 4 22 -2
v 6 8 -2
v 6 9 -2
v 6 21 -2
v 6 22 -2
v 8 8 -2
v 8 9 -2
v 4 20 -3
v 4 21 -3
v 6 7 -3
v 6 8 -3
v 6 20 -3
v 6 21 -3
v 8 7 -3
v 8 8 -3
v 4 18 -4
v 4 20 -4
v 6 18 -4
v 6 20 -4
v 6 6 -5
v 6 7 -5
v 8 6 -5
v 8 7 -5
v -1 20 -6
v -1 22 -6
v 0 20 -6
v 0 21 -6
v 2 20 -6
v 2 21 -6
v 3 20 -6
v 3 22 -6
v 5 17 -6
v 5 18 -6
v 6 17 -6
v 6 18 -6
v -6 18 -7
v -6 20 -7
v 0 18 -7
v 0 20 -7
v 0 21 -7
v 2 18 -7
v 2 20 -7
v 2 21 -7
v 4 18 -7
v 4 20 -7
v -8 12 -8
v -8 17 -8
v -7 0 -8
v -7 12 -8
v -7 17 -8
v -7 18 -8
v 0 18 -8
v 0 20 -8
v 2 6 -8
v 2 12 -8
v 2 18 -8
v 2 20 -8
v 5 0 -8
v 5 5 -8
v 5 6 -8
v 5 17 -8
v 5 18 -8
v 6 0 -8
v 6 5 -8
v 6 7 -8
v 6 14 -8
v 6 16 -8
v 6 17 -8
v 7 14 -8
v 7 16 -8
v 8 5 -8
v 8 7 -8
v -7 12 -9
v -7 17 -9
v 2 6 -9
v 2 12 -9
v 5 6 -9
v 5 17 -9
v -7 0 8
v 5 0 8
v 6 0 8
v -7 0 -8
v 5 0 -8
v 6 0 -8
v 6 5 8
v 8 5 8
v 6 5 3
v 8 5 3
v 6 5 -3
v 8 5 -3
v 6 5 -8
v 8 5 -8
v 2 6 9
v 5 6 9
v 2 6 8
v 5 6 8
v 6 6 3
v 8 6 3
v 6 6 -3
v 8 6 -3
v 2 6 -8
v 5 6 -8
v 2 6 -9
v 5 6 -9
v -7 12 9
v 2 12 9
v -8 12 8
v -7 12 8
v 2 12 8
v -8 12 -8
v -7 12 -8
v 2 12 -8
v -7 12 -9
v 2 12 -9
v 6 14 8
v 7 14 8
v 6 14 6
v 6 14 4
v 6 14 3
v 7 14 3
v 6 14 -3
v 7 14 -3
v 6 14 -5
v 6 14 -6
v 6 14 -8
v 7 14 -8
v 4 19 7
v 6 19 7
v 4 19 6
v 6 19 6
v 6 6 7
v 8 6 7
v 6 6 5
v 8 6 5
v 6 6 -5
v 8 6 -5
v 6 6 -7
v 8 6 -7
v 6 7 8
v 8 7 8
v 6 7 7
v 8 7 7
v 6 7 5
v 8 7 5
v 6 7 4
v 8 7 4
v 6 7 -3
v 8 7 -3
v 6 7 -5
v 8 7 -5
v 6 7 -7
v 8 7 -7
v 6 7 -8
v 8 7 -8
v 6 8 4
v 8 8 4
v 6 8 3
v 8 8 3
v 6 8 -2
v 8 8 -2
v 6 8 -3
v 8 8 -3
v 6 9 3
v 8 9 3
v 6 9 -2
v 8 9 -2
v 6 15 6
v 7 15 6
v 6 15 3
v 7 15 3
v 6 15 -3
v 7 15 -3
v 6 15 -6
v 7 15 -6
v 6 16 8
v 7 16 8
v 6 16 6
v 7 16 6
v 6 16 -6
v 7 16 -6
v 6 16 -8
v 7 16 -8
v -7 17 9
v 5 17 9
v -8 17 8
v -7 17 8
v 5 17 8
v 6 17 8
v 5 17 6
v 6 17 6
v 5 17 -6
v 6 17 -6
v -8 17 -8
v -7 17 -8
v 5 17 -8
v 6 17 -8
v -7 17 -9
v 5 17 -9
v -7 18 8
v 0 18 8
v 2 18 8
v 5 18 8
v -6 18 7
v 0 18 7
v 2 18 7
v 4 18 7
v 4 18 6
v 5 18 6
v 4 18 -4
v 6 18 -4
v 4 18 -6
v 5 18 -6
v 6 18 -6
v -6 18 -7
v 0 18 -7
v 2 18 -7
v 4 18 -7
v -7 18 -8
v 0 18 -8
v 2 18 -8
v 5 18 -8
v 0 20 8
v 2 20 8
v -6 20 7
v 0 20 7
v 2 20 7
v 4 20 7
v -1 20 6
v 0 20 6
v 2 20 6
v 3 20 6
v -1 20 1
v 0 20 1
v 2 20 1
v 3 20 1
v -1 20 -1
v 0 20 -1
v 2 20 -1
v 3 20 -1
v 4 20 -3
v 6 20 -3
v 4 20 -4
v 6 20 -4
v -1 20 -6
v 0 20 -6
v 2 20 -6
v 3 20 -6
v -6 20 -7
v 0 20 -7
v 2 20 -7
v 4 20 -7
v 0 20 -8
v 2 20 -8
v 0 21 7
v 2 21 7
v 0 21 6
v 2 21 6
v 4 21 -2
v 6 21 -2
v 4 21 -3
v 6 21 -3
v 0 21 -6
v 2 21 -6
v 0 21 -7
v 2 21 -7
v 4 22 7
v 6 22 7
v -1 22 6
v 3 22 6
v 0 22 5
v 2 22 5
v 0 22 2
v 2 22 2
v -1 22 1
v 0 22 1
v 2 22 1
v 3 22 1
v -1 22 -1
v 0 22 -1
v 2 22 -1
v 3 22 -1
v 0 22 -2
v 2 22 -2
v 4 22 -2
v 6 22 -2
v 0 22 -5
v 2 22 -5
v -1 22 -6
v 3 22 -6

# faces
f 3/5/1 2/5/1 1/5/1
f 4/5/1 2/5/1 3/5/1
f 8/2/1 6/2/1 5/2/1
f 9/2/1 6/2/1 8/2/1
f 11/5/1 8/5/1 7/5/1
f 12/5/1 8/5/1 11/5/1
f 13/5/1 10/5/1 9/5/1
f 14/5/1 10/5/1 13/5/1
f 15/5/1 13/5/1 12/5/1
f 16/5/1 13/5/1 15/5/1
f 19/5/1 18/5/1 17/5/1
f 20/5/1 18/5/1 19/5/1
f 25/4/1 22/4/1 21/4/1
f 26/4/1 22/4/1 25/4/1
f 27/4/1 24/4/1 23/4/1
f 28/4/1 24/4/1 27/4/1
f 33/4/1 30/4/1 29/4/1
f 34/4/1 30/4/1 33/4/1
f 39/4/1 32/4/1 31/4/1
f 40/4/1 32/4/1 39/4/1
f 41/4/1 35/4/1 34/4/1
f 42/4/1 35/4/1 41/4/1
f 43/4/1 39/4/1 38/4/1
f 44/4/1 39/4/1 43/4/1
f 45/4/1 37/4/1 36/4/1
f 46/4/1 37/4/1 45/4/1
f 51/5/1 48/5/1 47/5/1
f 52/5/1 48/5/1 51/5/1
f 53/5/1 50/5/1 49/5/1
f 54/5/1 50/5/1 53/5/1
f 57/1/1 56/1/1 55/1/1
f 58/1/1 56/1/1 57/1/1
f 59/1/1 57/1/1 55/1/1
f 60/1/1 57/1/1 59/1/1
f 61/4/2 62/4/2 65/4/2
f 65/4/2 62/4/2 66/4/2
f 63/4/2 64/4/2 71/4/2
f 71/4/2 64/4/2 72/4/2
f 66/4/2 67/4/2 73/4/2
f 73/4/2 67/4/2 74/4/2
f 70/4/2 71/4/2 75/4/2
f 75/4/2 71/4/2 76/4/2
f 68/4/2 69/4/2 77/4/2
f 77/4/2 69/4/2 78/4/2
f 79/4/2 80/4/2 83/4/2
f 83/4/2 80/4/2 84/4/2
f 81/4/2 82/4/2 85/4/2
f 85/4/2 82/4/2 86/4/2
f 87/5/2 88/5/2 92/5/2
f 92/5/2 88/5/2 93/5/2
f 90/5/2 91/5/2 94/5/2
f 89/5/2 90/5/2 94/5/2
f 94/5/2 91/5/2 95/5/2
f 96/5/2 97/5/2 100/5/2
f 100/5/2 97/5/2 101/5/2
f 98/5/2 99/5/2 104/5/2
f 104/5/2 99/5/2 105/5/2
f 101/5/2 102/5/2 106/5/2
f 106/5/2 102/5/2 107/5/2
f 103/5/2 104/5/2 108/5/2
f 108/5/2 104/5/2 109/5/2
f 110/3/2 111/3/2 112/3/2
f 112/3/2 111/3/2 113/3/2
f 113/3/2 111/3/2 114/3/2
f 114/3/2 111/3/2 115/3/2
f 113/9/2 114/9/2 118/9/2
f 118/9/2 114/9/2 119/9/2
f 116/2/2 117/2/2 123/2/2
f 123/2/2 117/2/2 124/2/2
f 120/2/2 121/2/2 127/2/2
f 127/2/2 121/2/2 128/2/2
f 124/2/2 125/2/2 130/2/2
f 122/2/2 123/2/2 130/2/2
f 123/2/2 124/2/2 130/2/2
f 128/2/2 129/2/2 133/2/2
f 127/2/2 128/2/2 133/2/2
f 126/2/2 127/2/2 133/2/2
f 130/2/2 131/2/2 134/2/2
f 132/2/2 133/2/2 135/2/2
f 130/2/2 134/2/2 136/2/2
f 134/2/2 135/2/2 136/2/2
f 122/2/2 130/2/2 136/2/2
f 136/2/2 135/2/2 137/2/2
f 135/2/2 133/2/2 138/2/2
f 137/2/2 135/2/2 138/2/2
f 133/2/2 129/2/2 138/2/2
f 138/2/2 129/2/2 139/2/2
f 136/3/2 137/3/2 140/3/2
f 122/2/2 136/2/2 140/2/2
f 137/2/2 138/2/2 141/2/2
f 140/3/2 137/3/2 141/3/2
f 138/3/2 139/3/2 142/3/2
f 141/2/2 138/2/2 142/2/2
f 139/2/2 129/2/2 143/2/2
f 142/3/2 139/3/2 143/3/2
f 140/9/2 141/9/2 144/9/2
f 141/2/2 142/2/2 145/2/2
f 144/9/2 141/9/2 145/9/2
f 142/9/2 143/9/2 146/9/2
f 143/2/2 129/2/2 147/2/2
f 146/9/2 143/9/2 147/9/2
f 122/2/2 140/2/2 148/2/2
f 140/9/2 144/9/2 149/9/2
f 148/2/2 140/2/2 149/2/2
f 144/7/2 145/7/2 150/7/2
f 149/9/2 144/9/2 150/9/2
f 145/2/2 142/2/2 151/2/2
f 150/7/2 145/7/2 151/7/2
f 142/9/2 146/9/2 152/9/2
f 151/2/2 142/2/2 152/2/2
f 146/7/2 147/7/2 153/7/2
f 152/9/2 146/9/2 153/9/2
f 147/2/2 129/2/2 154/2/2
f 153/7/2 147/7/2 154/7/2
f 154/2/2 129/2/2 155/2/2
f 151/2/2 152/2/2 157/2/2
f 157/2/2 152/2/2 158/2/2
f 156/2/2 157/2/2 161/2/2
f 158/2/2 159/2/2 161/2/2
f 157/2/2 158/2/2 161/2/2
f 161/2/2 159/2/2 162/2/2
f 160/2/2 161/2/2 164/2/2
f 162/2/2 163/2/2 164/2/2
f 161/2/2 162/2/2 164/2/2
f 164/2/2 163/2/2 165/2/2
f 165/2/2 163/2/2 166/2/2
f 166/2/2 163/2/2 167/2/2
f 165/1/2 166/1/2 168/1/2
f 168/1/2 166/1/2 169/1/2
f 165/1/2 168/1/2 171/1/2
f 171/1/2 168/1/2 172/1/2
f 170/1/2 171/1/2 172/1/2
f 172/1/2 168/1/2 173/1/2
f 170/1/2 172/1/2 174/1/2
f 174/1/2 172/1/2 175/1/2
f 170/1/2 174/1/2 176/1/2
f 176/1/2 174/1/2 177/1/2
f 178/1/2 179/1/2 182/1/2
f 182/1/2 179/1/2 183/1/2
f 180/1/2 181/1/2 184/1/2
f 184/1/2 181/1/2 185/1/2
f 178/1/2 182/1/2 186/1/2
f 186/1/2 182/1/2 187/1/2
f 185/1/2 181/1/2 188/1/2
f 188/1/2 181/1/2 189/1/2
f 190/1/2 191/1/2 194/1/2
f 194/1/2 191/1/2 195/1/2
f 195/1/2 191/1/2 196/1/2
f 192/1/2 193/1/2 197/1/2
f 197/1/2 193/1/2 198/1/2
f 198/1/2 193/1/2 199/1/2
f 190/1/2 194/1/2 200/1/2
f 200/1/2 194/1/2 201/1/2
f 195/1/2 196/1/2 202/1/2
f 197/1/2 198/1/2 202/1/2
f 196/1/2 197/1/2 202/1/2
f 202/1/2 198/1/2 203/1/2
f 203/1/2 198/1/2 204/1/2
f 204/1/2 198/1/2 205/1/2
f 199/1/2 193/1/2 206/1/2
f 206/1/2 193/1/2 207/1/2
f 203/1/2 204/1/2 208/1/2
f 208/1/2 204/1/2 209/1/2
f 209/1/2 204/1/2 210/1/2
f 210/1/2 204/1/2 211/1/2
f 209/1/2 210/1/2 212/1/2
f 212/1/2 210/1/2 213/1/2
f 217/5/3 215/5/3 214/5/3
f 218/5/3 217/5/3 216/5/3
f 219/5/3 215/5/3 217/5/3
f 219/5/3 217/5/3 218/5/3
f 223/5/3 221/5/3 220/5/3
f 224/5/3 221/5/3 223/5/3
f 226/5/3 225/5/3 224/5/3
f 228/2/3 223/2/3 222/2/3
f 229/2/3 223/2/3 228/2/3
f 230/4/3 227/4/3 226/4/3
f 230/5/3 226/5/3 224/5/3
f 231/4/3 227/4/3 230/4/3
f 232/2/3 228/2/3 222/2/3
f 233/2/3 228/2/3 232/2/3
f 234/2/3 228/2/3 233/2/3
f 235/5/3 230/5/3 224/5/3
f 236/5/3 230/5/3 235/5/3
f 237/3/3 233/3/3 232/3/3
f 238/2/3 234/2/3 233/2/3
f 238/3/3 233/3/3 237/3/3
f 238/2/3 235/2/3 234/2/3
f 239/2/3 235/2/3 238/2/3
f 240/2/3 235/2/3 239/2/3
f 241/2/3 235/2/3 240/2/3
f 242/2/3 235/2/3 241/2/3
f 243/1/3 241/1/3 240/1/3
f 244/1/3 241/1/3 243/1/3
f 245/1/3 239/1/3 238/1/3
f 246/1/3 239/1/3 245/1/3
f 249/5/3 248/5/3 247/5/3
f 250/5/3 248/5/3 249/5/3
f 253/4/3 251/4/3 250/4/3
f 254/4/3 251/4/3 253/4/3
f 255/5/3 253/5/3 252/5/3
f 256/5/3 253/5/3 255/5/3
f 257/5/3 253/5/3 256/5/3
f 259/1/3 257/1/3 256/1/3
f 259/1/3 258/1/3 257/1/3
f 260/1/3 258/1/3 259/1/3
f 263/4/3 262/4/3 261/4/3
f 264/4/3 262/4/3 263/4/3
f 266/4/3 262/4/3 264/4/3
f 267/4/3 266/4/3 265/4/3
f 268/4/3 262/4/3 266/4/3
f 268/4/3 266/4/3 267/4/3
f 272/1/3 270/1/3 269/1/3
f 273/1/3 272/1/3 271/1/3
f 274/1/3 270/1/3 272/1/3
f 274/1/3 272/1/3 273/1/3
f 277/1/3 276/1/3 275/1/3
f 278/1/3 276/1/3 277/1/3
f 281/1/3 280/1/3 279/1/3
f 282/1/3 280/1/3 281/1/3
f 285/1/3 284/1/3 283/1/3
f 286/1/3 284/1/3 285/1/3
f 289/4/3 288/4/3 287/4/3
f 290/4/3 288/4/3 289/4/3
f 293/4/3 292/4/3 291/4/3
f 294/4/3 292/4/3 293/4/3
f 299/1/3 298/1/3 297/1/3
f 300/1/3 298/1/3 299/1/3
f 301/1/3 296/1/3 295/1/3
f 302/1/3 296/1/3 301/1/3
f 305/1/3 304/1/3 303/1/3
f 306/1/3 304/1/3 305/1/3
f 309/1/3 308/1/3 307/1/3
f 310/1/3 308/1/3 309/1/3
f 311/1/4 312/1/4 313/1/4
f 313/1/4 312/1/4 314/1/4
f 315/1/4 316/1/4 317/1/4
f 317/1/4 316/1/4 318/1/4
f 321/1/4 322/1/4 323/1/4
f 323/1/4 322/1/4 324/1/4
f 319/1/4 320/1/4 325/1/4
f 325/1/4 320/1/4 326/1/4
f 327/4/4 328/4/4 329/4/4
f 329/4/4 328/4/4 330/4/4
f 331/4/4 332/4/4 333/4/4
f 333/4/4 332/4/4 334/4/4
f 335/1/4 336/1/4 339/1/4
f 339/1/4 336/1/4 340/1/4
f 337/1/4 338/1/4 341/1/4
f 341/1/4 338/1/4 342/1/4
f 343/1/4 344/1/4 347/1/4
f 347/1/4 344/1/4 348/1/4
f 345/1/4 346/1/4 349/1/4
f 349/1/4 346/1/4 350/1/4
f 351/1/4 352/1/4 353/1/4
f 353/1/4 352/1/4 354/1/4
f 355/1/4 356/1/4 357/1/4
f 357/1/4 356/1/4 358/1/4
f 359/4/4 360/4/4 361/4/4
f 361/4/4 360/4/4 362/4/4
f 362/4/4 360/4/4 364/4/4
f 363/4/4 364/4/4 365/4/4
f 364/4/4 360/4/4 366/4/4
f 365/4/4 364/4/4 366/4/4
f 367/1/4 368/1/4 369/1/4
f 369/1/4 368/1/4 370/1/4
f 371/5/4 372/5/4 373/5/4
f 373/5/4 372/5/4 374/5/4
f 374/4/4 375/4/4 377/4/4
f 377/4/4 375/4/4 378/4/4
f 376/5/4 377/5/4 379/5/4
f 379/5/4 377/5/4 380/5/4
f 381/5/4 382/5/4 384/5/4
f 384/5/4 382/5/4 385/5/4
f 385/5/4 386/5/4 387/5/4
f 383/2/4 384/2/4 389/2/4
f 389/2/4 384/2/4 390/2/4
f 387/4/4 388/4/4 391/4/4
f 385/5/4 387/5/4 391/5/4
f 391/4/4 388/4/4 392/4/4
f 383/2/4 389/2/4 393/2/4
f 393/2/4 389/2/4 394/2/4
f 394/2/4 389/2/4 395/2/4
f 385/5/4 391/5/4 396/5/4
f 396/5/4 391/5/4 397/5/4
f 393/3/4 394/3/4 398/3/4
f 394/2/4 395/2/4 399/2/4
f 398/3/4 394/3/4 399/3/4
f 395/2/4 396/2/4 399/2/4
f 399/2/4 396/2/4 400/2/4
f 400/2/4 396/2/4 401/2/4
f 401/2/4 396/2/4 402/2/4
f 402/2/4 396/2/4 403/2/4
f 401/1/4 402/1/4 404/1/4
f 404/1/4 402/1/4 405/1/4
f 399/1/4 400/1/4 406/1/4
f 406/1/4 400/1/4 407/1/4
f 408/5/4 409/5/4 411/5/4
f 410/5/4 411/5/4 412/5/4
f 411/5/4 409/5/4 413/5/4
f 412/5/4 411/5/4 413/5/4
f 417/2/5 415/2/5 414/2/5
f 418/3/5 416/3/5 415/3/5
f 418/2/5 415/2/5 417/2/5
f 419/3/5 416/3/5 418/3/5
f 422/1/5 421/1/5 420/1/5
f 423/1/5 421/1/5 422/1/5
f 426/1/5 425/1/5 424/1/5
f 427/1/5 425/1/5 426/1/5
f 430/5/5 429/5/5 428/5/5
f 431/5/5 429/5/5 430/5/5
f 434/1/5 433/1/5 432/1/5
f 435/1/5 433/1/5 434/1/5
f 438/5/5 437/5/5 436/5/5
f 439/5/5 437/5/5 438/5/5
f 443/5/5 441/5/5 440/5/5
f 444/5/5 441/5/5 443/5/5
f 445/5/5 443/5/5 442/5/5
f 446/5/5 443/5/5 445/5/5
f 448/5/5 447/5/5 446/5/5
f 449/5/5 447/5/5 448/5/5
f 452/1/5 451/1/5 450/1/5
f 453/1/5 451/1/5 452/1/5
f 454/1/5 451/1/5 453/1/5
f 455/1/5 451/1/5 454/1/5
f 458/1/5 457/1/5 456/1/5
f 459/1/5 457/1/5 458/1/5
f 460/1/5 457/1/5 459/1/5
f 461/1/5 457/1/5 460/1/5
f 464/1/5 463/1/5 462/1/5
f 465/1/5 463/1/5 464/1/5
f 466/1/6 467/1/6 468/1/6
f 468/1/6 467/1/6 469/1/6
f 470/1/6 471/1/6 472/1/6
f 472/1/6 471/1/6 473/1/6
f 474/1/6 475/1/6 476/1/6
f 476/1/6 475/1/6 477/1/6
f 478/1/6 479/1/6 480/1/6
f 480/1/6 479/1/6 481/1/6
f 482/1/6 483/1/6 484/1/6
f 484/1/6 483/1/6 485/1/6
f 486/1/6 487/1/6 488/1/6
f 488/1/6 487/1/6 489/1/6
f 490/1/6 491/1/6 492/1/6
f 492/1/6 491/1/6 493/1/6
f 494/1/6 495/1/6 496/1/6
f 496/1/6 495/1/6 497/1/6
f 498/1/6 499/1/6 500/1/6
f 500/1/6 499/1/6 501/1/6
f 502/1/6 503/1/6 504/1/6
f 504/1/6 503/1/6 505/1/6
f 506/1/6 507/1/6 508/1/6
f 508/1/6 507/1/6 509/1/6
f 510/1/6 511/1/6 512/1/6
f 512/1/6 511/1/6 513/1/6
f 514/1/6 515/1/6 516/1/6
f 516/1/6 515/1/6 517/1/6
f 518/5/6 519/5/6 521/5/6
f 521/5/6 519/5/6 522/5/6
f 522/2/6 523/2/6 524/2/6
f 524/2/6 523/2/6 525/2/6
f 520/5/6 521/5/6 528/5/6
f 528/5/6 521/5/6 529/5/6
f 526/2/6 527/2/6 530/2/6
f 530/2/6 527/2/6 531/2/6
f 529/5/6 530/5/6 532/5/6
f 532/5/6 530/5/6 533/5/6
f 534/5/6 535/5/6 538/5/6
f 538/5/6 535/5/6 539/5/6
f 536/5/6 537/5/6 540/5/6
f 540/5/6 537/5/6 541/5/6
f 541/5/6 537/5/6 542/5/6
f 542/5/6 537/5/6 543/5/6
f 544/1/6 545/1/6 546/1/6
f 546/1/6 545/1/6 547/1/6
f 547/1/6 545/1/6 548/1/6
f 534/5/6 538/5/6 549/5/6
f 546/5/6 547/5/6 552/5/6
f 549/5/6 550/5/6 553/5/6
f 534/5/6 549/5/6 553/5/6
f 553/5/6 550/5/6 554/5/6
f 551/5/6 552/5/6 555/5/6
f 552/5/6 547/5/6 556/5/6
f 555/5/6 552/5/6 556/5/6
f 557/4/6 558/4/6 560/4/6
f 560/4/6 558/4/6 561/4/6
f 559/5/6 560/5/6 563/5/6
f 563/5/6 560/5/6 564/5/6
f 561/5/6 562/5/6 565/5/6
f 565/5/6 562/5/6 566/5/6
f 559/5/6 563/5/6 567/5/6
f 566/5/6 562/5/6 570/5/6
f 567/5/6 568/5/6 571/5/6
f 559/5/6 567/5/6 571/5/6
f 571/5/6 568/5/6 572/5/6
f 569/5/6 570/5/6 573/5/6
f 570/5/6 562/5/6 574/5/6
f 573/5/6 570/5/6 574/5/6
f 574/5/6 562/5/6 575/5/6
f 574/5/6 575/5/6 577/5/6
f 575/1/6 576/1/6 577/1/6
f 577/1/6 576/1/6 578/1/6
f 559/5/6 571/5/6 579/5/6
f 574/5/6 577/5/6 582/5/6
f 579/5/6 580/5/6 583/5/6
f 559/5/6 579/5/6 583/5/6
f 583/5/6 580/5/6 584/5/6
f 581/5/6 582/5/6 585/5/6
f 582/5/6 577/5/6 586/5/6
f 585/5/6 582/5/6 586/5/6
f 584/4/6 585/4/6 587/4/6
f 587/4/6 585/4/6 588/4/6
f 589/4/6 590/4/6 591/4/6
f 591/4/6 590/4/6 592/4/6
f 593/1/6 594/1/6 595/1/6
f 595/1/6 594/1/6 596/1/6
f 597/4/6 598/4/6 599/4/6
f 599/4/6 598/4/6 600/4/6
f 603/4/6 604/4/6 605/4/6
f 605/4/6 604/4/6 606/4/6
f 603/4/6 605/4/6 607/4/6
f 605/8/6 606/8/6 607/8/6
f 606/4/6 604/4/6 608/4/6
f 607/8/6 606/8/6 608/8/6
f 603/4/6 607/4/6 609/4/6
f 607/4/6 608/4/6 609/4/6
f 609/4/6 608/4/6 610/4/6
f 608/4/6 604/4/6 611/4/6
f 610/4/6 608/4/6 611/4/6
f 611/4/6 604/4/6 612/4/6
f 610/4/6 611/4/6 614/4/6
f 614/4/6 611/4/6 615/4/6
f 613/4/6 614/4/6 617/4/6
f 615/4/6 616/4/6 617/4/6
f 614/4/6 615/4/6 617/4/6
f 617/4/6 616/4/6 618/4/6
f 601/1/6 602/1/6 619/1/6
f 619/1/6 602/1/6 620/1/6
f 617/8/6 618/8/6 621/8/6
f 613/4/6 617/4/6 621/4/6
f 618/4/6 616/4/6 622/4/6
f 621/8/6 618/8/6 622/8/6
f 613/4/6 621/4/6 623/4/6
f 621/4/6 622/4/6 623/4/6
f 622/4/6 616/4/6 624/4/6
f 623/4/6 622/4/6 624/4/6
