# MagicaVoxel @ ephtracy

# material
mtllib cubeboy19.mtl

# mesh name
g cube_astronaut_mesh

# normals
vn -1 0 0
vn 1 0 0
vn 0 0 1
vn 0 0 -1
vn 0 -1 0
vn 0 1 0

# texcoords
vt 0.0332031 0.5
vt 0.142578 0.5
vt 0.263672 0.5
vt 0.740234 0.5
vt 0.775391 0.5
vt 0.876953 0.5
vt 0.958984 0.5
vt 0.978516 0.5
vt 0.986328 0.5
vt 0.990234 0.5
vt 0.994141 0.5

# verts
v -6.5 1 7
v -6.5 1 -5
v -6.5 10 7
v -6.5 10 -5
f -2/7/1 -3/7/1 -4/7/1
f -1/7/1 -3/7/1 -2/7/1
v -5.5 0 7
v -5.5 0 -5
v -5.5 1 8
v -5.5 1 7
v -5.5 1 -5
v -5.5 1 -6
v -5.5 10 8
v -5.5 10 7
v -5.5 10 6
v -5.5 10 -4
v -5.5 10 -5
v -5.5 10 -6
v -5.5 11 6
v -5.5 11 -4
f -11/7/1 -13/7/1 -14/7/1
f -10/7/1 -13/7/1 -11/7/1
f -8/7/1 -11/7/1 -12/7/1
f -7/7/1 -11/7/1 -8/7/1
f -4/7/1 -9/7/1 -10/7/1
f -3/7/1 -9/7/1 -4/7/1
f -2/7/1 -5/7/1 -6/7/1
f -1/7/1 -5/7/1 -2/7/1
v -4.5 10 7
v -4.5 10 6
v -4.5 10 -4
v -4.5 10 -5
v -4.5 11 7
v -4.5 11 6
v -4.5 11 -4
v -4.5 11 -5
v -4.5 15 6
v -4.5 15 -4
v -4.5 20 6
v -4.5 20 -4
f -8/7/1 -11/7/1 -12/7/1
f -7/7/1 -11/7/1 -8/7/1
f -6/7/1 -9/7/1 -10/7/1
f -5/7/1 -9/7/1 -6/7/1
f -4/1/1 -6/1/1 -7/1/1
f -3/1/1 -6/1/1 -4/1/1
f -2/6/1 -3/6/1 -4/6/1
f -1/6/1 -3/6/1 -2/6/1
v 1.5 10 7
v 1.5 10 6
v 1.5 10 -4
v 1.5 10 -5
v 1.5 11 7
v 1.5 11 6
v 1.5 11 -4
v 1.5 11 -5
v 1.5 14 5
v 1.5 14 3
v 1.5 14 -1
v 1.5 14 -3
v 1.5 15 4
v 1.5 15 3
v 1.5 15 -2
v 1.5 15 -3
v 1.5 16 5
v 1.5 16 4
v 1.5 16 3
v 1.5 16 2
v 1.5 16 -0
v 1.5 16 -1
v 1.5 16 -2
v 1.5 16 -3
v 1.5 17 5
v 1.5 17 2
v 1.5 17 -0
v 1.5 17 -3
v 1.5 18 6
v 1.5 18 -4
v 1.5 20 6
v 1.5 20 -4
f -32/7/2 -31/7/2 -28/7/2
f -28/7/2 -31/7/2 -27/7/2
f -30/7/2 -29/7/2 -26/7/2
f -26/7/2 -29/7/2 -25/7/2
f -27/1/2 -26/1/2 -24/1/2
f -24/1/2 -26/1/2 -23/1/2
f -23/1/2 -26/1/2 -22/1/2
f -22/1/2 -26/1/2 -21/1/2
f -24/11/2 -23/11/2 -20/11/2
f -23/1/2 -22/1/2 -19/1/2
f -20/11/2 -23/11/2 -19/11/2
f -22/11/2 -21/11/2 -18/11/2
f -21/1/2 -26/1/2 -17/1/2
f -18/11/2 -21/11/2 -17/11/2
f -27/1/2 -24/1/2 -16/1/2
f -24/11/2 -20/11/2 -16/11/2
f -20/7/2 -19/7/2 -15/7/2
f -16/11/2 -20/11/2 -15/11/2
f -19/1/2 -22/1/2 -14/1/2
f -15/7/2 -19/7/2 -14/7/2
f -14/1/2 -22/1/2 -13/1/2
f -13/1/2 -22/1/2 -12/1/2
f -22/11/2 -18/11/2 -11/11/2
f -12/1/2 -22/1/2 -11/1/2
f -18/7/2 -17/7/2 -10/7/2
f -11/11/2 -18/11/2 -10/11/2
f -17/1/2 -26/1/2 -9/1/2
f -10/7/2 -17/7/2 -9/7/2
f -16/6/2 -15/6/2 -8/6/2
f -27/1/2 -16/1/2 -8/1/2
f -15/6/2 -14/6/2 -8/6/2
f -14/6/2 -13/6/2 -8/6/2
f -13/1/2 -12/1/2 -7/1/2
f -8/6/2 -13/6/2 -7/6/2
f -11/6/2 -10/6/2 -6/6/2
f -7/1/2 -12/1/2 -6/1/2
f -12/6/2 -11/6/2 -6/6/2
f -10/6/2 -9/6/2 -6/6/2
f -9/1/2 -26/1/2 -5/1/2
f -6/6/2 -9/6/2 -5/6/2
f -8/1/2 -7/1/2 -4/1/2
f -27/1/2 -8/1/2 -4/1/2
f -6/1/2 -5/1/2 -4/1/2
f -7/1/2 -6/1/2 -4/1/2
f -5/1/2 -26/1/2 -3/1/2
f -4/1/2 -5/1/2 -3/1/2
f -4/6/2 -3/6/2 -2/6/2
f -2/6/2 -3/6/2 -1/6/2
v 2.5 0 7
v 2.5 0 -5
v 2.5 1 8
v 2.5 1 7
v 2.5 1 -5
v 2.5 1 -6
v 2.5 10 8
v 2.5 10 7
v 2.5 10 6
v 2.5 10 -3
v 2.5 10 -5
v 2.5 10 -6
v 2.5 11 6
v 2.5 11 -3
f -14/7/2 -13/7/2 -11/7/2
f -11/7/2 -13/7/2 -10/7/2
f -12/7/2 -11/7/2 -8/7/2
f -8/7/2 -11/7/2 -7/7/2
f -10/7/2 -9/7/2 -4/7/2
f -4/7/2 -9/7/2 -3/7/2
f -6/7/2 -5/7/2 -2/7/2
f -2/7/2 -5/7/2 -1/7/2
v 3.5 1 7
v 3.5 1 -5
v 3.5 3 4
v 3.5 3 -2
v 3.5 4 3
v 3.5 4 2
v 3.5 4 1
v 3.5 4 -1
v 3.5 5 4
v 3.5 5 3
v 3.5 5 -2
v 3.5 5 -4
v 3.5 6 4
v 3.5 6 2
v 3.5 6 1
v 3.5 6 -1
v 3.5 6 -2
v 3.5 6 -3
v 3.5 7 3
v 3.5 7 2
v 3.5 8 4
v 3.5 8 3
v 3.5 8 2
v 3.5 8 -2
v 3.5 10 7
v 3.5 10 -3
v 3.5 10 -4
v 3.5 10 -5
f -28/7/2 -27/7/2 -26/7/2
f -26/7/2 -27/7/2 -25/7/2
f -26/8/2 -25/8/2 -24/8/2
f -24/8/2 -25/8/2 -23/8/2
f -23/8/2 -25/8/2 -22/8/2
f -22/8/2 -25/8/2 -21/8/2
f -28/7/2 -26/7/2 -20/7/2
f -26/8/2 -24/8/2 -20/8/2
f -24/10/2 -23/10/2 -19/10/2
f -20/8/2 -24/8/2 -19/8/2
f -21/8/2 -25/8/2 -18/8/2
f -25/7/2 -27/7/2 -18/7/2
f -18/7/2 -27/7/2 -17/7/2
f -20/10/2 -19/10/2 -16/10/2
f -28/7/2 -20/7/2 -16/7/2
f -19/10/2 -23/10/2 -15/10/2
f -16/10/2 -19/10/2 -15/10/2
f -23/8/2 -22/8/2 -15/8/2
f -22/5/2 -21/5/2 -14/5/2
f -15/8/2 -22/8/2 -14/8/2
f -21/8/2 -18/8/2 -13/8/2
f -14/5/2 -21/5/2 -13/5/2
f -13/8/2 -18/8/2 -12/8/2
f -16/8/2 -15/8/2 -10/8/2
f -15/8/2 -14/8/2 -10/8/2
f -13/8/2 -12/8/2 -10/8/2
f -14/8/2 -13/8/2 -10/8/2
f -10/8/2 -12/8/2 -9/8/2
f -28/7/2 -16/7/2 -8/7/2
f -16/8/2 -10/8/2 -8/8/2
f -10/10/2 -9/10/2 -7/10/2
f -8/8/2 -10/8/2 -7/8/2
f -9/8/2 -12/8/2 -6/8/2
f -7/10/2 -9/10/2 -6/10/2
f -12/7/2 -11/7/2 -5/7/2
f -6/8/2 -12/8/2 -5/8/2
f -8/7/2 -7/7/2 -4/7/2
f -7/7/2 -6/7/2 -4/7/2
f -6/7/2 -5/7/2 -4/7/2
f -28/7/2 -8/7/2 -4/7/2
f -5/7/2 -11/7/2 -3/7/2
f -4/7/2 -5/7/2 -3/7/2
f -17/7/2 -27/7/2 -2/7/2
f -2/7/2 -27/7/2 -1/7/2
v 4.5 5 -2
v 4.5 5 -4
v 4.5 6 -2
v 4.5 6 -3
v 4.5 11 -3
v 4.5 11 -4
f -6/9/2 -5/9/2 -4/9/2
f -4/9/2 -5/9/2 -3/9/2
f -3/9/2 -5/9/2 -2/9/2
f -2/9/2 -5/9/2 -1/9/2
v -5.5 1 8
v -5.5 10 8
v 2.5 1 8
v 2.5 10 8
f -2/7/3 -3/7/3 -4/7/3
f -1/7/3 -3/7/3 -2/7/3
v -6.5 1 7
v -6.5 10 7
v -5.5 0 7
v -5.5 1 7
v -5.5 10 7
v -4.5 10 7
v -4.5 11 7
v 1.5 10 7
v 1.5 11 7
v 2.5 0 7
v 2.5 1 7
v 2.5 10 7
v 3.5 1 7
v 3.5 10 7
f -11/7/3 -13/7/3 -14/7/3
f -10/7/3 -13/7/3 -11/7/3
f -7/7/3 -8/7/3 -9/7/3
f -6/7/3 -8/7/3 -7/7/3
f -5/7/3 -11/7/3 -12/7/3
f -4/7/3 -11/7/3 -5/7/3
f -2/7/3 -3/7/3 -4/7/3
f -1/7/3 -3/7/3 -2/7/3
v -5.5 10 6
v -5.5 11 6
v -4.5 10 6
v -4.5 11 6
v -4.5 15 6
v -4.5 20 6
v -0.5 15 6
v -0.5 17 6
v 0.5 17 6
v 0.5 18 6
v 1.5 10 6
v 1.5 11 6
v 1.5 18 6
v 1.5 20 6
v 2.5 10 6
v 2.5 11 6
f -14/7/3 -15/7/3 -16/7/3
f -13/7/3 -15/7/3 -14/7/3
f -10/6/3 -11/6/3 -12/6/3
f -10/1/3 -12/1/3 -13/1/3
f -9/6/3 -11/6/3 -10/6/3
f -8/1/3 -9/1/3 -10/1/3
f -8/6/3 -11/6/3 -9/6/3
f -7/6/3 -11/6/3 -8/6/3
f -5/1/3 -10/1/3 -13/1/3
f -5/1/3 -8/1/3 -10/1/3
f -5/1/3 -7/1/3 -8/1/3
f -4/6/3 -11/6/3 -7/6/3
f -4/1/3 -7/1/3 -5/1/3
f -3/6/3 -11/6/3 -4/6/3
f -2/7/3 -5/7/3 -6/7/3
f -1/7/3 -5/7/3 -2/7/3
v 3.5 5 -2
v 3.5 6 -2
v 4.5 5 -2
v 4.5 6 -2
f -2/9/3 -3/9/3 -4/9/3
f -1/9/3 -3/9/3 -2/9/3
v 2.5 10 -3
v 2.5 11 -3
v 3.5 6 -3
v 3.5 10 -3
v 4.5 6 -3
v 4.5 11 -3
f -3/9/3 -5/9/3 -6/9/3
f -2/9/3 -3/9/3 -4/9/3
f -1/9/3 -5/9/3 -3/9/3
f -1/9/3 -3/9/3 -2/9/3
v -5.5 10 -4
v -5.5 11 -4
v -4.5 10 -4
v -4.5 11 -4
v -4.5 15 -4
v -4.5 20 -4
v -0.5 15 -4
v -0.5 17 -4
v 0.5 17 -4
v 0.5 18 -4
v 1.5 10 -4
v 1.5 11 -4
v 1.5 18 -4
v 1.5 20 -4
v 2.5 10 -4
v 2.5 11 -4
v 3.5 5 -4
v 3.5 10 -4
v 4.5 5 -4
v 4.5 11 -4
f -20/7/4 -19/7/4 -18/7/4
f -18/7/4 -19/7/4 -17/7/4
f -16/6/4 -15/6/4 -14/6/4
f -17/1/4 -16/1/4 -14/1/4
f -14/6/4 -15/6/4 -13/6/4
f -14/1/4 -13/1/4 -12/1/4
f -13/6/4 -15/6/4 -12/6/4
f -12/6/4 -15/6/4 -11/6/4
f -17/1/4 -14/1/4 -9/1/4
f -14/1/4 -12/1/4 -9/1/4
f -12/1/4 -11/1/4 -9/1/4
f -11/6/4 -15/6/4 -8/6/4
f -9/1/4 -11/1/4 -8/1/4
f -8/6/4 -15/6/4 -7/6/4
f -10/7/4 -9/7/4 -6/7/4
f -6/7/4 -9/7/4 -5/7/4
f -6/9/4 -5/9/4 -3/9/4
f -4/9/4 -3/9/4 -2/9/4
f -3/9/4 -5/9/4 -1/9/4
f -2/9/4 -3/9/4 -1/9/4
v -6.5 1 -5
v -6.5 10 -5
v -5.5 0 -5
v -5.5 1 -5
v -5.5 10 -5
v -4.5 10 -5
v -4.5 11 -5
v 1.5 10 -5
v 1.5 11 -5
v 2.5 0 -5
v 2.5 1 -5
v 2.5 10 -5
v 3.5 1 -5
v 3.5 10 -5
f -14/7/4 -13/7/4 -11/7/4
f -11/7/4 -13/7/4 -10/7/4
f -9/7/4 -8/7/4 -7/7/4
f -7/7/4 -8/7/4 -6/7/4
f -12/7/4 -11/7/4 -5/7/4
f -5/7/4 -11/7/4 -4/7/4
f -4/7/4 -3/7/4 -2/7/4
f -2/7/4 -3/7/4 -1/7/4
v -5.5 1 -6
v -5.5 10 -6
v 2.5 1 -6
v 2.5 10 -6
f -4/7/4 -3/7/4 -2/7/4
f -2/7/4 -3/7/4 -1/7/4
v -5.5 0 7
v 2.5 0 7
v -2.5 0 5
v -0.5 0 5
v -2.5 0 4
v -0.5 0 4
v -2.5 0 3
v -0.5 0 3
v -2.5 0 -1
v -0.5 0 -1
v -2.5 0 -3
v -0.5 0 -3
v -5.5 0 -5
v 2.5 0 -5
f -12/7/5 -13/7/5 -14/7/5
f -11/7/5 -13/7/5 -12/7/5
f -10/7/5 -12/7/5 -14/7/5
f -10/2/5 -11/2/5 -12/2/5
f -9/7/5 -13/7/5 -11/7/5
f -9/2/5 -11/2/5 -10/2/5
f -8/7/5 -10/7/5 -14/7/5
f -8/11/5 -9/11/5 -10/11/5
f -7/7/5 -13/7/5 -9/7/5
f -7/11/5 -9/11/5 -8/11/5
f -6/7/5 -8/7/5 -14/7/5
f -6/7/5 -7/7/5 -8/7/5
f -5/7/5 -13/7/5 -7/7/5
f -5/7/5 -7/7/5 -6/7/5
f -4/7/5 -6/7/5 -14/7/5
f -4/11/5 -5/11/5 -6/11/5
f -3/7/5 -13/7/5 -5/7/5
f -3/11/5 -5/11/5 -4/11/5
f -2/7/5 -4/7/5 -14/7/5
f -2/7/5 -3/7/5 -4/7/5
f -1/7/5 -13/7/5 -3/7/5
f -1/7/5 -3/7/5 -2/7/5
v -5.5 1 8
v 2.5 1 8
v -6.5 1 7
v -5.5 1 7
v 2.5 1 7
v 3.5 1 7
v -6.5 1 -5
v -5.5 1 -5
v 2.5 1 -5
v 3.5 1 -5
v -5.5 1 -6
v 2.5 1 -6
f -9/7/5 -11/7/5 -12/7/5
f -8/7/5 -11/7/5 -9/7/5
f -6/7/5 -9/7/5 -10/7/5
f -5/7/5 -9/7/5 -6/7/5
f -4/7/5 -7/7/5 -8/7/5
f -3/7/5 -7/7/5 -4/7/5
f -2/7/5 -4/7/5 -5/7/5
f -1/7/5 -4/7/5 -2/7/5
v 3.5 5 -2
v 4.5 5 -2
v 3.5 5 -4
v 4.5 5 -4
f -2/9/5 -3/9/5 -4/9/5
f -1/9/5 -3/9/5 -2/9/5
v 3.5 6 -2
v 4.5 6 -2
v 3.5 6 -3
v 4.5 6 -3
f -4/9/6 -3/9/6 -2/9/6
f -2/9/6 -3/9/6 -1/9/6
v -5.5 10 8
v 2.5 10 8
v -6.5 10 7
v -5.5 10 7
v -4.5 10 7
v 1.5 10 7
v 2.5 10 7
v 3.5 10 7
v -5.5 10 6
v -4.5 10 6
v 1.5 10 6
v 2.5 10 6
v 2.5 10 -3
v 3.5 10 -3
v -5.5 10 -4
v -4.5 10 -4
v 1.5 10 -4
v 2.5 10 -4
v 3.5 10 -4
v -6.5 10 -5
v -5.5 10 -5
v -4.5 10 -5
v 1.5 10 -5
v 2.5 10 -5
v 3.5 10 -5
v -5.5 10 -6
v 2.5 10 -6
f -27/7/6 -26/7/6 -24/7/6
f -24/7/6 -26/7/6 -23/7/6
f -23/7/6 -26/7/6 -22/7/6
f -22/7/6 -26/7/6 -21/7/6
f -25/7/6 -24/7/6 -19/7/6
f -24/7/6 -23/7/6 -19/7/6
f -19/7/6 -23/7/6 -18/7/6
f -21/7/6 -20/7/6 -17/7/6
f -22/7/6 -21/7/6 -17/7/6
f -17/7/6 -20/7/6 -16/7/6
f -16/7/6 -20/7/6 -15/7/6
f -15/7/6 -20/7/6 -14/7/6
f -25/7/6 -19/7/6 -13/7/6
f -25/7/6 -13/7/6 -8/7/6
f -13/7/6 -12/7/6 -8/7/6
f -8/7/6 -12/7/6 -7/7/6
f -7/7/6 -12/7/6 -6/7/6
f -10/7/6 -9/7/6 -5/7/6
f -11/7/6 -10/7/6 -5/7/6
f -5/7/6 -9/7/6 -4/7/6
f -4/7/6 -9/7/6 -3/7/6
f -7/7/6 -6/7/6 -2/7/6
f -5/7/6 -4/7/6 -2/7/6
f -6/7/6 -5/7/6 -2/7/6
f -2/7/6 -4/7/6 -1/7/6
v -4.5 11 7
v 1.5 11 7
v -5.5 11 6
v -4.5 11 6
v 1.5 11 6
v 2.5 11 6
v 2.5 11 -3
v 4.5 11 -3
v -5.5 11 -4
v -4.5 11 -4
v 1.5 11 -4
v 2.5 11 -4
v 4.5 11 -4
v -4.5 11 -5
v 1.5 11 -5
f -15/7/6 -14/7/6 -12/7/6
f -12/7/6 -14/7/6 -11/7/6
f -11/7/6 -10/7/6 -9/7/6
f -13/7/6 -12/7/6 -7/7/6
f -7/7/6 -12/7/6 -6/7/6
f -11/7/6 -9/7/6 -5/7/6
f -9/9/6 -8/9/6 -4/9/6
f -5/7/6 -9/7/6 -4/7/6
f -4/9/6 -8/9/6 -3/9/6
f -6/7/6 -5/7/6 -2/7/6
f -2/7/6 -5/7/6 -1/7/6
v -4.5 20 6
v 1.5 20 6
v -4.5 20 -4
v 1.5 20 -4
f -4/6/6 -3/6/6 -2/6/6
f -2/6/6 -3/6/6 -1/6/6
